<svg xmlns="http://www.w3.org/2000/svg">
<defs>
<font id="f7bb992a3fb3202c6e94105ce2c4bce8" horiz-adv-x='1024' >
  <font-face 
    font-family="GTWalsheimProLight-Oblique"
    font-weight="350"
    font-style="oblique"
    font-stretch="normal"
    units-per-em="1000"
    panose-1="2 0 5 3 4 0 0 2 0 3"
    ascent="750"
    descent="-250"
    x-height="443"
    cap-height="700"
    bbox="-140 -328 1195.86 976"
    underline-thickness="50"
    underline-position="-50"
    slope="-6"
    unicode-range="U+000D-FB04"
  />
<missing-glyph horiz-adv-x="800" 
d="M473 717q80 0 141 -27.5t102.5 -73t63 -105.5t21.5 -125q0 -77 -29 -150t-81.5 -129t-126 -90t-162.5 -34q-80 0 -141.5 27.5t-103 73t-63 105.5t-21.5 125q0 77 29 149.5t82 129t126.5 90.5t162.5 34zM473 695q-42 0 -79 -8t-67 -21t-59 -32t-55 -44
q-25 -24 -44.5 -52.5t-33.5 -57.5q-17 -35 -25.5 -66.5t-12.5 -63.5q-7 -66 11 -129q8 -32 22 -59.5t33 -50.5q20 -24 43.5 -43t54.5 -33q64 -29 140 -29t145 29q34 14 61 32.5t53 43.5q49 48 79 110q15 31 27 67.5t12 92.5q0 26 -3 51t-9 48q-8 29 -22 57t-34 53
q-40 48 -98 76q-63 29 -139 29zM192 228q12 -8 31 -20t42.5 -23.5t51 -19.5t56.5 -8q42 4 82 8q34 4 70 8t62 7q-18 -23 -41.5 -44.5t-61.5 -39.5q-30 -14 -60 -22t-53 -8q-47 0 -91.5 37.5t-87.5 124.5zM247 259l207 268l-136 -243h178l-2 -25h-247zM248 169q12 -21 29 -36
t36 -24t36.5 -13t31.5 -4q22 0 49 9t51 20t41.5 21t21.5 13q-35 -7 -78.5 -15t-87.5 -8q-15 0 -33.5 1.5t-36 5.5t-33.5 11.5t-27 18.5zM254 496q0 20 14 33.5t32 13.5q17 0 28 -11t11 -28q0 -19 -14 -33t-33 -14q-17 0 -27.5 11.5t-10.5 27.5zM551 496q0 20 14 33.5
t32 13.5q17 0 28 -11t11 -28q0 -19 -14 -33t-33 -14q-17 0 -27.5 11.5t-10.5 27.5zM617 161q4 9 4 18q0 7 -2 13q-2 5 -3 5q-2 2 -1.5 1.5t-1.5 0.5q-3 1 -2.5 1t-1.5 1l-13 5q-7 4 -15 8t-16 11q-11 9 -16 20l-2 11q-2 7 -2.5 8t0.5 6q-1 8 -1.5 15.5t0.5 15.5q2 5 2.5 10
t2.5 9l14 -5q0 -2 -1 -4.5t-1 -5.5l-1 -13q0 -7 -0.5 -14t1.5 -13q1 -2 1.5 -6t2.5 -6q2 -6 7.5 -12t9.5 -8q8 -5 15.5 -8t9.5 -5l14 -6q2 -1 3 -2l3 -3q6 -5 5.5 -5.5t1.5 -3.5q3 -9 3 -19q0 -13 -4 -24zM248 331q-1 -5 -0.5 -10t0.5 -10v-12q0 -8 -2.5 -16t-6.5 -13

<glyph glyph-name="IJ" unicode="IJ" horiz-adv-x="772" 
d="M722 216q-5 -51 -25.5 -93.5t-52.5 -73t-74.5 -47.5t-92.5 -17t-90 17t-67 47.5t-39 73.5t-6 94h68q-4 -41 5 -72.5t28 -53t47 -33t61 -11.5q69 0 115 45.5t54 123.5l51 484h69zM157 700h70l-74 -700h-70z" />
    <glyph glyph-name="ij" unicode="ij" horiz-adv-x="461" 
d="M130 443h65l-47 -443h-65zM120 611q0 27 20 46.5t46 19.5q24 0 39.5 -16t15.5 -39q0 -27 -20 -46t-47 -19q-23 0 -38.5 15.5t-15.5 38.5zM364 -135q-8 -69 -39 -99.5t-79 -30.5q-13 0 -33 2.5t-34 9.5l6 57q15 -6 24.5 -8.5t20.5 -2.5q61 0 69 76l60 574h66zM350 611
q0 27 20 46.5t46 19.5q24 0 39.5 -16t15.5 -39q0 -27 -20 -46t-47 -19q-23 0 -38.5 15.5t-15.5 38.5z" />
    <glyph glyph-name="uniFB00" unicode="ff" horiz-adv-x="670" 
d="M393 638q-11 5 -23 7t-30 2q-15 0 -30 -2.5t-28 -12.5t-22.5 -30t-13.5 -54l-11 -105h138l-6 -56h-138l-41 -387h-65l41 387h-101l6 56h101l10 99q6 55 23 87.5t39.5 49.5t48 22t47.5 5q23 0 37 -3.5t24 -8.5zM728 638q-11 5 -23 7t-30 2q-15 0 -30 -2.5t-28 -12.5
t-22.5 -30t-13.5 -54l-11 -105h138l-6 -56h-138l-41 -387h-65l41 387h-101l6 56h101l10 99q6 55 23 87.5t39.5 49.5t48 22t47.5 5q23 0 37 -3.5t24 -8.5z" />
    <glyph glyph-name="fi" unicode="fi" horiz-adv-x="588" 
d="M393 638q-11 5 -23 7t-30 2q-15 0 -30 -2.5t-28 -12.5t-22.5 -30t-13.5 -54l-11 -105h138l-6 -56h-138l-41 -387h-65l41 387h-101l6 56h101l10 99q6 55 23 87.5t39.5 49.5t48 22t47.5 5q23 0 37 -3.5t24 -8.5zM476 443h65l-47 -443h-65zM469 611q0 26 18.5 44.5
t44.5 18.5q23 0 38 -15t15 -38q0 -26 -19 -44t-45 -18q-23 0 -37.5 15t-14.5 37z" />
    <glyph glyph-name="fl" unicode="fl" horiz-adv-x="566" 
d="M393 638q-11 5 -23 7t-30 2q-15 0 -30 -2.5t-28 -12.5t-22.5 -30t-13.5 -54l-11 -105h138l-6 -56h-138l-41 -387h-65l41 387h-101l6 56h101l10 99q6 55 23 87.5t39.5 49.5t48 22t47.5 5q23 0 37 -3.5t24 -8.5zM492 700h65l-74 -700h-65z" />
    <glyph glyph-name="uniFB03" unicode="ffi" horiz-adv-x="923" 
d="M393 638q-11 5 -23 7t-30 2q-15 0 -30 -2.5t-28 -12.5t-22.5 -30t-13.5 -54l-11 -105h138l-6 -56h-138l-41 -387h-65l41 387h-101l6 56h101l10 99q6 55 23 87.5t39.5 49.5t48 22t47.5 5q23 0 37 -3.5t24 -8.5zM728 638q-11 5 -23 7t-30 2q-15 0 -30 -2.5t-28 -12.5
t-22.5 -30t-13.5 -54l-11 -105h138l-6 -56h-138l-41 -387h-65l41 387h-101l6 56h101l10 99q6 55 23 87.5t39.5 49.5t48 22t47.5 5q23 0 37 -3.5t24 -8.5zM811 443h65l-47 -443h-65zM802 611q0 27 19.5 46.5t45.5 19.5q24 0 39.5 -16t15.5 -39q0 -27 -20 -46t-47 -19
q-23 0 -38 15.5t-15 38.5z" />
    <glyph glyph-name="uniFB04" unicode="ffl" horiz-adv-x="899" 
d="M393 638q-11 5 -23 7t-30 2q-15 0 -30 -2.5t-28 -12.5t-22.5 -30t-13.5 -54l-11 -105h138l-6 -56h-138l-41 -387h-65l41 387h-101l6 56h101l10 99q6 55 23 87.5t39.5 49.5t48 22t47.5 5q23 0 37 -3.5t24 -8.5zM728 638q-11 5 -23 7t-30 2q-15 0 -30 -2.5t-28 -12.5
t-22.5 -30t-13.5 -54l-11 -105h138l-6 -56h-138l-41 -387h-65l41 387h-101l6 56h101l10 99q6 55 23 87.5t39.5 49.5t48 22t47.5 5q23 0 37 -3.5t24 -8.5zM827 700h65l-74 -700h-65z" />
    <glyph glyph-name=".notdef" horiz-adv-x="800" 
d="M473 717q80 0 141 -27.5t102.5 -73t63 -105.5t21.5 -125q0 -77 -29 -150t-81.5 -129t-126 -90t-162.5 -34q-80 0 -141.5 27.5t-103 73t-63 105.5t-21.5 125q0 77 29 149.5t82 129t126.5 90.5t162.5 34zM473 695q-42 0 -79 -8t-67 -21t-59 -32t-55 -44
q-25 -24 -44.5 -52.5t-33.5 -57.5q-17 -35 -25.5 -66.5t-12.5 -63.5q-7 -66 11 -129q8 -32 22 -59.5t33 -50.5q20 -24 43.5 -43t54.5 -33q64 -29 140 -29t145 29q34 14 61 32.5t53 43.5q49 48 79 110q15 31 27 67.5t12 92.5q0 26 -3 51t-9 48q-8 29 -22 57t-34 53
q-40 48 -98 76q-63 29 -139 29zM192 228q12 -8 31 -20t42.5 -23.5t51 -19.5t56.5 -8q42 4 82 8q34 4 70 8t62 7q-18 -23 -41.5 -44.5t-61.5 -39.5q-30 -14 -60 -22t-53 -8q-47 0 -91.5 37.5t-87.5 124.5zM247 259l207 268l-136 -243h178l-2 -25h-247zM248 169q12 -21 29 -36
t36 -24t36.5 -13t31.5 -4q22 0 49 9t51 20t41.5 21t21.5 13q-35 -7 -78.5 -15t-87.5 -8q-15 0 -33.5 1.5t-36 5.5t-33.5 11.5t-27 18.5zM254 496q0 20 14 33.5t32 13.5q17 0 28 -11t11 -28q0 -19 -14 -33t-33 -14q-17 0 -27.5 11.5t-10.5 27.5zM551 496q0 20 14 33.5
t32 13.5q17 0 28 -11t11 -28q0 -19 -14 -33t-33 -14q-17 0 -27.5 11.5t-10.5 27.5zM617 161q4 9 4 18q0 7 -2 13q-2 5 -3 5q-2 2 -1.5 1.5t-1.5 0.5q-3 1 -2.5 1t-1.5 1l-13 5q-7 4 -15 8t-16 11q-11 9 -16 20l-2 11q-2 7 -2.5 8t0.5 6q-1 8 -1.5 15.5t0.5 15.5q2 5 2.5 10
t2.5 9l14 -5q0 -2 -1 -4.5t-1 -5.5l-1 -13q0 -7 -0.5 -14t1.5 -13q1 -2 1.5 -6t2.5 -6q2 -6 7.5 -12t9.5 -8q8 -5 15.5 -8t9.5 -5l14 -6q2 -1 3 -2l3 -3q6 -5 5.5 -5.5t1.5 -3.5q3 -9 3 -19q0 -13 -4 -24zM248 331q-1 -5 -0.5 -10t0.5 -10v-12q0 -8 -2.5 -16t-6.5 -13
q-2 -5 -15 -11q-4 -2 -5 -2q-5 -2 -11 -4.5t-11 -5.5q-4 -1 -10 -5q-2 -1 -3 -2t-4 -3q-4 -7 -6 -13l-4 -17h-16q1 5 1.5 10t2.5 10q4 13 11 20q4 4 6 5t5 3l11 7q4 2 11.5 5t13.5 5l1 1q5 2 10 8q5 5 5 16v12l-1 20zM600 196q1 1 -0.5 -7t-2.5 -8q-3 -1 -10 -1q7 7 13 16z
" />
    <glyph glyph-name=".null" horiz-adv-x="0" 
 />
    <glyph glyph-name=".null" horiz-adv-x="0" 
 />
    <glyph glyph-name="nonmarkingreturn" unicode="&#xd;" horiz-adv-x="250" 
 />
    <glyph glyph-name="space" unicode=" " horiz-adv-x="255" 
 />
    <glyph glyph-name="exclam" unicode="!" horiz-adv-x="283" 
d="M180 708h71l-53 -505h-71zM85 45q0 28 20.5 48t47.5 20q25 0 41 -16.5t16 -39.5q0 -28 -21 -48t-48 -20q-25 0 -40.5 16.5t-15.5 39.5z" />
    <glyph glyph-name="quotedbl" unicode="&#x22;" horiz-adv-x="320" 
d="M130 666l5 51h62l-5 -51l-34 -200h-36zM268 666l5 51h62l-5 -51l-34 -200h-36z" />
    <glyph glyph-name="numbersign" unicode="#" horiz-adv-x="550" 
d="M358 214h-150l-52 -214h-55l52 214h-102l5 52h109l41 168h-102l6 52h110l51 214h55l-51 -214h150l51 214h55l-51 -214h92l-6 -52h-100l-41 -168h93l-5 -52h-100l-52 -214h-55zM220 266h150l41 168h-150z" />
    <glyph glyph-name="dollar" unicode="$" horiz-adv-x="572" 
d="M411 713q87 -8 133.5 -62.5t38.5 -145.5h-69q3 32 -3 59.5t-22.5 47t-43.5 30.5t-66 11q-36 0 -66 -9.5t-51.5 -27.5t-33.5 -42.5t-12 -54.5q0 -31 12 -51.5t32 -34.5t45.5 -23.5t53.5 -16.5q39 -11 76 -24.5t66.5 -34.5t47 -52.5t17.5 -79.5q0 -45 -16.5 -83t-47 -66
t-73.5 -45.5t-95 -21.5l-10 -101h-52l10 101q-48 4 -85.5 22t-63 48t-37 71t-6.5 90h68q-8 -81 37 -125.5t126 -44.5q39 0 71 10.5t55.5 29t36.5 45.5t13 60t-12 54.5t-32 36t-45 23.5t-52 16q-42 12 -80 25.5t-66.5 34t-45.5 50.5t-17 76q0 83 55.5 139.5t156.5 66.5
l11 101h52z" />
    <glyph glyph-name="percent" unicode="%" horiz-adv-x="883" 
d="M828 118q-3 -26 -15 -48.5t-31.5 -40t-45.5 -27.5t-56 -10q-31 0 -55 10.5t-39.5 28.5t-22.5 41.5t-4 49.5l15 144q3 25 15 48t31.5 40.5t45.5 27.5t56 10q31 0 55 -10.5t39.5 -28.5t23 -41.5t4.5 -49.5zM614 122q-4 -34 15 -58.5t56 -24.5t61 24.5t28 58.5l15 140
q4 34 -15.5 58.5t-56.5 24.5t-60.5 -24.5t-27.5 -58.5zM112 437l15 143q3 26 14.5 49t31 40.5t45.5 27.5t56 10q31 0 55 -10.5t40 -28.5t23.5 -41.5t4.5 -50.5l-15 -143q-3 -26 -15 -49t-32 -40t-46 -27t-57 -10t-54.5 10.5t-39 28t-22.5 41t-4 50.5zM342 576q2 16 -2 31
t-13 27t-23.5 19t-33.5 7q-20 0 -35.5 -7.5t-26.5 -19.5t-18 -27t-8 -30l-15 -139q-4 -33 14.5 -58.5t56.5 -25.5q37 0 61 25t28 59zM715 752l49 -31l-516 -753l-49 31z" />
    <glyph glyph-name="ampersand" unicode="&#x26;" horiz-adv-x="599" 
d="M382 296h227l-7 -62h-66q-6 -54 -26.5 -99t-53.5 -77.5t-77 -50.5t-98 -18q-45 0 -84 13t-67.5 37.5t-44.5 59.5t-16 78q0 72 42.5 119t111.5 67q-51 16 -79 51.5t-28 91.5q0 46 18.5 83.5t51 64.5t75.5 42t91 15q49 0 87.5 -15t64 -42t37 -64t6.5 -80h-69
q7 62 -26.5 100t-106.5 38q-72 0 -115.5 -37t-43.5 -101q0 -51 32 -83.5t104 -32.5h29l-6 -61h-29q-44 0 -77.5 -12t-56 -33t-34 -48.5t-11.5 -57.5q0 -57 39 -93.5t109 -36.5q82 0 127.5 50t54.5 132h-92z" />
    <glyph glyph-name="quotesingle" unicode="'" horiz-adv-x="182" 
d="M130 666l5 51h62l-5 -51l-34 -200h-36z" />
    <glyph glyph-name="parenleft" unicode="(" horiz-adv-x="346" 
d="M408 732q-37 0 -68.5 -13.5t-55.5 -36.5t-39 -54t-19 -66l-60 -570q-4 -35 4.5 -65.5t27.5 -53.5t48 -36.5t66 -13.5l-6 -63q-53 0 -93.5 18.5t-67.5 50.5t-39.5 74t-7.5 89l60 570q5 47 26 89.5t54.5 74t78 50t97.5 18.5z" />
    <glyph glyph-name="parenright" unicode=")" horiz-adv-x="346" 
d="M99 794q53 0 93.5 -18.5t67.5 -50t39 -74t7 -89.5l-60 -570q-5 -47 -25.5 -89t-54.5 -74t-78.5 -50.5t-97.5 -18.5l7 63q37 0 69 13.5t55.5 36.5t38 53.5t18.5 65.5l60 570q4 35 -4.5 66t-27.5 54t-48 36.5t-66 13.5z" />
    <glyph glyph-name="asterisk" unicode="*" horiz-adv-x="454" 
d="M138 393l119 133l-149 43l19 44l144 -58l9 162h47l-25 -162l155 58l10 -44l-160 -43l93 -133l-44 -29l-75 141l-107 -141z" />
    <glyph glyph-name="plus" unicode="+" 
d="M261 88l18 167h-164l6 59h164l18 168h65l-18 -168h165l-6 -59h-165l-18 -167h-65z" />
    <glyph glyph-name="comma" unicode="," horiz-adv-x="250" 
d="M60 49q0 27 20 46.5t51 19.5q32 0 49.5 -24t17.5 -69q0 -68 -39.5 -103t-108.5 -35l4 36q58 0 75 41q8 14 9 24t2 18q-10 -8 -27 -8q-24 0 -38.5 15.5t-14.5 38.5z" />
    <glyph glyph-name="hyphen" unicode="-" horiz-adv-x="294" 
d="M291 255h-234l6 59h234z" />
    <glyph glyph-name="period" unicode="." horiz-adv-x="230" 
d="M60 50q0 27 20 46t46 19q24 0 39.5 -16t15.5 -39q0 -26 -20 -45.5t-47 -19.5q-24 0 -39 16t-15 39z" />
    <glyph glyph-name="slash" unicode="/" horiz-adv-x="420" 
d="M458 799l57 -26l-453 -845l-57 25z" />
    <glyph glyph-name="zero" unicode="0" horiz-adv-x="578" 
d="M107 480q5 47 25.5 89.5t54.5 74t78.5 50t97.5 18.5t94.5 -18.5t68.5 -50t39.5 -74t7.5 -89.5l-28 -261q-5 -47 -26 -89t-54.5 -73.5t-78.5 -50t-98 -18.5t-94.5 18.5t-68.5 50t-39 73.5t-7 89zM504 480q4 35 -4.5 66t-28 54t-48.5 36.5t-67 13.5t-69.5 -13.5t-55 -36.5
t-38 -54t-18.5 -66l-28 -261q-4 -35 4.5 -65.5t27.5 -53.5t47.5 -36.5t66.5 -13.5t70 13.5t56 36.5t38.5 53.5t18.5 65.5z" />
    <glyph glyph-name="one" unicode="1" horiz-adv-x="325" 
d="M93 584q46 0 75 6.5t46 20t25 35.5t11 54h65l-73 -700h-70l55 528h-140z" />
    <glyph glyph-name="two" unicode="2" horiz-adv-x="526" 
d="M47 0q9 82 27.5 138t48.5 94.5t71.5 64t95.5 48.5q33 13 64.5 28t57 36t41 49.5t15.5 68.5q0 58 -34 89.5t-95 31.5q-72 0 -118 -42t-54 -114h-68q5 48 25.5 88.5t53 69.5t75.5 45t93 16q88 0 139 -47t51 -130q0 -55 -22 -95t-54.5 -68.5t-70 -47t-68.5 -30.5
q-51 -23 -85.5 -45t-56.5 -48t-33 -59.5t-15 -78.5h360l-7 -62h-437v0z" />
    <glyph glyph-name="three" unicode="3" horiz-adv-x="549" 
d="M123 208q-4 -36 5.5 -64.5t29.5 -49t49.5 -31.5t66.5 -11q39 0 70.5 12t54 33t35 49t12.5 61q0 54 -35.5 90t-108.5 36h-53l7 61h53q39 0 69 11t50 29.5t30 44t10 54.5q0 57 -36 86t-98 29q-38 0 -67 -10.5t-49 -29.5t-31.5 -44t-14.5 -54h-68q5 46 24.5 83t51 63.5
t72 40.5t87.5 14q43 0 79.5 -12t62.5 -34.5t40.5 -54.5t14.5 -72q0 -66 -37.5 -112.5t-102.5 -62.5q55 -14 87 -53t32 -101q0 -48 -20 -88.5t-54 -69.5t-79.5 -45.5t-97.5 -16.5q-49 0 -90 15t-69 43.5t-41.5 69t-8.5 91.5h68z" />
    <glyph glyph-name="four" unicode="4" horiz-adv-x="546" 
d="M361 240h-266l48 460h68l-41 -398h198l23 221h68l-23 -221h114l-7 -62h-114l-25 -240h-68z" />
    <glyph glyph-name="five" unicode="5" horiz-adv-x="590" 
d="M158 700h400l-6 -62h-337l-29 -273q26 41 74.5 63t101.5 22q47 0 83.5 -16t62 -43.5t39 -65t13.5 -79.5q0 -52 -19 -98.5t-53.5 -82t-82 -56t-103.5 -20.5q-54 0 -95 18.5t-68.5 50.5t-39.5 74t-7 89h69q-4 -35 4.5 -65.5t27 -53.5t48 -36.5t67.5 -13.5q40 0 73.5 15
t58 40.5t38 59t13.5 70.5q0 31 -10 59t-29 48.5t-47 32.5t-64 12q-48 0 -87.5 -22.5t-65.5 -68.5h-72z" />
    <glyph glyph-name="six" unicode="6" horiz-adv-x="543" 
d="M270 -11q-50 0 -89 17t-66 45.5t-41.5 66.5t-14.5 81q0 45 14.5 82.5t39.5 72.5l251 346h80l-201 -269q14 12 34.5 17t44.5 5q47 0 85 -16.5t65 -45t41.5 -67t14.5 -81.5q0 -51 -19.5 -97t-54 -81t-82 -55.5t-102.5 -20.5zM276 52q40 0 73.5 15t58 40.5t38 59t13.5 70.5
q0 31 -10 59t-29 49t-47 33.5t-63 12.5q-40 0 -73.5 -15t-58 -40.5t-38 -59.5t-13.5 -71q0 -32 10 -59.5t29 -48.5t47 -33t63 -12z" />
    <glyph glyph-name="seven" unicode="7" horiz-adv-x="454" 
d="M533 700l-397 -700h-73l365 638h-323l7 62h421z" />
    <glyph glyph-name="eight" unicode="8" horiz-adv-x="571" 
d="M285 -11q-50 0 -89.5 14t-66.5 39t-41 59t-14 73q0 32 9.5 62.5t28.5 56t47 44.5t64 27q-53 15 -76.5 53.5t-23.5 86.5q0 43 17 81t48 66t74.5 44t96.5 16q48 0 85 -13.5t62.5 -37t38.5 -55t13 -68.5q0 -29 -8 -56t-24.5 -50t-42 -40.5t-59.5 -26.5q30 -7 51.5 -23
t35 -37t20 -45.5t6.5 -49.5q0 -44 -18 -84t-51 -70t-79.5 -48t-103.5 -18zM327 388q37 0 67 11t51 30t32.5 45t11.5 55q0 51 -35 85t-101 34q-36 0 -65.5 -11t-51 -30.5t-33 -45.5t-11.5 -56q0 -51 34.5 -84t100.5 -33zM291 52q40 0 73 12t56 33t36 48.5t13 59.5
q0 27 -9.5 50t-28.5 40t-47 27t-65 10q-40 0 -72.5 -12t-56 -32.5t-36 -48.5t-12.5 -59q0 -57 39.5 -92.5t109.5 -35.5z" />
    <glyph glyph-name="nine" unicode="9" horiz-adv-x="543" 
d="M347 711q50 0 89 -17t66 -45.5t41.5 -66.5t14.5 -80q0 -45 -15 -83t-40 -73l-251 -346h-79l200 269q-22 -22 -72 -22q-47 0 -86 16t-67 44t-43.5 66.5t-15.5 83.5q0 51 19.5 97t54 81t81.5 55.5t103 20.5zM341 648q-40 0 -73.5 -15t-58 -40.5t-38.5 -59t-14 -70.5
q0 -32 10 -60t29.5 -49t47.5 -33t63 -12q40 0 73.5 15t58 40.5t38 59.5t13.5 71q0 31 -10 59t-29 49t-47 33t-63 12z" />
    <glyph glyph-name="colon" unicode=":" horiz-adv-x="230" 
d="M96 388q0 27 20 46.5t46 19.5q24 0 39.5 -16t15.5 -39q0 -27 -20.5 -46t-47.5 -19q-23 0 -38 15.5t-15 38.5zM60 49q0 27 20 46.5t46 19.5q24 0 39.5 -16t15.5 -39q0 -27 -20 -46t-47 -19q-24 0 -39 15.5t-15 38.5z" />
    <glyph glyph-name="semicolon" unicode=";" horiz-adv-x="235" 
d="M60 49q0 27 20 46.5t51 19.5q32 0 49.5 -24t17.5 -69q0 -68 -39.5 -103t-108.5 -35l4 36q58 0 75 41q8 14 9 24t2 18q-10 -8 -27 -8q-24 0 -38.5 15.5t-14.5 38.5zM96 389q0 27 20 46.5t46 19.5q24 0 39.5 -16t15.5 -39q0 -27 -20.5 -46t-46.5 -19q-24 0 -39 15.5
t-15 38.5z" />
    <glyph glyph-name="less" unicode="&#x3c;" 
d="M58 259l5 49l527 185l-7 -63l-426 -146l395 -147l-6 -63z" />
    <glyph glyph-name="equal" unicode="=" 
d="M119 338l6 59h404l-6 -59h-404zM101 170l6 59h404l-6 -59h-404z" />
    <glyph glyph-name="greater" unicode="&#x3e;" 
d="M40 74l7 63l426 147l-396 146l7 63l488 -185l-6 -49z" />
    <glyph glyph-name="question" unicode="?" horiz-adv-x="497" 
d="M210 188q4 38 13 66.5t23 50t33.5 39t46.5 33.5q16 10 36.5 23t38.5 32t30 44.5t12 59.5q0 56 -33.5 85t-92.5 29q-72 0 -119.5 -41t-55.5 -116h-68q5 49 25.5 89.5t53 69t75.5 44.5t93 16q87 0 139 -45.5t52 -126.5q0 -44 -15 -76.5t-36 -55.5t-43 -38t-36 -24
q-25 -16 -43.5 -29.5t-31 -30t-20 -40t-11.5 -58.5h-66zM167 45q0 28 20 48t48 20q25 0 40.5 -16.5t15.5 -39.5q0 -28 -20.5 -48t-48.5 -20q-25 0 -40 16.5t-15 39.5z" />
    <glyph glyph-name="at" unicode="@" horiz-adv-x="877" 
d="M585 95q-24 -42 -68 -68t-99 -26q-41 0 -74.5 15t-57 40.5t-36.5 59t-13 71.5q0 45 17.5 85.5t47.5 71.5t70.5 49.5t87.5 18.5q57 0 95 -26t53 -68l9 85h55l-32 -303q-5 -49 12 -73t47 -24q31 0 53.5 22.5t37.5 59t22 82t7 90.5q0 81 -21 138.5t-59.5 94.5t-93.5 54.5
t-123 17.5q-92 0 -168.5 -29.5t-131.5 -81t-85 -121t-30 -150.5q0 -66 21 -125t64 -103.5t108 -71t153 -26.5q48 0 111 11t127 45l18 -45q-72 -38 -140.5 -50.5t-123.5 -12.5q-101 0 -175 30.5t-122.5 82t-72.5 119t-24 141.5q0 93 35 173t98.5 139.5t151.5 93t194 33.5
q79 0 143 -20.5t109 -64t69 -110t24 -159.5q0 -55 -9.5 -110t-31.5 -99.5t-57.5 -72t-87.5 -27.5t-79 29t-29 81zM430 52q36 0 66.5 13.5t53 37t35 54t12.5 64.5q0 29 -9.5 54.5t-27 44.5t-43 30t-57.5 11q-36 0 -66.5 -14t-53 -37t-35 -54t-12.5 -65q0 -28 9 -53.5
t26.5 -44.5t43 -30t58.5 -11z" />
    <glyph glyph-name="A" unicode="A" horiz-adv-x="546" 
d="M468 0l-30 125h-304l-56 -125h-72l315 700h52l167 -700h-72zM335 591l-173 -404h262z" />
    <glyph glyph-name="B" unicode="B" horiz-adv-x="583" 
d="M157 700h239q50 0 85 -15t56.5 -39t31 -53.5t9.5 -59.5q0 -36 -12 -66.5t-32 -53.5t-46 -38.5t-54 -21.5q20 -2 40.5 -13.5t37 -31t27 -45.5t10.5 -58q0 -34 -13.5 -70t-41 -66t-70.5 -49.5t-102 -19.5h-239zM185 321l-27 -259h174q37 0 64.5 12.5t46 32.5t28 44.5
t9.5 49.5q0 21 -7 42.5t-22 39t-37 28t-52 10.5h-177zM365 383q36 0 63 13t45 33t27 45t9 49q0 21 -7 41.5t-21.5 37t-37.5 26.5t-54 10h-171l-27 -255h174z" />
    <glyph glyph-name="C" unicode="C" horiz-adv-x="775" 
d="M755 206q-19 -47 -52.5 -87.5t-78.5 -70t-100.5 -46.5t-117.5 -17q-78 0 -139 26.5t-103 72t-64 105.5t-22 127q0 76 28 148t80 128t126 89.5t167 33.5q71 0 125.5 -20t92.5 -54t59.5 -80t25.5 -97h-71q-6 40 -23.5 75t-47.5 60t-71.5 39.5t-94.5 14.5q-75 0 -135.5 -28
t-102.5 -74.5t-65 -106.5t-23 -123q0 -56 18 -106t52.5 -87.5t84 -59t112.5 -21.5q92 0 161.5 44.5t103.5 114.5h75z" />
    <glyph glyph-name="D" unicode="D" horiz-adv-x="694" 
d="M362 700q81 0 142 -27t102.5 -71t62.5 -101.5t21 -118.5q0 -71 -28 -139.5t-80 -122.5t-126.5 -87t-167.5 -33h-205l74 700h205zM218 638l-60 -576h137q75 0 135 27t102 71.5t64.5 101t22.5 115.5q0 50 -17 97t-50 83.5t-82.5 58.5t-114.5 22h-137z" />
    <glyph glyph-name="E" unicode="E" horiz-adv-x="543" 
d="M218 638l-27 -259h314l-7 -62h-314l-26 -255h314l-7 -62h-382l74 700h382l-7 -62h-314z" />
    <glyph glyph-name="F" unicode="F" horiz-adv-x="538" 
d="M218 638l-29 -277h314l-7 -62h-314l-31 -299h-68l74 700h382l-7 -62h-314z" />
    <glyph glyph-name="G" unicode="G" horiz-adv-x="833" 
d="M497 324h342l-7 -62h-74q-14 -61 -44.5 -112t-75.5 -87.5t-104 -57t-129 -20.5q-83 0 -144.5 27t-102 72t-61 104t-20.5 123q0 78 29 151t81 129t125 90t161 34q58 0 105.5 -15t83 -41.5t56.5 -62t26 -77.5h-70q-5 28 -22 52.5t-44 42.5t-63 28.5t-79 10.5
q-71 0 -130 -28t-101 -75t-65 -107.5t-23 -124.5q0 -53 16 -102t49 -86.5t83 -60t118 -22.5q57 0 103 16.5t80 45t56.5 68t33.5 85.5h-196z" />
    <glyph glyph-name="H" unicode="H" horiz-adv-x="663" 
d="M544 317h-360l-33 -317h-68l74 700h68l-34 -321h360l34 321h69l-74 -700h-69z" />
    <glyph glyph-name="I" unicode="I" horiz-adv-x="236" 
d="M157 700h70l-74 -700h-70z" />
    <glyph glyph-name="J" unicode="J" horiz-adv-x="536" 
d="M485 216q-5 -51 -25 -93.5t-52 -73t-74.5 -47.5t-92.5 -17t-90 17t-67 47.5t-39 73.5t-7 94h68q-4 -41 5 -72.5t28.5 -53t47.5 -33t61 -11.5q69 0 114.5 45.5t53.5 123.5l51 484h69z" />
    <glyph glyph-name="K" unicode="K" horiz-adv-x="574" 
d="M185 328l-34 -328h-68l74 700h68l-35 -329l361 329h88l-381 -350l307 -350h-88z" />
    <glyph glyph-name="L" unicode="L" horiz-adv-x="422" 
d="M399 62l-7 -62h-309l74 700h68l-67 -638h241z" />
    <glyph glyph-name="M" unicode="M" horiz-adv-x="810" 
d="M727 0h-68l57 541l-284 -541h-54l-170 541l-57 -541h-68l74 700h66l193 -597l319 597h66z" />
    <glyph glyph-name="N" unicode="N" horiz-adv-x="662" 
d="M522 118l62 582h69l-74 -700h-76l-291 582l-61 -582h-68l74 700h76z" />
    <glyph glyph-name="O" unicode="O" horiz-adv-x="806" 
d="M405 -15q-80 0 -141 27t-102 73t-62.5 105.5t-21.5 124.5q0 76 29 148.5t81 128t125 89.5t162 34q79 0 140.5 -27t102.5 -73t62.5 -105.5t21.5 -124.5q0 -77 -29 -149t-81 -127.5t-125.5 -89.5t-161.5 -34zM410 47q71 0 130 28t101.5 74.5t66 106.5t23.5 124
q0 54 -17 103t-50 87t-82 60.5t-113 22.5q-71 0 -130 -28t-101 -74.5t-65.5 -106.5t-23.5 -124q0 -54 17 -103t50 -87t82 -60.5t112 -22.5z" />
    <glyph glyph-name="P" unicode="P" horiz-adv-x="596" 
d="M157 700h241q49 0 88.5 -17t66.5 -45.5t41.5 -67t14.5 -81.5q0 -50 -19.5 -96t-54 -81t-82 -55.5t-104.5 -20.5h-173l-25 -236h-68zM355 298q41 0 75 15t58 41t37.5 59.5t13.5 71.5q0 31 -10 59t-29 49t-46.5 33t-62.5 12h-173l-36 -340h173z" />
    <glyph glyph-name="Q" unicode="Q" horiz-adv-x="806" 
d="M802 382q0 -73 -25 -138t-68.5 -116t-103 -85.5t-129.5 -46.5l55 -90l-64 -30l-66 109q-79 0 -139.5 28t-101 74t-61.5 105.5t-21 123.5q0 76 29 148t81.5 127.5t125.5 89.5t162 34q79 0 140 -27.5t102.5 -73t62.5 -106t21 -126.5zM410 47q71 0 130 28t101.5 74.5
t66 106.5t23.5 124q0 54 -17 103t-50 87t-82 60.5t-113 22.5q-71 0 -130 -28t-101 -74.5t-65.5 -106.5t-23.5 -124q0 -54 17 -103t50 -87t82 -60.5t112 -22.5z" />
    <glyph glyph-name="R" unicode="R" horiz-adv-x="602" 
d="M157 700h241q49 0 88.5 -17t66.5 -45.5t41.5 -66.5t14.5 -81q0 -42 -13.5 -81t-38.5 -71.5t-60 -56t-77 -34.5l131 -247h-79l-124 236h-172l-25 -236h-68zM355 298q41 0 75 15t58 41t37.5 59.5t13.5 71.5q0 31 -10 59t-29 49t-46.5 33t-62.5 12h-173l-36 -340h173z" />
    <glyph glyph-name="S" unicode="S" horiz-adv-x="572" 
d="M138 217q-8 -80 37.5 -125t126.5 -45q38 0 70 10.5t55.5 29t36.5 45.5t13 60t-12 54.5t-32 36t-45 23.5t-52 16q-41 12 -78.5 25.5t-66.5 33.5t-46 50.5t-17 76.5t17.5 84t49 65.5t74.5 42.5t95 15t91 -15t64.5 -43t36.5 -66.5t7 -85.5h-68q3 33 -4 60t-23.5 46.5
t-43.5 30.5t-66 11q-72 0 -116.5 -37t-44.5 -97q0 -31 12 -51.5t31.5 -34.5t45 -23.5t53.5 -16.5q39 -11 76 -24.5t66.5 -34.5t47 -53t17.5 -80q0 -50 -19.5 -89.5t-54 -68t-80.5 -43.5t-100 -15q-58 0 -102 17.5t-72.5 48t-40.5 73t-7 93.5h68z" />
    <glyph glyph-name="T" unicode="T" horiz-adv-x="474" 
d="M269 638h-188l7 62h446l-7 -62h-190l-67 -638h-68z" />
    <glyph glyph-name="U" unicode="U" horiz-adv-x="618" 
d="M146 700h68l-50 -480q-4 -35 4.5 -66.5t28 -55t49.5 -37.5t68 -14t70.5 14t57 37.5t39.5 55t19 66.5l50 480h68l-50 -480q-5 -48 -26 -90.5t-55 -74.5t-79.5 -51t-99.5 -19q-53 0 -94.5 18.5t-69.5 50.5t-40.5 74.5t-7.5 91.5z" />
    <glyph glyph-name="V" unicode="V" horiz-adv-x="557" 
d="M304 0h-51l-174 700h72l140 -590l263 590h72z" />
    <glyph glyph-name="W" unicode="W" horiz-adv-x="946" 
d="M535 584l-239 -584h-53l-163 700h72l129 -585l239 585h54l116 -585l252 585h72l-311 -700h-53z" />
    <glyph glyph-name="X" unicode="X" horiz-adv-x="534" 
d="M520 700h78l-255 -350l181 -350h-78l-149 290l-209 -290h-77l254 350l-180 350h77l148 -291z" />
    <glyph glyph-name="Y" unicode="Y" 
d="M209 0h-75l171 277l-222 423h79l185 -353l218 353h75z" />
    <glyph glyph-name="Z" unicode="Z" horiz-adv-x="552" 
d="M110 700h509l-481 -638h423l-7 -62h-539l481 638h-393z" />
    <glyph glyph-name="bracketleft" unicode="[" horiz-adv-x="316" 
d="M58 -234l108 1029h192l-6 -60h-127l-96 -910h127l-6 -59h-192z" />
    <glyph glyph-name="backslash" unicode="\" horiz-adv-x="420" 
d="M409 -47l-62 -25l-275 845l62 26z" />
    <glyph glyph-name="bracketright" unicode="]" horiz-adv-x="316" 
d="M16 -234l6 59h127l96 910h-127l6 59h192l-108 -1028h-192z" />
    <glyph glyph-name="asciicircum" unicode="^" horiz-adv-x="628" 
d="M529 323l-146 346l-217 -346h-72l273 427h49l186 -427h-73z" />
    <glyph glyph-name="underscore" unicode="_" horiz-adv-x="560" 
d="M20 -98l5 48h500l-5 -48h-500z" />
    <glyph glyph-name="grave" unicode="`" horiz-adv-x="419" 
d="M131 676l37 52l235 -137l-37 -52z" />
    <glyph glyph-name="a" unicode="a" horiz-adv-x="592" 
d="M556 443l-47 -443h-65l10 93q-26 -45 -74.5 -74.5t-111.5 -29.5q-46 0 -83.5 17t-64 45.5t-41 67t-14.5 81.5q0 51 19.5 96.5t53.5 80.5t80 55.5t99 20.5q66 0 106.5 -29.5t57.5 -74.5l10 94h65zM282 49q40 0 74.5 15.5t59 41.5t38.5 60t14 72q0 32 -10.5 60.5t-30 49.5
t-47.5 33.5t-64 12.5q-40 0 -74 -15.5t-59 -41.5t-39 -60t-14 -72q0 -32 10 -60.5t29.5 -49.5t48 -33.5t64.5 -12.5z" />
    <glyph glyph-name="b" unicode="b" horiz-adv-x="593" 
d="M148 0h-65l74 700h65l-37 -351q26 48 75.5 76t110.5 28q46 0 83.5 -16.5t64 -45t41 -67t14.5 -81.5q0 -51 -19.5 -97t-53 -81t-79.5 -55.5t-99 -20.5q-66 0 -107.5 30t-57.5 74zM323 49q40 0 74 15.5t59 41.5t38.5 60t13.5 72q0 32 -10 60.5t-29.5 49.5t-48 33.5
t-64.5 12.5q-41 0 -75 -15.5t-58.5 -41.5t-38.5 -60t-14 -72q0 -32 10.5 -60.5t30 -49.5t48 -33.5t64.5 -12.5z" />
    <glyph glyph-name="c" unicode="c" horiz-adv-x="524" 
d="M439 281q0 22 -6.5 42.5t-21.5 36.5t-39 25.5t-58 9.5q-45 0 -78.5 -16.5t-56 -43.5t-34 -62t-11.5 -72q0 -31 8.5 -58.5t26 -48.5t45 -33t66.5 -12q60 0 96 28.5t51 74.5h65q-9 -35 -28 -65t-47.5 -52t-65 -34t-80.5 -12q-53 0 -91 17t-63 46t-37 67t-12 79
q0 49 16.5 95t48.5 82t78.5 57.5t107.5 21.5q52 0 87.5 -15.5t57.5 -40.5t31.5 -55.5t8.5 -61.5h-65z" />
    <glyph glyph-name="d" unicode="d" horiz-adv-x="592" 
d="M454 93q-26 -45 -74.5 -74.5t-111.5 -29.5q-46 0 -83.5 17t-64 45.5t-41 67t-14.5 81.5q0 51 19.5 96.5t53.5 80.5t80 55.5t99 20.5q66 0 106.5 -29.5t57.5 -74.5l37 351h65l-74 -700h-65zM282 49q40 0 74.5 15.5t59 41.5t38.5 60t14 72q0 32 -10.5 60.5t-30 49.5
t-47.5 33.5t-64 12.5q-40 0 -74 -15.5t-59 -41.5t-39 -60t-14 -72q0 -32 10 -60.5t29.5 -49.5t48 -33.5t64.5 -12.5z" />
    <glyph glyph-name="e" unicode="e" horiz-adv-x="519" 
d="M302 402q-61 0 -106.5 -37.5t-55.5 -106.5h293q3 33 -5 59.5t-25.5 45t-43.5 29t-57 10.5zM133 207q-2 -30 3.5 -59t21.5 -51.5t43.5 -36.5t69.5 -14q57 0 91 24t49 57h66q-9 -27 -27.5 -52t-45.5 -44t-62.5 -30.5t-77.5 -11.5q-50 0 -87 16.5t-61 44.5t-36 66t-12 81
q0 54 17 100.5t48.5 81t75.5 54.5t97 20q44 0 79.5 -14t60 -38.5t38 -58t13.5 -73.5q0 -19 -2.5 -32.5t-6.5 -29.5h-355z" />
    <glyph glyph-name="f" unicode="f" horiz-adv-x="335" 
d="M393 638q-11 5 -23 7t-30 2q-15 0 -30 -2.5t-28 -12.5t-22.5 -30t-13.5 -54l-11 -105h138l-6 -56h-138l-41 -387h-65l41 387h-101l6 56h101l10 99q6 55 23 87.5t39.5 49.5t48 22t47.5 5q23 0 37 -3.5t24 -8.5z" />
    <glyph glyph-name="g" unicode="g" horiz-adv-x="590" 
d="M316 394q-41 0 -75 -15.5t-58.5 -41.5t-38.5 -60t-14 -72q0 -32 10 -60.5t29.5 -49.5t48 -33.5t64.5 -12.5q40 0 74.5 15.5t59 41.5t38.5 60t14 72q0 32 -10.5 60.5t-30 49.5t-47.5 33.5t-64 12.5zM505 -34q-7 -63 -28 -107.5t-54 -72.5t-76.5 -40.5t-94.5 -12.5
q-62 0 -103 16.5t-65.5 44.5t-34.5 65t-8 78h66q-1 -28 5.5 -54t23 -46.5t45.5 -32.5t74 -12q37 0 68.5 9.5t55.5 30t40 53.5t21 81l14 128q-27 -48 -76 -76.5t-110 -28.5q-46 0 -83.5 17t-64 45.5t-41 67t-14.5 81.5q0 51 19.5 96.5t53 80.5t79.5 55.5t99 20.5
q66 0 107 -29.5t58 -74.5l9 94h65z" />
    <glyph glyph-name="h" unicode="h" horiz-adv-x="562" 
d="M157 700h65l-38 -353q24 45 70 75.5t112 30.5q43 0 74.5 -14.5t50.5 -40.5t24 -60t0 -78l-27 -260h-65l25 241q3 33 -1 61t-17 48.5t-36 32.5t-56 12q-38 0 -67.5 -14.5t-50 -38.5t-33 -54t-15.5 -61l-24 -227h-65z" />
    <glyph glyph-name="i" unicode="i" horiz-adv-x="231" 
d="M130 443h65l-47 -443h-65zM120 611q0 27 20 46.5t46 19.5q24 0 39.5 -16t15.5 -39q0 -27 -20 -46t-47 -19q-23 0 -38.5 15.5t-15.5 38.5z" />
    <glyph glyph-name="j" unicode="j" horiz-adv-x="231" 
d="M133 -135q-8 -69 -40.5 -99.5t-80.5 -30.5q-16 0 -34 3t-29 9l6 60q15 -5 25 -7t19 -2q33 0 49.5 20t20.5 56l60 569h65zM120 611q0 27 20.5 46.5t46.5 19.5q23 0 38.5 -16t15.5 -39q0 -27 -20.5 -46t-46.5 -19q-23 0 -38.5 15.5t-15.5 38.5z" />
    <glyph glyph-name="k" unicode="k" horiz-adv-x="455" 
d="M245 221l196 -221h-85l-186 207l-22 -207h-65l74 700h65l-49 -465l230 208h85z" />
    <glyph glyph-name="l" unicode="l" horiz-adv-x="231" 
d="M157 700h65l-74 -700h-65z" />
    <glyph glyph-name="m" unicode="m" horiz-adv-x="812" 
d="M671 0l27 261q4 37 -1.5 62.5t-18 41.5t-30.5 23t-39 7q-59 0 -96.5 -46t-45.5 -124l-24 -225h-66l26 249q4 42 -1 70.5t-17 45t-30 23.5t-39 7q-60 0 -98 -47t-46 -123l-24 -225h-65l47 443h65l-11 -97q8 21 22 40.5t33.5 34t44.5 23.5t56 9q56 0 89 -29t38 -81
q19 45 61 77.5t106 32.5q71 0 106 -44.5t26 -129.5l-29 -279h-66z" />
    <glyph glyph-name="n" unicode="n" horiz-adv-x="562" 
d="M130 443h65l-11 -96q24 45 70 75.5t112 30.5q43 0 74.5 -14.5t50.5 -40.5t24 -60t0 -78l-27 -260h-65l25 241q3 33 -1 61t-17 48.5t-36 32.5t-56 12q-38 0 -67.5 -14.5t-50 -38.5t-33 -54t-15.5 -61l-24 -227h-65z" />
    <glyph glyph-name="o" unicode="o" horiz-adv-x="552" 
d="M276 -11q-50 0 -89 17t-66 45.5t-41.5 66.5t-14.5 81q0 51 19.5 97t53.5 81t81 55.5t103 20.5q50 0 89.5 -16.5t66.5 -45t41.5 -67t14.5 -81.5q0 -51 -19.5 -97t-54 -81t-81.5 -55.5t-103 -20.5zM282 49q40 0 74.5 15.5t59 41.5t38.5 60t14 72q0 32 -10.5 60.5t-30 49.5
t-47.5 33.5t-64 12.5q-40 0 -74 -15.5t-59 -41.5t-39 -60t-14 -72q0 -32 10 -60.5t29.5 -49.5t48 -33.5t64.5 -12.5z" />
    <glyph glyph-name="p" unicode="p" horiz-adv-x="593" 
d="M185 349q26 48 75.5 76t110.5 28q46 0 83.5 -16.5t64 -45t41 -67t14.5 -81.5q0 -50 -19.5 -96t-53 -81t-79.5 -56t-99 -21q-66 0 -107.5 30t-57.5 75l-37 -351h-65l74 700h65zM356 394q-40 0 -74 -15.5t-59 -41.5t-39 -60t-14 -72q0 -32 10.5 -60.5t30 -49.5t48 -33.5
t64.5 -12.5q40 0 74 15.5t59 41.5t38.5 60t13.5 72q0 32 -10 60.5t-29.5 49.5t-48 33.5t-64.5 12.5z" />
    <glyph glyph-name="q" unicode="q" horiz-adv-x="593" 
d="M492 443h65l-74 -700h-65l37 351q-27 -48 -76 -76.5t-110 -28.5q-46 0 -83.5 17t-64 45.5t-41 67t-14.5 81.5q0 51 19.5 96.5t53.5 80.5t80 55.5t99 20.5q66 0 106.5 -29.5t57.5 -74.5zM317 394q-41 0 -75 -15.5t-58.5 -41.5t-38.5 -60t-14 -72q0 -32 10 -60.5
t29.5 -49.5t48 -33.5t64.5 -12.5q40 0 74.5 15.5t59 41.5t38.5 60t14 72q0 32 -10.5 60.5t-30 49.5t-47.5 33.5t-64 12.5z" />
    <glyph glyph-name="r" unicode="r" horiz-adv-x="353" 
d="M388 382q-12 4 -20.5 5t-17.5 1q-42 0 -74 -15.5t-54.5 -41.5t-35.5 -60.5t-17 -73.5l-21 -197h-65l47 443h65l-11 -104q25 54 71.5 82t97.5 28q12 0 22.5 -1.5t18.5 -5.5z" />
    <glyph glyph-name="s" unicode="s" horiz-adv-x="450" 
d="M281 242q27 -7 51 -14.5t42 -19.5t28.5 -31t10.5 -48q0 -33 -13.5 -59t-37.5 -44t-57.5 -27.5t-73.5 -9.5q-39 0 -72.5 9.5t-56.5 29.5t-35 50t-7 72h64q-3 -30 4 -50t22.5 -33t37.5 -18.5t48 -5.5q54 0 84.5 21t30.5 59q0 20 -9.5 32t-27 20.5t-43 15.5t-57.5 16
q-27 7 -49.5 14.5t-39 19.5t-25.5 29.5t-9 44.5q0 34 14 59.5t38 43t56 26.5t68 9q38 0 69 -10t52 -29t31 -46.5t6 -61.5h-64q5 46 -21 70t-76 24q-47 0 -77.5 -21t-30.5 -59q0 -18 8.5 -29.5t24 -19.5t39 -14t53.5 -15z" />
    <glyph glyph-name="t" unicode="t" horiz-adv-x="329" 
d="M319 0q-13 -2 -34 -4t-42 -2t-44.5 4t-41.5 19.5t-28 46.5t-4 84l25 239h-89l6 56h89l17 164h66l-17 -164h128l-6 -56h-128l-24 -226q-4 -36 0 -57t14 -32t24.5 -14.5t31.5 -3.5q14 0 32.5 1.5t31.5 3.5z" />
    <glyph glyph-name="u" unicode="u" horiz-adv-x="560" 
d="M524 443l-47 -443h-65l10 96q-25 -48 -71 -77.5t-109 -29.5q-43 0 -75 15t-51 41t-24 60t0 78l27 260h66l-25 -241q-3 -33 1 -61t17 -48.5t35.5 -32.5t55.5 -12q38 0 67.5 14.5t50 38.5t33 54t15.5 61l24 227h65z" />
    <glyph glyph-name="v" unicode="v" horiz-adv-x="470" 
d="M125 443l119 -351l195 351h71l-253 -443h-47l-156 443h71z" />
    <glyph glyph-name="w" unicode="w" horiz-adv-x="715" 
d="M396 370l-170 -370h-47l-124 443h70l88 -344l159 344h65l86 -344l161 344h70l-218 -443h-47z" />
    <glyph glyph-name="x" unicode="x" horiz-adv-x="434" 
d="M411 0h-76l-100 172l-136 -172h-76l179 222l-131 221h76l99 -170l135 170h75l-178 -221z" />
    <glyph glyph-name="y" unicode="y" horiz-adv-x="568" 
d="M256 -267q-205 0 -188 202h66q-4 -76 28 -111t101 -35q32 0 58.5 8t46 27t32 49t17.5 75l16 148q-24 -45 -68 -76t-114 -31q-86 0 -126 54q-17 23 -22.5 56t0.5 89l27 255h66l-25 -236q-8 -72 15 -115.5t91 -43.5q40 0 70 14.5t51 38.5t33 54t15 61l24 227h64l-52 -495
q-12 -114 -69.5 -164.5t-156.5 -50.5z" />
    <glyph glyph-name="z" unicode="z" horiz-adv-x="431" 
d="M451 443l-306 -384h266l-6 -59h-379l305 384h-255l7 59h368z" />
    <glyph glyph-name="braceleft" unicode="{" horiz-adv-x="381" 
d="M429 794l-5 -52h-48q-39 0 -64.5 -27t-30.5 -69l-29 -268q-3 -28 -14.5 -47.5t-26.5 -32t-31 -19.5t-28 -10q12 -3 27 -10.5t27 -21t19 -34.5t4 -52l-25 -237q-5 -42 15.5 -69t59.5 -27h48l-6 -52h-62q-24 0 -47.5 8.5t-41.5 25.5t-27.5 43.5t-5.5 61.5l25 239
q3 26 -5 44.5t-21 30t-28.5 17t-27.5 5.5l6 55q12 0 28.5 5t31.5 16t26.5 28t14.5 41l29 269q4 35 19 61t36 43.5t46.5 26t49.5 8.5h62z" />
    <glyph glyph-name="bar" unicode="|" horiz-adv-x="231" 
d="M62 -234l108 1028h58l-108 -1028h-58z" />
    <glyph glyph-name="braceright" unicode="}" horiz-adv-x="381" 
d="M180 794q24 0 47.5 -8.5t41.5 -26t27.5 -43.5t5.5 -61l-28 -269q-3 -24 5.5 -41t21.5 -28t28.5 -16t27.5 -5l-6 -55q-12 0 -28.5 -5.5t-32 -17t-27 -30t-14.5 -44.5l-25 -239q-4 -35 -19 -61.5t-36.5 -43.5t-47 -25.5t-49.5 -8.5h-61l5 52h47q39 0 65 27t31 69l24 237
q3 30 14 50.5t26 34.5t31.5 22t30.5 11q-12 3 -27 10.5t-27 20t-19.5 32t-4.5 46.5l28 268q5 42 -15 69t-59 27h-47l5 52h61z" />
    <glyph glyph-name="asciitilde" unicode="~" horiz-adv-x="510" 
d="M65 295q26 28 55.5 39t54.5 11q26 0 55 -9.5t58 -22.5q30 -13 56.5 -24.5t51.5 -11.5q29 0 59 17t53 37l-6 -60q-26 -26 -56.5 -39.5t-59.5 -13.5q-25 0 -51 10t-58 25q-25 13 -54.5 23t-55.5 10q-30 0 -57.5 -14.5t-50.5 -37.5z" />
    <glyph glyph-name="exclamdown" unicode="&#xa1;" horiz-adv-x="283" 
d="M133 245h71l-53 -503h-71zM124 393q0 27 20 46.5t46 19.5q24 0 39.5 -16t15.5 -39q0 -27 -20 -46.5t-46 -19.5q-24 0 -39.5 16t-15.5 39z" />
    <glyph glyph-name="cent" unicode="&#xa2;" horiz-adv-x="548" 
d="M454 340q0 22 -6.5 42.5t-21.5 36.5t-39 25.5t-58 9.5q-45 0 -78.5 -16.5t-56 -43.5t-34 -62t-11.5 -72q0 -31 8.5 -58.5t26 -48.5t45 -33t66.5 -12q60 0 96 28.5t51 74.5h65q-17 -64 -65.5 -109t-133.5 -53l-11 -108h-52l11 109q-43 4 -75.5 22.5t-54 46.5t-32 63.5
t-10.5 73.5q0 46 15 89.5t43.5 79t69.5 58.5t93 28l11 109h52l-11 -109q45 -4 76.5 -20t50.5 -39.5t27 -52.5t8 -59h-65z" />
    <glyph glyph-name="sterling" unicode="&#xa3;" horiz-adv-x="596" 
d="M230 529q-2 -7 -4 -20.5t-4 -30.5t-4 -35t-3 -34h190l-5 -52h-190q-2 -9 -5 -33t-6 -50.5t-6.5 -49.5t-4.5 -30q-8 -51 -18 -81.5t-27 -50.5h350l-7 -62h-428l6 53q20 22 33 52.5t21 84.5q2 8 5.5 31t7 50t6.5 51t4 34h-68l6 52h68q3 32 5 50.5t2.5 28t1 12.5t0.5 5
q4 42 24 79.5t52.5 65t75 44t90.5 16.5t87 -16.5t65 -46t38 -69.5t7 -87h-69q3 32 -3.5 60.5t-23.5 50t-44.5 34t-65.5 12.5q-62 0 -103.5 -32t-55.5 -86z" />
    <glyph glyph-name="currency" unicode="&#xa4;" horiz-adv-x="775" 
d="M524 185q-31 -22 -68.5 -34.5t-81.5 -12.5q-43 0 -77.5 12.5t-60.5 35.5l-78 -70l-38 41l78 71q-16 25 -24.5 56.5t-8.5 64.5q0 47 16.5 87.5t46.5 75.5l-63 71l46 42l63 -71q31 23 68.5 35.5t80.5 12.5q44 0 79 -12.5t61 -34.5l76 69l38 -41l-78 -70q17 -25 26 -57
t9 -65q0 -46 -17 -88t-48 -76l63 -69l-46 -42zM382 197q40 0 74.5 15.5t59 41.5t38.5 60.5t14 72.5q0 32 -10.5 60.5t-30 49.5t-47.5 33.5t-64 12.5q-41 0 -74.5 -15.5t-58.5 -41.5t-38.5 -60.5t-13.5 -72.5q0 -32 10 -60.5t29.5 -49.5t47.5 -33.5t64 -12.5z" />
    <glyph glyph-name="yen" unicode="&#xa5;" horiz-adv-x="605" 
d="M139 700l201 -359l273 359h79l-316 -415h161l-5 -50h-172l-10 -92h172l-5 -52h-172l-10 -91h-62l10 91h-170l5 52h170l10 92h-170l5 50h159l-232 415h79z" />
    <glyph glyph-name="brokenbar" unicode="&#xa6;" horiz-adv-x="231" 
d="M120 322l50 472h58l-50 -472h-58zM170 237l-50 -471h-58l50 471h58z" />
    <glyph glyph-name="section" unicode="&#xa7;" horiz-adv-x="579" 
d="M281 97q-46 13 -83.5 27.5t-64 33t-41 44t-14.5 61.5q0 59 36 102t94 55q-30 20 -47.5 52t-17.5 74q0 45 19.5 80.5t52 60t75 37.5t89.5 13q50 0 90 -14.5t66.5 -41.5t39 -64t8.5 -82h-69q3 30 -4.5 56t-25 45.5t-45 31t-66.5 11.5q-32 0 -61 -8t-51 -24t-35.5 -39.5
t-13.5 -54.5q0 -30 12.5 -50t33 -34t47 -23t54.5 -17q43 -13 80.5 -27t65 -32.5t43 -44t15.5 -61.5q0 -31 -11 -57.5t-29 -47.5t-40.5 -35t-45.5 -19q36 -21 54.5 -51.5t18.5 -75.5q0 -46 -19 -81t-51.5 -58.5t-75 -35.5t-89.5 -12q-54 0 -97 15t-72 43t-42.5 67t-8.5 86h69
q-6 -70 35 -111t123 -41q31 0 60 7t50.5 21.5t34.5 37.5t13 55q0 25 -9 43.5t-28 33t-49.5 26.5t-72.5 23zM493 254q0 37 -26 56t-77 37q-5 3 -20.5 8.5t-34 11.5t-36.5 11.5t-28 8.5q-29 -1 -51.5 -11t-38.5 -26t-24 -36.5t-8 -41.5q0 -36 24.5 -57t75.5 -38q6 -3 24 -9
t38.5 -12.5t39 -12t25.5 -7.5q22 1 43 10.5t37.5 25.5t26.5 37t10 45z" />
    <glyph glyph-name="dieresis" unicode="&#xa8;" horiz-adv-x="518" 
d="M380 644q0 26 18.5 44.5t44.5 18.5q23 0 38.5 -15.5t15.5 -37.5q0 -26 -19.5 -44.5t-45.5 -18.5q-23 0 -37.5 15t-14.5 38zM150 644q0 26 18.5 44.5t44.5 18.5q23 0 38.5 -15.5t15.5 -37.5q0 -26 -19.5 -44.5t-45.5 -18.5q-23 0 -37.5 15t-14.5 38z" />
    <glyph glyph-name="copyright" unicode="&#xa9;" horiz-adv-x="807" 
d="M405 -17q-79 0 -140 27.5t-102 73t-62.5 105.5t-21.5 125q0 77 29 149.5t81.5 129t125.5 90.5t161 34q79 0 140 -27.5t102 -73.5t62.5 -106t21.5 -125q0 -77 -29 -149.5t-81 -128.5t-125.5 -90t-161.5 -34zM623 266q-11 -27 -30 -50t-45 -40.5t-58 -27t-68 -9.5
q-45 0 -80 15t-59.5 41.5t-37 61t-12.5 73.5q0 44 16 85.5t46 74t73 52t96 19.5q78 0 124 -40t51 -105h-47q-8 45 -42 74t-91 29q-41 0 -74.5 -15.5t-56.5 -41.5t-35.5 -59.5t-12.5 -68.5q0 -31 10 -58.5t29 -48.5t46.5 -33t62.5 -12q52 0 89.5 24.5t56.5 59.5h49zM410 28
q75 0 137 30t106.5 79.5t69 113.5t24.5 132q0 57 -18 109.5t-53 92t-86 63.5t-118 24q-75 0 -137.5 -30t-107 -79.5t-69 -113.5t-24.5 -131q0 -57 18 -109.5t53 -92.5t86.5 -64t118.5 -24z" />
    <glyph glyph-name="ordfeminine" unicode="&#xaa;" horiz-adv-x="592" 
d="M556 443l-47 -443h-65l10 93q-26 -45 -74.5 -74.5t-111.5 -29.5q-46 0 -83.5 17t-64 45.5t-41 67t-14.5 81.5q0 51 19.5 96.5t53.5 80.5t80 55.5t99 20.5q66 0 106.5 -29.5t57.5 -74.5l10 94h65zM282 49q40 0 74.5 15.5t59 41.5t38.5 60t14 72q0 32 -10.5 60.5t-30 49.5
t-47.5 33.5t-64 12.5q-40 0 -74 -15.5t-59 -41.5t-39 -60t-14 -72q0 -32 10 -60.5t29.5 -49.5t48 -33.5t64.5 -12.5z" />
    <glyph glyph-name="guillemotleft" unicode="&#xab;" horiz-adv-x="472" 
d="M442 100l-178 170l4 42l214 170l-7 -67l-155 -124l129 -124zM246 100l-178 170l4 42l214 170l-7 -67l-155 -124l129 -124z" />
    <glyph glyph-name="logicalnot" unicode="&#xac;" 
d="M453 296h-339l6 58h404l-21 -204h-65z" />
    <glyph glyph-name="uni00AD" unicode="&#xad;" horiz-adv-x="294" 
d="M293 275h-234l2 20h234z" />
    <glyph glyph-name="registered" unicode="&#xae;" horiz-adv-x="812" 
d="M408 -17q-80 0 -141.5 27.5t-103 73t-63 105.5t-21.5 125q0 77 29 149.5t82 129t126.5 90.5t162.5 34q80 0 141 -27.5t102.5 -73t63 -105.5t21.5 -125q0 -77 -29 -150t-81.5 -129t-126 -90t-162.5 -34zM411 28q76 0 138.5 30t107.5 79.5t70 113t25 131.5q0 57 -18 109.5
t-53 92.5t-87 64t-119 24q-76 0 -138.5 -30t-107.5 -79.5t-70 -113t-25 -131.5q0 -57 18 -109.5t53 -92.5t86.5 -64t119.5 -24zM298 159l43 407h151q28 0 50.5 -10t38 -26.5t23.5 -39t8 -47.5q0 -49 -29.5 -88t-78.5 -52l76 -144h-55l-73 138h-90l-15 -138h-49zM463 341
q44 0 71 29t27 69q0 35 -20.5 59t-58.5 24h-97l-19 -181h97z" />
    <glyph glyph-name="macron" unicode="&#xaf;" horiz-adv-x="529" 
d="M520 723h-358l6 59h358z" />
    <glyph glyph-name="degree" unicode="&#xb0;" horiz-adv-x="331" 
d="M369 587q0 -32 -13 -60.5t-34.5 -49.5t-50.5 -33.5t-60 -12.5q-29 0 -52.5 10t-41 27.5t-27 41.5t-9.5 51q0 32 13 60.5t34.5 49.5t50 33.5t60.5 12.5q28 0 52 -10t41.5 -27.5t27 -41.5t9.5 -51zM319 582q0 35 -23.5 61t-61.5 26q-21 0 -39.5 -8t-33 -22.5t-23 -33.5
t-8.5 -40q0 -36 24 -61t62 -25q21 0 39.5 8t32.5 22t22.5 33t8.5 40z" />
    <glyph glyph-name="plusminus" unicode="&#xb1;" 
d="M275 221l18 167h-164l6 59h164l18 169h65l-18 -169h165l-6 -59h-165l-18 -167h-65zM93 48l6 58h394l-6 -58h-394z" />
    <glyph glyph-name="twosuperior" unicode="&#xb2;" horiz-adv-x="363" 
d="M88 315q5 48 16 79.5t27.5 52.5t38.5 34.5t50 26.5q21 9 39 18t31 20t20.5 25t7.5 33q0 29 -16.5 44t-45.5 15q-35 0 -57 -20.5t-27 -57.5h-55q7 56 45.5 89t97.5 33q50 0 81 -25.5t31 -74.5q0 -29 -11 -50t-28 -36.5t-37.5 -26.5t-39.5 -20q-26 -12 -44 -22.5
t-29.5 -22.5t-17.5 -28t-9 -40h192l-5 -46h-255v0z" />
    <glyph glyph-name="threesuperior" unicode="&#xb3;" horiz-adv-x="373" 
d="M149 432q-4 -36 15.5 -57t55.5 -21q39 0 61.5 22.5t22.5 54.5q0 27 -17.5 44.5t-52.5 17.5h-33l5 44h33q39 0 58.5 20t19.5 49q0 28 -17 42.5t-47 14.5q-36 0 -55.5 -19t-22.5 -51h-55q5 50 40.5 82t95.5 32q51 0 83.5 -25t32.5 -70q0 -38 -21.5 -63.5t-54.5 -33.5
q29 -8 46 -29.5t17 -56.5q0 -28 -11.5 -50.5t-31 -38t-45.5 -24t-55 -8.5q-62 0 -95 34.5t-27 89.5h55z" />
    <glyph glyph-name="acute" unicode="&#xb4;" horiz-adv-x="419" 
d="M130 539l-27 52l263 137l27 -52z" />
    <glyph glyph-name="uni00B5" unicode="&#xb5;" 
d="M129 443h65l-25 -241q-3 -33 1 -61t17 -48.5t36 -32.5t56 -12q38 0 67.5 14.5t50 38.5t33 54t15.5 61l24 227h65l-47 -443h-65l10 96q-23 -45 -69.5 -76t-108.5 -31q-71 0 -102 47l-31 -293h-66z" />
    <glyph glyph-name="paragraph" unicode="&#xb6;" horiz-adv-x="639" 
d="M265 329q-43 0 -79 10t-62.5 31.5t-41 55t-14.5 80.5q0 46 13.5 79.5t36 57t51.5 38t59 22.5t59 11t52 3h306l-6 -56h-53l-85 -809h-62l85 808h-162l-85 -808h-62z" />
    <glyph glyph-name="periodcentered" unicode="&#xb7;" horiz-adv-x="230" 
d="M87 307q0 27 20 46t46 19q24 0 39.5 -15.5t15.5 -38.5q0 -27 -20 -46t-47 -19q-23 0 -38.5 15.5t-15.5 38.5z" />
    <glyph glyph-name="cedilla" unicode="&#xb8;" horiz-adv-x="404" 
d="M127 0h45l-8 -77q9 13 23 19.5t31 6.5q31 0 53.5 -21.5t22.5 -57.5q0 -20 -7.5 -38.5t-21 -33t-32.5 -23.5t-43 -9q-15 0 -31 4.5t-29 14.5t-21.5 27t-8.5 43h42q0 -23 13 -37t36 -14q26 0 43 18t17 43q0 21 -13 35t-38 14q-11 0 -23.5 -5.5t-24.5 -26.5h-37z" />
    <glyph glyph-name="onesuperior" unicode="&#xb9;" horiz-adv-x="253" 
d="M113 634q26 0 43 4t27 12t14.5 20.5t6.5 29.5h50l-40 -385h-56l29 279h-78z" />
    <glyph glyph-name="ordmasculine" unicode="&#xba;" horiz-adv-x="552" 
d="M276 -11q-50 0 -89 17t-66 45.5t-41.5 66.5t-14.5 81q0 51 19.5 97t53.5 81t81 55.5t103 20.5q50 0 89.5 -16.5t66.5 -45t41.5 -67t14.5 -81.5q0 -51 -19.5 -97t-54 -81t-81.5 -55.5t-103 -20.5zM282 49q40 0 74.5 15.5t59 41.5t38.5 60t14 72q0 32 -10.5 60.5t-30 49.5
t-47.5 33.5t-64 12.5q-40 0 -74 -15.5t-59 -41.5t-39 -60t-14 -72q0 -32 10 -60.5t29.5 -49.5t48 -33.5t64.5 -12.5z" />
    <glyph glyph-name="guillemotright" unicode="&#xbb;" horiz-adv-x="472" 
d="M58 167l155 124l-129 124l7 67l178 -170l-4 -42l-214 -170zM254 167l155 124l-129 124l7 67l178 -170l-4 -42l-214 -170z" />
    <glyph glyph-name="onequarter" unicode="&#xbc;" horiz-adv-x="883" 
d="M127 634q26 0 43 4t27 12t14.5 20.5t6.5 29.5h49l-40 -385h-56l29 279h-77zM709 124h-152l27 261h55l-22 -213h97l12 116h55l-12 -116h58l-5 -48h-58l-13 -124h-55zM640 764l50 -29l-485 -798l-50 29z" />
    <glyph glyph-name="onehalf" unicode="&#xbd;" horiz-adv-x="883" 
d="M127 634q26 0 43 4t27 12t14.5 20.5t6.5 29.5h49l-40 -385h-56l29 279h-77zM543 0q5 48 15.5 79.5t27 52.5t38.5 34.5t50 26.5q21 9 39 18t31 20t20.5 25t7.5 33q0 29 -16.5 44t-46.5 15q-35 0 -57 -20.5t-26 -57.5h-55q6 56 45 89t98 33q50 0 81 -25.5t31 -74.5
q0 -29 -10.5 -49.5t-27.5 -36t-38 -27t-41 -20.5q-26 -12 -44 -22.5t-29.5 -22.5t-17.5 -28t-9 -40h192l-4 -46h-254zM640 764l50 -29l-485 -798l-50 29z" />
    <glyph glyph-name="threequarters" unicode="&#xbe;" horiz-adv-x="883" 
d="M149 432q-4 -36 15.5 -57t55.5 -21q38 0 61 22t23 55q0 27 -17.5 44.5t-53.5 17.5h-32l5 44h32q41 0 60 20t19 49q0 28 -17 42.5t-48 14.5q-36 0 -55.5 -19t-22.5 -51h-55q5 48 40.5 81t96.5 33q51 0 83 -25t32 -71q0 -37 -21 -62.5t-55 -33.5q29 -8 46.5 -30t17.5 -56
q0 -28 -11.5 -50.5t-31 -38t-46 -24t-55.5 -8.5q-62 0 -95 34.5t-27 89.5h56zM709 124h-152l28 261h55l-23 -213h97l13 116h55l-13 -116h58l-5 -48h-58l-13 -124h-55zM658 764l50 -29l-485 -798l-50 29z" />
    <glyph glyph-name="questiondown" unicode="&#xbf;" horiz-adv-x="497" 
d="M333 255q-4 -38 -13 -66.5t-23.5 -50t-34 -38.5t-45.5 -33q-16 -9 -36.5 -22.5t-38.5 -32.5t-30.5 -45t-12.5 -60q0 -56 34.5 -85t94.5 -29q38 0 68.5 11.5t52 32.5t34.5 50t17 63h69q-5 -50 -26 -90.5t-53.5 -69t-75.5 -44t-92 -15.5q-88 0 -139.5 46t-51.5 126
q0 42 14 74t34.5 55t43 38.5t39.5 26.5q25 16 43.5 29.5t31 30t20 40t10.5 58.5h66zM376 398q0 -28 -20 -48t-47 -20q-25 0 -41 16.5t-16 40.5q0 27 20.5 47t47.5 20q25 0 40.5 -16.5t15.5 -39.5z" />
    <glyph glyph-name="Agrave" unicode="&#xc0;" horiz-adv-x="546" 
d="M540 0h-72l-30 125h-304l-56 -125h-72l315 700h52zM162 187h262l-89 404zM238 886l37 53l234 -137l-36 -53z" />
    <glyph glyph-name="Aacute" unicode="&#xc1;" horiz-adv-x="546" 
d="M540 0h-72l-30 125h-304l-56 -125h-72l315 700h52zM162 187h262l-89 404zM243 739l-26 52l264 137l25 -52z" />
    <glyph glyph-name="Acircumflex" unicode="&#xc2;" horiz-adv-x="546" 
d="M540 0h-72l-30 125h-304l-56 -125h-72l315 700h52zM162 187h262l-89 404zM372 943l159 -151l-42 -43l-125 121l-148 -121l-35 43z" />
    <glyph glyph-name="Atilde" unicode="&#xc3;" horiz-adv-x="546" 
d="M540 0h-72l-30 125h-304l-56 -125h-72l315 700h52zM162 187h262l-89 404zM435 845q23 0 41 15.5t30 37.5l47 -24q-24 -41 -57 -61t-68 -20q-24 0 -42 8.5t-32.5 18t-28.5 18t-30 8.5q-23 0 -41.5 -16.5t-29.5 -36.5l-45 29q26 40 58 58t64 18q25 0 43 -8.5t32.5 -18
t28 -18t30.5 -8.5z" />
    <glyph glyph-name="Adieresis" unicode="&#xc4;" horiz-adv-x="546" 
d="M540 0h-72l-30 125h-304l-56 -125h-72l315 700h52zM162 187h262l-89 404zM416 826q0 27 19.5 46.5t46.5 19.5q24 0 39.5 -16t15.5 -39q0 -27 -20.5 -46t-46.5 -19q-24 0 -39 15.5t-15 38.5zM186 826q0 27 20 46.5t46 19.5q24 0 39.5 -16t15.5 -39q0 -27 -20.5 -46
t-46.5 -19q-24 0 -39 15.5t-15 38.5z" />
    <glyph glyph-name="Aring" unicode="&#xc5;" horiz-adv-x="546" 
d="M540 0h-72l-30 125h-304l-56 -125h-72l315 700h52zM162 187h262l-89 404zM376 976q24 0 44.5 -9t35.5 -24t23 -35.5t8 -43.5q0 -27 -11 -51.5t-30 -42.5t-43 -29t-51 -11q-24 0 -44.5 9t-35.5 24.5t-23.5 36t-8.5 43.5q0 27 11.5 51t30 42.5t43 29t51.5 10.5zM371 932
q-17 0 -32.5 -7t-27.5 -19t-19 -27.5t-7 -32.5q0 -29 19.5 -50t50.5 -21q17 0 33 7t28 18.5t19 27t7 32.5q0 29 -20 50.5t-51 21.5z" />
    <glyph glyph-name="AE" unicode="&#xc6;" horiz-adv-x="847" 
d="M520 638l-27 -259h314l-7 -62h-314l-26 -255h314l-7 -62h-382l13 125h-246l-75 -125h-75l424 700h415l-7 -62h-314zM405 188l46 436l-262 -436h216z" />
    <glyph glyph-name="Ccedilla" unicode="&#xc7;" horiz-adv-x="775" 
d="M711 464q-6 40 -23.5 75t-47.5 60t-71.5 39.5t-94.5 14.5q-75 0 -135.5 -28t-102.5 -74.5t-65 -106.5t-23 -123q0 -56 18 -106t52.5 -87.5t84 -59t112.5 -21.5q92 0 161.5 44.5t103.5 114.5h75q-22 -47 -50.5 -85.5t-68 -66t-93 -45t-125.5 -22.5q-2 0 -8 -0.5t-8 -0.5
l-6 -58q18 23 56 23q32 0 52 -20.5t20 -52.5q0 -19 -8 -36.5t-21.5 -31t-32 -21.5t-40.5 -8q-13 0 -28.5 3.5t-28.5 12t-22.5 23.5t-10.5 38h43q2 -17 14 -28t33 -11q26 0 42.5 16t16.5 39q0 18 -11.5 31.5t-34.5 13.5q-14 0 -27 -6t-24 -23h-37l10 98q-68 8 -120 37t-87 73
t-53.5 99.5t-18.5 117.5q0 77 28 149t80 128t126 89.5t167 33.5q71 0 125.5 -20t92.5 -54t59.5 -80t25.5 -97h-71z" />
    <glyph glyph-name="Egrave" unicode="&#xc8;" horiz-adv-x="543" 
d="M218 638l-27 -259h314l-7 -62h-314l-26 -255h314l-7 -62h-382l74 700h382l-7 -62h-314zM238 877l38 52l234 -137l-37 -52z" />
    <glyph glyph-name="Eacute" unicode="&#xc9;" horiz-adv-x="543" 
d="M218 638l-27 -259h314l-7 -62h-314l-26 -255h314l-7 -62h-382l74 700h382l-7 -62h-314zM252 749l-27 53l264 137l26 -53z" />
    <glyph glyph-name="Ecircumflex" unicode="&#xca;" horiz-adv-x="543" 
d="M218 638l-27 -259h314l-7 -62h-314l-26 -255h314l-7 -62h-382l74 700h382l-7 -62h-314zM378 943l160 -151l-42 -43l-125 121l-149 -121l-35 43z" />
    <glyph glyph-name="Edieresis" unicode="&#xcb;" horiz-adv-x="543" 
d="M218 638l-27 -259h314l-7 -62h-314l-26 -255h314l-7 -62h-382l74 700h382l-7 -62h-314zM423 826q0 27 19.5 46.5t46.5 19.5q24 0 39.5 -16t15.5 -39q0 -27 -20.5 -46t-46.5 -19q-24 0 -39 15.5t-15 38.5zM193 826q0 27 20 46.5t46 19.5q24 0 39.5 -16t15.5 -39
q0 -27 -20.5 -46t-46.5 -19q-24 0 -39 15.5t-15 38.5z" />
    <glyph glyph-name="Igrave" unicode="&#xcc;" horiz-adv-x="236" 
d="M157 700h70l-74 -700h-70zM70 876l36 52l235 -137l-36 -52z" />
    <glyph glyph-name="Iacute" unicode="&#xcd;" horiz-adv-x="236" 
d="M156 700h70l-73 -700h-70zM87 740l-26 52l263 137l26 -52z" />
    <glyph glyph-name="Icircumflex" unicode="&#xce;" horiz-adv-x="236" 
d="M156 700h70l-73 -700h-70zM217 943l159 -151l-43 -43l-124 121l-149 -121l-34 43z" />
    <glyph glyph-name="Idieresis" unicode="&#xcf;" horiz-adv-x="236" 
d="M157 700h70l-74 -700h-70zM262 826q0 27 20.5 46.5t46.5 19.5q23 0 38.5 -16t15.5 -39q0 -27 -20.5 -46t-46.5 -19q-23 0 -38.5 15.5t-15.5 38.5zM32 826q0 27 20.5 46.5t46.5 19.5q23 0 38.5 -16t15.5 -39q0 -27 -20.5 -46t-46.5 -19q-23 0 -38.5 15.5t-15.5 38.5z" />
    <glyph glyph-name="Eth" unicode="&#xd0;" horiz-adv-x="694" 
d="M361 700q80 0 141.5 -27t103 -71.5t63 -102t21.5 -118.5q0 -71 -28 -139.5t-80.5 -122t-127 -86.5t-166.5 -33h-205l34 325h-112l5 51h112l34 324h205zM302 325h-117l-28 -263h137q75 0 135.5 27t102.5 71.5t64.5 100.5t22.5 115q0 51 -17 98t-50 83.5t-82.5 58.5
t-114.5 22h-137l-28 -262h117z" />
    <glyph glyph-name="Ntilde" unicode="&#xd1;" horiz-adv-x="662" 
d="M522 118l62 582h69l-74 -700h-76l-291 582l-61 -582h-68l74 700h76zM488 845q24 0 42.5 16.5t29.5 36.5l47 -24q-25 -42 -59 -61.5t-67 -19.5q-24 0 -41.5 8.5t-32 18t-28 18t-30.5 8.5q-24 0 -42 -16.5t-29 -36.5l-45 29q25 40 57.5 58t64.5 18q25 0 42.5 -8.5t32 -18
t28 -18t30.5 -8.5z" />
    <glyph glyph-name="Ograve" unicode="&#xd2;" horiz-adv-x="806" 
d="M405 -15q-80 0 -141 27t-102 73t-62.5 105.5t-21.5 124.5q0 76 29 148.5t81 128t125 89.5t162 34q79 0 140.5 -27t102.5 -73t62.5 -105.5t21.5 -124.5q0 -77 -29 -149t-81 -127.5t-125.5 -89.5t-161.5 -34zM410 47q71 0 130 28t101.5 74.5t66 106.5t23.5 124
q0 54 -17 103t-50 87t-82 60.5t-113 22.5q-71 0 -130 -28t-101 -74.5t-65.5 -106.5t-23.5 -124q0 -54 17 -103t50 -87t82 -60.5t112 -22.5zM347 886l36 53l235 -137l-37 -53z" />
    <glyph glyph-name="Oacute" unicode="&#xd3;" horiz-adv-x="806" 
d="M405 -15q-80 0 -141 27t-102 73t-62.5 105.5t-21.5 124.5q0 76 29 148.5t81 128t125 89.5t162 34q79 0 140.5 -27t102.5 -73t62.5 -105.5t21.5 -124.5q0 -77 -29 -149t-81 -127.5t-125.5 -89.5t-161.5 -34zM410 47q71 0 130 28t101.5 74.5t66 106.5t23.5 124
q0 54 -17 103t-50 87t-82 60.5t-113 22.5q-71 0 -130 -28t-101 -74.5t-65.5 -106.5t-23.5 -124q0 -54 17 -103t50 -87t82 -60.5t112 -22.5zM380 749l-25 53l263 137l26 -53z" />
    <glyph glyph-name="Ocircumflex" unicode="&#xd4;" horiz-adv-x="806" 
d="M405 -15q-80 0 -141 27t-102 73t-62.5 105.5t-21.5 124.5q0 76 29 148.5t81 128t125 89.5t162 34q79 0 140.5 -27t102.5 -73t62.5 -105.5t21.5 -124.5q0 -77 -29 -149t-81 -127.5t-125.5 -89.5t-161.5 -34zM410 47q71 0 130 28t101.5 74.5t66 106.5t23.5 124
q0 54 -17 103t-50 87t-82 60.5t-113 22.5q-71 0 -130 -28t-101 -74.5t-65.5 -106.5t-23.5 -124q0 -54 17 -103t50 -87t82 -60.5t112 -22.5zM502 943l161 -151l-43 -43l-125 121l-149 -121l-34 43z" />
    <glyph glyph-name="Otilde" unicode="&#xd5;" horiz-adv-x="806" 
d="M405 -15q-80 0 -141 27t-102 73t-62.5 105.5t-21.5 124.5q0 76 29 148.5t81 128t125 89.5t162 34q79 0 140.5 -27t102.5 -73t62.5 -105.5t21.5 -124.5q0 -77 -29 -149t-81 -127.5t-125.5 -89.5t-161.5 -34zM410 47q71 0 130 28t101.5 74.5t66 106.5t23.5 124
q0 54 -17 103t-50 87t-82 60.5t-113 22.5q-71 0 -130 -28t-101 -74.5t-65.5 -106.5t-23.5 -124q0 -54 17 -103t50 -87t82 -60.5t112 -22.5zM563 845q22 0 41.5 15t31.5 38l47 -24q-24 -41 -57 -61t-68 -20q-24 0 -42 8.5t-32.5 18t-28.5 18t-31 8.5q-22 0 -40 -15t-30 -38
l-44 29q24 40 56.5 58t65.5 18q25 0 42 -8.5t31.5 -18t27.5 -18t30 -8.5z" />
    <glyph glyph-name="Odieresis" unicode="&#xd6;" horiz-adv-x="806" 
d="M405 -15q-80 0 -141 27t-102 73t-62.5 105.5t-21.5 124.5q0 76 29 148.5t81 128t125 89.5t162 34q79 0 140.5 -27t102.5 -73t62.5 -105.5t21.5 -124.5q0 -77 -29 -149t-81 -127.5t-125.5 -89.5t-161.5 -34zM149 320q0 -54 17 -103t50 -87t82 -60.5t112 -22.5q71 0 130 28
t101.5 74.5t66 106.5t23.5 124q0 54 -17 103t-50 87t-82 60.5t-113 22.5q-71 0 -130 -28t-101 -74.5t-65.5 -106.5t-23.5 -124zM369 772q-23 0 -38.5 15.5t-15.5 38.5q0 27 20 46.5t46 19.5q24 0 39.5 -16t15.5 -39q0 -27 -20 -46t-47 -19zM545 826q0 27 20 46.5t46 19.5
q24 0 39.5 -16t15.5 -39q0 -27 -20 -46t-47 -19q-23 0 -38.5 15.5t-15.5 38.5z" />
    <glyph glyph-name="multiply" unicode="&#xd7;" 
d="M451 451l41 -46l-135 -122l108 -120l-47 -42l-106 120l-135 -122l-41 46l134 122l-107 120l47 42l106 -120z" />
    <glyph glyph-name="Oslash" unicode="&#xd8;" horiz-adv-x="806" 
d="M402 -15q-69 0 -124 21l-43 -81l-46 20l43 82q-38 21 -66.5 52t-48 68.5t-29.5 80.5t-10 87q0 76 28.5 148.5t81 128t126.5 89.5t164 34q61 0 112 -17l41 75l44 -21l-38 -74q40 -20 71 -51.5t52 -70t31.5 -82.5t10.5 -90q0 -76 -29 -148t-81.5 -127.5t-126 -89.5
t-163.5 -34zM408 47q72 0 131.5 28t102 74.5t66 106t23.5 122.5q0 75 -32.5 140t-95.5 100l-294 -553q43 -18 99 -18zM149 322q0 -36 7.5 -70t22.5 -64.5t36.5 -56t49.5 -43.5l294 551q-40 14 -89 14q-72 0 -131 -28t-101.5 -74.5t-65.5 -106t-23 -122.5z" />
    <glyph glyph-name="Ugrave" unicode="&#xd9;" horiz-adv-x="618" 
d="M146 700h68l-50 -480q-4 -35 4.5 -66.5t28 -55t49.5 -37.5t68 -14t70.5 14t57 37.5t39.5 55t19 66.5l50 480h68l-50 -480q-5 -48 -26 -90.5t-55 -74.5t-79.5 -51t-99.5 -19q-53 0 -94.5 18.5t-69.5 50.5t-40.5 74.5t-7.5 91.5zM269 886l37 53l235 -137l-37 -53z" />
    <glyph glyph-name="Uacute" unicode="&#xda;" horiz-adv-x="618" 
d="M146 700h68l-50 -480q-4 -35 4.5 -66.5t28 -55t49.5 -37.5t68 -14t70.5 14t57 37.5t39.5 55t19 66.5l50 480h68l-50 -480q-5 -48 -26 -90.5t-55 -74.5t-79.5 -51t-99.5 -19q-53 0 -94.5 18.5t-69.5 50.5t-40.5 74.5t-7.5 91.5zM267 749l-26 53l263 137l26 -53z" />
    <glyph glyph-name="Ucircumflex" unicode="&#xdb;" horiz-adv-x="618" 
d="M146 700h68l-50 -480q-4 -35 4.5 -66.5t28 -55t49.5 -37.5t68 -14t70.5 14t57 37.5t39.5 55t19 66.5l50 480h68l-50 -480q-5 -48 -26 -90.5t-55 -74.5t-79.5 -51t-99.5 -19q-53 0 -94.5 18.5t-69.5 50.5t-40.5 74.5t-7.5 91.5zM407 943l160 -150l-43 -44l-124 122
l-149 -121l-34 43z" />
    <glyph glyph-name="Udieresis" unicode="&#xdc;" horiz-adv-x="618" 
d="M146 700h68l-50 -480q-4 -35 4.5 -66.5t28 -55t49.5 -37.5t68 -14t70.5 14t57 37.5t39.5 55t19 66.5l50 480h68l-50 -480q-5 -48 -26 -90.5t-55 -74.5t-79.5 -51t-99.5 -19q-53 0 -94.5 18.5t-69.5 50.5t-40.5 74.5t-7.5 91.5zM450 826q0 27 20 46.5t46 19.5
q24 0 39.5 -16t15.5 -39q0 -28 -20.5 -46.5t-46.5 -18.5q-24 0 -39 15.5t-15 38.5zM220 826q0 27 20.5 46.5t46.5 19.5q23 0 38.5 -16t15.5 -39q0 -27 -20.5 -46t-46.5 -19q-23 0 -38.5 15.5t-15.5 38.5z" />
    <glyph glyph-name="Yacute" unicode="&#xdd;" 
d="M209 0h-75l171 277l-222 423h79l185 -353l218 353h75zM290 753l-27 52l263 137l27 -52z" />
    <glyph glyph-name="Thorn" unicode="&#xde;" horiz-adv-x="499" 
d="M157 700h62l-14 -133h94q50 0 88.5 -16.5t65 -44.5t40 -64.5t13.5 -76.5q0 -46 -18 -89.5t-51 -77t-80 -54t-105 -20.5h-94l-13 -124h-62zM199 510l-35 -330h94q42 0 76 15t58 40t37 57.5t13 67.5q0 30 -10 57t-28.5 48t-46.5 33t-64 12h-94z" />
    <glyph glyph-name="germandbls" unicode="&#xdf;" horiz-adv-x="558" 
d="M207 59q19 -6 41 -9t41 -3q36 0 68 11t56.5 30.5t38.5 47.5t14 62q0 27 -9.5 51.5t-28 43.5t-46 30t-64.5 11h-48l6 59h46q39 0 69.5 11.5t51 31.5t31 45.5t10.5 54.5q0 54 -35 85.5t-96 31.5q-69 0 -111.5 -39t-49.5 -102l-54 -512h-65l54 512q4 44 22.5 80.5t48.5 63
t70 41.5t88 15q43 0 78.5 -12t61 -34.5t39.5 -54.5t14 -71q0 -67 -39 -114.5t-108 -62.5q59 -14 94 -55.5t35 -106.5q0 -49 -20.5 -88.5t-55 -67t-79 -42.5t-93.5 -15q-25 0 -46.5 3.5t-35.5 8.5z" />
    <glyph glyph-name="agrave" unicode="&#xe0;" horiz-adv-x="592" 
d="M556 443l-47 -443h-65l10 93q-26 -45 -74.5 -74.5t-111.5 -29.5q-46 0 -83.5 17t-64 45.5t-41 67t-14.5 81.5q0 51 19.5 96.5t53.5 80.5t80 55.5t99 20.5q66 0 106.5 -29.5t57.5 -74.5l10 94h65zM282 49q40 0 74.5 15.5t59 41.5t38.5 60t14 72q0 32 -10.5 60.5t-30 49.5
t-47.5 33.5t-64 12.5q-40 0 -74 -15.5t-59 -41.5t-39 -60t-14 -72q0 -32 10 -60.5t29.5 -49.5t48 -33.5t64.5 -12.5zM202 647l37 52l234 -137l-36 -52z" />
    <glyph glyph-name="aacute" unicode="&#xe1;" horiz-adv-x="592" 
d="M556 443l-47 -443h-65l10 93q-26 -45 -74.5 -74.5t-111.5 -29.5q-46 0 -83.5 17t-64 45.5t-41 67t-14.5 81.5q0 51 19.5 96.5t53.5 80.5t80 55.5t99 20.5q66 0 106.5 -29.5t57.5 -74.5l10 94h65zM282 49q40 0 74.5 15.5t59 41.5t38.5 60t14 72q0 32 -10.5 60.5t-30 49.5
t-47.5 33.5t-64 12.5q-40 0 -74 -15.5t-59 -41.5t-39 -60t-14 -72q0 -32 10 -60.5t29.5 -49.5t48 -33.5t64.5 -12.5zM222 510l-26 52l264 137l25 -52z" />
    <glyph glyph-name="acircumflex" unicode="&#xe2;" horiz-adv-x="592" 
d="M556 443l-47 -443h-65l10 93q-26 -45 -74.5 -74.5t-111.5 -29.5q-46 0 -83.5 17t-64 45.5t-41 67t-14.5 81.5q0 51 19.5 96.5t53.5 80.5t80 55.5t99 20.5q66 0 106.5 -29.5t57.5 -74.5l10 94h65zM282 49q40 0 74.5 15.5t59 41.5t38.5 60t14 72q0 32 -10.5 60.5t-30 49.5
t-47.5 33.5t-64 12.5q-40 0 -74 -15.5t-59 -41.5t-39 -60t-14 -72q0 -32 10 -60.5t29.5 -49.5t48 -33.5t64.5 -12.5zM358 728l159 -150l-43 -44l-124 122l-149 -121l-34 43z" />
    <glyph glyph-name="atilde" unicode="&#xe3;" horiz-adv-x="592" 
d="M556 443l-47 -443h-65l10 93q-26 -45 -74.5 -74.5t-111.5 -29.5q-46 0 -83.5 17t-64 45.5t-41 67t-14.5 81.5q0 51 19.5 96.5t53.5 80.5t80 55.5t99 20.5q66 0 106.5 -29.5t57.5 -74.5l10 94h65zM282 49q40 0 74.5 15.5t59 41.5t38.5 60t14 72q0 32 -10.5 60.5t-30 49.5
t-47.5 33.5t-64 12.5q-40 0 -74 -15.5t-59 -41.5t-39 -60t-14 -72q0 -32 10 -60.5t29.5 -49.5t48 -33.5t64.5 -12.5zM427 622q23 0 41.5 16t30.5 38l47 -24q-24 -42 -57 -62t-68 -20q-24 0 -42 8.5t-32.5 18.5t-28.5 18.5t-30 8.5q-21 0 -39.5 -15t-31.5 -39l-45 29
q26 40 58 58.5t65 18.5q25 0 42.5 -8.5t32 -18.5t27.5 -18.5t30 -8.5z" />
    <glyph glyph-name="adieresis" unicode="&#xe4;" horiz-adv-x="592" 
d="M444 0l10 93q-26 -45 -74.5 -74.5t-111.5 -29.5q-46 0 -83.5 17t-64 45.5t-41 67t-14.5 81.5q0 51 19.5 96.5t53.5 80.5t80 55.5t99 20.5q66 0 106.5 -29.5t57.5 -74.5l10 94h65l-47 -443h-65zM282 49q40 0 74.5 15.5t59 41.5t38.5 60t14 72q0 32 -10.5 60.5t-30 49.5
t-47.5 33.5t-64 12.5q-40 0 -74 -15.5t-59 -41.5t-39 -60t-14 -72q0 -32 10 -60.5t29.5 -49.5t48 -33.5t64.5 -12.5zM447 546q-24 0 -39.5 15.5t-15.5 38.5q0 27 20 46.5t46 19.5q24 0 39.5 -16t15.5 -39q0 -28 -20 -46.5t-46 -18.5zM162 600q0 27 20 46.5t46 19.5
q24 0 39.5 -16t15.5 -39q0 -28 -20 -46.5t-46 -18.5q-24 0 -39.5 15.5t-15.5 38.5z" />
    <glyph glyph-name="aring" unicode="&#xe5;" horiz-adv-x="592" 
d="M556 443l-47 -443h-65l10 93q-26 -45 -74.5 -74.5t-111.5 -29.5q-46 0 -83.5 17t-64 45.5t-41 67t-14.5 81.5q0 51 19.5 96.5t53.5 80.5t80 55.5t99 20.5q66 0 106.5 -29.5t57.5 -74.5l10 94h65zM282 49q40 0 74.5 15.5t59 41.5t38.5 60t14 72q0 32 -10.5 60.5t-30 49.5
t-47.5 33.5t-64 12.5q-40 0 -74 -15.5t-59 -41.5t-39 -60t-14 -72q0 -32 10 -60.5t29.5 -49.5t48 -33.5t64.5 -12.5zM354 751q25 0 46 -9.5t36.5 -25t24 -36.5t8.5 -44q0 -27 -11.5 -52t-30.5 -44t-44.5 -30t-52.5 -11q-25 0 -46 9.5t-36 25t-23.5 36.5t-8.5 45
q0 28 11.5 52.5t30.5 43t44 29.5t52 11zM350 708q-18 0 -34.5 -7t-29 -19.5t-20 -29t-7.5 -34.5q0 -31 21 -53t54 -22q18 0 34.5 7t28.5 19.5t19.5 29t7.5 34.5q0 32 -20.5 53.5t-53.5 21.5z" />
    <glyph glyph-name="ae" unicode="&#xe6;" horiz-adv-x="916" 
d="M556 443l-7 -61q27 32 67.5 51.5t90.5 19.5q41 0 75.5 -13.5t59 -38t38.5 -58.5t14 -74q0 -19 -2.5 -32.5t-6.5 -29.5h-353q-4 -34 2.5 -63.5t23 -51t44 -34t66.5 -12.5q57 0 90.5 24t49.5 57h67q-9 -27 -28 -51.5t-46 -44t-61.5 -31t-75.5 -11.5q-53 0 -90 19.5
t-58 54.5l-7 -63h-65l10 93q-26 -45 -74.5 -74.5t-111.5 -29.5q-46 0 -83.5 17t-64 45.5t-41 67t-14.5 81.5q0 51 19.5 96.5t53.5 80.5t80 55.5t99 20.5q66 0 106.5 -29.5t57.5 -74.5l10 94h65zM700 397q-63 0 -107.5 -37.5t-54.5 -101.5h291q3 31 -5 57t-25 44t-42.5 28
t-56.5 10zM282 49q40 0 74.5 15.5t59 41.5t38.5 60t14 72q0 32 -10.5 60.5t-30 49.5t-47.5 33.5t-64 12.5q-40 0 -74 -15.5t-59 -41.5t-39 -60t-14 -72q0 -32 10 -60.5t29.5 -49.5t48 -33.5t64.5 -12.5z" />
    <glyph glyph-name="ccedilla" unicode="&#xe7;" horiz-adv-x="524" 
d="M219 -6q-38 7 -66.5 26.5t-47 47t-28 61t-9.5 69.5q0 48 16.5 94t48.5 82t78.5 58t107.5 22q51 0 87 -15.5t58 -40t31.5 -55.5t8.5 -62h-65q0 22 -6.5 42.5t-21.5 36.5t-39 25.5t-58 9.5q-45 0 -78.5 -16.5t-56 -43.5t-34 -62t-11.5 -72q0 -31 8.5 -58.5t26 -48.5t45 -33
t66.5 -12q60 0 96 28.5t51 74.5h65q-17 -67 -72.5 -110.5t-143.5 -50.5l-13 -1l-6 -62q18 23 56 23q32 0 52 -20.5t20 -52.5q0 -19 -7.5 -36.5t-21 -31t-32.5 -21.5t-42 -8q-15 0 -30.5 4.5t-28 13.5t-21 23.5t-9.5 35.5h43q2 -17 14 -28t33 -11q26 0 42.5 16t16.5 39
q0 19 -11.5 32t-34.5 13q-14 0 -27 -6t-24 -23h-37z" />
    <glyph glyph-name="egrave" unicode="&#xe8;" horiz-adv-x="519" 
d="M133 207q-2 -30 3.5 -59t21.5 -51.5t43.5 -36.5t69.5 -14q57 0 91 24t49 57h66q-9 -27 -27.5 -52t-45.5 -44t-62.5 -30.5t-77.5 -11.5q-50 0 -87 16.5t-61 44.5t-36 66t-12 81q0 54 17 100.5t48.5 81t75.5 54.5t97 20q44 0 79.5 -14t60 -38.5t38 -58t13.5 -73.5
q0 -19 -2.5 -32.5t-6.5 -29.5h-355zM303 402q-61 0 -107 -37.5t-56 -106.5h293q3 33 -5 59.5t-25 45t-43 29t-57 10.5zM203 647l37 52l235 -137l-37 -52z" />
    <glyph glyph-name="eacute" unicode="&#xe9;" horiz-adv-x="519" 
d="M133 207q-2 -30 3.5 -59t21.5 -51.5t43.5 -36.5t69.5 -14q57 0 91 24t49 57h66q-9 -27 -27.5 -52t-45.5 -44t-62.5 -30.5t-77.5 -11.5q-50 0 -87 16.5t-61 44.5t-36 66t-12 81q0 54 17 100.5t48.5 81t75.5 54.5t97 20q44 0 79.5 -14t60 -38.5t38 -58t13.5 -73.5
q0 -19 -2.5 -32.5t-6.5 -29.5h-355zM303 402q-61 0 -107 -37.5t-56 -106.5h293q3 33 -5 59.5t-25 45t-43 29t-57 10.5zM198 510l-25 52l263 137l25 -52z" />
    <glyph glyph-name="ecircumflex" unicode="&#xea;" horiz-adv-x="519" 
d="M133 207q-2 -30 3.5 -59t21.5 -51.5t43.5 -36.5t69.5 -14q57 0 91 24t49 57h66q-9 -27 -27.5 -52t-45.5 -44t-62.5 -30.5t-77.5 -11.5q-50 0 -87 16.5t-61 44.5t-36 66t-12 81q0 54 17 100.5t48.5 81t75.5 54.5t97 20q44 0 79.5 -14t60 -38.5t38 -58t13.5 -73.5
q0 -19 -2.5 -32.5t-6.5 -29.5h-355zM303 402q-61 0 -107 -37.5t-56 -106.5h293q3 33 -5 59.5t-25 45t-43 29t-57 10.5zM340 728l159 -150l-42 -44l-125 122l-148 -121l-35 43z" />
    <glyph glyph-name="edieresis" unicode="&#xeb;" horiz-adv-x="519" 
d="M133 207q-2 -30 3.5 -59t21.5 -51.5t43.5 -36.5t69.5 -14q57 0 91 24t49 57h66q-9 -27 -27.5 -52t-45.5 -44t-62.5 -30.5t-77.5 -11.5q-50 0 -87 16.5t-61 44.5t-36 66t-12 81q0 54 17 100.5t48.5 81t75.5 54.5t97 20q44 0 79.5 -14t60 -38.5t38 -58t13.5 -73.5
q0 -19 -2.5 -32.5t-6.5 -29.5h-355zM303 402q-61 0 -107 -37.5t-56 -106.5h293q3 33 -5 59.5t-25 45t-43 29t-57 10.5zM382 599q0 27 19.5 46.5t45.5 19.5q24 0 39 -16t15 -39q0 -27 -19.5 -46t-46.5 -19q-23 0 -38 15.5t-15 38.5zM152 599q0 27 19.5 46.5t45.5 19.5
q24 0 39 -16t15 -39q0 -27 -19.5 -46t-46.5 -19q-23 0 -38 15.5t-15 38.5z" />
    <glyph glyph-name="igrave" unicode="&#xec;" horiz-adv-x="231" 
d="M130 443h65l-47 -443h-65zM45 657l36 52l235 -137l-36 -52z" />
    <glyph glyph-name="iacute" unicode="&#xed;" horiz-adv-x="231" 
d="M129 443h65l-46 -443h-65zM62 520l-26 52l263 137l26 -52z" />
    <glyph glyph-name="icircumflex" unicode="&#xee;" horiz-adv-x="231" 
d="M130 443h65l-47 -443h-65zM192 728l160 -150l-43 -44l-124 122l-149 -121l-34 43z" />
    <glyph glyph-name="idieresis" unicode="&#xef;" horiz-adv-x="231" 
d="M130 443h65l-47 -443h-65zM229 600q0 27 20 46.5t46 19.5q24 0 39.5 -16t15.5 -39q0 -27 -20 -46t-46 -19q-24 0 -39.5 15.5t-15.5 38.5zM20 600q0 27 20 46.5t46 19.5q24 0 39 -16t15 -39q0 -27 -20 -46t-47 -19q-23 0 -38 15.5t-15 38.5z" />
    <glyph glyph-name="eth" unicode="&#xf0;" horiz-adv-x="563" 
d="M282 -11q-50 0 -89.5 17t-66.5 45.5t-41 66.5t-14 81q0 51 19.5 97t53.5 81t80 55.5t100 20.5q24 0 42.5 -5t28.5 -17l-57 112l-129 -67l-18 42l124 64l-59 118h78l43 -85l91 47l18 -41l-88 -47l105 -201q17 -32 27 -63.5t10 -68.5q0 -50 -19.5 -95.5t-54 -80.5
t-81.5 -55.5t-103 -20.5zM289 49q40 0 74 15.5t58.5 41.5t38.5 60t14 72q0 32 -10 60.5t-29.5 49.5t-47.5 33.5t-64 12.5q-41 0 -75 -15.5t-59 -41.5t-39 -60t-14 -72q0 -32 10.5 -60.5t30 -49.5t48 -33.5t64.5 -12.5z" />
    <glyph glyph-name="ntilde" unicode="&#xf1;" horiz-adv-x="562" 
d="M130 443h65l-11 -96q24 45 70 75.5t112 30.5q43 0 74.5 -14.5t50.5 -40.5t24 -60t0 -78l-27 -260h-65l25 241q3 33 -1 61t-17 48.5t-36 32.5t-56 12q-38 0 -67.5 -14.5t-50 -38.5t-33 -54t-15.5 -61l-24 -227h-65zM420 622q23 0 42 16t31 38l47 -24q-24 -42 -57 -62
t-68 -20q-24 0 -42 8.5t-32.5 18.5t-28.5 18.5t-30 8.5q-21 0 -39.5 -15t-31.5 -39l-45 29q26 40 58 58.5t65 18.5q25 0 42 -8.5t31.5 -18.5t27.5 -18.5t30 -8.5z" />
    <glyph glyph-name="ograve" unicode="&#xf2;" horiz-adv-x="552" 
d="M276 -11q-50 0 -89 17t-66 45.5t-41.5 66.5t-14.5 81q0 51 19.5 97t53.5 81t81 55.5t103 20.5q50 0 89.5 -16.5t66.5 -45t41.5 -67t14.5 -81.5q0 -51 -19.5 -97t-54 -81t-81.5 -55.5t-103 -20.5zM282 49q40 0 74.5 15.5t59 41.5t38.5 60t14 72q0 32 -10.5 60.5t-30 49.5
t-47.5 33.5t-64 12.5q-40 0 -74 -15.5t-59 -41.5t-39 -60t-14 -72q0 -32 10 -60.5t29.5 -49.5t48 -33.5t64.5 -12.5zM209 647l37 52l234 -137l-36 -52z" />
    <glyph glyph-name="oacute" unicode="&#xf3;" horiz-adv-x="552" 
d="M276 -11q-50 0 -89 17t-66 45.5t-41.5 66.5t-14.5 81q0 51 19.5 97t53.5 81t81 55.5t103 20.5q50 0 89.5 -16.5t66.5 -45t41.5 -67t14.5 -81.5q0 -51 -19.5 -97t-54 -81t-81.5 -55.5t-103 -20.5zM282 49q40 0 74.5 15.5t59 41.5t38.5 60t14 72q0 32 -10.5 60.5t-30 49.5
t-47.5 33.5t-64 12.5q-40 0 -74 -15.5t-59 -41.5t-39 -60t-14 -72q0 -32 10 -60.5t29.5 -49.5t48 -33.5t64.5 -12.5zM206 510l-26 52l264 137l25 -52z" />
    <glyph glyph-name="ocircumflex" unicode="&#xf4;" horiz-adv-x="552" 
d="M276 -11q-50 0 -89 17t-66 45.5t-41.5 66.5t-14.5 81q0 51 19.5 97t53.5 81t81 55.5t103 20.5q50 0 89.5 -16.5t66.5 -45t41.5 -67t14.5 -81.5q0 -51 -19.5 -97t-54 -81t-81.5 -55.5t-103 -20.5zM282 49q40 0 74.5 15.5t59 41.5t38.5 60t14 72q0 32 -10.5 60.5t-30 49.5
t-47.5 33.5t-64 12.5q-40 0 -74 -15.5t-59 -41.5t-39 -60t-14 -72q0 -32 10 -60.5t29.5 -49.5t48 -33.5t64.5 -12.5zM352 729l159 -151l-43 -43l-124 121l-149 -121l-34 43z" />
    <glyph glyph-name="otilde" unicode="&#xf5;" horiz-adv-x="552" 
d="M276 -11q-50 0 -89 17t-66 45.5t-41.5 66.5t-14.5 81q0 51 19.5 97t53.5 81t81 55.5t103 20.5q50 0 89.5 -16.5t66.5 -45t41.5 -67t14.5 -81.5q0 -51 -19.5 -97t-54 -81t-81.5 -55.5t-103 -20.5zM282 49q40 0 74.5 15.5t59 41.5t38.5 60t14 72q0 32 -10.5 60.5t-30 49.5
t-47.5 33.5t-64 12.5q-40 0 -74 -15.5t-59 -41.5t-39 -60t-14 -72q0 -32 10 -60.5t29.5 -49.5t48 -33.5t64.5 -12.5zM409 622q23 0 41.5 16t30.5 38l47 -24q-24 -42 -57 -62t-68 -20q-24 0 -42 8.5t-32.5 18.5t-28.5 18.5t-30 8.5q-21 0 -39.5 -15t-31.5 -39l-45 29
q26 40 58 58.5t65 18.5q25 0 42.5 -8.5t32 -18.5t27.5 -18.5t30 -8.5z" />
    <glyph glyph-name="odieresis" unicode="&#xf6;" horiz-adv-x="552" 
d="M218 546q-23 0 -38.5 15.5t-15.5 38.5q0 27 20 46.5t46 19.5q24 0 39.5 -16t15.5 -39q0 -27 -20 -46t-47 -19zM394 600q0 27 20 46.5t46 19.5q24 0 39 -16t15 -39q0 -27 -19.5 -46t-46.5 -19q-23 0 -38.5 15.5t-15.5 38.5zM276 -11q-50 0 -89 17t-66 45.5t-41.5 66.5
t-14.5 81q0 51 19.5 97t53.5 81t81 55.5t103 20.5q50 0 89.5 -16.5t66.5 -45t41.5 -67t14.5 -81.5q0 -51 -19.5 -97t-54 -81t-81.5 -55.5t-103 -20.5zM282 49q40 0 74.5 15.5t59 41.5t38.5 60t14 72q0 32 -10.5 60.5t-30 49.5t-47.5 33.5t-64 12.5q-40 0 -74 -15.5
t-59 -41.5t-39 -60t-14 -72q0 -32 10 -60.5t29.5 -49.5t48 -33.5t64.5 -12.5z" />
    <glyph glyph-name="divide" unicode="&#xf7;" 
d="M105 205l6 59h404l-6 -59h-404zM266 377q0 27 20 46.5t46 19.5q24 0 39 -16t15 -39q0 -27 -19.5 -46t-45.5 -19q-24 0 -39.5 15.5t-15.5 38.5zM236 86q0 12 5.5 24.5t14.5 22t21 16t25 6.5q12 0 22 -5.5t17 -14t11 -19t4 -20.5q0 -23 -20 -42t-47 -19q-25 0 -39 16
t-14 35z" />
    <glyph glyph-name="oslash" unicode="&#xf8;" horiz-adv-x="552" 
d="M426 429q52 -25 80 -75.5t28 -111.5q0 -50 -19 -96t-53.5 -81t-82 -55.5t-104.5 -20.5q-23 0 -42 3.5t-36 9.5l-37 -70l-41 18l37 71q-44 27 -67.5 74.5t-23.5 103.5q0 51 19.5 97t53.5 81t81 55.5t102 20.5q18 0 34 -2t31 -6l34 64l41 -17zM278 49q43 0 78 15.5t60 41
t38.5 59.5t13.5 72q0 44 -18.5 79.5t-53.5 55.5l-169 -315q12 -5 25 -6.5t26 -1.5zM130 205q0 -39 15 -73t43 -54l167 311q-10 2 -18.5 3.5t-20.5 1.5q-40 0 -74 -15.5t-59 -41.5t-39 -60t-14 -72z" />
    <glyph glyph-name="ugrave" unicode="&#xf9;" horiz-adv-x="560" 
d="M477 0h-65l10 96q-25 -48 -71 -77.5t-109 -29.5q-43 0 -75 15t-51 41t-24 60t0 78l27 260h66l-25 -241q-3 -33 1 -61t17 -48.5t35.5 -32.5t55.5 -12q38 0 67.5 14.5t50 38.5t33 54t15.5 61l24 227h65zM210 647l37 52l234 -137l-36 -52z" />
    <glyph glyph-name="uacute" unicode="&#xfa;" horiz-adv-x="560" 
d="M477 0h-65l10 96q-25 -48 -71 -77.5t-109 -29.5q-43 0 -75 15t-51 41t-24 60t0 78l27 260h66l-25 -241q-3 -33 1 -61t17 -48.5t35.5 -32.5t55.5 -12q38 0 67.5 14.5t50 38.5t33 54t15.5 61l24 227h65zM224 510l-26 52l264 137l25 -52z" />
    <glyph glyph-name="ucircumflex" unicode="&#xfb;" horiz-adv-x="561" 
d="M477 0h-65l10 96q-25 -48 -71 -77.5t-109 -29.5q-43 0 -75 15t-51 41t-24 60t0 78l27 260h66l-25 -241q-3 -33 1 -61t17 -48.5t35.5 -32.5t55.5 -12q38 0 67.5 14.5t50 38.5t33 54t15.5 61l24 227h65zM360 728l159 -150l-43 -44l-124 122l-148 -121l-35 43z" />
    <glyph glyph-name="udieresis" unicode="&#xfc;" horiz-adv-x="560" 
d="M477 0h-65l10 96q-25 -48 -71 -77.5t-109 -29.5q-43 0 -75 15t-51 41t-24 60t0 78l27 260h66l-25 -241q-3 -33 1 -61t17 -48.5t35.5 -32.5t55.5 -12q38 0 67.5 14.5t50 38.5t33 54t15.5 61l24 227h65zM395 600q0 27 19.5 46.5t45.5 19.5q24 0 39 -16t15 -39
q0 -27 -19.5 -46t-46.5 -19q-23 0 -38 15.5t-15 38.5zM165 600q0 27 19.5 46.5t45.5 19.5q24 0 39 -16t15 -39q0 -27 -19.5 -46t-46.5 -19q-23 0 -38 15.5t-15 38.5z" />
    <glyph glyph-name="yacute" unicode="&#xfd;" horiz-adv-x="568" 
d="M256 -267q-205 0 -188 202h66q-4 -76 28 -111t101 -35q32 0 58.5 8t46 27t32 49t17.5 75l16 148q-24 -45 -68 -76t-114 -31q-86 0 -126 54q-17 23 -22.5 56t0.5 89l27 255h66l-25 -236q-8 -72 15 -115.5t91 -43.5q40 0 70 14.5t51 38.5t33 54t15 61l24 227h64l-52 -495
q-12 -114 -69.5 -164.5t-156.5 -50.5zM234 510l-27 52l263 137l27 -52z" />
    <glyph glyph-name="thorn" unicode="&#xfe;" horiz-adv-x="590" 
d="M56 -257l101 957h65l-37 -351q26 48 75.5 76t110.5 28q46 0 83.5 -16.5t64 -45t41 -67t14.5 -81.5q0 -51 -19.5 -97t-53 -81t-79.5 -55.5t-99 -20.5q-66 0 -107.5 30t-57.5 74l-37 -350h-65zM323 49q40 0 74 15.5t59 41.5t38.5 60t13.5 72q0 32 -10 60.5t-29.5 49.5
t-48 33.5t-64.5 12.5q-41 0 -75 -15.5t-58.5 -41.5t-38.5 -60t-14 -72q0 -32 10.5 -60.5t30 -49.5t48 -33.5t64.5 -12.5z" />
    <glyph glyph-name="ydieresis" unicode="&#xff;" horiz-adv-x="568" 
d="M256 -267q-205 0 -188 202h66q-4 -76 28 -111t101 -35q32 0 58.5 8t46 27t32 49t17.5 75l16 148q-24 -45 -68 -76t-114 -31q-86 0 -126 54q-17 23 -22.5 56t0.5 89l27 255h66l-25 -236q-8 -72 15 -115.5t91 -43.5q40 0 70 14.5t51 38.5t33 54t15 61l24 227h64l-52 -495
q-12 -114 -69.5 -164.5t-156.5 -50.5zM413 599q0 27 19 45.5t45 18.5q23 0 37.5 -15t14.5 -38q0 -26 -19 -44.5t-45 -18.5q-23 0 -37.5 14.5t-14.5 37.5zM183 599q0 26 18.5 45t44.5 19q23 0 38 -15t15 -38q0 -26 -19 -44.5t-45 -18.5q-23 0 -37.5 14.5t-14.5 37.5z" />
    <glyph glyph-name="Amacron" unicode="&#x100;" horiz-adv-x="546" 
d="M540 0h-72l-30 125h-304l-56 -125h-72l315 700h52zM162 187h262l-89 404zM536 800h-358l6 59h358z" />
    <glyph glyph-name="amacron" unicode="&#x101;" horiz-adv-x="592" 
d="M556 443l-47 -443h-65l10 93q-26 -45 -74.5 -74.5t-111.5 -29.5q-46 0 -83.5 17t-64 45.5t-41 67t-14.5 81.5q0 51 19.5 96.5t53.5 80.5t80 55.5t99 20.5q66 0 106.5 -29.5t57.5 -74.5l10 94h65zM282 49q40 0 74.5 15.5t59 41.5t38.5 60t14 72q0 32 -10.5 60.5t-30 49.5
t-47.5 33.5t-64 12.5q-40 0 -74 -15.5t-59 -41.5t-39 -60t-14 -72q0 -32 10 -60.5t29.5 -49.5t48 -33.5t64.5 -12.5zM511 576h-358l6 59h358z" />
    <glyph glyph-name="Abreve" unicode="&#x102;" horiz-adv-x="546" 
d="M540 0h-72l-30 125h-304l-56 -125h-72l315 700h52zM162 187h262l-89 404zM361 824q48 0 84 24.5t51 69.5h62q-9 -33 -28.5 -59.5t-46.5 -46t-60 -30t-69 -10.5t-66.5 10.5t-53 30t-36.5 46t-16 59.5h62q6 -45 37 -69.5t80 -24.5z" />
    <glyph glyph-name="abreve" unicode="&#x103;" horiz-adv-x="592" 
d="M556 443l-47 -443h-65l10 93q-26 -45 -74.5 -74.5t-111.5 -29.5q-46 0 -83.5 17t-64 45.5t-41 67t-14.5 81.5q0 51 19.5 96.5t53.5 80.5t80 55.5t99 20.5q66 0 106.5 -29.5t57.5 -74.5l10 94h65zM282 49q40 0 74.5 15.5t59 41.5t38.5 60t14 72q0 32 -10.5 60.5t-30 49.5
t-47.5 33.5t-64 12.5q-40 0 -74 -15.5t-59 -41.5t-39 -60t-14 -72q0 -32 10 -60.5t29.5 -49.5t48 -33.5t64.5 -12.5zM338 606q47 0 82 24.5t50 69.5h61q-9 -33 -28 -59.5t-45.5 -46t-58.5 -30t-67 -10.5q-71 0 -116.5 40t-50.5 106h62q6 -45 35 -69.5t76 -24.5z" />
    <glyph glyph-name="Aogonek" unicode="&#x104;" horiz-adv-x="546" 
d="M162 187h262l-89 404zM538 -199q-15 -5 -36 -9t-44 -4q-52 0 -77.5 24.5t-25.5 60.5q0 40 29.5 70.5t83.5 56.5l-30 125h-304l-56 -125h-72l315 700h52l167 -700h-23q-43 -20 -70 -44.5t-27 -59.5q0 -24 15 -40.5t46 -16.5q14 0 31.5 3.5t31.5 8.5z" />
    <glyph glyph-name="aogonek" unicode="&#x105;" horiz-adv-x="592" 
d="M509 0h-14q-45 -20 -73.5 -46t-28.5 -61q0 -23 14.5 -38.5t44.5 -15.5q14 0 32 3.5t32 8.5l-7 -50q-15 -5 -36.5 -9t-44.5 -4q-53 0 -79 24.5t-26 61.5q0 42 32 71t89 58l10 90q-26 -45 -74.5 -74.5t-111.5 -29.5q-46 0 -83.5 17t-64 45.5t-41 67t-14.5 81.5
q0 51 19.5 96.5t53.5 80.5t80 55.5t99 20.5q66 0 106.5 -29.5t57.5 -74.5l10 94h65zM282 49q40 0 74.5 15.5t59 41.5t38.5 60t14 72q0 32 -10.5 60.5t-30 49.5t-47.5 33.5t-64 12.5q-40 0 -74 -15.5t-59 -41.5t-39 -60t-14 -72q0 -32 10 -60.5t29.5 -49.5t48 -33.5
t64.5 -12.5z" />
    <glyph glyph-name="Cacute" unicode="&#x106;" horiz-adv-x="775" 
d="M755 206q-19 -47 -52.5 -87.5t-78.5 -70t-100.5 -46.5t-117.5 -17q-78 0 -139 26.5t-103 72t-64 105.5t-22 127q0 76 28 148t80 128t126 89.5t167 33.5q71 0 125.5 -20t92.5 -54t59.5 -80t25.5 -97h-71q-6 40 -23.5 75t-47.5 60t-71.5 39.5t-94.5 14.5q-75 0 -135.5 -28
t-102.5 -74.5t-65 -106.5t-23 -123q0 -56 18 -106t52.5 -87.5t84 -59t112.5 -21.5q92 0 161.5 44.5t103.5 114.5h75zM367 749l-25 53l263 137l26 -53z" />
    <glyph glyph-name="cacute" unicode="&#x107;" horiz-adv-x="524" 
d="M439 281q0 22 -6.5 42.5t-21.5 36.5t-39 25.5t-58 9.5q-45 0 -78.5 -16.5t-56 -43.5t-34 -62t-11.5 -72q0 -31 8.5 -58.5t26 -48.5t45 -33t66.5 -12q60 0 96 28.5t51 74.5h65q-9 -35 -28 -65t-47.5 -52t-65 -34t-80.5 -12q-53 0 -91 17t-63 46t-37 67t-12 79
q0 49 16.5 95t48.5 82t78.5 57.5t107.5 21.5q52 0 87.5 -15.5t57.5 -40.5t31.5 -55.5t8.5 -61.5h-65zM212 510l-27 52l264 137l26 -52z" />
    <glyph glyph-name="Ccircumflex" unicode="&#x108;" horiz-adv-x="775" 
d="M755 206q-19 -47 -52.5 -87.5t-78.5 -70t-100.5 -46.5t-117.5 -17q-78 0 -139 26.5t-103 72t-64 105.5t-22 127q0 76 28 148t80 128t126 89.5t167 33.5q71 0 125.5 -20t92.5 -54t59.5 -80t25.5 -97h-71q-6 40 -23.5 75t-47.5 60t-71.5 39.5t-94.5 14.5q-75 0 -135.5 -28
t-102.5 -74.5t-65 -106.5t-23 -123q0 -56 18 -106t52.5 -87.5t84 -59t112.5 -21.5q92 0 161.5 44.5t103.5 114.5h75zM496 943l161 -151l-43 -43l-125 121l-149 -121l-34 43z" />
    <glyph glyph-name="ccircumflex" unicode="&#x109;" horiz-adv-x="524" 
d="M439 281q0 22 -6.5 42.5t-21.5 36.5t-39 25.5t-58 9.5q-45 0 -78.5 -16.5t-56 -43.5t-34 -62t-11.5 -72q0 -31 8.5 -58.5t26 -48.5t45 -33t66.5 -12q60 0 96 28.5t51 74.5h65q-9 -35 -28 -65t-47.5 -52t-65 -34t-80.5 -12q-53 0 -91 17t-63 46t-37 67t-12 79
q0 49 16.5 95t48.5 82t78.5 57.5t107.5 21.5q52 0 87.5 -15.5t57.5 -40.5t31.5 -55.5t8.5 -61.5h-65zM347 728l160 -150l-43 -44l-124 122l-150 -121l-33 43z" />
    <glyph glyph-name="Cdotaccent" unicode="&#x10a;" horiz-adv-x="775" 
d="M755 206q-19 -47 -52.5 -87.5t-78.5 -70t-100.5 -46.5t-117.5 -17q-78 0 -139 26.5t-103 72t-64 105.5t-22 127q0 76 28 148t80 128t126 89.5t167 33.5q71 0 125.5 -20t92.5 -54t59.5 -80t25.5 -97h-71q-6 40 -23.5 75t-47.5 60t-71.5 39.5t-94.5 14.5q-75 0 -135.5 -28
t-102.5 -74.5t-65 -106.5t-23 -123q0 -56 18 -106t52.5 -87.5t84 -59t112.5 -21.5q92 0 161.5 44.5t103.5 114.5h75zM425 831q0 27 19.5 46t46.5 19q23 0 38.5 -15.5t15.5 -38.5q0 -27 -20 -46t-47 -19q-23 0 -38 15.5t-15 38.5z" />
    <glyph glyph-name="cdotaccent" unicode="&#x10b;" horiz-adv-x="524" 
d="M439 281q0 22 -6.5 42.5t-21.5 36.5t-39 25.5t-58 9.5q-45 0 -78.5 -16.5t-56 -43.5t-34 -62t-11.5 -72q0 -31 8.5 -58.5t26 -48.5t45 -33t66.5 -12q60 0 96 28.5t51 74.5h65q-9 -35 -28 -65t-47.5 -52t-65 -34t-80.5 -12q-53 0 -91 17t-63 46t-37 67t-12 79
q0 49 16.5 95t48.5 82t78.5 57.5t107.5 21.5q52 0 87.5 -15.5t57.5 -40.5t31.5 -55.5t8.5 -61.5h-65zM272 599q0 27 20 46.5t46 19.5q24 0 39 -16t15 -39q0 -27 -19.5 -46t-46.5 -19q-23 0 -38.5 15.5t-15.5 38.5z" />
    <glyph glyph-name="Ccaron" unicode="&#x10c;" horiz-adv-x="775" 
d="M755 206q-19 -47 -52.5 -87.5t-78.5 -70t-100.5 -46.5t-117.5 -17q-78 0 -139 26.5t-103 72t-64 105.5t-22 127q0 76 28 148t80 128t126 89.5t167 33.5q71 0 125.5 -20t92.5 -54t59.5 -80t25.5 -97h-71q-6 40 -23.5 75t-47.5 60t-71.5 39.5t-94.5 14.5q-75 0 -135.5 -28
t-102.5 -74.5t-65 -106.5t-23 -123q0 -56 18 -106t52.5 -87.5t84 -59t112.5 -21.5q92 0 161.5 44.5t103.5 114.5h75zM317 900l43 42l119 -119l144 120l35 -43l-188 -151z" />
    <glyph glyph-name="ccaron" unicode="&#x10d;" horiz-adv-x="524" 
d="M439 281q0 22 -6.5 42.5t-21.5 36.5t-39 25.5t-58 9.5q-45 0 -78.5 -16.5t-56 -43.5t-34 -62t-11.5 -72q0 -31 8.5 -58.5t26 -48.5t45 -33t66.5 -12q60 0 96 28.5t51 74.5h65q-9 -35 -28 -65t-47.5 -52t-65 -34t-80.5 -12q-53 0 -91 17t-63 46t-37 67t-12 79
q0 49 16.5 95t48.5 82t78.5 57.5t107.5 21.5q52 0 87.5 -15.5t57.5 -40.5t31.5 -55.5t8.5 -61.5h-65zM170 683l43 42l119 -119l145 120l34 -43l-187 -151z" />
    <glyph glyph-name="Dcaron" unicode="&#x10e;" horiz-adv-x="694" 
d="M362 700q81 0 142 -27t102.5 -71t62.5 -101.5t21 -118.5q0 -71 -28 -139.5t-80 -122.5t-126.5 -87t-167.5 -33h-205l74 700h205zM218 638l-60 -576h137q75 0 135 27t102 71.5t64.5 101t22.5 115.5q0 50 -17 97t-50 83.5t-82.5 58.5t-114.5 22h-137zM259 900l43 42
l119 -119l144 120l35 -43l-188 -151z" />
    <glyph glyph-name="dcaron" unicode="&#x10f;" horiz-adv-x="694" 
d="M282 49q40 0 74.5 15.5t59 41.5t38.5 60t14 72q0 32 -10.5 60.5t-30 49.5t-47.5 33.5t-64 12.5q-40 0 -74 -15.5t-59 -41.5t-39 -60t-14 -72q0 -32 10 -60.5t29.5 -49.5t48 -33.5t64.5 -12.5zM518 700h65l-74 -700h-65l10 93q-26 -45 -74.5 -74.5t-111.5 -29.5
q-46 0 -83.5 17t-64 45.5t-41 67t-14.5 81.5q0 51 19.5 96.5t53.5 80.5t80 55.5t99 20.5q66 0 106.5 -29.5t57.5 -74.5zM627 655q0 26 19.5 45.5t48.5 19.5q31 0 48.5 -23t17.5 -68q0 -66 -39 -100t-105 -34l4 35q57 0 73 41q8 14 9.5 24t0.5 17q-8 -8 -26 -8
q-23 0 -37 14.5t-14 36.5z" />
    <glyph glyph-name="Dcroat" unicode="&#x110;" horiz-adv-x="694" 
d="M362 700q81 0 142 -27t102.5 -71t62.5 -101.5t21 -118.5q0 -71 -28 -139.5t-80 -122.5t-126.5 -87t-167.5 -33h-205l34 323h-144l6 59h144l34 318h205zM331 323h-146l-27 -261h137q75 0 135 27t102.5 71.5t65 101t22.5 115.5q0 50 -17 97t-50.5 83.5t-83 58.5t-114.5 22
h-137l-27 -256h146z" />
    <glyph glyph-name="dcroat" unicode="&#x111;" horiz-adv-x="592" 
d="M628 542h-62l-57 -542h-65l10 93q-26 -45 -74.5 -74.5t-111.5 -29.5q-46 0 -83.5 17t-64 45.5t-41 67t-14.5 81.5q0 51 19.5 96.5t53.5 80.5t80 55.5t99 20.5q66 0 106.5 -29.5t57.5 -74.5l20 193h-119l5 46h119l12 112h65l-12 -112h62zM282 49q40 0 74.5 15.5t59 41.5
t38.5 60t14 72q0 32 -10.5 60.5t-30 49.5t-47.5 33.5t-64 12.5q-40 0 -74 -15.5t-59 -41.5t-39 -60t-14 -72q0 -32 10 -60.5t29.5 -49.5t48 -33.5t64.5 -12.5z" />
    <glyph glyph-name="Emacron" unicode="&#x112;" horiz-adv-x="543" 
d="M218 638l-27 -259h314l-7 -62h-314l-26 -255h314l-7 -62h-382l74 700h382l-7 -62h-314zM535 800h-358l6 59h358z" />
    <glyph glyph-name="emacron" unicode="&#x113;" horiz-adv-x="519" 
d="M133 207q-2 -30 3.5 -59t21.5 -51.5t43.5 -36.5t69.5 -14q57 0 91 24t49 57h66q-9 -27 -27.5 -52t-45.5 -44t-62.5 -30.5t-77.5 -11.5q-50 0 -87 16.5t-61 44.5t-36 66t-12 81q0 54 17 100.5t48.5 81t75.5 54.5t97 20q44 0 79.5 -14t60 -38.5t38 -58t13.5 -73.5
q0 -19 -2.5 -32.5t-6.5 -29.5h-355zM303 402q-61 0 -107 -37.5t-56 -106.5h293q3 33 -5 59.5t-25 45t-43 29t-57 10.5zM505 576h-358l6 59h358z" />
    <glyph glyph-name="Ebreve" unicode="&#x114;" horiz-adv-x="543" 
d="M218 638l-27 -259h314l-7 -62h-314l-26 -255h314l-7 -62h-382l74 700h382l-7 -62h-314zM362 824q48 0 84 24.5t51 69.5h62q-9 -33 -28.5 -59.5t-46.5 -46t-60 -30t-69 -10.5t-66.5 10.5t-53.5 30t-37 46t-16 59.5h63q6 -45 37 -69.5t80 -24.5z" />
    <glyph glyph-name="ebreve" unicode="&#x115;" horiz-adv-x="519" 
d="M133 207q-2 -30 3.5 -59t21.5 -51.5t43.5 -36.5t69.5 -14q57 0 91 24t49 57h66q-9 -27 -27.5 -52t-45.5 -44t-62.5 -30.5t-77.5 -11.5q-50 0 -87 16.5t-61 44.5t-36 66t-12 81q0 54 17 100.5t48.5 81t75.5 54.5t97 20q44 0 79.5 -14t60 -38.5t38 -58t13.5 -73.5
q0 -19 -2.5 -32.5t-6.5 -29.5h-355zM303 402q-61 0 -107 -37.5t-56 -106.5h293q3 33 -5 59.5t-25 45t-43 29t-57 10.5zM328 606q47 0 82 24.5t50 69.5h61q-9 -33 -28 -59.5t-45 -46t-58 -30t-67 -10.5t-65 10.5t-52 30t-35.5 46t-15.5 59.5h61q6 -45 35.5 -69.5t76.5 -24.5z
" />
    <glyph glyph-name="Edotaccent" unicode="&#x116;" horiz-adv-x="543" 
d="M218 638l-27 -259h314l-7 -62h-314l-26 -255h314l-7 -62h-382l74 700h382l-7 -62h-314zM299 831q0 27 19.5 46.5t45.5 19.5q24 0 39.5 -16t15.5 -39q0 -28 -20 -46.5t-46 -18.5q-24 0 -39 15.5t-15 38.5z" />
    <glyph glyph-name="edotaccent" unicode="&#x117;" horiz-adv-x="519" 
d="M133 207q-2 -30 3.5 -59t21.5 -51.5t43.5 -36.5t69.5 -14q57 0 91 24t49 57h66q-9 -27 -27.5 -52t-45.5 -44t-62.5 -30.5t-77.5 -11.5q-50 0 -87 16.5t-61 44.5t-36 66t-12 81q0 54 17 100.5t48.5 81t75.5 54.5t97 20q44 0 79.5 -14t60 -38.5t38 -58t13.5 -73.5
q0 -19 -2.5 -32.5t-6.5 -29.5h-355zM303 402q-61 0 -107 -37.5t-56 -106.5h293q3 33 -5 59.5t-25 45t-43 29t-57 10.5zM266 599q0 27 19.5 46.5t45.5 19.5q24 0 39.5 -16t15.5 -39q0 -28 -20 -46.5t-46 -18.5q-24 0 -39 15.5t-15 38.5z" />
    <glyph glyph-name="Eogonek" unicode="&#x118;" horiz-adv-x="543" 
d="M83 0l74 700h382l-7 -62h-314l-27 -259h314l-7 -62h-314l-26 -255h314l-7 -62h-79q-32 -22 -53.5 -47.5t-21.5 -54.5q0 -24 16 -41.5t50 -17.5q16 0 36 4t35 10l-7 -50q-16 -5 -39.5 -10t-48.5 -5q-55 0 -81 26t-26 63q0 35 22.5 63.5t70.5 59.5h-256z" />
    <glyph glyph-name="eogonek" unicode="&#x119;" horiz-adv-x="519" 
d="M357 -197q-17 -5 -40.5 -10t-48.5 -5q-55 0 -80.5 26t-25.5 63q0 32 19 59t60 56q-44 4 -76.5 22t-54 45.5t-32 63.5t-10.5 76q0 53 17 99t48.5 80.5t75.5 54.5t97 20q44 0 79.5 -14t60 -38.5t38 -58t13.5 -73.5q0 -19 -2.5 -32.5t-6.5 -29.5h-353q-3 -32 2.5 -61t22 -51
t44 -35.5t67.5 -13.5q56 0 90 24t50 57h66q-9 -26 -26 -49t-41 -42t-55 -31t-68 -15q-27 -20 -43.5 -43t-16.5 -49q0 -24 15.5 -41.5t49.5 -17.5q16 0 36 4t35 10zM303 402q-30 0 -57.5 -9.5t-49.5 -28t-37 -45.5t-20 -61h293q4 33 -4 59.5t-25.5 45t-43 29t-56.5 10.5z" />
    <glyph glyph-name="Ecaron" unicode="&#x11a;" horiz-adv-x="543" 
d="M218 638l-27 -259h314l-7 -62h-314l-26 -255h314l-7 -62h-382l74 700h382l-7 -62h-314zM195 900l43 42l119 -119l144 120l35 -43l-187 -151z" />
    <glyph glyph-name="ecaron" unicode="&#x11b;" horiz-adv-x="519" 
d="M133 207q-2 -30 3.5 -59t21.5 -51.5t43.5 -36.5t69.5 -14q57 0 91 24t49 57h66q-9 -27 -27.5 -52t-45.5 -44t-62.5 -30.5t-77.5 -11.5q-50 0 -87 16.5t-61 44.5t-36 66t-12 81q0 54 17 100.5t48.5 81t75.5 54.5t97 20q44 0 79.5 -14t60 -38.5t38 -58t13.5 -73.5
q0 -19 -2.5 -32.5t-6.5 -29.5h-355zM303 402q-61 0 -107 -37.5t-56 -106.5h293q3 33 -5 59.5t-25 45t-43 29t-57 10.5zM164 683l44 42l118 -119l145 120l33 -43l-187 -151z" />
    <glyph glyph-name="Gcircumflex" unicode="&#x11c;" horiz-adv-x="833" 
d="M497 324h342l-7 -62h-74q-14 -61 -44.5 -112t-75.5 -87.5t-104 -57t-129 -20.5q-83 0 -144.5 27t-102 72t-61 104t-20.5 123q0 78 29 151t81 129t125 90t161 34q58 0 105.5 -15t83 -41.5t56.5 -62t26 -77.5h-70q-5 28 -22 52.5t-44 42.5t-63 28.5t-79 10.5
q-71 0 -130 -28t-101 -75t-65 -107.5t-23 -124.5q0 -53 16 -102t49 -86.5t83 -60t118 -22.5q57 0 103 16.5t80 45t56.5 68t33.5 85.5h-196zM500 943l160 -151l-43 -43l-124 121l-149 -121l-34 43z" />
    <glyph glyph-name="gcircumflex" unicode="&#x11d;" horiz-adv-x="590" 
d="M316 394q-41 0 -75 -15.5t-58.5 -41.5t-38.5 -60t-14 -72q0 -32 10 -60.5t29.5 -49.5t48 -33.5t64.5 -12.5q40 0 74.5 15.5t59 41.5t38.5 60t14 72q0 32 -10.5 60.5t-30 49.5t-47.5 33.5t-64 12.5zM505 -34q-7 -63 -28 -107.5t-54 -72.5t-76.5 -40.5t-94.5 -12.5
q-62 0 -103 16.5t-65.5 44.5t-34.5 65t-8 78h66q-1 -28 5.5 -54t23 -46.5t45.5 -32.5t74 -12q37 0 68.5 9.5t55.5 30t40 53.5t21 81l14 128q-27 -48 -76 -76.5t-110 -28.5q-46 0 -83.5 17t-64 45.5t-41 67t-14.5 81.5q0 51 19.5 96.5t53 80.5t79.5 55.5t99 20.5
q66 0 107 -29.5t58 -74.5l9 94h65zM348 728l160 -150l-43 -44l-124 122l-149 -121l-34 43z" />
    <glyph glyph-name="Gbreve" unicode="&#x11e;" horiz-adv-x="833" 
d="M497 324h342l-7 -62h-74q-14 -61 -44.5 -112t-75.5 -87.5t-104 -57t-129 -20.5q-83 0 -144.5 27t-102 72t-61 104t-20.5 123q0 78 29 151t81 129t125 90t161 34q58 0 105.5 -15t83 -41.5t56.5 -62t26 -77.5h-70q-5 28 -22 52.5t-44 42.5t-63 28.5t-79 10.5
q-71 0 -130 -28t-101 -75t-65 -107.5t-23 -124.5q0 -53 16 -102t49 -86.5t83 -60t118 -22.5q57 0 103 16.5t80 45t56.5 68t33.5 85.5h-196zM481 824q48 0 84.5 24.5t51.5 69.5h62q-9 -33 -28.5 -59.5t-46.5 -46t-60 -30t-69 -10.5t-66.5 10.5t-53 30t-36.5 46t-16 59.5h62
q6 -45 37 -69.5t79 -24.5z" />
    <glyph glyph-name="gbreve" unicode="&#x11f;" horiz-adv-x="590" 
d="M316 394q-41 0 -75 -15.5t-58.5 -41.5t-38.5 -60t-14 -72q0 -32 10 -60.5t29.5 -49.5t48 -33.5t64.5 -12.5q40 0 74.5 15.5t59 41.5t38.5 60t14 72q0 32 -10.5 60.5t-30 49.5t-47.5 33.5t-64 12.5zM505 -34q-7 -63 -28 -107.5t-54 -72.5t-76.5 -40.5t-94.5 -12.5
q-62 0 -103 16.5t-65.5 44.5t-34.5 65t-8 78h66q-1 -28 5.5 -54t23 -46.5t45.5 -32.5t74 -12q37 0 68.5 9.5t55.5 30t40 53.5t21 81l14 128q-27 -48 -76 -76.5t-110 -28.5q-46 0 -83.5 17t-64 45.5t-41 67t-14.5 81.5q0 51 19.5 96.5t53 80.5t79.5 55.5t99 20.5
q66 0 107 -29.5t58 -74.5l9 94h65zM341 606q46 0 80.5 24.5t49.5 69.5h62q-9 -33 -28 -59.5t-45.5 -46t-58.5 -30t-67 -10.5t-64.5 10.5t-52 30t-36 46t-15.5 59.5h62q6 -45 36 -69.5t77 -24.5z" />
    <glyph glyph-name="Gdotaccent" unicode="&#x120;" horiz-adv-x="833" 
d="M497 324h342l-7 -62h-74q-14 -61 -44.5 -112t-75.5 -87.5t-104 -57t-129 -20.5q-83 0 -144.5 27t-102 72t-61 104t-20.5 123q0 78 29 151t81 129t125 90t161 34q58 0 105.5 -15t83 -41.5t56.5 -62t26 -77.5h-70q-5 28 -22 52.5t-44 42.5t-63 28.5t-79 10.5
q-71 0 -130 -28t-101 -75t-65 -107.5t-23 -124.5q0 -53 16 -102t49 -86.5t83 -60t118 -22.5q57 0 103 16.5t80 45t56.5 68t33.5 85.5h-196zM428 831q0 27 20 46.5t46 19.5q24 0 39.5 -16t15.5 -39q0 -27 -20.5 -46t-46.5 -19q-24 0 -39 15.5t-15 38.5z" />
    <glyph glyph-name="gdotaccent" unicode="&#x121;" horiz-adv-x="590" 
d="M316 394q-41 0 -75 -15.5t-58.5 -41.5t-38.5 -60t-14 -72q0 -32 10 -60.5t29.5 -49.5t48 -33.5t64.5 -12.5q40 0 74.5 15.5t59 41.5t38.5 60t14 72q0 32 -10.5 60.5t-30 49.5t-47.5 33.5t-64 12.5zM505 -34q-7 -63 -28 -107.5t-54 -72.5t-76.5 -40.5t-94.5 -12.5
q-62 0 -103 16.5t-65.5 44.5t-34.5 65t-8 78h66q-1 -28 5.5 -54t23 -46.5t45.5 -32.5t74 -12q37 0 68.5 9.5t55.5 30t40 53.5t21 81l14 128q-27 -48 -76 -76.5t-110 -28.5q-46 0 -83.5 17t-64 45.5t-41 67t-14.5 81.5q0 51 19.5 96.5t53 80.5t79.5 55.5t99 20.5
q66 0 107 -29.5t58 -74.5l9 94h65zM271 599q0 27 20 46.5t46 19.5q24 0 39.5 -16t15.5 -39q0 -28 -20.5 -46.5t-46.5 -18.5q-24 0 -39 15.5t-15 38.5z" />
    <glyph glyph-name="Gcommaaccent" unicode="&#x122;" horiz-adv-x="833" 
d="M497 324h342l-7 -62h-74q-14 -61 -44.5 -112t-75.5 -87.5t-104 -57t-129 -20.5q-83 0 -144.5 27t-102 72t-61 104t-20.5 123q0 78 29 151t81 129t125 90t161 34q58 0 105.5 -15t83 -41.5t56.5 -62t26 -77.5h-70q-5 28 -22 52.5t-44 42.5t-63 28.5t-79 10.5
q-71 0 -130 -28t-101 -75t-65 -107.5t-23 -124.5q0 -53 16 -102t49 -86.5t83 -60t118 -22.5q57 0 103 16.5t80 45t56.5 68t33.5 85.5h-196zM342 -82q0 22 16 37.5t40 15.5q26 0 40 -19.5t14 -54.5q0 -54 -31.5 -82.5t-86.5 -28.5l3 31q20 0 36.5 7t24.5 24q5 11 5.5 20
t1.5 14q-7 -7 -22 -7q-18 0 -29.5 12.5t-11.5 30.5z" />
    <glyph glyph-name="gcommaaccent" unicode="&#x123;" horiz-adv-x="590" 
d="M505 -34q-7 -63 -28 -107.5t-54 -72.5t-76.5 -40.5t-94.5 -12.5q-62 0 -103 16.5t-65.5 44.5t-34.5 65t-8 78h66q-1 -28 5.5 -54t23 -46.5t45.5 -32.5t74 -12q37 0 68.5 9.5t55.5 30t40 53.5t21 81l14 128q-27 -48 -76 -76.5t-110 -28.5q-46 0 -83.5 17t-64 45.5t-41 67
t-14.5 81.5q0 51 19.5 96.5t53 80.5t79.5 55.5t99 20.5q66 0 107 -29.5t58 -74.5l9 94h65zM282 49q40 0 74.5 15.5t59 41.5t38.5 60t14 72q0 32 -10.5 60.5t-30 49.5t-47.5 33.5t-64 12.5q-41 0 -75 -15.5t-58.5 -41.5t-38.5 -60t-14 -72q0 -32 10 -60.5t29.5 -49.5
t48 -33.5t64.5 -12.5zM398 588q0 -26 -19 -45.5t-49 -19.5q-31 0 -48 23t-17 67q0 69 39.5 102t103.5 33l-3 -35q-58 0 -74 -41q-6 -14 -8 -24t-2 -17q10 8 27 8q23 0 36.5 -14.5t13.5 -36.5z" />
    <glyph glyph-name="Hcircumflex" unicode="&#x124;" horiz-adv-x="663" 
d="M544 317h-360l-33 -317h-68l74 700h68l-34 -321h360l34 321h69l-74 -700h-69zM430 943l160 -151l-42 -43l-125 121l-149 -121l-35 43z" />
    <glyph glyph-name="hcircumflex" unicode="&#x125;" horiz-adv-x="562" 
d="M157 700h65l-38 -353q24 45 70 75.5t112 30.5q43 0 74.5 -14.5t50.5 -40.5t24 -60t0 -78l-27 -260h-65l25 241q3 33 -1 61t-17 48.5t-36 32.5t-56 12q-38 0 -67.5 -14.5t-50 -38.5t-33 -54t-15.5 -61l-24 -227h-65zM390 943l159 -151l-41 -43l-126 121l-148 -121l-35 43z
" />
    <glyph glyph-name="Hbar" unicode="&#x126;" horiz-adv-x="663" 
d="M564 506h-360l-13 -127h360zM225 700l-15 -143h360l15 143h69l-74 -700h-69l33 317h-360l-33 -317h-68l74 700h68z" />
    <glyph glyph-name="hbar" unicode="&#x127;" horiz-adv-x="562" 
d="M397 542h-192l-20 -195q23 45 69 75.5t112 30.5q43 0 74.5 -14.5t50.5 -40.5t24 -60t0 -78l-27 -260h-65l25 241q3 33 -1 61t-17 48.5t-36 32.5t-56 12q-38 0 -67.5 -14.5t-50 -38.5t-33 -54t-15.5 -61l-24 -227h-65l57 542h-83l5 46h83l12 112h65l-12 -112h192z" />
    <glyph glyph-name="Itilde" unicode="&#x128;" horiz-adv-x="236" 
d="M156 700h70l-73 -700h-70zM274 845q23 0 41.5 15.5t30.5 37.5l46 -24q-23 -41 -56 -61t-68 -20q-24 0 -42 8.5t-32.5 18t-28.5 18t-30 8.5q-23 0 -41.5 -16.5t-29.5 -36.5l-45 29q26 40 58 58t64 18q25 0 42.5 -8.5t32 -18t28 -18t30.5 -8.5z" />
    <glyph glyph-name="itilde" unicode="&#x129;" horiz-adv-x="231" 
d="M130 443h65l-47 -443h-65zM254 622q23 0 42 16t31 38l47 -24q-24 -42 -57 -62t-68 -20q-24 0 -42 8.5t-32.5 18.5t-28.5 18.5t-30 8.5q-21 0 -39.5 -15t-31.5 -39l-45 29q26 40 58 58.5t65 18.5q25 0 42 -8.5t31.5 -18.5t27.5 -18.5t30 -8.5z" />
    <glyph glyph-name="Imacron" unicode="&#x12a;" horiz-adv-x="236" 
d="M156 700h70l-73 -700h-70zM381 800h-358l6 59h358z" />
    <glyph glyph-name="imacron" unicode="&#x12b;" horiz-adv-x="231" 
d="M129 443h65l-46 -443h-65zM350 575h-358l6 59h358z" />
    <glyph glyph-name="Ibreve" unicode="&#x12c;" horiz-adv-x="236" 
d="M156 700h70l-73 -700h-70zM205 824q48 0 84.5 24.5t51.5 69.5h62q-9 -33 -28.5 -59.5t-46.5 -46t-60 -30t-69 -10.5t-66.5 10.5t-53 30t-36.5 46t-16 59.5h62q6 -45 36.5 -69.5t79.5 -24.5z" />
    <glyph glyph-name="ibreve" unicode="&#x12d;" horiz-adv-x="231" 
d="M130 443h65l-47 -443h-65zM180 606q47 0 81.5 24.5t49.5 69.5h62q-9 -33 -28 -59.5t-45.5 -46t-58.5 -30t-67 -10.5t-64.5 10.5t-52 30t-36 46t-15.5 59.5h62q6 -45 35.5 -69.5t76.5 -24.5z" />
    <glyph glyph-name="Iogonek" unicode="&#x12e;" horiz-adv-x="236" 
d="M153 0h-12q-32 -22 -53.5 -47.5t-21.5 -54.5q0 -24 15.5 -41.5t50.5 -17.5q16 0 35.5 4t34.5 10l-6 -50q-17 -5 -40.5 -10t-47.5 -5q-55 0 -81 26t-26 63t24 65.5t69 57.5h-11l73 700h70z" />
    <glyph glyph-name="iogonek" unicode="&#x12f;" horiz-adv-x="231" 
d="M193 -197q-17 -5 -41 -10t-48 -5q-55 0 -81 26t-26 63t24 65.5t69 57.5h-7l46 443h65l-46 -443h-10q-33 -22 -54.5 -47.5t-21.5 -54.5q0 -25 16 -42t50 -17q16 0 35.5 4t35.5 10zM120 611q0 27 20 46.5t46 19.5q24 0 39.5 -16t15.5 -39q0 -27 -20.5 -46t-46.5 -19
q-24 0 -39 15.5t-15 38.5z" />
    <glyph glyph-name="Idotaccent" unicode="&#x130;" horiz-adv-x="236" 
d="M157 700h70l-74 -700h-70zM146 831q0 27 19.5 46.5t45.5 19.5q24 0 39.5 -16t15.5 -39q0 -27 -20 -46t-47 -19q-23 0 -38 15.5t-15 38.5z" />
    <glyph glyph-name="dotlessi" unicode="&#x131;" horiz-adv-x="222" 
d="M126 443h65l-47 -443h-65z" />
    <glyph glyph-name="Jcircumflex" unicode="&#x134;" horiz-adv-x="536" 
d="M485 216q-5 -51 -25 -93.5t-52 -73t-74.5 -47.5t-92.5 -17t-90 17t-67 47.5t-39 73.5t-7 94h68q-4 -41 5 -72.5t28.5 -53t47.5 -33t61 -11.5q69 0 114.5 45.5t53.5 123.5l51 484h69zM528 943l159 -151l-43 -43l-124 121l-149 -121l-34 43z" />
    <glyph glyph-name="jcircumflex" unicode="&#x135;" horiz-adv-x="231" 
d="M133 -135q-8 -69 -39 -99.5t-79 -30.5q-16 0 -34.5 3t-31.5 9l6 57q26 -11 46 -11q60 0 68 76l60 574h65zM193 728l160 -150l-42 -44l-124 122l-149 -121l-35 43z" />
    <glyph glyph-name="Kcommaaccent" unicode="&#x136;" horiz-adv-x="574" 
d="M477 0l-292 328l-34 -328h-68l74 700h68l-35 -329l361 329h88l-381 -350l307 -350h-88zM237 -71q0 22 16 37.5t40 15.5q25 0 39 -19.5t14 -55.5q0 -53 -31 -81.5t-87 -28.5l3 31q48 0 60 31q7 11 8.5 19.5t0.5 14.5q-9 -7 -22 -7q-18 0 -29.5 12.5t-11.5 30.5z" />
    <glyph glyph-name="kcommaaccent" unicode="&#x137;" horiz-adv-x="455" 
d="M488 443l-243 -222l196 -221h-85l-186 207l-22 -207h-65l74 700h65l-49 -465l230 208h85zM175 -71q0 22 16 37.5t40 15.5q25 0 39 -19.5t14 -55.5q0 -53 -31 -81.5t-87 -28.5l3 31q48 0 60 31q7 11 8.5 19.5t0.5 14.5q-9 -7 -22 -7q-18 0 -29.5 12.5t-11.5 30.5z" />
    <glyph glyph-name="kgreenlandic" unicode="&#x138;" horiz-adv-x="455" 
d="M245 221l196 -221h-85l-186 207l-22 -207h-65l47 443h65l-22 -208l230 208h85z" />
    <glyph glyph-name="Lacute" unicode="&#x139;" horiz-adv-x="422" 
d="M399 62l-7 -62h-309l74 700h68l-67 -638h241zM140 749l-27 53l264 137l26 -53z" />
    <glyph glyph-name="lacute" unicode="&#x13a;" horiz-adv-x="231" 
d="M156 700h65l-73 -700h-65zM86 751l-26 52l263 137l26 -52z" />
    <glyph glyph-name="Lcommaaccent" unicode="&#x13b;" horiz-adv-x="422" 
d="M157 700h68l-67 -638h241l-7 -62h-309zM170 -71q0 22 16 37.5t39 15.5q26 0 40 -19.5t14 -55.5q0 -55 -32 -82.5t-86 -27.5l3 31q48 0 60 30q7 12 8.5 20t0.5 14q-8 -6 -22 -6q-19 0 -30 12.5t-11 30.5z" />
    <glyph glyph-name="lcommaaccent" unicode="&#x13c;" horiz-adv-x="231" 
d="M157 700h65l-74 -700h-65zM56 -71q0 22 16 37.5t40 15.5q26 0 40 -19.5t14 -54.5q0 -53 -30.5 -82t-87.5 -29l3 31q26 0 40 8.5t21 22.5q5 11 6.5 20t1.5 14q-9 -7 -22 -7q-18 0 -30 12.5t-12 30.5z" />
    <glyph glyph-name="Lcaron" unicode="&#x13d;" horiz-adv-x="422" 
d="M399 62l-7 -62h-309l74 700h68l-67 -638h241zM345 656q0 27 19.5 46t49.5 19q31 0 48 -23t17 -68q0 -67 -39 -100t-105 -33l4 34q29 0 47 11t26 31q8 14 9 23.5t2 17.5q-10 -8 -27 -8q-23 0 -37 14t-14 36z" />
    <glyph glyph-name="lcaron" unicode="&#x13e;" horiz-adv-x="333" 
d="M157 700h65l-74 -700h-65zM266 656q0 27 19.5 46t49.5 19q31 0 48 -23t17 -68q0 -67 -39 -100t-105 -33l4 34q29 0 47 11t26 31q8 14 9 23.5t2 17.5q-10 -8 -27 -8q-23 0 -37 14t-14 36z" />
    <glyph glyph-name="Ldot" unicode="&#x13f;" horiz-adv-x="422" 
d="M399 62l-7 -62h-309l74 700h68l-67 -638h241zM295 381q0 27 20 46.5t46 19.5q24 0 39.5 -16t15.5 -39q0 -27 -20.5 -46t-46.5 -19q-23 0 -38.5 15.5t-15.5 38.5z" />
    <glyph glyph-name="ldot" unicode="&#x140;" horiz-adv-x="321" 
d="M157 700h65l-74 -700h-65zM253 325q0 27 20 46.5t46 19.5q24 0 39.5 -16t15.5 -39q0 -27 -20 -46t-46 -19q-24 0 -39.5 15.5t-15.5 38.5z" />
    <glyph glyph-name="Lslash" unicode="&#x141;" horiz-adv-x="422" 
d="M399 62l-7 -62h-309l30 283l-58 -27l6 57l58 27l38 360h68l-35 -331l169 78l-6 -57l-169 -78l-26 -250h241z" />
    <glyph glyph-name="lslash" unicode="&#x142;" horiz-adv-x="231" 
d="M116 311l-91 -47l6 53l91 47l35 336h70l-32 -299l97 50l-6 -55l-96 -49l-37 -347h-70z" />
    <glyph glyph-name="Nacute" unicode="&#x143;" horiz-adv-x="662" 
d="M522 118l62 582h69l-74 -700h-76l-291 582l-61 -582h-68l74 700h76zM306 749l-27 53l264 137l26 -53z" />
    <glyph glyph-name="nacute" unicode="&#x144;" horiz-adv-x="562" 
d="M130 443h65l-11 -96q24 45 70 75.5t112 30.5q43 0 74.5 -14.5t50.5 -40.5t24 -60t0 -78l-27 -260h-65l25 241q3 33 -1 61t-17 48.5t-36 32.5t-56 12q-38 0 -67.5 -14.5t-50 -38.5t-33 -54t-15.5 -61l-24 -227h-65zM237 510l-27 52l263 137l27 -52z" />
    <glyph glyph-name="Ncommaaccent" unicode="&#x145;" horiz-adv-x="662" 
d="M503 0l-291 582l-61 -582h-68l74 700h76l289 -582l62 582h69l-74 -700h-76zM277 -71q0 22 16 37.5t39 15.5q26 0 40 -19.5t14 -55.5q0 -55 -31.5 -82.5t-85.5 -27.5l3 31q46 0 60 30q2 5 6 16t2 18q-8 -6 -22 -6q-19 0 -30 12.5t-11 30.5z" />
    <glyph glyph-name="ncommaaccent" unicode="&#x146;" horiz-adv-x="562" 
d="M83 0l47 443h65l-11 -96q24 45 70 75.5t112 30.5q43 0 74.5 -14.5t50.5 -40.5t24 -60t0 -78l-27 -260h-65l25 241q3 33 -1 61t-17 48.5t-36 32.5t-56 12q-38 0 -67.5 -14.5t-50 -38.5t-33 -54t-15.5 -61l-24 -227h-65zM235 -71q0 22 16 37.5t40 15.5q25 0 39 -19.5
t14 -55.5q0 -52 -30 -81t-87 -29l3 31q27 0 40 9t20 22q5 11 7 20t2 14q-5 -3 -10 -5t-13 -2q-18 0 -29.5 12.5t-11.5 30.5z" />
    <glyph glyph-name="Ncaron" unicode="&#x147;" horiz-adv-x="662" 
d="M522 118l62 582h69l-74 -700h-76l-291 582l-61 -582h-68l74 700h76zM262 900l43 42l119 -119l144 120l35 -43l-188 -151z" />
    <glyph glyph-name="ncaron" unicode="&#x148;" horiz-adv-x="562" 
d="M83 0l47 443h65l-11 -96q24 45 70 75.5t112 30.5q43 0 74.5 -14.5t50.5 -40.5t24 -60t0 -78l-27 -260h-65l25 241q3 33 -1 61t-17 48.5t-36 32.5t-56 12q-38 0 -67.5 -14.5t-50 -38.5t-33 -54t-15.5 -61l-24 -227h-65zM200 683l43 42l119 -119l144 120l34 -43l-187 -151z
" />
    <glyph glyph-name="napostrophe" unicode="&#x149;" horiz-adv-x="562" 
d="M83 0l47 443h65l-11 -96q24 45 70 75.5t112 30.5q43 0 74.5 -14.5t50.5 -40.5t24 -60t0 -78l-27 -260h-65l25 241q3 33 -1 61t-17 48.5t-36 32.5t-56 12q-38 0 -67.5 -14.5t-50 -38.5t-33 -54t-15.5 -61l-24 -227h-65zM44 669q0 23 16 38t39 15q26 0 40 -19t14 -55
q0 -56 -32 -83t-85 -27l3 30q26 0 39.5 8.5t20.5 22.5q2 5 6 16t2 18q-8 -6 -22 -6q-19 0 -30 12t-11 30z" />
    <glyph glyph-name="Eng" unicode="&#x14a;" horiz-adv-x="662" 
d="M523 122l61 578h68l-77 -734q-5 -51 -25 -94t-52 -73.5t-74 -47.5t-91 -17q-60 0 -102.5 23.5t-68.5 63.5l49 44q21 -32 52.5 -50t75.5 -18q68 0 112.5 44t54.5 125l4 33l-298 583l-61 -582h-68l74 700h70z" />
    <glyph glyph-name="eng" unicode="&#x14b;" horiz-adv-x="562" 
d="M135 -150q22 -27 50 -42t67 -15q66 0 112.5 43t54.5 121l29 284q3 33 -1 61t-17 48.5t-36 32.5t-56 12q-38 0 -67.5 -14.5t-50 -38.5t-33 -54t-15.5 -61l-24 -227h-65l47 443h65l-11 -96q24 45 70 75.5t112 30.5q43 0 74.5 -14.5t50.5 -40.5t24 -60t0 -78l-32 -303
q-5 -50 -24.5 -91t-50.5 -70.5t-71.5 -46t-88.5 -16.5q-54 0 -94 20t-66 55z" />
    <glyph glyph-name="Omacron" unicode="&#x14c;" horiz-adv-x="806" 
d="M405 -15q-80 0 -141 27t-102 73t-62.5 105.5t-21.5 124.5q0 76 29 148.5t81 128t125 89.5t162 34q79 0 140.5 -27t102.5 -73t62.5 -105.5t21.5 -124.5q0 -77 -29 -149t-81 -127.5t-125.5 -89.5t-161.5 -34zM410 47q71 0 130 28t101.5 74.5t66 106.5t23.5 124
q0 54 -17 103t-50 87t-82 60.5t-113 22.5q-71 0 -130 -28t-101 -74.5t-65.5 -106.5t-23.5 -124q0 -54 17 -103t50 -87t82 -60.5t112 -22.5zM666 800h-358l7 59h358z" />
    <glyph glyph-name="omacron" unicode="&#x14d;" horiz-adv-x="552" 
d="M276 -11q-50 0 -89 17t-66 45.5t-41.5 66.5t-14.5 81q0 51 19.5 97t53.5 81t81 55.5t103 20.5q50 0 89.5 -16.5t66.5 -45t41.5 -67t14.5 -81.5q0 -51 -19.5 -97t-54 -81t-81.5 -55.5t-103 -20.5zM282 49q40 0 74.5 15.5t59 41.5t38.5 60t14 72q0 32 -10.5 60.5t-30 49.5
t-47.5 33.5t-64 12.5q-40 0 -74 -15.5t-59 -41.5t-39 -60t-14 -72q0 -32 10 -60.5t29.5 -49.5t48 -33.5t64.5 -12.5zM516 575h-358l6 59h358z" />
    <glyph glyph-name="Obreve" unicode="&#x14e;" horiz-adv-x="806" 
d="M405 -15q-80 0 -141 27t-102 73t-62.5 105.5t-21.5 124.5q0 76 29 148.5t81 128t125 89.5t162 34q79 0 140.5 -27t102.5 -73t62.5 -105.5t21.5 -124.5q0 -77 -29 -149t-81 -127.5t-125.5 -89.5t-161.5 -34zM410 47q71 0 130 28t101.5 74.5t66 106.5t23.5 124
q0 54 -17 103t-50 87t-82 60.5t-113 22.5q-71 0 -130 -28t-101 -74.5t-65.5 -106.5t-23.5 -124q0 -54 17 -103t50 -87t82 -60.5t112 -22.5zM490 824q48 0 84.5 24.5t51.5 69.5h62q-9 -33 -28.5 -59.5t-46.5 -46t-60 -30t-69 -10.5t-66.5 10.5t-53 30t-36.5 46t-16 59.5h62
q6 -45 37 -69.5t79 -24.5z" />
    <glyph glyph-name="obreve" unicode="&#x14f;" horiz-adv-x="552" 
d="M276 -11q-50 0 -89 17t-66 45.5t-41.5 66.5t-14.5 81q0 51 19.5 97t53.5 81t81 55.5t103 20.5q50 0 89.5 -16.5t66.5 -45t41.5 -67t14.5 -81.5q0 -51 -19.5 -97t-54 -81t-81.5 -55.5t-103 -20.5zM282 49q40 0 74.5 15.5t59 41.5t38.5 60t14 72q0 32 -10.5 60.5t-30 49.5
t-47.5 33.5t-64 12.5q-40 0 -74 -15.5t-59 -41.5t-39 -60t-14 -72q0 -32 10 -60.5t29.5 -49.5t48 -33.5t64.5 -12.5zM339 606q46 0 81 24.5t50 69.5h62q-9 -33 -28.5 -59.5t-46 -46t-58.5 -30t-67 -10.5t-64.5 10.5t-51.5 30t-35.5 46t-15.5 59.5h62q6 -45 35.5 -69.5
t76.5 -24.5z" />
    <glyph glyph-name="Ohungarumlaut" unicode="&#x150;" horiz-adv-x="806" 
d="M405 -15q-80 0 -141 27t-102 73t-62.5 105.5t-21.5 124.5q0 76 29 148.5t81 128t125 89.5t162 34q79 0 140.5 -27t102.5 -73t62.5 -105.5t21.5 -124.5q0 -77 -29 -149t-81 -127.5t-125.5 -89.5t-161.5 -34zM410 47q71 0 130 28t101.5 74.5t66 106.5t23.5 124
q0 54 -17 103t-50 87t-82 60.5t-113 22.5q-71 0 -130 -28t-101 -74.5t-65.5 -106.5t-23.5 -124q0 -54 17 -103t50 -87t82 -60.5t112 -22.5zM668 949l55 -29l-164 -156l-33 19zM473 949l55 -29l-164 -156l-33 19z" />
    <glyph glyph-name="ohungarumlaut" unicode="&#x151;" horiz-adv-x="552" 
d="M276 -11q-50 0 -89 17t-66 45.5t-41.5 66.5t-14.5 81q0 51 19.5 97t53.5 81t81 55.5t103 20.5q50 0 89.5 -16.5t66.5 -45t41.5 -67t14.5 -81.5q0 -51 -19.5 -97t-54 -81t-81.5 -55.5t-103 -20.5zM282 49q40 0 74.5 15.5t59 41.5t38.5 60t14 72q0 32 -10.5 60.5t-30 49.5
t-47.5 33.5t-64 12.5q-40 0 -74 -15.5t-59 -41.5t-39 -60t-14 -72q0 -32 10 -60.5t29.5 -49.5t48 -33.5t64.5 -12.5zM323 707l56 -28l-164 -156l-34 18zM410 522l-34 19l142 166l56 -28z" />
    <glyph glyph-name="OE" unicode="&#x152;" horiz-adv-x="1152" 
d="M828 638l-28 -259h314l-6 -62h-314l-27 -255h314l-7 -62h-382l16 148q-23 -36 -54.5 -66t-70.5 -51.5t-85 -34t-97 -12.5q-78 0 -138 27.5t-101 73t-62.5 105t-21.5 124.5q0 76 29 148.5t81.5 128t126 89.5t162.5 34q53 0 96.5 -12.5t77.5 -34.5t58.5 -52t40.5 -65
l16 150h382l-6 -62h-314zM410 46q71 0 130 28t101.5 74.5t66 106.5t23.5 124q0 54 -17 103t-50 87t-82 60.5t-113 22.5q-71 0 -130 -28t-101 -74.5t-65.5 -106.5t-23.5 -124q0 -54 17 -103t50 -87t82 -60.5t112 -22.5z" />
    <glyph glyph-name="oe" unicode="&#x153;" horiz-adv-x="916" 
d="M532 207q-4 -34 2.5 -63.5t23.5 -51t44.5 -34t66.5 -12.5q56 0 89.5 24t49.5 57h67q-9 -27 -28 -52t-46.5 -44t-62 -30.5t-75.5 -11.5q-72 0 -116 32.5t-62 82.5q-32 -51 -86.5 -83t-124.5 -32q-49 0 -87.5 16.5t-65.5 45t-41.5 67t-14.5 81.5q0 51 19 97t53.5 81
t81.5 55.5t103 20.5q70 0 117.5 -31.5t69.5 -82.5q28 51 79.5 82.5t117.5 31.5q43 0 77.5 -14t59 -38.5t38 -58t13.5 -73.5q0 -19 -2.5 -32.5t-6.5 -29.5h-353zM700 397q-63 0 -107.5 -37.5t-54.5 -101.5h291q3 31 -5 57t-25 44t-42.5 28t-56.5 10zM282 49q40 0 74 15t59 41
t39 60t14 73q0 32 -10.5 60.5t-30 49.5t-47.5 33.5t-64 12.5q-40 0 -74 -15.5t-59 -41.5t-39 -60t-14 -72q0 -32 10 -60.5t29.5 -49.5t48 -33.5t64.5 -12.5z" />
    <glyph glyph-name="Racute" unicode="&#x154;" horiz-adv-x="602" 
d="M157 700h241q49 0 88.5 -17t66.5 -45.5t41.5 -66.5t14.5 -81q0 -42 -13.5 -81t-38.5 -71.5t-60 -56t-77 -34.5l131 -247h-79l-124 236h-172l-25 -236h-68zM355 298q41 0 75 15t58 41t37.5 59.5t13.5 71.5q0 31 -10 59t-29 49t-46.5 33t-62.5 12h-173l-36 -340h173z
M271 749l-26 53l264 137l25 -53z" />
    <glyph glyph-name="racute" unicode="&#x155;" horiz-adv-x="353" 
d="M388 382q-12 4 -20.5 5t-17.5 1q-42 0 -74 -15.5t-54.5 -41.5t-35.5 -60.5t-17 -73.5l-21 -197h-65l47 443h65l-11 -104q25 54 71.5 82t97.5 28q12 0 22.5 -1.5t18.5 -5.5zM140 520l-27 52l264 137l26 -52z" />
    <glyph glyph-name="Rcommaaccent" unicode="&#x156;" horiz-adv-x="602" 
d="M157 700h241q49 0 88.5 -17t66.5 -45.5t41.5 -66.5t14.5 -81q0 -42 -13.5 -81t-38.5 -71.5t-60 -56t-77 -34.5l131 -247h-79l-124 236h-172l-25 -236h-68zM218 638l-36 -340h173q41 0 75 15t58 41t37.5 59.5t13.5 71.5q0 31 -10 59t-29 49t-46.5 33t-62.5 12h-173z
M242 -71q0 22 16 37.5t40 15.5q25 0 39 -19t14 -56q0 -55 -31.5 -82.5t-85.5 -27.5l3 31q37 0 54 15t17 37q0 7 -1 8.5t-1 3.5q-9 -6 -22 -6q-20 0 -31 12.5t-11 30.5z" />
    <glyph glyph-name="rcommaaccent" unicode="&#x157;" horiz-adv-x="353" 
d="M388 382q-12 4 -20.5 5t-17.5 1q-42 0 -74 -15.5t-54.5 -41.5t-35.5 -60.5t-17 -73.5l-21 -197h-65l47 443h65l-11 -104q25 54 72 82t98 28q26 0 41 -7zM56 -71q0 22 16 37.5t40 15.5q26 0 40 -19.5t14 -54.5q0 -53 -30.5 -82t-87.5 -29l3 31q26 0 40 8.5t21 22.5
q5 11 6.5 20t1.5 14q-9 -7 -22 -7q-18 0 -30 12.5t-12 30.5z" />
    <glyph glyph-name="Rcaron" unicode="&#x158;" horiz-adv-x="602" 
d="M157 700h241q49 0 88.5 -17t66.5 -45.5t41.5 -66.5t14.5 -81q0 -42 -13.5 -81t-38.5 -71.5t-60 -56t-77 -34.5l131 -247h-79l-124 236h-172l-25 -236h-68zM355 298q41 0 75 15t58 41t37.5 59.5t13.5 71.5q0 31 -10 59t-29 49t-46.5 33t-62.5 12h-173l-36 -340h173z
M215 900l43 42l118 -119l145 120l34 -43l-187 -151z" />
    <glyph glyph-name="rcaron" unicode="&#x159;" horiz-adv-x="353" 
d="M388 382q-12 4 -20.5 5t-17.5 1q-42 0 -74 -15.5t-54.5 -41.5t-35.5 -60.5t-17 -73.5l-21 -197h-65l47 443h65l-11 -104q25 54 71.5 82t97.5 28q12 0 22.5 -1.5t18.5 -5.5zM103 683l43 42l118 -119l144 120l35 -43l-187 -151z" />
    <glyph glyph-name="Sacute" unicode="&#x15a;" horiz-adv-x="572" 
d="M138 217q-8 -80 37.5 -125t126.5 -45q38 0 70 10.5t55.5 29t36.5 45.5t13 60t-12 54.5t-32 36t-45 23.5t-52 16q-41 12 -78.5 25.5t-66.5 33.5t-46 50.5t-17 76.5t17.5 84t49 65.5t74.5 42.5t95 15t91 -15t64.5 -43t36.5 -66.5t7 -85.5h-68q3 33 -4 60t-23.5 46.5
t-43.5 30.5t-66 11q-72 0 -116.5 -37t-44.5 -97q0 -31 12 -51.5t31.5 -34.5t45 -23.5t53.5 -16.5q39 -11 76 -24.5t66.5 -34.5t47 -53t17.5 -80q0 -50 -19.5 -89.5t-54 -68t-80.5 -43.5t-100 -15q-58 0 -102 17.5t-72.5 48t-40.5 73t-7 93.5h68zM261 749l-26 53l264 137
l25 -53z" />
    <glyph glyph-name="sacute" unicode="&#x15b;" horiz-adv-x="450" 
d="M281 242q27 -7 51 -14.5t42 -19.5t28.5 -31t10.5 -48q0 -33 -13.5 -59t-37.5 -44t-57.5 -27.5t-73.5 -9.5q-39 0 -72.5 9.5t-56.5 29.5t-35 50t-7 72h64q-3 -30 4 -50t22.5 -33t37.5 -18.5t48 -5.5q54 0 84.5 21t30.5 59q0 20 -9.5 32t-27 20.5t-43 15.5t-57.5 16
q-27 7 -49.5 14.5t-39 19.5t-25.5 29.5t-9 44.5q0 34 14 59.5t38 43t56 26.5t68 9q38 0 69 -10t52 -29t31 -46.5t6 -61.5h-64q5 46 -21 70t-76 24q-47 0 -77.5 -21t-30.5 -59q0 -18 8.5 -29.5t24 -19.5t39 -14t53.5 -15zM169 510l-26 52l263 137l26 -52z" />
    <glyph glyph-name="Scircumflex" unicode="&#x15c;" horiz-adv-x="572" 
d="M138 217q-8 -80 37.5 -125t126.5 -45q38 0 70 10.5t55.5 29t36.5 45.5t13 60t-12 54.5t-32 36t-45 23.5t-52 16q-41 12 -78.5 25.5t-66.5 33.5t-46 50.5t-17 76.5t17.5 84t49 65.5t74.5 42.5t95 15t91 -15t64.5 -43t36.5 -66.5t7 -85.5h-68q3 33 -4 60t-23.5 46.5
t-43.5 30.5t-66 11q-72 0 -116.5 -37t-44.5 -97q0 -31 12 -51.5t31.5 -34.5t45 -23.5t53.5 -16.5q39 -11 76 -24.5t66.5 -34.5t47 -53t17.5 -80q0 -50 -19.5 -89.5t-54 -68t-80.5 -43.5t-100 -15q-58 0 -102 17.5t-72.5 48t-40.5 73t-7 93.5h68zM391 943l160 -151l-42 -43
l-125 121l-148 -121l-35 43z" />
    <glyph glyph-name="scircumflex" unicode="&#x15d;" horiz-adv-x="450" 
d="M281 242q27 -7 51 -14.5t42 -19.5t28.5 -31t10.5 -48q0 -33 -13.5 -59t-37.5 -44t-57.5 -27.5t-73.5 -9.5q-39 0 -72.5 9.5t-56.5 29.5t-35 50t-7 72h64q-3 -30 4 -50t22.5 -33t37.5 -18.5t48 -5.5q54 0 84.5 21t30.5 59q0 20 -9.5 32t-27 20.5t-43 15.5t-57.5 16
q-27 7 -49.5 14.5t-39 19.5t-25.5 29.5t-9 44.5q0 34 14 59.5t38 43t56 26.5t68 9q38 0 69 -10t52 -29t31 -46.5t6 -61.5h-64q5 46 -21 70t-76 24q-47 0 -77.5 -21t-30.5 -59q0 -18 8.5 -29.5t24 -19.5t39 -14t53.5 -15zM300 728l160 -150l-43 -44l-124 122l-149 -121
l-34 43z" />
    <glyph glyph-name="Scedilla" unicode="&#x15e;" horiz-adv-x="572" 
d="M255 -14q-46 5 -82.5 23.5t-61 48.5t-35.5 70t-6 89h68q-8 -81 37 -125.5t126 -44.5q38 0 70.5 10.5t56 29.5t36.5 46t13 61q0 33 -12.5 55t-33 36t-47 22.5t-54.5 16.5q-39 12 -75.5 25t-65 33.5t-45.5 51t-17 75.5t17.5 83t49 65.5t75 42.5t95.5 15t91 -15t64 -43
t36.5 -66.5t7.5 -85.5h-68q2 33 -4.5 60t-23.5 46.5t-44 30.5t-65 11q-36 0 -65.5 -9.5t-51 -27t-33 -42t-11.5 -54.5q0 -31 12 -52t32 -35t45.5 -23.5t52.5 -16.5q40 -12 77.5 -25.5t66 -34.5t46 -52.5t17.5 -79.5q0 -49 -18.5 -87.5t-51 -66t-77.5 -43t-98 -18.5l-6 -63
q18 26 53 26q31 0 53.5 -21.5t22.5 -57.5q0 -20 -7.5 -38.5t-21 -33t-33 -23.5t-42.5 -9q-15 0 -31 4.5t-29 14.5t-21.5 27t-8.5 43h43q0 -23 12.5 -37t35.5 -14q27 0 44 18.5t17 42.5q0 21 -13.5 35t-38.5 14q-11 0 -23.5 -5.5t-24.5 -26.5h-38z" />
    <glyph glyph-name="scedilla" unicode="&#x15f;" horiz-adv-x="450" 
d="M194 -8q-32 4 -58 15.5t-44.5 31t-27.5 47t-5 64.5h64q-3 -30 4.5 -50t23 -33t37.5 -18.5t48 -5.5q54 0 84 21t30 58q0 20 -9.5 32.5t-27 21t-43.5 15.5t-59 17q-26 6 -48 13.5t-38 19.5t-25 29.5t-9 44.5q0 34 14 59.5t38 43t56 26.5t67 9q38 0 69 -10t52 -29t31 -46.5
t7 -61.5h-64q5 46 -21 70t-76 24q-48 0 -78.5 -21.5t-30.5 -56.5q0 -19 9 -30.5t26 -19.5t41 -14.5t55 -15.5q27 -8 50 -16t40.5 -20t27 -30.5t9.5 -46.5q0 -33 -13 -58t-36.5 -43t-55.5 -27.5t-70 -10.5l-7 -67q9 13 23.5 19.5t31.5 6.5q30 0 52.5 -21.5t22.5 -57.5
q0 -20 -7.5 -38.5t-21 -33t-32.5 -23.5t-42 -9q-15 0 -31 4.5t-29.5 14.5t-22 27t-8.5 43h42q0 -22 13 -36.5t36 -14.5q26 0 43.5 18t17.5 43q0 21 -13 35t-38 14q-11 0 -24 -5.5t-25 -26.5h-37z" />
    <glyph glyph-name="Scaron" unicode="&#x160;" horiz-adv-x="572" 
d="M138 217q-8 -80 37.5 -125t126.5 -45q38 0 70 10.5t55.5 29t36.5 45.5t13 60t-12 54.5t-32 36t-45 23.5t-52 16q-41 12 -79 25.5t-66.5 33.5t-45.5 50.5t-17 75.5q0 46 18 84.5t49.5 66t75 42.5t95.5 15t90.5 -15.5t63.5 -43t36 -66.5t7 -85h-68q3 33 -4 60t-23.5 46.5
t-43.5 30.5t-66 11q-72 0 -116.5 -37t-44.5 -97q0 -31 12 -51.5t31.5 -34.5t45 -23.5t53.5 -16.5q39 -11 76 -24.5t66.5 -34.5t47 -53t17.5 -80q0 -50 -19.5 -89.5t-54 -68t-80.5 -43.5t-100 -15q-58 0 -102 17.5t-72.5 48t-40.5 73t-7 93.5h68zM220 905l44 43l118 -120
l145 120l34 -43l-188 -150z" />
    <glyph glyph-name="scaron" unicode="&#x161;" horiz-adv-x="450" 
d="M281 242q27 -7 51 -14.5t42 -19.5t28.5 -31t10.5 -48q0 -33 -13.5 -59t-37.5 -44t-57.5 -27.5t-73.5 -9.5q-39 0 -72.5 9.5t-56.5 29.5t-35 50t-7 72h64q-3 -30 4 -50t22.5 -33t37.5 -18.5t48 -5.5q54 0 84.5 21t30.5 59q0 20 -9.5 32t-27 20.5t-43 15.5t-57.5 16
q-27 7 -49.5 14.5t-39 19.5t-25.5 29.5t-9 44.5q0 34 14 59.5t38 43t56 26.5t68 9q38 0 69 -10t52 -29t31 -46.5t6 -61.5h-64q5 46 -21 70t-76 24q-47 0 -77.5 -21t-30.5 -59q0 -18 8.5 -29.5t24 -19.5t39 -14t53.5 -15zM126 679l44 43l118 -120l145 120l33 -43l-186 -150z
" />
    <glyph glyph-name="Tcommaaccent" unicode="&#x162;" horiz-adv-x="474" 
d="M269 638h-188l7 62h446l-7 -62h-190l-67 -638h-68zM180 -71q0 22 15.5 37.5t39.5 15.5q26 0 40 -19.5t14 -55.5q0 -56 -32.5 -83t-85.5 -27l3 31q38 0 55 16t17 36q0 9 -3 12q-8 -6 -22 -6q-19 0 -30 12.5t-11 30.5z" />
    <glyph glyph-name="tcommaaccent" unicode="&#x163;" horiz-adv-x="329" 
d="M67 443h89l17 164h66l-17 -164h128l-6 -56h-128l-24 -226q-4 -36 0 -57t14 -32t24.5 -14.5t31.5 -3.5q14 0 32.5 1.5t31.5 3.5l-7 -59q-13 -2 -34 -4t-42 -2t-44.5 4t-41.5 19.5t-28 46.5t-4 84l25 239h-89zM137 -71q0 22 16 37.5t40 15.5q25 0 39.5 -19t14.5 -56
q0 -57 -33.5 -83.5t-84.5 -26.5l3 31q26 0 40 8.5t21 22.5q5 11 6.5 20t1.5 14q-9 -7 -22 -7q-18 0 -30 12.5t-12 30.5z" />
    <glyph glyph-name="Tcaron" unicode="&#x164;" horiz-adv-x="474" 
d="M269 638h-188l7 62h446l-7 -62h-190l-67 -638h-68zM162 900l43 42l118 -119l145 120l34 -43l-187 -151z" />
    <glyph glyph-name="tcaron" unicode="&#x165;" horiz-adv-x="437" 
d="M67 443h89l17 164h66l-17 -164h128l-6 -56h-128l-24 -226q-4 -36 0 -57t14 -32t24.5 -14.5t31.5 -3.5q14 0 32.5 1.5t31.5 3.5l-7 -59q-13 -2 -34 -4t-42 -2t-44.5 4t-41.5 19.5t-28 46.5t-4 84l25 239h-89zM327 645q0 26 20 45.5t49 19.5q30 0 47.5 -23t17.5 -68
q0 -66 -39 -100t-105 -34l4 35q59 0 73 41q8 14 10 23.5t1 17.5q-10 -8 -26 -8q-23 0 -37.5 14.5t-14.5 36.5z" />
    <glyph glyph-name="Tbar" unicode="&#x166;" horiz-adv-x="474" 
d="M464 441h-148l-46 -441h-68l46 441h-142l6 52h142l15 145h-188l7 62h446l-7 -62h-190l-15 -145h148z" />
    <glyph glyph-name="tbar" unicode="&#x167;" horiz-adv-x="329" 
d="M319 0q-14 -2 -35 -4t-42 -2q-22 0 -45.5 4.5t-41.5 20t-27.5 46t-3.5 83.5l8 73h-89l5 46h89l12 120h-89l6 56h89l18 164h66l-18 -164h128l-6 -56h-128l-12 -120h113l-5 -46h-113l-6 -60q-3 -35 0.5 -56t12.5 -32.5t23.5 -15t32.5 -3.5q14 0 33 1.5t31 3.5z" />
    <glyph glyph-name="Utilde" unicode="&#x168;" horiz-adv-x="618" 
d="M146 700h68l-50 -480q-4 -35 4.5 -66.5t28 -55t49.5 -37.5t68 -14t70.5 14t57 37.5t39.5 55t19 66.5l50 480h68l-50 -480q-5 -48 -26 -90.5t-55 -74.5t-79.5 -51t-99.5 -19q-53 0 -94.5 18.5t-69.5 50.5t-40.5 74.5t-7.5 91.5zM468 845q24 0 43 16.5t29 36.5l47 -24
q-25 -42 -58.5 -61.5t-66.5 -19.5q-24 0 -41.5 8.5t-32.5 18t-28.5 18t-30.5 8.5q-24 0 -42 -16.5t-29 -36.5l-44 29q24 40 57 58t65 18q25 0 42.5 -8.5t31.5 -18t27.5 -18t30.5 -8.5z" />
    <glyph glyph-name="utilde" unicode="&#x169;" horiz-adv-x="560" 
d="M477 0h-65l10 96q-25 -48 -71 -77.5t-109 -29.5q-43 0 -75 15t-51 41t-24 60t0 78l27 260h66l-25 -241q-3 -33 1 -61t17 -48.5t35.5 -32.5t55.5 -12q38 0 67.5 14.5t50 38.5t33 54t15.5 61l24 227h65zM411 622q23 0 41.5 16t30.5 38l47 -24q-24 -42 -57 -62t-68 -20
q-24 0 -42 8.5t-32.5 18.5t-28.5 18.5t-30 8.5q-21 0 -39.5 -15t-31.5 -39l-45 29q25 40 57.5 58.5t65.5 18.5q25 0 42.5 -8.5t32 -18.5t27.5 -18.5t30 -8.5z" />
    <glyph glyph-name="Umacron" unicode="&#x16a;" horiz-adv-x="618" 
d="M146 700h68l-50 -480q-4 -35 4.5 -66.5t28 -55t49.5 -37.5t68 -14t70.5 14t57 37.5t39.5 55t19 66.5l50 480h68l-50 -480q-5 -48 -26 -90.5t-55 -74.5t-79.5 -51t-99.5 -19q-53 0 -94.5 18.5t-69.5 50.5t-40.5 74.5t-7.5 91.5zM572 800h-358l7 59h358z" />
    <glyph glyph-name="umacron" unicode="&#x16b;" horiz-adv-x="560" 
d="M477 0h-65l10 96q-25 -48 -71 -77.5t-109 -29.5q-43 0 -75 15t-51 41t-24 60t0 78l27 260h66l-25 -241q-3 -33 1 -61t17 -48.5t35.5 -32.5t55.5 -12q38 0 67.5 14.5t50 38.5t33 54t15.5 61l24 227h65zM520 575h-358l6 59h358z" />
    <glyph glyph-name="Ubreve" unicode="&#x16c;" horiz-adv-x="618" 
d="M146 700h68l-50 -480q-4 -35 4.5 -66.5t28 -55t49.5 -37.5t68 -14t70.5 14t57 37.5t39.5 55t19 66.5l50 480h68l-50 -480q-5 -48 -26 -90.5t-55 -74.5t-79.5 -51t-99.5 -19q-53 0 -94.5 18.5t-69.5 50.5t-40.5 74.5t-7.5 91.5zM392 824q48 0 84.5 24.5t51.5 69.5h62
q-9 -33 -28.5 -59.5t-47 -46t-60.5 -30t-69 -10.5t-66.5 10.5t-53 30t-36 46t-15.5 59.5h62q6 -45 36.5 -69.5t79.5 -24.5z" />
    <glyph glyph-name="ubreve" unicode="&#x16d;" horiz-adv-x="560" 
d="M477 0h-65l10 96q-25 -48 -71 -77.5t-109 -29.5q-43 0 -75 15t-51 41t-24 60t0 78l27 260h66l-25 -241q-3 -33 1 -61t17 -48.5t35.5 -32.5t55.5 -12q38 0 67.5 14.5t50 38.5t33 54t15.5 61l24 227h65zM340 606q47 0 82 24.5t50 69.5h61q-9 -33 -28 -59.5t-45 -46t-58 -30
t-67 -10.5t-65 10.5t-52 30t-35.5 46t-15.5 59.5h62q5 -45 34.5 -69.5t76.5 -24.5z" />
    <glyph glyph-name="Uring" unicode="&#x16e;" horiz-adv-x="618" 
d="M146 700h68l-50 -480q-4 -35 4.5 -66.5t28 -55t49.5 -37.5t68 -14t70.5 14t57 37.5t39.5 55t19 66.5l50 480h68l-50 -480q-5 -48 -26 -90.5t-55 -74.5t-79.5 -51t-99.5 -19q-53 0 -94.5 18.5t-69.5 50.5t-40.5 74.5t-7.5 91.5zM411 976q24 0 44.5 -9t35.5 -24t23.5 -35.5
t8.5 -43.5q0 -27 -11.5 -51.5t-30 -42.5t-43 -29t-51.5 -11q-24 0 -44.5 9t-35.5 24.5t-23.5 36t-8.5 43.5q0 27 11.5 51t30 42.5t43 29t51.5 10.5zM406 932q-17 0 -32.5 -7t-27.5 -18.5t-19 -27t-7 -32.5q0 -29 20 -50.5t51 -21.5q17 0 32.5 7t27.5 18.5t19 27t7 32.5
q0 29 -20 50.5t-51 21.5z" />
    <glyph glyph-name="uring" unicode="&#x16f;" horiz-adv-x="560" 
d="M477 0h-65l10 96q-25 -48 -71 -77.5t-109 -29.5q-43 0 -75 15t-51 41t-24 60t0 78l27 260h66l-25 -241q-3 -33 1 -61t17 -48.5t35.5 -32.5t55.5 -12q38 0 67.5 14.5t50 38.5t33 54t15.5 61l24 227h65zM354 751q25 0 46 -9.5t36.5 -25t24 -36.5t8.5 -44q0 -27 -11.5 -52
t-30.5 -44t-44.5 -30t-52.5 -11q-25 0 -46 9.5t-36 25t-23.5 36.5t-8.5 45q0 28 11.5 52.5t30.5 43t44 29.5t52 11zM351 708q-18 0 -34.5 -7t-29 -19.5t-20 -29t-7.5 -34.5q0 -31 20.5 -53t53.5 -22q18 0 34.5 7t29 19.5t20 29t7.5 34.5q0 32 -21 53.5t-53 21.5z" />
    <glyph glyph-name="Uhungarumlaut" unicode="&#x170;" horiz-adv-x="618" 
d="M146 700h68l-50 -480q-4 -35 4.5 -66.5t28 -55t49.5 -37.5t68 -14t70.5 14t57 37.5t39.5 55t19 66.5l50 480h68l-50 -480q-5 -48 -26 -90.5t-55 -74.5t-79.5 -51t-99.5 -19q-53 0 -94.5 18.5t-69.5 50.5t-40.5 74.5t-7.5 91.5zM576 949l55 -29l-164 -156l-33 19zM381 949
l55 -29l-164 -156l-33 19z" />
    <glyph glyph-name="uhungarumlaut" unicode="&#x171;" horiz-adv-x="560" 
d="M524 443l-47 -443h-65l10 96q-25 -48 -71 -77.5t-109 -29.5q-43 0 -75 15t-51 41t-24 60t0 78l27 260h66l-25 -241q-3 -33 1 -61t17 -48.5t35.5 -32.5t55.5 -12q38 0 67.5 14.5t50 38.5t33 54t15.5 61l24 227h65zM211 511l-34 19l142 166l55 -29zM406 511l-34 19l142 166
l55 -29z" />
    <glyph glyph-name="Uogonek" unicode="&#x172;" horiz-adv-x="618" 
d="M401 -197q-17 -5 -40.5 -10t-48.5 -5q-55 0 -80.5 26t-25.5 63q0 31 17.5 57t55.5 53q-47 4 -83 24.5t-59.5 52t-34 71.5t-5.5 85l50 480h68l-50 -480q-4 -35 4.5 -66.5t28 -55t49 -37.5t67.5 -14t70.5 14t57.5 37.5t40 55t19 66.5l50 480h68l-50 -480q-5 -46 -24.5 -87
t-51.5 -72.5t-74.5 -51.5t-93.5 -23q-25 -20 -39.5 -42t-14.5 -46t15.5 -41.5t49.5 -17.5q16 0 35.5 4t35.5 10z" />
    <glyph glyph-name="uogonek" unicode="&#x173;" horiz-adv-x="560" 
d="M242 -11q-43 0 -75 15t-51 41t-24 60t0 78l27 260h66l-25 -241q-3 -33 1 -61t17 -48.5t35.5 -32.5t55.5 -12q38 0 67.5 14.5t50 38.5t33 54t15.5 61l24 227h65l-47 -443h-14q-45 -20 -73 -46t-28 -61q0 -23 14.5 -38.5t43.5 -15.5q14 0 32 3.5t32 8.5l-7 -50
q-15 -5 -36.5 -9t-44.5 -4q-53 0 -78 24.5t-25 60.5q0 41 30 71t90 59l9 93q-25 -48 -71 -77.5t-109 -29.5z" />
    <glyph glyph-name="Wcircumflex" unicode="&#x174;" horiz-adv-x="946" 
d="M535 584l-239 -584h-53l-163 700h72l129 -585l239 585h54l116 -585l252 585h72l-311 -700h-53zM574 943l159 -151l-43 -43l-124 121l-149 -121l-34 43z" />
    <glyph glyph-name="wcircumflex" unicode="&#x175;" horiz-adv-x="715" 
d="M396 370l-170 -370h-47l-124 443h70l88 -344l159 344h65l86 -344l161 344h70l-218 -443h-47zM435 728l160 -150l-42 -44l-125 122l-148 -121l-35 43z" />
    <glyph glyph-name="Ycircumflex" unicode="&#x176;" 
d="M209 0h-75l171 277l-222 423h79l185 -353l218 353h75zM402 943l159 -151l-43 -43l-124 121l-149 -121l-34 43z" />
    <glyph glyph-name="ycircumflex" unicode="&#x177;" horiz-adv-x="568" 
d="M256 -267q-205 0 -188 202h66q-4 -76 28 -111t101 -35q32 0 58.5 8t46 27t32 49t17.5 75l16 148q-24 -45 -68 -76t-114 -31q-86 0 -126 54q-17 23 -22.5 56t0.5 89l27 255h66l-25 -236q-8 -72 15 -115.5t91 -43.5q40 0 70 14.5t51 38.5t33 54t15 61l24 227h64l-52 -495
q-12 -114 -69.5 -164.5t-156.5 -50.5zM361 728l160 -150l-43 -44l-124 122l-149 -121l-34 43z" />
    <glyph glyph-name="Ydieresis" unicode="&#x178;" 
d="M209 0h-75l171 277l-222 423h79l185 -353l218 353h75zM447 826q0 26 19 45t45 19q23 0 37.5 -15.5t14.5 -37.5q0 -26 -19 -44.5t-45 -18.5q-23 0 -37.5 15t-14.5 37zM217 826q0 26 19 45t45 19q23 0 37.5 -15.5t14.5 -37.5q0 -26 -19 -44.5t-45 -18.5q-23 0 -37.5 15
t-14.5 37z" />
    <glyph glyph-name="Zacute" unicode="&#x179;" horiz-adv-x="552" 
d="M110 700h509l-481 -638h423l-7 -62h-539l481 638h-393zM259 753l-26 52l263 137l27 -52z" />
    <glyph glyph-name="zacute" unicode="&#x17a;" horiz-adv-x="431" 
d="M451 443l-306 -384h266l-6 -59h-379l305 384h-255l7 59h368zM160 509l-26 52l263 137l27 -52z" />
    <glyph glyph-name="Zdotaccent" unicode="&#x17b;" horiz-adv-x="552" 
d="M110 700h509l-481 -638h423l-7 -62h-539l481 638h-393zM307 831q0 27 19.5 46.5t45.5 19.5q24 0 39.5 -16t15.5 -39q0 -27 -20 -46t-47 -19q-23 0 -38 15.5t-15 38.5z" />
    <glyph glyph-name="zdotaccent" unicode="&#x17c;" horiz-adv-x="431" 
d="M451 443l-306 -384h266l-6 -59h-379l305 384h-255l7 59h368zM219 599q0 27 20 46.5t46 19.5q24 0 39 -16t15 -39q0 -27 -19.5 -46t-46.5 -19q-24 0 -39 15.5t-15 38.5z" />
    <glyph glyph-name="Zcaron" unicode="&#x17d;" horiz-adv-x="552" 
d="M222 900l43 42l118 -119l145 120l34 -43l-187 -151zM110 700h509l-481 -638h423l-7 -62h-539l481 638h-393z" />
    <glyph glyph-name="zcaron" unicode="&#x17e;" horiz-adv-x="431" 
d="M123 673l43 42l119 -120l144 120l34 -42l-187 -151zM451 443l-306 -384h266l-6 -59h-379l305 384h-255l7 59h368z" />
    <glyph glyph-name="longs" unicode="&#x17f;" horiz-adv-x="335" 
d="M393 638q-11 5 -23 7t-30 2q-15 0 -30 -2.5t-28 -12.5t-23 -30t-13 -54l-58 -548h-65l41 387h-101l6 56h101l10 99q6 55 23 87.5t39.5 49.5t48 22t47.5 5q23 0 37 -3.5t24 -8.5z" />
    <glyph glyph-name="florin" unicode="&#x192;" horiz-adv-x="412" 
d="M-73 -167q11 -5 22.5 -7t28.5 -2q15 0 30.5 3t30 13t27.5 29.5t24 53.5l131 464h-101l16 56h100l29 99q15 57 39 89.5t50 49t51 21t44 4.5q25 0 38.5 -3.5t22.5 -8.5l-14 -56q-12 5 -23.5 7t-28.5 2q-15 0 -30.5 -2.5t-30.5 -12.5t-28.5 -30t-23.5 -54l-30 -105h139
l-16 -56h-138l-128 -458q-15 -54 -38 -86.5t-48.5 -50t-51.5 -22.5t-49 -5t-36.5 3t-23.5 8z" />
    <glyph glyph-name="Aringacute" unicode="&#x1fa;" horiz-adv-x="546" 
d="M420 758q0 -23 -13 -41t-32 -26l165 -691h-72l-30 125h-304l-56 -125h-72l311 690q-16 7 -25 22t-9 34q0 30 22.5 52t52.5 22q27 0 44.5 -18t17.5 -44zM162 187h262l-89 404zM355 788q-16 0 -28 -11.5t-12 -28.5q0 -13 8.5 -23t23.5 -10q17 0 28.5 12t11.5 28
q0 14 -8.5 23.5t-23.5 9.5zM235 787l-19 35l264 137l18 -35z" />
    <glyph glyph-name="aringacute" unicode="&#x1fb;" horiz-adv-x="592" 
d="M491 443h65l-47 -443h-65l10 93q-26 -45 -74.5 -74.5t-111.5 -29.5q-46 0 -83.5 17t-64 45.5t-41 67t-14.5 81.5q0 51 19.5 96.5t53.5 80.5t80 55.5t99 20.5q66 0 106.5 -29.5t57.5 -74.5zM316 394q-40 0 -74 -15.5t-59 -41.5t-39 -60t-14 -72q0 -32 10 -60.5t29.5 -49.5
t47.5 -33.5t64 -12.5q38 0 70.5 14t57 37.5t40 54.5t18.5 66q2 36 -7.5 67.5t-29 55t-48.5 37t-66 13.5zM405 616q0 27 -18 46t-47 19q-32 0 -55.5 -22.5t-23.5 -54.5q0 -27 18 -46.5t47 -19.5q31 0 55 23t24 55zM223 600q0 24 10 46t27 38t38.5 25.5t45.5 9.5q21 0 39.5 -8
t31.5 -21.5t20.5 -31.5t7.5 -39q0 -24 -10 -45.5t-26.5 -38t-38.5 -26t-46 -9.5q-21 0 -39.5 8t-31.5 21.5t-20.5 31.5t-7.5 39zM204 774l263 137l26 -52l-263 -137z" />
    <glyph glyph-name="AEacute" unicode="&#x1fc;" horiz-adv-x="847" 
d="M520 638l-27 -259h314l-7 -62h-314l-26 -255h314l-7 -62h-382l13 125h-246l-75 -125h-75l424 700h415l-7 -62h-314zM405 188l46 436l-262 -436h216zM487 749l-26 53l264 137l25 -53z" />
    <glyph glyph-name="aeacute" unicode="&#x1fd;" horiz-adv-x="916" 
d="M556 443l-7 -61q27 32 67.5 51.5t90.5 19.5q41 0 75.5 -13.5t59 -38t38.5 -58.5t14 -74q0 -19 -2.5 -32.5t-6.5 -29.5h-353q-4 -34 2.5 -63.5t23 -51t44 -34t66.5 -12.5q57 0 90.5 24t49.5 57h67q-9 -27 -28 -51.5t-46 -44t-61.5 -31t-75.5 -11.5q-53 0 -90 19.5
t-58 54.5l-7 -63h-65l10 93q-26 -45 -74.5 -74.5t-111.5 -29.5q-46 0 -83.5 17t-64 45.5t-41 67t-14.5 81.5q0 51 19.5 96.5t53.5 80.5t80 55.5t99 20.5q66 0 106.5 -29.5t57.5 -74.5l10 94h65zM700 397q-63 0 -107.5 -37.5t-54.5 -101.5h291q3 31 -5 57t-25 44t-42.5 28
t-56.5 10zM282 49q40 0 74.5 15.5t59 41.5t38.5 60t14 72q0 32 -10.5 60.5t-30 49.5t-47.5 33.5t-64 12.5q-40 0 -74 -15.5t-59 -41.5t-39 -60t-14 -72q0 -32 10 -60.5t29.5 -49.5t48 -33.5t64.5 -12.5zM402 501l-26 52l264 137l25 -52z" />
    <glyph glyph-name="Oslashacute" unicode="&#x1fe;" horiz-adv-x="806" 
d="M402 -15q-69 0 -124 21l-43 -81l-46 20l43 82q-38 21 -66.5 52t-48 68.5t-29.5 80.5t-10 87q0 76 28.5 148.5t81 128t126.5 89.5t164 34q61 0 112 -17l41 75l44 -21l-38 -74q40 -20 71 -51.5t52 -70t31.5 -82.5t10.5 -90q0 -76 -29 -148t-81.5 -127.5t-126 -89.5
t-163.5 -34zM149 322q0 -36 7.5 -70t22.5 -64.5t36.5 -56t49.5 -43.5l294 551q-40 14 -89 14q-72 0 -131 -28t-101.5 -74.5t-65.5 -106t-23 -122.5zM731 378q0 75 -32.5 140t-95.5 100l-294 -553q43 -18 99 -18q72 0 131.5 28t102 74.5t66 106t23.5 122.5zM373 749l-26 52
l263 137l27 -52z" />
    <glyph glyph-name="oslashacute" unicode="&#x1ff;" horiz-adv-x="552" 
d="M426 429q52 -25 80 -75.5t28 -111.5q0 -50 -19 -96t-53.5 -81t-82 -55.5t-104.5 -20.5q-23 0 -42 3.5t-36 9.5l-37 -70l-41 18l37 71q-44 27 -67.5 74.5t-23.5 103.5q0 51 19.5 97t53.5 81t81 55.5t102 20.5q18 0 34 -2t31 -6l34 64l41 -17zM278 49q43 0 78 15.5t60 41
t38.5 59.5t13.5 72q0 44 -18.5 79.5t-53.5 55.5l-169 -315q12 -5 25 -6.5t26 -1.5zM130 205q0 -39 15 -73t43 -54l167 311q-10 2 -18.5 3.5t-20.5 1.5q-40 0 -74 -15.5t-59 -41.5t-39 -60t-14 -72zM220 510l-26 52l264 137l25 -52z" />
    <glyph glyph-name="Scommaaccent" unicode="&#x218;" horiz-adv-x="572" 
d="M138 217q-8 -80 37.5 -125t126.5 -45q38 0 70 10.5t55.5 29t36.5 45.5t13 60t-12 54.5t-32 36t-45 23.5t-52 16q-41 12 -78.5 25.5t-66.5 33.5t-46 50.5t-17 76.5t17.5 84t49 65.5t74.5 42.5t95 15t91 -15t64.5 -43t36.5 -66.5t7 -85.5h-68q3 33 -4 60t-23.5 46.5
t-43.5 30.5t-66 11q-72 0 -116.5 -37t-44.5 -97q0 -31 12 -51.5t31.5 -34.5t45 -23.5t53.5 -16.5q39 -11 76 -24.5t66.5 -34.5t47 -53t17.5 -80q0 -50 -19.5 -89.5t-54 -68t-80.5 -43.5t-100 -15q-58 0 -102 17.5t-72.5 48t-40.5 73t-7 93.5h68zM237 -82q0 22 16 37.5
t40 15.5q25 0 39 -19.5t14 -55.5q0 -53 -31 -81.5t-87 -28.5l3 31q37 0 54.5 15.5t17.5 37.5q0 6 -1 8l-2 4q-9 -7 -22 -7q-18 0 -29.5 12.5t-11.5 30.5z" />
    <glyph glyph-name="scommaaccent" unicode="&#x219;" horiz-adv-x="450" 
d="M174 -68q0 22 15.5 37.5t39.5 15.5q26 0 40.5 -19.5t14.5 -55.5q0 -57 -34 -83.5t-85 -26.5l3 31q48 0 60 31q6 11 7.5 19.5t1.5 14.5q-9 -7 -22 -7q-18 0 -29.5 12.5t-11.5 30.5zM124 150q-3 -30 4 -50t22.5 -33t37.5 -18.5t48 -5.5q54 0 84.5 21t30.5 59q0 20 -9.5 32
t-27 20.5t-43 15.5t-57.5 16q-27 7 -49.5 14.5t-39 19.5t-25.5 29.5t-9 44.5q0 34 14 59.5t38 43t56 26.5t68 9q38 0 69 -10t52 -29t31 -46.5t6 -61.5h-64q5 46 -21 70t-76 24q-47 0 -77.5 -21t-30.5 -59q0 -18 8.5 -29.5t24 -19.5t39 -14t53.5 -15q27 -7 51 -14.5t42 -19.5
t28.5 -31t10.5 -48q0 -33 -13.5 -59t-37.5 -44t-57.5 -27.5t-73.5 -9.5q-39 0 -72.5 9.5t-56.5 29.5t-35 50t-7 72h64z" />
    <glyph glyph-name="uni021A" unicode="&#x21a;" horiz-adv-x="474" 
d="M269 638h-188l7 62h446l-7 -62h-190l-67 -638h-68zM180 -71q0 22 15.5 37.5t39.5 15.5q26 0 40 -19.5t14 -55.5q0 -56 -32.5 -83t-85.5 -27l3 31q38 0 55 16t17 36q0 9 -3 12q-8 -6 -22 -6q-19 0 -30 12.5t-11 30.5z" />
    <glyph glyph-name="uni021B" unicode="&#x21b;" horiz-adv-x="329" 
d="M67 443h89l17 164h66l-17 -164h128l-6 -56h-128l-24 -226q-4 -36 0 -57t14 -32t24.5 -14.5t31.5 -3.5q14 0 32.5 1.5t31.5 3.5l-7 -59q-13 -2 -34 -4t-42 -2t-44.5 4t-41.5 19.5t-28 46.5t-4 84l25 239h-89zM137 -71q0 22 16 37.5t40 15.5q25 0 39.5 -19t14.5 -56
q0 -57 -33.5 -83.5t-84.5 -26.5l3 31q26 0 40 8.5t21 22.5q5 11 6.5 20t1.5 14q-9 -7 -22 -7q-18 0 -30 12.5t-12 30.5z" />
    <glyph glyph-name="hsuperior" unicode="&#x2b0;" horiz-adv-x="377" 
d="M145 700h51l-19 -186q13 24 38 40.5t61 16.5q26 0 42 -8t25 -20q20 -26 14 -81l-15 -147h-51l14 134q4 36 -9.5 56.5t-44.5 20.5q-19 0 -33.5 -7.5t-25 -19.5t-16.5 -27t-7 -30l-13 -127h-51z" />
    <glyph glyph-name="jsuperior" unicode="&#x2b2;" horiz-adv-x="211" 
d="M159 253q-5 -43 -24.5 -60.5t-48.5 -17.5q-24 0 -43 7l4 41q8 -2 13.5 -3.5t11.5 -1.5q31 0 36 38l32 309h52zM136 654q0 17 13 30t31 13q16 0 26 -10.5t10 -25.5q0 -17 -13.5 -30t-30.5 -13q-16 0 -26 10.5t-10 25.5z" />
    <glyph glyph-name="wsuperior" unicode="&#x2b7;" horiz-adv-x="470" 
d="M288 506l-85 -191h-42l-69 250h54l44 -182l79 182h49l41 -182l83 182h54l-121 -250h-42z" />
    <glyph glyph-name="ysuperior" unicode="&#x2b8;" horiz-adv-x="383" 
d="M210 174q-60 0 -88.5 26.5t-23.5 84.5h52q-2 -33 11.5 -51.5t51.5 -18.5q35 0 54.5 19t24.5 65l7 69q-13 -24 -38 -40.5t-62 -16.5q-22 0 -40 7t-29 22q-11 14 -13 33.5t1 49.5l15 142h52l-14 -131q-4 -36 7 -58t46 -22q38 0 58 25t24 60l13 126h53l-28 -264
q-8 -70 -41 -98.5t-93 -28.5z" />
    <glyph glyph-name="circumflex" unicode="&#x2c6;" horiz-adv-x="446" 
d="M310 842l165 -145l-46 -46l-127 112l-151 -112l-36 46z" />
    <glyph glyph-name="caron" unicode="&#x2c7;" horiz-adv-x="402" 
d="M120 749l41 46l111 -114l137 114l31 -46l-176 -145z" />
    <glyph glyph-name="breve" unicode="&#x2d8;" horiz-adv-x="520" 
d="M208 846q7 -47 42 -72t88 -25t94.5 25t56.5 72h56q-8 -33 -28 -60t-48.5 -46t-63.5 -29.5t-72 -10.5t-69.5 10.5t-56.5 30t-39 46t-17 59.5h57z" />
    <glyph glyph-name="dotaccent" unicode="&#x2d9;" horiz-adv-x="382" 
d="M199 642q0 26 20 45.5t46 19.5q23 0 38.5 -16t15.5 -39q0 -26 -20 -45.5t-46 -19.5q-23 0 -38.5 16t-15.5 39z" />
    <glyph glyph-name="ring" unicode="&#x2da;" horiz-adv-x="452" 
d="M313 835q24 0 44.5 -9t35.5 -24t23 -35.5t8 -43.5q0 -27 -11 -51.5t-30 -42.5t-43 -29t-51 -11q-24 0 -44.5 9t-35.5 24.5t-23.5 36t-8.5 43.5q0 27 11.5 51t30 42.5t43 29t51.5 10.5zM308 786q-16 0 -30.5 -6.5t-26 -17.5t-18 -25.5t-6.5 -30.5q0 -27 19 -46.5t48 -19.5
q16 0 30.5 6.5t25.5 17t17.5 25t6.5 30.5q0 27 -18.5 47t-47.5 20z" />
    <glyph glyph-name="ogonek" unicode="&#x2db;" horiz-adv-x="410" 
d="M294 -197q-17 -5 -40.5 -10t-47.5 -5q-55 0 -81 26t-26 63t24 65.5t69 57.5h47q-32 -22 -53.5 -47.5t-21.5 -54.5q0 -24 16 -41.5t49 -17.5q16 0 36 4t35 10z" />
    <glyph glyph-name="tilde" unicode="&#x2dc;" horiz-adv-x="469" 
d="M137 662q24 14 41 22t29.5 11.5t21 4t15.5 0.5q11 0 30 -4t39.5 -9.5t40.5 -9.5t34 -4q5 0 11 1t14.5 4t21 8t30.5 14l22 -44q-41 -26 -64 -31.5t-35 -5.5q-18 0 -37 4t-38 9t-36.5 9t-33.5 4q-14 0 -32 -5t-49 -22z" />
    <glyph glyph-name="hungarumlaut" unicode="&#x2dd;" horiz-adv-x="459" 
d="M455 734l55 -29l-164 -156l-33 19zM260 734l55 -29l-164 -156l-33 19z" />
    <glyph glyph-name="xsuperior" unicode="&#x2e3;" horiz-adv-x="318" 
d="M312 315h-60l-51 89l-68 -89h-61l102 126l-75 124h61l49 -88l68 88h61l-102 -124z" />
    <glyph glyph-name="Delta" unicode="&#x394;" horiz-adv-x="546" 
d="M108 62h344l-117 529zM540 0h-534l315 700h52z" />
    <glyph glyph-name="Omega" unicode="&#x3a9;" horiz-adv-x="720" 
d="M427 650q-63 0 -113 -22t-85.5 -59.5t-54 -87t-18.5 -104.5q0 -44 12 -83.5t35 -71t57.5 -53.5t78.5 -30l-15 -139h-255l7 62h200l4 38q-47 14 -83 41t-60.5 63t-37.5 79t-13 91q0 67 25 128.5t70.5 108t109.5 74t141 27.5q69 0 122 -22t89 -60t55 -88.5t19 -108.5
q0 -59 -19 -113t-53 -97.5t-81 -75.5t-103 -48l-3 -37h200l-7 -62h-255l15 139q55 10 99 37.5t75 66.5t47.5 87t16.5 99q0 46 -14 86.5t-42 70.5t-69.5 47t-96.5 17z" />
    <glyph glyph-name="mu" unicode="&#x3bc;" 
d="M129 443h65l-25 -241q-3 -33 1 -61t17 -48.5t36 -32.5t56 -12q38 0 67.5 14.5t50 38.5t33 54t15.5 61l24 227h65l-47 -443h-65l10 96q-23 -45 -69.5 -76t-108.5 -31q-71 0 -102 47l-31 -293h-66z" />
    <glyph glyph-name="pi" unicode="&#x3c0;" 
d="M546 384h-55l-40 -384h-65l40 384h-202l-40 -384h-65l40 384h-56l6 59h443z" />
    <glyph glyph-name="uni0401" unicode="&#x401;" horiz-adv-x="543" 
d="M218 638l-27 -259h314l-7 -62h-314l-26 -255h314l-7 -62h-382l74 700h382l-7 -62h-314zM415 826q0 27 20 46.5t46 19.5q24 0 39.5 -16t15.5 -39q0 -28 -20.5 -46.5t-46.5 -18.5q-24 0 -39 15.5t-15 38.5zM185 826q0 27 20 46.5t46 19.5q24 0 39.5 -16t15.5 -39
q0 -28 -20.5 -46.5t-46.5 -18.5q-24 0 -39 15.5t-15 38.5z" />
    <glyph glyph-name="uni0402" unicode="&#x402;" horiz-adv-x="678" 
d="M599 -135q-6 -59 -40.5 -94t-106.5 -35q-23 0 -33.5 2.5t-17.5 3.5l7 64q7 -4 25.5 -6t28.5 -2q30 0 47.5 19.5t21.5 54.5l39 369q3 33 -1 61t-17.5 48.5t-36.5 32.5t-56 12q-38 0 -67 -14.5t-49.5 -38.5t-33 -54t-15.5 -61l-24 -227h-68l67 638h-188l7 62h446l-7 -62
h-190l-31 -291q25 45 71 75.5t112 30.5q43 0 75 -14.5t51 -40.5q17 -23 23.5 -56.5t1.5 -81.5z" />
    <glyph glyph-name="uni0403" unicode="&#x403;" horiz-adv-x="474" 
d="M256 740l-27 52l264 137l26 -52zM157 700h382l-7 -62h-314l-67 -638h-68z" />
    <glyph glyph-name="uni0404" unicode="&#x404;" horiz-adv-x="755" 
d="M734 206q-17 -46 -47.5 -86t-74 -70t-98 -47.5t-118.5 -17.5q-80 0 -139.5 26.5t-99.5 72t-60 105t-20 125.5q0 76 26 148t76 128t123 90.5t167 34.5q67 0 119.5 -18t89.5 -49.5t58.5 -74.5t26.5 -93h-74q-4 37 -21 68.5t-46 55t-69 36.5t-90 13q-66 0 -119 -22.5
t-92 -60t-63 -87t-33 -103.5h375l-7 -63h-375q-2 -53 13 -102t46.5 -86.5t80 -59.5t113.5 -22q48 0 89 12.5t74 34t57 50.5t38 62h74z" />
    <glyph glyph-name="uni0405" unicode="&#x405;" horiz-adv-x="572" 
d="M138 217q-8 -80 37.5 -125t126.5 -45q38 0 70 10.5t55.5 29t36.5 45.5t13 60t-12 54.5t-32 36t-45 23.5t-52 16q-41 12 -78.5 25.5t-66.5 33.5t-46 50.5t-17 76.5t17.5 84t49 65.5t74.5 42.5t95 15t91 -15t64.5 -43t36.5 -66.5t7 -85.5h-68q3 33 -4 60t-23.5 46.5
t-43.5 30.5t-66 11q-72 0 -116.5 -37t-44.5 -97q0 -31 12 -51.5t31.5 -34.5t45 -23.5t53.5 -16.5q39 -11 76 -24.5t66.5 -34.5t47 -53t17.5 -80q0 -50 -19.5 -89.5t-54 -68t-80.5 -43.5t-100 -15q-58 0 -102 17.5t-72.5 48t-40.5 73t-7 93.5h68z" />
    <glyph glyph-name="uni0406" unicode="&#x406;" horiz-adv-x="236" 
d="M157 700h70l-74 -700h-70z" />
    <glyph glyph-name="uni0407" unicode="&#x407;" horiz-adv-x="236" 
d="M251 826q0 27 19.5 46.5t46.5 19.5q23 0 38.5 -16t15.5 -39q0 -27 -20 -46t-47 -19q-23 0 -38 15.5t-15 38.5zM41 826q0 27 19.5 46.5t46.5 19.5q24 0 39.5 -16t15.5 -39q0 -27 -20.5 -46t-46.5 -19q-24 0 -39 15.5t-15 38.5zM157 700h70l-74 -700h-70z" />
    <glyph glyph-name="uni0408" unicode="&#x408;" horiz-adv-x="536" 
d="M485 216q-5 -51 -25 -93.5t-52 -73t-74.5 -47.5t-92.5 -17t-90 17t-67 47.5t-39 73.5t-7 94h68q-4 -41 5 -72.5t28.5 -53t47.5 -33t61 -11.5q69 0 114.5 45.5t53.5 123.5l51 484h69z" />
    <glyph glyph-name="uni0409" unicode="&#x409;" horiz-adv-x="960" 
d="M739 62q28 0 53.5 11.5t45 32t30.5 47.5t11 57q0 25 -8 47.5t-22 39t-34.5 26t-44.5 9.5h-162l-28 -270h159zM572 638h-316l-55 -525q-7 -67 -44.5 -96t-88.5 -29h-59l7 62h43q32 0 50.5 15t23.5 57l61 578h453l-32 -307h162q38 0 69.5 -13.5t54 -37.5t34.5 -56.5
t12 -69.5q0 -44 -16.5 -83t-46 -68.5t-68.5 -47t-84 -17.5h-227z" />
    <glyph glyph-name="uni040A" unicode="&#x40a;" horiz-adv-x="967" 
d="M621 393h162q38 0 69.5 -14t54 -38t35 -56.5t12.5 -69.5q0 -44 -16.5 -83t-46 -68t-68.5 -46.5t-84 -17.5h-228l35 331h-360l-35 -331h-68l74 700h68l-33 -307h360l33 307h69zM615 332l-28 -270h159q28 0 53.5 11.5t45 32t30.5 47.5t11 57q0 25 -8 47.5t-22.5 39
t-34.5 26t-44 9.5h-162z" />
    <glyph glyph-name="uni040B" unicode="&#x40b;" horiz-adv-x="687" 
d="M337 638l-31 -291q25 45 71 75.5t112 30.5q43 0 75 -14.5t51 -40.5q17 -23 23.5 -56.5t1.5 -81.5l-27 -260h-68l25 241q3 33 -1 61t-17.5 48.5t-36.5 32.5t-56 12q-38 0 -67 -14.5t-49.5 -38.5t-33 -54t-15.5 -61l-24 -227h-68l67 638h-188l7 62h446l-7 -62h-190z" />
    <glyph glyph-name="uni040C" unicode="&#x40c;" horiz-adv-x="582" 
d="M193 399h22q34 0 69.5 16t70.5 67l82 118q32 46 68.5 74.5t87.5 28.5h44l-7 -63h-33q-33 0 -58 -16.5t-51 -55.5l-76 -111q-32 -48 -72 -69t-85 -26l309 -362h-90l-287 342l-36 -342h-68l74 700h68zM274 740l-27 52l264 137l26 -52z" />
    <glyph glyph-name="uni040E" unicode="&#x40e;" 
d="M377 824q49 0 85 24.5t51 69.5h62q-9 -33 -28.5 -59.5t-46.5 -46t-59.5 -30t-68.5 -10.5t-66.5 10.5t-53.5 30t-37 46t-16 59.5h62q6 -45 37 -69.5t79 -24.5zM209 0h-75l171 277l-222 423h79l185 -353l218 353h75z" />
    <glyph glyph-name="uni040F" unicode="&#x40f;" horiz-adv-x="634" 
d="M275 -103l11 103h-203l74 700h68l-67 -638h332l67 638h68l-74 -700h-203l-11 -103h-62z" />
    <glyph glyph-name="uni0410" unicode="&#x410;" horiz-adv-x="546" 
d="M468 0l-30 125h-304l-56 -125h-72l315 700h52l167 -700h-72zM335 591l-173 -404h262z" />
    <glyph glyph-name="uni0411" unicode="&#x411;" horiz-adv-x="576" 
d="M542 638h-324l-26 -245h187q38 0 69.5 -13.5t54 -37.5t35 -56.5t12.5 -69.5q0 -44 -16.5 -83t-46 -68.5t-68.5 -47t-84 -17.5h-252l74 700h392zM186 332l-28 -270h184q28 0 53.5 11.5t44.5 32t30 47.5t11 57q0 25 -8 47.5t-22 39t-34 26t-44 9.5h-187z" />
    <glyph glyph-name="uni0412" unicode="&#x412;" horiz-adv-x="583" 
d="M157 700h239q50 0 85 -15t56.5 -39t31 -53.5t9.5 -59.5q0 -36 -12 -66.5t-32 -53.5t-46 -38.5t-54 -21.5q20 -2 40.5 -13.5t37 -31t27 -45.5t10.5 -58q0 -34 -13.5 -70t-41 -66t-70.5 -49.5t-102 -19.5h-239zM185 321l-27 -259h174q37 0 64.5 12.5t46 32.5t28 44.5
t9.5 49.5q0 21 -7 42.5t-22 39t-37 28t-52 10.5h-177zM365 383q36 0 63 13t45 33t27 45t9 49q0 21 -7 41.5t-21.5 37t-37.5 26.5t-54 10h-171l-27 -255h174z" />
    <glyph glyph-name="uni0413" unicode="&#x413;" horiz-adv-x="474" 
d="M157 700h382l-7 -62h-314l-67 -638h-68z" />
    <glyph glyph-name="uni0414" unicode="&#x414;" horiz-adv-x="689" 
d="M1 -103l17 165h12q42 0 81 16t68 55q21 28 36 70t22 106l41 391h382l-67 -638h67l-17 -165h-62l11 103h-517l-11 -103h-63zM524 62l61 576h-246l-28 -268q-6 -61 -16.5 -112.5t-28 -91t-42.5 -66t-60 -38.5h360z" />
    <glyph glyph-name="uni0415" unicode="&#x415;" horiz-adv-x="543" 
d="M218 638l-27 -259h314l-7 -62h-314l-26 -255h314l-7 -62h-382l74 700h382l-7 -62h-314z" />
    <glyph glyph-name="uni0416" unicode="&#x416;" horiz-adv-x="865" 
d="M97 0h-88l359 356q-93 10 -128 100l-42 105q-16 40 -36 59.5t-52 19.5h-32l7 63h40q50 0 79.5 -30.5t49.5 -79.5l49 -118q20 -50 47.5 -69.5t67.5 -19.5h23l33 314h65l-33 -314h23q40 0 71 19.5t62 69.5l73 118q30 49 66.5 79.5t87.5 30.5h39l-7 -63h-32q-32 0 -56 -19.5
t-48 -59.5l-64 -105q-28 -46 -64.5 -70.5t-84.5 -29.5l284 -356h-88l-267 343l-36 -343h-65l36 343z" />
    <glyph glyph-name="uni0417" unicode="&#x417;" horiz-adv-x="560" 
d="M132 208q-4 -36 6 -65.5t30 -50t50 -31.5t67 -11q39 0 71 12t55 33t35.5 50t12.5 62q0 56 -37 89.5t-114 33.5h-50l7 61h50q41 0 72.5 11.5t52.5 31t31.5 45t10.5 53.5q0 51 -35.5 84.5t-102.5 33.5q-35 0 -65.5 -9.5t-54 -27.5t-38.5 -44t-18 -59h-68q5 45 26 82
t54.5 64t77.5 41.5t95 14.5q44 0 80.5 -11t62.5 -32.5t40.5 -52.5t14.5 -71q0 -35 -11 -65t-30.5 -53.5t-46.5 -39.5t-60 -22q59 -10 91.5 -51.5t32.5 -104.5q0 -48 -19 -89t-52.5 -70t-79.5 -45.5t-100 -16.5q-52 0 -93.5 15t-69.5 43.5t-41 69.5t-8 92h68z" />
    <glyph glyph-name="uni0418" unicode="&#x418;" horiz-adv-x="662" 
d="M568 553l-412 -507l-5 -46h-68l74 700h68l-59 -553l413 507l5 46h69l-74 -700h-69z" />
    <glyph glyph-name="uni0419" unicode="&#x419;" horiz-adv-x="662" 
d="M568 553l-412 -507l-5 -46h-68l74 700h68l-59 -553l413 507l5 46h69l-74 -700h-69zM425 824q48 0 84 24.5t51 69.5h62q-9 -33 -28.5 -59.5t-46.5 -46t-60 -30t-69 -10.5t-66.5 10.5t-53 30t-36.5 46t-16 59.5h62q6 -45 37.5 -69.5t79.5 -24.5z" />
    <glyph glyph-name="uni041A" unicode="&#x41a;" horiz-adv-x="582" 
d="M193 399h22q34 0 69.5 16t70.5 67l82 118q32 46 68.5 74.5t87.5 28.5h44l-7 -63h-33q-33 0 -58 -16.5t-51 -55.5l-76 -111q-32 -48 -72 -69t-85 -26l309 -362h-90l-287 342l-36 -342h-68l74 700h68z" />
    <glyph glyph-name="uni041B" unicode="&#x41b;" horiz-adv-x="682" 
d="M16 50h36q35 0 56 17t26 65l60 568h479l-74 -700h-68l67 638h-342l-54 -516q-8 -73 -47 -103.5t-95 -30.5h-51z" />
    <glyph glyph-name="uni041C" unicode="&#x41c;" horiz-adv-x="810" 
d="M727 0h-68l57 541l-284 -541h-54l-170 541l-57 -541h-68l74 700h66l193 -597l319 597h66z" />
    <glyph glyph-name="uni041D" unicode="&#x41d;" horiz-adv-x="663" 
d="M544 317h-360l-33 -317h-68l74 700h68l-34 -321h360l34 321h69l-74 -700h-69z" />
    <glyph glyph-name="uni041E" unicode="&#x41e;" horiz-adv-x="806" 
d="M405 -15q-80 0 -141 27t-102 73t-62.5 105.5t-21.5 124.5q0 76 29 148.5t81 128t125 89.5t162 34q79 0 140.5 -27t102.5 -73t62.5 -105.5t21.5 -124.5q0 -77 -29 -149t-81 -127.5t-125.5 -89.5t-161.5 -34zM410 47q71 0 130 28t101.5 74.5t66 106.5t23.5 124
q0 54 -17 103t-50 87t-82 60.5t-113 22.5q-71 0 -130 -28t-101 -74.5t-65.5 -106.5t-23.5 -124q0 -54 17 -103t50 -87t82 -60.5t112 -22.5z" />
    <glyph glyph-name="uni041F" unicode="&#x41f;" horiz-adv-x="668" 
d="M218 638l-67 -638h-68l74 700h502l-74 -700h-68l67 638h-366z" />
    <glyph glyph-name="uni0420" unicode="&#x420;" horiz-adv-x="596" 
d="M157 700h241q49 0 88.5 -17t66.5 -45.5t41.5 -67t14.5 -81.5q0 -50 -19.5 -96t-54 -81t-82 -55.5t-104.5 -20.5h-173l-25 -236h-68zM355 298q41 0 75 15t58 41t37.5 59.5t13.5 71.5q0 31 -10 59t-29 49t-46.5 33t-62.5 12h-173l-36 -340h173z" />
    <glyph glyph-name="uni0421" unicode="&#x421;" horiz-adv-x="775" 
d="M755 206q-19 -47 -52.5 -87.5t-78.5 -70t-100.5 -46.5t-117.5 -17q-78 0 -139 26.5t-103 72t-64 105.5t-22 127q0 76 28 148t80 128t126 89.5t167 33.5q71 0 125.5 -20t92.5 -54t59.5 -80t25.5 -97h-71q-6 40 -23.5 75t-47.5 60t-71.5 39.5t-94.5 14.5q-75 0 -135.5 -28
t-102.5 -74.5t-65 -106.5t-23 -123q0 -56 18 -106t52.5 -87.5t84 -59t112.5 -21.5q92 0 161.5 44.5t103.5 114.5h75z" />
    <glyph glyph-name="uni0422" unicode="&#x422;" horiz-adv-x="474" 
d="M269 638h-188l7 62h446l-7 -62h-190l-67 -638h-68z" />
    <glyph glyph-name="uni0423" unicode="&#x423;" 
d="M209 0h-75l171 277l-222 423h79l185 -353l218 353h75z" />
    <glyph glyph-name="uni0424" unicode="&#x424;" horiz-adv-x="764" 
d="M426 99l-10 -99h-68l10 99h-70q-51 0 -91.5 18t-68 48.5t-42.5 72t-15 88.5q0 55 20 105t56 88t85.5 60.5t108.5 22.5h70l10 98h68l-10 -98h70q51 0 91 -18t68 -48.5t42.5 -72t14.5 -88.5q0 -56 -19.5 -106t-55 -87.5t-85 -60t-109.5 -22.5h-70zM365 161l39 378h-70
q-43 0 -79 -17t-61.5 -45.5t-39.5 -66t-14 -79.5q0 -36 10.5 -67t30.5 -54t48.5 -36t65.5 -13h70zM472 539l-39 -378h70q42 0 78 16.5t61.5 45t40 66.5t14.5 80q0 36 -10.5 67t-30.5 54t-49 36t-65 13h-70z" />
    <glyph glyph-name="uni0425" unicode="&#x425;" horiz-adv-x="534" 
d="M520 700h78l-255 -350l181 -350h-78l-149 290l-209 -290h-77l254 350l-180 350h77l148 -291z" />
    <glyph glyph-name="uni0426" unicode="&#x426;" horiz-adv-x="660" 
d="M567 -103l11 103h-495l74 700h68l-67 -638h332l67 638h68l-67 -638h89l-18 -165h-62z" />
    <glyph glyph-name="uni0427" unicode="&#x427;" horiz-adv-x="572" 
d="M421 0l24 234h-147q-59 0 -100.5 16.5t-67 46t-35 71t-4.5 91.5l25 241h69l-24 -225q-4 -39 2 -72t24.5 -57t50.5 -37t79 -13h135l42 404h68l-73 -700h-68z" />
    <glyph glyph-name="uni0428" unicode="&#x428;" horiz-adv-x="913" 
d="M83 0l74 700h68l-67 -638h272l67 638h68l-67 -638h271l67 638h69l-74 -700h-748z" />
    <glyph glyph-name="uni0429" unicode="&#x429;" horiz-adv-x="940" 
d="M841 -103l11 103h-769l74 700h68l-67 -638h272l67 638h68l-67 -638h271l67 638h69l-67 -638h89l-18 -165h-68z" />
    <glyph glyph-name="uni042A" unicode="&#x42a;" horiz-adv-x="641" 
d="M264 332l-29 -270h184q28 0 53.5 11.5t44.5 32t30 47.5t11 57q0 25 -7.5 47.5t-22 39t-34 26t-43.5 9.5h-187zM88 700h215l-33 -307h187q38 0 69.5 -13.5t54 -37.5t35 -56.5t12.5 -69.5q0 -44 -16.5 -83t-46 -68.5t-68.5 -47t-84 -17.5h-252l67 638h-147z" />
    <glyph glyph-name="uni042B" unicode="&#x42b;" horiz-adv-x="734" 
d="M225 700l-33 -307h175q38 0 69.5 -13.5t54 -37.5t35 -56.5t12.5 -69.5q0 -44 -16.5 -83t-46 -68.5t-68.5 -47t-84 -17.5h-240l74 700h68zM186 332l-28 -270h172q28 0 53.5 11.5t44.5 32t30 47.5t11 57q0 25 -8 47.5t-22 39t-34 26t-44 9.5h-175zM657 700h68l-74 -700h-68
z" />
    <glyph glyph-name="uni042C" unicode="&#x42c;" horiz-adv-x="563" 
d="M225 700l-33 -307h187q38 0 69.5 -13.5t54 -37.5t35 -56.5t12.5 -69.5q0 -44 -16.5 -83t-46 -68.5t-68.5 -47t-84 -17.5h-252l74 700h68zM186 332l-28 -270h184q28 0 53.5 11.5t44.5 32t30 47.5t11 57q0 25 -8 47.5t-22 39t-34 26t-44 9.5h-187z" />
    <glyph glyph-name="uni042D" unicode="&#x42d;" horiz-adv-x="760" 
d="M309 379h377q2 58 -13 108t-46.5 87t-78.5 58t-110 21q-52 0 -96.5 -14.5t-79.5 -40t-60.5 -60t-38.5 -74.5h-72q16 54 48 99.5t77 79.5t102 53t125 19q79 0 138 -26t98 -70t58.5 -104t19.5 -127q0 -83 -28 -156t-79 -128t-123 -87t-160 -32q-63 0 -114.5 17t-90 46.5
t-63.5 70t-35 87.5h75q9 -35 30 -64t51.5 -50t69 -33t83.5 -12q59 0 110 20t91.5 56t67.5 85.5t38 108.5h-377z" />
    <glyph glyph-name="uni042E" unicode="&#x42e;" horiz-adv-x="1083" 
d="M679 -15q-81 0 -142.5 27.5t-102.5 73.5t-61 106t-19 125h-170l-33 -317h-68l74 700h68l-34 -321h170q12 68 45.5 129t85 107t118 73t144.5 27t139 -27t102 -73t62.5 -105.5t21.5 -124.5q0 -77 -29 -149t-81.5 -127.5t-126 -89.5t-163.5 -34zM687 47q71 0 130 28
t101 74.5t65.5 106.5t23.5 124q0 54 -17 103t-50 87t-82 60.5t-112 22.5q-71 0 -130 -28t-101 -74.5t-65.5 -106.5t-23.5 -124q0 -54 17 -103t50 -87t82 -60.5t112 -22.5z" />
    <glyph glyph-name="uni042F" unicode="&#x42f;" horiz-adv-x="602" 
d="M519 0h-68l25 236h-172l-174 -236h-79l183 247q-68 20 -105 75t-37 125q0 50 19 96t53.5 81t82.5 55.5t106 20.5h240zM310 298h172l36 340h-172q-41 0 -75 -15t-58.5 -40.5t-38 -59.5t-13.5 -71q0 -32 10 -60t29 -49t47 -33t63 -12z" />
    <glyph glyph-name="uni0430" unicode="&#x430;" horiz-adv-x="592" 
d="M556 443l-47 -443h-65l10 93q-26 -45 -74.5 -74.5t-111.5 -29.5q-46 0 -83.5 17t-64 45.5t-41 67t-14.5 81.5q0 51 19.5 96.5t53.5 80.5t80 55.5t99 20.5q66 0 106.5 -29.5t57.5 -74.5l10 94h65zM282 49q40 0 74.5 15.5t59 41.5t38.5 60t14 72q0 32 -10.5 60.5t-30 49.5
t-47.5 33.5t-64 12.5q-40 0 -74 -15.5t-59 -41.5t-39 -60t-14 -72q0 -32 10 -60.5t29.5 -49.5t48 -33.5t64.5 -12.5z" />
    <glyph glyph-name="uni0431" unicode="&#x431;" horiz-adv-x="571" 
d="M146 309q12 35 33.5 62t49 45t60 27.5t66.5 9.5q47 0 84 -16.5t62 -45t38 -66.5t13 -80q0 -51 -19 -97.5t-53 -82t-82 -56t-105 -20.5q-58 0 -98 21.5t-65 59t-36.5 89.5t-11.5 112q0 118 36 202t91 136q51 48 114 69.5t141 21.5h86l-7 -63h-106q-55 0 -103 -16t-86 -53
q-46 -45 -71 -111.5t-31 -147.5zM299 49q40 0 74.5 15.5t60 41.5t39.5 60t14 72q0 32 -10.5 60.5t-30 49.5t-48 33.5t-65.5 12.5q-40 0 -74 -14.5t-59 -40t-39 -59.5t-14 -73q0 -32 10 -61t29.5 -50.5t47.5 -34t65 -12.5z" />
    <glyph glyph-name="uni0432" unicode="&#x432;" horiz-adv-x="482" 
d="M130 443h206q34 0 57.5 -9.5t37.5 -24t20.5 -32.5t6.5 -36q0 -22 -8.5 -41.5t-23 -34.5t-34.5 -24.5t-42 -12.5q40 -2 66 -29.5t26 -68.5q0 -21 -9 -44t-27.5 -42t-48 -31.5t-71.5 -12.5h-203zM168 202l-16 -154h140q17 0 32.5 6.5t27 18t18.5 26t7 31.5q0 29 -19.5 50.5
t-48.5 21.5h-141zM312 250q34 0 57 24.5t23 55.5q0 26 -18 45t-49 19h-137l-15 -144h139z" />
    <glyph glyph-name="uni0433" unicode="&#x433;" horiz-adv-x="354" 
d="M391 443l-6 -56h-196l-41 -387h-65l47 443h261z" />
    <glyph glyph-name="uni0434" unicode="&#x434;" horiz-adv-x="548" 
d="M1 -104l17 157h22q54 0 89.5 43t43.5 123l24 224h310l-40 -390h54l-17 -157h-59l11 104h-384l-11 -104h-60zM405 53l35 337h-187l-16 -152q-16 -153 -97 -185h265z" />
    <glyph glyph-name="uni0435" unicode="&#x435;" horiz-adv-x="519" 
d="M133 207q-3 -30 3 -59t22 -51.5t43.5 -36.5t69.5 -14q57 0 90.5 24t49.5 57h66q-9 -27 -27.5 -52t-46 -44t-62.5 -30.5t-77 -11.5q-50 0 -87 16.5t-61 44.5t-36 66t-12 81q0 54 17 100.5t48.5 81t75 54.5t97.5 20q44 0 79.5 -14t60 -38.5t37.5 -58t13 -73.5
q0 -19 -2.5 -32.5t-6.5 -29.5h-354zM302 402q-61 0 -106.5 -37.5t-56.5 -106.5h294q3 33 -5 59.5t-25.5 45t-43.5 29t-57 10.5z" />
    <glyph glyph-name="uni0436" unicode="&#x436;" horiz-adv-x="661" 
d="M99 0h-77l247 229q-38 1 -62 15t-37 46l-21 51q-9 23 -22.5 37.5t-33.5 14.5h-28l6 54h36q31 0 53.5 -16t38.5 -54l29 -70q13 -31 29 -43t48 -12h21l21 191h61l-21 -191h21q32 0 51 12t38 43l45 70q24 38 49.5 54t56.5 16h36l-6 -54h-27q-20 0 -36 -14.5t-30 -37.5
l-32 -51q-20 -32 -47.5 -46t-65.5 -15l199 -229h-77l-178 215l-23 -215h-61l23 215z" />
    <glyph glyph-name="uni0437" unicode="&#x437;" horiz-adv-x="415" 
d="M113 126q-5 -38 21 -60t76 -22q48 0 77 21.5t29 60.5q0 33 -23 52.5t-68 19.5h-45l5 49h42q51 0 77 24t26 59q0 33 -22 51.5t-64 18.5q-47 0 -73 -22t-30 -57h-64q3 29 17 53.5t37 42t53.5 27t66.5 9.5q66 0 104.5 -30.5t38.5 -81.5q0 -45 -29 -76t-77 -39
q42 -5 66.5 -30.5t24.5 -67.5q0 -32 -14 -57.5t-39 -43.5t-58 -28t-70 -10q-75 0 -115.5 37.5t-33.5 99.5h64z" />
    <glyph glyph-name="uni0438" unicode="&#x438;" horiz-adv-x="558" 
d="M445 330l-293 -296l-4 -34h-65l47 443h65l-35 -333l293 297l4 36h65l-47 -443h-65z" />
    <glyph glyph-name="uni0439" unicode="&#x439;" horiz-adv-x="558" 
d="M445 330l-293 -296l-4 -34h-65l47 443h65l-35 -333l293 297l4 36h65l-47 -443h-65zM348 606q46 0 80.5 24.5t50.5 69.5h62q-9 -33 -28.5 -59.5t-46 -46t-58.5 -30t-67 -10.5t-64.5 10.5t-52 30t-35.5 46t-15 59.5h62q5 -45 35 -69.5t77 -24.5z" />
    <glyph glyph-name="uni043A" unicode="&#x43a;" horiz-adv-x="480" 
d="M174 246h17q20 0 40 11t45 43l67 86q23 29 45.5 45t55.5 16h43l-6 -54h-28q-22 0 -37 -9.5t-32 -31.5l-50 -66q-23 -30 -46 -43.5t-55 -15.5l218 -227h-82l-199 211l-22 -211h-65l47 443h65z" />
    <glyph glyph-name="uni043B" unicode="&#x43b;" horiz-adv-x="551" 
d="M20 49h22q27 0 44.5 11.5t22.5 54.5l34 328h372l-47 -443h-65l41 387h-242l-29 -280q-7 -66 -41.5 -91.5t-82.5 -25.5h-35z" />
    <glyph glyph-name="uni043C" unicode="&#x43c;" horiz-adv-x="685" 
d="M602 0h-60l41 387l-218 -387h-44l-137 387l-41 -387h-60l47 443h97l125 -355l201 355h96z" />
    <glyph glyph-name="uni043D" unicode="&#x43d;" horiz-adv-x="564" 
d="M436 194h-268l-20 -194h-65l47 443h65l-21 -192h268l21 192h65l-47 -443h-65z" />
    <glyph glyph-name="uni043E" unicode="&#x43e;" horiz-adv-x="552" 
d="M276 -11q-50 0 -89 17t-66 45.5t-41.5 66.5t-14.5 81q0 51 19.5 97t53.5 81t81 55.5t103 20.5q50 0 89.5 -16.5t66.5 -45t41.5 -67t14.5 -81.5q0 -51 -19.5 -97t-54 -81t-81.5 -55.5t-103 -20.5zM282 49q40 0 74.5 15.5t59 41.5t38.5 60t14 72q0 32 -10.5 60.5t-30 49.5
t-47.5 33.5t-64 12.5q-40 0 -74 -15.5t-59 -41.5t-39 -60t-14 -72q0 -32 10 -60.5t29.5 -49.5t48 -33.5t64.5 -12.5z" />
    <glyph glyph-name="uni043F" unicode="&#x43f;" horiz-adv-x="567" 
d="M484 0h-65l41 387h-271l-41 -387h-65l47 443h401z" />
    <glyph glyph-name="uni0440" unicode="&#x440;" horiz-adv-x="593" 
d="M185 349q26 48 75.5 76t110.5 28q46 0 83.5 -16.5t64 -45t41 -67t14.5 -81.5q0 -50 -19.5 -96t-53 -81t-79.5 -56t-99 -21q-66 0 -107.5 30t-57.5 75l-37 -351h-65l74 700h65zM356 394q-40 0 -74 -15.5t-59 -41.5t-39 -60t-14 -72q0 -32 10.5 -60.5t30 -49.5t48 -33.5
t64.5 -12.5q40 0 74 15.5t59 41.5t38.5 60t13.5 72q0 32 -10 60.5t-29.5 49.5t-48 33.5t-64.5 12.5z" />
    <glyph glyph-name="uni0441" unicode="&#x441;" horiz-adv-x="524" 
d="M439 281q0 22 -6.5 42.5t-21.5 36.5t-39 25.5t-58 9.5q-45 0 -78.5 -16.5t-56 -43.5t-34 -62t-11.5 -72q0 -31 8.5 -58.5t26 -48.5t45 -33t66.5 -12q60 0 96 28.5t51 74.5h65q-9 -35 -28 -65t-47.5 -52t-65 -34t-80.5 -12q-53 0 -91 17t-63 46t-37 67t-12 79
q0 49 16.5 95t48.5 82t78.5 57.5t107.5 21.5q52 0 87.5 -15.5t57.5 -40.5t31.5 -55.5t8.5 -61.5h-65z" />
    <glyph glyph-name="uni0442" unicode="&#x442;" horiz-adv-x="372" 
d="M404 443l-6 -56h-139l-41 -387h-65l41 387h-138l6 56h342z" />
    <glyph glyph-name="uni0443" unicode="&#x443;" horiz-adv-x="568" 
d="M256 -267q-205 0 -188 202h66q-4 -76 28 -111t101 -35q32 0 58.5 8t46 27t32 49t17.5 75l16 148q-24 -45 -68 -76t-114 -31q-86 0 -126 54q-17 23 -22.5 56t0.5 89l27 255h66l-25 -236q-8 -72 15 -115.5t91 -43.5q40 0 70 14.5t51 38.5t33 54t15 61l24 227h64l-52 -495
q-12 -114 -69.5 -164.5t-156.5 -50.5z" />
    <glyph glyph-name="uni0444" unicode="&#x444;" horiz-adv-x="603" 
d="M272 -10q-48 2 -86 19t-65 45.5t-41.5 66t-14.5 80.5q0 50 19 95t53 79t81 55t102 23l26 247h58l-26 -247q48 -2 86 -19.5t65 -45.5t41.5 -65.5t14.5 -80.5q0 -50 -19.5 -95t-53.5 -79t-81 -55t-102 -23l-26 -247h-57zM521 239q0 34 -10 62.5t-29.5 49.5t-47 33.5
t-62.5 13.5l-37 -353q43 0 77.5 16.5t58.5 43t37 61.5t13 73zM129 204q0 -33 10 -61.5t28.5 -50t46.5 -34.5t64 -13l36 353q-42 -1 -76 -17t-58.5 -42.5t-37.5 -61.5t-13 -73z" />
    <glyph glyph-name="uni0445" unicode="&#x445;" horiz-adv-x="434" 
d="M411 0h-76l-100 172l-136 -172h-76l179 222l-131 221h76l99 -170l135 170h75l-178 -221z" />
    <glyph glyph-name="uni0446" unicode="&#x446;" horiz-adv-x="579" 
d="M475 -89l9 89h-401l47 443h65l-41 -387h261l41 387h65l-41 -387h75l-15 -145h-65z" />
    <glyph glyph-name="uni0447" unicode="&#x447;" horiz-adv-x="464" 
d="M316 0l15 143h-114q-75 0 -111.5 39t-28.5 115l15 146h66l-15 -145q-5 -48 16.5 -73.5t72.5 -25.5h105l26 244h66l-47 -443h-66z" />
    <glyph glyph-name="uni0448" unicode="&#x448;" horiz-adv-x="789" 
d="M433 56h214l41 387h65l-47 -443h-623l47 443h65l-41 -387h214l41 387h65z" />
    <glyph glyph-name="uni0449" unicode="&#x449;" horiz-adv-x="811" 
d="M707 -89l9 89h-633l47 443h65l-41 -387h214l41 387h65l-41 -387h214l41 387h65l-41 -387h75l-15 -145h-65z" />
    <glyph glyph-name="uni044A" unicode="&#x44a;" horiz-adv-x="479" 
d="M149 387h-91l6 56h153l-17 -165h130q28 0 50.5 -9.5t38 -26.5t23.5 -40t8 -49q0 -31 -11 -58.5t-30.5 -48.5t-48 -33.5t-62.5 -12.5h-190zM194 224l-18 -170h118q42 0 68 27.5t26 65.5q0 32 -19.5 54.5t-54.5 22.5h-120z" />
    <glyph glyph-name="uni044B" unicode="&#x44b;" horiz-adv-x="613" 
d="M512 443h65l-47 -443h-65zM130 443h62l-18 -165h130q58 0 89 -36t31 -88q0 -31 -11 -59t-30.5 -49t-47.5 -33.5t-62 -12.5h-190zM169 224l-18 -170h118q41 0 67 27.5t26 65.5q0 32 -19 54.5t-54 22.5h-120z" />
    <glyph glyph-name="uni044C" unicode="&#x44c;" horiz-adv-x="453" 
d="M130 443h62l-18 -165h130q58 0 89 -36t31 -88q0 -31 -11 -59t-30.5 -49t-47.5 -33.5t-62 -12.5h-190zM169 224l-18 -170h118q41 0 67 27.5t26 65.5q0 32 -19 54.5t-54 22.5h-120z" />
    <glyph glyph-name="uni044D" unicode="&#x44d;" horiz-adv-x="528" 
d="M79 281q5 34 22.5 65t46 55t68 38.5t88.5 14.5q53 0 91.5 -17t63.5 -45.5t37 -66.5t12 -79q0 -49 -16 -95t-48 -82t-79.5 -58t-110.5 -22q-47 0 -83 12.5t-60 34.5t-36 52t-11 64h66q1 -21 9 -39.5t24 -32.5t41 -22.5t59 -8.5q40 0 70 11.5t51 31.5t34 46.5t19 56.5h-201
l5 51h201q1 31 -6.5 58t-25 47t-45 32t-66.5 12q-35 0 -61.5 -9.5t-45.5 -25.5t-31 -36.5t-17 -42.5h-65z" />
    <glyph glyph-name="uni044E" unicode="&#x44e;" horiz-adv-x="740" 
d="M469 49q41 0 75 15.5t59 41.5t38.5 60t13.5 72q0 32 -10.5 60.5t-30 49.5t-47.5 33.5t-64 12.5q-40 0 -74 -15.5t-58.5 -41.5t-38.5 -60.5t-14 -72.5q0 -32 10 -60t29 -49t47.5 -33.5t64.5 -12.5zM168 193l-20 -193h-65l47 443h65l-21 -194h85q9 42 31 79t54.5 65
t74.5 44t91 16t88.5 -16.5t67 -45t42 -67t14.5 -81.5q0 -51 -19.5 -97t-54 -81t-82 -55.5t-103.5 -20.5q-50 0 -89 16t-66 43.5t-41 65t-14 79.5h-85z" />
    <glyph glyph-name="uni044F" unicode="&#x44f;" horiz-adv-x="490" 
d="M117 0h-76l126 157q-46 8 -74 44.5t-28 84.5q0 31 12.5 59t35 50t53.5 35t68 13h220l-47 -443h-64l16 150h-125zM365 206l19 182h-144q-24 0 -44 -8t-34 -22t-22 -32t-8 -37q0 -34 23.5 -58.5t65.5 -24.5h144z" />
    <glyph glyph-name="uni0451" unicode="&#x451;" horiz-adv-x="519" 
d="M133 207q-3 -30 3 -59t22 -51.5t43.5 -36.5t69.5 -14q57 0 90.5 24t49.5 57h66q-9 -27 -27.5 -52t-46 -44t-62.5 -30.5t-77 -11.5q-50 0 -87 16.5t-61 44.5t-36 66t-12 81q0 54 17 100.5t48.5 81t75 54.5t97.5 20q44 0 79.5 -14t60 -38.5t37.5 -58t13 -73.5
q0 -19 -2.5 -32.5t-6.5 -29.5h-354zM302 402q-61 0 -106.5 -37.5t-56.5 -106.5h294q3 33 -5 59.5t-25.5 45t-43.5 29t-57 10.5zM384 599q0 27 19.5 46.5t46.5 19.5q23 0 38.5 -16t15.5 -39q0 -27 -20 -46t-46 -19q-24 0 -39 15.5t-15 38.5zM154 599q0 27 19.5 46.5
t46.5 19.5q23 0 38.5 -16t15.5 -39q0 -27 -20 -46t-46 -19q-24 0 -39 15.5t-15 38.5z" />
    <glyph glyph-name="uni0452" unicode="&#x452;" horiz-adv-x="588" 
d="M231 534l-20 -187q24 45 69.5 75.5t110.5 30.5q43 0 75 -14.5t51 -40.5t24 -60t0 -78l-41 -395q-6 -59 -40.5 -94t-105.5 -35q-22 0 -32 2.5t-17 3.5l6 57q7 -4 25.5 -6t28.5 -2q32 0 49.5 21t20.5 53l39 376q3 33 -1 61t-17.5 48.5t-36.5 32.5t-56 12q-38 0 -67 -14.5
t-49.5 -38.5t-32.5 -54t-15 -61l-24 -227h-66l56 534h-89l5 47h89l12 119h66l-12 -119h128l-5 -47h-128z" />
    <glyph glyph-name="uni0453" unicode="&#x453;" horiz-adv-x="354" 
d="M156 510l-26 52l263 137l26 -52zM391 443l-6 -56h-196l-41 -387h-65l47 443h261z" />
    <glyph glyph-name="uni0454" unicode="&#x454;" horiz-adv-x="531" 
d="M443 281q-1 23 -8.5 43.5t-23.5 36.5t-40.5 25t-58.5 9q-38 0 -68 -11.5t-52 -31.5t-35.5 -47t-18.5 -59h200l-5 -51h-200q-2 -29 5 -55.5t23.5 -46.5t44.5 -32t69 -12q65 0 104 29t52 74h65q-6 -34 -24 -63.5t-47 -51.5t-68 -35t-85 -13q-54 0 -92.5 17t-63.5 45.5
t-37 66.5t-12 79q0 49 16 95t48 82t79 58t109 22q49 0 85.5 -14t60 -38t34 -55.5t9.5 -65.5h-65z" />
    <glyph glyph-name="uni0455" unicode="&#x455;" horiz-adv-x="450" 
d="M281 242q27 -7 51 -14.5t42 -19.5t28.5 -31t10.5 -48q0 -33 -13.5 -59t-37.5 -44t-57.5 -27.5t-73.5 -9.5q-39 0 -72.5 9.5t-56.5 29.5t-35 50t-7 72h64q-3 -30 4 -50t22.5 -33t37.5 -18.5t48 -5.5q54 0 84.5 21t30.5 59q0 20 -9.5 32t-27 20.5t-43 15.5t-57.5 16
q-27 7 -49.5 14.5t-39 19.5t-25.5 29.5t-9 44.5q0 34 14 59.5t38 43t56 26.5t68 9q38 0 69 -10t52 -29t31 -46.5t6 -61.5h-64q5 46 -21 70t-76 24q-47 0 -77.5 -21t-30.5 -59q0 -18 8.5 -29.5t24 -19.5t39 -14t53.5 -15z" />
    <glyph glyph-name="uni0456" unicode="&#x456;" horiz-adv-x="231" 
d="M130 443h65l-47 -443h-65zM120 611q0 27 20 46.5t46 19.5q24 0 39.5 -16t15.5 -39q0 -27 -20 -46t-47 -19q-23 0 -38.5 15.5t-15.5 38.5z" />
    <glyph glyph-name="uni0457" unicode="&#x457;" horiz-adv-x="231" 
d="M130 443h65l-47 -443h-65zM198 611q0 27 20 46.5t46 19.5q24 0 39 -16t15 -39q0 -27 -19.5 -46t-46.5 -19q-23 0 -38.5 15.5t-15.5 38.5zM42 611q0 27 20 46.5t46 19.5q24 0 39.5 -16t15.5 -39q0 -27 -20 -46t-47 -19q-23 0 -38.5 15.5t-15.5 38.5z" />
    <glyph glyph-name="uni0458" unicode="&#x458;" horiz-adv-x="231" 
d="M133 -135q-8 -69 -40.5 -99.5t-80.5 -30.5q-16 0 -34 3t-29 9l6 60q15 -5 25 -7t19 -2q33 0 49.5 20t20.5 56l60 569h65zM120 611q0 27 20.5 46.5t46.5 19.5q23 0 38.5 -16t15.5 -39q0 -27 -20.5 -46t-46.5 -19q-23 0 -38.5 15.5t-15.5 38.5z" />
    <glyph glyph-name="uni0459" unicode="&#x459;" horiz-adv-x="796" 
d="M36 49h27q26 0 42 11.5t19 42.5l36 340h374l-18 -165h130q27 0 49.5 -10t38 -27t24.5 -40t9 -49q0 -31 -12 -58.5t-32.5 -48.5t-48 -33t-59.5 -12h-193l41 387h-244l-31 -292q-6 -57 -38.5 -81t-79.5 -24h-40zM611 54q19 0 36.5 7.5t30 20t20 29.5t7.5 36
q0 32 -20.5 54.5t-53.5 22.5h-120l-18 -170h118z" />
    <glyph glyph-name="uni045A" unicode="&#x45a;" horiz-adv-x="778" 
d="M629 278q27 0 48.5 -10t37.5 -27t24.5 -40t8.5 -49q0 -31 -12 -58.5t-32 -48.5t-47.5 -33t-58.5 -12h-194l24 224h-256l-24 -224h-65l47 443h65l-18 -165h256l18 165h65l-18 -165h131zM493 224l-18 -170h118q19 0 36.5 7.5t30 20t20 29.5t7.5 36q0 32 -20.5 54.5
t-53.5 22.5h-120z" />
    <glyph glyph-name="uni045B" unicode="&#x45b;" horiz-adv-x="588" 
d="M165 534h-89l5 47h89l12 119h66l-12 -119h128l-5 -47h-128l-20 -187q24 45 69.5 75.5t110.5 30.5q43 0 75 -14.5t51 -40.5t24 -60t0 -78l-27 -260h-65l25 241q3 33 -1 61t-17.5 48.5t-36.5 32.5t-56 12q-38 0 -67 -14.5t-49.5 -38.5t-32.5 -54t-15 -61l-24 -227h-66z" />
    <glyph glyph-name="uni045C" unicode="&#x45c;" horiz-adv-x="480" 
d="M174 246h17q20 0 40 11t45 43l67 86q23 29 45.5 45t55.5 16h43l-6 -54h-28q-22 0 -37 -9.5t-32 -31.5l-50 -66q-23 -30 -46 -43.5t-55 -15.5l218 -227h-82l-199 211l-22 -211h-65l47 443h65zM205 510l-26 52l263 137l26 -52z" />
    <glyph glyph-name="uni045E" unicode="&#x45e;" horiz-adv-x="568" 
d="M350 606q46 0 80.5 24.5t49.5 69.5h62q-9 -33 -28 -59.5t-45.5 -46t-58.5 -30t-67 -10.5t-64.5 10.5t-52 30t-36 46t-15.5 59.5h62q6 -45 36 -69.5t77 -24.5zM256 -267q-205 0 -188 202h66q-4 -76 28 -111t101 -35q32 0 58.5 8t46 27t32 49t17.5 75l16 148
q-24 -45 -68 -76t-114 -31q-86 0 -126 54q-17 23 -22.5 56t0.5 89l27 255h66l-25 -236q-8 -72 15 -115.5t91 -43.5q40 0 70 14.5t51 38.5t33 54t15 61l24 227h64l-52 -495q-12 -114 -69.5 -164.5t-156.5 -50.5z" />
    <glyph glyph-name="uni045F" unicode="&#x45f;" horiz-adv-x="571" 
d="M247 -89l9 89h-173l47 443h65l-41 -387h275l41 387h65l-47 -443h-173l-9 -89h-59z" />
    <glyph glyph-name="uni0462" unicode="&#x462;" horiz-adv-x="603" 
d="M226 332l-29 -270h184q28 0 53.5 11.5t45 32t30.5 47.5t11 57q0 25 -8 47.5t-22 39t-34 26t-44 9.5h-187zM448 700l-6 -59h-184l-26 -248h187q38 0 69.5 -13.5t54 -37.5t35 -56.5t12.5 -69.5q0 -44 -17 -83t-46 -68.5t-68 -47t-84 -17.5h-252l67 641h-109l6 59h361z" />
    <glyph glyph-name="uni0463" unicode="&#x463;" horiz-adv-x="468" 
d="M151 502h-78l5 47h78l16 152h61l-16 -152h125l-5 -47h-125l-24 -224h131q28 0 50.5 -9.5t38 -26.5t23.5 -40t8 -49q0 -31 -11 -58.5t-30.5 -48.5t-47.5 -33.5t-62 -12.5h-190zM183 224l-18 -170h118q42 0 68 27.5t26 65.5q0 32 -19.5 54.5t-54.5 22.5h-120z" />
    <glyph glyph-name="uni0472" unicode="&#x472;" horiz-adv-x="806" 
d="M405 -15q-80 0 -141 27t-102 73t-62.5 105.5t-21.5 124.5q0 76 29 148.5t81 128t125 89.5t162 34q79 0 140.5 -27t102.5 -73t62.5 -105.5t21.5 -124.5q0 -77 -29 -149t-81 -127.5t-125.5 -89.5t-161.5 -34zM472 653q-64 0 -118 -23t-95 -61.5t-68 -89t-36 -105.5h576
q2 55 -14.5 105.5t-49.5 89t-82 61.5t-113 23zM408 47q64 0 118 23t95.5 62t68 89.5t36.5 105.5h-576q-3 -55 13 -105.5t49 -89.5t82.5 -62t113.5 -23z" />
    <glyph glyph-name="uni0473" unicode="&#x473;" horiz-adv-x="552" 
d="M276 -11q-50 0 -89 17t-66 45.5t-41.5 66.5t-14.5 81q0 51 19.5 97t53.5 81t81 55.5t103 20.5q50 0 89.5 -16.5t66.5 -45t41.5 -67t14.5 -81.5q0 -51 -19.5 -97t-54 -81t-81.5 -55.5t-103 -20.5zM317 394q-35 0 -65 -12t-53.5 -32t-39.5 -47.5t-23 -58.5h332
q0 31 -10.5 58.5t-30 47.5t-47.5 32t-63 12zM280 49q35 0 65.5 11.5t54 32t40 47.5t23.5 58h-332q0 -31 10 -58t29.5 -47.5t47 -32t62.5 -11.5z" />
    <glyph glyph-name="uni0474" unicode="&#x474;" horiz-adv-x="621" 
d="M305 0h-52l-174 700h72l140 -590l216 483q27 61 60.5 86t86.5 25h31l-6 -61h-23q-28 0 -50 -13.5t-42 -56.5z" />
    <glyph glyph-name="uni0475" unicode="&#x475;" horiz-adv-x="516" 
d="M258 0h-48l-156 443h71l119 -351l137 245q16 28 30.5 49t31 34.5t36 20t45.5 6.5h32l-6 -61h-19q-30 0 -49.5 -14t-42.5 -55z" />
    <glyph glyph-name="uni048A" unicode="&#x48a;" horiz-adv-x="678" 
d="M425 824q48 0 84 24.5t51 69.5h62q-9 -33 -28.5 -59.5t-46.5 -46t-60 -30t-69 -10.5t-66.5 10.5t-53 30t-36.5 46t-16 59.5h62q6 -45 37.5 -69.5t79.5 -24.5zM510 0l58 553l-412 -507l-5 -46h-68l74 700h68l-59 -553l413 507l5 46h69l-67 -638h74l-18 -165h-68l11 103
h-75z" />
    <glyph glyph-name="uni048B" unicode="&#x48b;" horiz-adv-x="569" 
d="M348 606q46 0 80.5 24.5t50.5 69.5h62q-9 -33 -28.5 -59.5t-46 -46t-58.5 -30t-67 -10.5t-64.5 10.5t-52 30t-35.5 46t-15 59.5h62q5 -45 35 -69.5t77 -24.5zM410 0l35 330l-293 -296l-4 -34h-65l47 443h65l-35 -333l293 297l4 36h65l-41 -387h74l-15 -145h-64l9 89h-75z
" />
    <glyph glyph-name="uni048C" unicode="&#x48c;" horiz-adv-x="577" 
d="M239 700l-11 -112h159l-6 -54h-159l-15 -141h187q38 0 69.5 -13.5t54 -37.5t35 -56.5t12.5 -69.5q0 -44 -16.5 -83t-46 -68.5t-68.5 -47t-84 -17.5h-252l56 534h-78l6 54h78l11 112h68zM201 332l-29 -270h184q28 0 53.5 11.5t44.5 32t30 47.5t11 57q0 25 -7.5 47.5
t-22 39t-34 26t-43.5 9.5h-187z" />
    <glyph glyph-name="uni048D" unicode="&#x48d;" horiz-adv-x="466" 
d="M132 341h-74l5 46h74l6 56h62l-6 -56h127l-5 -46h-127l-7 -63h130q58 0 89 -36t31 -88q0 -31 -11 -59t-30.5 -49t-47.5 -33.5t-62 -12.5h-190zM182 224l-18 -170h118q42 0 68 27t26 66q0 32 -19.5 54.5t-54.5 22.5h-120z" />
    <glyph glyph-name="uni048E" unicode="&#x48e;" horiz-adv-x="596" 
d="M157 700h241q49 0 88.5 -17t66.5 -45.5t41.5 -66.5t14.5 -81q0 -72 -38 -131.5t-101 -91.5l65 -72l-36 -33l-76 85q-18 -5 -36 -8t-38 -3h-173l-25 -236h-68zM339 413l89 -99q51 23 81 68.5t30 102.5q0 31 -10 59t-29 49t-46.5 33t-62.5 12h-173l-36 -340h168q11 0 25 3
l-71 79z" />
    <glyph glyph-name="uni048F" unicode="&#x48f;" horiz-adv-x="596" 
d="M185 349q26 48 75.5 76t110.5 28q46 0 83.5 -16.5t64 -45t41 -66.5t14.5 -81q0 -56 -23 -104.5t-63 -84.5l60 -66l-38 -34l-63 71q-28 -17 -60 -27t-67 -10q-60 0 -102.5 28.5t-59.5 76.5l-37 -351h-65l74 700h65zM374 181l73 -82q29 28 45 63t16 76q0 32 -10 60.5
t-29.5 49.5t-48 33.5t-64.5 12.5q-40 0 -74 -15.5t-59 -41.5t-39 -60t-14 -72q0 -32 10.5 -60.5t30 -49.5t47.5 -33.5t63 -12.5q25 0 46 6t39 17l-68 77z" />
    <glyph glyph-name="uni0490" unicode="&#x490;" horiz-adv-x="474" 
d="M157 700h320l9 91h62l-16 -153h-314l-67 -638h-68z" />
    <glyph glyph-name="uni0491" unicode="&#x491;" horiz-adv-x="366" 
d="M345 443l8 83h58l-14 -139h-208l-41 -387h-65l47 443h215z" />
    <glyph glyph-name="uni0492" unicode="&#x492;" horiz-adv-x="515" 
d="M239 430h118l-6 -54h-118l-40 -376h-68l40 376h-78l6 54h78l28 270h381l-6 -62h-313z" />
    <glyph glyph-name="uni0493" unicode="&#x493;" horiz-adv-x="354" 
d="M177 264h107l-5 -47h-107l-23 -217h-66l23 217h-66l5 47h66l19 179h261l-6 -56h-195z" />
    <glyph glyph-name="uni0494" unicode="&#x494;" horiz-adv-x="569" 
d="M218 638l-31 -291q25 46 71 76t112 30q86 0 126 -55q19 -26 24.5 -60t0.5 -78l-41 -395q-6 -59 -40.5 -94t-106.5 -35q-23 0 -33.5 2.5t-17.5 3.5l7 64q3 -2 10 -3.5t15 -2.5t15.5 -1.5t12.5 -0.5q29 0 48 19.5t23 54.5l38 369q3 33 -1 61t-17 48.5t-36 32.5t-56 12
q-39 0 -68.5 -15.5t-50 -39.5t-32.5 -54t-15 -59l-24 -227h-68l74 700h266l-7 -62h-198z" />
    <glyph glyph-name="uni0495" unicode="&#x495;" horiz-adv-x="492" 
d="M195 443l-25 -233q9 19 22 36t31 30.5t40.5 21.5t49.5 8q72 0 106 -53q31 -48 21 -140l-26 -248q-6 -59 -42.5 -94t-108.5 -35q-11 0 -18.5 1t-25.5 5l6 57q3 -2 10 -3.5t15 -2.5t15.5 -1.5t12.5 -0.5q29 0 48 19.5t23 54.5l25 244q3 29 0 54.5t-13 44t-28 29.5t-45 11
q-29 0 -52 -12.5t-39 -32.5t-25.5 -45t-12.5 -51l-11 -107h-65l47 443h65z" />
    <glyph glyph-name="uni0496" unicode="&#x496;" horiz-adv-x="869" 
d="M783 -103l11 103h-26l-267 343l-36 -343h-65l36 343l-339 -343h-88l359 356q-93 10 -128 100l-42 105q-16 40 -36 59.5t-52 19.5h-32l7 63h40q50 0 79.5 -30.5t49.5 -79.5l49 -118q20 -50 47.5 -69.5t67.5 -19.5h23l33 314h65l-33 -314h23q40 0 71 19.5t62 69.5l73 118
q30 49 66.5 79.5t87.5 30.5h39l-7 -63h-32q-32 0 -56 -19.5t-48 -59.5l-64 -105q-28 -46 -64.5 -70.5t-84.5 -29.5l284 -356l-11 -103h-62z" />
    <glyph glyph-name="uni0497" unicode="&#x497;" horiz-adv-x="661" 
d="M99 0h-77l247 229q-38 1 -62 15t-37 46l-21 51q-9 23 -22.5 37.5t-33.5 14.5h-28l6 54h36q31 0 53.5 -16t38.5 -54l29 -70q13 -31 29 -43t48 -12h21l21 191h61l-21 -191h21q32 0 51 12t38 43l45 70q24 38 49.5 54t56.5 16h36l-6 -54h-27q-20 0 -36 -14.5t-30 -37.5
l-32 -51q-20 -32 -47.5 -46t-65.5 -15l199 -229l-9 -89h-48l9 89h-29l-178 215l-23 -215h-61l23 215z" />
    <glyph glyph-name="uni0498" unicode="&#x498;" horiz-adv-x="560" 
d="M132 208q-4 -36 5.5 -65.5t30 -50t50 -31.5t66.5 -11q39 0 71 12t55 33t35.5 50t12.5 62q0 56 -37 89.5t-113 33.5h-50l6 61h50q42 0 73.5 11.5t52.5 31t31.5 45t10.5 52.5q0 53 -36.5 86t-102.5 33q-35 0 -65 -9.5t-53.5 -27.5t-38.5 -44t-18 -59h-68q4 45 25 82t55 64
t78 41.5t95 14.5q44 0 80.5 -11t62.5 -32.5t40.5 -52.5t14.5 -71q0 -70 -41.5 -118.5t-107.5 -61.5q54 -10 89 -48t35 -116q0 -91 -55 -140.5t-175 -68.5q-10 -2 -15 -2l-7 -62q20 23 56 23q32 0 52 -20.5t20 -52.5q0 -19 -7.5 -36.5t-21 -31t-32 -21.5t-40.5 -8
q-13 0 -28.5 3.5t-29 12t-23 23.5t-10.5 38h43q2 -17 14.5 -28t33.5 -11q26 0 42.5 16t16.5 39q0 19 -12.5 32t-34.5 13q-13 0 -26.5 -6t-23.5 -23h-38l10 100q-43 6 -77 23.5t-56.5 45t-32.5 65.5t-5 84h68z" />
    <glyph glyph-name="uni0499" unicode="&#x499;" horiz-adv-x="415" 
d="M112 126q-4 -38 21.5 -60t75.5 -22q48 0 77.5 21.5t29.5 60.5q0 33 -23 52.5t-68 19.5h-45l5 49h42q51 0 76.5 24t25.5 59q0 33 -22 51.5t-64 18.5q-46 0 -72.5 -22t-29.5 -57h-64q6 59 53.5 95.5t120.5 36.5q66 0 104 -30.5t38 -81.5q0 -45 -29 -76t-76 -39
q41 -5 66 -30.5t25 -69.5q0 -28 -11 -51.5t-32 -41.5t-50.5 -28.5t-66.5 -11.5q-2 0 -12.5 -0.5t-12.5 1.5l-7 -66q20 23 56 23q31 0 51.5 -20.5t20.5 -52.5q0 -19 -7.5 -36.5t-21 -31t-32 -21.5t-40.5 -8q-13 0 -28.5 3.5t-29 12t-23 23.5t-10.5 38h43q2 -17 14.5 -28
t33.5 -11q26 0 42 16t16 39q0 19 -11.5 32t-34.5 13q-14 0 -27 -6t-24 -23h-37l11 106q-54 11 -80 45t-21 85h64z" />
    <glyph glyph-name="uni049A" unicode="&#x49a;" horiz-adv-x="586" 
d="M492 -103l11 103h-29l-287 342l-36 -342h-68l74 700h68l-32 -301h22q34 0 69.5 16t70.5 67l82 118q32 46 68.5 74.5t87.5 28.5h44l-7 -63h-33q-33 0 -58 -16.5t-51 -55.5l-76 -111q-32 -48 -72 -69t-85 -26l309 -362l-11 -103h-61z" />
    <glyph glyph-name="uni049B" unicode="&#x49b;" horiz-adv-x="480" 
d="M392 -89l9 89h-32l-199 211l-22 -211h-65l47 443h65l-21 -197h17q20 0 40 11t45 43l67 86q23 29 45.5 45t55.5 16h43l-6 -54h-28q-22 0 -37 -9.5t-32 -31.5l-50 -66q-23 -30 -46 -43.5t-55 -15.5l218 -227l-9 -89h-50z" />
    <glyph glyph-name="uni049C" unicode="&#x49c;" horiz-adv-x="582" 
d="M243 394h1q20 0 35 4.5t29.5 16.5t30 32.5t35.5 52.5l61 100q29 48 67.5 75.5t89.5 27.5h45l-7 -63h-33q-33 0 -59 -16t-50 -56l-59 -96q-31 -51 -60.5 -77.5t-70.5 -31.5l266 -363h-90l-237 333l-15 -139h-20l15 139h-31l-35 -333h-68l74 700h68l-33 -306h31l17 159h20z
" />
    <glyph glyph-name="uni049D" unicode="&#x49d;" horiz-adv-x="480" 
d="M213 246h6q23 0 37 12.5t34 41.5l59 86q21 31 43.5 46t55.5 15h39l-6 -54h-23q-23 0 -38 -9.5t-31 -31.5l-45 -66q-22 -31 -39 -43.5t-37 -14.5l183 -228h-82l-160 211l-11 -102h-19l11 102h-20l-22 -211h-65l47 443h65l-21 -197h20l10 98h19z" />
    <glyph glyph-name="uni049E" unicode="&#x49e;" horiz-adv-x="597" 
d="M171 700h68l-11 -106h90l-5 -49h-90l-15 -146h22q34 0 69 16t70 67l83 118q32 46 68.5 74.5t87.5 28.5h43l-7 -63h-32q-33 0 -58.5 -16.5t-51.5 -55.5l-75 -111q-32 -47 -72.5 -68.5t-84.5 -26.5l309 -362h-90l-287 342l-36 -342h-68l57 545h-78l5 49h78z" />
    <glyph glyph-name="uni049F" unicode="&#x49f;" horiz-adv-x="475" 
d="M125 443h66l-7 -61h67l-4 -41h-67l-10 -95h17q21 0 41 11.5t44 42.5l66 86q23 30 46.5 45.5t55.5 15.5h43l-6 -54h-28q-22 0 -37 -9.5t-32 -31.5l-50 -66q-26 -34 -50 -45.5t-51 -13.5l217 -227h-82l-198 211l-22 -211h-66l36 341h-61l4 41h61z" />
    <glyph glyph-name="uni04A0" unicode="&#x4a0;" horiz-adv-x="661" 
d="M82 638l7 62h215l-32 -301h22q34 0 69 16t70 67l83 118q32 46 68.5 74.5t87.5 28.5h43l-7 -63h-32q-33 0 -59 -16.5t-52 -55.5l-74 -111q-29 -43 -69 -66.5t-88 -28.5l309 -362h-90l-287 342l-36 -342h-68l67 638h-147z" />
    <glyph glyph-name="uni04A1" unicode="&#x4a1;" horiz-adv-x="505" 
d="M58 387l6 56h157l-21 -197h17q21 0 41.5 11.5t43.5 42.5l66 86q23 30 46.5 45.5t55.5 15.5h43l-5 -54h-28q-24 0 -39.5 -10.5t-30.5 -30.5l-50 -66q-26 -34 -50 -45.5t-51 -13.5l217 -227h-82l-197 211l-23 -211h-66l41 387h-91z" />
    <glyph glyph-name="uni04A2" unicode="&#x4a2;" horiz-adv-x="665" 
d="M511 0l33 317h-360l-33 -317h-68l74 700h68l-34 -321h360l34 321h69l-67 -638h41l-18 -165h-68l11 103h-42z" />
    <glyph glyph-name="uni04A3" unicode="&#x4a3;" horiz-adv-x="575" 
d="M436 194h-268l-20 -194h-65l47 443h65l-21 -192h268l21 192h65l-41 -387h48l-15 -145h-65l9 89h-48z" />
    <glyph glyph-name="uni04A4" unicode="&#x4a4;" horiz-adv-x="761" 
d="M580 0h-69l33 317h-360l-33 -317h-68l74 700h68l-34 -321h360l34 321h235l-7 -62h-166z" />
    <glyph glyph-name="uni04A5" unicode="&#x4a5;" horiz-adv-x="615" 
d="M644 443l-6 -56h-116l-41 -387h-65l20 194h-268l-20 -194h-65l47 443h65l-21 -192h268l21 192h181z" />
    <glyph glyph-name="uni04A6" unicode="&#x4a6;" horiz-adv-x="685" 
d="M218 638l-67 -638h-68l74 700h502l-67 -638h56l-18 -165h-68l11 103h-56l67 638h-366z" />
    <glyph glyph-name="uni04A7" unicode="&#x4a7;" horiz-adv-x="578" 
d="M490 56h48l-15 -145h-65l9 89h-48l41 387h-271l-41 -387h-65l47 443h401z" />
    <glyph glyph-name="uni04A8" unicode="&#x4a8;" horiz-adv-x="823" 
d="M453 653q-69 0 -125 -27t-95.5 -72t-61 -103.5t-21.5 -122.5q0 -56 17 -107t49.5 -89.5t80.5 -61.5t110 -23h7.5t11.5 1l48 460q6 57 24 97t44.5 64.5t59 35.5t67.5 11q36 0 65.5 -11t50 -36t29.5 -64t3 -94l-16 -147q-7 -66 -32.5 -126.5t-66.5 -110t-96 -84.5t-122 -49
l-13 -121q-4 -35 13.5 -54.5t51.5 -19.5q4 0 12.5 0.5t17.5 1t17.5 2t12.5 3.5l-7 -63q-3 -2 -13 -3.5t-21.5 -2t-22.5 -1t-16 -0.5q-53 0 -84.5 35t-25.5 95l13 121q-5 -1 -10.5 -1h-11.5q-77 0 -136 26.5t-100 71.5t-62 104.5t-21 126.5q0 77 27.5 149.5t77.5 128t120 89
t156 33.5zM733 364l16 155q7 65 -17 102.5t-72 37.5q-44 0 -78.5 -34t-42.5 -104l-48 -460q51 14 93 43.5t73.5 70t50.5 89.5t25 100z" />
    <glyph glyph-name="uni04A9" unicode="&#x4a9;" horiz-adv-x="557" 
d="M298 392q-38 0 -69 -15t-53 -40t-34 -58t-12 -70q0 -33 9.5 -62t28.5 -51t46 -34.5t62 -12.5h4t7 1l28 269q4 39 16 65t29.5 41t39 21.5t44.5 6.5q54 0 80 -31.5t19 -100.5l-9 -94q-4 -41 -20 -78t-42 -67t-60.5 -52t-75.5 -32l-14 -136q-4 -33 9.5 -52t40.5 -19
q9 0 25 2t24 6l-6 -57q-17 -4 -24 -5t-17 -1q-66 0 -89.5 34.5t-17.5 91.5l13 128q-4 -1 -14 -1q-48 0 -85 17.5t-63 46.5t-39.5 68t-13.5 82q0 49 17 94t48.5 79.5t75.5 55t98 20.5zM475 230l9 84q4 36 -7.5 59.5t-41.5 23.5q-57 0 -66 -85l-26 -250q55 20 90.5 65.5
t41.5 102.5z" />
    <glyph glyph-name="uni04AA" unicode="&#x4aa;" horiz-adv-x="775" 
d="M711 464q-6 40 -23.5 75t-47.5 60t-71.5 39.5t-94.5 14.5q-75 0 -135.5 -28t-102.5 -74.5t-65 -106.5t-23 -123q0 -56 18 -106t52.5 -87.5t84 -59t112.5 -21.5q92 0 161.5 44.5t103.5 114.5h75q-22 -47 -50.5 -85.5t-68 -66t-93 -45t-125.5 -22.5q-2 0 -8 -0.5t-8 -0.5
l-6 -58q18 23 56 23q32 0 52 -20.5t20 -52.5q0 -19 -8 -36.5t-21.5 -31t-32 -21.5t-40.5 -8q-13 0 -28.5 3.5t-28.5 12t-22.5 23.5t-10.5 38h43q2 -17 14 -28t33 -11q26 0 42.5 16t16.5 39q0 18 -11.5 31.5t-34.5 13.5q-14 0 -27 -6t-24 -23h-37l10 98q-68 8 -120 37t-87 73
t-53.5 99.5t-18.5 117.5q0 77 28 149t80 128t126 89.5t167 33.5q71 0 125.5 -20t92.5 -54t59.5 -80t25.5 -97h-71z" />
    <glyph glyph-name="uni04AB" unicode="&#x4ab;" horiz-adv-x="524" 
d="M219 -6q-38 7 -66.5 26.5t-47 47t-28 61t-9.5 69.5q0 48 16.5 94t48.5 82t78.5 58t107.5 22q51 0 87 -15.5t58 -40t31.5 -55.5t8.5 -62h-65q0 22 -6.5 42.5t-21.5 36.5t-39 25.5t-58 9.5q-45 0 -78.5 -16.5t-56 -43.5t-34 -62t-11.5 -72q0 -31 8.5 -58.5t26 -48.5t45 -33
t66.5 -12q60 0 96 28.5t51 74.5h65q-17 -67 -72.5 -110.5t-143.5 -50.5l-13 -1l-6 -62q18 23 56 23q32 0 52 -20.5t20 -52.5q0 -19 -7.5 -36.5t-21 -31t-32.5 -21.5t-42 -8q-15 0 -30.5 4.5t-28 13.5t-21 23.5t-9.5 35.5h43q2 -17 14 -28t33 -11q26 0 42.5 16t16.5 39
q0 19 -11.5 32t-34.5 13q-14 0 -27 -6t-24 -23h-37z" />
    <glyph glyph-name="uni04AC" unicode="&#x4ac;" horiz-adv-x="474" 
d="M269 638h-188l7 62h446l-7 -62h-190l-61 -576h42l-17 -165h-68l11 103h-42z" />
    <glyph glyph-name="uni04AD" unicode="&#x4ad;" horiz-adv-x="372" 
d="M404 443l-6 -56h-139l-35 -331h48l-15 -145h-65l9 89h-48l41 387h-138l6 56h342z" />
    <glyph glyph-name="uni04AE" unicode="&#x4ae;" horiz-adv-x="587" 
d="M330 347l242 353h80l-294 -419l-30 -281h-69l30 281l-206 419h79z" />
    <glyph glyph-name="uni04AF" unicode="&#x4af;" horiz-adv-x="487" 
d="M252 86l199 357h71l-244 -427l-29 -274h-66l29 274l-153 427h71z" />
    <glyph glyph-name="uni04B0" unicode="&#x4b0;" horiz-adv-x="587" 
d="M346 170l-18 -170h-69l18 170h-122l6 53h122l6 58l-206 419h79l168 -353l242 353h80l-294 -419l-6 -58h122l-6 -53h-122z" />
    <glyph glyph-name="uni04B1" unicode="&#x4b1;" horiz-adv-x="487" 
d="M252 86l199 357h71l-244 -427l-5 -53h104l-5 -46h-104l-19 -175h-66l19 175h-103l5 46h103l5 53l-153 427h71z" />
    <glyph glyph-name="uni04B2" unicode="&#x4b2;" horiz-adv-x="534" 
d="M465 -95l10 95h-29l-149 290l-209 -290h-77l254 350l-180 350h77l148 -291l210 291h78l-255 -350l181 -350l-10 -95h-49z" />
    <glyph glyph-name="uni04B3" unicode="&#x4b3;" horiz-adv-x="434" 
d="M353 -89l9 89h-27l-100 172l-136 -172h-76l179 222l-131 221h76l99 -170l135 170h75l-178 -221l133 -222l-9 -89h-49z" />
    <glyph glyph-name="uni04B4" unicode="&#x4b4;" horiz-adv-x="781" 
d="M277 62h332l68 638h68l-68 -638h90l-17 -165h-62l11 103h-496l67 638h-188l7 62h446l-7 -62h-190z" />
    <glyph glyph-name="uni04B5" unicode="&#x4b5;" horiz-adv-x="639" 
d="M214 56h261l41 387h65l-41 -387h75l-15 -145h-65l9 89h-401l41 387h-126l6 56h317l-6 -56h-126z" />
    <glyph glyph-name="uni04B6" unicode="&#x4b6;" horiz-adv-x="579" 
d="M411 0l24 234h-147q-59 0 -100.5 16.5t-67 46t-35 71t-4.5 91.5l25 241h69l-24 -225q-4 -39 2 -72t24.5 -57t50.5 -37t79 -13h135l42 404h68l-67 -638h56l-17 -165h-68l11 103h-56z" />
    <glyph glyph-name="uni04B7" unicode="&#x4b7;" horiz-adv-x="471" 
d="M311 0l15 143h-114q-75 0 -111.5 39t-28.5 115l15 146h66l-15 -145q-5 -48 16.5 -73.5t72.5 -25.5h105l26 244h66l-41 -387h48l-15 -145h-65l9 89h-49z" />
    <glyph glyph-name="uni04B8" unicode="&#x4b8;" horiz-adv-x="572" 
d="M338 296h114l43 404h68l-74 -700h-68l25 234h-114l-10 -99h-47l10 99q-55 2 -94 19t-63 47t-32.5 70.5t-3.5 88.5l25 241h68l-24 -225q-8 -75 22 -122.5t109 -54.5l12 119h47z" />
    <glyph glyph-name="uni04B9" unicode="&#x4b9;" horiz-adv-x="487" 
d="M257 199h75l26 244h66l-47 -443h-66l15 143h-75l-8 -82h-38l8 82h-2q-75 0 -111 39t-28 115l15 146h66l-15 -145q-5 -50 16 -73.5t65 -25.5l12 107h38z" />
    <glyph glyph-name="uni04BA" unicode="&#x4ba;" horiz-adv-x="586" 
d="M157 700h68l-25 -230h146q52 0 91 -15.5t63 -44t33.5 -69t4.5 -89.5l-26 -252h-69l25 235q8 82 -25.5 127.5t-114.5 45.5h-134l-43 -408h-68z" />
    <glyph glyph-name="uni04BB" unicode="&#x4bb;" horiz-adv-x="562" 
d="M157 700h65l-38 -353q24 45 70 75.5t112 30.5q43 0 74.5 -14.5t50.5 -40.5t24 -60t0 -78l-27 -260h-65l25 241q3 33 -1 61t-17 48.5t-36 32.5t-56 12q-38 0 -67.5 -14.5t-50 -38.5t-33 -54t-15.5 -61l-24 -227h-65z" />
    <glyph glyph-name="uni04BC" unicode="&#x4bc;" horiz-adv-x="927" 
d="M608 654q-61 0 -113 -21t-91.5 -57.5t-64.5 -87t-32 -108.5h546q5 57 -9.5 107t-46 87t-79.5 58.5t-110 21.5zM545 -12q-88 -2 -151 26t-103 75.5t-57 108.5t-13 127h-41q-65 0 -95.5 36.5t-24.5 96.5l5 52h62l-5 -51q-4 -35 12.5 -57t58.5 -22h34q12 70 45 131.5
t83.5 107t116 71.5t141.5 26q79 0 140.5 -28t102 -75.5t58.5 -111t9 -135.5l-5 -41h-617q-3 -56 10 -106t44 -87.5t79.5 -59t116.5 -21.5q51 0 92 12.5t73.5 34.5t56 51.5t40.5 63.5h81q-19 -47 -51.5 -87.5t-77 -70.5t-100 -48t-120.5 -19z" />
    <glyph glyph-name="uni04BD" unicode="&#x4bd;" horiz-adv-x="623" 
d="M241 207q-3 -30 3 -59t22 -51.5t43.5 -36.5t69.5 -14q57 0 90.5 24t49.5 57h66q-9 -27 -27.5 -52t-46 -44t-63 -30.5t-77.5 -11.5q-52 0 -89.5 17t-61.5 46.5t-35 69t-8 83.5l-16 2q-61 0 -90 33t-24 88l4 42h57l-4 -41q-3 -32 12 -51.5t52 -19.5h15q9 43 30 78.5
t51 61.5t68.5 40.5t82.5 14.5q43 0 78 -14t59.5 -38.5t38 -58t13.5 -73.5q0 -19 -2.5 -32.5t-6.5 -29.5h-354zM409 402q-30 0 -57.5 -9.5t-49 -28t-36 -45.5t-20.5 -61h294q3 33 -5 59.5t-25.5 45t-43.5 29t-57 10.5z" />
    <glyph glyph-name="uni04BE" unicode="&#x4be;" horiz-adv-x="927" 
d="M515 -11q-76 4 -133 32.5t-93.5 74t-53.5 104.5t-14 125h-41q-65 0 -95.5 36.5t-24.5 96.5l5 52h62l-5 -51q-4 -35 12.5 -57t58.5 -22h34q12 70 45 131.5t83.5 107t116 71.5t141.5 26q79 0 140.5 -28t102 -75.5t58.5 -111t9 -135.5l-5 -41h-617q-3 -56 10 -106t44 -87.5
t79.5 -59t116.5 -21.5q51 0 92 12.5t73.5 34.5t56 51.5t40.5 63.5h81q-17 -45 -48 -84.5t-73 -70t-95 -49t-114 -21.5q-25 -20 -37 -44t-12 -46q0 -24 15.5 -41.5t49.5 -17.5q16 0 35.5 4t35.5 10l-7 -50q-16 -5 -39.5 -10t-48.5 -5q-54 0 -80.5 25.5t-26.5 63.5
q0 63 66 112zM608 654q-61 0 -113 -21t-91.5 -57.5t-64.5 -87t-32 -108.5h546q5 57 -9.5 107t-46 87t-79.5 58.5t-110 21.5z" />
    <glyph glyph-name="uni04BF" unicode="&#x4bf;" horiz-adv-x="623" 
d="M345 -8q-46 4 -79 22.5t-53.5 47t-29.5 65.5t-6 78l-16 2q-61 0 -90 33t-24 88l4 42h57l-4 -41q-3 -32 12 -51.5t52 -19.5h15q9 43 30 78.5t51 61.5t68.5 40.5t82.5 14.5q43 0 78 -14t59.5 -38.5t38 -58t13.5 -73.5q0 -19 -2.5 -32.5t-6.5 -29.5h-354q-3 -30 3 -59
t22 -51.5t43.5 -36.5t69.5 -14q57 0 90.5 24t49.5 57h66q-9 -26 -26 -49.5t-42 -42t-57 -30.5t-69 -15q-25 -20 -40.5 -44.5t-15.5 -48.5q0 -23 16 -40.5t49 -17.5q16 0 36 4t35 10l-7 -50q-16 -5 -39.5 -10t-47.5 -5q-55 0 -81 26t-26 61q0 32 20 61.5t55 55.5zM409 402
q-30 0 -57.5 -9.5t-49 -28t-36 -45.5t-20.5 -61h294q3 33 -5 59.5t-25.5 45t-43.5 29t-57 10.5z" />
    <glyph glyph-name="uni04C0" unicode="&#x4c0;" horiz-adv-x="236" 
d="M157 700h70l-74 -700h-70z" />
    <glyph glyph-name="uni04C3" unicode="&#x4c3;" horiz-adv-x="595" 
d="M192 391h25q19 0 35.5 3.5t32.5 13t32 28t36 48.5l77 118q31 47 69 74.5t90 27.5h45l-7 -62h-33q-34 0 -60.5 -17t-51.5 -55l-71 -110q-17 -26 -37.5 -45t-39.5 -24h29q86 -5 128 -51q22 -24 29.5 -57.5t2.5 -78.5l-35 -339q-6 -59 -44 -94t-113 -35q-23 0 -34 2.5
t-18 3.5l7 64q7 -4 25 -6t29 -2q32 0 54 19.5t26 54.5l32 310q4 36 -1.5 66.5t-21 53t-41 35t-62.5 12.5h-138l-37 -349h-68l74 700h68z" />
    <glyph glyph-name="uni04C4" unicode="&#x4c4;" horiz-adv-x="499" 
d="M174 244h22q20 0 39 13t42 43l66 86q23 30 46.5 45.5t55.5 15.5h49l-6 -54h-34q-23 0 -37.5 -10t-31.5 -31l-48 -63q-14 -19 -27.5 -29t-28.5 -17h21q38 -2 64 -16.5t41 -36.5q16 -23 20.5 -53t-0.5 -72l-21 -200q-6 -59 -42.5 -94t-110.5 -35q-23 0 -32.5 2.5t-16.5 3.5
l6 57q6 -4 24 -6t29 -2q32 0 53 19.5t25 54.5l22 214q3 26 -0.5 48.5t-14.5 39t-30.5 25.5t-49.5 9h-99l-21 -201h-65l47 443h65z" />
    <glyph glyph-name="uni04C5" unicode="&#x4c5;" horiz-adv-x="691" 
d="M16 50h36q35 0 56 17t26 65l60 568h479l-67 -638h47l-81 -165h-69l51 103h-23l67 638h-342l-54 -516q-8 -73 -47 -103.5t-95 -30.5h-51z" />
    <glyph glyph-name="uni04C6" unicode="&#x4c6;" horiz-adv-x="555" 
d="M20 49h22q27 0 44.5 11.5t22.5 54.5l34 328h372l-40 -381h36l-77 -159h-64l47 97h-14l41 387h-242l-29 -280q-7 -66 -41.5 -91.5t-82.5 -25.5h-35z" />
    <glyph glyph-name="uni04C7" unicode="&#x4c7;" horiz-adv-x="659" 
d="M566 -135q-6 -59 -41 -94t-107 -35q-23 0 -33 2.5t-17 3.5l7 64q3 -2 10 -3.5t15 -2.5t15.5 -1.5t12.5 -0.5q30 0 48 19.5t22 54.5l47 445h-361l-33 -317h-68l74 700h68l-34 -321h360l34 321h69z" />
    <glyph glyph-name="uni04C8" unicode="&#x4c8;" horiz-adv-x="561" 
d="M467 -135q-8 -69 -39 -99.5t-79 -30.5q-13 0 -33 2.5t-34 9.5l6 57q15 -6 25 -8.5t21 -2.5q60 0 68 76l34 325h-268l-20 -194h-65l47 443h65l-21 -192h268l21 192h65z" />
    <glyph glyph-name="uni04C9" unicode="&#x4c9;" horiz-adv-x="670" 
d="M544 317h-360l-33 -317h-68l74 700h68l-34 -321h360l34 321h69l-67 -638h47l-81 -165h-69l51 103h-24z" />
    <glyph glyph-name="uni04CA" unicode="&#x4ca;" horiz-adv-x="575" 
d="M443 194h-268l-20 -194h-65l47 443h65l-21 -192h268l21 192h65l-40 -381h36l-78 -159h-63l47 97h-14z" />
    <glyph glyph-name="uni04CB" unicode="&#x4cb;" horiz-adv-x="572" 
d="M448 0l-11 -103h-69l17 165h42l18 172h-147q-59 0 -100.5 16.5t-67 46t-35 71t-4.5 91.5l25 241h69l-24 -225q-4 -39 2 -72t24.5 -57t50.5 -37t79 -13h135l42 404h68l-73 -700h-41z" />
    <glyph glyph-name="uni04CC" unicode="&#x4cc;" horiz-adv-x="465" 
d="M306 0l15 143h-114q-76 0 -112 39t-28 115l15 146h65l-15 -145q-5 -48 17 -73.5t73 -25.5h105l26 244h65l-41 -387h48l-15 -145h-65l9 89h-48z" />
    <glyph glyph-name="uni04CD" unicode="&#x4cd;" horiz-adv-x="820" 
d="M734 62h47l-81 -165h-68l50 103h-23l57 541l-284 -541h-54l-170 541l-57 -541h-68l74 700h66l193 -597l319 597h66z" />
    <glyph glyph-name="uni04CE" unicode="&#x4ce;" horiz-adv-x="706" 
d="M627 62h36l-78 -159h-58l47 97h-14l40 384l-226 -384h-45l-146 384l-40 -384h-60l47 443h95l135 -356l211 356h96z" />
    <glyph glyph-name="uni04D0" unicode="&#x4d0;" horiz-adv-x="546" 
d="M540 0h-72l-30 125h-304l-56 -125h-72l315 700h52zM162 187h262l-89 404zM361 824q48 0 84 24.5t51 69.5h62q-9 -33 -28.5 -59.5t-46.5 -46t-60 -30t-69 -10.5t-66.5 10.5t-53 30t-36.5 46t-16 59.5h62q6 -45 37 -69.5t80 -24.5z" />
    <glyph glyph-name="uni04D1" unicode="&#x4d1;" horiz-adv-x="592" 
d="M556 443l-47 -443h-65l10 93q-26 -45 -74.5 -74.5t-111.5 -29.5q-46 0 -83.5 17t-64 45.5t-41 67t-14.5 81.5q0 51 19.5 96.5t53.5 80.5t80 55.5t99 20.5q66 0 106.5 -29.5t57.5 -74.5l10 94h65zM282 49q40 0 74.5 15.5t59 41.5t38.5 60t14 72q0 32 -10.5 60.5t-30 49.5
t-47.5 33.5t-64 12.5q-40 0 -74 -15.5t-59 -41.5t-39 -60t-14 -72q0 -32 10 -60.5t29.5 -49.5t48 -33.5t64.5 -12.5zM338 606q47 0 82 24.5t50 69.5h61q-9 -33 -28 -59.5t-45.5 -46t-58.5 -30t-67 -10.5q-71 0 -116.5 40t-50.5 106h62q6 -45 35 -69.5t76 -24.5z" />
    <glyph glyph-name="uni04D2" unicode="&#x4d2;" horiz-adv-x="546" 
d="M540 0h-72l-30 125h-304l-56 -125h-72l315 700h52zM162 187h262l-89 404zM416 826q0 27 19.5 46.5t46.5 19.5q24 0 39.5 -16t15.5 -39q0 -27 -20.5 -46t-46.5 -19q-24 0 -39 15.5t-15 38.5zM186 826q0 27 20 46.5t46 19.5q24 0 39.5 -16t15.5 -39q0 -27 -20.5 -46
t-46.5 -19q-24 0 -39 15.5t-15 38.5z" />
    <glyph glyph-name="uni04D3" unicode="&#x4d3;" horiz-adv-x="592" 
d="M444 0l10 93q-26 -45 -74.5 -74.5t-111.5 -29.5q-46 0 -83.5 17t-64 45.5t-41 67t-14.5 81.5q0 51 19.5 96.5t53.5 80.5t80 55.5t99 20.5q66 0 106.5 -29.5t57.5 -74.5l10 94h65l-47 -443h-65zM282 49q40 0 74.5 15.5t59 41.5t38.5 60t14 72q0 32 -10.5 60.5t-30 49.5
t-47.5 33.5t-64 12.5q-40 0 -74 -15.5t-59 -41.5t-39 -60t-14 -72q0 -32 10 -60.5t29.5 -49.5t48 -33.5t64.5 -12.5zM447 546q-24 0 -39.5 15.5t-15.5 38.5q0 27 20 46.5t46 19.5q24 0 39.5 -16t15.5 -39q0 -28 -20 -46.5t-46 -18.5zM217 546q-24 0 -39.5 15.5t-15.5 38.5
q0 27 20 46.5t46 19.5q24 0 39.5 -16t15.5 -39q0 -28 -20 -46.5t-46 -18.5z" />
    <glyph glyph-name="uni04D4" unicode="&#x4d4;" horiz-adv-x="849" 
d="M524 638l-27 -259h314l-7 -62h-314l-26 -255h314l-7 -62h-382l13 125h-246l-75 -125h-75l424 700h415l-7 -62h-314zM409 188l46 436l-262 -436h216z" />
    <glyph glyph-name="uni04D5" unicode="&#x4d5;" horiz-adv-x="916" 
d="M556 443l-7 -61q27 32 67.5 51.5t90.5 19.5q41 0 75.5 -13.5t59 -38t38.5 -58.5t14 -74q0 -19 -2.5 -32.5t-6.5 -29.5h-353q-4 -34 2.5 -63.5t23 -51t44 -34t66.5 -12.5q57 0 90.5 24t49.5 57h67q-9 -27 -28 -51.5t-46 -44t-61.5 -31t-75.5 -11.5q-53 0 -90 19.5
t-58 54.5l-7 -63h-65l10 93q-26 -45 -74.5 -74.5t-111.5 -29.5q-46 0 -83.5 17t-64 45.5t-41 67t-14.5 81.5q0 51 19.5 96.5t53.5 80.5t80 55.5t99 20.5q66 0 106.5 -29.5t57.5 -74.5l10 94h65zM700 397q-63 0 -107.5 -37.5t-54.5 -101.5h291q3 31 -5 57t-25 44t-42.5 28
t-56.5 10zM282 49q40 0 74.5 15.5t59 41.5t38.5 60t14 72q0 32 -10.5 60.5t-30 49.5t-47.5 33.5t-64 12.5q-40 0 -74 -15.5t-59 -41.5t-39 -60t-14 -72q0 -32 10 -60.5t29.5 -49.5t48 -33.5t64.5 -12.5z" />
    <glyph glyph-name="uni04D6" unicode="&#x4d6;" horiz-adv-x="543" 
d="M218 638l-27 -259h314l-7 -62h-314l-26 -255h314l-7 -62h-382l74 700h382l-7 -62h-314zM362 824q48 0 84 24.5t51 69.5h62q-9 -33 -28.5 -59.5t-46.5 -46t-60 -30t-69 -10.5t-66.5 10.5t-53.5 30t-37 46t-16 59.5h63q6 -45 37 -69.5t80 -24.5z" />
    <glyph glyph-name="uni04D7" unicode="&#x4d7;" horiz-adv-x="519" 
d="M133 207q-2 -30 3.5 -59t21.5 -51.5t43.5 -36.5t69.5 -14q57 0 91 24t49 57h66q-9 -27 -27.5 -52t-45.5 -44t-62.5 -30.5t-77.5 -11.5q-50 0 -87 16.5t-61 44.5t-36 66t-12 81q0 54 17 100.5t48.5 81t75.5 54.5t97 20q44 0 79.5 -14t60 -38.5t38 -58t13.5 -73.5
q0 -19 -2.5 -32.5t-6.5 -29.5h-355zM303 402q-61 0 -107 -37.5t-56 -106.5h293q3 33 -5 59.5t-25 45t-43 29t-57 10.5zM328 606q47 0 82 24.5t50 69.5h61q-9 -33 -28 -59.5t-45 -46t-58 -30t-67 -10.5t-65 10.5t-52 30t-35.5 46t-15.5 59.5h61q6 -45 35.5 -69.5t76.5 -24.5z
" />
    <glyph glyph-name="uni04D8" unicode="&#x4d8;" horiz-adv-x="783" 
d="M106 490q18 46 50 87t77 72t101.5 49t122.5 18q80 0 140 -26t100.5 -70.5t61 -104t20.5 -126.5q0 -81 -28.5 -153.5t-79.5 -127.5t-123 -87.5t-159 -32.5q-80 0 -141.5 28t-102 76t-58 112t-10.5 136l4 41h627q3 54 -11 103t-45 86.5t-81 59.5t-119 22q-52 0 -93.5 -12.5
t-74 -34.5t-56 -51.5t-40.5 -63.5h-82zM393 49q60 0 113 20.5t94 57t67.5 87t34.5 111.5h-554q-5 -57 9 -107.5t46 -88t80 -59t110 -21.5z" />
    <glyph glyph-name="uni04D9" unicode="&#x4d9;" horiz-adv-x="519" 
d="M265 41q30 0 57.5 9.5t49 28t36 45.5t20.5 61h-294q-3 -33 5 -59.5t25.5 -45t43 -29t57.5 -10.5zM433 236q3 32 -3.5 61.5t-23 51.5t-43.5 35t-67 13q-57 0 -91 -24.5t-49 -56.5h-66q8 27 26.5 52t45.5 44t62.5 30t77.5 11q50 0 87 -16t61 -44t36 -66t12 -81
q0 -54 -17 -100.5t-48.5 -81.5t-75.5 -55t-97 -20q-44 0 -79.5 14t-60.5 38.5t-38 58.5t-13 74q0 19 2.5 32.5t6.5 29.5h355z" />
    <glyph glyph-name="uni04DA" unicode="&#x4da;" horiz-adv-x="783" 
d="M106 490q18 46 50 87t77 72t101.5 49t122.5 18q80 0 140 -26t100.5 -70.5t61 -104t20.5 -126.5q0 -81 -28.5 -153.5t-79.5 -127.5t-123 -87.5t-159 -32.5q-80 0 -141.5 28t-102 76t-58 112t-10.5 136l4 41h627q3 54 -11 103t-45 86.5t-81 59.5t-119 22q-52 0 -93.5 -12.5
t-74 -34.5t-56 -51.5t-40.5 -63.5h-82zM393 49q60 0 113 20.5t94 57t67.5 87t34.5 111.5h-554q-5 -57 9 -107.5t46 -88t80 -59t110 -21.5zM357 772q-23 0 -38 15.5t-15 38.5q0 27 19.5 46.5t45.5 19.5q24 0 39 -16t15 -39q0 -27 -19.5 -46t-46.5 -19zM534 826
q0 27 19.5 46.5t45.5 19.5q24 0 39 -16t15 -39q0 -27 -19.5 -46t-46.5 -19q-23 0 -38 15.5t-15 38.5z" />
    <glyph glyph-name="uni04DB" unicode="&#x4db;" horiz-adv-x="519" 
d="M433 236q3 32 -3.5 61.5t-23 51.5t-43.5 35t-67 13q-57 0 -91 -24.5t-49 -56.5h-66q8 27 26.5 52t45.5 44t62.5 30t77.5 11q50 0 87 -16t61 -44t36 -66t12 -81q0 -54 -17 -100.5t-48.5 -81.5t-75.5 -55t-97 -20q-44 0 -79.5 14t-60.5 38.5t-38 58.5t-13 74q0 19 2.5 32.5
t6.5 29.5h355zM265 41q62 0 107 38.5t56 105.5h-294q-7 -66 30 -105t101 -39zM382 599q0 27 19.5 46.5t46.5 19.5q23 0 38 -16t15 -39q0 -27 -19.5 -46t-45.5 -19q-24 0 -39 15.5t-15 38.5zM152 599q0 27 19.5 46.5t46.5 19.5q23 0 38 -16t15 -39q0 -27 -19.5 -46t-45.5 -19
q-24 0 -39 15.5t-15 38.5z" />
    <glyph glyph-name="uni04DC" unicode="&#x4dc;" horiz-adv-x="865" 
d="M97 0h-88l359 356q-93 10 -128 100l-42 105q-16 40 -36 59.5t-52 19.5h-32l7 63h40q50 0 79.5 -30.5t49.5 -79.5l49 -118q20 -50 47.5 -69.5t67.5 -19.5h23l33 314h65l-33 -314h23q40 0 71 19.5t62 69.5l73 118q30 49 66.5 79.5t87.5 30.5h39l-7 -63h-32q-32 0 -56 -19.5
t-48 -59.5l-64 -105q-28 -46 -64.5 -70.5t-84.5 -29.5l284 -356h-88l-267 343l-36 -343h-65l36 343zM574 826q0 27 20 46.5t46 19.5q24 0 39.5 -16t15.5 -39q0 -28 -20.5 -46.5t-46.5 -18.5q-24 0 -39 15.5t-15 38.5zM344 826q0 27 20 46.5t46 19.5q24 0 39.5 -16t15.5 -39
q0 -28 -20.5 -46.5t-46.5 -18.5q-24 0 -39 15.5t-15 38.5z" />
    <glyph glyph-name="uni04DD" unicode="&#x4dd;" horiz-adv-x="661" 
d="M99 0h-77l247 229q-38 1 -62 15t-37 46l-21 51q-9 23 -22.5 37.5t-33.5 14.5h-28l6 54h36q31 0 53.5 -16t38.5 -54l29 -70q13 -31 29 -43t48 -12h21l21 191h61l-21 -191h21q32 0 51 12t38 43l45 70q24 38 49.5 54t56.5 16h36l-6 -54h-27q-20 0 -36 -14.5t-30 -37.5
l-32 -51q-20 -32 -47.5 -46t-65.5 -15l199 -229h-77l-178 215l-23 -215h-61l23 215zM274 546q-24 0 -39.5 15.5t-15.5 38.5q0 27 20 46.5t46 19.5q24 0 39 -16t15 -39q0 -27 -19.5 -46t-45.5 -19zM504 546q-24 0 -39.5 15.5t-15.5 38.5q0 27 20 46.5t46 19.5q24 0 39 -16
t15 -39q0 -27 -19.5 -46t-45.5 -19z" />
    <glyph glyph-name="uni04DE" unicode="&#x4de;" horiz-adv-x="560" 
d="M132 208q-4 -36 6 -65.5t30 -50t50 -31.5t67 -11q39 0 71 12t55 33t35.5 50t12.5 62q0 56 -37 89.5t-114 33.5h-50l7 61h50q41 0 72.5 11.5t52.5 31t31.5 45t10.5 53.5q0 51 -35.5 84.5t-102.5 33.5q-35 0 -65.5 -9.5t-54 -27.5t-38.5 -44t-18 -59h-68q5 45 26 82
t54.5 64t77.5 41.5t95 14.5q44 0 80.5 -11t62.5 -32.5t40.5 -52.5t14.5 -71q0 -35 -11 -65t-30.5 -53.5t-46.5 -39.5t-60 -22q59 -10 91.5 -51.5t32.5 -104.5q0 -48 -19 -89t-52.5 -70t-79.5 -45.5t-100 -16.5q-52 0 -93.5 15t-69.5 43.5t-41 69.5t-8 92h68zM243 772
q-23 0 -38.5 15.5t-15.5 38.5q0 27 20 46.5t46 19.5q24 0 39.5 -16t15.5 -39q0 -27 -20 -46t-47 -19zM419 826q0 27 20 46.5t46 19.5q24 0 39.5 -16t15.5 -39q0 -27 -20 -46t-47 -19q-23 0 -38.5 15.5t-15.5 38.5z" />
    <glyph glyph-name="uni04DF" unicode="&#x4df;" horiz-adv-x="415" 
d="M113 126q-5 -38 21 -60t76 -22q48 0 77 21.5t29 60.5q0 33 -23 52.5t-68 19.5h-45l5 49h42q51 0 77 24t26 59q0 33 -22 51.5t-64 18.5q-47 0 -73 -22t-30 -57h-64q3 29 17 53.5t37 42t53.5 27t66.5 9.5q66 0 104.5 -30.5t38.5 -81.5q0 -45 -29 -76t-77 -39
q42 -5 66.5 -30.5t24.5 -67.5q0 -32 -14 -57.5t-39 -43.5t-58 -28t-70 -10q-75 0 -115.5 37.5t-33.5 99.5h64zM166 546q-23 0 -38.5 15.5t-15.5 38.5q0 27 20 46.5t46 19.5q23 0 38.5 -16t15.5 -39q0 -27 -20 -46t-46 -19zM292 600q0 27 20 46.5t46 19.5q24 0 39 -16t15 -39
q0 -27 -19.5 -46t-45.5 -19q-24 0 -39.5 15.5t-15.5 38.5z" />
    <glyph glyph-name="uni04E0" unicode="&#x4e0;" horiz-adv-x="566" 
d="M129 206q-4 -36 6 -65t30.5 -49t50 -31t65.5 -11q40 0 72.5 13t55.5 36t35.5 54t12.5 68q0 61 -36 97.5t-110 36.5h-77l231 283h-316l6 62h430l-245 -295q82 -2 133.5 -48t51.5 -133q0 -51 -19 -94.5t-53 -75t-81 -49t-102 -17.5q-50 0 -91 15t-69 43.5t-41 68.5t-8 91
h68z" />
    <glyph glyph-name="uni04E1" unicode="&#x4e1;" horiz-adv-x="488" 
d="M82 -73q-5 -62 28 -99.5t93 -37.5q35 0 64.5 13.5t50.5 38t33 58t12 73.5q0 81 -47.5 120.5t-134.5 39.5h-32l226 251h-275l6 59h389l-242 -271q78 -7 126.5 -55t48.5 -139q0 -53 -17.5 -98t-48.5 -77.5t-74.5 -51t-94.5 -18.5q-43 0 -77.5 13t-57.5 38t-34 61t-6 82h64z
" />
    <glyph glyph-name="uni04E2" unicode="&#x4e2;" horiz-adv-x="662" 
d="M568 553l-412 -507l-5 -46h-68l74 700h68l-59 -553l413 507l5 46h69l-74 -700h-69zM602 800h-358l6 59h358z" />
    <glyph glyph-name="uni04E3" unicode="&#x4e3;" horiz-adv-x="558" 
d="M445 330l-293 -296l-4 -34h-65l47 443h65l-35 -333l293 297l4 36h65l-47 -443h-65zM520 575h-358l7 59h358z" />
    <glyph glyph-name="uni04E4" unicode="&#x4e4;" horiz-adv-x="662" 
d="M568 553l-412 -507l-5 -46h-68l74 700h68l-59 -553l413 507l5 46h69l-74 -700h-69zM481 826q0 27 20 46.5t46 19.5q24 0 39.5 -16t15.5 -39q0 -28 -20.5 -46.5t-46.5 -18.5q-24 0 -39 15.5t-15 38.5zM251 826q0 27 20 46.5t46 19.5q24 0 39.5 -16t15.5 -39
q0 -28 -20.5 -46.5t-46.5 -18.5q-24 0 -39 15.5t-15 38.5z" />
    <glyph glyph-name="uni04E5" unicode="&#x4e5;" horiz-adv-x="558" 
d="M445 330l-293 -296l-4 -34h-65l47 443h65l-35 -333l293 297l4 36h65l-47 -443h-65zM229 546q-24 0 -39.5 15.5t-15.5 38.5q0 27 20 46.5t46 19.5q24 0 39.5 -16t15.5 -39q0 -27 -20 -46t-46 -19zM459 546q-24 0 -39.5 15.5t-15.5 38.5q0 27 20 46.5t46 19.5
q24 0 39.5 -16t15.5 -39q0 -27 -20 -46t-46 -19z" />
    <glyph glyph-name="uni04E6" unicode="&#x4e6;" horiz-adv-x="806" 
d="M405 -15q-80 0 -141 27t-102 73t-62.5 105.5t-21.5 124.5q0 76 29 148.5t81 128t125 89.5t162 34q79 0 140.5 -27t102.5 -73t62.5 -105.5t21.5 -124.5q0 -77 -29 -149t-81 -127.5t-125.5 -89.5t-161.5 -34zM149 320q0 -54 17 -103t50 -87t82 -60.5t112 -22.5q71 0 130 28
t101.5 74.5t66 106.5t23.5 124q0 54 -17 103t-50 87t-82 60.5t-113 22.5q-71 0 -130 -28t-101 -74.5t-65.5 -106.5t-23.5 -124zM369 772q-23 0 -38.5 15.5t-15.5 38.5q0 27 20 46.5t46 19.5q24 0 39.5 -16t15.5 -39q0 -27 -20 -46t-47 -19zM545 826q0 27 20 46.5t46 19.5
q24 0 39.5 -16t15.5 -39q0 -27 -20 -46t-47 -19q-23 0 -38.5 15.5t-15.5 38.5z" />
    <glyph glyph-name="uni04E7" unicode="&#x4e7;" horiz-adv-x="552" 
d="M218 546q-23 0 -38.5 15.5t-15.5 38.5q0 27 20 46.5t46 19.5q24 0 39.5 -16t15.5 -39q0 -27 -20 -46t-47 -19zM394 600q0 27 20 46.5t46 19.5q24 0 39 -16t15 -39q0 -27 -19.5 -46t-46.5 -19q-23 0 -38.5 15.5t-15.5 38.5zM282 49q40 0 74.5 15.5t59 41.5t38.5 60t14 72
q0 32 -10.5 60.5t-30 49.5t-47.5 33.5t-64 12.5q-40 0 -74 -15.5t-59 -41.5t-39 -60t-14 -72q0 -32 10 -60.5t29.5 -49.5t48 -33.5t64.5 -12.5zM276 -11q-50 0 -89 17t-66 45.5t-41.5 66.5t-14.5 81q0 51 19.5 97t53.5 81t81 55.5t103 20.5q50 0 89.5 -16.5t66.5 -45
t41.5 -67t14.5 -81.5q0 -51 -19.5 -97t-54 -81t-81.5 -55.5t-103 -20.5z" />
    <glyph glyph-name="uni04E8" unicode="&#x4e8;" horiz-adv-x="806" 
d="M405 -15q-80 0 -141 27t-102 73t-62.5 105.5t-21.5 124.5q0 76 29 148.5t81 128t125 89.5t162 34q79 0 140.5 -27t102.5 -73t62.5 -105.5t21.5 -124.5q0 -77 -29 -149t-81 -127.5t-125.5 -89.5t-161.5 -34zM472 653q-64 0 -118 -23t-95 -62t-68 -89.5t-36 -105.5h576
q2 55 -14.5 105.5t-49.5 89.5t-82 62t-113 23zM408 47q64 0 118 23t95 61.5t68 89t37 106.5h-576q-2 -56 14 -106.5t49 -89t82 -61.5t113 -23z" />
    <glyph glyph-name="uni04E9" unicode="&#x4e9;" horiz-adv-x="552" 
d="M276 -11q-50 0 -89 17t-66 45.5t-41.5 66.5t-14.5 81q0 51 19.5 97t53.5 81t81 55.5t103 20.5q50 0 89.5 -16.5t66.5 -45t41.5 -67t14.5 -81.5q0 -51 -19.5 -97t-54 -81t-81.5 -55.5t-103 -20.5zM317 394q-35 0 -65 -12t-53.5 -32t-39.5 -47.5t-23 -58.5h332
q0 31 -10.5 58.5t-30 47.5t-47.5 32t-63 12zM280 49q35 0 65.5 11.5t54 31.5t40 47t23.5 58h-332q0 -31 10 -58t29.5 -47t47 -31.5t62.5 -11.5z" />
    <glyph glyph-name="uni04EA" unicode="&#x4ea;" horiz-adv-x="806" 
d="M405 -15q-80 0 -141 27t-102 73t-62.5 105.5t-21.5 124.5q0 76 29 148.5t81 128t125 89.5t162 34q79 0 140.5 -27t102.5 -73t62.5 -105.5t21.5 -124.5q0 -77 -29 -149t-81 -127.5t-125.5 -89.5t-161.5 -34zM472 653q-64 0 -118 -23t-95 -62t-68 -89.5t-36 -105.5h576
q2 55 -14.5 105.5t-49.5 89.5t-82 62t-113 23zM408 47q64 0 118 23t95 61.5t68 89t37 106.5h-576q-2 -56 14 -106.5t49 -89t82 -61.5t113 -23zM548 833q0 26 19 45t45 19q23 0 38 -15.5t15 -37.5q0 -26 -19.5 -44.5t-45.5 -18.5q-23 0 -37.5 14.5t-14.5 37.5zM370 781
q-23 0 -37.5 14.5t-14.5 37.5q0 26 19 45t45 19q23 0 38 -15.5t15 -37.5q0 -26 -19.5 -44.5t-45.5 -18.5z" />
    <glyph glyph-name="uni04EB" unicode="&#x4eb;" horiz-adv-x="552" 
d="M276 -11q-50 0 -89 17t-66 45.5t-41.5 66.5t-14.5 81q0 51 19.5 97t53.5 81t81 55.5t103 20.5q50 0 89.5 -16.5t66.5 -45t41.5 -67t14.5 -81.5q0 -51 -19.5 -97t-54 -81t-81.5 -55.5t-103 -20.5zM317 394q-35 0 -65 -12t-53.5 -32t-39.5 -47.5t-23 -58.5h332
q0 31 -10.5 58.5t-30 47.5t-47.5 32t-63 12zM280 49q35 0 65.5 11.5t54 31.5t40 47t23.5 58h-332q0 -31 10 -58t29.5 -47t47 -31.5t62.5 -11.5zM398 611q0 26 18.5 44.5t44.5 18.5q23 0 37.5 -15t14.5 -37q0 -26 -18.5 -44.5t-44.5 -18.5q-23 0 -37.5 15t-14.5 37zM220 559
q-23 0 -37.5 15t-14.5 37q0 26 18.5 44.5t44.5 18.5q23 0 37.5 -15t14.5 -37q0 -26 -18.5 -44.5t-44.5 -18.5z" />
    <glyph glyph-name="uni04EC" unicode="&#x4ec;" horiz-adv-x="760" 
d="M309 379h377q2 58 -13 108t-46.5 87t-78.5 58t-110 21q-52 0 -96.5 -14.5t-79.5 -40t-60.5 -60t-38.5 -74.5h-72q16 54 48 99.5t77 79.5t102 53t125 19q79 0 138 -26t98 -70t58.5 -104t19.5 -127q0 -83 -28 -156t-79 -128t-123 -87t-160 -32q-63 0 -114.5 17t-90 46.5
t-63.5 70t-35 87.5h75q9 -35 30 -64t51.5 -50t69 -33t83.5 -12q59 0 110 20t91.5 56t67.5 85.5t38 108.5h-377zM344 772q-24 0 -39.5 15.5t-15.5 38.5q0 27 20 46.5t46 19.5q24 0 39 -16t15 -39q0 -27 -19.5 -46t-45.5 -19zM519 826q0 27 20 46.5t46 19.5q24 0 39 -16
t15 -39q0 -27 -20 -46t-47 -19q-23 0 -38 15.5t-15 38.5z" />
    <glyph glyph-name="uni04ED" unicode="&#x4ed;" horiz-adv-x="520" 
d="M73 281q5 34 22.5 65t46 55t68 38.5t88.5 14.5q53 0 91.5 -17t63.5 -45.5t37 -66.5t12 -79q0 -49 -16 -95t-48 -82t-79.5 -58t-110.5 -22q-47 0 -83 12.5t-60 34.5t-36 52t-11 64h66q1 -21 9 -39.5t24 -32.5t41 -22.5t59 -8.5q40 0 70 11.5t51 31.5t34 46.5t19 56.5h-201
l5 51h201q1 31 -6.5 58t-25 47t-45 32t-66.5 12q-35 0 -61.5 -9.5t-45.5 -25.5t-31 -36.5t-17 -42.5h-65zM199 546q-24 0 -39 15.5t-15 38.5q0 27 20 46.5t46 19.5q24 0 39.5 -16t15.5 -39q0 -28 -20.5 -46.5t-46.5 -18.5zM375 600q0 27 20 46.5t46 19.5q24 0 39.5 -16
t15.5 -39q0 -28 -20.5 -46.5t-46.5 -18.5q-24 0 -39 15.5t-15 38.5z" />
    <glyph glyph-name="uni04EE" unicode="&#x4ee;" 
d="M209 0h-75l171 277l-222 423h79l185 -353l218 353h75zM566 800h-358l6 59h358z" />
    <glyph glyph-name="uni04EF" unicode="&#x4ef;" horiz-adv-x="568" 
d="M256 -267q-205 0 -188 202h66q-4 -76 28 -111t101 -35q32 0 58.5 8t46 27t32 49t17.5 75l16 148q-24 -45 -68 -76t-114 -31q-86 0 -126 54q-17 23 -22.5 56t0.5 89l27 255h66l-25 -236q-8 -72 15 -115.5t91 -43.5q40 0 70 14.5t51 38.5t33 54t15 61l24 227h64l-52 -495
q-12 -114 -69.5 -164.5t-156.5 -50.5zM528 575h-358l7 59h358z" />
    <glyph glyph-name="uni04F0" unicode="&#x4f0;" 
d="M209 0h-75l171 277l-222 423h79l185 -353l218 353h75zM447 826q0 26 19 45t45 19q23 0 37.5 -15.5t14.5 -37.5q0 -26 -19 -44.5t-45 -18.5q-23 0 -37.5 15t-14.5 37zM217 826q0 26 19 45t45 19q23 0 37.5 -15.5t14.5 -37.5q0 -26 -19 -44.5t-45 -18.5q-23 0 -37.5 15
t-14.5 37z" />
    <glyph glyph-name="uni04F1" unicode="&#x4f1;" horiz-adv-x="568" 
d="M256 -267q-205 0 -188 202h66q-4 -76 28 -111t101 -35q32 0 58.5 8t46 27t32 49t17.5 75l16 148q-24 -45 -68 -76t-114 -31q-86 0 -126 54q-17 23 -22.5 56t0.5 89l27 255h66l-25 -236q-8 -72 15 -115.5t91 -43.5q40 0 70 14.5t51 38.5t33 54t15 61l24 227h64l-52 -495
q-12 -114 -69.5 -164.5t-156.5 -50.5zM413 599q0 27 19 45.5t45 18.5q23 0 37.5 -15t14.5 -38q0 -26 -19 -44.5t-45 -18.5q-23 0 -37.5 14.5t-14.5 37.5zM183 599q0 26 18.5 45t44.5 19q23 0 38 -15t15 -38q0 -26 -19 -44.5t-45 -18.5q-23 0 -37.5 14.5t-14.5 37.5z" />
    <glyph glyph-name="uni04F2" unicode="&#x4f2;" 
d="M209 0h-75l171 277l-222 423h79l185 -353l218 353h75zM573 949l54 -29l-163 -156l-33 19zM378 949l54 -29l-163 -156l-33 19z" />
    <glyph glyph-name="uni04F3" unicode="&#x4f3;" horiz-adv-x="568" 
d="M256 -267q-205 0 -188 202h66q-4 -76 28 -111t101 -35q32 0 58.5 8t46 27t32 49t17.5 75l16 148q-24 -45 -68 -76t-114 -31q-86 0 -126 54q-17 23 -22.5 56t0.5 89l27 255h66l-25 -236q-8 -72 15 -115.5t91 -43.5q40 0 70 14.5t51 38.5t33 54t15 61l24 227h64l-52 -495
q-12 -114 -69.5 -164.5t-156.5 -50.5zM236 519l-33 19l143 166l54 -29zM431 519l-33 19l143 166l54 -29z" />
    <glyph glyph-name="uni04F4" unicode="&#x4f4;" horiz-adv-x="572" 
d="M421 0l24 234h-147q-59 0 -100.5 16.5t-67 46t-35 71t-4.5 91.5l25 241h69l-24 -225q-4 -39 2 -72t24.5 -57t50.5 -37t79 -13h135l42 404h68l-73 -700h-68zM416 826q0 26 18.5 45t44.5 19q23 0 37.5 -15.5t14.5 -37.5q0 -26 -18.5 -44.5t-44.5 -18.5q-23 0 -37.5 15
t-14.5 37zM186 826q0 26 18.5 45t44.5 19q23 0 37.5 -15.5t14.5 -37.5q0 -26 -18.5 -44.5t-44.5 -18.5q-23 0 -37.5 15t-14.5 37z" />
    <glyph glyph-name="uni04F5" unicode="&#x4f5;" horiz-adv-x="464" 
d="M316 0l15 143h-114q-75 0 -112 39t-29 115l15 146h66l-15 -145q-5 -48 17 -73.5t73 -25.5h105l26 244h66l-47 -443h-66zM325 600q0 27 20.5 46.5t46.5 19.5q23 0 38.5 -16t15.5 -39q0 -27 -20 -46t-46 -19q-24 0 -39.5 15.5t-15.5 38.5zM108 600q0 27 20.5 46.5
t46.5 19.5q23 0 38.5 -16t15.5 -39q0 -27 -20 -46t-46 -19q-24 0 -39.5 15.5t-15.5 38.5z" />
    <glyph glyph-name="uni04F8" unicode="&#x4f8;" horiz-adv-x="734" 
d="M225 700l-33 -307h175q38 0 69.5 -13.5t54 -37.5t35 -56.5t12.5 -69.5q0 -44 -16.5 -83t-46 -68.5t-68.5 -47t-84 -17.5h-240l74 700h68zM186 332l-28 -270h172q28 0 53.5 11.5t44.5 32t30 47.5t11 57q0 25 -8 47.5t-22 39t-34 26t-44 9.5h-175zM657 700h68l-74 -700h-68
zM526 826q0 26 19 45t45 19q23 0 37.5 -15.5t14.5 -37.5q0 -26 -19 -44.5t-45 -18.5q-23 0 -37.5 15t-14.5 37zM296 826q0 26 19 45t45 19q23 0 37.5 -15.5t14.5 -37.5q0 -26 -19 -44.5t-45 -18.5q-24 0 -38 15t-14 37z" />
    <glyph glyph-name="uni04F9" unicode="&#x4f9;" horiz-adv-x="613" 
d="M512 443h65l-47 -443h-65zM130 443h62l-18 -165h130q58 0 89 -36t31 -88q0 -31 -11 -59t-30.5 -49t-47.5 -33.5t-62 -12.5h-190zM169 224l-18 -170h118q41 0 67 27.5t26 65.5q0 32 -19 54.5t-54 22.5h-120zM429 600q0 27 20 46.5t46 19.5q24 0 39.5 -16t15.5 -39
q0 -27 -20 -46t-46 -19q-24 0 -39.5 15.5t-15.5 38.5zM199 600q0 27 20 46.5t46 19.5q24 0 39.5 -16t15.5 -39q0 -27 -20 -46t-46 -19q-24 0 -39.5 15.5t-15.5 38.5z" />
    <glyph glyph-name="Wgrave" unicode="&#x1e80;" horiz-adv-x="946" 
d="M535 584l-239 -584h-53l-163 700h72l129 -585l239 585h54l116 -585l252 585h72l-311 -700h-53zM427 886l36 53l235 -137l-37 -53z" />
    <glyph glyph-name="wgrave" unicode="&#x1e81;" horiz-adv-x="715" 
d="M396 370l-170 -370h-47l-124 443h70l88 -344l159 344h65l86 -344l161 344h70l-218 -443h-47zM285 647l38 52l235 -137l-38 -52z" />
    <glyph glyph-name="Wacute" unicode="&#x1e82;" horiz-adv-x="946" 
d="M535 584l-239 -584h-53l-163 700h72l129 -585l239 585h54l116 -585l252 585h72l-311 -700h-53zM443 749l-25 53l263 137l26 -53z" />
    <glyph glyph-name="wacute" unicode="&#x1e83;" horiz-adv-x="715" 
d="M396 370l-170 -370h-47l-124 443h70l88 -344l159 344h65l86 -344l161 344h70l-218 -443h-47zM303 510l-26 52l263 137l26 -52z" />
    <glyph glyph-name="Wdieresis" unicode="&#x1e84;" horiz-adv-x="946" 
d="M535 584l-239 -584h-53l-163 700h72l129 -585l239 585h54l116 -585l252 585h72l-311 -700h-53zM617 834q0 26 19.5 44.5t45.5 18.5q23 0 37.5 -15.5t14.5 -37.5q0 -26 -19 -44.5t-45 -18.5q-23 0 -38 15t-15 38zM388 833q0 26 19 45t45 19q23 0 37.5 -15t14.5 -38
q0 -26 -19 -44.5t-45 -18.5q-23 0 -37.5 14.5t-14.5 37.5z" />
    <glyph glyph-name="wdieresis" unicode="&#x1e85;" horiz-adv-x="715" 
d="M396 370l-170 -370h-47l-124 443h70l88 -344l159 344h65l86 -344l161 344h70l-218 -443h-47zM478 600q0 26 18.5 44.5t44.5 18.5q23 0 38 -15t15 -38q0 -26 -19 -44t-45 -18q-23 0 -37.5 15t-14.5 37zM248 600q0 26 18.5 44.5t44.5 18.5q23 0 38 -15t15 -38
q0 -26 -19 -44t-45 -18q-23 0 -37.5 15t-14.5 37z" />
    <glyph glyph-name="Ygrave" unicode="&#x1ef2;" 
d="M209 0h-75l171 277l-222 423h79l185 -353l218 353h75zM236 886l36 53l235 -137l-37 -53z" />
    <glyph glyph-name="ygrave" unicode="&#x1ef3;" horiz-adv-x="568" 
d="M256 -267q-205 0 -188 202h66q-4 -76 28 -111t101 -35q32 0 58.5 8t46 27t32 49t17.5 75l16 148q-24 -45 -68 -76t-114 -31q-86 0 -126 54q-17 23 -22.5 56t0.5 89l27 255h66l-25 -236q-8 -72 15 -115.5t91 -43.5q40 0 70 14.5t51 38.5t33 54t15 61l24 227h64l-52 -495
q-12 -114 -69.5 -164.5t-156.5 -50.5zM211 647l37 52l235 -137l-37 -52z" />
    <glyph glyph-name="thinspace" unicode="&#x2009;" horiz-adv-x="206" 
 />
    <glyph glyph-name="endash" unicode="&#x2013;" horiz-adv-x="503" 
d="M77 255l6 59h403l-6 -59h-403z" />
    <glyph glyph-name="emdash" unicode="&#x2014;" horiz-adv-x="1006" 
d="M77 255l6 59h906l-6 -59h-906z" />
    <glyph glyph-name="quoteleft" unicode="&#x2018;" horiz-adv-x="256" 
d="M256 580q0 -26 -19.5 -45.5t-48.5 -19.5q-31 0 -48 23t-17 67q0 69 39.5 102t103.5 33l-3 -35q-58 0 -74 -41q-8 -14 -9 -23.5t-1 -17.5q10 8 27 8q22 0 36 -14.5t14 -36.5z" />
    <glyph glyph-name="quoteright" unicode="&#x2019;" horiz-adv-x="256" 
d="M131 675q0 26 20 45.5t49 19.5q31 0 47.5 -23.5t16.5 -67.5q0 -69 -39.5 -101.5t-103.5 -32.5l4 35q28 0 46.5 11t26.5 30q8 14 9 24t1 17q-8 -8 -26 -8q-23 0 -37 14.5t-14 36.5z" />
    <glyph glyph-name="quotesinglbase" unicode="&#x201a;" horiz-adv-x="256" 
d="M65 42q0 26 19.5 45.5t48.5 19.5q31 0 48 -23t17 -68q0 -68 -39 -101t-104 -33l4 35q57 0 73 41q8 14 9 23.5t1 17.5q-8 -8 -27 -8q-22 0 -36 14.5t-14 36.5z" />
    <glyph glyph-name="quotedblleft" unicode="&#x201c;" horiz-adv-x="418" 
d="M418 580q0 -26 -19 -45.5t-48 -19.5q-31 0 -48.5 23t-17.5 68q0 66 39 100t104 34l-3 -35q-27 0 -46.5 -10.5t-27.5 -30.5q-7 -14 -8.5 -23.5t-0.5 -17.5q10 8 26 8q23 0 36.5 -14.5t13.5 -36.5zM256 580q0 -26 -19.5 -45.5t-48.5 -19.5q-31 0 -48 23t-17 67
q0 69 39.5 102t103.5 33l-3 -35q-58 0 -74 -41q-8 -14 -9 -23.5t-1 -17.5q10 8 27 8q22 0 36 -14.5t14 -36.5z" />
    <glyph glyph-name="quotedblright" unicode="&#x201d;" horiz-adv-x="418" 
d="M131 675q0 26 20 45.5t49 19.5q31 0 47.5 -23.5t16.5 -67.5q0 -69 -39.5 -101.5t-103.5 -32.5l4 35q28 0 46.5 11t26.5 30q8 14 9 24t1 17q-8 -8 -26 -8q-23 0 -37 14.5t-14 36.5zM293 676q0 26 19.5 45t49.5 19q31 0 47.5 -23t16.5 -67q0 -69 -39.5 -102t-103.5 -33
l4 35q29 0 47 11t26 30q8 14 9.5 24t0.5 17q-8 -8 -25 -8q-23 0 -37.5 14.5t-14.5 37.5z" />
    <glyph glyph-name="quotedblbase" unicode="&#x201e;" horiz-adv-x="418" 
d="M65 42q0 26 19.5 45.5t48.5 19.5q31 0 48 -23t17 -68q0 -68 -39 -101t-104 -33l4 35q57 0 73 41q8 14 9 23.5t1 17.5q-8 -8 -27 -8q-22 0 -36 14.5t-14 36.5zM227 43q0 26 19.5 45t49.5 19q31 0 47.5 -23t16.5 -67q0 -69 -39.5 -102t-103.5 -33l4 35q57 0 73 41
q8 14 9.5 23.5t0.5 17.5q-8 -8 -26 -8q-22 0 -36.5 14.5t-14.5 37.5z" />
    <glyph glyph-name="dagger" unicode="&#x2020;" horiz-adv-x="403" 
d="M150 -182l60 570h-132l6 59h132l29 270h65l-29 -270h132l-6 -59h-132l-60 -570h-65z" />
    <glyph glyph-name="daggerdbl" unicode="&#x2021;" horiz-adv-x="403" 
d="M309 717l-28 -270h132l-6 -58h-132l-33 -313h132l-6 -58h-132l-21 -200h-65l21 200h-132l6 58h132l33 313h-132l6 58h132l28 270h65z" />
    </font>
</defs>
</svg>
