<svg xmlns="http://www.w3.org/2000/svg">
<defs>
<font id="0eaf9be44e295b8bc65624b37dcb8410" horiz-adv-x='1024' >
  <font-face 
    font-family="GTWalsheimProUltraLight"
    font-weight="250"
    font-stretch="normal"
    units-per-em="1000"
    panose-1="2 0 5 3 2 0 0 2 0 3"
    ascent="750"
    descent="-250"
    x-height="419"
    cap-height="700"
    bbox="-130 -330 1120 976"
    underline-thickness="50"
    underline-position="-50"
    unicode-range="U+000D-FB04"
  />
<missing-glyph horiz-adv-x="800" 
d="M400 717q84 0 151.5 -30.5t114 -81.5t71.5 -117.5t25 -137.5t-25 -137.5t-71.5 -117.5t-114 -81.5t-151.5 -30.5t-151.5 30.5t-114 81.5t-71.5 117.5t-25 137.5t25 137.5t71.5 117.5t114 81.5t151.5 30.5zM400 695q-76 0 -143 -29q-60 -27 -106 -76q-45 -50 -67 -110
q-24 -63 -24 -130q0 -68 24 -129q22 -62 67 -110q46 -50 106 -76q67 -29 143 -29t142 29q60 26 106 76q45 48 67 110q24 61 24 129q0 67 -24 130q-22 60 -67 110q-46 49 -106 76q-66 29 -142 29zM168 228q25 -15 47 -28t44 -22.5t45.5 -15t51.5 -5.5q21 0 49 1.5t58.5 5
t60 11t52.5 19.5q1 0 3 2q-13 -28 -42 -54t-65 -45q-57 -31 -106 -31t-97.5 37.5t-100.5 124.5zM219 259l179 268l-110 -243h178v-25h-247zM230 169q15 -22 34 -37t38.5 -24t36.5 -12.5t27 -3.5q25 0 52 9t50 20t39 21t20 13q-43 -8 -81 -15.5t-88 -7.5q-13 0 -30.5 1.5
t-35.5 6t-34.5 11.5t-27.5 18zM498 500q0 18 12.5 30.5t29.5 12.5q18 0 30.5 -12.5t12.5 -30.5q0 -17 -12.5 -30t-30.5 -13q-17 0 -29.5 13t-12.5 30zM201 500q0 18 12.5 30.5t29.5 12.5q18 0 30.5 -12.5t12.5 -30.5q0 -17 -12.5 -30t-30.5 -13q-17 0 -29.5 13t-12.5 30z
M600 161q2 5 2 9.5v8.5q-2 9 -4 13q-1 3 -3 5q-1 0 -3 2q-2 0 -4 2l-14 5q-8 4 -16.5 8t-16.5 11q-10 7 -18 20l-4 11q-1 4 -2 7t-1 7q-2 8 -3 15.5t-1 15.5q1 5 1 10t2 9l15 -5q0 -2 -0.5 -4.5t-0.5 -5.5v-13q1 -7 1.5 -14t2.5 -13q2 -4 2.5 -7t2.5 -5q3 -6 8 -10.5
t11 -9.5q6 -4 13 -7t13 -6l15 -6q3 -1 7 -5q6 -4 7 -9q5 -9 6 -19v-12t-2 -12zM213 331q0 -5 0.5 -10t1.5 -10t1.5 -10t0.5 -10q0 -10 -7 -20q-7 -9 -14 -13q-1 0 -2 -0.5t-2 -0.5q-5 -2 -10.5 -4.5t-10.5 -5.5q-4 -1 -10 -5q-4 -4 -6 -5q-3 -5 -5 -13q-1 -5 -1.5 -9

<glyph glyph-name="IJ" unicode="IJ" horiz-adv-x="741" 
d="M663 205q0 -52 -16 -92.5t-44 -68.5t-67 -42.5t-84 -14.5t-85.5 14.5t-72 42.5t-50 68.5t-18.5 92.5h20q0 -47 17 -83.5t45.5 -62t65.5 -39t78 -13.5t76 13.5t60.5 39t40 62t14.5 83.5v495h20v-495zM93 700h20v-700h-20v700z" />
    <glyph glyph-name="ij" unicode="ij" horiz-adv-x="418" 
d="M305 648h20v-103h-20v103zM325 -161q0 -58 -26.5 -91.5t-71.5 -33.5q-21 0 -34 2.5t-29 10.5v23q14 -8 27 -12t36 -4q36 0 57 28t21 77v580h20v-580zM93 648h20v-103h-20v103zM93 419h20v-419h-20v419z" />
    <glyph glyph-name="uniFB00" unicode="ff" horiz-adv-x="620" 
d="M306 675q-14 6 -26 8.5t-35 2.5q-17 0 -33.5 -4.5t-30 -18t-22 -38t-8.5 -65.5v-141h155v-20h-155v-399h-20v399h-106v20h106v141q0 47 10 76t26.5 44.5t37 20.5t40.5 5q23 0 35.5 -3t25.5 -8v-20zM616 675q-14 6 -26 8.5t-35 2.5q-17 0 -33.5 -4.5t-30 -18t-22 -38
t-8.5 -65.5v-141h155v-20h-155v-399h-20v399h-106v20h106v141q0 47 10 76t26.5 44.5t37 20.5t40.5 5q23 0 35.5 -3t25.5 -8v-20z" />
    <glyph glyph-name="fi" unicode="fi" horiz-adv-x="516" 
d="M403 419h20v-419h-20v419zM403 648h20v-103h-20v103zM306 675q-14 6 -26 8.5t-35 2.5q-17 0 -33.5 -4.5t-30 -18t-22 -38t-8.5 -65.5v-141h155v-20h-155v-399h-20v399h-106v20h106v141q0 47 10 76t26.5 44.5t37 20.5t40.5 5q23 0 35.5 -3t25.5 -8v-20z" />
    <glyph glyph-name="fl" unicode="fl" horiz-adv-x="516" 
d="M306 675q-14 6 -26 8.5t-35 2.5q-17 0 -33.5 -4.5t-30 -18t-22 -38t-8.5 -65.5v-141h155v-20h-155v-399h-20v399h-106v20h106v141q0 47 10 76t26.5 44.5t37 20.5t40.5 5q23 0 35.5 -3t25.5 -8v-20zM403 700h20v-700h-20v700z" />
    <glyph glyph-name="uniFB03" unicode="ffi" horiz-adv-x="826" 
d="M713 419h20v-419h-20v419zM713 648h20v-103h-20v103zM306 675q-14 6 -26 8.5t-35 2.5q-17 0 -33.5 -4.5t-30 -18t-22 -38t-8.5 -65.5v-141h155v-20h-155v-399h-20v399h-106v20h106v141q0 47 10 76t26.5 44.5t37 20.5t40.5 5q23 0 35.5 -3t25.5 -8v-20zM616 675
q-14 6 -26 8.5t-35 2.5q-17 0 -33.5 -4.5t-30 -18t-22 -38t-8.5 -65.5v-141h155v-20h-155v-399h-20v399h-106v20h106v141q0 47 10 76t26.5 44.5t37 20.5t40.5 5q23 0 35.5 -3t25.5 -8v-20z" />
    <glyph glyph-name="uniFB04" unicode="ffl" horiz-adv-x="826" 
d="M306 675q-14 6 -26 8.5t-35 2.5q-17 0 -33.5 -4.5t-30 -18t-22 -38t-8.5 -65.5v-141h155v-20h-155v-399h-20v399h-106v20h106v141q0 47 10 76t26.5 44.5t37 20.5t40.5 5q23 0 35.5 -3t25.5 -8v-20zM616 675q-14 6 -26 8.5t-35 2.5q-17 0 -33.5 -4.5t-30 -18t-22 -38
t-8.5 -65.5v-141h155v-20h-155v-399h-20v399h-106v20h106v141q0 47 10 76t26.5 44.5t37 20.5t40.5 5q23 0 35.5 -3t25.5 -8v-20zM713 700h20v-700h-20v700z" />
    <glyph glyph-name=".notdef" horiz-adv-x="800" 
d="M400 717q84 0 151.5 -30.5t114 -81.5t71.5 -117.5t25 -137.5t-25 -137.5t-71.5 -117.5t-114 -81.5t-151.5 -30.5t-151.5 30.5t-114 81.5t-71.5 117.5t-25 137.5t25 137.5t71.5 117.5t114 81.5t151.5 30.5zM400 695q-76 0 -143 -29q-60 -27 -106 -76q-45 -50 -67 -110
q-24 -63 -24 -130q0 -68 24 -129q22 -62 67 -110q46 -50 106 -76q67 -29 143 -29t142 29q60 26 106 76q45 48 67 110q24 61 24 129q0 67 -24 130q-22 60 -67 110q-46 49 -106 76q-66 29 -142 29zM168 228q25 -15 47 -28t44 -22.5t45.5 -15t51.5 -5.5q21 0 49 1.5t58.5 5
t60 11t52.5 19.5q1 0 3 2q-13 -28 -42 -54t-65 -45q-57 -31 -106 -31t-97.5 37.5t-100.5 124.5zM219 259l179 268l-110 -243h178v-25h-247zM230 169q15 -22 34 -37t38.5 -24t36.5 -12.5t27 -3.5q25 0 52 9t50 20t39 21t20 13q-43 -8 -81 -15.5t-88 -7.5q-13 0 -30.5 1.5
t-35.5 6t-34.5 11.5t-27.5 18zM498 500q0 18 12.5 30.5t29.5 12.5q18 0 30.5 -12.5t12.5 -30.5q0 -17 -12.5 -30t-30.5 -13q-17 0 -29.5 13t-12.5 30zM201 500q0 18 12.5 30.5t29.5 12.5q18 0 30.5 -12.5t12.5 -30.5q0 -17 -12.5 -30t-30.5 -13q-17 0 -29.5 13t-12.5 30z
M600 161q2 5 2 9.5v8.5q-2 9 -4 13q-1 3 -3 5q-1 0 -3 2q-2 0 -4 2l-14 5q-8 4 -16.5 8t-16.5 11q-10 7 -18 20l-4 11q-1 4 -2 7t-1 7q-2 8 -3 15.5t-1 15.5q1 5 1 10t2 9l15 -5q0 -2 -0.5 -4.5t-0.5 -5.5v-13q1 -7 1.5 -14t2.5 -13q2 -4 2.5 -7t2.5 -5q3 -6 8 -10.5
t11 -9.5q6 -4 13 -7t13 -6l15 -6q3 -1 7 -5q6 -4 7 -9q5 -9 6 -19v-12t-2 -12zM213 331q0 -5 0.5 -10t1.5 -10t1.5 -10t0.5 -10q0 -10 -7 -20q-7 -9 -14 -13q-1 0 -2 -0.5t-2 -0.5q-5 -2 -10.5 -4.5t-10.5 -5.5q-4 -1 -10 -5q-4 -4 -6 -5q-3 -5 -5 -13q-1 -5 -1.5 -9
t-0.5 -8h-16q0 5 0.5 10t1.5 10q2 5 3.5 10t5.5 10q2 2 9 8l11 7q5 3 11.5 5.5t12.5 4.5l1 1q4 1 9 8q4 6 4 10q0 5 -0.5 9t-1.5 9l-3 20z" />
    <glyph glyph-name=".null" horiz-adv-x="0" 
 />
    <glyph glyph-name=".null" horiz-adv-x="0" 
 />
    <glyph glyph-name="nonmarkingreturn" unicode="&#xd;" horiz-adv-x="250" 
 />
    <glyph glyph-name="space" unicode=" " horiz-adv-x="260" 
 />
    <glyph glyph-name="exclam" unicode="!" horiz-adv-x="257" 
d="M118 717h20v-534h-20v534zM118 103h20v-103h-20v103z" />
    <glyph glyph-name="quotedbl" unicode="&#x22;" horiz-adv-x="249" 
d="M60 717h20v-251h-20v251zM169 717h20v-251h-20v251z" />
    <glyph glyph-name="numbersign" unicode="#" horiz-adv-x="552" 
d="M363 224h-199l-31 -224h-20l31 224h-114v20h117l29 212h-116v20h119l31 224h20l-31 -224h199l31 224h20l-31 -224h104v-20h-107l-29 -212h106v-20h-109l-31 -224h-20zM167 244h199l29 212h-199z" />
    <glyph glyph-name="dollar" unicode="$" horiz-adv-x="575" 
d="M307 713q97 -2 150.5 -54.5t56.5 -146.5h-20q-3 86 -53 133.5t-139 47.5q-51 0 -89 -12t-63 -33t-37 -48.5t-12 -58.5q0 -50 17.5 -80.5t47 -49t68 -28.5t79.5 -19q40 -8 78.5 -19.5t68.5 -32.5t48.5 -55t18.5 -87q0 -85 -58 -133t-162 -50v-97h-20v97q-56 1 -100 18.5
t-74 46.5t-45.5 68t-15.5 85h20q0 -42 15 -78.5t44 -63t70.5 -41.5t95.5 -15q99 0 154.5 42.5t55.5 120.5q0 47 -17 77.5t-45.5 49t-64.5 29t-73 18.5q-44 9 -84.5 20t-72 32t-50.5 55t-19 90q0 34 12.5 64.5t38 53.5t64 37.5t91.5 16.5v97h20v-97z" />
    <glyph glyph-name="percent" unicode="%" horiz-adv-x="813" 
d="M763 107q0 -24 -9.5 -44.5t-26 -36.5t-39 -25t-49.5 -9q-28 0 -51 10t-39 26.5t-24.5 39t-8.5 47.5v161q0 24 9 44.5t25.5 36.5t39 25t49.5 9q28 0 51 -10t39 -26.5t25 -39t9 -47.5v-161zM537 115q0 -21 7 -40t20.5 -33t32.5 -22.5t42 -8.5q24 0 43 8.5t32.5 22.5
t20.5 33t7 40v153q0 21 -7 40t-20.5 33t-32.5 22.5t-43 8.5q-23 0 -42 -8.5t-32.5 -22.5t-20.5 -33t-7 -40v-153zM50 429v161q0 24 9 44.5t25.5 36.5t39 25t49.5 9q28 0 51 -10t39 -26.5t25 -39t9 -47.5v-161q0 -24 -9.5 -44.5t-26 -36.5t-39 -25t-49.5 -9q-28 0 -51 10
t-39 26.5t-24.5 39t-8.5 47.5zM276 582q0 21 -7 40t-20.5 33t-32.5 22.5t-43 8.5q-23 0 -42 -8.5t-32.5 -22.5t-20.5 -33t-7 -40v-153q0 -21 7 -40t20.5 -33t32.5 -22.5t42 -8.5q24 0 43 8.5t32.5 22.5t20.5 33t7 40v153zM629 751l17 -10l-437 -753l-17 10z" />
    <glyph glyph-name="ampersand" unicode="&#x26;" horiz-adv-x="598" 
d="M365 255h213v-20h-80q0 -50 -11 -94t-36 -77.5t-66.5 -53t-103.5 -19.5q-53 0 -94.5 14t-70.5 39t-44.5 60.5t-15.5 77.5q0 68 41 117.5t118 60.5q-73 11 -111 57.5t-38 109.5q0 40 15 73.5t42.5 57.5t66.5 37.5t87 13.5t86.5 -13.5t65.5 -37.5t42 -57.5t15 -73.5h-20
q0 36 -13.5 66t-38 51t-59.5 33t-78 12q-44 0 -79.5 -12t-60 -33t-38 -51t-13.5 -66q0 -35 13 -64t36.5 -49.5t57.5 -32t76 -11.5h58v-20h-59q-44 0 -79.5 -12.5t-60.5 -34.5t-38.5 -53t-13.5 -68q0 -38 14 -69.5t40.5 -54t64.5 -35t86 -12.5q58 0 96 18t60.5 49t31.5 71.5
t9 85.5h-113v20z" />
    <glyph glyph-name="quotesingle" unicode="'" horiz-adv-x="140" 
d="M60 717h20v-251h-20v251z" />
    <glyph glyph-name="parenleft" unicode="(" horiz-adv-x="301" 
d="M311 775q-45 0 -81.5 -16t-62.5 -43t-40 -63.5t-14 -76.5v-592q0 -40 14 -76t40 -63t62.5 -43t81.5 -16v-20q-50 0 -90 17.5t-68.5 47.5t-44 69.5t-15.5 83.5v592q0 45 15.5 84.5t44 69.5t68.5 47.5t90 17.5v-20z" />
    <glyph glyph-name="parenright" unicode=")" horiz-adv-x="301" 
d="M-10 795q49 0 89.5 -17.5t69 -47.5t44 -69.5t15.5 -84.5v-592q0 -44 -15.5 -83.5t-44 -69.5t-69 -47.5t-89.5 -17.5v20q45 0 81.5 16t62.5 43t40 63t14 76v592q0 40 -14 76.5t-40 63.5t-62.5 43t-81.5 16v20z" />
    <glyph glyph-name="asterisk" unicode="*" horiz-adv-x="446" 
d="M104 380l105 142l-169 54l6 20l170 -59l-2 180h20l-2 -180l168 59l6 -20l-168 -54l104 -142l-16 -12l-102 145l-104 -145z" />
    <glyph glyph-name="plus" unicode="+" 
d="M270 93v181h-182v20h182v183h20v-183h182v-20h-182v-181h-20z" />
    <glyph glyph-name="comma" unicode="," horiz-adv-x="208" 
d="M138 103h20v-124q0 -52 -28 -73.5t-70 -21.5v20q34 0 56 17t22 58v124z" />
    <glyph glyph-name="hyphen" unicode="-" horiz-adv-x="294" 
d="M264 275h-234v20h234v-20z" />
    <glyph glyph-name="period" unicode="." horiz-adv-x="177" 
d="M78 103h20v-103h-20v103z" />
    <glyph glyph-name="slash" unicode="/" horiz-adv-x="385" 
d="M385 777l18 -8l-364 -845l-18 8z" />
    <glyph glyph-name="zero" unicode="0" horiz-adv-x="575" 
d="M68 494q0 45 15.5 84.5t44 69.5t68.5 47.5t90 17.5q51 0 91.5 -17.5t69.5 -47.5t44.5 -69.5t15.5 -84.5v-289q0 -44 -15.5 -83.5t-44.5 -69.5t-69.5 -47.5t-91.5 -17.5q-50 0 -90 17.5t-68.5 47.5t-44 69.5t-15.5 83.5v289zM487 494q0 40 -14 76.5t-40.5 63.5t-63.5 43
t-83 16q-45 0 -81.5 -16t-62.5 -43t-40 -63.5t-14 -76.5v-289q0 -40 14 -76t40 -63t62.5 -43t81.5 -16q46 0 83 16t63.5 43t40.5 63t14 76v289z" />
    <glyph glyph-name="one" unicode="1" horiz-adv-x="282" 
d="M189 700v-700h-20v609q-16 -23 -48 -34t-86 -11v20q44 0 70.5 6.5t40.5 20.5t18.5 36t4.5 53h20z" />
    <glyph glyph-name="two" unicode="2" horiz-adv-x="525" 
d="M48 0q0 81 12 136.5t38.5 93.5t70 62.5t106.5 43.5q39 12 72 26t57 35t37.5 51.5t13.5 75.5q0 34 -12 64t-35.5 52.5t-59 35.5t-82.5 13t-84 -15.5t-62.5 -42.5t-39 -63t-13.5 -78h-20q0 46 15 86t43 69.5t69 46.5t92 17q52 0 91 -14t65 -39t39.5 -59t13.5 -73
q0 -50 -15 -84t-41 -57t-61.5 -38.5t-76.5 -27.5q-60 -18 -100.5 -41.5t-65.5 -58.5t-36 -83t-11 -114h417v-20h-437v0z" />
    <glyph glyph-name="three" unicode="3" horiz-adv-x="528" 
d="M53 182q0 -38 14 -69.5t40 -54t62.5 -35t81.5 -12.5q46 0 83 12.5t63.5 35t40.5 54t14 69.5q0 37 -13.5 68t-38.5 53t-60.5 34.5t-79.5 12.5h-59v20h58q42 0 76 11.5t57.5 32t36.5 49.5t13 64q0 36 -13.5 66t-38 51t-60 33t-79.5 12q-43 0 -78 -12t-59.5 -33t-38 -51
t-13.5 -66h-20q0 40 15 73.5t42 57.5t65.5 37.5t86.5 13.5t87 -13.5t66.5 -37.5t42.5 -57.5t15 -73.5q0 -63 -38 -109.5t-111 -57.5q77 -11 118 -60.5t41 -117.5q0 -42 -15.5 -77.5t-44.5 -60.5t-69.5 -39t-91.5 -14q-50 0 -90 14t-68.5 39t-44 60.5t-15.5 77.5h20z" />
    <glyph glyph-name="four" unicode="4" horiz-adv-x="532" 
d="M352 270h-277v430h20v-410h257v233h20v-233h132v-20h-132v-270h-20v270z" />
    <glyph glyph-name="five" unicode="5" horiz-adv-x="574" 
d="M95 700h374v-20h-354v-355q22 45 70 71.5t108 26.5q51 0 91.5 -16.5t69.5 -45.5t44.5 -68t15.5 -84q0 -44 -15.5 -83.5t-44.5 -69.5t-69.5 -47.5t-91.5 -17.5q-50 0 -90 17.5t-68.5 47.5t-44 69.5t-15.5 83.5h20q0 -40 14 -76t40 -63t62.5 -43t81.5 -16q46 0 83 16
t63.5 43t40.5 63t14 76t-14 75.5t-40.5 62t-63.5 41.5t-83 15q-63 0 -106.5 -27.5t-65.5 -77.5h-26v402z" />
    <glyph glyph-name="six" unicode="6" horiz-adv-x="516" 
d="M255 -9q-50 0 -90 17.5t-68.5 47.5t-44 69.5t-15.5 83.5q0 67 33 120l231 371h24l-198 -317q20 23 56 34t72 11q51 0 91.5 -17.5t69.5 -47.5t44.5 -69.5t15.5 -84.5q0 -44 -15.5 -83.5t-44.5 -69.5t-69.5 -47.5t-91.5 -17.5zM255 11q46 0 83 16t63.5 43t40.5 63t14 76
t-14 76.5t-40.5 63.5t-63.5 43t-83 16q-45 0 -81.5 -16t-62.5 -43t-40 -63.5t-14 -76.5t14 -76t40 -63t62.5 -43t81.5 -16z" />
    <glyph glyph-name="seven" unicode="7" horiz-adv-x="429" 
d="M434 700l-350 -700h-22l339 680h-363v20h396z" />
    <glyph glyph-name="eight" unicode="8" horiz-adv-x="552" 
d="M276 -9q-51 0 -91.5 14t-69.5 39t-44.5 60.5t-15.5 77.5q0 34 10.5 64t30.5 53.5t49.5 39t68.5 21.5q-73 11 -111 57.5t-38 109.5q0 40 15 73.5t42.5 57.5t66.5 37.5t87 13.5t87 -13.5t66.5 -37.5t42.5 -57.5t15 -73.5q0 -63 -38 -109.5t-111 -57.5q39 -6 68.5 -21.5
t49.5 -39t30.5 -53.5t10.5 -64q0 -42 -15.5 -77.5t-44.5 -60.5t-69.5 -39t-91.5 -14zM276 370q91 0 141 43.5t50 113.5q0 36 -13.5 66t-38 51t-60 33t-79.5 12q-43 0 -78 -12t-59.5 -33t-38 -51t-13.5 -66q0 -70 49.5 -113.5t139.5 -43.5zM276 11q46 0 83 12.5t63.5 35
t40.5 54t14 69.5q0 37 -13.5 68t-39.5 53t-63.5 34.5t-84.5 12.5t-84.5 -12.5t-63.5 -34.5t-39.5 -53t-13.5 -68q0 -38 14 -69.5t40.5 -54t63.5 -35t83 -12.5z" />
    <glyph glyph-name="nine" unicode="9" horiz-adv-x="516" 
d="M261 709q49 0 89.5 -17.5t69 -47.5t44 -69.5t15.5 -83.5q0 -68 -33 -120l-231 -371h-24l198 317q-20 -23 -56 -34t-72 -11q-51 0 -91.5 17.5t-69.5 47.5t-44.5 69.5t-15.5 84.5q0 44 15.5 83.5t44.5 69.5t69.5 47.5t91.5 17.5zM261 689q-46 0 -83 -16t-63.5 -43
t-40.5 -63t-14 -76q0 -41 14 -77t40.5 -63t63.5 -43t83 -16q45 0 81.5 16t62.5 43t40 63t14 77q0 40 -14 76t-40 63t-62.5 43t-81.5 16z" />
    <glyph glyph-name="colon" unicode=":" horiz-adv-x="177" 
d="M78 103h20v-103h-20v103zM78 419h20v-103h-20v103z" />
    <glyph glyph-name="semicolon" unicode=";" horiz-adv-x="178" 
d="M78 419h20v-103h-20v103zM78 103h20v-124q0 -52 -28 -73.5t-70 -21.5v20q34 0 56 17t22 58v124z" />
    <glyph glyph-name="less" unicode="&#x3c;" 
d="M25 274v20l507 194v-22l-478 -182l478 -183v-22z" />
    <glyph glyph-name="equal" unicode="=" 
d="M78 363v20h404v-20h-404zM78 184v20h404v-20h-404z" />
    <glyph glyph-name="greater" unicode="&#x3e;" 
d="M28 79v22l478 183l-478 182v22l507 -194v-20z" />
    <glyph glyph-name="question" unicode="?" horiz-adv-x="482" 
d="M207 188q0 44 8.5 73.5t24 50t36.5 34.5t46 27q15 8 33 19.5t34 29.5t27 44.5t11 65.5q0 75 -46 118t-139 43q-47 0 -84.5 -15.5t-63.5 -42.5t-40 -63t-14 -78h-20q0 46 15.5 86t44 69.5t70 46.5t92.5 17q103 0 154 -48t51 -133q0 -43 -12 -72.5t-30 -50t-38 -33
t-36 -21.5q-23 -12 -42 -24.5t-32.5 -30.5t-21.5 -45t-8 -67h-20zM207 103h20v-103h-20v103z" />
    <glyph glyph-name="at" unicode="@" horiz-adv-x="927" 
d="M625 127q-20 -55 -68.5 -90.5t-120.5 -35.5q-47 0 -84.5 16.5t-64.5 44.5t-41.5 65.5t-14.5 78.5q0 42 14.5 79t41.5 65.5t64.5 45t84.5 16.5q72 0 120.5 -35.5t68.5 -91.5v119h19v-347q0 -53 25.5 -78.5t56.5 -25.5q61 0 87 69t26 223q0 174 -99.5 261.5t-297.5 87.5
q-74 0 -142 -27t-120 -77t-83.5 -122t-31.5 -162q0 -73 26 -142t77.5 -123t129.5 -86.5t182 -32.5q33 0 70 3t76 11t78.5 22t77.5 35l10 -17q-39 -22 -80 -36.5t-81.5 -22.5t-79 -11.5t-71.5 -3.5q-109 0 -190.5 34.5t-136 91t-81.5 129t-27 149.5q0 94 33 170t88 128.5
t126.5 81t149.5 28.5q207 0 312 -93t105 -276q0 -164 -29.5 -238t-103.5 -74q-45 0 -73 32t-28 92v70zM436 19q43 0 78 15t59.5 41t38 59.5t13.5 71.5t-13.5 72t-38 59.5t-59.5 40.5t-78 15q-42 0 -76.5 -15t-58.5 -40.5t-37.5 -59.5t-13.5 -72t13.5 -71.5t37.5 -59.5
t58.5 -41t76.5 -15z" />
    <glyph glyph-name="A" unicode="A" horiz-adv-x="521" 
d="M490 0l-56 162h-348l-55 -162h-21l240 700h21l240 -700h-21zM260 676l-167 -494h334z" />
    <glyph glyph-name="B" unicode="B" horiz-adv-x="568" 
d="M93 700h239q37 0 69.5 -14t56.5 -38.5t37.5 -57.5t13.5 -70q0 -29 -9 -57t-26 -51.5t-41 -39.5t-54 -22q30 -6 54.5 -22.5t42 -39.5t27 -51t9.5 -57q0 -37 -14 -70t-38.5 -57.5t-57.5 -38.5t-70 -14h-239v700zM113 340v-320h219q33 0 62 12.5t51 34.5t34.5 51t12.5 62
q0 32 -12 61t-33 51t-49 35t-60 13h-225zM338 360q31 0 59 13t48 35t32 51t12 61q0 33 -12 62t-33.5 51t-50 34.5t-61.5 12.5h-219v-320h225z" />
    <glyph glyph-name="C" unicode="C" horiz-adv-x="774" 
d="M728 187q-17 -43 -47 -79.5t-70.5 -63.5t-91 -42t-107.5 -15q-85 0 -152.5 29.5t-114.5 79.5t-72 116t-25 139q0 70 24 135.5t69 116t110 80.5t147 30q70 0 125.5 -17.5t96.5 -48.5t68 -72.5t40 -90.5h-20q-13 45 -38.5 83t-64 66t-90 44t-117.5 16q-77 0 -138.5 -28.5
t-104 -76t-65 -109t-22.5 -128.5q0 -69 23.5 -131.5t68 -109.5t108 -75t144.5 -28q53 0 99.5 13.5t84 37.5t65.5 57t45 72h22z" />
    <glyph glyph-name="D" unicode="D" horiz-adv-x="686" 
d="M275 700q87 0 154.5 -30t114 -79t70.5 -112t24 -129t-24 -129t-70.5 -112t-114 -79t-154.5 -30h-182v700h182zM113 680v-660h162q82 0 146 28t107.5 74.5t66.5 105.5t23 122t-23 122t-66.5 105.5t-107.5 74.5t-146 28h-162z" />
    <glyph glyph-name="E" unicode="E" horiz-adv-x="540" 
d="M113 680v-322h339v-20h-339v-318h339v-20h-359v700h359v-20h-339z" />
    <glyph glyph-name="F" unicode="F" horiz-adv-x="538" 
d="M113 680v-333h339v-20h-339v-327h-20v700h359v-20h-339z" />
    <glyph glyph-name="G" unicode="G" horiz-adv-x="828" 
d="M443 296h350v-20h-70q-6 -65 -28.5 -118.5t-62 -91.5t-96.5 -58.5t-132 -20.5q-87 0 -153.5 30.5t-111.5 80.5t-68 115.5t-23 136.5q0 70 24.5 136t70 116t111.5 80.5t150 30.5q51 0 96 -12.5t81.5 -34.5t62.5 -52t39 -66h-21q-13 31 -37 57.5t-57.5 46t-75 30.5
t-88.5 11q-79 0 -141.5 -28.5t-105.5 -76t-66 -109.5t-23 -129t22 -129t64.5 -109.5t105 -76t144.5 -28.5q70 0 123.5 19.5t90 54.5t57.5 85t27 110h-259v20z" />
    <glyph glyph-name="H" unicode="H" horiz-adv-x="660" 
d="M547 338h-434v-338h-20v700h20v-342h434v342h20v-700h-20v338z" />
    <glyph glyph-name="I" unicode="I" horiz-adv-x="206" 
d="M93 700h20v-700h-20v700z" />
    <glyph glyph-name="J" unicode="J" horiz-adv-x="535" 
d="M457 205q0 -52 -16 -92.5t-44 -68.5t-67 -42.5t-84 -14.5t-85.5 14.5t-72 42.5t-50 68.5t-18.5 92.5h20q0 -47 17 -83.5t45.5 -62t65.5 -39t78 -13.5t76 13.5t60.5 39t40 62t14.5 83.5v495h20v-495z" />
    <glyph glyph-name="K" unicode="K" horiz-adv-x="539" 
d="M113 350v-350h-20v700h20v-350l394 350h30l-394 -350l394 -350h-30z" />
    <glyph glyph-name="L" unicode="L" horiz-adv-x="414" 
d="M379 20v-20h-286v700h20v-680h266z" />
    <glyph glyph-name="M" unicode="M" horiz-adv-x="807" 
d="M714 0h-20v653l-280 -653h-21l-280 653v-653h-20v700h21l289 -676l290 676h21v-700z" />
    <glyph glyph-name="N" unicode="N" horiz-adv-x="659" 
d="M546 31v669h20v-700h-24l-429 669v-669h-20v700h24z" />
    <glyph glyph-name="O" unicode="O" horiz-adv-x="812" 
d="M406 -13q-84 0 -150 30.5t-112.5 80.5t-71 115.5t-24.5 136.5q0 70 24.5 136t71 116t112.5 80.5t150 30.5t150 -30.5t112.5 -80.5t71 -116t24.5 -136q0 -71 -24.5 -136.5t-71 -115.5t-112.5 -80.5t-150 -30.5zM406 7q79 0 142 28.5t106.5 76t66.5 109.5t23 129t-23 129
t-66.5 109.5t-106.5 76t-142 28.5t-142 -28.5t-106.5 -76t-66.5 -109.5t-23 -129t23 -129t66.5 -109.5t106.5 -76t142 -28.5z" />
    <glyph glyph-name="P" unicode="P" horiz-adv-x="595" 
d="M93 700h230q51 0 91.5 -17.5t69.5 -47.5t44.5 -69.5t15.5 -84.5q0 -44 -15.5 -83.5t-44.5 -69.5t-69.5 -47.5t-91.5 -17.5h-210v-263h-20v700zM323 283q46 0 83 16t63.5 43t40.5 63t14 76t-14 76.5t-40.5 63.5t-63.5 43t-83 16h-210v-397h210z" />
    <glyph glyph-name="Q" unicode="Q" horiz-adv-x="812" 
d="M764 350q0 -80 -26.5 -145t-72.5 -112t-107 -74t-131 -31l67 -95l-18 -9l-71 103q-84 0 -150 30.5t-112 81t-70.5 115.5t-24.5 136q0 70 24.5 136t71 116t112.5 80.5t150 30.5t150 -30.5t112.5 -80.5t71 -116t24.5 -136zM406 7q79 0 142 28.5t106.5 76t66.5 109.5t23 129
t-23 129t-66.5 109.5t-106.5 76t-142 28.5t-142 -28.5t-106.5 -76t-66.5 -109.5t-23 -129t23 -129t66.5 -109.5t106.5 -76t142 -28.5z" />
    <glyph glyph-name="R" unicode="R" horiz-adv-x="595" 
d="M93 700h230q51 0 91.5 -17.5t69.5 -47.5t44.5 -69.5t15.5 -84.5q0 -40 -12.5 -76t-36 -64.5t-56.5 -48t-74 -26.5l174 -266h-25l-171 263h-230v-263h-20v700zM323 283q46 0 83 16t63.5 43t40.5 63t14 76t-14 76.5t-40.5 63.5t-63.5 43t-83 16h-210v-397h210z" />
    <glyph glyph-name="S" unicode="S" horiz-adv-x="575" 
d="M72 205q0 -42 15 -78.5t44 -63t70.5 -41.5t95.5 -15q99 0 154.5 42.5t55.5 120.5q0 47 -17 77.5t-45.5 49t-64.5 29t-73 18.5q-44 9 -84.5 20t-72 32t-50.5 55t-19 90q0 35 13.5 66.5t40.5 55t68.5 37t98.5 13.5q99 0 154 -52.5t58 -148.5h-20q-3 86 -53 133.5t-139 47.5
q-51 0 -89 -12t-63 -33t-37 -48.5t-12 -58.5q0 -50 17.5 -80.5t47 -49t68 -28.5t79.5 -19q40 -8 78.5 -19.5t68.5 -32.5t48.5 -55t18.5 -87q0 -88 -60.5 -135.5t-169.5 -47.5q-59 0 -104.5 16.5t-76.5 46t-47.5 69t-16.5 86.5h20z" />
    <glyph glyph-name="T" unicode="T" horiz-adv-x="465" 
d="M222 680h-204v20h429v-20h-205v-680h-20v680z" />
    <glyph glyph-name="U" unicode="U" horiz-adv-x="595" 
d="M78 700h20v-495q0 -40 14 -76t40 -63t62.5 -43t81.5 -16q46 0 83 16t63.5 43t40.5 63t14 76v495h20v-495q0 -44 -15.5 -83.5t-44.5 -69.5t-69.5 -47.5t-91.5 -17.5q-50 0 -90 17.5t-68.5 47.5t-44 69.5t-15.5 83.5v495z" />
    <glyph glyph-name="V" unicode="V" horiz-adv-x="544" 
d="M283 0h-21l-254 700h21l243 -674l243 674h21z" />
    <glyph glyph-name="W" unicode="W" horiz-adv-x="907" 
d="M453 671l-193 -671h-21l-232 700h21l221 -673l194 673h21l194 -673l221 673h21l-232 -700h-21z" />
    <glyph glyph-name="X" unicode="X" horiz-adv-x="506" 
d="M469 700h23l-228 -350l228 -350h-23l-216 332l-216 -332h-23l227 350l-227 350h23l216 -333z" />
    <glyph glyph-name="Y" unicode="Y" horiz-adv-x="527" 
d="M157 0h-23l144 273l-272 427h24l259 -406l213 406h22z" />
    <glyph glyph-name="Z" unicode="Z" horiz-adv-x="527" 
d="M39 700h483l-466 -680h486v-20h-524l466 680h-445v20z" />
    <glyph glyph-name="bracketleft" unicode="[" horiz-adv-x="275" 
d="M93 -234v1029h182v-21h-162v-988h162v-20h-182z" />
    <glyph glyph-name="backslash" unicode="\" horiz-adv-x="385" 
d="M364 -68l-18 -8l-364 845l18 8z" />
    <glyph glyph-name="bracketright" unicode="]" horiz-adv-x="275" 
d="M0 -234v20h162v988h-162v21h182v-1029h-182z" />
    <glyph glyph-name="asciicircum" unicode="^" horiz-adv-x="608" 
d="M525 323l-222 404l-220 -404h-23l233 427h20l235 -427h-23z" />
    <glyph glyph-name="underscore" unicode="_" 
d="M30 -70v20h500v-20h-500z" />
    <glyph glyph-name="grave" unicode="`" horiz-adv-x="260" 
d="M0 700l10 18l249 -137l-10 -18z" />
    <glyph glyph-name="a" unicode="a" horiz-adv-x="580" 
d="M487 419v-419h-20v125q-22 -59 -73.5 -96.5t-127.5 -37.5q-50 0 -90 17.5t-68.5 47.5t-44 69.5t-15.5 83.5q0 45 15.5 84.5t44 69.5t68.5 47.5t90 17.5q76 0 127.5 -37.5t73.5 -97.5v126h20zM266 11q46 0 83 16t63.5 43t40.5 63t14 76t-14 76.5t-40.5 63.5t-63.5 43
t-83 16q-45 0 -81.5 -16t-62.5 -43t-40 -63.5t-14 -76.5t14 -76t40 -63t62.5 -43t81.5 -16z" />
    <glyph glyph-name="b" unicode="b" horiz-adv-x="580" 
d="M113 0h-20v700h20v-407q22 60 73.5 97.5t127.5 37.5q49 0 89.5 -17.5t69 -47.5t44 -69.5t15.5 -84.5q0 -44 -15.5 -83.5t-44 -69.5t-69 -47.5t-89.5 -17.5q-76 0 -127.5 37.5t-73.5 96.5v-125zM314 11q45 0 81.5 16t62.5 43t40 63t14 76t-14 76.5t-40 63.5t-62.5 43
t-81.5 16q-46 0 -83 -16t-63.5 -43t-40.5 -63.5t-14 -76.5t14 -76t40.5 -63t63.5 -43t83 -16z" />
    <glyph glyph-name="c" unicode="c" horiz-adv-x="514" 
d="M435 266q-3 27 -14 52.5t-32 46t-52.5 32.5t-75.5 12q-46 0 -81 -16.5t-59 -44.5t-36 -63.5t-12 -74.5t12 -75t36 -63.5t59 -44t81 -16.5q41 0 71.5 10.5t52.5 28.5t34.5 42t17.5 52h21q-5 -32 -19 -60t-38 -48.5t-59 -32.5t-81 -12q-51 0 -90 18t-65 48.5t-39.5 70
t-13.5 82.5t13.5 82.5t40 70t65 48.5t89.5 18q49 0 84.5 -14t59 -37t35.5 -52t15 -60h-20z" />
    <glyph glyph-name="d" unicode="d" horiz-adv-x="580" 
d="M467 125q-22 -59 -73.5 -96.5t-127.5 -37.5q-50 0 -90 17.5t-68.5 47.5t-44 69.5t-15.5 83.5q0 45 15.5 84.5t44 69.5t68.5 47.5t90 17.5q76 0 127.5 -37.5t73.5 -97.5v407h20v-700h-20v125zM266 11q46 0 83 16t63.5 43t40.5 63t14 76t-14 76.5t-40.5 63.5t-63.5 43
t-83 16q-45 0 -81.5 -16t-62.5 -43t-40 -63.5t-14 -76.5t14 -76t40 -63t62.5 -43t81.5 -16z" />
    <glyph glyph-name="e" unicode="e" horiz-adv-x="507" 
d="M257 409q-41 0 -73.5 -13t-55.5 -36t-37 -55t-17 -70h357q0 39 -14 71t-37.5 55t-55 35.5t-67.5 12.5zM73 215q0 -40 11.5 -77t35 -65t58.5 -45t83 -17q32 0 58.5 8.5t47.5 22.5t35 32.5t21 39.5h21q-7 -25 -22.5 -47t-38.5 -39t-54 -27t-68 -10q-53 0 -92 18t-64.5 48.5
t-38.5 70t-13 82.5q0 47 13.5 87t40 69t64.5 45.5t87 16.5q40 0 75.5 -14.5t61.5 -39.5t41 -59t15 -74v-11.5t-1 -14.5h-377z" />
    <glyph glyph-name="f" unicode="f" horiz-adv-x="310" 
d="M306 675q-14 6 -26 8.5t-35 2.5q-17 0 -33.5 -4.5t-30 -18t-22 -38t-8.5 -65.5v-141h155v-20h-155v-399h-20v399h-106v20h106v141q0 47 10 76t26.5 44.5t37 20.5t40.5 5q23 0 35.5 -3t25.5 -8v-20z" />
    <glyph glyph-name="g" unicode="g" horiz-adv-x="580" 
d="M266 408q-45 0 -81.5 -16t-62.5 -43t-40 -63t-14 -76q0 -41 14 -77t40 -63t62.5 -43t81.5 -16q46 0 83 16t63.5 43t40.5 63t14 77q0 40 -14 76t-40.5 63t-63.5 43t-83 16zM487 -46q0 -68 -15.5 -114.5t-44 -75.5t-70.5 -41.5t-94 -12.5q-58 0 -97.5 17.5t-64.5 47
t-36.5 68.5t-13.5 83h20q1 -39 11.5 -74.5t33 -62.5t58.5 -43t89 -16q48 0 86 11.5t64 38t40 69.5t14 105v172q-22 -60 -73.5 -97.5t-127.5 -37.5q-50 0 -90 17.5t-68.5 47.5t-44 69.5t-15.5 84.5q0 44 15.5 83.5t44 69.5t68.5 47.5t90 17.5q76 0 127.5 -37.5t73.5 -96.5
v125h20v-465z" />
    <glyph glyph-name="h" unicode="h" horiz-adv-x="554" 
d="M93 700h20v-409q8 26 23.5 51t39 44t54 30.5t67.5 11.5q81 0 126 -48q48 -48 48 -138v-242h-20v240q0 36 -9.5 66.5t-29 53t-49 35.5t-68.5 13q-45 0 -79.5 -18.5t-57 -47.5t-34 -63.5t-11.5 -66.5v-212h-20v700z" />
    <glyph glyph-name="i" unicode="i" horiz-adv-x="206" 
d="M93 648h20v-103h-20v103zM93 419h20v-419h-20v419z" />
    <glyph glyph-name="j" unicode="j" horiz-adv-x="206" 
d="M93 648h20v-103h-20v103zM113 -161q0 -58 -26.5 -91.5t-71.5 -33.5q-21 0 -34 2.5t-29 10.5v23q14 -8 27 -12t36 -4q36 0 57 28t21 77v580h20v-580z" />
    <glyph glyph-name="k" unicode="k" horiz-adv-x="410" 
d="M146 209l246 -209h-33l-246 209v-209h-20v700h20v-491l246 210h33z" />
    <glyph glyph-name="l" unicode="l" horiz-adv-x="206" 
d="M93 700h20v-700h-20v700z" />
    <glyph glyph-name="m" unicode="m" horiz-adv-x="787" 
d="M682 0v260q0 43 -10.5 71.5t-28 45.5t-40 24t-46.5 7q-38 0 -66 -18t-46.5 -46t-27.5 -63t-9 -69v-212h-20v236q0 55 -11.5 88.5t-29.5 52t-40.5 25t-45.5 6.5q-37 0 -65 -18t-46.5 -46t-27.5 -63t-9 -69v-212h-20v419h20v-129q4 26 15.5 50.5t30.5 44t44.5 31.5t57.5 12
q60 0 97.5 -33t44.5 -105q4 25 16.5 50t32 44.5t46 31.5t59.5 12q24 0 50 -6.5t47 -24.5t34.5 -50.5t13.5 -83.5v-263h-20z" />
    <glyph glyph-name="n" unicode="n" horiz-adv-x="554" 
d="M93 419h20v-128q8 26 23.5 51t39 44t54 30.5t67.5 11.5q81 0 126 -48q48 -48 48 -138v-242h-20v240q0 36 -9.5 66.5t-29 53t-49 35.5t-68.5 13q-45 0 -79.5 -18.5t-57 -47.5t-34 -63.5t-11.5 -66.5v-212h-20v419z" />
    <glyph glyph-name="o" unicode="o" horiz-adv-x="535" 
d="M266 -9q-50 0 -90 17.5t-68.5 47.5t-44 69.5t-15.5 83.5q0 45 15.5 84.5t44 69.5t68.5 47.5t90 17.5q51 0 91.5 -17.5t69.5 -47.5t44.5 -69.5t15.5 -84.5q0 -44 -15.5 -83.5t-44.5 -69.5t-69.5 -47.5t-91.5 -17.5zM266 11q46 0 83 16t63.5 43t40.5 63t14 76t-14 76.5
t-40.5 63.5t-63.5 43t-83 16q-45 0 -81.5 -16t-62.5 -43t-40 -63.5t-14 -76.5t14 -76t40 -63t62.5 -43t81.5 -16z" />
    <glyph glyph-name="p" unicode="p" horiz-adv-x="580" 
d="M113 294q22 59 73.5 96.5t127.5 37.5q49 0 89.5 -17.5t69 -47.5t44 -69.5t15.5 -83.5q0 -45 -15.5 -84.5t-44 -69.5t-69 -47.5t-89.5 -17.5q-76 0 -127.5 37.5t-73.5 97.5v-407h-20v700h20v-125zM314 408q-46 0 -83 -16t-63.5 -43t-40.5 -63t-14 -76q0 -41 14 -77
t40.5 -63t63.5 -43t83 -16q45 0 81.5 16t62.5 43t40 63t14 77q0 40 -14 76t-40 63t-62.5 43t-81.5 16z" />
    <glyph glyph-name="q" unicode="q" horiz-adv-x="580" 
d="M467 419h20v-700h-20v407q-22 -60 -73.5 -97.5t-127.5 -37.5q-50 0 -90 17.5t-68.5 47.5t-44 69.5t-15.5 84.5q0 44 15.5 83.5t44 69.5t68.5 47.5t90 17.5q76 0 127.5 -37.5t73.5 -96.5v125zM266 408q-45 0 -81.5 -16t-62.5 -43t-40 -63t-14 -76q0 -41 14 -77t40 -63
t62.5 -43t81.5 -16q46 0 83 16t63.5 43t40.5 63t14 77q0 40 -14 76t-40.5 63t-63.5 43t-83 16z" />
    <glyph glyph-name="r" unicode="r" horiz-adv-x="327" 
d="M327 400q-14 4 -22.5 5t-19.5 1q-46 0 -78.5 -21t-53.5 -52.5t-30.5 -69t-9.5 -70.5v-193h-20v419h20v-134q24 76 71.5 108.5t100.5 32.5q12 0 23 -1.5t19 -5.5v-19z" />
    <glyph glyph-name="s" unicode="s" horiz-adv-x="446" 
d="M225 221q31 -5 60 -10.5t52 -17t37 -32t14 -53.5q0 -54 -39 -85.5t-117 -31.5q-37 0 -70 8t-57.5 26t-38.5 46.5t-14 70.5h20q0 -36 12.5 -61t34.5 -40.5t50.5 -22.5t61.5 -7q69 0 103 26t34 70q0 27 -12.5 44t-33.5 26.5t-47.5 14.5t-53.5 9q-30 4 -58 9.5t-50 17
t-35 31.5t-13 52q0 57 41 87t110 30q72 0 118.5 -34t46.5 -103h-20q0 30 -11 52t-30 36.5t-45 21.5t-57 7q-60 0 -96.5 -25.5t-36.5 -72.5q0 -24 10 -39.5t28.5 -25t44.5 -15t57 -9.5z" />
    <glyph glyph-name="t" unicode="t" horiz-adv-x="306" 
d="M306 0q-13 -2 -32.5 -4t-36.5 -2q-24 0 -45 4.5t-37 19.5t-25.5 43.5t-9.5 76.5v261h-100v20h100v188h20v-188h150v-20h-150v-261q0 -41 8 -65.5t21.5 -37.5t31 -17t36.5 -4q14 0 34 2t35 4v-20z" />
    <glyph glyph-name="u" unicode="u" horiz-adv-x="551" 
d="M458 419v-419h-20v128q-8 -26 -24 -51t-39 -44t-53.5 -30.5t-67.5 -11.5q-39 0 -71 12t-55 36q-48 48 -48 138v242h20v-240q0 -36 9.5 -66.5t29 -53t49 -35.5t68.5 -13q45 0 79.5 18.5t57 47.5t34 63.5t11.5 66.5v212h20z" />
    <glyph glyph-name="v" unicode="v" horiz-adv-x="446" 
d="M36 419l186 -393l187 393h23l-200 -419h-20l-198 419h22z" />
    <glyph glyph-name="w" unicode="w" horiz-adv-x="675" 
d="M337 393l-140 -393h-20l-161 419h21l149 -395l141 395h21l140 -395l150 395h21l-161 -419h-20z" />
    <glyph glyph-name="x" unicode="x" horiz-adv-x="421" 
d="M383 0h-24l-149 194l-148 -194h-24l160 209l-160 210h24l148 -194l149 194h24l-161 -210z" />
    <glyph glyph-name="y" unicode="y" horiz-adv-x="557" 
d="M279 -290q-54 0 -90.5 13.5t-58.5 40t-32.5 66t-11.5 92.5h20q1 -47 10.5 -83t29.5 -60t52.5 -36.5t80.5 -12.5q43 0 74.5 11t52.5 35.5t31.5 64.5t10.5 97v190q-8 -26 -23.5 -51t-38 -44t-52.5 -30.5t-67 -11.5q-48 0 -77 10t-55 34q-24 23 -34.5 59t-10.5 93v232h20
v-230q0 -42 7.5 -75.5t26 -56t49 -34.5t76.5 -12q45 0 79 18.5t56 47.5t33 63.5t11 66.5v212h20v-481q0 -63 -11.5 -106.5t-35 -70.5t-59 -39t-83.5 -12z" />
    <glyph glyph-name="z" unicode="z" horiz-adv-x="423" 
d="M383 419l-311 -399h314v-20h-356l310 399h-295v20h338z" />
    <glyph glyph-name="braceleft" unicode="{" horiz-adv-x="300" 
d="M310 794v-20h-51q-21 0 -42 -7.5t-37.5 -22t-27 -37t-10.5 -52.5v-282q0 -22 -7 -39t-18 -29.5t-25 -21.5t-28 -14q14 -5 28 -14.5t25 -23.5t18 -32t7 -41v-253q0 -30 10.5 -52.5t27 -37t37.5 -22t42 -7.5h51v-20h-51q-24 0 -48.5 8.5t-44 25.5t-32 43.5t-12.5 61.5v253
q0 26 -10 45t-24 31.5t-30 18.5t-28 6v20q12 0 28 6t30 17.5t24 29t10 41.5v282q0 35 12.5 61t32 43.5t44 26t48.5 8.5h51z" />
    <glyph glyph-name="bar" unicode="|" horiz-adv-x="206" 
d="M93 -234v1028h20v-1028h-20z" />
    <glyph glyph-name="braceright" unicode="}" horiz-adv-x="300" 
d="M41 794q24 0 48.5 -8.5t44 -26t32 -43.5t12.5 -61v-282q0 -24 10 -41.5t24 -29t30 -17.5t28 -6v-20q-12 0 -28 -6t-30 -18.5t-24 -31.5t-10 -45v-253q0 -35 -12.5 -61.5t-32 -43.5t-44 -25.5t-48.5 -8.5h-51v20h51q21 0 42 7.5t37.5 22t27 37t10.5 52.5v253q0 23 7 41
t18 32t25 23.5t28 14.5q-14 5 -28 14t-25 21.5t-18 29.5t-7 39v282q0 30 -10.5 52.5t-27 37t-37.5 22t-42 7.5h-51v20h51z" />
    <glyph glyph-name="asciitilde" unicode="~" horiz-adv-x="492" 
d="M27 304q23 23 48 32t47 9q27 0 57 -9.5t61 -22.5l58 -24t50 -12q34 0 62 17t48 36v-25q-22 -19 -49.5 -33.5t-60.5 -14.5q-20 0 -47.5 10.5t-68.5 27.5q-28 12 -57 21t-53 9q-22 0 -48 -11.5t-47 -36.5v27z" />
    <glyph glyph-name="exclamdown" unicode="&#xa1;" horiz-adv-x="257" 
d="M118 253h20v-534h-20v534zM118 453h20v-103h-20v103z" />
    <glyph glyph-name="cent" unicode="&#xa2;" horiz-adv-x="514" 
d="M435 266q-3 27 -14 52.5t-32 46t-52.5 32.5t-75.5 12q-46 0 -81 -16.5t-59 -44.5t-36 -63.5t-12 -74.5t12 -75t36 -63.5t59 -44t81 -16.5q41 0 71.5 10.5t52.5 28.5t34.5 42t17.5 52h21q-5 -31 -18.5 -58t-36 -47.5t-55 -33t-75.5 -14.5v-111h-20v111q-49 1 -86.5 20
t-62.5 49t-38 69t-13 81t13 80.5t38.5 69t62.5 49t86 20.5v110h20v-110q46 -2 79 -16.5t55 -37t33.5 -51t14.5 -58.5h-20z" />
    <glyph glyph-name="sterling" unicode="&#xa3;" horiz-adv-x="613" 
d="M122 539q-7 -29 -6.5 -60t0.5 -60h238v-20h-238v-190q0 -37 -2 -65t-7 -50t-13 -40t-19 -34h404v-20h-428v20q12 17 21 34t14 39t7.5 50t2.5 66v190h-68v20h68v68q0 45 15.5 84.5t44 69.5t68.5 47.5t90 17.5q51 0 91.5 -17.5t69.5 -47.5t44.5 -69.5t15.5 -84.5h-20
q0 40 -14 76.5t-40.5 63.5t-63.5 43t-83 16q-38 0 -69.5 -11t-56 -31t-41.5 -47t-25 -58z" />
    <glyph glyph-name="currency" unicode="&#xa4;" horiz-adv-x="833" 
d="M510 207q-29 -26 -66.5 -40.5t-84.5 -14.5t-84.5 15.5t-65.5 41.5l-77 -77l-14 14l77 77q-26 29 -40 67t-14 80q0 86 54 148l-77 77l14 14l77 -77q28 26 65.5 41.5t84.5 15.5t84.5 -14.5t66.5 -40.5l75 75l14 -14l-75 -75q56 -62 56 -150q0 -43 -14.5 -81.5t-41.5 -67.5
l75 -75l-14 -14zM359 172q46 0 83 16t63.5 43t40.5 63t14 76t-14 76.5t-40.5 63.5t-63.5 43t-83 16q-45 0 -81.5 -16t-62.5 -43t-40 -63.5t-14 -76.5t14 -76t40 -63t62.5 -43t81.5 -16z" />
    <glyph glyph-name="yen" unicode="&#xa5;" horiz-adv-x="630" 
d="M26 700l292 -418l286 418h23l-299 -433h193v-18h-193v-122h193v-20h-193v-107h-20v107h-191v20h191v122h-191v18h191l-305 433h23z" />
    <glyph glyph-name="brokenbar" unicode="&#xa6;" horiz-adv-x="206" 
d="M93 310v484h20v-484h-20zM113 250v-484h-20v484h20z" />
    <glyph glyph-name="section" unicode="&#xa7;" horiz-adv-x="578" 
d="M262 133q-60 15 -98.5 29.5t-61 32.5t-31.5 42t-9 57q0 23 9 44t24.5 38t36 28t43.5 14q-35 20 -60 55t-25 89q0 42 16.5 74.5t45.5 54t70 32.5t90 11q50 0 90.5 -15.5t69 -43t43.5 -64.5t15 -79h-20q0 38 -14 71.5t-39.5 58t-62 38.5t-82.5 14q-45 0 -82 -9.5
t-63.5 -28.5t-41.5 -47.5t-15 -66.5q0 -45 19.5 -74t51 -48t70.5 -30t78 -21q60 -15 99 -29.5t62 -32.5t32 -41.5t9 -57.5q0 -23 -8.5 -43.5t-22.5 -37t-33.5 -28.5t-40.5 -17q51 -22 76 -55.5t25 -87.5q0 -45 -15.5 -76.5t-44.5 -51t-70 -28.5t-93 -9q-57 0 -103 17
t-78.5 46t-50 69t-17.5 86h20q0 -42 16 -78t46 -63t72 -42t95 -15q47 0 84.5 7t64 24t40.5 45t14 69q0 36 -14 62t-44 45.5t-76.5 35t-110.5 31.5zM511 228q0 34 -11 56t-33.5 36.5t-57 25t-81.5 23.5l-123 33q-33 0 -56 -11t-37.5 -27t-21 -35t-6.5 -35q0 -30 8 -50.5
t27.5 -35.5t52 -27t81.5 -25l150 -39q19 0 38.5 10t35 25.5t25 35.5t9.5 40z" />
    <glyph glyph-name="dieresis" unicode="&#xa8;" horiz-adv-x="438" 
d="M325 715h20v-103h-20v103zM94 715h20v-103h-20v103z" />
    <glyph glyph-name="copyright" unicode="&#xa9;" horiz-adv-x="810" 
d="M405 -17q-83 0 -149 30.5t-112.5 81.5t-71 117.5t-24.5 137.5t24.5 137.5t71 117.5t112.5 81.5t149 30.5t149 -30.5t112.5 -81.5t71 -117.5t24.5 -137.5t-24.5 -137.5t-71 -117.5t-112.5 -81.5t-149 -30.5zM596 252q-20 -52 -70.5 -86t-119.5 -34q-51 0 -91.5 17.5
t-68.5 47.5t-43 70t-15 84q0 42 14.5 81.5t41.5 69.5t66 48t88 18q42 0 75 -10.5t58 -29t41 -43.5t24 -55h-20q-15 51 -59 84.5t-119 33.5q-45 0 -80 -16.5t-59.5 -43.5t-37.5 -62.5t-13 -74.5q0 -40 13.5 -76t39 -63.5t62 -43.5t83.5 -16q60 0 104 28t64 72h22zM405 3
q78 0 140.5 29t106 77t67 110.5t23.5 130.5q0 67 -23.5 130t-67 111t-106 77t-140.5 29t-140.5 -29t-106 -77t-67 -111t-23.5 -130q0 -68 23.5 -130.5t67 -110.5t106 -77t140.5 -29z" />
    <glyph glyph-name="ordfeminine" unicode="&#xaa;" horiz-adv-x="580" 
d="M487 419v-419h-20v125q-22 -59 -73.5 -96.5t-127.5 -37.5q-50 0 -90 17.5t-68.5 47.5t-44 69.5t-15.5 83.5q0 45 15.5 84.5t44 69.5t68.5 47.5t90 17.5q76 0 127.5 -37.5t73.5 -97.5v126h20zM266 11q46 0 83 16t63.5 43t40.5 63t14 76t-14 76.5t-40.5 63.5t-63.5 43
t-83 16q-45 0 -81.5 -16t-62.5 -43t-40 -63.5t-14 -76.5t14 -76t40 -63t62.5 -43t81.5 -16z" />
    <glyph glyph-name="guillemotleft" unicode="&#xab;" horiz-adv-x="472" 
d="M432 105l-196 176v20l196 176v-27l-176 -159l176 -159v-27zM236 105l-196 176v20l196 176v-27l-176 -159l176 -159v-27z" />
    <glyph glyph-name="logicalnot" unicode="&#xac;" 
d="M462 278h-384v19h404v-157h-20v138z" />
    <glyph glyph-name="uni00AD" unicode="&#xad;" horiz-adv-x="294" 
d="M264 275h-234v20h234v-20z" />
    <glyph glyph-name="registered" unicode="&#xae;" horiz-adv-x="820" 
d="M410 -17q-84 0 -151.5 30.5t-114 81.5t-71.5 117.5t-25 137.5t25 137.5t71.5 117.5t114 81.5t151.5 30.5t151.5 -30.5t114 -81.5t71.5 -117.5t25 -137.5t-25 -137.5t-71.5 -117.5t-114 -81.5t-151.5 -30.5zM410 3q80 0 143.5 29t107.5 77t67.5 110.5t23.5 130.5
q0 67 -23.5 130t-67.5 111t-107.5 77t-143.5 29t-143.5 -29t-107.5 -77t-67.5 -111t-23.5 -130q0 -68 23.5 -130.5t67.5 -110.5t107.5 -77t143.5 -29zM297 161v407h134q28 0 51.5 -10.5t40 -28t25.5 -40.5t9 -49q0 -46 -27.5 -80.5t-75.5 -42.5l102 -156h-24l-101 154h-114
v-154h-20zM431 335q24 0 43.5 8.5t33.5 22.5t21.5 33.5t7.5 40.5q0 22 -7.5 41.5t-21.5 34.5t-33.5 23.5t-43.5 8.5h-114v-213h114z" />
    <glyph glyph-name="macron" unicode="&#xaf;" horiz-adv-x="503" 
d="M431 723h-358v20h358v-20z" />
    <glyph glyph-name="degree" unicode="&#xb0;" horiz-adv-x="336" 
d="M311 574q0 -30 -11 -56t-30.5 -45.5t-45.5 -30.5t-56 -11t-56 11t-45.5 30.5t-30.5 45.5t-11 56t11 56t30.5 45.5t45.5 30.5t56 11t56 -11t45.5 -30.5t30.5 -45.5t11 -56zM291 574q0 26 -9.5 48.5t-26 39t-39 26t-48.5 9.5t-48.5 -9.5t-39 -26t-26 -39t-9.5 -48.5
t9.5 -48.5t26 -39t39 -26t48.5 -9.5t48.5 9.5t39 26t26 39t9.5 48.5z" />
    <glyph glyph-name="plusminus" unicode="&#xb1;" 
d="M270 227v181h-182v20h182v183h20v-183h182v-20h-182v-181h-20zM88 97v19h384v-19h-384z" />
    <glyph glyph-name="twosuperior" unicode="&#xb2;" horiz-adv-x="349" 
d="M56 315q0 45 7 75.5t21.5 51.5t37.5 34.5t55 24.5q20 7 37.5 15t30 19t20 27.5t7.5 39.5q0 35 -24 59.5t-71 24.5t-73.5 -28.5t-26.5 -72.5h-21q0 52 33 86t88 34q56 0 86 -29t30 -75q0 -27 -9 -46.5t-24 -33t-34 -22t-39 -15.5q-31 -11 -51.5 -23.5t-33 -30t-18 -41
t-5.5 -55.5h218v-19h-241v0z" />
    <glyph glyph-name="threesuperior" unicode="&#xb3;" horiz-adv-x="355" 
d="M69 420q0 -41 28 -66t74 -25q48 0 75 25t27 63t-26 62.5t-73 24.5h-31v19h31q44 0 68.5 22.5t24.5 58.5q0 37 -25.5 59.5t-70.5 22.5t-70.5 -23.5t-25.5 -61.5h-21q0 47 31.5 75.5t84.5 28.5t85 -28t32 -73q0 -35 -19.5 -59.5t-56.5 -30.5q39 -7 61 -33.5t22 -63.5
q0 -48 -34 -77.5t-89 -29.5t-89 30t-34 80h21z" />
    <glyph glyph-name="acute" unicode="&#xb4;" horiz-adv-x="260" 
d="M11 563l-10 18l249 137l10 -18z" />
    <glyph glyph-name="uni00B5" unicode="&#xb5;" 
d="M91 419h20v-240q0 -36 9.5 -66.5t29 -53t49 -35.5t68.5 -13q45 0 79.5 18.5t57 47.5t34 63.5t11.5 66.5v212h20v-419h-20v128q-8 -26 -24 -51t-39 -44t-53.5 -30.5t-67.5 -11.5q-54 0 -93.5 22t-60.5 65v-359h-20v700z" />
    <glyph glyph-name="paragraph" unicode="&#xb6;" horiz-adv-x="608" 
d="M231 329q-46 0 -85.5 11.5t-68.5 35t-45.5 59.5t-16.5 85q0 44 12.5 75.5t33 53.5t46.5 35.5t53.5 20.5t54.5 9.5t49 2.5h281v-20h-53v-845h-20v844h-221v-844h-20v477zM35 520q0 -41 14.5 -72t41 -52.5t62.5 -33t78 -13.5v347q-31 -2 -65.5 -10.5t-63.5 -28t-48 -52.5
t-19 -85z" />
    <glyph glyph-name="periodcentered" unicode="&#xb7;" horiz-adv-x="177" 
d="M78 364h20v-103h-20v103z" />
    <glyph glyph-name="cedilla" unicode="&#xb8;" horiz-adv-x="248" 
d="M58 0h20v-90q9 20 27.5 29.5t35.5 9.5q44 0 68.5 -26.5t24.5 -64.5t-24.5 -65t-68.5 -27q-41 0 -65.5 27t-24.5 65h20q0 -29 19 -50.5t51 -21.5q35 0 54 21.5t19 50.5t-19 50t-54 21q-14 0 -31.5 -7.5t-31.5 -39.5h-20v118z" />
    <glyph glyph-name="onesuperior" unicode="&#xb9;" horiz-adv-x="224" 
d="M125 629q-10 -13 -28.5 -17t-47.5 -4v20q27 0 42.5 4t23 12.5t9 22t1.5 33.5h20v-385h-20v314z" />
    <glyph glyph-name="ordmasculine" unicode="&#xba;" horiz-adv-x="535" 
d="M266 -9q-50 0 -90 17.5t-68.5 47.5t-44 69.5t-15.5 83.5q0 45 15.5 84.5t44 69.5t68.5 47.5t90 17.5q51 0 91.5 -17.5t69.5 -47.5t44.5 -69.5t15.5 -84.5q0 -44 -15.5 -83.5t-44.5 -69.5t-69.5 -47.5t-91.5 -17.5zM266 11q46 0 83 16t63.5 43t40.5 63t14 76t-14 76.5
t-40.5 63.5t-63.5 43t-83 16q-45 0 -81.5 -16t-62.5 -43t-40 -63.5t-14 -76.5t14 -76t40 -63t62.5 -43t81.5 -16z" />
    <glyph glyph-name="guillemotright" unicode="&#xbb;" horiz-adv-x="472" 
d="M40 132l176 159l-176 159v27l196 -176v-20l-196 -176v27zM236 132l176 159l-176 159v27l196 -176v-20l-196 -176v27z" />
    <glyph glyph-name="onequarter" unicode="&#xbc;" horiz-adv-x="813" 
d="M673 142h-150v243h21v-223h129v126h21v-126h69v-20h-69v-142h-21v142zM535 777l18 -8l-364 -845l-18 8zM126 629q-10 -13 -28.5 -17t-47.5 -4v20q27 0 42.5 4t23 12.5t9 22t1.5 33.5h20v-385h-20v314z" />
    <glyph glyph-name="onehalf" unicode="&#xbd;" horiz-adv-x="813" 
d="M126 629q-10 -13 -28.5 -17t-47.5 -4v20q27 0 42.5 4t23 12.5t9 22t1.5 33.5h20v-385h-20v314zM535 777l18 -8l-364 -845l-18 8zM522 0q0 45 7 75.5t21.5 51.5t37.5 34.5t55 24.5q20 7 37.5 15t30 19t20 27.5t7.5 39.5q0 35 -24 59.5t-71 24.5t-73.5 -28.5t-26.5 -72.5
h-21q0 52 33 86t88 34q56 0 86 -29t30 -75q0 -27 -9 -46.5t-24 -33t-34 -22t-39 -15.5q-31 -11 -51.5 -23.5t-33 -30t-18 -41t-5.5 -55.5h218v-19h-241z" />
    <glyph glyph-name="threequarters" unicode="&#xbe;" horiz-adv-x="813" 
d="M71 420q0 -41 28 -66t74 -25q48 0 75 25t27 63t-26 62.5t-73 24.5h-31v19h31q44 0 68.5 22.5t24.5 58.5q0 37 -25.5 59.5t-70.5 22.5t-70.5 -23.5t-25.5 -61.5h-21q0 47 31.5 75.5t84.5 28.5t85 -28t32 -73q0 -35 -19.5 -59.5t-56.5 -30.5q39 -7 61 -33.5t22 -63.5
q0 -48 -34 -77.5t-89 -29.5t-89 30t-34 80h21zM673 142h-150v243h21v-223h129v126h21v-126h69v-20h-69v-142h-21v142zM569 777l18 -8l-364 -845l-18 8z" />
    <glyph glyph-name="questiondown" unicode="&#xbf;" horiz-adv-x="482" 
d="M275 232q0 -44 -8.5 -73.5t-24 -50t-36.5 -34.5t-46 -27q-15 -8 -33 -19.5t-34 -29.5t-27 -44.5t-11 -65.5q0 -75 46 -118t139 -43q47 0 84.5 15.5t63.5 42.5t40 63t14 78h20q0 -46 -15.5 -86t-44 -69.5t-70 -46.5t-92.5 -17q-103 0 -154 48t-51 133q0 43 12 72.5t30 50
t38 33t36 21.5q22 12 41.5 24.5t33 30.5t21.5 44.5t8 67.5h20zM255 437h20v-103h-20v103z" />
    <glyph glyph-name="Agrave" unicode="&#xc0;" horiz-adv-x="521" 
d="M511 0h-21l-56 162h-348l-55 -162h-21l240 700h21zM93 182h334l-167 494zM131 887l10 18l249 -137l-10 -18z" />
    <glyph glyph-name="Aacute" unicode="&#xc1;" horiz-adv-x="521" 
d="M511 0h-21l-56 162h-348l-55 -162h-21l240 700h21zM93 182h334l-167 494zM141 749l-10 18l249 137l10 -18z" />
    <glyph glyph-name="Acircumflex" unicode="&#xc2;" horiz-adv-x="521" 
d="M511 0h-21l-56 162h-348l-55 -162h-21l240 700h21zM93 182h334l-167 494zM260 913l170 -145l-12 -16l-158 135l-157 -135l-13 16z" />
    <glyph glyph-name="Atilde" unicode="&#xc3;" horiz-adv-x="521" 
d="M511 0h-21l-56 162h-348l-55 -162h-21l240 700h21zM93 182h334l-167 494zM338 809q26 0 48 18.5t30 45.5l20 -7q-14 -37 -41 -56t-57 -19q-24 0 -41.5 10t-33.5 22t-31.5 22t-34.5 10q-26 0 -48 -18.5t-30 -45.5l-20 7q14 37 41 56t57 19q24 0 41.5 -10t33.5 -22
t31.5 -22t34.5 -10z" />
    <glyph glyph-name="Adieresis" unicode="&#xc4;" horiz-adv-x="521" 
d="M365 858h20v-103h-20v103zM134 858h20v-103h-20v103zM511 0h-21l-56 162h-348l-55 -162h-21l240 700h21zM93 182h334l-167 494z" />
    <glyph glyph-name="Aring" unicode="&#xc5;" horiz-adv-x="521" 
d="M511 0h-21l-56 162h-348l-55 -162h-21l240 700h21zM93 182h334l-167 494zM261 976q25 0 47.5 -10t39.5 -26.5t26.5 -39t9.5 -47.5t-9.5 -47.5t-26.5 -39t-39.5 -26.5t-47.5 -10q-26 0 -48 10t-39 26.5t-26.5 39t-9.5 47.5t9.5 47.5t26.5 39.5t39 26.5t48 9.5zM261 956
q-21 0 -40 -8t-33 -22t-22 -33t-8 -40t8 -39.5t22 -33t33 -22.5t40 -8t40 8t33 22.5t22 33t8 39.5t-8 39.5t-22 33t-33 22.5t-40 8z" />
    <glyph glyph-name="AE" unicode="&#xc6;" horiz-adv-x="810" 
d="M383 680v-322h339v-20h-339v-318h339v-20h-359v162h-255l-83 -162h-22l360 700h359v-20h-339zM363 182v475l-244 -475h244z" />
    <glyph glyph-name="Ccedilla" unicode="&#xc7;" horiz-adv-x="774" 
d="M708 484q-13 45 -38.5 83t-64 66t-90 44t-117.5 16q-77 0 -138.5 -28.5t-104 -76t-65 -109t-22.5 -128.5q0 -69 23.5 -131.5t68 -109.5t108 -75t144.5 -28q53 0 99.5 13.5t84 37.5t65.5 57t45 72h22q-17 -43 -47 -79.5t-70.5 -63.5t-91 -42t-107.5 -15q-8 0 -15.5 0.5
t-15.5 0.5v-74q8 15 26 24.5t40 9.5q40 0 62.5 -24.5t22.5 -58.5q0 -35 -24 -59.5t-66 -24.5q-35 0 -58.5 21.5t-27.5 50.5h21q3 -22 20 -37.5t45 -15.5q33 0 51.5 19.5t18.5 45.5t-17 44.5t-48 18.5q-18 0 -36 -7.5t-30 -33.5h-20v103q-74 9 -132 41t-98.5 80.5t-61.5 110
t-21 129.5q0 70 24 135.5t69 116t110 80.5t147 30q70 0 125.5 -17.5t96.5 -48.5t68 -72.5t40 -90.5h-20z" />
    <glyph glyph-name="Egrave" unicode="&#xc8;" horiz-adv-x="540" 
d="M113 680v-322h339v-20h-339v-318h339v-20h-359v700h359v-20h-339zM150 886l10 18l249 -137l-10 -18z" />
    <glyph glyph-name="Eacute" unicode="&#xc9;" horiz-adv-x="540" 
d="M113 680v-322h339v-20h-339v-318h339v-20h-359v700h359v-20h-339zM170 750l-10 18l249 137l10 -18z" />
    <glyph glyph-name="Ecircumflex" unicode="&#xca;" horiz-adv-x="540" 
d="M113 680v-322h339v-20h-339v-318h339v-20h-359v700h359v-20h-339zM279 913l170 -145l-12 -16l-158 135l-157 -135l-13 16z" />
    <glyph glyph-name="Edieresis" unicode="&#xcb;" horiz-adv-x="540" 
d="M149 858h20v-103h-20v103zM380 858h20v-103h-20v103zM113 680v-322h339v-20h-339v-318h339v-20h-359v700h359v-20h-339z" />
    <glyph glyph-name="Igrave" unicode="&#xcc;" horiz-adv-x="206" 
d="M93 700h20v-700h-20v700zM-26 886l10 18l249 -137l-10 -18z" />
    <glyph glyph-name="Iacute" unicode="&#xcd;" horiz-adv-x="206" 
d="M93 700h20v-700h-20v700zM-16 750l-10 18l249 137l10 -18z" />
    <glyph glyph-name="Icircumflex" unicode="&#xce;" horiz-adv-x="206" 
d="M93 700h20v-700h-20v700zM103 913l170 -145l-12 -16l-158 135l-157 -135l-13 16z" />
    <glyph glyph-name="Idieresis" unicode="&#xcf;" horiz-adv-x="206" 
d="M208 858h20v-103h-20v103zM-23 858h20v-103h-20v103zM93 700h20v-700h-20v700z" />
    <glyph glyph-name="Eth" unicode="&#xd0;" horiz-adv-x="686" 
d="M275 700q87 0 154.5 -30t114 -79t70.5 -112t24 -129t-24 -129t-70.5 -112t-114 -79t-154.5 -30h-182v340h-104v20h104v340h182zM223 340h-110v-320h162q82 0 146 28t107.5 74.5t66.5 105.5t23 122t-23 122t-66.5 105.5t-107.5 74.5t-146 28h-162v-320h110v-20z" />
    <glyph glyph-name="Ntilde" unicode="&#xd1;" horiz-adv-x="659" 
d="M546 31v669h20v-700h-24l-429 669v-669h-20v700h24zM410 809q26 0 48 18.5t30 45.5l20 -7q-14 -37 -41 -56t-57 -19q-24 0 -41.5 10t-33.5 22t-31.5 22t-34.5 10q-26 0 -48 -18.5t-30 -45.5l-20 7q14 37 41 56t57 19q24 0 41.5 -10t33.5 -22t31.5 -22t34.5 -10z" />
    <glyph glyph-name="Ograve" unicode="&#xd2;" horiz-adv-x="812" 
d="M406 -13q-84 0 -150 30.5t-112.5 80.5t-71 115.5t-24.5 136.5q0 70 24.5 136t71 116t112.5 80.5t150 30.5t150 -30.5t112.5 -80.5t71 -116t24.5 -136q0 -71 -24.5 -136.5t-71 -115.5t-112.5 -80.5t-150 -30.5zM406 7q79 0 142 28.5t106.5 76t66.5 109.5t23 129t-23 129
t-66.5 109.5t-106.5 76t-142 28.5t-142 -28.5t-106.5 -76t-66.5 -109.5t-23 -129t23 -129t66.5 -109.5t106.5 -76t142 -28.5zM276 887l10 18l249 -137l-10 -18z" />
    <glyph glyph-name="Oacute" unicode="&#xd3;" horiz-adv-x="812" 
d="M406 -13q-84 0 -150 30.5t-112.5 80.5t-71 115.5t-24.5 136.5q0 70 24.5 136t71 116t112.5 80.5t150 30.5t150 -30.5t112.5 -80.5t71 -116t24.5 -136q0 -71 -24.5 -136.5t-71 -115.5t-112.5 -80.5t-150 -30.5zM406 7q79 0 142 28.5t106.5 76t66.5 109.5t23 129t-23 129
t-66.5 109.5t-106.5 76t-142 28.5t-142 -28.5t-106.5 -76t-66.5 -109.5t-23 -129t23 -129t66.5 -109.5t106.5 -76t142 -28.5zM286 750l-10 18l249 137l10 -18z" />
    <glyph glyph-name="Ocircumflex" unicode="&#xd4;" horiz-adv-x="812" 
d="M406 -13q-84 0 -150 30.5t-112.5 80.5t-71 115.5t-24.5 136.5q0 70 24.5 136t71 116t112.5 80.5t150 30.5t150 -30.5t112.5 -80.5t71 -116t24.5 -136q0 -71 -24.5 -136.5t-71 -115.5t-112.5 -80.5t-150 -30.5zM406 7q79 0 142 28.5t106.5 76t66.5 109.5t23 129t-23 129
t-66.5 109.5t-106.5 76t-142 28.5t-142 -28.5t-106.5 -76t-66.5 -109.5t-23 -129t23 -129t66.5 -109.5t106.5 -76t142 -28.5zM406 913l170 -145l-12 -16l-158 135l-157 -135l-13 16z" />
    <glyph glyph-name="Otilde" unicode="&#xd5;" horiz-adv-x="812" 
d="M406 -13q-84 0 -150 30.5t-112.5 80.5t-71 115.5t-24.5 136.5q0 70 24.5 136t71 116t112.5 80.5t150 30.5t150 -30.5t112.5 -80.5t71 -116t24.5 -136q0 -71 -24.5 -136.5t-71 -115.5t-112.5 -80.5t-150 -30.5zM406 7q79 0 142 28.5t106.5 76t66.5 109.5t23 129t-23 129
t-66.5 109.5t-106.5 76t-142 28.5t-142 -28.5t-106.5 -76t-66.5 -109.5t-23 -129t23 -129t66.5 -109.5t106.5 -76t142 -28.5zM477 809q26 0 48 18.5t30 45.5l20 -7q-14 -37 -41 -56t-57 -19q-24 0 -41.5 10t-33.5 22t-31.5 22t-34.5 10q-26 0 -48 -18.5t-30 -45.5l-20 7
q14 37 41 56t57 19q24 0 41.5 -10t33.5 -22t31.5 -22t34.5 -10z" />
    <glyph glyph-name="Odieresis" unicode="&#xd6;" horiz-adv-x="812" 
d="M280 858h20v-103h-20v103zM511 858h20v-103h-20v103zM406 -13q-84 0 -150 30.5t-112.5 80.5t-71 115.5t-24.5 136.5q0 70 24.5 136t71 116t112.5 80.5t150 30.5t150 -30.5t112.5 -80.5t71 -116t24.5 -136q0 -71 -24.5 -136.5t-71 -115.5t-112.5 -80.5t-150 -30.5zM68 350
q0 -67 23 -129t66.5 -109.5t106.5 -76t142 -28.5t142 28.5t106.5 76t66.5 109.5t23 129t-23 129t-66.5 109.5t-106.5 76t-142 28.5t-142 -28.5t-106.5 -76t-66.5 -109.5t-23 -129z" />
    <glyph glyph-name="multiply" unicode="&#xd7;" 
d="M415 435l14 -14l-136 -136l136 -136l-14 -14l-136 136l-135 -136l-14 14l135 136l-135 136l14 14l135 -136z" />
    <glyph glyph-name="Oslash" unicode="&#xd8;" horiz-adv-x="812" 
d="M406 -13q-40 0 -76 7t-68 20l-30 -71l-19 7l31 73q-47 22 -83.5 57t-61.5 77.5t-38 92t-13 100.5q0 70 24.5 136t71 116t112.5 80.5t150 30.5q68 0 125 -21l28 65l19 -7l-28 -65q51 -21 91 -56t67 -79t41.5 -95t14.5 -105q0 -71 -24.5 -136.5t-71 -115.5t-112.5 -80.5
t-150 -30.5zM406 7q79 0 142 28.5t106.5 76t66.5 109.5t23 129q0 51 -13.5 99t-39.5 89.5t-63.5 74.5t-85.5 53l-272 -633q61 -26 136 -26zM68 350q0 -48 12.5 -94.5t36 -87t57.5 -73t78 -54.5l271 633q-55 19 -117 19q-79 0 -142 -28.5t-106.5 -76t-66.5 -109.5t-23 -129z
" />
    <glyph glyph-name="Ugrave" unicode="&#xd9;" horiz-adv-x="595" 
d="M78 700h20v-495q0 -40 14 -76t40 -63t62.5 -43t81.5 -16q46 0 83 16t63.5 43t40.5 63t14 76v495h20v-495q0 -44 -15.5 -83.5t-44.5 -69.5t-69.5 -47.5t-91.5 -17.5q-50 0 -90 17.5t-68.5 47.5t-44 69.5t-15.5 83.5v495zM168 887l10 18l249 -137l-10 -18z" />
    <glyph glyph-name="Uacute" unicode="&#xda;" horiz-adv-x="595" 
d="M78 700h20v-495q0 -40 14 -76t40 -63t62.5 -43t81.5 -16q46 0 83 16t63.5 43t40.5 63t14 76v495h20v-495q0 -44 -15.5 -83.5t-44.5 -69.5t-69.5 -47.5t-91.5 -17.5q-50 0 -90 17.5t-68.5 47.5t-44 69.5t-15.5 83.5v495zM178 750l-10 18l249 137l10 -18z" />
    <glyph glyph-name="Ucircumflex" unicode="&#xdb;" horiz-adv-x="595" 
d="M78 700h20v-495q0 -40 14 -76t40 -63t62.5 -43t81.5 -16q46 0 83 16t63.5 43t40.5 63t14 76v495h20v-495q0 -44 -15.5 -83.5t-44.5 -69.5t-69.5 -47.5t-91.5 -17.5q-50 0 -90 17.5t-68.5 47.5t-44 69.5t-15.5 83.5v495zM301 914l170 -145l-12 -16l-158 135l-157 -135
l-13 16z" />
    <glyph glyph-name="Udieresis" unicode="&#xdc;" horiz-adv-x="595" 
d="M171 858h20v-103h-20v103zM402 858h20v-103h-20v103zM78 700h20v-495q0 -40 14 -76t40 -63t62.5 -43t81.5 -16q46 0 83 16t63.5 43t40.5 63t14 76v495h20v-495q0 -44 -15.5 -83.5t-44.5 -69.5t-69.5 -47.5t-91.5 -17.5q-50 0 -90 17.5t-68.5 47.5t-44 69.5t-15.5 83.5
v495z" />
    <glyph glyph-name="Yacute" unicode="&#xdd;" horiz-adv-x="527" 
d="M157 0h-23l144 273l-272 427h24l259 -406l213 406h22zM175 758l-10 18l249 137l10 -18z" />
    <glyph glyph-name="Thorn" unicode="&#xde;" horiz-adv-x="496" 
d="M93 700h20v-136h130q51 0 91.5 -17.5t69.5 -47.5t44.5 -69.5t15.5 -84.5q0 -44 -15.5 -83.5t-44.5 -69.5t-69.5 -47.5t-91.5 -17.5h-130v-127h-20v700zM113 544v-397h130q46 0 83 16t63.5 43t40.5 63t14 76t-14 76.5t-40.5 63.5t-63.5 43t-83 16h-130z" />
    <glyph glyph-name="germandbls" unicode="&#xdf;" horiz-adv-x="551" 
d="M186 22q39 -15 88 -15q46 0 83 12.5t63.5 35t40.5 54t14 69.5q0 37 -14.5 68.5t-41 54.5t-63 36t-80.5 13h-56v20h55q42 0 76 12t57.5 33.5t36.5 51t13 64.5q0 72 -46.5 117t-134.5 45q-87 0 -133 -45t-46 -117v-531h-20v531q0 40 13 73.5t38.5 57.5t62.5 37.5t85 13.5
q97 0 149 -50.5t52 -131.5q0 -32 -10 -61t-30 -52.5t-49 -39t-68 -18.5q41 -5 73.5 -21t55 -40.5t34 -55.5t11.5 -65q0 -42 -15.5 -77.5t-44.5 -60.5t-69.5 -39t-91.5 -14q-50 0 -88 13v22z" />
    <glyph glyph-name="agrave" unicode="&#xe0;" horiz-adv-x="580" 
d="M487 419v-419h-20v125q-22 -59 -73.5 -96.5t-127.5 -37.5q-50 0 -90 17.5t-68.5 47.5t-44 69.5t-15.5 83.5q0 45 15.5 84.5t44 69.5t68.5 47.5t90 17.5q76 0 127.5 -37.5t73.5 -97.5v126h20zM266 11q46 0 83 16t63.5 43t40.5 63t14 76t-14 76.5t-40.5 63.5t-63.5 43
t-83 16q-45 0 -81.5 -16t-62.5 -43t-40 -63.5t-14 -76.5t14 -76t40 -63t62.5 -43t81.5 -16zM138 662l10 18l249 -137l-10 -18z" />
    <glyph glyph-name="aacute" unicode="&#xe1;" horiz-adv-x="580" 
d="M487 419v-419h-20v125q-22 -59 -73.5 -96.5t-127.5 -37.5q-50 0 -90 17.5t-68.5 47.5t-44 69.5t-15.5 83.5q0 45 15.5 84.5t44 69.5t68.5 47.5t90 17.5q76 0 127.5 -37.5t73.5 -97.5v126h20zM266 11q46 0 83 16t63.5 43t40.5 63t14 76t-14 76.5t-40.5 63.5t-63.5 43
t-83 16q-45 0 -81.5 -16t-62.5 -43t-40 -63.5t-14 -76.5t14 -76t40 -63t62.5 -43t81.5 -16zM147 525l-10 18l249 137l10 -18z" />
    <glyph glyph-name="acircumflex" unicode="&#xe2;" horiz-adv-x="580" 
d="M487 419v-419h-20v125q-22 -59 -73.5 -96.5t-127.5 -37.5q-50 0 -90 17.5t-68.5 47.5t-44 69.5t-15.5 83.5q0 45 15.5 84.5t44 69.5t68.5 47.5t90 17.5q76 0 127.5 -37.5t73.5 -97.5v126h20zM266 11q46 0 83 16t63.5 43t40.5 63t14 76t-14 76.5t-40.5 63.5t-63.5 43
t-83 16q-45 0 -81.5 -16t-62.5 -43t-40 -63.5t-14 -76.5t14 -76t40 -63t62.5 -43t81.5 -16zM278 707l170 -145l-12 -16l-158 135l-157 -135l-13 16z" />
    <glyph glyph-name="atilde" unicode="&#xe3;" horiz-adv-x="580" 
d="M487 419v-419h-20v125q-22 -59 -73.5 -96.5t-127.5 -37.5q-50 0 -90 17.5t-68.5 47.5t-44 69.5t-15.5 83.5q0 45 15.5 84.5t44 69.5t68.5 47.5t90 17.5q76 0 127.5 -37.5t73.5 -97.5v126h20zM266 11q46 0 83 16t63.5 43t40.5 63t14 76t-14 76.5t-40.5 63.5t-63.5 43
t-83 16q-45 0 -81.5 -16t-62.5 -43t-40 -63.5t-14 -76.5t14 -76t40 -63t62.5 -43t81.5 -16zM350 585q26 0 48 18.5t30 45.5l20 -7q-14 -37 -41 -56t-57 -19q-24 0 -41.5 10t-33.5 22t-31.5 22t-34.5 10q-26 0 -48 -18.5t-30 -45.5l-20 7q14 37 41 56t57 19q24 0 41.5 -10
t33.5 -22t31.5 -22t34.5 -10z" />
    <glyph glyph-name="adieresis" unicode="&#xe4;" horiz-adv-x="580" 
d="M467 0v125q-22 -59 -73.5 -96.5t-127.5 -37.5q-50 0 -90 17.5t-68.5 47.5t-44 69.5t-15.5 83.5q0 45 15.5 84.5t44 69.5t68.5 47.5t90 17.5q76 0 127.5 -37.5t73.5 -97.5v126h20v-419h-20zM371 648h20v-103h-20v103zM68 209q0 -40 14 -76t40 -63t62.5 -43t81.5 -16
q46 0 83 16t63.5 43t40.5 63t14 76t-14 76.5t-40.5 63.5t-63.5 43t-83 16q-45 0 -81.5 -16t-62.5 -43t-40 -63.5t-14 -76.5zM140 648h20v-103h-20v103z" />
    <glyph glyph-name="aring" unicode="&#xe5;" horiz-adv-x="580" 
d="M487 419v-419h-20v125q-22 -59 -73.5 -96.5t-127.5 -37.5q-50 0 -90 17.5t-68.5 47.5t-44 69.5t-15.5 83.5q0 45 15.5 84.5t44 69.5t68.5 47.5t90 17.5q76 0 127.5 -37.5t73.5 -97.5v126h20zM266 11q46 0 83 16t63.5 43t40.5 63t14 76t-14 76.5t-40.5 63.5t-63.5 43
t-83 16q-45 0 -81.5 -16t-62.5 -43t-40 -63.5t-14 -76.5t14 -76t40 -63t62.5 -43t81.5 -16zM272 735q25 0 47.5 -10t39.5 -26.5t26.5 -39t9.5 -47.5t-9.5 -47.5t-26.5 -39t-39.5 -26.5t-47.5 -10q-26 0 -48 10t-39 26.5t-26.5 39t-9.5 47.5t9.5 47.5t26.5 39.5t39 26.5
t48 9.5zM272 715q-21 0 -40 -8t-33 -22t-22 -33t-8 -40t8 -39.5t22 -33t33 -22.5t40 -8t40 8t33 22.5t22 33t8 39.5t-8 39.5t-22 33t-33 22.5t-40 8z" />
    <glyph glyph-name="ae" unicode="&#xe6;" horiz-adv-x="921" 
d="M487 419v-106q23 52 69.5 83.5t115.5 31.5q40 0 75.5 -14.5t61.5 -39.5t41 -59t15 -74v-11.5t-1 -14.5h-377q0 -44 12.5 -81.5t36.5 -64.5t59 -42.5t80 -15.5q32 0 58.5 8.5t47.5 22.5t35 32.5t21 39.5h21q-7 -25 -22.5 -47t-38.5 -39t-54 -27t-68 -10q-72 0 -119 33
t-69 84v-108h-20v125q-22 -59 -73.5 -96.5t-127.5 -37.5q-50 0 -90 17.5t-68.5 47.5t-44 69.5t-15.5 83.5q0 45 15.5 84.5t44 69.5t68.5 47.5t90 17.5q76 0 127.5 -37.5t73.5 -97.5v126h20zM672 408q-41 0 -73.5 -13t-56 -36t-37.5 -54.5t-17 -69.5h357q0 39 -13.5 70.5
t-37 54.5t-55 35.5t-67.5 12.5zM266 11q46 0 83 16t63.5 43t40.5 63t14 76t-14 76.5t-40.5 63.5t-63.5 43t-83 16q-45 0 -81.5 -16t-62.5 -43t-40 -63.5t-14 -76.5t14 -76t40 -63t62.5 -43t81.5 -16z" />
    <glyph glyph-name="ccedilla" unicode="&#xe7;" horiz-adv-x="514" 
d="M215 -5q-40 8 -70 28.5t-50.5 49t-31 64t-10.5 73.5q0 43 13.5 82.5t40 70t65 48.5t89.5 18q49 0 84.5 -14t59 -37t35.5 -52t15 -60h-20q-3 27 -14 52.5t-32 46t-52.5 32.5t-75.5 12q-46 0 -81 -16.5t-59 -44.5t-36 -63.5t-12 -74.5t12 -75t36 -63.5t59 -44t81 -16.5
q41 0 71.5 10.5t52.5 28.5t34.5 42t17.5 52h21q-5 -32 -19 -60t-38 -48.5t-59 -32.5t-81 -12h-13.5t-12.5 1v-78q8 15 26 24.5t40 9.5q40 0 62.5 -24.5t22.5 -58.5q0 -35 -24 -59.5t-66 -24.5q-35 0 -58.5 21.5t-27.5 50.5h21q3 -22 20 -37.5t45 -15.5q33 0 51.5 19.5
t18.5 45.5t-17 44.5t-48 18.5q-18 0 -36 -7.5t-30 -33.5h-20v108z" />
    <glyph glyph-name="egrave" unicode="&#xe8;" horiz-adv-x="507" 
d="M73 215q0 -40 11.5 -77t35 -65t58.5 -45t83 -17q32 0 58.5 8.5t47.5 22.5t35 32.5t21 39.5h21q-7 -25 -22.5 -47t-38.5 -39t-54 -27t-68 -10q-53 0 -92 18t-64.5 48.5t-38.5 70t-13 82.5q0 47 13.5 87t40 69t64.5 45.5t87 16.5q40 0 75.5 -14.5t61.5 -39.5t41 -59t15 -74
v-11.5t-1 -14.5h-377zM258 408q-41 0 -73.5 -13t-56 -36t-37.5 -54.5t-17 -69.5h357q0 39 -13.5 70.5t-37 54.5t-55 35.5t-67.5 12.5zM124 662l10 18l249 -137l-10 -18z" />
    <glyph glyph-name="eacute" unicode="&#xe9;" horiz-adv-x="507" 
d="M73 215q0 -40 11.5 -77t35 -65t58.5 -45t83 -17q32 0 58.5 8.5t47.5 22.5t35 32.5t21 39.5h21q-7 -25 -22.5 -47t-38.5 -39t-54 -27t-68 -10q-53 0 -92 18t-64.5 48.5t-38.5 70t-13 82.5q0 47 13.5 87t40 69t64.5 45.5t87 16.5q40 0 75.5 -14.5t61.5 -39.5t41 -59t15 -74
v-11.5t-1 -14.5h-377zM258 408q-41 0 -73.5 -13t-56 -36t-37.5 -54.5t-17 -69.5h357q0 39 -13.5 70.5t-37 54.5t-55 35.5t-67.5 12.5zM124 525l-10 18l249 137l10 -18z" />
    <glyph glyph-name="ecircumflex" unicode="&#xea;" horiz-adv-x="507" 
d="M73 215q0 -40 11.5 -77t35 -65t58.5 -45t83 -17q32 0 58.5 8.5t47.5 22.5t35 32.5t21 39.5h21q-7 -25 -22.5 -47t-38.5 -39t-54 -27t-68 -10q-53 0 -92 18t-64.5 48.5t-38.5 70t-13 82.5q0 47 13.5 87t40 69t64.5 45.5t87 16.5q40 0 75.5 -14.5t61.5 -39.5t41 -59t15 -74
v-11.5t-1 -14.5h-377zM258 408q-41 0 -73.5 -13t-56 -36t-37.5 -54.5t-17 -69.5h357q0 39 -13.5 70.5t-37 54.5t-55 35.5t-67.5 12.5zM256 707l170 -145l-12 -16l-158 135l-157 -135l-13 16z" />
    <glyph glyph-name="edieresis" unicode="&#xeb;" horiz-adv-x="507" 
d="M350 648h20v-103h-20v103zM119 648h20v-103h-20v103zM73 215q0 -40 11.5 -77t35 -65t58.5 -45t83 -17q32 0 58.5 8.5t47.5 22.5t35 32.5t21 39.5h21q-7 -25 -22.5 -47t-38.5 -39t-54 -27t-68 -10q-53 0 -92 18t-64.5 48.5t-38.5 70t-13 82.5q0 47 13.5 87t40 69
t64.5 45.5t87 16.5q40 0 75.5 -14.5t61.5 -39.5t41 -59t15 -74v-11.5t-1 -14.5h-377zM258 408q-41 0 -73.5 -13t-56 -36t-37.5 -54.5t-17 -69.5h357q0 39 -13.5 70.5t-37 54.5t-55 35.5t-67.5 12.5z" />
    <glyph glyph-name="igrave" unicode="&#xec;" horiz-adv-x="206" 
d="M93 419h20v-419h-20v419zM-26 663l10 18l249 -137l-10 -18z" />
    <glyph glyph-name="iacute" unicode="&#xed;" horiz-adv-x="206" 
d="M93 419h20v-419h-20v419zM-15 525l-10 18l249 137l10 -18z" />
    <glyph glyph-name="icircumflex" unicode="&#xee;" horiz-adv-x="206" 
d="M93 419h20v-419h-20v419zM103 707l170 -145l-12 -16l-158 135l-157 -135l-13 16z" />
    <glyph glyph-name="idieresis" unicode="&#xef;" horiz-adv-x="206" 
d="M-23 648h20v-103h-20v103zM208 648h20v-103h-20v103zM93 419h20v-419h-20v419z" />
    <glyph glyph-name="eth" unicode="&#xf0;" 
d="M281 -9q-51 0 -91.5 17.5t-69.5 47.5t-44.5 69.5t-15.5 83.5q0 45 15.5 84.5t44.5 69.5t69.5 47.5t91.5 17.5q36 0 72 -11t56 -34l-102 164l-145 -80l-9 19l143 78l-85 136h24l78 -126l88 48l9 -18l-86 -48l118 -189q13 -21 23.5 -39.5t18 -36.5t11.5 -38t4 -44
q0 -44 -15.5 -83.5t-44 -69.5t-69 -47.5t-89.5 -17.5zM281 11q45 0 81.5 16t62.5 43t40 63t14 76t-14 76.5t-40 63.5t-62.5 43t-81.5 16q-46 0 -83 -16t-63.5 -43t-40.5 -63.5t-14 -76.5t14 -76t40.5 -63t63.5 -43t83 -16z" />
    <glyph glyph-name="ntilde" unicode="&#xf1;" horiz-adv-x="554" 
d="M93 419h20v-128q8 26 23.5 51t39 44t54 30.5t67.5 11.5q81 0 126 -48q48 -48 48 -138v-242h-20v240q0 36 -9.5 66.5t-29 53t-49 35.5t-68.5 13q-45 0 -79.5 -18.5t-57 -47.5t-34 -63.5t-11.5 -66.5v-212h-20v419zM350 585q26 0 48 18.5t30 45.5l20 -7q-14 -37 -41 -56
t-57 -19q-24 0 -41.5 10t-33.5 22t-31.5 22t-34.5 10q-26 0 -48 -18.5t-30 -45.5l-20 7q14 37 41 56t57 19q24 0 41.5 -10t33.5 -22t31.5 -22t34.5 -10z" />
    <glyph glyph-name="ograve" unicode="&#xf2;" horiz-adv-x="535" 
d="M266 -9q-50 0 -90 17.5t-68.5 47.5t-44 69.5t-15.5 83.5q0 45 15.5 84.5t44 69.5t68.5 47.5t90 17.5q51 0 91.5 -17.5t69.5 -47.5t44.5 -69.5t15.5 -84.5q0 -44 -15.5 -83.5t-44.5 -69.5t-69.5 -47.5t-91.5 -17.5zM266 11q46 0 83 16t63.5 43t40.5 63t14 76t-14 76.5
t-40.5 63.5t-63.5 43t-83 16q-45 0 -81.5 -16t-62.5 -43t-40 -63.5t-14 -76.5t14 -76t40 -63t62.5 -43t81.5 -16zM138 662l10 18l249 -137l-10 -18z" />
    <glyph glyph-name="oacute" unicode="&#xf3;" horiz-adv-x="535" 
d="M266 -9q-50 0 -90 17.5t-68.5 47.5t-44 69.5t-15.5 83.5q0 45 15.5 84.5t44 69.5t68.5 47.5t90 17.5q51 0 91.5 -17.5t69.5 -47.5t44.5 -69.5t15.5 -84.5q0 -44 -15.5 -83.5t-44.5 -69.5t-69.5 -47.5t-91.5 -17.5zM266 11q46 0 83 16t63.5 43t40.5 63t14 76t-14 76.5
t-40.5 63.5t-63.5 43t-83 16q-45 0 -81.5 -16t-62.5 -43t-40 -63.5t-14 -76.5t14 -76t40 -63t62.5 -43t81.5 -16zM148 525l-10 18l249 137l10 -18z" />
    <glyph glyph-name="ocircumflex" unicode="&#xf4;" horiz-adv-x="535" 
d="M266 -9q-50 0 -90 17.5t-68.5 47.5t-44 69.5t-15.5 83.5q0 45 15.5 84.5t44 69.5t68.5 47.5t90 17.5q51 0 91.5 -17.5t69.5 -47.5t44.5 -69.5t15.5 -84.5q0 -44 -15.5 -83.5t-44.5 -69.5t-69.5 -47.5t-91.5 -17.5zM266 11q46 0 83 16t63.5 43t40.5 63t14 76t-14 76.5
t-40.5 63.5t-63.5 43t-83 16q-45 0 -81.5 -16t-62.5 -43t-40 -63.5t-14 -76.5t14 -76t40 -63t62.5 -43t81.5 -16zM267 708l170 -145l-12 -16l-158 135l-157 -135l-13 16z" />
    <glyph glyph-name="otilde" unicode="&#xf5;" horiz-adv-x="535" 
d="M266 -9q-50 0 -90 17.5t-68.5 47.5t-44 69.5t-15.5 83.5q0 45 15.5 84.5t44 69.5t68.5 47.5t90 17.5q51 0 91.5 -17.5t69.5 -47.5t44.5 -69.5t15.5 -84.5q0 -44 -15.5 -83.5t-44.5 -69.5t-69.5 -47.5t-91.5 -17.5zM266 11q46 0 83 16t63.5 43t40.5 63t14 76t-14 76.5
t-40.5 63.5t-63.5 43t-83 16q-45 0 -81.5 -16t-62.5 -43t-40 -63.5t-14 -76.5t14 -76t40 -63t62.5 -43t81.5 -16zM338 585q26 0 48 18.5t30 45.5l20 -7q-14 -37 -41 -56t-57 -19q-24 0 -41.5 10t-33.5 22t-31.5 22t-34.5 10q-26 0 -48 -18.5t-30 -45.5l-20 7q14 37 41 56
t57 19q24 0 41.5 -10t33.5 -22t31.5 -22t34.5 -10z" />
    <glyph glyph-name="odieresis" unicode="&#xf6;" horiz-adv-x="535" 
d="M372 648h20v-103h-20v103zM141 648h20v-103h-20v103zM266 -9q-50 0 -90 17.5t-68.5 47.5t-44 69.5t-15.5 83.5q0 45 15.5 84.5t44 69.5t68.5 47.5t90 17.5q51 0 91.5 -17.5t69.5 -47.5t44.5 -69.5t15.5 -84.5q0 -44 -15.5 -83.5t-44.5 -69.5t-69.5 -47.5t-91.5 -17.5z
M266 11q46 0 83 16t63.5 43t40.5 63t14 76t-14 76.5t-40.5 63.5t-63.5 43t-83 16q-45 0 -81.5 -16t-62.5 -43t-40 -63.5t-14 -76.5t14 -76t40 -63t62.5 -43t81.5 -16z" />
    <glyph glyph-name="divide" unicode="&#xf7;" 
d="M270 168h20v-103h-20v103zM270 413h20v-103h-20v103zM78 225v19h404v-19h-404z" />
    <glyph glyph-name="oslash" unicode="&#xf8;" horiz-adv-x="535" 
d="M352 412q31 -12 56.5 -32.5t42.5 -47t26.5 -58t9.5 -65.5q0 -44 -15.5 -83.5t-44.5 -69.5t-69.5 -47.5t-91.5 -17.5q-48 0 -88 17l-26 -60l-18 7l26 61q-53 28 -82.5 79t-29.5 114q0 45 15.5 84.5t44 69.5t68.5 47.5t90 17.5q18 0 35 -2.5t33 -7.5l21 49l18 -7zM266 11
q46 0 83 16t63.5 43t40.5 63t14 76q0 63 -32.5 112.5t-90.5 72.5l-158 -368q36 -15 80 -15zM68 209q0 -56 26 -102.5t74 -72.5l158 366q-30 8 -60 8q-45 0 -81.5 -16t-62.5 -43t-40 -63.5t-14 -76.5z" />
    <glyph glyph-name="ugrave" unicode="&#xf9;" horiz-adv-x="551" 
d="M458 0h-20v128q-8 -26 -24 -51t-39 -44t-53.5 -30.5t-67.5 -11.5q-39 0 -71 12t-55 36q-48 48 -48 138v242h20v-240q0 -36 9.5 -66.5t29 -53t49 -35.5t68.5 -13q45 0 79.5 18.5t57 47.5t34 63.5t11.5 66.5v212h20v-419zM150 662l10 18l249 -137l-10 -18z" />
    <glyph glyph-name="uacute" unicode="&#xfa;" horiz-adv-x="551" 
d="M458 0h-20v128q-8 -26 -24 -51t-39 -44t-53.5 -30.5t-67.5 -11.5q-39 0 -71 12t-55 36q-48 48 -48 138v242h20v-240q0 -36 9.5 -66.5t29 -53t49 -35.5t68.5 -13q45 0 79.5 18.5t57 47.5t34 63.5t11.5 66.5v212h20v-419zM160 525l-10 18l249 137l10 -18z" />
    <glyph glyph-name="ucircumflex" unicode="&#xfb;" horiz-adv-x="553" 
d="M458 0h-20v128q-8 -26 -24 -51t-39 -44t-53.5 -30.5t-67.5 -11.5q-39 0 -71 12t-55 36q-48 48 -48 138v242h20v-240q0 -36 9.5 -66.5t29 -53t49 -35.5t68.5 -13q45 0 79.5 18.5t57 47.5t34 63.5t11.5 66.5v212h20v-419zM280 707l170 -145l-12 -16l-158 135l-157 -135
l-13 16z" />
    <glyph glyph-name="udieresis" unicode="&#xfc;" horiz-adv-x="551" 
d="M374 648h20v-103h-20v103zM143 648h20v-103h-20v103zM458 0h-20v128q-8 -26 -24 -51t-39 -44t-53.5 -30.5t-67.5 -11.5q-39 0 -71 12t-55 36q-48 48 -48 138v242h20v-240q0 -36 9.5 -66.5t29 -53t49 -35.5t68.5 -13q45 0 79.5 18.5t57 47.5t34 63.5t11.5 66.5v212h20
v-419z" />
    <glyph glyph-name="yacute" unicode="&#xfd;" horiz-adv-x="557" 
d="M279 -290q-54 0 -90.5 13.5t-58.5 40t-32.5 66t-11.5 92.5h20q1 -47 10.5 -83t29.5 -60t52.5 -36.5t80.5 -12.5q43 0 74.5 11t52.5 35.5t31.5 64.5t10.5 97v190q-8 -26 -23.5 -51t-38 -44t-52.5 -30.5t-67 -11.5q-48 0 -77 10t-55 34q-24 23 -34.5 59t-10.5 93v232h20
v-230q0 -42 7.5 -75.5t26 -56t49 -34.5t76.5 -12q45 0 79 18.5t56 47.5t33 63.5t11 66.5v212h20v-481q0 -63 -11.5 -106.5t-35 -70.5t-59 -39t-83.5 -12zM167 525l-10 18l249 137l10 -18z" />
    <glyph glyph-name="thorn" unicode="&#xfe;" horiz-adv-x="580" 
d="M93 -280v980h20v-407q22 60 73.5 97.5t127.5 37.5q49 0 89.5 -17.5t69 -47.5t44 -69.5t15.5 -84.5q0 -44 -15.5 -83.5t-44 -69.5t-69 -47.5t-89.5 -17.5q-76 0 -127.5 37.5t-73.5 96.5v-405h-20zM314 11q45 0 81.5 16t62.5 43t40 63t14 76t-14 76.5t-40 63.5t-62.5 43
t-81.5 16q-46 0 -83 -16t-63.5 -43t-40.5 -63.5t-14 -76.5t14 -76t40.5 -63t63.5 -43t83 -16z" />
    <glyph glyph-name="ydieresis" unicode="&#xff;" horiz-adv-x="557" 
d="M391 648h20v-103h-20v103zM160 648h20v-103h-20v103zM279 -290q-54 0 -90.5 13.5t-58.5 40t-32.5 66t-11.5 92.5h20q1 -47 10.5 -83t29.5 -60t52.5 -36.5t80.5 -12.5q43 0 74.5 11t52.5 35.5t31.5 64.5t10.5 97v190q-8 -26 -23.5 -51t-38 -44t-52.5 -30.5t-67 -11.5
q-48 0 -77 10t-55 34q-24 23 -34.5 59t-10.5 93v232h20v-230q0 -42 7.5 -75.5t26 -56t49 -34.5t76.5 -12q45 0 79 18.5t56 47.5t33 63.5t11 66.5v212h20v-481q0 -63 -11.5 -106.5t-35 -70.5t-59 -39t-83.5 -12z" />
    <glyph glyph-name="Amacron" unicode="&#x100;" horiz-adv-x="521" 
d="M511 0h-21l-56 162h-348l-55 -162h-21l240 700h21zM93 182h334l-167 494zM439 797h-358v20h358v-20z" />
    <glyph glyph-name="amacron" unicode="&#x101;" horiz-adv-x="580" 
d="M487 419v-419h-20v125q-22 -59 -73.5 -96.5t-127.5 -37.5q-50 0 -90 17.5t-68.5 47.5t-44 69.5t-15.5 83.5q0 45 15.5 84.5t44 69.5t68.5 47.5t90 17.5q76 0 127.5 -37.5t73.5 -97.5v126h20zM266 11q46 0 83 16t63.5 43t40.5 63t14 76t-14 76.5t-40.5 63.5t-63.5 43
t-83 16q-45 0 -81.5 -16t-62.5 -43t-40 -63.5t-14 -76.5t14 -76t40 -63t62.5 -43t81.5 -16zM445 586h-358v20h358v-20z" />
    <glyph glyph-name="Abreve" unicode="&#x102;" horiz-adv-x="521" 
d="M511 0h-21l-56 162h-348l-55 -162h-21l240 700h21zM93 182h334l-167 494zM261 785q59 0 102 30t54 86h21q-6 -33 -21.5 -58t-39 -42t-53.5 -26t-63 -9t-63 9t-53.5 26t-39 42t-21.5 58h21q11 -56 54 -86t102 -30z" />
    <glyph glyph-name="abreve" unicode="&#x103;" horiz-adv-x="580" 
d="M487 419v-419h-20v125q-22 -59 -73.5 -96.5t-127.5 -37.5q-50 0 -90 17.5t-68.5 47.5t-44 69.5t-15.5 83.5q0 45 15.5 84.5t44 69.5t68.5 47.5t90 17.5q76 0 127.5 -37.5t73.5 -97.5v126h20zM266 11q46 0 83 16t63.5 43t40.5 63t14 76t-14 76.5t-40.5 63.5t-63.5 43
t-83 16q-45 0 -81.5 -16t-62.5 -43t-40 -63.5t-14 -76.5t14 -76t40 -63t62.5 -43t81.5 -16zM267 583q55 0 95.5 30.5t51.5 86.5h20q-11 -66 -57.5 -100.5t-109.5 -34.5q-31 0 -59 9t-50 26t-37 42t-21 58h20q11 -56 51.5 -86.5t95.5 -30.5z" />
    <glyph glyph-name="Aogonek" unicode="&#x104;" horiz-adv-x="521" 
d="M549 -202q-14 -4 -31 -7t-39 -3q-52 0 -78.5 26t-26.5 70q0 67 116 116l-56 162h-348l-55 -162h-21l240 700h21l240 -700q-57 -23 -87 -52.5t-30 -63.5t22.5 -55t62.5 -21q20 0 39.5 3.5t32.5 7.5zM93 182h334l-167 494z" />
    <glyph glyph-name="aogonek" unicode="&#x105;" horiz-adv-x="580" 
d="M487 0q-116 -47 -116 -116q0 -34 22.5 -55t62.5 -21q20 0 39.5 3.5t32.5 7.5l-2 -21q-14 -4 -31 -7t-39 -3q-52 0 -78.5 26t-26.5 70q0 67 116 116v125q-22 -59 -73.5 -96.5t-127.5 -37.5q-50 0 -90 17.5t-68.5 47.5t-44 69.5t-15.5 83.5q0 45 15.5 84.5t44 69.5
t68.5 47.5t90 17.5q76 0 127.5 -37.5t73.5 -97.5v126h20v-419zM266 11q46 0 83 16t63.5 43t40.5 63t14 76t-14 76.5t-40.5 63.5t-63.5 43t-83 16q-45 0 -81.5 -16t-62.5 -43t-40 -63.5t-14 -76.5t14 -76t40 -63t62.5 -43t81.5 -16z" />
    <glyph glyph-name="Cacute" unicode="&#x106;" horiz-adv-x="774" 
d="M728 187q-17 -43 -47 -79.5t-70.5 -63.5t-91 -42t-107.5 -15q-85 0 -152.5 29.5t-114.5 79.5t-72 116t-25 139q0 70 24 135.5t69 116t110 80.5t147 30q70 0 125.5 -17.5t96.5 -48.5t68 -72.5t40 -90.5h-20q-13 45 -38.5 83t-64 66t-90 44t-117.5 16q-77 0 -138.5 -28.5
t-104 -76t-65 -109t-22.5 -128.5q0 -69 23.5 -131.5t68 -109.5t108 -75t144.5 -28q53 0 99.5 13.5t84 37.5t65.5 57t45 72h22zM287 750l-10 18l249 137l10 -18z" />
    <glyph glyph-name="cacute" unicode="&#x107;" horiz-adv-x="514" 
d="M435 266q-3 27 -14 52.5t-32 46t-52.5 32.5t-75.5 12q-46 0 -81 -16.5t-59 -44.5t-36 -63.5t-12 -74.5t12 -75t36 -63.5t59 -44t81 -16.5q41 0 71.5 10.5t52.5 28.5t34.5 42t17.5 52h21q-5 -32 -19 -60t-38 -48.5t-59 -32.5t-81 -12q-51 0 -90 18t-65 48.5t-39.5 70
t-13.5 82.5t13.5 82.5t40 70t65 48.5t89.5 18q49 0 84.5 -14t59 -37t35.5 -52t15 -60h-20zM147 525l-10 18l249 137l10 -18z" />
    <glyph glyph-name="Ccircumflex" unicode="&#x108;" horiz-adv-x="774" 
d="M728 187q-17 -43 -47 -79.5t-70.5 -63.5t-91 -42t-107.5 -15q-85 0 -152.5 29.5t-114.5 79.5t-72 116t-25 139q0 70 24 135.5t69 116t110 80.5t147 30q70 0 125.5 -17.5t96.5 -48.5t68 -72.5t40 -90.5h-20q-13 45 -38.5 83t-64 66t-90 44t-117.5 16q-77 0 -138.5 -28.5
t-104 -76t-65 -109t-22.5 -128.5q0 -69 23.5 -131.5t68 -109.5t108 -75t144.5 -28q53 0 99.5 13.5t84 37.5t65.5 57t45 72h22zM398 913l170 -145l-12 -16l-158 135l-157 -135l-13 16z" />
    <glyph glyph-name="ccircumflex" unicode="&#x109;" horiz-adv-x="514" 
d="M435 266q-3 27 -14 52.5t-32 46t-52.5 32.5t-75.5 12q-46 0 -81 -16.5t-59 -44.5t-36 -63.5t-12 -74.5t12 -75t36 -63.5t59 -44t81 -16.5q41 0 71.5 10.5t52.5 28.5t34.5 42t17.5 52h21q-5 -32 -19 -60t-38 -48.5t-59 -32.5t-81 -12q-51 0 -90 18t-65 48.5t-39.5 70
t-13.5 82.5t13.5 82.5t40 70t65 48.5t89.5 18q49 0 84.5 -14t59 -37t35.5 -52t15 -60h-20zM262 707l170 -145l-12 -16l-158 135l-157 -135l-13 16z" />
    <glyph glyph-name="Cdotaccent" unicode="&#x10a;" horiz-adv-x="774" 
d="M388 858h20v-103h-20v103zM728 187q-17 -43 -47 -79.5t-70.5 -63.5t-91 -42t-107.5 -15q-85 0 -152.5 29.5t-114.5 79.5t-72 116t-25 139q0 70 24 135.5t69 116t110 80.5t147 30q70 0 125.5 -17.5t96.5 -48.5t68 -72.5t40 -90.5h-20q-13 45 -38.5 83t-64 66t-90 44
t-117.5 16q-77 0 -138.5 -28.5t-104 -76t-65 -109t-22.5 -128.5q0 -69 23.5 -131.5t68 -109.5t108 -75t144.5 -28q53 0 99.5 13.5t84 37.5t65.5 57t45 72h22z" />
    <glyph glyph-name="cdotaccent" unicode="&#x10b;" horiz-adv-x="514" 
d="M253 648h20v-103h-20v103zM435 266q-3 27 -14 52.5t-32 46t-52.5 32.5t-75.5 12q-46 0 -81 -16.5t-59 -44.5t-36 -63.5t-12 -74.5t12 -75t36 -63.5t59 -44t81 -16.5q41 0 71.5 10.5t52.5 28.5t34.5 42t17.5 52h21q-5 -32 -19 -60t-38 -48.5t-59 -32.5t-81 -12
q-51 0 -90 18t-65 48.5t-39.5 70t-13.5 82.5t13.5 82.5t40 70t65 48.5t89.5 18q49 0 84.5 -14t59 -37t35.5 -52t15 -60h-20z" />
    <glyph glyph-name="Ccaron" unicode="&#x10c;" horiz-adv-x="774" 
d="M728 187q-17 -43 -47 -79.5t-70.5 -63.5t-91 -42t-107.5 -15q-85 0 -152.5 29.5t-114.5 79.5t-72 116t-25 139q0 70 24 135.5t69 116t110 80.5t147 30q70 0 125.5 -17.5t96.5 -48.5t68 -72.5t40 -90.5h-20q-13 45 -38.5 83t-64 66t-90 44t-117.5 16q-77 0 -138.5 -28.5
t-104 -76t-65 -109t-22.5 -128.5q0 -69 23.5 -131.5t68 -109.5t108 -75t144.5 -28q53 0 99.5 13.5t84 37.5t65.5 57t45 72h22zM239 898l13 15l146 -133l148 133l13 -15l-161 -145z" />
    <glyph glyph-name="ccaron" unicode="&#x10d;" horiz-adv-x="514" 
d="M435 266q-3 27 -14 52.5t-32 46t-52.5 32.5t-75.5 12q-46 0 -81 -16.5t-59 -44.5t-36 -63.5t-12 -74.5t12 -75t36 -63.5t59 -44t81 -16.5q41 0 71.5 10.5t52.5 28.5t34.5 42t17.5 52h21q-5 -32 -19 -60t-38 -48.5t-59 -32.5t-81 -12q-51 0 -90 18t-65 48.5t-39.5 70
t-13.5 82.5t13.5 82.5t40 70t65 48.5t89.5 18q49 0 84.5 -14t59 -37t35.5 -52t15 -60h-20zM102 692l13 15l146 -133l148 133l13 -15l-161 -145z" />
    <glyph glyph-name="Dcaron" unicode="&#x10e;" horiz-adv-x="686" 
d="M275 700q87 0 154.5 -30t114 -79t70.5 -112t24 -129t-24 -129t-70.5 -112t-114 -79t-154.5 -30h-182v700h182zM113 680v-660h162q82 0 146 28t107.5 74.5t66.5 105.5t23 122t-23 122t-66.5 105.5t-107.5 74.5t-146 28h-162zM153 898l13 15l146 -133l148 133l13 -15
l-161 -145z" />
    <glyph glyph-name="dcaron" unicode="&#x10f;" horiz-adv-x="635" 
d="M467 700h20v-700h-20v125q-22 -59 -73.5 -96.5t-127.5 -37.5q-50 0 -90 17.5t-68.5 47.5t-44 69.5t-15.5 83.5q0 45 15.5 84.5t44 69.5t68.5 47.5t90 17.5q76 0 127.5 -37.5t73.5 -97.5v407zM266 11q46 0 83 16t63.5 43t40.5 63t14 76t-14 76.5t-40.5 63.5t-63.5 43
t-83 16q-45 0 -81.5 -16t-62.5 -43t-40 -63.5t-14 -76.5t14 -76t40 -63t62.5 -43t81.5 -16zM538 534q25 0 41.5 12.5t16.5 43.5v99h20v-99q0 -42 -22 -59t-56 -17v20z" />
    <glyph glyph-name="Dcroat" unicode="&#x110;" horiz-adv-x="686" 
d="M275 700q87 0 154.5 -30t114 -79t70.5 -112t24 -129t-24 -129t-70.5 -112t-114 -79t-154.5 -30h-182v345h-169v20h169v335h182zM282 345h-169v-325h162q82 0 146 28t107.5 74.5t66.5 105.5t23 122t-23 122t-66.5 105.5t-107.5 74.5t-146 28h-162v-315h169v-20z" />
    <glyph glyph-name="dcroat" unicode="&#x111;" horiz-adv-x="580" 
d="M571 554h-84v-554h-20v125q-22 -59 -73.5 -96.5t-127.5 -37.5q-50 0 -90 17.5t-68.5 47.5t-44 69.5t-15.5 83.5q0 45 15.5 84.5t44 69.5t68.5 47.5t90 17.5q76 0 127.5 -37.5t73.5 -97.5v261h-130v20h130v126h20v-126h84v-20zM266 11q46 0 83 16t63.5 43t40.5 63t14 76
t-14 76.5t-40.5 63.5t-63.5 43t-83 16q-45 0 -81.5 -16t-62.5 -43t-40 -63.5t-14 -76.5t14 -76t40 -63t62.5 -43t81.5 -16z" />
    <glyph glyph-name="Emacron" unicode="&#x112;" horiz-adv-x="540" 
d="M113 680v-322h339v-20h-339v-318h339v-20h-359v700h359v-20h-339zM449 797h-358v20h358v-20z" />
    <glyph glyph-name="emacron" unicode="&#x113;" horiz-adv-x="507" 
d="M73 215q0 -40 11.5 -77t35 -65t58.5 -45t83 -17q32 0 58.5 8.5t47.5 22.5t35 32.5t21 39.5h21q-7 -25 -22.5 -47t-38.5 -39t-54 -27t-68 -10q-53 0 -92 18t-64.5 48.5t-38.5 70t-13 82.5q0 47 13.5 87t40 69t64.5 45.5t87 16.5q40 0 75.5 -14.5t61.5 -39.5t41 -59t15 -74
v-11.5t-1 -14.5h-377zM258 408q-41 0 -73.5 -13t-56 -36t-37.5 -54.5t-17 -69.5h357q0 39 -13.5 70.5t-37 54.5t-55 35.5t-67.5 12.5zM432 586h-358v20h358v-20z" />
    <glyph glyph-name="Ebreve" unicode="&#x114;" horiz-adv-x="540" 
d="M113 680v-322h339v-20h-339v-318h339v-20h-359v700h359v-20h-339zM272 785q59 0 102 30t54 86h21q-6 -33 -21.5 -58t-39 -42t-53.5 -26t-63 -9t-63 9t-53.5 26t-39 42t-21.5 58h21q11 -56 54 -86t102 -30z" />
    <glyph glyph-name="ebreve" unicode="&#x115;" horiz-adv-x="507" 
d="M73 215q0 -40 11.5 -77t35 -65t58.5 -45t83 -17q32 0 58.5 8.5t47.5 22.5t35 32.5t21 39.5h21q-7 -25 -22.5 -47t-38.5 -39t-54 -27t-68 -10q-53 0 -92 18t-64.5 48.5t-38.5 70t-13 82.5q0 47 13.5 87t40 69t64.5 45.5t87 16.5q40 0 75.5 -14.5t61.5 -39.5t41 -59t15 -74
v-11.5t-1 -14.5h-377zM258 408q-41 0 -73.5 -13t-56 -36t-37.5 -54.5t-17 -69.5h357q0 39 -13.5 70.5t-37 54.5t-55 35.5t-67.5 12.5zM260 583q55 0 95.5 30.5t51.5 86.5h20q-11 -66 -57.5 -100.5t-109.5 -34.5q-31 0 -59 9t-50 26t-37 42t-21 58h20q11 -56 51.5 -86.5
t95.5 -30.5z" />
    <glyph glyph-name="Edotaccent" unicode="&#x116;" horiz-adv-x="540" 
d="M259 858h20v-103h-20v103zM113 680v-322h339v-20h-339v-318h339v-20h-359v700h359v-20h-339z" />
    <glyph glyph-name="edotaccent" unicode="&#x117;" horiz-adv-x="507" 
d="M248 648h20v-103h-20v103zM73 215q0 -40 11.5 -77t35 -65t58.5 -45t83 -17q32 0 58.5 8.5t47.5 22.5t35 32.5t21 39.5h21q-7 -25 -22.5 -47t-38.5 -39t-54 -27t-68 -10q-53 0 -92 18t-64.5 48.5t-38.5 70t-13 82.5q0 47 13.5 87t40 69t64.5 45.5t87 16.5q40 0 75.5 -14.5
t61.5 -39.5t41 -59t15 -74v-11.5t-1 -14.5h-377zM258 408q-41 0 -73.5 -13t-56 -36t-37.5 -54.5t-17 -69.5h357q0 39 -13.5 70.5t-37 54.5t-55 35.5t-67.5 12.5z" />
    <glyph glyph-name="Eogonek" unicode="&#x118;" horiz-adv-x="540" 
d="M93 0v700h359v-20h-339v-322h339v-20h-339v-318h339v-20h-112q-36 -27 -54.5 -57.5t-18.5 -57.5q0 -32 23.5 -54.5t71.5 -22.5q24 0 48 5.5t39 10.5l-2 -21q-16 -5 -37.5 -10t-47.5 -5q-57 0 -86 28.5t-29 68.5q0 32 19.5 59t61.5 56h-235z" />
    <glyph glyph-name="eogonek" unicode="&#x119;" horiz-adv-x="507" 
d="M388 -197q-16 -5 -37.5 -10t-47.5 -5q-57 0 -86 28.5t-29 68.5q0 30 16.5 55t51.5 51q-51 1 -89.5 19.5t-63.5 48.5t-37.5 69.5t-12.5 81.5q0 47 13.5 87t40 69t64.5 45.5t87 16.5q40 0 75.5 -14.5t61.5 -39.5t41 -59t15 -74v-11.5t-1 -14.5h-377q0 -40 11.5 -77t35 -65
t58.5 -45t83 -17q32 0 58.5 8.5t47.5 22.5t35 32.5t21 39.5h21q-7 -24 -21.5 -46t-37 -38.5t-51.5 -27t-65 -11.5q-30 -26 -45.5 -53.5t-15.5 -52.5q0 -32 23.5 -54.5t71.5 -22.5q24 0 48 5.5t39 10.5zM258 408q-41 0 -73.5 -13t-56 -36t-37.5 -54.5t-17 -69.5h357
q0 39 -13.5 70.5t-37 54.5t-55 35.5t-67.5 12.5z" />
    <glyph glyph-name="Ecaron" unicode="&#x11a;" horiz-adv-x="540" 
d="M113 680v-322h339v-20h-339v-318h339v-20h-359v700h359v-20h-339zM110 898l13 15l146 -133l148 133l13 -15l-161 -145z" />
    <glyph glyph-name="ecaron" unicode="&#x11b;" horiz-adv-x="507" 
d="M73 215q0 -40 11.5 -77t35 -65t58.5 -45t83 -17q32 0 58.5 8.5t47.5 22.5t35 32.5t21 39.5h21q-7 -25 -22.5 -47t-38.5 -39t-54 -27t-68 -10q-53 0 -92 18t-64.5 48.5t-38.5 70t-13 82.5q0 47 13.5 87t40 69t64.5 45.5t87 16.5q40 0 75.5 -14.5t61.5 -39.5t41 -59t15 -74
v-11.5t-1 -14.5h-377zM258 408q-41 0 -73.5 -13t-56 -36t-37.5 -54.5t-17 -69.5h357q0 39 -13.5 70.5t-37 54.5t-55 35.5t-67.5 12.5zM98 692l13 15l146 -133l148 133l13 -15l-161 -145z" />
    <glyph glyph-name="Gcircumflex" unicode="&#x11c;" horiz-adv-x="828" 
d="M443 296h350v-20h-70q-6 -65 -28.5 -118.5t-62 -91.5t-96.5 -58.5t-132 -20.5q-87 0 -153.5 30.5t-111.5 80.5t-68 115.5t-23 136.5q0 70 24.5 136t70 116t111.5 80.5t150 30.5q51 0 96 -12.5t81.5 -34.5t62.5 -52t39 -66h-21q-13 31 -37 57.5t-57.5 46t-75 30.5
t-88.5 11q-79 0 -141.5 -28.5t-105.5 -76t-66 -109.5t-23 -129t22 -129t64.5 -109.5t105 -76t144.5 -28.5q70 0 123.5 19.5t90 54.5t57.5 85t27 110h-259v20zM404 913l170 -145l-12 -16l-158 135l-157 -135l-13 16z" />
    <glyph glyph-name="gcircumflex" unicode="&#x11d;" horiz-adv-x="580" 
d="M266 408q-45 0 -81.5 -16t-62.5 -43t-40 -63t-14 -76q0 -41 14 -77t40 -63t62.5 -43t81.5 -16q46 0 83 16t63.5 43t40.5 63t14 77q0 40 -14 76t-40.5 63t-63.5 43t-83 16zM487 -46q0 -68 -15.5 -114.5t-44 -75.5t-70.5 -41.5t-94 -12.5q-58 0 -97.5 17.5t-64.5 47
t-36.5 68.5t-13.5 83h20q1 -39 11.5 -74.5t33 -62.5t58.5 -43t89 -16q48 0 86 11.5t64 38t40 69.5t14 105v172q-22 -60 -73.5 -97.5t-127.5 -37.5q-50 0 -90 17.5t-68.5 47.5t-44 69.5t-15.5 84.5q0 44 15.5 83.5t44 69.5t68.5 47.5t90 17.5q76 0 127.5 -37.5t73.5 -96.5
v125h20v-465zM266 707l170 -145l-12 -16l-158 135l-157 -135l-13 16z" />
    <glyph glyph-name="Gbreve" unicode="&#x11e;" horiz-adv-x="828" 
d="M443 296h350v-20h-70q-6 -65 -28.5 -118.5t-62 -91.5t-96.5 -58.5t-132 -20.5q-87 0 -153.5 30.5t-111.5 80.5t-68 115.5t-23 136.5q0 70 24.5 136t70 116t111.5 80.5t150 30.5q51 0 96 -12.5t81.5 -34.5t62.5 -52t39 -66h-21q-13 31 -37 57.5t-57.5 46t-75 30.5
t-88.5 11q-79 0 -141.5 -28.5t-105.5 -76t-66 -109.5t-23 -129t22 -129t64.5 -109.5t105 -76t144.5 -28.5q70 0 123.5 19.5t90 54.5t57.5 85t27 110h-259v20zM392 785q59 0 102 30t54 86h21q-6 -33 -21.5 -58t-39 -42t-53.5 -26t-63 -9t-63 9t-53.5 26t-39 42t-21.5 58h21
q11 -56 54 -86t102 -30z" />
    <glyph glyph-name="gbreve" unicode="&#x11f;" horiz-adv-x="580" 
d="M266 408q-45 0 -81.5 -16t-62.5 -43t-40 -63t-14 -76q0 -41 14 -77t40 -63t62.5 -43t81.5 -16q46 0 83 16t63.5 43t40.5 63t14 77q0 40 -14 76t-40.5 63t-63.5 43t-83 16zM487 -46q0 -68 -15.5 -114.5t-44 -75.5t-70.5 -41.5t-94 -12.5q-58 0 -97.5 17.5t-64.5 47
t-36.5 68.5t-13.5 83h20q1 -39 11.5 -74.5t33 -62.5t58.5 -43t89 -16q48 0 86 11.5t64 38t40 69.5t14 105v172q-22 -60 -73.5 -97.5t-127.5 -37.5q-50 0 -90 17.5t-68.5 47.5t-44 69.5t-15.5 84.5q0 44 15.5 83.5t44 69.5t68.5 47.5t90 17.5q76 0 127.5 -37.5t73.5 -96.5
v125h20v-465zM272 583q55 0 95.5 30.5t51.5 86.5h20q-11 -66 -57.5 -100.5t-109.5 -34.5q-31 0 -59 9t-50 26t-37 42t-21 58h20q11 -56 51.5 -86.5t95.5 -30.5z" />
    <glyph glyph-name="Gdotaccent" unicode="&#x120;" horiz-adv-x="828" 
d="M393 858h20v-103h-20v103zM443 296h350v-20h-70q-6 -65 -28.5 -118.5t-62 -91.5t-96.5 -58.5t-132 -20.5q-87 0 -153.5 30.5t-111.5 80.5t-68 115.5t-23 136.5q0 70 24.5 136t70 116t111.5 80.5t150 30.5q51 0 96 -12.5t81.5 -34.5t62.5 -52t39 -66h-21q-13 31 -37 57.5
t-57.5 46t-75 30.5t-88.5 11q-79 0 -141.5 -28.5t-105.5 -76t-66 -109.5t-23 -129t22 -129t64.5 -109.5t105 -76t144.5 -28.5q70 0 123.5 19.5t90 54.5t57.5 85t27 110h-259v20z" />
    <glyph glyph-name="gdotaccent" unicode="&#x121;" horiz-adv-x="580" 
d="M256 648h20v-103h-20v103zM266 408q-45 0 -81.5 -16t-62.5 -43t-40 -63t-14 -76q0 -41 14 -77t40 -63t62.5 -43t81.5 -16q46 0 83 16t63.5 43t40.5 63t14 77q0 40 -14 76t-40.5 63t-63.5 43t-83 16zM487 -46q0 -68 -15.5 -114.5t-44 -75.5t-70.5 -41.5t-94 -12.5
q-58 0 -97.5 17.5t-64.5 47t-36.5 68.5t-13.5 83h20q1 -39 11.5 -74.5t33 -62.5t58.5 -43t89 -16q48 0 86 11.5t64 38t40 69.5t14 105v172q-22 -60 -73.5 -97.5t-127.5 -37.5q-50 0 -90 17.5t-68.5 47.5t-44 69.5t-15.5 84.5q0 44 15.5 83.5t44 69.5t68.5 47.5t90 17.5
q76 0 127.5 -37.5t73.5 -96.5v125h20v-465z" />
    <glyph glyph-name="Gcommaaccent" unicode="&#x122;" horiz-adv-x="828" 
d="M443 296h350v-20h-70q-6 -65 -28.5 -118.5t-62 -91.5t-96.5 -58.5t-132 -20.5q-87 0 -153.5 30.5t-111.5 80.5t-68 115.5t-23 136.5q0 70 24.5 136t70 116t111.5 80.5t150 30.5q51 0 96 -12.5t81.5 -34.5t62.5 -52t39 -66h-21q-13 31 -37 57.5t-57.5 46t-75 30.5
t-88.5 11q-79 0 -141.5 -28.5t-105.5 -76t-66 -109.5t-23 -129t22 -129t64.5 -109.5t105 -76t144.5 -28.5q70 0 123.5 19.5t90 54.5t57.5 85t27 110h-259v20zM336 -179q25 0 41.5 12.5t16.5 43.5v99h20v-99q0 -42 -22 -59t-56 -17v20z" />
    <glyph glyph-name="gcommaaccent" unicode="&#x123;" horiz-adv-x="580" 
d="M487 -46q0 -68 -15.5 -114.5t-44 -75.5t-70.5 -41.5t-94 -12.5q-58 0 -97.5 17.5t-64.5 47t-36.5 68.5t-13.5 83h20q1 -39 11.5 -74.5t33 -62.5t58.5 -43t89 -16q48 0 86 11.5t64 38t40 69.5t14 105v172q-22 -60 -73.5 -97.5t-127.5 -37.5q-50 0 -90 17.5t-68.5 47.5
t-44 69.5t-15.5 84.5q0 44 15.5 83.5t44 69.5t68.5 47.5t90 17.5q76 0 127.5 -37.5t73.5 -96.5v125h20v-465zM266 11q46 0 83 16t63.5 43t40.5 63t14 77q0 40 -14 76t-40.5 63t-63.5 43t-83 16q-45 0 -81.5 -16t-62.5 -43t-40 -63t-14 -76q0 -41 14 -77t40 -63t62.5 -43
t81.5 -16zM330 680q-25 0 -41.5 -12.5t-16.5 -43.5v-99h-20v99q0 42 22 59t56 17v-20z" />
    <glyph glyph-name="Hcircumflex" unicode="&#x124;" horiz-adv-x="660" 
d="M547 338h-434v-338h-20v700h20v-342h434v342h20v-700h-20v338zM330 913l170 -145l-12 -16l-158 135l-157 -135l-13 16z" />
    <glyph glyph-name="hcircumflex" unicode="&#x125;" horiz-adv-x="554" 
d="M93 700h20v-409q8 26 23.5 51t39 44t54 30.5t67.5 11.5q81 0 126 -48q48 -48 48 -138v-242h-20v240q0 36 -9.5 66.5t-29 53t-49 35.5t-68.5 13q-45 0 -79.5 -18.5t-57 -47.5t-34 -63.5t-11.5 -66.5v-212h-20v700zM297 913l170 -145l-12 -16l-158 135l-157 -135l-13 16z
" />
    <glyph glyph-name="Hbar" unicode="&#x126;" horiz-adv-x="660" 
d="M547 516h-434v-158h434v158zM113 700v-164h434v164h20v-700h-20v338h-434v-338h-20v700h20z" />
    <glyph glyph-name="hbar" unicode="&#x127;" horiz-adv-x="554" 
d="M358 554h-245v-263q8 26 23.5 51t39 44t54 30.5t67.5 11.5q81 0 126 -48q48 -48 48 -138v-242h-20v240q0 36 -9.5 66.5t-29 53t-49 35.5t-68.5 13q-45 0 -79.5 -18.5t-57 -47.5t-34 -63.5t-11.5 -66.5v-212h-20v554h-93v20h93v126h20v-126h245v-20z" />
    <glyph glyph-name="Itilde" unicode="&#x128;" horiz-adv-x="206" 
d="M93 700h20v-700h-20v700zM174 809q26 0 48 18.5t30 45.5l20 -7q-14 -37 -41 -56t-57 -19q-24 0 -41.5 10t-33.5 22t-31.5 22t-34.5 10q-26 0 -48 -18.5t-30 -45.5l-20 7q14 37 41 56t57 19q24 0 41.5 -10t33.5 -22t31.5 -22t34.5 -10z" />
    <glyph glyph-name="itilde" unicode="&#x129;" horiz-adv-x="206" 
d="M93 419h20v-419h-20v419zM182 585q26 0 48 18.5t30 45.5l20 -7q-14 -37 -41 -56t-57 -19q-24 0 -41.5 10t-33.5 22t-31.5 22t-34.5 10q-26 0 -48 -18.5t-30 -45.5l-20 7q14 37 41 56t57 19q24 0 41.5 -10t33.5 -22t31.5 -22t34.5 -10z" />
    <glyph glyph-name="Imacron" unicode="&#x12a;" horiz-adv-x="206" 
d="M93 700h20v-700h-20v700zM282 797h-358v20h358v-20z" />
    <glyph glyph-name="imacron" unicode="&#x12b;" horiz-adv-x="206" 
d="M93 419h20v-419h-20v419zM274 586h-358v20h358v-20z" />
    <glyph glyph-name="Ibreve" unicode="&#x12c;" horiz-adv-x="206" 
d="M93 700h20v-700h-20v700zM104 785q59 0 102 30t54 86h21q-6 -33 -21.5 -58t-39 -42t-53.5 -26t-63 -9t-63 9t-53.5 26t-39 42t-21.5 58h21q11 -56 54 -86t102 -30z" />
    <glyph glyph-name="ibreve" unicode="&#x12d;" horiz-adv-x="206" 
d="M93 419h20v-419h-20v419zM102 583q55 0 95.5 30.5t51.5 86.5h20q-11 -66 -57.5 -100.5t-109.5 -34.5q-31 0 -59 9t-50 26t-37 42t-21 58h20q11 -56 51.5 -86.5t95.5 -30.5z" />
    <glyph glyph-name="Iogonek" unicode="&#x12e;" horiz-adv-x="206" 
d="M113 0h-8q-36 -27 -54.5 -57.5t-18.5 -57.5q0 -32 23.5 -54.5t71.5 -22.5q24 0 48 5.5t39 10.5l-2 -21q-16 -5 -37.5 -10t-47.5 -5q-57 0 -86 28.5t-29 68.5q0 32 19.5 59t61.5 56v700h20v-700z" />
    <glyph glyph-name="iogonek" unicode="&#x12f;" horiz-adv-x="206" 
d="M212 -197q-16 -5 -37.5 -10t-47.5 -5q-57 0 -86 28.5t-29 68.5q0 32 19.5 59t61.5 56v419h20v-419h-8q-36 -27 -54.5 -57.5t-18.5 -57.5q0 -32 23.5 -54.5t71.5 -22.5q24 0 48 5.5t39 10.5zM93 648h20v-103h-20v103z" />
    <glyph glyph-name="Idotaccent" unicode="&#x130;" horiz-adv-x="206" 
d="M93 858h20v-103h-20v103zM93 700h20v-700h-20v700z" />
    <glyph glyph-name="dotlessi" unicode="&#x131;" horiz-adv-x="206" 
d="M93 419h20v-419h-20v419z" />
    <glyph glyph-name="Jcircumflex" unicode="&#x134;" horiz-adv-x="535" 
d="M457 205q0 -52 -16 -92.5t-44 -68.5t-67 -42.5t-84 -14.5t-85.5 14.5t-72 42.5t-50 68.5t-18.5 92.5h20q0 -47 17 -83.5t45.5 -62t65.5 -39t78 -13.5t76 13.5t60.5 39t40 62t14.5 83.5v495h20v-495zM448 913l170 -145l-12 -16l-158 135l-157 -135l-13 16z" />
    <glyph glyph-name="jcircumflex" unicode="&#x135;" horiz-adv-x="206" 
d="M113 -161q0 -58 -26.5 -91.5t-71.5 -33.5q-21 0 -34 2.5t-29 10.5v23q14 -8 27 -12t36 -4q36 0 57 28t21 77v580h20v-580zM103 707l170 -145l-12 -16l-158 135l-157 -135l-13 16z" />
    <glyph glyph-name="Kcommaaccent" unicode="&#x136;" horiz-adv-x="539" 
d="M507 0l-394 350v-350h-20v700h20v-350l394 350h30l-394 -350l394 -350h-30zM211 -179q25 0 41.5 12.5t16.5 43.5v99h20v-99q0 -42 -22 -59t-56 -17v20z" />
    <glyph glyph-name="kcommaaccent" unicode="&#x137;" horiz-adv-x="410" 
d="M392 419l-246 -210l246 -209h-33l-246 209v-209h-20v700h20v-491l246 210h33zM170 -155q25 0 41.5 12.5t16.5 43.5v99h20v-99q0 -42 -22 -59t-56 -17v20z" />
    <glyph glyph-name="kgreenlandic" unicode="&#x138;" horiz-adv-x="410" 
d="M146 209l246 -209h-33l-246 209v-209h-20v419h20v-210l246 210h33z" />
    <glyph glyph-name="Lacute" unicode="&#x139;" horiz-adv-x="414" 
d="M379 20v-20h-286v700h20v-680h266zM87 750l-10 18l249 137l10 -18z" />
    <glyph glyph-name="lacute" unicode="&#x13a;" horiz-adv-x="206" 
d="M93 700h20v-700h-20v700zM-16 750l-10 18l249 137l10 -18z" />
    <glyph glyph-name="Lcommaaccent" unicode="&#x13b;" horiz-adv-x="414" 
d="M93 700h20v-680h266v-20h-286v700zM176 -179q25 0 41.5 12.5t16.5 43.5v99h20v-99q0 -42 -22 -59t-56 -17v20z" />
    <glyph glyph-name="lcommaaccent" unicode="&#x13c;" horiz-adv-x="206" 
d="M93 700h20v-700h-20v700zM35 -179q25 0 41.5 12.5t16.5 43.5v99h20v-99q0 -42 -22 -59t-56 -17v20z" />
    <glyph glyph-name="Lcaron" unicode="&#x13d;" horiz-adv-x="414" 
d="M379 20v-20h-286v700h20v-680h266zM276 533q25 0 41.5 12.5t16.5 43.5v99h20v-99q0 -42 -22 -59t-56 -17v20z" />
    <glyph glyph-name="lcaron" unicode="&#x13e;" horiz-adv-x="261" 
d="M93 700h20v-700h-20v700zM165 545q25 0 41.5 12.5t16.5 43.5v99h20v-99q0 -42 -22 -59t-56 -17v20z" />
    <glyph glyph-name="Ldot" unicode="&#x13f;" horiz-adv-x="414" 
d="M271 428h20v-103h-20v103zM379 20v-20h-286v700h20v-680h266z" />
    <glyph glyph-name="ldot" unicode="&#x140;" horiz-adv-x="278" 
d="M230 364h20v-103h-20v103zM93 700h20v-700h-20v700z" />
    <glyph glyph-name="Lslash" unicode="&#x141;" horiz-adv-x="414" 
d="M379 20v-20h-286v312l-65 -36v24l65 35v365h20v-354l154 85v-23l-154 -85v-303h266z" />
    <glyph glyph-name="lslash" unicode="&#x142;" horiz-adv-x="206" 
d="M93 328l-105 -58v24l105 57v349h20v-338l114 63v-23l-114 -63v-339h-20v328z" />
    <glyph glyph-name="Nacute" unicode="&#x143;" horiz-adv-x="659" 
d="M546 31v669h20v-700h-24l-429 669v-669h-20v700h24zM220 750l-10 18l249 137l10 -18z" />
    <glyph glyph-name="nacute" unicode="&#x144;" horiz-adv-x="554" 
d="M93 419h20v-128q8 26 23.5 51t39 44t54 30.5t67.5 11.5q81 0 126 -48q48 -48 48 -138v-242h-20v240q0 36 -9.5 66.5t-29 53t-49 35.5t-68.5 13q-45 0 -79.5 -18.5t-57 -47.5t-34 -63.5t-11.5 -66.5v-212h-20v419zM179 525l-10 18l249 137l10 -18z" />
    <glyph glyph-name="Ncommaaccent" unicode="&#x145;" horiz-adv-x="659" 
d="M542 0l-429 669v-669h-20v700h24l429 -669v669h20v-700h-24zM276 -179q25 0 41.5 12.5t16.5 43.5v99h20v-99q0 -42 -22 -59t-56 -17v20z" />
    <glyph glyph-name="ncommaaccent" unicode="&#x146;" horiz-adv-x="554" 
d="M93 0v419h20v-128q8 26 23.5 51t39 44t54 30.5t67.5 11.5q81 0 126 -48q48 -48 48 -138v-242h-20v240q0 36 -9.5 66.5t-29 53t-49 35.5t-68.5 13q-45 0 -79.5 -18.5t-57 -47.5t-34 -63.5t-11.5 -66.5v-212h-20zM234 -179q25 0 41.5 12.5t16.5 43.5v99h20v-99
q0 -42 -22 -59t-56 -17v20z" />
    <glyph glyph-name="Ncaron" unicode="&#x147;" horiz-adv-x="659" 
d="M546 31v669h20v-700h-24l-429 669v-669h-20v700h24zM184 898l13 15l146 -133l148 133l13 -15l-161 -145z" />
    <glyph glyph-name="ncaron" unicode="&#x148;" horiz-adv-x="554" 
d="M93 0v419h20v-128q8 26 23.5 51t39 44t54 30.5t67.5 11.5q81 0 126 -48q48 -48 48 -138v-242h-20v240q0 36 -9.5 66.5t-29 53t-49 35.5t-68.5 13q-45 0 -79.5 -18.5t-57 -47.5t-34 -63.5t-11.5 -66.5v-212h-20zM137 692l13 15l146 -133l148 133l13 -15l-161 -145z" />
    <glyph glyph-name="napostrophe" unicode="&#x149;" horiz-adv-x="554" 
d="M93 0v419h20v-128q8 26 23.5 51t39 44t54 30.5t67.5 11.5q81 0 126 -48q48 -48 48 -138v-242h-20v240q0 36 -9.5 66.5t-29 53t-49 35.5t-68.5 13q-45 0 -79.5 -18.5t-57 -47.5t-34 -63.5t-11.5 -66.5v-212h-20zM5 545q25 0 41.5 12.5t16.5 43.5v99h20v-99q0 -42 -22 -59
t-56 -17v20z" />
    <glyph glyph-name="Eng" unicode="&#x14a;" horiz-adv-x="659" 
d="M546 40v660h20v-769q0 -52 -16 -92.5t-44 -68.5t-67 -42.5t-84 -14.5q-58 0 -108.5 24t-81.5 70l13 15q29 -43 76 -66t101 -23q41 0 76 13t60.5 38.5t40 62t14.5 84.5v69l-433 669v-669h-20v700h24z" />
    <glyph glyph-name="eng" unicode="&#x14b;" horiz-adv-x="554" 
d="M99 -200q29 -35 71 -52.5t90 -17.5q41 0 76 13.5t60.5 39t40 62t14.5 83.5v312q0 36 -9.5 66.5t-29 53t-49 35.5t-68.5 13q-45 0 -79.5 -18.5t-57 -47.5t-34 -63.5t-11.5 -66.5v-212h-20v419h20v-128q8 26 23.5 51t39 44t54 30.5t67.5 11.5q81 0 126 -48q48 -48 48 -138
v-314q0 -52 -16 -92.5t-44 -68.5t-67 -42.5t-84 -14.5q-51 0 -97 19t-78 56z" />
    <glyph glyph-name="Omacron" unicode="&#x14c;" horiz-adv-x="812" 
d="M406 -13q-84 0 -150 30.5t-112.5 80.5t-71 115.5t-24.5 136.5q0 70 24.5 136t71 116t112.5 80.5t150 30.5t150 -30.5t112.5 -80.5t71 -116t24.5 -136q0 -71 -24.5 -136.5t-71 -115.5t-112.5 -80.5t-150 -30.5zM406 7q79 0 142 28.5t106.5 76t66.5 109.5t23 129t-23 129
t-66.5 109.5t-106.5 76t-142 28.5t-142 -28.5t-106.5 -76t-66.5 -109.5t-23 -129t23 -129t66.5 -109.5t106.5 -76t142 -28.5zM585 797h-358v20h358v-20z" />
    <glyph glyph-name="omacron" unicode="&#x14d;" horiz-adv-x="535" 
d="M266 -9q-50 0 -90 17.5t-68.5 47.5t-44 69.5t-15.5 83.5q0 45 15.5 84.5t44 69.5t68.5 47.5t90 17.5q51 0 91.5 -17.5t69.5 -47.5t44.5 -69.5t15.5 -84.5q0 -44 -15.5 -83.5t-44.5 -69.5t-69.5 -47.5t-91.5 -17.5zM266 11q46 0 83 16t63.5 43t40.5 63t14 76t-14 76.5
t-40.5 63.5t-63.5 43t-83 16q-45 0 -81.5 -16t-62.5 -43t-40 -63.5t-14 -76.5t14 -76t40 -63t62.5 -43t81.5 -16zM446 586h-358v20h358v-20z" />
    <glyph glyph-name="Obreve" unicode="&#x14e;" horiz-adv-x="812" 
d="M406 -13q-84 0 -150 30.5t-112.5 80.5t-71 115.5t-24.5 136.5q0 70 24.5 136t71 116t112.5 80.5t150 30.5t150 -30.5t112.5 -80.5t71 -116t24.5 -136q0 -71 -24.5 -136.5t-71 -115.5t-112.5 -80.5t-150 -30.5zM406 7q79 0 142 28.5t106.5 76t66.5 109.5t23 129t-23 129
t-66.5 109.5t-106.5 76t-142 28.5t-142 -28.5t-106.5 -76t-66.5 -109.5t-23 -129t23 -129t66.5 -109.5t106.5 -76t142 -28.5zM406 785q59 0 102 30t54 86h21q-6 -33 -21.5 -58t-39 -42t-53.5 -26t-63 -9t-63 9t-53.5 26t-39 42t-21.5 58h21q11 -56 54 -86t102 -30z" />
    <glyph glyph-name="obreve" unicode="&#x14f;" horiz-adv-x="535" 
d="M266 -9q-50 0 -90 17.5t-68.5 47.5t-44 69.5t-15.5 83.5q0 45 15.5 84.5t44 69.5t68.5 47.5t90 17.5q51 0 91.5 -17.5t69.5 -47.5t44.5 -69.5t15.5 -84.5q0 -44 -15.5 -83.5t-44.5 -69.5t-69.5 -47.5t-91.5 -17.5zM266 11q46 0 83 16t63.5 43t40.5 63t14 76t-14 76.5
t-40.5 63.5t-63.5 43t-83 16q-45 0 -81.5 -16t-62.5 -43t-40 -63.5t-14 -76.5t14 -76t40 -63t62.5 -43t81.5 -16zM266 583q55 0 95.5 30.5t51.5 86.5h20q-11 -66 -57.5 -100.5t-109.5 -34.5q-31 0 -59 9t-50 26t-37 42t-21 58h20q11 -56 51.5 -86.5t95.5 -30.5z" />
    <glyph glyph-name="Ohungarumlaut" unicode="&#x150;" horiz-adv-x="812" 
d="M406 -13q-84 0 -150 30.5t-112.5 80.5t-71 115.5t-24.5 136.5q0 70 24.5 136t71 116t112.5 80.5t150 30.5t150 -30.5t112.5 -80.5t71 -116t24.5 -136q0 -71 -24.5 -136.5t-71 -115.5t-112.5 -80.5t-150 -30.5zM406 7q79 0 142 28.5t106.5 76t66.5 109.5t23 129t-23 129
t-66.5 109.5t-106.5 76t-142 28.5t-142 -28.5t-106.5 -76t-66.5 -109.5t-23 -129t23 -129t66.5 -109.5t106.5 -76t142 -28.5zM598 929l18 -9l-125 -167l-18 10zM403 929l18 -9l-125 -166l-18 9z" />
    <glyph glyph-name="ohungarumlaut" unicode="&#x151;" horiz-adv-x="535" 
d="M266 -9q-50 0 -90 17.5t-68.5 47.5t-44 69.5t-15.5 83.5q0 45 15.5 84.5t44 69.5t68.5 47.5t90 17.5q51 0 91.5 -17.5t69.5 -47.5t44.5 -69.5t15.5 -84.5q0 -44 -15.5 -83.5t-44.5 -69.5t-69.5 -47.5t-91.5 -17.5zM266 11q46 0 83 16t63.5 43t40.5 63t14 76t-14 76.5
t-40.5 63.5t-63.5 43t-83 16q-45 0 -81.5 -16t-62.5 -43t-40 -63.5t-14 -76.5t14 -76t40 -63t62.5 -43t81.5 -16zM258 680l18 -9l-125 -166l-18 9zM346 504l-18 10l125 166l18 -9z" />
    <glyph glyph-name="OE" unicode="&#x152;" horiz-adv-x="1191" 
d="M764 680v-322h339v-20h-339v-318h339v-20h-359v227q-17 -51 -47.5 -94.5t-73.5 -76t-97.5 -51t-119.5 -18.5q-84 0 -150 30.5t-112.5 80.5t-71 115.5t-24.5 136.5q0 70 24.5 136t71 116t112.5 80.5t150 30.5q65 0 119.5 -18.5t97.5 -51t73.5 -76t47.5 -94.5v227h359v-20
h-339zM406 7q79 0 142 28.5t106.5 76t66.5 109.5t23 129t-23 129t-66.5 109.5t-106.5 76t-142 28.5t-142 -28.5t-106.5 -76t-66.5 -109.5t-23 -129t23 -129t66.5 -109.5t106.5 -76t142 -28.5z" />
    <glyph glyph-name="oe" unicode="&#x153;" horiz-adv-x="921" 
d="M487 215q0 -43 12.5 -80t36.5 -64.5t59 -43.5t80 -16q32 0 58.5 8.5t47.5 22.5t35 32.5t21 39.5h21q-7 -25 -22.5 -47t-38.5 -39t-54 -27t-68 -10q-41 0 -74 11.5t-58 31.5t-41.5 47t-25.5 58q-10 -32 -29 -59t-46 -47t-61 -31t-74 -11q-50 0 -90 17.5t-68.5 47.5
t-44 69.5t-15.5 83.5q0 45 15.5 84.5t44 69.5t68.5 47.5t90 17.5q80 0 134.5 -41.5t75.5 -105.5q17 66 67 106.5t129 40.5q40 0 75.5 -14.5t61.5 -39.5t41 -59t15 -74v-11.5t-1 -14.5h-377zM672 408q-41 0 -73.5 -13t-56 -36t-37.5 -54.5t-17 -69.5h357q0 39 -13.5 70.5
t-37 54.5t-55 35.5t-67.5 12.5zM266 11q46 0 83 16t63.5 43t40.5 63t14 76t-14 76.5t-40.5 63.5t-63.5 43t-83 16q-45 0 -81.5 -16t-62.5 -43t-40 -63.5t-14 -76.5t14 -76t40 -63t62.5 -43t81.5 -16z" />
    <glyph glyph-name="Racute" unicode="&#x154;" horiz-adv-x="595" 
d="M93 700h230q51 0 91.5 -17.5t69.5 -47.5t44.5 -69.5t15.5 -84.5q0 -40 -12.5 -76t-36 -64.5t-56.5 -48t-74 -26.5l174 -266h-25l-171 263h-230v-263h-20v700zM323 283q46 0 83 16t63.5 43t40.5 63t14 76t-14 76.5t-40.5 63.5t-63.5 43t-83 16h-210v-397h210zM178 750
l-10 18l249 137l10 -18z" />
    <glyph glyph-name="racute" unicode="&#x155;" horiz-adv-x="327" 
d="M327 400q-14 4 -22.5 5t-19.5 1q-46 0 -78.5 -21t-53.5 -52.5t-30.5 -69t-9.5 -70.5v-193h-20v419h20v-134q24 76 71.5 108.5t100.5 32.5q12 0 23 -1.5t19 -5.5v-19zM78 525l-10 18l249 137l10 -18z" />
    <glyph glyph-name="Rcommaaccent" unicode="&#x156;" horiz-adv-x="595" 
d="M93 700h230q51 0 91.5 -17.5t69.5 -47.5t44.5 -69.5t15.5 -84.5q0 -40 -12.5 -76t-36 -64.5t-56.5 -48t-74 -26.5l174 -266h-25l-171 263h-230v-263h-20v700zM113 680v-397h210q46 0 83 16t63.5 43t40.5 63t14 76t-14 76.5t-40.5 63.5t-63.5 43t-83 16h-210zM251 -179
q25 0 41.5 12.5t16.5 43.5v99h20v-99q0 -42 -22 -59t-56 -17v20z" />
    <glyph glyph-name="rcommaaccent" unicode="&#x157;" horiz-adv-x="327" 
d="M327 400q-14 4 -22.5 5t-19.5 1q-46 0 -78.5 -21t-53.5 -52.5t-30.5 -69t-9.5 -70.5v-193h-20v419h20v-134q24 76 71.5 108.5t100.5 32.5q12 0 23 -1.5t19 -5.5v-19zM35 -179q25 0 41.5 12.5t16.5 43.5v99h20v-99q0 -42 -22 -59t-56 -17v20z" />
    <glyph glyph-name="Rcaron" unicode="&#x158;" horiz-adv-x="595" 
d="M93 700h230q51 0 91.5 -17.5t69.5 -47.5t44.5 -69.5t15.5 -84.5q0 -40 -12.5 -76t-36 -64.5t-56.5 -48t-74 -26.5l174 -266h-25l-171 263h-230v-263h-20v700zM323 283q46 0 83 16t63.5 43t40.5 63t14 76t-14 76.5t-40.5 63.5t-63.5 43t-83 16h-210v-397h210zM137 898
l13 15l146 -133l148 133l13 -15l-161 -145z" />
    <glyph glyph-name="rcaron" unicode="&#x159;" horiz-adv-x="327" 
d="M327 400q-14 4 -22.5 5t-19.5 1q-46 0 -78.5 -21t-53.5 -52.5t-30.5 -69t-9.5 -70.5v-193h-20v419h20v-134q24 76 71.5 108.5t100.5 32.5q12 0 23 -1.5t19 -5.5v-19zM26 692l13 15l146 -133l148 133l13 -15l-161 -145z" />
    <glyph glyph-name="Sacute" unicode="&#x15a;" horiz-adv-x="575" 
d="M72 205q0 -42 15 -78.5t44 -63t70.5 -41.5t95.5 -15q99 0 154.5 42.5t55.5 120.5q0 47 -17 77.5t-45.5 49t-64.5 29t-73 18.5q-44 9 -84.5 20t-72 32t-50.5 55t-19 90q0 35 13.5 66.5t40.5 55t68.5 37t98.5 13.5q99 0 154 -52.5t58 -148.5h-20q-3 86 -53 133.5t-139 47.5
q-51 0 -89 -12t-63 -33t-37 -48.5t-12 -58.5q0 -50 17.5 -80.5t47 -49t68 -28.5t79.5 -19q40 -8 78.5 -19.5t68.5 -32.5t48.5 -55t18.5 -87q0 -88 -60.5 -135.5t-169.5 -47.5q-59 0 -104.5 16.5t-76.5 46t-47.5 69t-16.5 86.5h20zM178 750l-10 18l249 137l10 -18z" />
    <glyph glyph-name="sacute" unicode="&#x15b;" horiz-adv-x="446" 
d="M225 221q31 -5 60 -10.5t52 -17t37 -32t14 -53.5q0 -54 -39 -85.5t-117 -31.5q-37 0 -70 8t-57.5 26t-38.5 46.5t-14 70.5h20q0 -36 12.5 -61t34.5 -40.5t50.5 -22.5t61.5 -7q69 0 103 26t34 70q0 27 -12.5 44t-33.5 26.5t-47.5 14.5t-53.5 9q-30 4 -58 9.5t-50 17
t-35 31.5t-13 52q0 57 41 87t110 30q72 0 118.5 -34t46.5 -103h-20q0 30 -11 52t-30 36.5t-45 21.5t-57 7q-60 0 -96.5 -25.5t-36.5 -72.5q0 -24 10 -39.5t28.5 -25t44.5 -15t57 -9.5zM101 525l-10 18l249 137l10 -18z" />
    <glyph glyph-name="Scircumflex" unicode="&#x15c;" horiz-adv-x="575" 
d="M72 205q0 -42 15 -78.5t44 -63t70.5 -41.5t95.5 -15q99 0 154.5 42.5t55.5 120.5q0 47 -17 77.5t-45.5 49t-64.5 29t-73 18.5q-44 9 -84.5 20t-72 32t-50.5 55t-19 90q0 35 13.5 66.5t40.5 55t68.5 37t98.5 13.5q99 0 154 -52.5t58 -148.5h-20q-3 86 -53 133.5t-139 47.5
q-51 0 -89 -12t-63 -33t-37 -48.5t-12 -58.5q0 -50 17.5 -80.5t47 -49t68 -28.5t79.5 -19q40 -8 78.5 -19.5t68.5 -32.5t48.5 -55t18.5 -87q0 -88 -60.5 -135.5t-169.5 -47.5q-59 0 -104.5 16.5t-76.5 46t-47.5 69t-16.5 86.5h20zM302 913l170 -145l-12 -16l-158 135
l-157 -135l-13 16z" />
    <glyph glyph-name="scircumflex" unicode="&#x15d;" horiz-adv-x="446" 
d="M225 221q31 -5 60 -10.5t52 -17t37 -32t14 -53.5q0 -54 -39 -85.5t-117 -31.5q-37 0 -70 8t-57.5 26t-38.5 46.5t-14 70.5h20q0 -36 12.5 -61t34.5 -40.5t50.5 -22.5t61.5 -7q69 0 103 26t34 70q0 27 -12.5 44t-33.5 26.5t-47.5 14.5t-53.5 9q-30 4 -58 9.5t-50 17
t-35 31.5t-13 52q0 57 41 87t110 30q72 0 118.5 -34t46.5 -103h-20q0 30 -11 52t-30 36.5t-45 21.5t-57 7q-60 0 -96.5 -25.5t-36.5 -72.5q0 -24 10 -39.5t28.5 -25t44.5 -15t57 -9.5zM220 707l170 -145l-12 -16l-158 135l-157 -135l-13 16z" />
    <glyph glyph-name="Scedilla" unicode="&#x15e;" horiz-adv-x="575" 
d="M266 -12q-51 4 -91 22.5t-67.5 47t-41.5 66t-14 81.5h20q0 -42 15 -78.5t44 -63t70.5 -41.5t95.5 -15q99 0 154.5 42.5t55.5 120.5q0 51 -18 81.5t-48 49.5t-68.5 28.5t-78.5 18.5t-78 20t-68 31.5t-48.5 54t-18.5 87.5q0 35 13.5 66.5t40.5 55t68.5 37t98.5 13.5
q99 0 154 -52.5t58 -148.5h-20q-3 86 -53 133.5t-139 47.5q-51 0 -89 -12t-63 -33t-37 -48.5t-12 -58.5q0 -50 18.5 -80.5t48.5 -49t68 -28.5t78 -19t78.5 -20t68.5 -32t48 -54.5t18 -87.5q0 -92 -64 -137.5t-177 -45.5v-77q9 20 27.5 29.5t35.5 9.5q44 0 68.5 -26.5
t24.5 -64.5t-24.5 -65t-68.5 -27q-41 0 -65.5 27t-24.5 65h20q0 -29 19 -50.5t51 -21.5q35 0 54 21.5t19 50.5t-19 50t-54 21q-14 0 -31.5 -7.5t-31.5 -39.5h-20v106z" />
    <glyph glyph-name="scedilla" unicode="&#x15f;" horiz-adv-x="446" 
d="M206 -8q-33 3 -61 12.5t-48.5 27.5t-32.5 45t-12 65h20q0 -36 12.5 -61t34.5 -40.5t50.5 -22.5t61.5 -7q69 0 103 26t34 70q0 28 -13 45t-34.5 27t-48.5 14.5t-55 8.5q-29 4 -56 9.5t-48.5 17t-34.5 31t-13 51.5q0 57 41 87t110 30q72 0 118.5 -34t46.5 -103h-20
q0 30 -11 52t-30 36.5t-45 21.5t-57 7q-60 0 -96.5 -25.5t-36.5 -72.5q0 -26 13 -41t34.5 -24.5t48.5 -14.5t56 -9q28 -5 55 -11.5t48.5 -18.5t34.5 -32t13 -51q0 -57 -40.5 -87t-121.5 -30v-81q9 20 27.5 29.5t35.5 9.5q44 0 68.5 -26.5t24.5 -64.5t-24.5 -65t-68.5 -27
q-41 0 -65.5 27t-24.5 65h20q0 -29 19 -50.5t51 -21.5q35 0 54 21.5t19 50.5t-19 50t-54 21q-14 0 -31.5 -7.5t-31.5 -39.5h-20v110z" />
    <glyph glyph-name="Scaron" unicode="&#x160;" horiz-adv-x="575" 
d="M72 205q0 -42 15 -78.5t44 -63t70.5 -41.5t95.5 -15q99 0 154.5 42.5t55.5 120.5q0 47 -17 77.5t-45.5 49t-64.5 29t-73 18.5q-44 9 -84.5 20t-72 32t-50.5 55t-19 90q0 35 13.5 66.5t40.5 55t68.5 37t98.5 13.5q99 0 154 -52.5t58 -148.5h-20q-3 86 -53 133.5t-139 47.5
q-51 0 -89 -12t-63 -33t-37 -48.5t-12 -58.5q0 -50 17.5 -80.5t47 -49t68 -28.5t79.5 -19q40 -8 78.5 -19.5t68.5 -32.5t48.5 -55t18.5 -87q0 -88 -60.5 -135.5t-169.5 -47.5q-59 0 -104.5 16.5t-76.5 46t-47.5 69t-16.5 86.5h20zM143 909l13 15l146 -133l148 133l13 -15
l-161 -145z" />
    <glyph glyph-name="scaron" unicode="&#x161;" horiz-adv-x="446" 
d="M225 221q31 -5 60 -10.5t52 -17t37 -32t14 -53.5q0 -54 -39 -85.5t-117 -31.5q-37 0 -70 8t-57.5 26t-38.5 46.5t-14 70.5h20q0 -36 12.5 -61t34.5 -40.5t50.5 -22.5t61.5 -7q69 0 103 26t34 70q0 27 -12.5 44t-33.5 26.5t-47.5 14.5t-53.5 9q-30 4 -58 9.5t-50 17
t-35 31.5t-13 52q0 57 41 87t110 30q72 0 118.5 -34t46.5 -103h-20q0 30 -11 52t-30 36.5t-45 21.5t-57 7q-60 0 -96.5 -25.5t-36.5 -72.5q0 -24 10 -39.5t28.5 -25t44.5 -15t57 -9.5zM63 685l13 15l146 -133l148 133l13 -15l-161 -145z" />
    <glyph glyph-name="Tcommaaccent" unicode="&#x162;" horiz-adv-x="465" 
d="M222 680h-204v20h429v-20h-205v-680h-20v680zM164 -176q25 0 41.5 12.5t16.5 43.5v99h20v-99q0 -42 -22 -59t-56 -17v20z" />
    <glyph glyph-name="tcommaaccent" unicode="&#x163;" horiz-adv-x="306" 
d="M20 419h100v188h20v-188h150v-20h-150v-261q0 -41 8 -65.5t21.5 -37.5t31 -17t36.5 -4q14 0 34 2t35 4v-20q-13 -2 -32.5 -4t-36.5 -2q-24 0 -45 4.5t-37 19.5t-25.5 43.5t-9.5 76.5v261h-100v20zM139 -179q25 0 41.5 12.5t16.5 43.5v99h20v-99q0 -42 -22 -59t-56 -17v20
z" />
    <glyph glyph-name="Tcaron" unicode="&#x164;" horiz-adv-x="465" 
d="M222 680h-204v20h429v-20h-205v-680h-20v680zM72 898l13 15l146 -133l148 133l13 -15l-161 -145z" />
    <glyph glyph-name="tcaron" unicode="&#x165;" horiz-adv-x="306" 
d="M20 419h100v188h20v-188h150v-20h-150v-261q0 -41 8 -65.5t21.5 -37.5t31 -17t36.5 -4q14 0 34 2t35 4v-20q-13 -2 -32.5 -4t-36.5 -2q-24 0 -45 4.5t-37 19.5t-25.5 43.5t-9.5 76.5v261h-100v20zM190 533q25 0 41.5 12.5t16.5 43.5v99h20v-99q0 -42 -22 -59t-56 -17v20z
" />
    <glyph glyph-name="Tbar" unicode="&#x166;" horiz-adv-x="465" 
d="M416 481h-174v-481h-20v481h-164v20h164v179h-204v20h429v-20h-205v-179h174v-20z" />
    <glyph glyph-name="tbar" unicode="&#x167;" horiz-adv-x="306" 
d="M306 0q-13 -2 -32.5 -4t-36.5 -2q-24 0 -45 4.5t-37 19.5t-25.5 43.5t-9.5 76.5v92h-100v20h100v149h-100v20h100v188h20v-188h150v-20h-150v-149h150v-20h-150v-92q0 -41 8 -65.5t21.5 -37.5t31 -17t36.5 -4q14 0 34 2t35 4v-20z" />
    <glyph glyph-name="Utilde" unicode="&#x168;" horiz-adv-x="595" 
d="M78 700h20v-495q0 -40 14 -76t40 -63t62.5 -43t81.5 -16q46 0 83 16t63.5 43t40.5 63t14 76v495h20v-495q0 -44 -15.5 -83.5t-44.5 -69.5t-69.5 -47.5t-91.5 -17.5q-50 0 -90 17.5t-68.5 47.5t-44 69.5t-15.5 83.5v495zM369 809q26 0 48 18.5t30 45.5l20 -7
q-14 -37 -41 -56t-57 -19q-24 0 -41.5 10t-33.5 22t-31.5 22t-34.5 10q-26 0 -48 -18.5t-30 -45.5l-20 7q14 37 41 56t57 19q24 0 41.5 -10t33.5 -22t31.5 -22t34.5 -10z" />
    <glyph glyph-name="utilde" unicode="&#x169;" horiz-adv-x="551" 
d="M458 0h-20v128q-8 -26 -24 -51t-39 -44t-53.5 -30.5t-67.5 -11.5q-39 0 -71 12t-55 36q-48 48 -48 138v242h20v-240q0 -36 9.5 -66.5t29 -53t49 -35.5t68.5 -13q45 0 79.5 18.5t57 47.5t34 63.5t11.5 66.5v212h20v-419zM342 585q26 0 48 18.5t30 45.5l20 -7
q-14 -37 -41 -56t-57 -19q-24 0 -41.5 10t-33.5 22t-31.5 22t-34.5 10q-26 0 -48 -18.5t-30 -45.5l-20 7q14 37 41 56t57 19q24 0 41.5 -10t33.5 -22t31.5 -22t34.5 -10z" />
    <glyph glyph-name="Umacron" unicode="&#x16a;" horiz-adv-x="595" 
d="M78 700h20v-495q0 -40 14 -76t40 -63t62.5 -43t81.5 -16q46 0 83 16t63.5 43t40.5 63t14 76v495h20v-495q0 -44 -15.5 -83.5t-44.5 -69.5t-69.5 -47.5t-91.5 -17.5q-50 0 -90 17.5t-68.5 47.5t-44 69.5t-15.5 83.5v495zM476 797h-358v20h358v-20z" />
    <glyph glyph-name="umacron" unicode="&#x16b;" horiz-adv-x="551" 
d="M458 0h-20v128q-8 -26 -24 -51t-39 -44t-53.5 -30.5t-67.5 -11.5q-39 0 -71 12t-55 36q-48 48 -48 138v242h20v-240q0 -36 9.5 -66.5t29 -53t49 -35.5t68.5 -13q45 0 79.5 18.5t57 47.5t34 63.5t11.5 66.5v212h20v-419zM454 586h-358v20h358v-20z" />
    <glyph glyph-name="Ubreve" unicode="&#x16c;" horiz-adv-x="595" 
d="M78 700h20v-495q0 -40 14 -76t40 -63t62.5 -43t81.5 -16q46 0 83 16t63.5 43t40.5 63t14 76v495h20v-495q0 -44 -15.5 -83.5t-44.5 -69.5t-69.5 -47.5t-91.5 -17.5q-50 0 -90 17.5t-68.5 47.5t-44 69.5t-15.5 83.5v495zM292 785q59 0 102 30t54 86h21q-6 -33 -21.5 -58
t-39 -42t-53.5 -26t-63 -9t-63 9t-53.5 26t-39 42t-21.5 58h21q11 -56 54 -86t102 -30z" />
    <glyph glyph-name="ubreve" unicode="&#x16d;" horiz-adv-x="551" 
d="M458 0h-20v128q-8 -26 -24 -51t-39 -44t-53.5 -30.5t-67.5 -11.5q-39 0 -71 12t-55 36q-48 48 -48 138v242h20v-240q0 -36 9.5 -66.5t29 -53t49 -35.5t68.5 -13q45 0 79.5 18.5t57 47.5t34 63.5t11.5 66.5v212h20v-419zM271 583q55 0 95.5 30.5t51.5 86.5h20
q-11 -66 -57.5 -100.5t-109.5 -34.5q-31 0 -59 9t-50 26t-37 42t-21 58h20q11 -56 51.5 -86.5t95.5 -30.5z" />
    <glyph glyph-name="Uring" unicode="&#x16e;" horiz-adv-x="595" 
d="M78 700h20v-495q0 -40 14 -76t40 -63t62.5 -43t81.5 -16q46 0 83 16t63.5 43t40.5 63t14 76v495h20v-495q0 -44 -15.5 -83.5t-44.5 -69.5t-69.5 -47.5t-91.5 -17.5q-50 0 -90 17.5t-68.5 47.5t-44 69.5t-15.5 83.5v495zM297 976q25 0 47.5 -10t39.5 -26.5t26.5 -39
t9.5 -47.5t-9.5 -47.5t-26.5 -39t-39.5 -26.5t-47.5 -10q-26 0 -48 10t-39 26.5t-26.5 39t-9.5 47.5t9.5 47.5t26.5 39.5t39 26.5t48 9.5zM297 956q-21 0 -40 -8t-33 -22t-22 -33t-8 -40t8 -39.5t22 -33t33 -22.5t40 -8t40 8t33 22.5t22 33t8 39.5t-8 39.5t-22 33t-33 22.5
t-40 8z" />
    <glyph glyph-name="uring" unicode="&#x16f;" horiz-adv-x="551" 
d="M458 0h-20v128q-8 -26 -24 -51t-39 -44t-53.5 -30.5t-67.5 -11.5q-39 0 -71 12t-55 36q-48 48 -48 138v242h20v-240q0 -36 9.5 -66.5t29 -53t49 -35.5t68.5 -13q45 0 79.5 18.5t57 47.5t34 63.5t11.5 66.5v212h20v-419zM272 735q25 0 47.5 -10t39.5 -26.5t26.5 -39
t9.5 -47.5t-9.5 -47.5t-26.5 -39t-39.5 -26.5t-47.5 -10q-26 0 -48 10t-39 26.5t-26.5 39t-9.5 47.5t9.5 47.5t26.5 39.5t39 26.5t48 9.5zM272 715q-21 0 -40 -8t-33 -22t-22 -33t-8 -40t8 -39.5t22 -33t33 -22.5t40 -8t40 8t33 22.5t22 33t8 39.5t-8 39.5t-22 33t-33 22.5
t-40 8z" />
    <glyph glyph-name="Uhungarumlaut" unicode="&#x170;" horiz-adv-x="595" 
d="M78 700h20v-495q0 -40 14 -76t40 -63t62.5 -43t81.5 -16q46 0 83 16t63.5 43t40.5 63t14 76v495h20v-495q0 -44 -15.5 -83.5t-44.5 -69.5t-69.5 -47.5t-91.5 -17.5q-50 0 -90 17.5t-68.5 47.5t-44 69.5t-15.5 83.5v495zM478 929l18 -9l-125 -167l-18 10zM283 929l18 -9
l-125 -166l-18 9z" />
    <glyph glyph-name="uhungarumlaut" unicode="&#x171;" horiz-adv-x="551" 
d="M458 419v-419h-20v128q-8 -26 -24 -51t-39 -44t-53.5 -30.5t-67.5 -11.5q-39 0 -71 12t-55 36q-48 48 -48 138v242h20v-240q0 -36 9.5 -66.5t29 -53t49 -35.5t68.5 -13q45 0 79.5 18.5t57 47.5t34 63.5t11.5 66.5v212h20zM154 505l-18 9l125 166l18 -9zM349 504l-18 10
l125 166l18 -9z" />
    <glyph glyph-name="Uogonek" unicode="&#x172;" horiz-adv-x="595" 
d="M427 -197q-16 -5 -37.5 -10t-47.5 -5q-57 0 -86 28.5t-29 68.5q0 29 15.5 53t47.5 49q-48 1 -87.5 19t-67 47.5t-42.5 68.5t-15 83v495h20v-495q0 -40 14 -76t40 -63t62.5 -43t81.5 -16q46 0 83 16t63.5 43t40.5 63t14 76v495h20v-495q0 -44 -15 -82.5t-43 -68.5t-67 -48
t-88 -19q-29 -25 -43 -51.5t-14 -50.5q0 -32 23.5 -54.5t71.5 -22.5q24 0 48 5.5t39 10.5z" />
    <glyph glyph-name="uogonek" unicode="&#x173;" horiz-adv-x="551" 
d="M254 -9q-39 0 -71 12t-55 36q-48 48 -48 138v242h20v-240q0 -36 9.5 -66.5t29 -53t49 -35.5t68.5 -13q45 0 79.5 18.5t57 47.5t34 63.5t11.5 66.5v212h20v-419q-116 -47 -116 -116q0 -34 22.5 -55t62.5 -21q20 0 39.5 3.5t32.5 7.5l-2 -21q-14 -4 -31 -7t-39 -3
q-52 0 -78.5 26t-26.5 70q0 67 116 116v128q-8 -26 -24 -51t-39 -44t-53.5 -30.5t-67.5 -11.5z" />
    <glyph glyph-name="Wcircumflex" unicode="&#x174;" horiz-adv-x="907" 
d="M453 671l-193 -671h-21l-232 700h21l221 -673l194 673h21l194 -673l221 673h21l-232 -700h-21zM455 913l170 -145l-12 -16l-158 135l-157 -135l-13 16z" />
    <glyph glyph-name="wcircumflex" unicode="&#x175;" horiz-adv-x="675" 
d="M337 393l-140 -393h-20l-161 419h21l149 -395l141 395h21l140 -395l150 395h21l-161 -419h-20zM337 707l170 -145l-12 -16l-158 135l-157 -135l-13 16z" />
    <glyph glyph-name="Ycircumflex" unicode="&#x176;" horiz-adv-x="527" 
d="M157 0h-23l144 273l-272 427h24l259 -406l213 406h22zM284 913l170 -145l-12 -16l-158 135l-157 -135l-13 16z" />
    <glyph glyph-name="ycircumflex" unicode="&#x177;" horiz-adv-x="557" 
d="M279 -290q-54 0 -90.5 13.5t-58.5 40t-32.5 66t-11.5 92.5h20q1 -47 10.5 -83t29.5 -60t52.5 -36.5t80.5 -12.5q43 0 74.5 11t52.5 35.5t31.5 64.5t10.5 97v190q-8 -26 -23.5 -51t-38 -44t-52.5 -30.5t-67 -11.5q-48 0 -77 10t-55 34q-24 23 -34.5 59t-10.5 93v232h20
v-230q0 -42 7.5 -75.5t26 -56t49 -34.5t76.5 -12q45 0 79 18.5t56 47.5t33 63.5t11 66.5v212h20v-481q0 -63 -11.5 -106.5t-35 -70.5t-59 -39t-83.5 -12zM278 707l170 -145l-12 -16l-158 135l-157 -135l-13 16z" />
    <glyph glyph-name="Ydieresis" unicode="&#x178;" horiz-adv-x="527" 
d="M378 858h20v-103h-20v103zM147 858h20v-103h-20v103zM157 0h-23l144 273l-272 427h24l259 -406l213 406h22z" />
    <glyph glyph-name="Zacute" unicode="&#x179;" horiz-adv-x="527" 
d="M39 700h483l-466 -680h486v-20h-524l466 680h-445v20zM169 758l-10 18l249 137l10 -18z" />
    <glyph glyph-name="zacute" unicode="&#x17a;" horiz-adv-x="423" 
d="M383 419l-311 -399h314v-20h-356l310 399h-295v20h338zM92 525l-10 18l249 137l10 -18z" />
    <glyph glyph-name="Zdotaccent" unicode="&#x17b;" horiz-adv-x="527" 
d="M259 858h20v-103h-20v103zM39 700h483l-466 -680h486v-20h-524l466 680h-445v20z" />
    <glyph glyph-name="zdotaccent" unicode="&#x17c;" horiz-adv-x="423" 
d="M201 648h20v-103h-20v103zM383 419l-311 -399h314v-20h-356l310 399h-295v20h338z" />
    <glyph glyph-name="Zcaron" unicode="&#x17d;" horiz-adv-x="527" 
d="M144 898l13 15l146 -133l148 133l13 -15l-161 -145zM39 700h483l-466 -680h486v-20h-524l466 680h-445v20z" />
    <glyph glyph-name="zcaron" unicode="&#x17e;" horiz-adv-x="423" 
d="M56 671l13 15l146 -133l148 133l13 -15l-161 -145zM383 419l-311 -399h314v-20h-356l310 399h-295v20h338z" />
    <glyph glyph-name="longs" unicode="&#x17f;" horiz-adv-x="310" 
d="M306 675q-14 6 -26 8.5t-35 2.5q-17 0 -33.5 -4.5t-30 -18t-22 -38t-8.5 -65.5v-560h-20v399h-106v20h106v141q0 47 10 76t26.5 44.5t37 20.5t40.5 5q23 0 35.5 -3t25.5 -8v-20z" />
    <glyph glyph-name="florin" unicode="&#x192;" horiz-adv-x="381" 
d="M-67 -259q13 -6 24.5 -8.5t34.5 -2.5q16 0 34 4.5t34 18t29 38t20 65.5l95 543h-106l4 20h105l25 141q8 47 23.5 76t34.5 44.5t40.5 20.5t41.5 5q23 0 35 -3t24 -8l-3 -20q-13 6 -24.5 8.5t-34.5 2.5q-17 0 -34.5 -4.5t-33.5 -18t-29 -38t-20 -65.5l-25 -141h156l-4 -20
h-155l-95 -543q-8 -47 -23.5 -76t-34.5 -44.5t-40.5 -20.5t-41.5 -5q-23 0 -35 3t-24 8z" />
    <glyph glyph-name="Aringacute" unicode="&#x1fa;" horiz-adv-x="521" 
d="M329 749q0 -24 -14.5 -43t-37.5 -24l234 -682h-21l-56 162h-348l-55 -162h-21l234 682q-23 5 -37.5 23.5t-14.5 43.5q0 28 19.5 48t48.5 20t49 -20t20 -48zM93 182h334l-167 494zM260 797q-20 0 -34 -14t-14 -34t13 -34.5t35 -14.5t35.5 14.5t13.5 34.5t-14.5 34
t-34.5 14zM141 791l-10 18l249 137l10 -18z" />
    <glyph glyph-name="aringacute" unicode="&#x1fb;" horiz-adv-x="580" 
d="M467 419h20v-419h-20v125q-22 -59 -73.5 -96.5t-127.5 -37.5q-50 0 -90 17.5t-68.5 47.5t-44 69.5t-15.5 83.5q0 45 15.5 84.5t44 69.5t68.5 47.5t90 17.5q76 0 127.5 -37.5t73.5 -97.5v126zM266 408q-45 0 -81.5 -16t-62.5 -43t-40 -63.5t-14 -76.5t14 -76t40 -63
t62.5 -43t81.5 -16q46 0 83 16t63.5 43t40.5 63t14 76q-5 44 -21.5 80.5t-42.5 63t-61 41t-76 14.5zM363 612q0 21 -8 39.5t-22 33t-33 22.5t-40 8t-40 -8t-33 -22t-22 -33t-8 -40t8 -39.5t22 -33t33 -22.5t40 -8t40 8t33 22.5t22 33t8 39.5zM137 612q0 25 9.5 47.5
t26.5 39.5t39 26.5t48 9.5q25 0 47.5 -10t39.5 -26.5t26.5 -39t9.5 -47.5t-9.5 -47.5t-26.5 -39t-39.5 -26.5t-47.5 -10q-26 0 -48 10t-39 26.5t-26.5 39t-9.5 47.5zM128 763l249 137l10 -18l-249 -137z" />
    <glyph glyph-name="AEacute" unicode="&#x1fc;" horiz-adv-x="810" 
d="M383 680v-322h339v-20h-339v-318h339v-20h-359v162h-255l-83 -162h-22l360 700h359v-20h-339zM363 182v475l-244 -475h244zM422 750l-10 18l249 137l10 -18z" />
    <glyph glyph-name="aeacute" unicode="&#x1fd;" horiz-adv-x="921" 
d="M487 419v-106q23 52 69.5 83.5t115.5 31.5q40 0 75.5 -14.5t61.5 -39.5t41 -59t15 -74v-11.5t-1 -14.5h-377q0 -44 12.5 -81.5t36.5 -64.5t59 -42.5t80 -15.5q32 0 58.5 8.5t47.5 22.5t35 32.5t21 39.5h21q-7 -25 -22.5 -47t-38.5 -39t-54 -27t-68 -10q-72 0 -119 33
t-69 84v-108h-20v125q-22 -59 -73.5 -96.5t-127.5 -37.5q-50 0 -90 17.5t-68.5 47.5t-44 69.5t-15.5 83.5q0 45 15.5 84.5t44 69.5t68.5 47.5t90 17.5q76 0 127.5 -37.5t73.5 -97.5v126h20zM672 408q-41 0 -73.5 -13t-56 -36t-37.5 -54.5t-17 -69.5h357q0 39 -13.5 70.5
t-37 54.5t-55 35.5t-67.5 12.5zM266 11q46 0 83 16t63.5 43t40.5 63t14 76t-14 76.5t-40.5 63.5t-63.5 43t-83 16q-45 0 -81.5 -16t-62.5 -43t-40 -63.5t-14 -76.5t14 -76t40 -63t62.5 -43t81.5 -16zM341 525l-10 18l249 137l10 -18z" />
    <glyph glyph-name="Oslashacute" unicode="&#x1fe;" horiz-adv-x="812" 
d="M406 -13q-40 0 -76 7t-68 20l-30 -71l-19 7l31 73q-47 22 -83.5 57t-61.5 77.5t-38 92t-13 100.5q0 70 24.5 136t71 116t112.5 80.5t150 30.5q68 0 125 -21l28 65l19 -7l-28 -65q51 -21 91 -56t67 -79t41.5 -95t14.5 -105q0 -71 -24.5 -136.5t-71 -115.5t-112.5 -80.5
t-150 -30.5zM68 350q0 -48 12.5 -94.5t36 -87t57.5 -73t78 -54.5l271 633q-55 19 -117 19q-79 0 -142 -28.5t-106.5 -76t-66.5 -109.5t-23 -129zM744 350q0 51 -13.5 99t-39.5 89.5t-63.5 74.5t-85.5 53l-272 -633q61 -26 136 -26q79 0 142 28.5t106.5 76t66.5 109.5t23 129
zM286 749l-10 18l249 137l10 -18z" />
    <glyph glyph-name="oslashacute" unicode="&#x1ff;" horiz-adv-x="535" 
d="M352 412q31 -12 56.5 -32.5t42.5 -47t26.5 -58t9.5 -65.5q0 -44 -15.5 -83.5t-44.5 -69.5t-69.5 -47.5t-91.5 -17.5q-48 0 -88 17l-26 -60l-18 7l26 61q-53 28 -82.5 79t-29.5 114q0 45 15.5 84.5t44 69.5t68.5 47.5t90 17.5q18 0 35 -2.5t33 -7.5l21 49l18 -7zM266 11
q46 0 83 16t63.5 43t40.5 63t14 76q0 63 -32.5 112.5t-90.5 72.5l-158 -368q36 -15 80 -15zM68 209q0 -56 26 -102.5t74 -72.5l158 366q-30 8 -60 8q-45 0 -81.5 -16t-62.5 -43t-40 -63.5t-14 -76.5zM147 525l-10 18l249 137l10 -18z" />
    <glyph glyph-name="Scommaaccent" unicode="&#x218;" horiz-adv-x="575" 
d="M72 205q0 -42 15 -78.5t44 -63t70.5 -41.5t95.5 -15q99 0 154.5 42.5t55.5 120.5q0 47 -17 77.5t-45.5 49t-64.5 29t-73 18.5q-44 9 -84.5 20t-72 32t-50.5 55t-19 90q0 35 13.5 66.5t40.5 55t68.5 37t98.5 13.5q99 0 154 -52.5t58 -148.5h-20q-3 86 -53 133.5t-139 47.5
q-51 0 -89 -12t-63 -33t-37 -48.5t-12 -58.5q0 -50 17.5 -80.5t47 -49t68 -28.5t79.5 -19q40 -8 78.5 -19.5t68.5 -32.5t48.5 -55t18.5 -87q0 -88 -60.5 -135.5t-169.5 -47.5q-59 0 -104.5 16.5t-76.5 46t-47.5 69t-16.5 86.5h20zM251 -189q25 0 41.5 12.5t16.5 43.5v99h20
v-99q0 -42 -22 -59t-56 -17v20z" />
    <glyph glyph-name="scommaaccent" unicode="&#x219;" horiz-adv-x="446" 
d="M72 142q0 -36 12.5 -61t34.5 -40.5t50.5 -22.5t61.5 -7q69 0 103 26t34 70q0 27 -12.5 44t-33.5 26.5t-47.5 14.5t-53.5 9q-30 4 -58 9.5t-50 17t-35 31.5t-13 52q0 57 41 87t110 30q72 0 118.5 -34t46.5 -103h-20q0 30 -11 52t-30 36.5t-45 21.5t-57 7
q-60 0 -96.5 -25.5t-36.5 -72.5q0 -24 10 -39.5t28.5 -25t44.5 -15t57 -9.5q31 -5 60 -10.5t52 -17t37 -32t14 -53.5q0 -54 -39 -85.5t-117 -31.5q-37 0 -70 8t-57.5 26t-38.5 46.5t-14 70.5h20zM166 -179q25 0 41.5 12.5t16.5 43.5v99h20v-99q0 -42 -22 -59t-56 -17v20z
" />
    <glyph glyph-name="uni021A" unicode="&#x21a;" horiz-adv-x="465" 
d="M222 680h-204v20h429v-20h-205v-680h-20v680zM164 -176q25 0 41.5 12.5t16.5 43.5v99h20v-99q0 -42 -22 -59t-56 -17v20z" />
    <glyph glyph-name="uni021B" unicode="&#x21b;" horiz-adv-x="306" 
d="M20 419h100v188h20v-188h150v-20h-150v-261q0 -41 8 -65.5t21.5 -37.5t31 -17t36.5 -4q14 0 34 2t35 4v-20q-13 -2 -32.5 -4t-36.5 -2q-24 0 -45 4.5t-37 19.5t-25.5 43.5t-9.5 76.5v261h-100v20zM139 -179q25 0 41.5 12.5t16.5 43.5v99h20v-99q0 -42 -22 -59t-56 -17v20
z" />
    <glyph glyph-name="hsuperior" unicode="&#x2b0;" horiz-adv-x="366" 
d="M79 700h20v-214q9 28 34.5 48.5t63.5 20.5q46 0 70 -26q25 -27 25 -77v-137h-20v132q0 38 -19 64t-61 26q-23 0 -40.5 -9.5t-29 -24.5t-17.5 -33t-6 -35v-120h-20v385z" />
    <glyph glyph-name="jsuperior" unicode="&#x2b2;" horiz-adv-x="185" 
d="M84 676h20v-57h-20v57zM104 232q0 -34 -15 -52t-39 -18q-22 0 -37 7v19q8 -4 14.5 -5.5t17.5 -1.5q18 0 28.5 13.5t10.5 37.5v318h20v-318z" />
    <glyph glyph-name="wsuperior" unicode="&#x2b7;" horiz-adv-x="439" 
d="M219 527l-75 -212h-16l-91 235h21l77 -207l74 207h21l73 -207l78 207h21l-91 -235h-16z" />
    <glyph glyph-name="ysuperior" unicode="&#x2b8;" horiz-adv-x="368" 
d="M182 160q-58 0 -81.5 29.5t-25.5 85.5h20q2 -47 20.5 -71.5t68.5 -24.5q45 0 66 23.5t21 82.5v94q-9 -27 -33.5 -48t-62.5 -21q-27 0 -43.5 6t-30.5 20q-13 13 -18 32t-5 50v132h20v-127q0 -45 17 -70t65 -25q23 0 40 9.5t28.5 24.5t17 33t5.5 36v119h20v-265
q0 -69 -27 -97t-82 -28z" />
    <glyph glyph-name="circumflex" unicode="&#x2c6;" horiz-adv-x="399" 
d="M200 842l180 -145l-12 -16l-168 135l-167 -135l-13 16z" />
    <glyph glyph-name="caron" unicode="&#x2c7;" horiz-adv-x="350" 
d="M15 749l13 15l146 -133l148 133l13 -15l-161 -145z" />
    <glyph glyph-name="breve" unicode="&#x2d8;" horiz-adv-x="484" 
d="M60 835q6 -28 22 -49.5t40 -36t54.5 -22t64.5 -7.5q33 0 64.5 7.5t56 22t41 36t20.5 49.5h20q-4 -33 -22 -58t-45.5 -42.5t-62.5 -26t-72 -8.5q-38 0 -72 9t-61 26t-45 42t-24 58h21z" />
    <glyph glyph-name="dotaccent" unicode="&#x2d9;" horiz-adv-x="167" 
d="M46 663q0 17 10.5 28t27.5 11t28 -11t11 -28t-11 -27.5t-28 -10.5t-27.5 10.5t-10.5 27.5z" />
    <glyph glyph-name="ring" unicode="&#x2da;" horiz-adv-x="333" 
d="M167 835q25 0 47.5 -10t39.5 -26.5t26.5 -39t9.5 -47.5t-9.5 -47.5t-26.5 -39t-39.5 -26.5t-47.5 -10q-26 0 -48 10t-39 26.5t-26.5 39t-9.5 47.5t9.5 47.5t26.5 39.5t39 26.5t48 9.5zM167 815q-21 0 -40 -8t-33 -22t-22 -33t-8 -40t8 -39.5t22 -33t33 -22.5t40 -8t40 8
t33 22.5t22 33t8 39.5t-8 39.5t-22 33t-33 22.5t-40 8z" />
    <glyph glyph-name="ogonek" unicode="&#x2db;" horiz-adv-x="247" 
d="M241 -197q-16 -5 -37.5 -10t-47.5 -5q-57 0 -86 28.5t-29 68.5q0 32 19.5 59t61.5 56h12q-36 -27 -54.5 -57.5t-18.5 -57.5q0 -32 23.5 -54.5t71.5 -22.5q21 0 46.5 5t40.5 11z" />
    <glyph glyph-name="tilde" unicode="&#x2dc;" horiz-adv-x="409" 
d="M54 662q22 14 38.5 22t28.5 11.5t20.5 4t15.5 0.5q10 0 30 -4t41.5 -9.5t40.5 -9.5t29 -4q8 0 15 1t15.5 4t20 8t29.5 14l9 -18q-19 -9 -31.5 -15t-22 -9t-17.5 -4t-18 -1q-18 0 -36 4t-35.5 9.5t-34.5 9.5t-35 4q-6 0 -13.5 -0.5t-18 -4t-25.5 -10.5t-35 -20z" />
    <glyph glyph-name="hungarumlaut" unicode="&#x2dd;" horiz-adv-x="391" 
d="M347 734l18 -9l-125 -167l-18 10zM152 734l18 -9l-125 -166l-18 9z" />
    <glyph glyph-name="xsuperior" unicode="&#x2e3;" horiz-adv-x="294" 
d="M246 315h-23l-76 102l-75 -102h-24l87 118l-87 117h24l75 -102l76 102h23l-87 -117z" />
    <glyph glyph-name="Delta" unicode="&#x394;" horiz-adv-x="521" 
d="M38 20h445l-223 656zM511 0h-501l240 700h21z" />
    <glyph glyph-name="Omega" unicode="&#x3a9;" horiz-adv-x="724" 
d="M362 693q-69 0 -123.5 -22.5t-92.5 -62t-58 -93.5t-20 -117q0 -55 20 -106t55 -92t83 -68.5t105 -36.5v-95h-255v20h235v58q-57 12 -105 42t-83.5 73t-55 95.5t-19.5 109.5q0 67 21.5 125t62 100t98.5 66t132 24q73 0 131.5 -24t99 -66t62 -100t21.5 -125
q0 -57 -19.5 -109.5t-55 -95.5t-83.5 -73t-105 -42v-58h235v-20h-255v95q57 9 105 36.5t83 68.5t55 92t20 106q0 63 -20 117t-58 93.5t-92.5 62t-123.5 22.5z" />
    <glyph glyph-name="mu" unicode="&#x3bc;" 
d="M91 419h20v-240q0 -36 9.5 -66.5t29 -53t49 -35.5t68.5 -13q45 0 79.5 18.5t57 47.5t34 63.5t11.5 66.5v212h20v-419h-20v128q-8 -26 -24 -51t-39 -44t-53.5 -30.5t-67.5 -11.5q-54 0 -93.5 22t-60.5 65v-359h-20v700z" />
    <glyph glyph-name="pi" unicode="&#x3c0;" 
d="M463 399h-40v-399h-20v399h-247v-399h-20v399h-40v20h367v-20z" />
    <glyph glyph-name="uni0401" unicode="&#x401;" horiz-adv-x="540" 
d="M386 858h20v-103h-20v103zM155 858h20v-103h-20v103zM113 680v-322h339v-20h-339v-318h339v-20h-359v700h359v-20h-339z" />
    <glyph glyph-name="uni0402" unicode="&#x402;" horiz-adv-x="663" 
d="M600 -161q0 -58 -26.5 -91.5t-71.5 -33.5q-21 0 -34 2.5t-29 10.5v23q14 -8 27 -12t36 -4q36 0 57 28t21 77v401q0 36 -9.5 66.5t-29 53t-49 35.5t-68.5 13q-45 0 -79.5 -18.5t-57 -47.5t-34 -63.5t-11.5 -66.5v-212h-20v680h-204v20h429v-20h-205v-389q8 26 23.5 51
t39 44t54 30.5t67.5 11.5q79 0 126 -48q23 -23 35.5 -57.5t12.5 -80.5v-403z" />
    <glyph glyph-name="uni0403" unicode="&#x403;" horiz-adv-x="470" 
d="M167 750l-10 18l249 137l10 -18zM93 700h359v-20h-339v-680h-20v700z" />
    <glyph glyph-name="uni0404" unicode="&#x404;" horiz-adv-x="774" 
d="M728 187q-17 -43 -47 -79.5t-70.5 -63.5t-91 -42t-107.5 -15q-85 0 -152.5 29.5t-114.5 79.5t-72 116t-25 139q0 70 24 135.5t69 116t110 80.5t147 30q70 0 125.5 -17.5t96.5 -48.5t68 -72.5t40 -90.5h-20q-13 45 -38.5 83t-64 66t-90 44t-117.5 16q-77 0 -137.5 -28
t-103 -74.5t-65.5 -107t-24 -126.5h438v-20h-438q2 -67 26.5 -127t69 -105t107 -71.5t141.5 -26.5q53 0 99.5 13.5t84 37.5t65.5 57t45 72h22z" />
    <glyph glyph-name="uni0405" unicode="&#x405;" horiz-adv-x="575" 
d="M72 205q0 -42 15 -78.5t44 -63t70.5 -41.5t95.5 -15q99 0 154.5 42.5t55.5 120.5q0 47 -17 77.5t-45.5 49t-64.5 29t-73 18.5q-44 9 -84.5 20t-72 32t-50.5 55t-19 90q0 35 13.5 66.5t40.5 55t68.5 37t98.5 13.5q99 0 154 -52.5t58 -148.5h-20q-3 86 -53 133.5t-139 47.5
q-51 0 -89 -12t-63 -33t-37 -48.5t-12 -58.5q0 -50 17.5 -80.5t47 -49t68 -28.5t79.5 -19q40 -8 78.5 -19.5t68.5 -32.5t48.5 -55t18.5 -87q0 -88 -60.5 -135.5t-169.5 -47.5q-59 0 -104.5 16.5t-76.5 46t-47.5 69t-16.5 86.5h20z" />
    <glyph glyph-name="uni0406" unicode="&#x406;" horiz-adv-x="206" 
d="M93 700h20v-700h-20v700z" />
    <glyph glyph-name="uni0407" unicode="&#x407;" horiz-adv-x="206" 
d="M-22 858h20v-103h-20v103zM209 858h20v-103h-20v103zM93 700h20v-700h-20v700z" />
    <glyph glyph-name="uni0408" unicode="&#x408;" horiz-adv-x="535" 
d="M457 205q0 -52 -16 -92.5t-44 -68.5t-67 -42.5t-84 -14.5t-85.5 14.5t-72 42.5t-50 68.5t-18.5 92.5h20q0 -47 17 -83.5t45.5 -62t65.5 -39t78 -13.5t76 13.5t60.5 39t40 62t14.5 83.5v495h20v-495z" />
    <glyph glyph-name="uni0409" unicode="&#x409;" horiz-adv-x="994" 
d="M774 20q33 0 62 13.5t51 36.5t34.5 54t12.5 66q0 34 -12 65t-33 54.5t-49 37t-60 13.5h-225v-340h219zM535 680h-382v-577q0 -36 -8.5 -58.5t-23 -35t-33.5 -17t-40 -4.5h-38v20h38q20 0 35.5 4t26.5 14.5t17 30t6 51.5v592h422v-320h225q35 0 66.5 -14.5t55.5 -40
t38 -60.5t14 -75q0 -39 -14 -74t-38.5 -60.5t-57.5 -40.5t-70 -15h-239v680z" />
    <glyph glyph-name="uni040A" unicode="&#x40a;" horiz-adv-x="1006" 
d="M567 380h225q35 0 66.5 -14.5t55.5 -40t38 -60.5t14 -75q0 -39 -14 -74t-38.5 -60.5t-57.5 -40.5t-70 -15h-239v360h-434v-360h-20v700h20v-320h434v320h20v-320zM567 360v-340h219q33 0 62 13.5t51 36.5t34.5 54t12.5 66q0 34 -12 65t-33 54.5t-49 37t-60 13.5h-225z
" />
    <glyph glyph-name="uni040B" unicode="&#x40b;" horiz-adv-x="683" 
d="M242 680v-389q8 26 23.5 51t39 44t54 30.5t67.5 11.5q81 0 126 -48q48 -48 48 -138v-242h-20v240q0 36 -9.5 66.5t-29 53t-49 35.5t-68.5 13q-45 0 -79.5 -18.5t-57 -47.5t-34 -63.5t-11.5 -66.5v-212h-20v680h-204v20h429v-20h-205z" />
    <glyph glyph-name="uni040C" unicode="&#x40c;" horiz-adv-x="559" 
d="M113 373h33q18 0 38 2t39.5 11t39 26.5t37.5 49.5l84 146q25 43 52.5 67.5t74.5 24.5h46v-20h-46q-44 0 -68 -23.5t-49 -67.5l-84 -147q-16 -27 -35.5 -44t-41 -26.5t-44.5 -13t-46 -3.5l394 -355h-30l-394 355v-355h-20v700h20v-327zM179 750l-10 18l249 137l10 -18z
" />
    <glyph glyph-name="uni040E" unicode="&#x40e;" horiz-adv-x="527" 
d="M276 785q59 0 102 30t54 86h21q-6 -33 -21.5 -58t-39 -42t-53.5 -26t-63 -9t-63 9t-53.5 26t-39 42t-21.5 58h21q11 -56 54 -86t102 -30zM157 0h-23l144 273l-272 427h24l259 -406l213 406h22z" />
    <glyph glyph-name="uni040F" unicode="&#x40f;" horiz-adv-x="617" 
d="M299 -116v116h-206v700h20v-680h391v680h20v-700h-205v-116h-20z" />
    <glyph glyph-name="uni0410" unicode="&#x410;" horiz-adv-x="521" 
d="M490 0l-56 162h-348l-55 -162h-21l240 700h21l240 -700h-21zM260 676l-167 -494h334z" />
    <glyph glyph-name="uni0411" unicode="&#x411;" horiz-adv-x="568" 
d="M458 680h-345v-300h225q35 0 66.5 -14.5t55.5 -40t38 -60.5t14 -75q0 -39 -14 -74t-38.5 -60.5t-57.5 -40.5t-70 -15h-239v700h365v-20zM113 360v-340h219q33 0 62 13.5t51 36.5t34.5 54t12.5 66q0 34 -12 65t-33 54.5t-49 37t-60 13.5h-225z" />
    <glyph glyph-name="uni0412" unicode="&#x412;" horiz-adv-x="568" 
d="M93 700h239q37 0 69.5 -14t56.5 -38.5t37.5 -57.5t13.5 -70q0 -29 -9 -57t-26 -51.5t-41 -39.5t-54 -22q30 -6 54.5 -22.5t42 -39.5t27 -51t9.5 -57q0 -37 -14 -70t-38.5 -57.5t-57.5 -38.5t-70 -14h-239v700zM113 340v-320h219q33 0 62 12.5t51 34.5t34.5 51t12.5 62
q0 32 -12 61t-33 51t-49 35t-60 13h-225zM338 360q31 0 59 13t48 35t32 51t12 61q0 33 -12 62t-33.5 51t-50 34.5t-61.5 12.5h-219v-320h225z" />
    <glyph glyph-name="uni0413" unicode="&#x413;" horiz-adv-x="470" 
d="M93 700h359v-20h-339v-680h-20v700z" />
    <glyph glyph-name="uni0414" unicode="&#x414;" horiz-adv-x="671" 
d="M10 -116v136h14q49 0 88 19.5t62 66.5q7 16 12 33.5t8.5 39.5t5.5 49t2 62v410h351v-680h88v-136h-20v116h-591v-116h-20zM533 20v660h-311v-363q0 -129 -25 -202t-93 -95h429z" />
    <glyph glyph-name="uni0415" unicode="&#x415;" horiz-adv-x="540" 
d="M113 680v-322h339v-20h-339v-318h339v-20h-359v700h359v-20h-339z" />
    <glyph glyph-name="uni0416" unicode="&#x416;" horiz-adv-x="856" 
d="M41 0h-28l370 345q-29 0 -53 3.5t-44 13.5t-36.5 27.5t-29.5 45.5l-66 139q-11 23 -21 42.5t-22 33.5t-27.5 22t-36.5 8h-45v20h44q23 0 40.5 -8t31.5 -22t25.5 -33.5t22.5 -42.5l66 -142q14 -30 29.5 -47.5t33.5 -27.5t40 -13t48 -3h35v339h20v-339h35q26 0 48 3t40 13
t33.5 27.5t29.5 47.5l66 142q11 23 22.5 42.5t25.5 33.5t31.5 22t40.5 8h44v-20h-45q-21 0 -36.5 -8t-27.5 -22t-22 -33.5t-21 -42.5l-66 -139q-13 -28 -29.5 -45.5t-36.5 -27.5t-44 -13.5t-53 -3.5l370 -345h-28l-377 356v-356h-20v356z" />
    <glyph glyph-name="uni0417" unicode="&#x417;" horiz-adv-x="535" 
d="M60 182q0 -39 14 -71t40 -55.5t62.5 -36t81.5 -12.5q46 0 83 12.5t63.5 36t40.5 55.5t14 71q0 38 -13.5 69.5t-38.5 54t-60.5 35t-79.5 12.5h-59v20h58q42 0 76 12t57.5 33t36.5 50t13 64q0 36 -13 65.5t-37 51t-58.5 33t-77.5 11.5q-45 0 -82 -12t-63 -34t-40 -52.5
t-14 -67.5h-20q0 42 15.5 76t44 58.5t69 38t90.5 13.5q47 0 85 -13t65 -37t41.5 -57.5t14.5 -73.5q0 -32 -9.5 -60t-28.5 -50.5t-47 -37.5t-64 -20q77 -11 118 -61.5t41 -120.5q0 -44 -15.5 -79.5t-44.5 -61.5t-69.5 -40t-91.5 -14q-50 0 -90 14t-68.5 40t-44 61.5
t-15.5 79.5h20z" />
    <glyph glyph-name="uni0418" unicode="&#x418;" horiz-adv-x="659" 
d="M546 625l-433 -582v-43h-20v700h20v-624l433 581v43h20v-700h-20v625z" />
    <glyph glyph-name="uni0419" unicode="&#x419;" horiz-adv-x="659" 
d="M546 625l-433 -582v-43h-20v700h20v-624l433 581v43h20v-700h-20v625zM339 785q59 0 102 30t54 86h21q-6 -33 -21.5 -58t-39 -42t-53.5 -26t-63 -9t-63 9t-53.5 26t-39 42t-21.5 58h21q11 -56 54 -86t102 -30z" />
    <glyph glyph-name="uni041A" unicode="&#x41a;" horiz-adv-x="559" 
d="M113 373h33q18 0 38 2t39.5 11t39 26.5t37.5 49.5l84 146q25 43 52.5 67.5t74.5 24.5h46v-20h-46q-44 0 -68 -23.5t-49 -67.5l-84 -147q-16 -27 -35.5 -44t-41 -26.5t-44.5 -13t-46 -3.5l394 -355h-30l-394 355v-355h-20v700h20v-327z" />
    <glyph glyph-name="uni041B" unicode="&#x41b;" horiz-adv-x="701" 
d="M10 8h23q24 0 42.5 4.5t31.5 17.5t19.5 36.5t6.5 61.5v572h475v-700h-20v680h-435v-557q0 -43 -9.5 -69.5t-25.5 -41t-38 -19.5t-47 -5h-23v20z" />
    <glyph glyph-name="uni041C" unicode="&#x41c;" horiz-adv-x="807" 
d="M714 0h-20v653l-280 -653h-21l-280 653v-653h-20v700h21l289 -676l290 676h21v-700z" />
    <glyph glyph-name="uni041D" unicode="&#x41d;" horiz-adv-x="660" 
d="M547 338h-434v-338h-20v700h20v-342h434v342h20v-700h-20v338z" />
    <glyph glyph-name="uni041E" unicode="&#x41e;" horiz-adv-x="812" 
d="M406 -13q-84 0 -150 30.5t-112.5 80.5t-71 115.5t-24.5 136.5q0 70 24.5 136t71 116t112.5 80.5t150 30.5t150 -30.5t112.5 -80.5t71 -116t24.5 -136q0 -71 -24.5 -136.5t-71 -115.5t-112.5 -80.5t-150 -30.5zM406 7q79 0 142 28.5t106.5 76t66.5 109.5t23 129t-23 129
t-66.5 109.5t-106.5 76t-142 28.5t-142 -28.5t-106.5 -76t-66.5 -109.5t-23 -129t23 -129t66.5 -109.5t106.5 -76t142 -28.5z" />
    <glyph glyph-name="uni041F" unicode="&#x41f;" horiz-adv-x="672" 
d="M113 680v-680h-20v700h486v-700h-20v680h-446z" />
    <glyph glyph-name="uni0420" unicode="&#x420;" horiz-adv-x="595" 
d="M93 700h230q51 0 91.5 -17.5t69.5 -47.5t44.5 -69.5t15.5 -84.5q0 -44 -15.5 -83.5t-44.5 -69.5t-69.5 -47.5t-91.5 -17.5h-210v-263h-20v700zM323 283q46 0 83 16t63.5 43t40.5 63t14 76t-14 76.5t-40.5 63.5t-63.5 43t-83 16h-210v-397h210z" />
    <glyph glyph-name="uni0421" unicode="&#x421;" horiz-adv-x="774" 
d="M728 187q-17 -43 -47 -79.5t-70.5 -63.5t-91 -42t-107.5 -15q-85 0 -152.5 29.5t-114.5 79.5t-72 116t-25 139q0 70 24 135.5t69 116t110 80.5t147 30q70 0 125.5 -17.5t96.5 -48.5t68 -72.5t40 -90.5h-20q-13 45 -38.5 83t-64 66t-90 44t-117.5 16q-77 0 -138.5 -28.5
t-104 -76t-65 -109t-22.5 -128.5q0 -69 23.5 -131.5t68 -109.5t108 -75t144.5 -28q53 0 99.5 13.5t84 37.5t65.5 57t45 72h22z" />
    <glyph glyph-name="uni0422" unicode="&#x422;" horiz-adv-x="465" 
d="M222 680h-204v20h429v-20h-205v-680h-20v680z" />
    <glyph glyph-name="uni0423" unicode="&#x423;" horiz-adv-x="527" 
d="M157 0h-23l144 273l-272 427h24l259 -406l213 406h22z" />
    <glyph glyph-name="uni0424" unicode="&#x424;" horiz-adv-x="752" 
d="M386 107v-107h-20v107h-82q-54 0 -97.5 19.5t-74.5 52.5t-47.5 77t-16.5 94t16.5 94.5t47.5 77.5t74.5 52.5t97.5 19.5h82v106h20v-106h82q54 0 97.5 -19.5t74.5 -52.5t47.5 -77.5t16.5 -94.5t-16.5 -94t-47.5 -77t-74.5 -52.5t-97.5 -19.5h-82zM366 127v447h-82
q-50 0 -89.5 -17.5t-68 -48t-43.5 -71.5t-15 -87t15 -86.5t43.5 -71t68 -48t89.5 -17.5h82zM386 574v-447h82q49 0 89 17.5t68.5 48t43.5 71t15 86.5t-15 87t-43.5 71.5t-68.5 48t-89 17.5h-82z" />
    <glyph glyph-name="uni0425" unicode="&#x425;" horiz-adv-x="506" 
d="M469 700h23l-228 -350l228 -350h-23l-216 332l-216 -332h-23l227 350l-227 350h23l216 -333z" />
    <glyph glyph-name="uni0426" unicode="&#x426;" horiz-adv-x="642" 
d="M592 -116v116h-499v700h20v-680h391v680h20v-680h88v-136h-20z" />
    <glyph glyph-name="uni0427" unicode="&#x427;" horiz-adv-x="557" 
d="M444 0v258h-161q-64 0 -108 15t-71.5 43.5t-40 71t-12.5 96.5v216h20v-214q0 -47 10.5 -85.5t35 -65.5t65.5 -42t103 -15h159v422h20v-700h-20z" />
    <glyph glyph-name="uni0428" unicode="&#x428;" horiz-adv-x="922" 
d="M93 0v700h20v-680h338v680h20v-680h338v680h20v-700h-736z" />
    <glyph glyph-name="uni0429" unicode="&#x429;" horiz-adv-x="947" 
d="M897 -116v116h-804v700h20v-680h338v680h20v-680h338v680h20v-680h88v-136h-20z" />
    <glyph glyph-name="uni042A" unicode="&#x42a;" horiz-adv-x="636" 
d="M197 360v-340h219q33 0 62 13.5t51 36.5t34.5 54t12.5 66q0 34 -12 65t-33 54.5t-49 37t-60 13.5h-225zM18 700h179v-320h225q35 0 66.5 -14.5t55.5 -40t38 -60.5t14 -75q0 -39 -14 -74t-38.5 -60.5t-57.5 -40.5t-70 -15h-239v680h-159v20z" />
    <glyph glyph-name="uni042B" unicode="&#x42b;" horiz-adv-x="710" 
d="M113 700v-320h225q35 0 66.5 -14.5t55.5 -40t38 -60.5t14 -75q0 -39 -14 -74t-38.5 -60.5t-57.5 -40.5t-70 -15h-239v700h20zM113 360v-340h219q33 0 62 13.5t51 36.5t34.5 54t12.5 66q0 34 -12 65t-33 54.5t-49 37t-60 13.5h-225zM597 700h20v-700h-20v700z" />
    <glyph glyph-name="uni042C" unicode="&#x42c;" horiz-adv-x="552" 
d="M113 700v-320h225q35 0 66.5 -14.5t55.5 -40t38 -60.5t14 -75q0 -39 -14 -74t-38.5 -60.5t-57.5 -40.5t-70 -15h-239v700h20zM113 360v-340h219q33 0 62 13.5t51 36.5t34.5 54t12.5 66q0 34 -12 65t-33 54.5t-49 37t-60 13.5h-225z" />
    <glyph glyph-name="uni042D" unicode="&#x42d;" horiz-adv-x="774" 
d="M268 357h438q-1 66 -24 126.5t-66 107t-103.5 74.5t-136.5 28q-66 0 -117.5 -16t-90 -44t-64 -66t-38.5 -83h-20q13 49 40 90.5t68 72.5t96.5 48.5t125.5 17.5q82 0 147 -30t110 -80.5t69 -116t24 -135.5q0 -73 -25 -139t-72 -116t-114.5 -79.5t-152.5 -29.5
q-57 0 -107.5 15t-91 42t-70.5 63.5t-47 79.5h22q16 -39 44.5 -72t66 -57t84 -37.5t99.5 -13.5q78 0 140.5 26.5t107 71.5t69 105t27.5 127h-438v20z" />
    <glyph glyph-name="uni042E" unicode="&#x42e;" horiz-adv-x="1101" 
d="M695 -13q-82 0 -147 29t-111.5 77.5t-72 112t-27.5 132.5h-224v-338h-20v700h20v-342h224q1 69 26.5 133.5t71.5 113.5t111.5 78.5t148.5 29.5q84 0 150 -30.5t112.5 -80.5t71 -116t24.5 -136q0 -71 -24.5 -136.5t-71 -115.5t-112.5 -80.5t-150 -30.5zM695 7
q79 0 142 28.5t106.5 76t66.5 109.5t23 129t-23 129t-66.5 109.5t-106.5 76t-142 28.5t-142 -28.5t-106.5 -76t-66.5 -109.5t-23 -129t23 -129t66.5 -109.5t106.5 -76t142 -28.5z" />
    <glyph glyph-name="uni042F" unicode="&#x42f;" horiz-adv-x="595" 
d="M502 0h-20v263h-230l-171 -263h-25l174 266q-41 7 -74.5 26.5t-56.5 48t-35.5 64.5t-12.5 76q0 45 15.5 84.5t44.5 69.5t69.5 47.5t91.5 17.5h230v-700zM272 283h210v397h-210q-46 0 -83 -16t-63.5 -43t-40.5 -63.5t-14 -76.5t14 -76t40.5 -63t63.5 -43t83 -16z" />
    <glyph glyph-name="uni0430" unicode="&#x430;" horiz-adv-x="580" 
d="M487 419v-419h-20v125q-22 -59 -73.5 -96.5t-127.5 -37.5q-50 0 -90 17.5t-68.5 47.5t-44 69.5t-15.5 83.5q0 45 15.5 84.5t44 69.5t68.5 47.5t90 17.5q76 0 127.5 -37.5t73.5 -97.5v126h20zM266 11q46 0 83 16t63.5 43t40.5 63t14 76t-14 76.5t-40.5 63.5t-63.5 43
t-83 16q-45 0 -81.5 -16t-62.5 -43t-40 -63.5t-14 -76.5t14 -76t40 -63t62.5 -43t81.5 -16z" />
    <glyph glyph-name="uni0431" unicode="&#x431;" 
d="M76 251q7 43 26.5 76t48 55.5t64.5 34t77 11.5q51 0 91.5 -17.5t69 -47.5t44 -69.5t15.5 -84.5q0 -44 -16 -83.5t-45 -69.5t-70 -47.5t-92 -17.5q-77 0 -123.5 32.5t-71 81.5t-32 106.5t-7.5 108.5q0 84 20.5 153t62.5 120t102 79t140 28h78v-20h-87q-72 0 -124 -24.5
t-87 -64.5q-54 -63 -73.5 -148.5t-10.5 -191.5zM289 11q46 0 83.5 16t64 43t41 63t14.5 76t-14.5 76.5t-41 63.5t-64 43t-83.5 16t-83 -15t-63 -42t-40 -63.5t-14 -78.5q0 -36 13.5 -71.5t39 -63.5t63 -45.5t84.5 -17.5z" />
    <glyph glyph-name="uni0432" unicode="&#x432;" horiz-adv-x="473" 
d="M93 419h198q24 0 45 -8t36.5 -22.5t24 -34t8.5 -41.5q0 -33 -22.5 -62t-63.5 -37q20 -1 36.5 -11t28 -25t18 -33.5t6.5 -36.5q0 -23 -9 -42.5t-24.5 -34t-37 -23t-45.5 -8.5h-199v419zM113 205v-185h179q20 0 37.5 7t30.5 19t20.5 28t7.5 34q0 19 -7.5 36.5t-20.5 31
t-30 21.5t-36 8h-181zM294 225q19 0 35.5 7.5t29 19.5t19.5 28t7 33q0 18 -7 33.5t-20 27t-30 18.5t-37 7h-178v-174h181z" />
    <glyph glyph-name="uni0433" unicode="&#x433;" horiz-adv-x="348" 
d="M328 419v-20h-215v-399h-20v419h235z" />
    <glyph glyph-name="uni0434" unicode="&#x434;" horiz-adv-x="539" 
d="M15 -104v124h34q24 0 46.5 11t39.5 35t27 60.5t10 87.5v205h258v-399h74v-124h-20v104h-449v-104h-20zM410 20v379h-218v-163q0 -100 -23.5 -149.5t-67.5 -66.5h309z" />
    <glyph glyph-name="uni0435" unicode="&#x435;" horiz-adv-x="507" 
d="M73 215q0 -40 11.5 -77t35 -65t58.5 -45t83 -17q32 0 58.5 8.5t47.5 22.5t35 32.5t21 39.5h21q-7 -25 -22.5 -47t-38.5 -39t-54 -27t-68 -10q-53 0 -92 18t-64.5 48.5t-38.5 70t-13 82.5q0 47 13.5 87t40 69t64.5 45.5t87 16.5q40 0 75.5 -14.5t61.5 -39.5t41 -59t15 -74
v-11.5t-1 -14.5h-377zM257 409q-41 0 -73.5 -13t-55.5 -36t-37 -55t-17 -70h357q0 39 -14 71t-37.5 55t-55 35.5t-67.5 12.5z" />
    <glyph glyph-name="uni0436" unicode="&#x436;" horiz-adv-x="648" 
d="M70 0h-30l248 215q-27 0 -47 3t-34 10t-24 19t-19 31l-27 60q-12 27 -27 46t-37 19h-35v20h35q27 0 45.5 -20.5t32.5 -52.5l27 -59q8 -18 17 -29.5t20.5 -18.5t27.5 -9.5t39 -2.5h32v188h20v-188h32q23 0 39 2.5t27.5 9.5t20.5 18.5t17 29.5l27 59q14 32 32.5 52.5
t45.5 20.5h35v-20h-35q-22 0 -37 -19t-27 -46l-27 -60q-9 -19 -19 -31t-24.5 -19t-34 -10t-46.5 -3l248 -215h-30l-244 219v-219h-20v219z" />
    <glyph glyph-name="uni0437" unicode="&#x437;" horiz-adv-x="388" 
d="M61 107q0 -45 33.5 -71t91.5 -26q57 0 89.5 26t32.5 71q0 43 -31.5 69t-85.5 26h-36v20h36q51 0 81 27t30 68q0 42 -30 67t-81 25q-56 0 -88 -25t-32 -67h-21q0 49 39 80t102 31q59 0 95 -31t36 -80q0 -38 -24 -67.5t-69 -37.5q47 -4 73 -33.5t26 -71.5q0 -52 -39 -84
t-103 -32q-66 0 -106 32t-40 84h21z" />
    <glyph glyph-name="uni0438" unicode="&#x438;" horiz-adv-x="544" 
d="M431 362l-318 -333v-29h-20v419h20v-362l318 333v29h20v-419h-20v362z" />
    <glyph glyph-name="uni0439" unicode="&#x439;" horiz-adv-x="544" 
d="M431 362l-318 -333v-29h-20v419h20v-362l318 333v29h20v-419h-20v362zM274 583q55 0 95.5 30.5t51.5 86.5h20q-11 -66 -57.5 -100.5t-109.5 -34.5q-31 0 -59 9t-50 26t-37 42t-21 58h20q11 -56 51.5 -86.5t95.5 -30.5z" />
    <glyph glyph-name="uni043A" unicode="&#x43a;" horiz-adv-x="449" 
d="M113 220h25q24 0 46.5 9.5t46.5 47.5l54 86q17 26 33 43t45 17h37v-20h-30q-15 0 -25 -3.5t-17.5 -10.5t-13.5 -16.5t-14 -21.5l-55 -85q-21 -33 -43 -45.5t-58 -12.5l267 -208h-33l-265 209v-209h-20v419h20v-199z" />
    <glyph glyph-name="uni043B" unicode="&#x43b;" horiz-adv-x="532" 
d="M10 8h18q16 0 30 2.5t24 12.5t15.5 28.5t5.5 51.5v316h336v-419h-20v399h-296v-301q0 -38 -8 -59.5t-21.5 -33t-30.5 -14.5t-35 -3h-18v20z" />
    <glyph glyph-name="uni043C" unicode="&#x43c;" horiz-adv-x="651" 
d="M558 0h-20v402l-205 -402h-14l-206 402v-402h-20v419h34l199 -391l199 391h33v-419z" />
    <glyph glyph-name="uni043D" unicode="&#x43d;" horiz-adv-x="550" 
d="M437 198h-324v-198h-20v419h20v-201h324v201h20v-419h-20v198z" />
    <glyph glyph-name="uni043E" unicode="&#x43e;" horiz-adv-x="535" 
d="M266 -9q-50 0 -90 17.5t-68.5 47.5t-44 69.5t-15.5 83.5q0 45 15.5 84.5t44 69.5t68.5 47.5t90 17.5q51 0 91.5 -17.5t69.5 -47.5t44.5 -69.5t15.5 -84.5q0 -44 -15.5 -83.5t-44.5 -69.5t-69.5 -47.5t-91.5 -17.5zM266 11q46 0 83 16t63.5 43t40.5 63t14 76t-14 76.5
t-40.5 63.5t-63.5 43t-83 16q-45 0 -81.5 -16t-62.5 -43t-40 -63.5t-14 -76.5t14 -76t40 -63t62.5 -43t81.5 -16z" />
    <glyph glyph-name="uni043F" unicode="&#x43f;" horiz-adv-x="567" 
d="M474 0h-20v399h-341v-399h-20v419h381v-419z" />
    <glyph glyph-name="uni0440" unicode="&#x440;" horiz-adv-x="580" 
d="M113 294q22 59 73.5 96.5t127.5 37.5q49 0 89.5 -17.5t69 -47.5t44 -69.5t15.5 -83.5q0 -45 -15.5 -84.5t-44 -69.5t-69 -47.5t-89.5 -17.5q-76 0 -127.5 37.5t-73.5 97.5v-407h-20v700h20v-125zM314 408q-46 0 -83 -16t-63.5 -43t-40.5 -63t-14 -76q0 -41 14 -77
t40.5 -63t63.5 -43t83 -16q45 0 81.5 16t62.5 43t40 63t14 77q0 40 -14 76t-40 63t-62.5 43t-81.5 16z" />
    <glyph glyph-name="uni0441" unicode="&#x441;" horiz-adv-x="514" 
d="M435 266q-3 27 -14 52.5t-32 46t-52.5 32.5t-75.5 12q-46 0 -81 -16.5t-59 -44.5t-36 -63.5t-12 -74.5t12 -75t36 -63.5t59 -44t81 -16.5q41 0 71.5 10.5t52.5 28.5t34.5 42t17.5 52h21q-5 -32 -19 -60t-38 -48.5t-59 -32.5t-81 -12q-51 0 -90 18t-65 48.5t-39.5 70
t-13.5 82.5t13.5 82.5t40 70t65 48.5t89.5 18q49 0 84.5 -14t59 -37t35.5 -52t15 -60h-20z" />
    <glyph glyph-name="uni0442" unicode="&#x442;" horiz-adv-x="346" 
d="M326 419v-20h-143v-399h-20v399h-143v20h306z" />
    <glyph glyph-name="uni0443" unicode="&#x443;" horiz-adv-x="557" 
d="M279 -290q-54 0 -90.5 13.5t-58.5 40t-32.5 66t-11.5 92.5h20q1 -47 10.5 -83t29.5 -60t52.5 -36.5t80.5 -12.5q43 0 74.5 11t52.5 35.5t31.5 64.5t10.5 97v190q-8 -26 -23.5 -51t-38 -44t-52.5 -30.5t-67 -11.5q-48 0 -77 10t-55 34q-24 23 -34.5 59t-10.5 93v232h20
v-230q0 -42 7.5 -75.5t26 -56t49 -34.5t76.5 -12q45 0 79 18.5t56 47.5t33 63.5t11 66.5v212h20v-481q0 -63 -11.5 -106.5t-35 -70.5t-59 -39t-83.5 -12z" />
    <glyph glyph-name="uni0444" unicode="&#x444;" horiz-adv-x="566" 
d="M274 -9q-51 0 -93 17t-71.5 46t-45.5 68.5t-16 86.5q0 46 16 86t45.5 69.5t71 46.5t92.5 17v272h19v-272q51 0 93 -17t71.5 -46.5t45.5 -69.5t16 -86q0 -47 -16 -86.5t-45.5 -68.5t-71.5 -46t-93 -17v-272h-18v272zM498 209q0 42 -14.5 78.5t-41.5 63.5t-65 43t-85 16
v-401q47 0 85 15.5t65 42.5t41.5 63.5t14.5 78.5zM68 209q0 -42 14.5 -78.5t41.5 -63.5t65 -42.5t85 -15.5l-1 401q-47 0 -84.5 -16t-64.5 -43t-41.5 -63.5t-14.5 -78.5z" />
    <glyph glyph-name="uni0445" unicode="&#x445;" horiz-adv-x="421" 
d="M383 0h-24l-149 194l-148 -194h-24l160 209l-160 210h24l148 -194l149 194h24l-161 -210z" />
    <glyph glyph-name="uni0446" unicode="&#x446;" horiz-adv-x="563" 
d="M513 -104v104h-420v419h20v-399h326v399h20v-399h74v-124h-20z" />
    <glyph glyph-name="uni0447" unicode="&#x447;" horiz-adv-x="436" 
d="M323 0v153h-121q-73 0 -112 38.5t-39 111.5v116h20v-115q0 -63 33 -97t99 -34h120v246h20v-419h-20z" />
    <glyph glyph-name="uni0448" unicode="&#x448;" horiz-adv-x="795" 
d="M408 20h274v399h20v-419h-609v419h20v-399h275v399h20v-399z" />
    <glyph glyph-name="uni0449" unicode="&#x449;" horiz-adv-x="806" 
d="M756 -104v104h-663v419h20v-399h275v399h20v-399h274v399h20v-399h74v-124h-20z" />
    <glyph glyph-name="uni044A" unicode="&#x44a;" horiz-adv-x="446" 
d="M117 399h-97v20h117v-181h147q23 0 43.5 -9t35.5 -25t24 -38t9 -47t-9 -46.5t-24.5 -37.5t-37 -25.5t-45.5 -9.5h-163v399zM137 218v-198h143q20 0 37.5 8t30.5 21.5t20.5 31.5t7.5 38q0 19 -7 37t-19.5 32t-29.5 22t-36 8h-147z" />
    <glyph glyph-name="uni044B" unicode="&#x44b;" horiz-adv-x="550" 
d="M437 419h20v-419h-20v419zM93 419h20v-181h147q23 0 43.5 -9t35.5 -25t24 -38t9 -47t-9 -46.5t-24.5 -37.5t-37 -25.5t-45.5 -9.5h-163v419zM113 218v-198h143q20 0 37.5 8t30.5 21.5t20.5 31.5t7.5 38q0 19 -7 37t-19.5 32t-29.5 22t-36 8h-147z" />
    <glyph glyph-name="uni044C" unicode="&#x44c;" horiz-adv-x="422" 
d="M93 419h20v-181h147q23 0 43.5 -9t35.5 -25t24 -38t9 -47t-9 -46.5t-24.5 -37.5t-37 -25.5t-45.5 -9.5h-163v419zM113 218v-198h143q20 0 37.5 8t30.5 21.5t20.5 31.5t7.5 38q0 19 -7 37t-19.5 32t-29.5 22t-36 8h-147z" />
    <glyph glyph-name="uni044D" unicode="&#x44d;" horiz-adv-x="514" 
d="M59 266q3 31 15 60t35.5 52t58.5 37t85 14q51 0 89.5 -18t65 -48.5t40 -70t13.5 -82.5t-13.5 -82.5t-39.5 -70t-65 -48.5t-90 -18q-46 0 -81 12t-59 32.5t-38 48.5t-19 60h21q5 -28 17.5 -52t34.5 -42t52.5 -28.5t71.5 -10.5q44 0 78.5 15.5t58 41t36.5 59.5t15 72h-221
v20h221q-2 37 -14.5 71.5t-36.5 60.5t-58.5 42t-78.5 16t-75.5 -12t-52.5 -32.5t-32 -46t-14 -52.5h-20z" />
    <glyph glyph-name="uni044E" unicode="&#x44e;" horiz-adv-x="709" 
d="M440 11q46 0 83 16t63.5 43t40.5 63t14 76t-14 76.5t-40.5 63.5t-63.5 43t-83 16q-45 0 -81.5 -16t-62.5 -43t-40 -63.5t-14 -76.5t14 -76t40 -63t62.5 -43t81.5 -16zM113 198v-198h-20v419h20v-201h109q1 43 17.5 81.5t45 67t68 45t87.5 16.5q51 0 91.5 -17.5
t69.5 -47.5t44.5 -69.5t15.5 -84.5q0 -44 -15.5 -83.5t-44.5 -69.5t-69.5 -47.5t-91.5 -17.5q-48 0 -87.5 16.5t-68 44.5t-44.5 66t-18 80h-109z" />
    <glyph glyph-name="uni044F" unicode="&#x44f;" horiz-adv-x="460" 
d="M74 0h-25l118 159q-27 0 -50 11.5t-40 29.5t-27 41t-10 47q0 27 10 50.5t28.5 41.5t44 28.5t56.5 10.5h188v-419h-20v158h-157zM347 178v221h-168q-27 0 -49 -9t-37.5 -24.5t-24 -35.5t-8.5 -42t8.5 -42t24 -35t37.5 -24t49 -9h168z" />
    <glyph glyph-name="uni0451" unicode="&#x451;" horiz-adv-x="507" 
d="M362 648h20v-103h-20v103zM131 648h20v-103h-20v103zM73 215q0 -40 11.5 -77t35 -65t58.5 -45t83 -17q32 0 58.5 8.5t47.5 22.5t35 32.5t21 39.5h21q-7 -25 -22.5 -47t-38.5 -39t-54 -27t-68 -10q-53 0 -92 18t-64.5 48.5t-38.5 70t-13 82.5q0 47 13.5 87t40 69
t64.5 45.5t87 16.5q40 0 75.5 -14.5t61.5 -39.5t41 -59t15 -74v-11.5t-1 -14.5h-377zM258 408q-41 0 -73.5 -13t-56 -36t-37.5 -54.5t-17 -69.5h357q0 39 -13.5 70.5t-37 54.5t-55 35.5t-67.5 12.5z" />
    <glyph glyph-name="uni0452" unicode="&#x452;" horiz-adv-x="581" 
d="M140 539v-248q8 26 23.5 51t39 44t54 30.5t67.5 11.5q79 0 126 -48q23 -23 35.5 -57.5t12.5 -80.5v-403q0 -58 -26.5 -91.5t-71.5 -33.5q-21 0 -34 2.5t-29 10.5v23q14 -8 27 -12t36 -4q36 0 57 27.5t21 76.5v402q0 36 -9.5 66.5t-29 53t-49 35.5t-68.5 13
q-45 0 -79.5 -18.5t-57 -47.5t-34 -63.5t-11.5 -66.5v-212h-20v539h-100v20h100v141h20v-141h150v-20h-150z" />
    <glyph glyph-name="uni0453" unicode="&#x453;" horiz-adv-x="348" 
d="M88 525l-10 18l249 137l10 -18zM328 419v-20h-215v-399h-20v419h235z" />
    <glyph glyph-name="uni0454" unicode="&#x454;" horiz-adv-x="514" 
d="M435 266q-3 27 -14 52.5t-32 46t-52.5 32.5t-75.5 12q-45 0 -79 -16t-58 -42t-37 -60.5t-14 -71.5h221v-20h-221q1 -38 14 -72t37 -59.5t58 -41t79 -15.5q41 0 71.5 10.5t52.5 28.5t34.5 42t17.5 52h21q-5 -32 -19 -60t-38 -48.5t-59 -32.5t-81 -12q-51 0 -90 18
t-65 48.5t-39.5 70t-13.5 82.5t13.5 82.5t40 70t65 48.5t89.5 18q49 0 84.5 -14t59 -37t35.5 -52t15 -60h-20z" />
    <glyph glyph-name="uni0455" unicode="&#x455;" horiz-adv-x="446" 
d="M225 221q31 -5 60 -10.5t52 -17t37 -32t14 -53.5q0 -54 -39 -85.5t-117 -31.5q-37 0 -70 8t-57.5 26t-38.5 46.5t-14 70.5h20q0 -36 12.5 -61t34.5 -40.5t50.5 -22.5t61.5 -7q69 0 103 26t34 70q0 27 -12.5 44t-33.5 26.5t-47.5 14.5t-53.5 9q-30 4 -58 9.5t-50 17
t-35 31.5t-13 52q0 57 41 87t110 30q72 0 118.5 -34t46.5 -103h-20q0 30 -11 52t-30 36.5t-45 21.5t-57 7q-60 0 -96.5 -25.5t-36.5 -72.5q0 -24 10 -39.5t28.5 -25t44.5 -15t57 -9.5z" />
    <glyph glyph-name="uni0456" unicode="&#x456;" horiz-adv-x="206" 
d="M93 419h20v-419h-20v419zM93 648h20v-103h-20v103z" />
    <glyph glyph-name="uni0457" unicode="&#x457;" horiz-adv-x="206" 
d="M154 648h20v-103h-20v103zM32 648h20v-103h-20v103zM93 419h20v-419h-20v419z" />
    <glyph glyph-name="uni0458" unicode="&#x458;" horiz-adv-x="206" 
d="M93 648h20v-103h-20v103zM113 -161q0 -58 -26.5 -91.5t-71.5 -33.5q-21 0 -34 2.5t-29 10.5v23q14 -8 27 -12t36 -4q36 0 57 28t21 77v580h20v-580z" />
    <glyph glyph-name="uni0459" unicode="&#x459;" horiz-adv-x="786" 
d="M43 8h28q31 0 48 12.5t17 57.5v341h341v-181h147q23 0 43.5 -9t35.5 -25t24 -38t9 -47t-9 -46.5t-24.5 -37.5t-37 -25.5t-45.5 -9.5h-163v399h-301v-326q0 -27 -7 -44t-19 -26t-27.5 -12t-31.5 -3h-28v20zM620 20q20 0 37.5 8t30.5 21.5t20.5 31.5t7.5 38q0 19 -7 37
t-19.5 32t-29.5 22t-36 8h-147v-198h143z" />
    <glyph glyph-name="uni045A" unicode="&#x45a;" horiz-adv-x="756" 
d="M594 238q23 0 43.5 -9t35.5 -25t24 -38t9 -47t-9 -46.5t-24.5 -37.5t-37 -25.5t-45.5 -9.5h-163v218h-314v-218h-20v419h20v-181h314v181h20v-181h147zM447 218v-198h143q20 0 37.5 8t30.5 21.5t20.5 31.5t7.5 38q0 19 -7 37t-19.5 32t-29.5 22t-36 8h-147z" />
    <glyph glyph-name="uni045B" unicode="&#x45b;" horiz-adv-x="581" 
d="M120 539h-100v20h100v141h20v-141h150v-20h-150v-248q8 26 23.5 51t39 44t54 30.5t67.5 11.5q79 0 126 -48q23 -23 35.5 -57.5t12.5 -80.5v-242h-20v240q0 36 -9.5 66.5t-29 53t-49 35.5t-68.5 13q-45 0 -79.5 -18.5t-57 -47.5t-34 -63.5t-11.5 -66.5v-212h-20v539z" />
    <glyph glyph-name="uni045C" unicode="&#x45c;" horiz-adv-x="449" 
d="M113 220h25q24 0 46.5 9.5t46.5 47.5l54 86q17 26 33 43t45 17h37v-20h-30q-15 0 -25 -3.5t-17.5 -10.5t-13.5 -16.5t-14 -21.5l-55 -85q-21 -33 -43 -45.5t-58 -12.5l267 -208h-33l-265 209v-209h-20v419h20v-199zM112 525l-10 18l249 137l10 -18z" />
    <glyph glyph-name="uni045E" unicode="&#x45e;" horiz-adv-x="557" 
d="M278 583q55 0 95.5 30.5t51.5 86.5h20q-11 -66 -57.5 -100.5t-109.5 -34.5q-31 0 -59 9t-50 26t-37 42t-21 58h20q11 -56 51.5 -86.5t95.5 -30.5zM279 -290q-54 0 -90.5 13.5t-58.5 40t-32.5 66t-11.5 92.5h20q1 -47 10.5 -83t29.5 -60t52.5 -36.5t80.5 -12.5
q43 0 74.5 11t52.5 35.5t31.5 64.5t10.5 97v190q-8 -26 -23.5 -51t-38 -44t-52.5 -30.5t-67 -11.5q-48 0 -77 10t-55 34q-24 23 -34.5 59t-10.5 93v232h20v-230q0 -42 7.5 -75.5t26 -56t49 -34.5t76.5 -12q45 0 79 18.5t56 47.5t33 63.5t11 66.5v212h20v-481
q0 -63 -11.5 -106.5t-35 -70.5t-59 -39t-83.5 -12z" />
    <glyph glyph-name="uni045F" unicode="&#x45f;" horiz-adv-x="564" 
d="M272 -104v104h-179v419h20v-399h338v399h20v-419h-179v-104h-20z" />
    <glyph glyph-name="uni0462" unicode="&#x462;" horiz-adv-x="636" 
d="M197 360v-340h219q33 0 62 13.5t51 36.5t34.5 54t12.5 66q0 34 -12 65t-33 54.5t-49 37t-60 13.5h-225zM402 700v-20h-205v-300h225q35 0 66.5 -14.5t55.5 -40t38 -60.5t14 -75q0 -39 -14 -74t-38.5 -60.5t-57.5 -40.5t-70 -15h-239v680h-159v20h384z" />
    <glyph glyph-name="uni0463" unicode="&#x463;" horiz-adv-x="449" 
d="M120 539h-100v20h100v141h20v-141h150v-20h-150v-301h147q23 0 43.5 -9t35.5 -25t24 -38t9 -47t-9 -46.5t-24.5 -37.5t-37 -25.5t-45.5 -9.5h-163v539zM140 218v-198h143q20 0 37.5 8t30.5 21.5t20.5 31.5t7.5 38q0 19 -7 37t-19.5 32t-29.5 22t-36 8h-147z" />
    <glyph glyph-name="uni0472" unicode="&#x472;" horiz-adv-x="812" 
d="M406 -13q-84 0 -150 30.5t-112.5 80.5t-71 115.5t-24.5 136.5q0 70 24.5 136t71 116t112.5 80.5t150 30.5t150 -30.5t112.5 -80.5t71 -116t24.5 -136q0 -71 -24.5 -136.5t-71 -115.5t-112.5 -80.5t-150 -30.5zM406 693q-78 0 -140 -27.5t-105.5 -73.5t-67.5 -106.5
t-25 -125.5h676q-2 65 -26 125.5t-67.5 106.5t-105 73.5t-139.5 27.5zM406 7q78 0 139.5 27.5t105 73.5t67.5 106.5t26 125.5h-676q1 -65 25 -125.5t67.5 -106.5t105.5 -73.5t140 -27.5z" />
    <glyph glyph-name="uni0473" unicode="&#x473;" horiz-adv-x="535" 
d="M266 -9q-50 0 -90 17.5t-68.5 47.5t-44 69.5t-15.5 83.5q0 45 15.5 84.5t44 69.5t68.5 47.5t90 17.5q51 0 91.5 -17.5t69.5 -47.5t44.5 -69.5t15.5 -84.5q0 -44 -15.5 -83.5t-44.5 -69.5t-69.5 -47.5t-91.5 -17.5zM266 408q-44 0 -80 -15t-61.5 -41t-40.5 -60.5
t-16 -73.5h399q-2 39 -16.5 73.5t-41 60.5t-62.5 41t-81 15zM266 11q45 0 81 15t62 40.5t41 59.5t17 73h-399q1 -39 16 -73t40.5 -59.5t61.5 -40.5t80 -15z" />
    <glyph glyph-name="uni0474" unicode="&#x474;" horiz-adv-x="644" 
d="M283 0h-21l-254 700h21l243 -674l204 566q22 61 52 86t81 25h17v-18h-22q-35 0 -60.5 -18t-43.5 -68z" />
    <glyph glyph-name="uni0475" unicode="&#x475;" horiz-adv-x="521" 
d="M232 0h-20l-198 419h22l186 -393l135 284q14 29 27 50.5t28 35.5t34 20.5t44 6.5h17v-19h-13q-39 0 -63 -18.5t-46 -64.5z" />
    <glyph glyph-name="uni048A" unicode="&#x48a;" horiz-adv-x="684" 
d="M339 785q59 0 102 30t54 86h21q-6 -33 -21.5 -58t-39 -42t-53.5 -26t-63 -9t-63 9t-53.5 26t-39 42t-21.5 58h21q11 -56 54 -86t102 -30zM546 0v625l-433 -582v-43h-20v700h20v-624l433 581v43h20v-680h88v-136h-20v116h-88z" />
    <glyph glyph-name="uni048B" unicode="&#x48b;" horiz-adv-x="555" 
d="M274 583q55 0 95.5 30.5t51.5 86.5h20q-11 -66 -57.5 -100.5t-109.5 -34.5q-31 0 -59 9t-50 26t-37 42t-21 58h20q11 -56 51.5 -86.5t95.5 -30.5zM431 0v362l-318 -333v-29h-20v419h20v-362l318 333v29h20v-399h74v-124h-20v104h-74z" />
    <glyph glyph-name="uni048C" unicode="&#x48c;" horiz-adv-x="579" 
d="M140 700v-141h150v-20h-150v-159h225q35 0 66.5 -14.5t55.5 -40t38 -60.5t14 -75q0 -39 -14 -74t-38.5 -60.5t-57.5 -40.5t-70 -15h-239v539h-100v20h100v141h20zM140 360v-340h219q33 0 62 13.5t51 36.5t34.5 54t12.5 66q0 34 -12 65t-33 54.5t-49 37t-60 13.5h-225z
" />
    <glyph glyph-name="uni048D" unicode="&#x48d;" horiz-adv-x="449" 
d="M120 327h-100v20h100v72h20v-72h150v-20h-150v-89h147q23 0 43.5 -9t35.5 -25t24 -38t9 -47t-9 -46.5t-24.5 -37.5t-37 -25.5t-45.5 -9.5h-163v327zM140 218v-198h143q20 0 37.5 8t30.5 21.5t20.5 31.5t7.5 38q0 19 -7 37t-19.5 32t-29.5 22t-36 8h-147z" />
    <glyph glyph-name="uni048E" unicode="&#x48e;" horiz-adv-x="595" 
d="M93 700h230q51 0 91.5 -17.5t69.5 -47.5t44.5 -69.5t15.5 -84.5q0 -69 -36 -123.5t-99 -79.5l89 -88l-15 -15l-96 96q-15 -5 -31 -6.5t-33 -1.5h-210v-263h-20v700zM273 414l120 -120q31 10 55 28.5t41 43t26 54t9 61.5q0 40 -14 76.5t-40.5 63.5t-63.5 43t-83 16h-210
v-397h210q22 0 47 5l-111 112z" />
    <glyph glyph-name="uni048F" unicode="&#x48f;" horiz-adv-x="587" 
d="M113 294q22 59 73.5 96.5t127.5 37.5q49 0 89.5 -17.5t69 -47.5t44 -69.5t15.5 -83.5q0 -46 -16.5 -86.5t-46.5 -70.5l70 -69l-15 -15l-70 70q-27 -23 -62.5 -35.5t-77.5 -12.5q-76 0 -127.5 37.5t-73.5 97.5v-407h-20v700h20v-125zM365 157l90 -90q27 28 42 64.5
t15 78.5q0 40 -14 76t-40 63t-62.5 43t-81.5 16q-46 0 -83 -16t-63.5 -43t-40.5 -63t-14 -76q0 -41 14 -77t40.5 -63t63.5 -43t83 -16q38 0 69.5 11t56.5 31l-89 90z" />
    <glyph glyph-name="uni0490" unicode="&#x490;" horiz-adv-x="470" 
d="M93 700h339v91h20v-111h-339v-680h-20v700z" />
    <glyph glyph-name="uni0491" unicode="&#x491;" horiz-adv-x="348" 
d="M308 419v92h20v-112h-215v-399h-20v419h215z" />
    <glyph glyph-name="uni0492" unicode="&#x492;" horiz-adv-x="497" 
d="M140 419h150v-20h-150v-399h-20v399h-100v20h100v281h359v-20h-339v-261z" />
    <glyph glyph-name="uni0493" unicode="&#x493;" horiz-adv-x="351" 
d="M116 246h122v-20h-122v-226h-20v226h-76v20h76v173h235v-20h-215v-153z" />
    <glyph glyph-name="uni0494" unicode="&#x494;" horiz-adv-x="554" 
d="M113 680v-389q8 26 23.5 51t39 44t54 30.5t67.5 11.5q79 0 126 -48q23 -23 35.5 -57.5t12.5 -80.5v-403q0 -58 -26.5 -91.5t-71.5 -33.5q-21 0 -34 2.5t-29 10.5v23q14 -8 27 -12t36 -4q36 0 57 27.5t21 76.5v402q0 36 -9.5 66.5t-29 53t-49 35.5t-68.5 13
q-45 0 -79.5 -18.5t-57 -47.5t-34 -63.5t-11.5 -66.5v-212h-20v700h242v-20h-222z" />
    <glyph glyph-name="uni0495" unicode="&#x495;" horiz-adv-x="461" 
d="M113 419v-242q5 21 17 42t30.5 37.5t43 27t53.5 10.5q62 0 101 -43q20 -24 31.5 -59.5t11.5 -83.5v-269q0 -58 -26.5 -91.5t-71.5 -33.5q-21 0 -34 2.5t-29 10.5v23q14 -8 27 -12t36 -4q36 0 57 27.5t21 76.5v268q0 36 -7.5 66.5t-23 53t-39 35.5t-56.5 13q-36 0 -63 -16
t-44.5 -41t-26 -55.5t-8.5 -58.5v-103h-20v419h20z" />
    <glyph glyph-name="uni0496" unicode="&#x496;" horiz-adv-x="864" 
d="M823 -116v116h-8l-377 356v-356h-20v356l-377 -356h-28l370 345q-29 0 -53 3.5t-44 13.5t-36.5 27.5t-29.5 45.5l-66 139q-11 23 -21 42.5t-22 33.5t-27.5 22t-36.5 8h-45v20h44q23 0 40.5 -8t31.5 -22t25.5 -33.5t22.5 -42.5l66 -142q14 -30 29.5 -47.5t33.5 -27.5
t40 -13t48 -3h35v339h20v-339h35q26 0 48 3t40 13t33.5 27.5t29.5 47.5l66 142q11 23 22.5 42.5t25.5 33.5t31.5 22t40.5 8h44v-20h-45q-21 0 -36.5 -8t-27.5 -22t-22 -33.5t-21 -42.5l-66 -139q-13 -28 -29.5 -45.5t-36.5 -27.5t-44 -13.5t-53 -3.5l370 -345v-116h-20z" />
    <glyph glyph-name="uni0497" unicode="&#x497;" horiz-adv-x="648" 
d="M70 0h-30l248 215q-27 0 -47 3t-34 10t-24 19t-19 31l-27 60q-12 27 -27 46t-37 19h-35v20h35q27 0 45.5 -20.5t32.5 -52.5l27 -59q8 -18 17 -29.5t20.5 -18.5t27.5 -9.5t39 -2.5h32v188h20v-188h32q23 0 39 2.5t27.5 9.5t20.5 18.5t17 29.5l27 59q14 32 32.5 52.5
t45.5 20.5h35v-20h-35q-22 0 -37 -19t-27 -46l-27 -60q-9 -19 -19 -31t-24.5 -19t-34 -10t-46.5 -3l248 -215v-104h-18v104h-12l-244 219v-219h-20v219z" />
    <glyph glyph-name="uni0498" unicode="&#x498;" horiz-adv-x="535" 
d="M60 182q0 -39 14 -71t40 -55.5t62.5 -36t81.5 -12.5q46 0 83 12.5t63.5 36t40.5 55.5t14 71q0 38 -13.5 69.5t-38.5 54t-60.5 35t-79.5 12.5h-59v20h58q42 0 76 12t57.5 33t36.5 50t13 64q0 36 -13 65.5t-37 51t-58.5 33t-77.5 11.5q-45 0 -82 -12t-63 -34t-40 -52.5
t-14 -67.5h-20q0 42 15.5 76t44 58.5t69 38t90.5 13.5q47 0 85 -13t65 -37t41.5 -57.5t14.5 -73.5q0 -32 -9.5 -60t-28.5 -50.5t-47 -37.5t-64 -20q77 -11 118 -61.5t41 -120.5q0 -44 -15.5 -79.5t-44.5 -61.5t-69.5 -40t-91.5 -14q-8 0 -15.5 0.5t-15.5 1.5v-75
q8 15 26 24.5t40 9.5q40 0 62.5 -24.5t22.5 -58.5q0 -35 -24 -59.5t-66 -24.5q-35 0 -58.5 21.5t-27.5 50.5h21q3 -22 20 -37.5t45 -15.5q33 0 51.5 19.5t18.5 45.5t-17 44.5t-48 18.5q-18 0 -36 -7.5t-30 -33.5h-20v104q-78 14 -122.5 64.5t-44.5 126.5h20z" />
    <glyph glyph-name="uni0499" unicode="&#x499;" horiz-adv-x="388" 
d="M61 107q0 -45 33.5 -71t91.5 -26q57 0 89.5 26t32.5 71q0 43 -31.5 69t-85.5 26h-36v20h36q51 0 81 27t30 68q0 42 -30 67t-81 25q-56 0 -88 -25t-32 -67h-21q0 49 39 80t102 31q59 0 95 -31t36 -80q0 -38 -24 -67.5t-69 -37.5q47 -4 73 -33.5t26 -71.5q0 -52 -39 -84
t-103 -32q-29 0 -51 6v-83q8 15 26 24.5t40 9.5q40 0 62.5 -24.5t22.5 -58.5q0 -35 -24 -59.5t-66 -24.5q-35 0 -58.5 21.5t-27.5 50.5h21q3 -22 20 -37.5t45 -15.5q33 0 51.5 19.5t18.5 45.5t-17 44.5t-48 18.5q-18 0 -36 -7.5t-30 -33.5h-20v116q-35 14 -55 41t-20 63h21z
" />
    <glyph glyph-name="uni049A" unicode="&#x49a;" horiz-adv-x="567" 
d="M519 -116v116h-12l-394 355v-355h-20v700h20v-327h33q18 0 38 2t39.5 11t39 26.5t37.5 49.5l84 146q25 43 52.5 67.5t74.5 24.5h46v-20h-46q-44 0 -68 -23.5t-49 -67.5l-84 -147q-16 -27 -35.5 -44t-41 -26.5t-44.5 -13t-46 -3.5l394 -355v-116h-18z" />
    <glyph glyph-name="uni049B" unicode="&#x49b;" horiz-adv-x="449" 
d="M391 -104v104h-13l-265 209v-209h-20v419h20v-199h25q24 0 46.5 9.5t46.5 47.5l54 86q17 26 33 43t45 17h37v-20h-30q-15 0 -25 -3.5t-17.5 -10.5t-13.5 -16.5t-14 -21.5l-55 -85q-21 -33 -43 -45.5t-58 -12.5l267 -208v-104h-20z" />
    <glyph glyph-name="uni049C" unicode="&#x49c;" horiz-adv-x="559" 
d="M171 373q25 0 42 3.5t32 16t32 37.5t41 68l63 110q25 43 52.5 67.5t74.5 24.5h49v-20h-46q-44 0 -68 -23.5t-49 -67.5l-66 -116q-35 -61 -63.5 -88.5t-63.5 -27.5l336 -357h-30l-336 355v-161h-20v161h-38v-355h-20v700h20v-327h38v180h20v-180z" />
    <glyph glyph-name="uni049D" unicode="&#x49d;" horiz-adv-x="449" 
d="M159 220h7q15 0 26.5 2t21 8t18 17.5t17.5 29.5l44 86q14 27 31.5 43.5t46.5 16.5h29v-20h-20q-15 0 -25.5 -3.5t-18 -10t-13.5 -16t-13 -22.5l-45 -85q-16 -30 -34.5 -43.5t-41.5 -13.5l222 -209h-33l-219 209v-99h-20v99h-26v-209h-20v419h20v-199h26v105h20v-105z" />
    <glyph glyph-name="uni049E" unicode="&#x49e;" horiz-adv-x="586" 
d="M120 700h20v-129h114v-20h-114v-178h33q18 0 38 2t39.5 11t39 26.5t37.5 49.5l84 146q25 43 52.5 67.5t74.5 24.5h46v-20h-46q-44 0 -68 -23.5t-49 -67.5l-84 -147q-16 -27 -35.5 -44t-41 -26.5t-44.5 -13t-46 -3.5l394 -355h-30l-394 355v-355h-20v551h-100v20h100v129z
" />
    <glyph glyph-name="uni049F" unicode="&#x49f;" horiz-adv-x="442" 
d="M86 419h20v-72h72v-20h-72v-107h25q24 0 46.5 9.5t46.5 47.5l54 86q17 26 33 43t45 17h37v-20h-30q-15 0 -25 -3.5t-17.5 -10.5t-13.5 -16.5t-14 -21.5l-55 -85q-21 -33 -43 -45.5t-58 -12.5l267 -208h-33l-265 209v-209h-20v327h-66v20h66v72z" />
    <glyph glyph-name="uni04A0" unicode="&#x4a0;" horiz-adv-x="645" 
d="M20 680v20h179v-327h33q18 0 38 2t39.5 11t39 26.5t37.5 49.5l84 146q25 43 52.5 67.5t74.5 24.5h46v-20h-46q-44 0 -68 -23.5t-49 -67.5l-84 -147q-16 -27 -35.5 -44t-41 -26.5t-44.5 -13t-46 -3.5l394 -355h-30l-394 355v-355h-20v680h-159z" />
    <glyph glyph-name="uni04A1" unicode="&#x4a1;" horiz-adv-x="473" 
d="M20 399v20h117v-199h25q24 0 46.5 9.5t46.5 47.5l54 86q17 26 33 43t45 17h37v-20h-30q-15 0 -25 -3.5t-17.5 -10.5t-13.5 -16.5t-14 -21.5l-55 -85q-21 -33 -43 -45.5t-58 -12.5l267 -208h-33l-265 209v-209h-20v399h-97z" />
    <glyph glyph-name="uni04A2" unicode="&#x4a2;" horiz-adv-x="660" 
d="M547 0v338h-434v-338h-20v700h20v-342h434v342h20v-680h20v-136h-20v116h-20z" />
    <glyph glyph-name="uni04A3" unicode="&#x4a3;" horiz-adv-x="550" 
d="M437 198h-324v-198h-20v419h20v-201h324v201h20v-399h20v-124h-20v104h-20v198z" />
    <glyph glyph-name="uni04A4" unicode="&#x4a4;" horiz-adv-x="746" 
d="M567 0h-20v338h-434v-338h-20v700h20v-342h434v342h179v-20h-159v-680z" />
    <glyph glyph-name="uni04A5" unicode="&#x4a5;" horiz-adv-x="574" 
d="M554 419v-20h-97v-399h-20v198h-324v-198h-20v419h20v-201h324v201h117z" />
    <glyph glyph-name="uni04A6" unicode="&#x4a6;" horiz-adv-x="672" 
d="M113 680v-680h-20v700h486v-680h20v-136h-20v116h-20v680h-446z" />
    <glyph glyph-name="uni04A7" unicode="&#x4a7;" horiz-adv-x="567" 
d="M474 20h20v-124h-20v104h-20v399h-341v-399h-20v419h381v-399z" />
    <glyph glyph-name="uni04A8" unicode="&#x4a8;" horiz-adv-x="834" 
d="M406 693q-79 0 -142 -28.5t-106.5 -76t-66.5 -109.5t-23 -129t23 -129t66.5 -109.5t106.5 -76t142 -28.5h23.5t22.5 2v506q0 91 42 144.5t114 53.5t114 -53.5t42 -143.5v-166q0 -63 -20 -122.5t-57.5 -108t-91.5 -82t-123 -44.5v-154q0 -49 21 -77t57 -28q23 0 36 4
t27 12v-23q-16 -8 -29 -10.5t-34 -2.5q-45 0 -71.5 33.5t-26.5 91.5v151q-11 -1 -22.5 -2t-23.5 -1q-84 0 -150 30.5t-112.5 80.5t-71 115.5t-24.5 136.5q0 70 24.5 136t71 116t112.5 80.5t150 30.5v-20zM744 350v166q0 45 -11 78.5t-30 55t-43.5 32.5t-51.5 11t-51.5 -11
t-43.5 -33t-30 -55.5t-11 -78.5v-502q64 11 114.5 43t85.5 77.5t53.5 101t18.5 115.5z" />
    <glyph glyph-name="uni04A9" unicode="&#x4a9;" horiz-adv-x="547" 
d="M266 408q-45 0 -81.5 -16t-62.5 -43t-40 -63.5t-14 -76.5t14 -76t40 -63t62.5 -43t81.5 -16h15.5t15.5 2v292q0 57 22.5 90t72.5 33t72.5 -32.5t22.5 -89.5v-97q0 -39 -12 -74t-34 -63.5t-53.5 -48t-70.5 -27.5v-157q0 -49 21 -77t57 -28q23 0 36 4t27 12v-23
q-16 -8 -29 -10.5t-34 -2.5q-45 0 -71.5 33.5t-26.5 91.5v154q-8 -1 -15.5 -1.5t-15.5 -0.5q-50 0 -90 17.5t-68.5 47.5t-44 69.5t-15.5 83.5q0 45 15.5 84.5t44 69.5t68.5 47.5t90 17.5v-20zM467 209v97q0 53 -19 77.5t-56 24.5t-56 -24.5t-19 -78.5v-289q35 8 62.5 26.5
t47 44t30 56.5t10.5 66z" />
    <glyph glyph-name="uni04AA" unicode="&#x4aa;" horiz-adv-x="774" 
d="M708 484q-13 45 -38.5 83t-64 66t-90 44t-117.5 16q-77 0 -138.5 -28.5t-104 -76t-65 -109t-22.5 -128.5q0 -69 23.5 -131.5t68 -109.5t108 -75t144.5 -28q53 0 99.5 13.5t84 37.5t65.5 57t45 72h22q-17 -43 -47 -79.5t-70.5 -63.5t-91 -42t-107.5 -15q-8 0 -15.5 0.5
t-15.5 0.5v-74q8 15 26 24.5t40 9.5q40 0 62.5 -24.5t22.5 -58.5q0 -35 -24 -59.5t-66 -24.5q-35 0 -58.5 21.5t-27.5 50.5h21q3 -22 20 -37.5t45 -15.5q33 0 51.5 19.5t18.5 45.5t-17 44.5t-48 18.5q-18 0 -36 -7.5t-30 -33.5h-20v103q-74 9 -132 41t-98.5 80.5t-61.5 110
t-21 129.5q0 70 24 135.5t69 116t110 80.5t147 30q70 0 125.5 -17.5t96.5 -48.5t68 -72.5t40 -90.5h-20z" />
    <glyph glyph-name="uni04AB" unicode="&#x4ab;" horiz-adv-x="514" 
d="M215 -5q-40 8 -70 28.5t-50.5 49t-31 64t-10.5 73.5q0 43 13.5 82.5t40 70t65 48.5t89.5 18q49 0 84.5 -14t59 -37t35.5 -52t15 -60h-20q-3 27 -14 52.5t-32 46t-52.5 32.5t-75.5 12q-46 0 -81 -16.5t-59 -44.5t-36 -63.5t-12 -74.5t12 -75t36 -63.5t59 -44t81 -16.5
q41 0 71.5 10.5t52.5 28.5t34.5 42t17.5 52h21q-5 -32 -19 -60t-38 -48.5t-59 -32.5t-81 -12h-13.5t-12.5 1v-78q8 15 26 24.5t40 9.5q40 0 62.5 -24.5t22.5 -58.5q0 -35 -24 -59.5t-66 -24.5q-35 0 -58.5 21.5t-27.5 50.5h21q3 -22 20 -37.5t45 -15.5q33 0 51.5 19.5
t18.5 45.5t-17 44.5t-48 18.5q-18 0 -36 -7.5t-30 -33.5h-20v108z" />
    <glyph glyph-name="uni04AC" unicode="&#x4ac;" horiz-adv-x="465" 
d="M222 680h-204v20h429v-20h-205v-660h20v-136h-20v116h-20v680z" />
    <glyph glyph-name="uni04AD" unicode="&#x4ad;" horiz-adv-x="346" 
d="M326 419v-20h-143v-379h20v-124h-20v104h-20v399h-143v20h306z" />
    <glyph glyph-name="uni04AE" unicode="&#x4ae;" horiz-adv-x="522" 
d="M261 295l229 405h24l-242 -427v-273h-22v273l-242 427h24z" />
    <glyph glyph-name="uni04AF" unicode="&#x4af;" horiz-adv-x="462" 
d="M231 14l193 405h24l-206 -427v-273h-22v273l-206 427h24z" />
    <glyph glyph-name="uni04B0" unicode="&#x4b0;" horiz-adv-x="522" 
d="M272 186v-186h-22v186h-133v19h133v68l-242 427h24l229 -405l229 405h24l-242 -427v-68h133v-19h-133z" />
    <glyph glyph-name="uni04B1" unicode="&#x4b1;" horiz-adv-x="462" 
d="M231 14l193 405h24l-206 -427v-68h133v-19h-133v-186h-22v186h-133v19h133v68l-206 427h24z" />
    <glyph glyph-name="uni04B2" unicode="&#x4b2;" horiz-adv-x="506" 
d="M474 -116v116h-5l-216 332l-216 -332h-23l227 350l-227 350h23l216 -333l216 333h23l-228 -350l228 -350v-116h-18z" />
    <glyph glyph-name="uni04B3" unicode="&#x4b3;" horiz-adv-x="421" 
d="M365 -104v104h-6l-149 194l-148 -194h-24l160 209l-160 210h24l148 -194l149 194h24l-161 -210l161 -209v-104h-18z" />
    <glyph glyph-name="uni04B4" unicode="&#x4b4;" horiz-adv-x="773" 
d="M244 20h391v680h20v-680h88v-136h-20v116h-499v680h-204v20h429v-20h-205v-660z" />
    <glyph glyph-name="uni04B5" unicode="&#x4b5;" horiz-adv-x="633" 
d="M183 20h326v399h20v-399h74v-124h-20v104h-420v399h-143v20h306v-20h-143v-379z" />
    <glyph glyph-name="uni04B6" unicode="&#x4b6;" horiz-adv-x="537" 
d="M424 0v258h-161q-64 0 -108 15t-71.5 43.5t-40 71t-12.5 96.5v216h20v-214q0 -47 10.5 -85.5t35 -65.5t65.5 -42t103 -15h159v422h20v-680h20v-136h-20v116h-20z" />
    <glyph glyph-name="uni04B7" unicode="&#x4b7;" horiz-adv-x="436" 
d="M323 0v153h-121q-73 0 -112 38.5t-39 111.5v116h20v-115q0 -63 33 -97t99 -34h120v246h20v-399h20v-124h-20v104h-20z" />
    <glyph glyph-name="uni04B8" unicode="&#x4b8;" horiz-adv-x="557" 
d="M290 278h154v422h20v-700h-20v258h-154v-111h-20v111q-60 1 -101.5 17t-68 44.5t-38 70t-11.5 94.5v216h20v-214q0 -45 9.5 -82.5t33 -65t61.5 -43t95 -17.5v133h20v-133z" />
    <glyph glyph-name="uni04B9" unicode="&#x4b9;" horiz-adv-x="493" 
d="M221 173h102v246h20v-419h-20v153h-102v-79h-20v79q-73 0 -111.5 38.5t-38.5 111.5v116h20v-115q0 -63 32.5 -97t97.5 -34v116h20v-116z" />
    <glyph glyph-name="uni04BA" unicode="&#x4ba;" horiz-adv-x="554" 
d="M93 700h20v-251h159q103 0 151 -52.5t48 -158.5v-238h-20v236q0 46 -9.5 81.5t-31 60.5t-56 38t-84.5 13h-157v-429h-20v700z" />
    <glyph glyph-name="uni04BB" unicode="&#x4bb;" horiz-adv-x="554" 
d="M93 700h20v-409q8 26 23.5 51t39 44t54 30.5t67.5 11.5q81 0 126 -48q48 -48 48 -138v-242h-20v240q0 36 -9.5 66.5t-29 53t-49 35.5t-68.5 13q-45 0 -79.5 -18.5t-57 -47.5t-34 -63.5t-11.5 -66.5v-212h-20v700z" />
    <glyph glyph-name="uni04BC" unicode="&#x4bc;" horiz-adv-x="928" 
d="M203 341q1 -66 25 -126t67.5 -106.5t105.5 -74t140 -27.5q55 0 102 15.5t84 43t64.5 64.5t44.5 81h22q-17 -48 -46.5 -89t-69.5 -71t-90.5 -47t-110.5 -17q-83 0 -148.5 29.5t-111.5 78.5t-71 113t-27 133h-28q-69 0 -102 35.5t-33 96.5v53h20v-53q0 -50 26.5 -81
t88.5 -31h28q2 69 27 132.5t70.5 112t110.5 78t147 29.5q79 0 142.5 -30.5t108 -81.5t68 -118.5t22.5 -141.5h-676zM538 693q-78 0 -139 -27.5t-104 -73.5t-66.5 -106t-25.5 -125h656q-2 64 -25.5 124t-65 106t-100 74t-130.5 28z" />
    <glyph glyph-name="uni04BD" unicode="&#x4bd;" horiz-adv-x="605" 
d="M171 215q0 -40 11.5 -77t35 -65t58.5 -45t83 -17q32 0 58.5 8.5t47.5 22.5t35 32.5t21 39.5h21q-7 -25 -22.5 -47t-38.5 -39t-54 -27t-68 -10q-53 0 -92 18t-64.5 48.5t-38.5 70t-13 82.5l-11 5q-63 0 -91.5 31.5t-28.5 85.5v34h20v-34q0 -43 23 -70t77 -27h12
q3 42 18.5 77.5t41.5 61t62 40t82 14.5q40 0 75.5 -14.5t61.5 -39.5t41 -59t15 -74v-11.5t-1 -14.5h-377zM355 409q-41 0 -73.5 -13t-55.5 -36t-37 -55t-17 -70h357q0 39 -14 71t-37.5 55t-55 35.5t-67.5 12.5z" />
    <glyph glyph-name="uni04BE" unicode="&#x4be;" horiz-adv-x="928" 
d="M534 -13q-81 1 -145 31t-109.5 79t-70.5 112t-26 132h-28q-69 0 -102 35.5t-33 96.5v53h20v-53q0 -50 26.5 -81t88.5 -31h28q2 69 27 132.5t70.5 112t110.5 78t147 29.5q79 0 142.5 -30.5t108 -81.5t68 -118.5t22.5 -141.5h-676q1 -66 25 -126t67.5 -106.5t105.5 -74
t140 -27.5q55 0 102 15.5t84 43t64.5 64.5t44.5 81h22q-17 -47 -46 -87.5t-68 -70.5t-88.5 -47.5t-107.5 -18.5q-29 -25 -43 -51.5t-14 -50.5q0 -32 23.5 -54.5t71.5 -22.5q24 0 48 5.5t39 10.5l-2 -21q-16 -5 -37.5 -10t-47.5 -5q-57 0 -86 28.5t-29 68.5q0 29 15.5 53
t47.5 49zM538 693q-78 0 -139 -27.5t-104 -73.5t-66.5 -106t-25.5 -125h656q-2 64 -25.5 124t-65 106t-100 74t-130.5 28z" />
    <glyph glyph-name="uni04BF" unicode="&#x4bf;" horiz-adv-x="605" 
d="M354 -9q-51 1 -89.5 19.5t-63.5 48.5t-37.5 69.5t-12.5 81.5l-11 5q-63 0 -91.5 31.5t-28.5 85.5v34h20v-34q0 -43 23 -70t77 -27h12q3 42 18.5 77.5t41.5 61t62 40t82 14.5q40 0 75.5 -14.5t61.5 -39.5t41 -59t15 -74v-11.5t-1 -14.5h-377q0 -40 11.5 -77t35 -65
t58.5 -45t83 -17q32 0 58.5 8.5t47.5 22.5t35 32.5t21 39.5h21q-7 -24 -22 -46t-37 -38.5t-51.5 -27t-64.5 -11.5q-30 -26 -45.5 -53.5t-15.5 -52.5q0 -32 23.5 -54.5t71.5 -22.5q24 0 48 5.5t39 10.5l-2 -21q-16 -5 -37.5 -10t-47.5 -5q-57 0 -86 28.5t-29 68.5
q0 30 16.5 55t51.5 51zM355 409q-41 0 -73.5 -13t-55.5 -36t-37 -55t-17 -70h357q0 39 -14 71t-37.5 55t-55 35.5t-67.5 12.5z" />
    <glyph glyph-name="uni04C0" unicode="&#x4c0;" horiz-adv-x="206" 
d="M93 700h20v-700h-20v700z" />
    <glyph glyph-name="uni04C3" unicode="&#x4c3;" horiz-adv-x="554" 
d="M113 376h30q24 0 45 2t41 13t39 33.5t40 63.5l63 123q23 45 53 68.5t79 23.5h49v-20h-46q-23 0 -40.5 -5.5t-32 -17t-26 -28.5t-23.5 -40l-62 -122q-20 -40 -40 -61.5t-43 -32.5h58q81 0 126 -48q48 -48 48 -138v-351q0 -58 -26.5 -91.5t-71.5 -33.5q-21 0 -34 2.5
t-29 10.5v23q14 -8 27 -12t36 -4q36 0 57 27.5t21 76.5v350q0 36 -9.5 66.5t-29 53t-49 35.5t-68.5 13h-182v-356h-20v700h20v-324z" />
    <glyph glyph-name="uni04C4" unicode="&#x4c4;" horiz-adv-x="451" 
d="M113 221h35q22 0 42 11t42 46l54 86q17 26 33 43t45 17h49v-20h-42q-15 0 -25 -3.5t-17.5 -10.5t-13.5 -16.5t-14 -21.5l-55 -85q-22 -34 -44 -46h41q68 0 104 -41q35 -40 35 -111v-230q0 -58 -26.5 -91.5t-71.5 -33.5q-21 0 -34 2.5t-29 10.5v23q14 -8 27 -12t36 -4
q36 0 57 27.5t21 76.5v229q0 29 -6.5 53.5t-20.5 42t-37.5 27.5t-56.5 10h-128v-200h-20v419h20v-198z" />
    <glyph glyph-name="uni04C5" unicode="&#x4c5;" horiz-adv-x="701" 
d="M10 8h23q24 0 42.5 4.5t31.5 17.5t19.5 36.5t6.5 61.5v572h475v-680h16l-53 -136h-20l45 116h-8v680h-435v-557q0 -43 -9.5 -69.5t-25.5 -41t-38 -19.5t-47 -5h-23v20z" />
    <glyph glyph-name="uni04C6" unicode="&#x4c6;" horiz-adv-x="532" 
d="M10 8h18q16 0 30 2.5t24 12.5t15.5 28.5t5.5 51.5v316h336v-399h16l-48 -124h-20l40 104h-8v399h-296v-301q0 -38 -8 -59.5t-21.5 -33t-30.5 -14.5t-35 -3h-18v20z" />
    <glyph glyph-name="uni04C7" unicode="&#x4c7;" horiz-adv-x="660" 
d="M567 -161q0 -58 -26.5 -91.5t-71.5 -33.5q-21 0 -34 2.5t-29 10.5v23q14 -8 27 -12t36 -4q36 0 57 28t21 77v499h-434v-338h-20v700h20v-342h434v342h20v-861z" />
    <glyph glyph-name="uni04C8" unicode="&#x4c8;" horiz-adv-x="550" 
d="M457 -161q0 -58 -26.5 -91.5t-71.5 -33.5q-21 0 -34 2.5t-29 10.5v23q14 -8 27 -12t36 -4q36 0 57 28t21 77v359h-324v-198h-20v419h20v-201h324v201h20v-580z" />
    <glyph glyph-name="uni04C9" unicode="&#x4c9;" horiz-adv-x="660" 
d="M547 338h-434v-338h-20v700h20v-342h434v342h20v-680h16l-53 -136h-20l45 116h-8v338z" />
    <glyph glyph-name="uni04CA" unicode="&#x4ca;" horiz-adv-x="565" 
d="M452 198h-324v-198h-20v419h20v-201h324v201h20v-399h16l-48 -124h-20l40 104h-8v198z" />
    <glyph glyph-name="uni04CB" unicode="&#x4cb;" horiz-adv-x="557" 
d="M444 0v-116h-20v136h20v238h-161q-64 0 -108 15t-71.5 43.5t-40 71t-12.5 96.5v216h20v-214q0 -47 10.5 -85.5t35 -65.5t65.5 -42t103 -15h159v422h20v-700h-20z" />
    <glyph glyph-name="uni04CC" unicode="&#x4cc;" horiz-adv-x="425" 
d="M312 0v153h-121q-73 0 -112 38.5t-39 111.5v116h20v-115q0 -63 33 -97t99 -34h120v246h20v-399h20v-124h-20v104h-20z" />
    <glyph glyph-name="uni04CD" unicode="&#x4cd;" horiz-adv-x="807" 
d="M714 20h16l-53 -136h-20l45 116h-8v653l-280 -653h-21l-280 653v-653h-20v700h21l289 -676l290 676h21v-680z" />
    <glyph glyph-name="uni04CE" unicode="&#x4ce;" horiz-adv-x="687" 
d="M594 20h16l-48 -124h-20l40 104h-8v397l-223 -397h-15l-223 397v-397h-20v419h31l219 -395l220 395h31v-399z" />
    <glyph glyph-name="uni04D0" unicode="&#x4d0;" horiz-adv-x="521" 
d="M511 0h-21l-56 162h-348l-55 -162h-21l240 700h21zM93 182h334l-167 494zM261 785q59 0 102 30t54 86h21q-6 -33 -21.5 -58t-39 -42t-53.5 -26t-63 -9t-63 9t-53.5 26t-39 42t-21.5 58h21q11 -56 54 -86t102 -30z" />
    <glyph glyph-name="uni04D1" unicode="&#x4d1;" horiz-adv-x="580" 
d="M487 419v-419h-20v125q-22 -59 -73.5 -96.5t-127.5 -37.5q-50 0 -90 17.5t-68.5 47.5t-44 69.5t-15.5 83.5q0 45 15.5 84.5t44 69.5t68.5 47.5t90 17.5q76 0 127.5 -37.5t73.5 -97.5v126h20zM266 11q46 0 83 16t63.5 43t40.5 63t14 76t-14 76.5t-40.5 63.5t-63.5 43
t-83 16q-45 0 -81.5 -16t-62.5 -43t-40 -63.5t-14 -76.5t14 -76t40 -63t62.5 -43t81.5 -16zM267 583q55 0 95.5 30.5t51.5 86.5h20q-11 -66 -57.5 -100.5t-109.5 -34.5q-31 0 -59 9t-50 26t-37 42t-21 58h20q11 -56 51.5 -86.5t95.5 -30.5z" />
    <glyph glyph-name="uni04D2" unicode="&#x4d2;" horiz-adv-x="521" 
d="M135 858h20v-103h-20v103zM366 858h20v-103h-20v103zM511 0h-21l-56 162h-348l-55 -162h-21l240 700h21zM93 182h334l-167 494z" />
    <glyph glyph-name="uni04D3" unicode="&#x4d3;" horiz-adv-x="580" 
d="M140 648h20v-103h-20v103zM371 648h20v-103h-20v103zM467 0v125q-22 -59 -73.5 -96.5t-127.5 -37.5q-50 0 -90 17.5t-68.5 47.5t-44 69.5t-15.5 83.5q0 45 15.5 84.5t44 69.5t68.5 47.5t90 17.5q76 0 127.5 -37.5t73.5 -97.5v126h20v-419h-20zM266 11q46 0 83 16t63.5 43
t40.5 63t14 76t-14 76.5t-40.5 63.5t-63.5 43t-83 16q-45 0 -81.5 -16t-62.5 -43t-40 -63.5t-14 -76.5t14 -76t40 -63t62.5 -43t81.5 -16z" />
    <glyph glyph-name="uni04D4" unicode="&#x4d4;" horiz-adv-x="817" 
d="M390 680v-322h339v-20h-339v-318h339v-20h-359v162h-255l-83 -162h-22l360 700h359v-20h-339zM370 182v475l-244 -475h244z" />
    <glyph glyph-name="uni04D5" unicode="&#x4d5;" horiz-adv-x="921" 
d="M487 419v-106q23 52 69.5 83.5t115.5 31.5q40 0 75.5 -14.5t61.5 -39.5t41 -59t15 -74v-11.5t-1 -14.5h-377q0 -44 12.5 -81.5t36.5 -64.5t59 -42.5t80 -15.5q32 0 58.5 8.5t47.5 22.5t35 32.5t21 39.5h21q-7 -25 -22.5 -47t-38.5 -39t-54 -27t-68 -10q-72 0 -119 33
t-69 84v-108h-20v125q-22 -59 -73.5 -96.5t-127.5 -37.5q-50 0 -90 17.5t-68.5 47.5t-44 69.5t-15.5 83.5q0 45 15.5 84.5t44 69.5t68.5 47.5t90 17.5q76 0 127.5 -37.5t73.5 -97.5v126h20zM672 408q-41 0 -73.5 -13t-56 -36t-37.5 -54.5t-17 -69.5h357q0 39 -13.5 70.5
t-37 54.5t-55 35.5t-67.5 12.5zM266 11q46 0 83 16t63.5 43t40.5 63t14 76t-14 76.5t-40.5 63.5t-63.5 43t-83 16q-45 0 -81.5 -16t-62.5 -43t-40 -63.5t-14 -76.5t14 -76t40 -63t62.5 -43t81.5 -16z" />
    <glyph glyph-name="uni04D6" unicode="&#x4d6;" horiz-adv-x="540" 
d="M113 680v-322h339v-20h-339v-318h339v-20h-359v700h359v-20h-339zM272 785q59 0 102 30t54 86h21q-6 -33 -21.5 -58t-39 -42t-53.5 -26t-63 -9t-63 9t-53.5 26t-39 42t-21.5 58h21q11 -56 54 -86t102 -30z" />
    <glyph glyph-name="uni04D7" unicode="&#x4d7;" horiz-adv-x="507" 
d="M73 215q0 -40 11.5 -77t35 -65t58.5 -45t83 -17q32 0 58.5 8.5t47.5 22.5t35 32.5t21 39.5h21q-7 -25 -22.5 -47t-38.5 -39t-54 -27t-68 -10q-53 0 -92 18t-64.5 48.5t-38.5 70t-13 82.5q0 47 13.5 87t40 69t64.5 45.5t87 16.5q40 0 75.5 -14.5t61.5 -39.5t41 -59t15 -74
v-11.5t-1 -14.5h-377zM258 408q-41 0 -73.5 -13t-56 -36t-37.5 -54.5t-17 -69.5h357q0 39 -13.5 70.5t-37 54.5t-55 35.5t-67.5 12.5zM260 583q55 0 95.5 30.5t51.5 86.5h20q-11 -66 -57.5 -100.5t-109.5 -34.5q-31 0 -59 9t-50 26t-37 42t-21 58h20q11 -56 51.5 -86.5
t95.5 -30.5z" />
    <glyph glyph-name="uni04D8" unicode="&#x4d8;" horiz-adv-x="791" 
d="M68 489q17 48 46.5 89t69.5 71t90.5 47t110.5 17q84 0 150 -30.5t112.5 -80.5t71 -116t24.5 -136q0 -71 -24 -136.5t-70 -115.5t-111.5 -80.5t-149.5 -30.5q-79 0 -142.5 30.5t-108 81.5t-68 118.5t-22.5 141.5h676q-2 65 -25.5 125.5t-67 107t-105.5 74t-140 27.5
q-56 0 -102.5 -15.5t-83.5 -43t-64.5 -65t-44.5 -80.5h-22zM388 7q77 0 138.5 27.5t104.5 73.5t66.5 106t25.5 125h-656q2 -64 25.5 -124t65 -106t100 -74t130.5 -28z" />
    <glyph glyph-name="uni04D9" unicode="&#x4d9;" horiz-adv-x="507" 
d="M250 10q41 0 73.5 13t55.5 36t37 55t17 70h-357q0 -39 14 -71t37.5 -55t55 -35.5t67.5 -12.5zM434 204q0 40 -11.5 77t-35 65t-58.5 45t-83 17q-32 0 -58.5 -8.5t-47.5 -22.5t-35 -32.5t-21 -39.5h-21q7 25 22.5 47t38.5 39t54 27t68 10q52 0 91.5 -18t65 -48.5t38.5 -70
t13 -82.5q0 -47 -13.5 -87t-40 -69t-64.5 -45.5t-87 -16.5q-41 0 -76 14.5t-61 39.5t-41 59t-15 74v11.5t1 14.5h377z" />
    <glyph glyph-name="uni04DA" unicode="&#x4da;" horiz-adv-x="791" 
d="M68 489q17 48 46.5 89t69.5 71t90.5 47t110.5 17q84 0 150 -30.5t112.5 -80.5t71 -116t24.5 -136q0 -71 -24 -136.5t-70 -115.5t-111.5 -80.5t-149.5 -30.5q-79 0 -142.5 30.5t-108 81.5t-68 118.5t-22.5 141.5h676q-2 65 -25.5 125.5t-67 107t-105.5 74t-140 27.5
q-56 0 -102.5 -15.5t-83.5 -43t-64.5 -65t-44.5 -80.5h-22zM388 7q77 0 138.5 27.5t104.5 73.5t66.5 106t25.5 125h-656q2 -64 25.5 -124t65 -106t100 -74t130.5 -28zM505 858h20v-103h-20v103zM274 858h20v-103h-20v103z" />
    <glyph glyph-name="uni04DB" unicode="&#x4db;" horiz-adv-x="507" 
d="M134 648h20v-103h-20v103zM365 648h20v-103h-20v103zM434 204q0 40 -11.5 77t-35 65t-58.5 45t-83 17q-32 0 -58.5 -8.5t-47.5 -22.5t-35 -32.5t-21 -39.5h-21q7 25 22.5 47t38.5 39t54 27t68 10q52 0 91.5 -18t65 -48.5t38.5 -70t13 -82.5q0 -47 -13.5 -87t-40 -69
t-64.5 -45.5t-87 -16.5q-41 0 -76 14.5t-61 39.5t-41 59t-15 74v11.5t1 14.5h377zM249 11q41 0 73.5 13t56 36t37.5 54.5t17 69.5h-357q0 -39 13.5 -70.5t37 -54.5t55 -35.5t67.5 -12.5z" />
    <glyph glyph-name="uni04DC" unicode="&#x4dc;" horiz-adv-x="856" 
d="M301 858h20v-103h-20v103zM532 858h20v-103h-20v103zM41 0h-28l370 345q-29 0 -53 3.5t-44 13.5t-36.5 27.5t-29.5 45.5l-66 139q-11 23 -21 42.5t-22 33.5t-27.5 22t-36.5 8h-45v20h44q23 0 40.5 -8t31.5 -22t25.5 -33.5t22.5 -42.5l66 -142q14 -30 29.5 -47.5
t33.5 -27.5t40 -13t48 -3h35v339h20v-339h35q26 0 48 3t40 13t33.5 27.5t29.5 47.5l66 142q11 23 22.5 42.5t25.5 33.5t31.5 22t40.5 8h44v-20h-45q-21 0 -36.5 -8t-27.5 -22t-22 -33.5t-21 -42.5l-66 -139q-13 -28 -29.5 -45.5t-36.5 -27.5t-44 -13.5t-53 -3.5l370 -345
h-28l-377 356v-356h-20v356z" />
    <glyph glyph-name="uni04DD" unicode="&#x4dd;" horiz-adv-x="648" 
d="M199 648h20v-103h-20v103zM430 648h20v-103h-20v103zM70 0h-30l248 215q-27 0 -47 3t-34 10t-24 19t-19 31l-27 60q-12 27 -27 46t-37 19h-35v20h35q27 0 45.5 -20.5t32.5 -52.5l27 -59q8 -18 17 -29.5t20.5 -18.5t27.5 -9.5t39 -2.5h32v188h20v-188h32q23 0 39 2.5
t27.5 9.5t20.5 18.5t17 29.5l27 59q14 32 32.5 52.5t45.5 20.5h35v-20h-35q-22 0 -37 -19t-27 -46l-27 -60q-9 -19 -19 -31t-24.5 -19t-34 -10t-46.5 -3l248 -215h-30l-244 219v-219h-20v219z" />
    <glyph glyph-name="uni04DE" unicode="&#x4de;" horiz-adv-x="535" 
d="M369 858h20v-103h-20v103zM138 858h20v-103h-20v103zM60 182q0 -39 14 -71t40 -55.5t62.5 -36t81.5 -12.5q46 0 83 12.5t63.5 36t40.5 55.5t14 71q0 38 -13.5 69.5t-38.5 54t-60.5 35t-79.5 12.5h-59v20h58q42 0 76 12t57.5 33t36.5 50t13 64q0 36 -13 65.5t-37 51
t-58.5 33t-77.5 11.5q-45 0 -82 -12t-63 -34t-40 -52.5t-14 -67.5h-20q0 42 15.5 76t44 58.5t69 38t90.5 13.5q47 0 85 -13t65 -37t41.5 -57.5t14.5 -73.5q0 -32 -9.5 -60t-28.5 -50.5t-47 -37.5t-64 -20q77 -11 118 -61.5t41 -120.5q0 -44 -15.5 -79.5t-44.5 -61.5
t-69.5 -40t-91.5 -14q-50 0 -90 14t-68.5 40t-44 61.5t-15.5 79.5h20z" />
    <glyph glyph-name="uni04DF" unicode="&#x4df;" horiz-adv-x="388" 
d="M86 648h20v-103h-20v103zM257 648h20v-103h-20v103zM61 107q0 -45 33.5 -71t91.5 -26q57 0 89.5 26t32.5 71q0 43 -31.5 69t-85.5 26h-36v20h36q51 0 81 27t30 68q0 42 -30 67t-81 25q-56 0 -88 -25t-32 -67h-21q0 49 39 80t102 31q59 0 95 -31t36 -80q0 -38 -24 -67.5
t-69 -37.5q47 -4 73 -33.5t26 -71.5q0 -52 -39 -84t-103 -32q-66 0 -106 32t-40 84h21z" />
    <glyph glyph-name="uni04E0" unicode="&#x4e0;" horiz-adv-x="535" 
d="M60 182q0 -39 14 -71t40 -55.5t62.5 -36t81.5 -12.5q46 0 83 13.5t63.5 38t40.5 58.5t14 75q0 40 -13.5 73.5t-38.5 57.5t-60.5 37t-79.5 13h-59l231 308h-375v19h414l-231 -306q109 4 170.5 -49t61.5 -153q0 -46 -15.5 -83.5t-44.5 -64.5t-69.5 -42t-91.5 -15
q-50 0 -90 14t-68.5 40t-44 61.5t-15.5 79.5h20z" />
    <glyph glyph-name="uni04E1" unicode="&#x4e1;" horiz-adv-x="472" 
d="M50 -94q0 -39 12 -71t34 -55.5t53 -36t69 -12.5q79 0 125 53t46 148q0 94 -59.5 144.5t-171.5 50.5l215 273h-327v19h366l-215 -274q100 -5 156 -60.5t56 -151.5q0 -105 -51.5 -163.5t-139.5 -58.5q-43 0 -77.5 14t-59 40t-38 61.5t-13.5 79.5h20z" />
    <glyph glyph-name="uni04E2" unicode="&#x4e2;" horiz-adv-x="659" 
d="M546 625l-433 -582v-43h-20v700h20v-624l433 581v43h20v-700h-20v625zM511 797h-358v20h358v-20z" />
    <glyph glyph-name="uni04E3" unicode="&#x4e3;" horiz-adv-x="544" 
d="M431 362l-318 -333v-29h-20v419h20v-362l318 333v29h20v-419h-20v362zM451 586h-358v20h358v-20z" />
    <glyph glyph-name="uni04E4" unicode="&#x4e4;" horiz-adv-x="659" 
d="M444 858h20v-103h-20v103zM213 858h20v-103h-20v103zM546 625l-433 -582v-43h-20v700h20v-624l433 581v43h20v-700h-20v625z" />
    <glyph glyph-name="uni04E5" unicode="&#x4e5;" horiz-adv-x="544" 
d="M388 648h20v-103h-20v103zM157 648h20v-103h-20v103zM431 362l-318 -333v-29h-20v419h20v-362l318 333v29h20v-419h-20v362z" />
    <glyph glyph-name="uni04E6" unicode="&#x4e6;" horiz-adv-x="812" 
d="M511 858h20v-103h-20v103zM280 858h20v-103h-20v103zM406 -13q-84 0 -150 30.5t-112.5 80.5t-71 115.5t-24.5 136.5q0 70 24.5 136t71 116t112.5 80.5t150 30.5t150 -30.5t112.5 -80.5t71 -116t24.5 -136q0 -71 -24.5 -136.5t-71 -115.5t-112.5 -80.5t-150 -30.5zM68 350
q0 -67 23 -129t66.5 -109.5t106.5 -76t142 -28.5t142 28.5t106.5 76t66.5 109.5t23 129t-23 129t-66.5 109.5t-106.5 76t-142 28.5t-142 -28.5t-106.5 -76t-66.5 -109.5t-23 -129z" />
    <glyph glyph-name="uni04E7" unicode="&#x4e7;" horiz-adv-x="535" 
d="M141 648h20v-103h-20v103zM372 648h20v-103h-20v103zM266 11q46 0 83 16t63.5 43t40.5 63t14 76t-14 76.5t-40.5 63.5t-63.5 43t-83 16q-45 0 -81.5 -16t-62.5 -43t-40 -63.5t-14 -76.5t14 -76t40 -63t62.5 -43t81.5 -16zM266 -9q-50 0 -90 17.5t-68.5 47.5t-44 69.5
t-15.5 83.5q0 45 15.5 84.5t44 69.5t68.5 47.5t90 17.5q51 0 91.5 -17.5t69.5 -47.5t44.5 -69.5t15.5 -84.5q0 -44 -15.5 -83.5t-44.5 -69.5t-69.5 -47.5t-91.5 -17.5z" />
    <glyph glyph-name="uni04E8" unicode="&#x4e8;" horiz-adv-x="812" 
d="M406 -13q-84 0 -150 30.5t-112.5 80.5t-71 115.5t-24.5 136.5q0 70 24.5 136t71 116t112.5 80.5t150 30.5t150 -30.5t112.5 -80.5t71 -116t24.5 -136q0 -71 -24.5 -136.5t-71 -115.5t-112.5 -80.5t-150 -30.5zM406 693q-78 0 -140 -27.5t-105.5 -74t-67.5 -107
t-25 -125.5h676q-2 65 -25.5 125.5t-67 107t-105.5 74t-140 27.5zM406 7q77 0 139 27.5t105.5 73.5t67.5 106t26 125h-676q2 -65 26 -125t67.5 -106t105 -73.5t139.5 -27.5z" />
    <glyph glyph-name="uni04E9" unicode="&#x4e9;" horiz-adv-x="535" 
d="M266 -9q-50 0 -90 17.5t-68.5 47.5t-44 69.5t-15.5 83.5q0 45 15.5 84.5t44 69.5t68.5 47.5t90 17.5q51 0 91.5 -17.5t69.5 -47.5t44.5 -69.5t15.5 -84.5q0 -44 -15.5 -83.5t-44.5 -69.5t-69.5 -47.5t-91.5 -17.5zM266 408q-44 0 -80 -15t-61.5 -41t-40.5 -60.5
t-16 -73.5h399q-2 39 -16.5 73.5t-41 60.5t-62.5 41t-81 15zM266 11q45 0 81 15t62 40.5t41 59.5t17 72h-399q2 -38 17 -72t40.5 -59.5t61 -40.5t79.5 -15z" />
    <glyph glyph-name="uni04EA" unicode="&#x4ea;" horiz-adv-x="812" 
d="M511 858h20v-103h-20v103zM280 858h20v-103h-20v103zM406 -13q-84 0 -150 30.5t-112.5 80.5t-71 115.5t-24.5 136.5q0 70 24.5 136t71 116t112.5 80.5t150 30.5t150 -30.5t112.5 -80.5t71 -116t24.5 -136q0 -71 -24.5 -136.5t-71 -115.5t-112.5 -80.5t-150 -30.5z
M406 693q-78 0 -140 -27.5t-105.5 -74t-67.5 -107t-25 -125.5h676q-2 65 -25.5 125.5t-67 107t-105.5 74t-140 27.5zM406 7q77 0 139 27.5t105.5 73.5t67.5 106t26 125h-676q2 -65 26 -125t67.5 -106t105 -73.5t139.5 -27.5z" />
    <glyph glyph-name="uni04EB" unicode="&#x4eb;" horiz-adv-x="535" 
d="M140 648h20v-103h-20v103zM371 648h20v-103h-20v103zM266 -9q-50 0 -90 17.5t-68.5 47.5t-44 69.5t-15.5 83.5q0 45 15.5 84.5t44 69.5t68.5 47.5t90 17.5q51 0 91.5 -17.5t69.5 -47.5t44.5 -69.5t15.5 -84.5q0 -44 -15.5 -83.5t-44.5 -69.5t-69.5 -47.5t-91.5 -17.5z
M266 408q-44 0 -80 -15t-61.5 -41t-40.5 -60.5t-16 -73.5h399q-2 39 -16.5 73.5t-41 60.5t-62.5 41t-81 15zM266 11q45 0 81 15t62 40.5t41 59.5t17 72h-399q2 -38 17 -72t40.5 -59.5t61 -40.5t79.5 -15z" />
    <glyph glyph-name="uni04EC" unicode="&#x4ec;" horiz-adv-x="774" 
d="M251 858h20v-103h-20v103zM482 858h20v-103h-20v103zM268 357h438q-1 66 -24 126.5t-66 107t-103.5 74.5t-136.5 28q-66 0 -117.5 -16t-90 -44t-64 -66t-38.5 -83h-20q13 49 40 90.5t68 72.5t96.5 48.5t125.5 17.5q82 0 147 -30t110 -80.5t69 -116t24 -135.5
q0 -73 -25 -139t-72 -116t-114.5 -79.5t-152.5 -29.5q-57 0 -107.5 15t-91 42t-70.5 63.5t-47 79.5h22q16 -39 44.5 -72t66 -57t84 -37.5t99.5 -13.5q78 0 140.5 26.5t107 71.5t69 105t27.5 127h-438v20z" />
    <glyph glyph-name="uni04ED" unicode="&#x4ed;" horiz-adv-x="499" 
d="M355 648h20v-103h-20v103zM124 648h20v-103h-20v103zM49 266q3 31 15 60t35.5 52t58.5 37t85 14q51 0 89.5 -18t65 -48.5t40 -70t13.5 -82.5t-13.5 -82.5t-39.5 -70t-65 -48.5t-90 -18q-46 0 -81 12t-59 32.5t-38 48.5t-19 60h21q5 -28 17.5 -52t34.5 -42t52.5 -28.5
t71.5 -10.5q44 0 78.5 15.5t58 41t36.5 59.5t15 72h-221v20h221q-2 37 -14.5 71.5t-36.5 60.5t-58.5 42t-78.5 16t-75.5 -12t-52.5 -32.5t-32 -46t-14 -52.5h-20z" />
    <glyph glyph-name="uni04EE" unicode="&#x4ee;" horiz-adv-x="527" 
d="M157 0h-23l144 273l-272 427h24l259 -406l213 406h22zM451 797h-358v20h358v-20z" />
    <glyph glyph-name="uni04EF" unicode="&#x4ef;" horiz-adv-x="557" 
d="M279 -290q-54 0 -90.5 13.5t-58.5 40t-32.5 66t-11.5 92.5h20q1 -47 10.5 -83t29.5 -60t52.5 -36.5t80.5 -12.5q43 0 74.5 11t52.5 35.5t31.5 64.5t10.5 97v190q-8 -26 -23.5 -51t-38 -44t-52.5 -30.5t-67 -11.5q-48 0 -77 10t-55 34q-24 23 -34.5 59t-10.5 93v232h20
v-230q0 -42 7.5 -75.5t26 -56t49 -34.5t76.5 -12q45 0 79 18.5t56 47.5t33 63.5t11 66.5v212h20v-481q0 -63 -11.5 -106.5t-35 -70.5t-59 -39t-83.5 -12zM459 586h-358v20h358v-20z" />
    <glyph glyph-name="uni04F0" unicode="&#x4f0;" horiz-adv-x="527" 
d="M379 858h20v-103h-20v103zM148 858h20v-103h-20v103zM157 0h-23l144 273l-272 427h24l259 -406l213 406h22z" />
    <glyph glyph-name="uni04F1" unicode="&#x4f1;" horiz-adv-x="557" 
d="M160 648h20v-103h-20v103zM391 648h20v-103h-20v103zM279 -290q-54 0 -90.5 13.5t-58.5 40t-32.5 66t-11.5 92.5h20q1 -47 10.5 -83t29.5 -60t52.5 -36.5t80.5 -12.5q43 0 74.5 11t52.5 35.5t31.5 64.5t10.5 97v190q-8 -26 -23.5 -51t-38 -44t-52.5 -30.5t-67 -11.5
q-48 0 -77 10t-55 34q-24 23 -34.5 59t-10.5 93v232h20v-230q0 -42 7.5 -75.5t26 -56t49 -34.5t76.5 -12q45 0 79 18.5t56 47.5t33 63.5t11 66.5v212h20v-481q0 -63 -11.5 -106.5t-35 -70.5t-59 -39t-83.5 -12z" />
    <glyph glyph-name="uni04F2" unicode="&#x4f2;" horiz-adv-x="527" 
d="M157 0h-23l144 273l-272 427h24l259 -406l213 406h22zM466 929l18 -9l-125 -167l-18 10zM271 929l18 -9l-125 -166l-18 9z" />
    <glyph glyph-name="uni04F3" unicode="&#x4f3;" horiz-adv-x="557" 
d="M279 -290q-54 0 -90.5 13.5t-58.5 40t-32.5 66t-11.5 92.5h20q1 -47 10.5 -83t29.5 -60t52.5 -36.5t80.5 -12.5q43 0 74.5 11t52.5 35.5t31.5 64.5t10.5 97v190q-8 -26 -23.5 -51t-38 -44t-52.5 -30.5t-67 -11.5q-48 0 -77 10t-55 34q-24 23 -34.5 59t-10.5 93v232h20
v-230q0 -42 7.5 -75.5t26 -56t49 -34.5t76.5 -12q45 0 79 18.5t56 47.5t33 63.5t11 66.5v212h20v-481q0 -63 -11.5 -106.5t-35 -70.5t-59 -39t-83.5 -12zM164 505l-18 9l125 166l18 -9zM359 504l-18 10l125 166l18 -9z" />
    <glyph glyph-name="uni04F4" unicode="&#x4f4;" horiz-adv-x="557" 
d="M141 858h20v-103h-20v103zM372 858h20v-103h-20v103zM444 0v258h-161q-64 0 -108 15t-71.5 43.5t-40 71t-12.5 96.5v216h20v-214q0 -47 10.5 -85.5t35 -65.5t65.5 -42t103 -15h159v422h20v-700h-20z" />
    <glyph glyph-name="uni04F5" unicode="&#x4f5;" horiz-adv-x="436" 
d="M294 648h20v-103h-20v103zM78 648h20v-103h-20v103zM323 0v153h-121q-73 0 -112 38.5t-39 111.5v116h20v-115q0 -63 33 -97t99 -34h120v246h20v-419h-20z" />
    <glyph glyph-name="uni04F8" unicode="&#x4f8;" horiz-adv-x="710" 
d="M464 858h20v-103h-20v103zM233 858h20v-103h-20v103zM113 700v-320h225q35 0 66.5 -14.5t55.5 -40t38 -60.5t14 -75q0 -39 -14 -74t-38.5 -60.5t-57.5 -40.5t-70 -15h-239v700h20zM113 360v-340h219q33 0 62 13.5t51 36.5t34.5 54t12.5 66q0 34 -12 65t-33 54.5t-49 37
t-60 13.5h-225zM597 700h20v-700h-20v700z" />
    <glyph glyph-name="uni04F9" unicode="&#x4f9;" horiz-adv-x="550" 
d="M156 648h20v-103h-20v103zM387 648h20v-103h-20v103zM437 419h20v-419h-20v419zM93 419h20v-181h147q23 0 43.5 -9t35.5 -25t24 -38t9 -47t-9 -46.5t-24.5 -37.5t-37 -25.5t-45.5 -9.5h-163v419zM113 218v-198h143q20 0 37.5 8t30.5 21.5t20.5 31.5t7.5 38q0 19 -7 37
t-19.5 32t-29.5 22t-36 8h-147z" />
    <glyph glyph-name="Wgrave" unicode="&#x1e80;" horiz-adv-x="907" 
d="M453 671l-193 -671h-21l-232 700h21l221 -673l194 673h21l194 -673l221 673h21l-232 -700h-21zM324 887l10 18l249 -137l-10 -18z" />
    <glyph glyph-name="wgrave" unicode="&#x1e81;" horiz-adv-x="675" 
d="M337 393l-140 -393h-20l-161 419h21l149 -395l141 395h21l140 -395l150 395h21l-161 -419h-20zM208 662l10 18l249 -137l-10 -18z" />
    <glyph glyph-name="Wacute" unicode="&#x1e82;" horiz-adv-x="907" 
d="M453 671l-193 -671h-21l-232 700h21l221 -673l194 673h21l194 -673l221 673h21l-232 -700h-21zM334 750l-10 18l249 137l10 -18z" />
    <glyph glyph-name="wacute" unicode="&#x1e83;" horiz-adv-x="675" 
d="M337 393l-140 -393h-20l-161 419h21l149 -395l141 395h21l140 -395l150 395h21l-161 -419h-20zM218 525l-10 18l249 137l10 -18z" />
    <glyph glyph-name="Wdieresis" unicode="&#x1e84;" horiz-adv-x="907" 
d="M558 858h20v-103h-20v103zM327 858h20v-103h-20v103zM453 671l-193 -671h-21l-232 700h21l221 -673l194 673h21l194 -673l221 673h21l-232 -700h-21z" />
    <glyph glyph-name="wdieresis" unicode="&#x1e85;" horiz-adv-x="675" 
d="M443 648h20v-103h-20v103zM212 648h20v-103h-20v103zM337 393l-140 -393h-20l-161 419h21l149 -395l141 395h21l140 -395l150 395h21l-161 -419h-20z" />
    <glyph glyph-name="Ygrave" unicode="&#x1ef2;" horiz-adv-x="527" 
d="M157 0h-23l144 273l-272 427h24l259 -406l213 406h22zM134 887l10 18l249 -137l-10 -18z" />
    <glyph glyph-name="ygrave" unicode="&#x1ef3;" horiz-adv-x="557" 
d="M279 -290q-54 0 -90.5 13.5t-58.5 40t-32.5 66t-11.5 92.5h20q1 -47 10.5 -83t29.5 -60t52.5 -36.5t80.5 -12.5q43 0 74.5 11t52.5 35.5t31.5 64.5t10.5 97v190q-8 -26 -23.5 -51t-38 -44t-52.5 -30.5t-67 -11.5q-48 0 -77 10t-55 34q-24 23 -34.5 59t-10.5 93v232h20
v-230q0 -42 7.5 -75.5t26 -56t49 -34.5t76.5 -12q45 0 79 18.5t56 47.5t33 63.5t11 66.5v212h20v-481q0 -63 -11.5 -106.5t-35 -70.5t-59 -39t-83.5 -12zM149 662l10 18l249 -137l-10 -18z" />
    <glyph glyph-name="thinspace" unicode="&#x2009;" horiz-adv-x="206" 
 />
    <glyph glyph-name="endash" unicode="&#x2013;" horiz-adv-x="503" 
d="M50 275v20h403v-20h-403z" />
    <glyph glyph-name="emdash" unicode="&#x2014;" horiz-adv-x="1006" 
d="M50 275v20h906v-20h-906z" />
    <glyph glyph-name="quoteleft" unicode="&#x2018;" horiz-adv-x="228" 
d="M80 521h-20v124q0 52 28 73.5t70 21.5v-20q-34 0 -56 -17t-22 -58v-124z" />
    <glyph glyph-name="quoteright" unicode="&#x2019;" horiz-adv-x="228" 
d="M148 770h20v-124q0 -52 -28 -73.5t-70 -21.5v20q34 0 56 17t22 58v124z" />
    <glyph glyph-name="quotesinglbase" unicode="&#x201a;" horiz-adv-x="228" 
d="M148 101h20v-124q0 -52 -28 -73.5t-70 -21.5v20q34 0 56 17t22 58v124z" />
    <glyph glyph-name="quotedblleft" unicode="&#x201c;" horiz-adv-x="365" 
d="M80 521h-20v124q0 52 28 73.5t70 21.5v-20q-34 0 -56 -17t-22 -58v-124zM217 521h-20v124q0 52 28 73.5t70 21.5v-20q-34 0 -56 -17t-22 -58v-124z" />
    <glyph glyph-name="quotedblright" unicode="&#x201d;" horiz-adv-x="365" 
d="M285 770h20v-124q0 -52 -28 -73.5t-70 -21.5v20q34 0 56 17t22 58v124zM148 770h20v-124q0 -52 -28 -73.5t-70 -21.5v20q34 0 56 17t22 58v124z" />
    <glyph glyph-name="quotedblbase" unicode="&#x201e;" horiz-adv-x="365" 
d="M285 101h20v-124q0 -52 -28 -73.5t-70 -21.5v20q34 0 56 17t22 58v124zM148 101h20v-124q0 -52 -28 -73.5t-70 -21.5v20q34 0 56 17t22 58v124z" />
    <glyph glyph-name="dagger" unicode="&#x2020;" horiz-adv-x="318" 
d="M148 -182v589h-148v20h148v290h20v-290h150v-20h-150v-589h-20z" />
    <glyph glyph-name="daggerdbl" unicode="&#x2021;" horiz-adv-x="318" 
d="M168 717v-290h150v-20h-150v-350h150v-20h-150v-219h-20v219h-148v20h148v350h-148v20h148v290h20z" />
    <glyph glyph-name="bullet" unicode="&#x2022;" horiz-adv-x="333" 
d="M70 312q0 -40 28 -68t68 -28q41 0 69 28t28 68q0 41 -28 69t-69 28q-40 0 -68 -28t-28 -69zM50 312q0 24 9 45.5t25 37.5t37 25t45 9t45.5 -9t37.5 -25t25 -37.5t9 -45.5t-9 -45t-25 -37t-37.5 -25t-45.5 -9t-45 9t-37 25t-25 37t-9 45z" />
    <glyph glyph-name="ellipsis" unicode="&#x2026;" horiz-adv-x="861" 
d="M78 103h20v-103h-20v103zM420 103h20v-103h-20v103zM762 103h20v-103h-20v103z" />
    <glyph glyph-name="perthousand" unicode="&#x2030;" horiz-adv-x="1170" 
d="M894 116q0 -21 7 -40t20.5 -33t32.5 -22.5t42 -8.5q24 0 43 8.5t32.5 22.5t20.5 33t7 40v153q0 21 -7 40t-20.5 33t-32.5 22.5t-43 8.5q-23 0 -42 -8.5t-32.5 -22.5t-20.5 -33t-7 -40v-153zM1120 108q0 -24 -9.5 -44.5t-26 -36.5t-39 -25t-49.5 -9q-28 0 -51 10t-39 26.5
t-24.5 39t-8.5 47.5v161q0 24 9 44.5t25.5 36.5t39 25t49.5 9q28 0 51 -10t39 -26.5t25 -39t9 -47.5v-161zM639 392q28 0 51 -10t39 -26.5t25 -39t9 -47.5v-161q0 -24 -9.5 -44.5t-26 -36.5t-39 -25t-49.5 -9q-28 0 -51 10t-39 26.5t-24.5 39t-8.5 47.5v161q0 24 9 44.5
t25.5 36.5t39 25t49.5 9zM639 373q-23 0 -42 -8.5t-32.5 -22.5t-20.5 -33t-7 -40v-153q0 -21 7 -40t20.5 -33t32.5 -22.5t42 -8.5q24 0 43 8.5t32.5 22.5t20.5 33t7 40v153q0 21 -7 40t-20.5 33t-32.5 22.5t-43 8.5zM50 590q0 24 9 44.5t25.5 36.5t39 25t49.5 9q28 0 51 -10
t39 -26.5t25 -39t9 -47.5v-161q0 -24 -9.5 -44.5t-26 -36.5t-39 -25t-49.5 -9q-28 0 -51 10t-39 26.5t-24.5 39t-8.5 47.5v161zM276 582q0 21 -7 40t-20.5 33t-32.5 22.5t-43 8.5q-23 0 -42 -8.5t-32.5 -22.5t-20.5 -33t-7 -40v-153q0 -21 7 -40t20.5 -33t32.5 -22.5
t42 -8.5q24 0 43 8.5t32.5 22.5t20.5 33t7 40v153zM629 751l17 -10l-437 -753l-17 10z" />
    <glyph glyph-name="guilsinglleft" unicode="&#x2039;" horiz-adv-x="276" 
d="M236 105l-196 176v20l196 176v-27l-176 -159l176 -159v-27z" />
    <glyph glyph-name="guilsinglright" unicode="&#x203a;" horiz-adv-x="276" 
d="M40 132l176 159l-176 159v27l196 -176v-20l-196 -176v27z" />
    <glyph glyph-name="fraction" unicode="&#x2044;" horiz-adv-x="194" 
d="M307 751l17 -10l-437 -753l-17 10z" />
    <glyph glyph-name="zerosuperior" unicode="&#x2070;" horiz-adv-x="377" 
d="M65 507v54.5t1 30.5q2 24 11 44.5t25 36.5t37.5 25t48.5 9q28 0 51 -10t39 -26.5t25 -39t9 -47.5q-1 -42 -1 -76v-85q0 -24 -9.5 -44.5t-25.5 -36.5t-38.5 -25t-49.5 -9q-28 0 -51 10t-39 26.5t-24.5 39t-8.5 47.5v76zM291 584q0 21 -7 40t-20.5 33t-32.5 22.5t-43 8.5
q-23 0 -42 -8.5t-32.5 -22.5t-20.5 -33t-7 -40v-153q0 -21 7 -40t20.5 -33t32.5 -22.5t42 -8.5q24 0 43 8.5t32.5 22.5t20.5 33t7 40v153z" />
    <glyph glyph-name="foursuperior" unicode="&#x2074;" horiz-adv-x="355" 
d="M220 457h-150v243h21v-223h129v126h21v-126h69v-20h-69v-142h-21v142z" />
    <glyph glyph-name="fivesuperior" unicode="&#x2075;" horiz-adv-x="379" 
d="M80 700h211v-19h-191v-179q12 24 38 37.5t57 13.5q28 0 50.5 -9.5t38.5 -26t24.5 -38.5t8.5 -47t-9 -47t-25 -38.5t-39 -26.5t-51 -10t-51 10t-39 26.5t-24.5 38.5t-8.5 47h21q0 -21 7 -39.5t20.5 -32.5t32.5 -22.5t42 -8.5q24 0 43 8.5t32.5 22.5t20.5 32.5t7 39.5
q0 43 -27.5 72.5t-75.5 29.5q-65 0 -90 -55h-23v221z" />
    <glyph glyph-name="sixsuperior" unicode="&#x2076;" horiz-adv-x="349" 
d="M173 310q-28 0 -51 10t-39 26.5t-24.5 38.5t-8.5 47q0 37 19 69l124 199h24l-103 -165q9 11 25.5 15.5t33.5 4.5q28 0 51 -10t39 -26.5t25 -39t9 -47.5t-9 -47t-25 -38.5t-39 -26.5t-51 -10zM173 329q24 0 43 8.5t32.5 22.5t20.5 32.5t7 39.5q0 43 -27.5 73.5t-75.5 30.5
q-47 0 -74.5 -30.5t-27.5 -73.5q0 -21 7 -39.5t20.5 -32.5t32.5 -22.5t42 -8.5z" />
    <glyph glyph-name="sevensuperior" unicode="&#x2077;" horiz-adv-x="301" 
d="M274 700l-187 -385h-23l179 366h-192v19h223z" />
    <glyph glyph-name="eightsuperior" unicode="&#x2078;" horiz-adv-x="367" 
d="M183 310q-57 0 -90 30t-33 77q0 35 20.5 62.5t61.5 34.5q-38 7 -57 32t-19 57q0 45 31.5 73.5t85.5 28.5t86 -28.5t32 -73.5q0 -32 -19 -57t-57 -32q41 -7 61.5 -34.5t20.5 -62.5q0 -47 -33.5 -77t-90.5 -30zM183 522q46 0 71.5 23t25.5 58q0 36 -26 59.5t-71 23.5
q-44 0 -69.5 -23.5t-25.5 -59.5q0 -35 25 -58t70 -23zM183 329q48 0 75.5 25t27.5 63t-27 62.5t-76 24.5q-48 0 -75 -24.5t-27 -62.5t27 -63t75 -25z" />
    <glyph glyph-name="ninesuperior" unicode="&#x2079;" horiz-adv-x="349" 
d="M176 705q28 0 50.5 -10t38.5 -26.5t25 -38.5t9 -47q0 -20 -5.5 -37t-14.5 -32l-124 -199h-24l104 165q-9 -11 -25.5 -15.5t-33.5 -4.5q-29 0 -51.5 10t-39 26.5t-25 39t-8.5 47.5t8.5 47t25 38.5t39 26.5t51.5 10zM176 686q-24 0 -43 -8.5t-32.5 -22.5t-20.5 -32.5
t-7 -39.5q0 -43 27.5 -73.5t75.5 -30.5q47 0 74.5 30.5t27.5 73.5q0 21 -7 39.5t-20.5 32.5t-32.5 22.5t-42 8.5z" />
    <glyph glyph-name="plussuperior" unicode="&#x207a;" horiz-adv-x="369" 
d="M175 365v97h-97v19h97v97h20v-97h96v-19h-96v-97h-20z" />
    <glyph glyph-name="minussuperior" unicode="&#x207b;" horiz-adv-x="370" 
d="M74 464v18h222v-18h-222z" />
    <glyph glyph-name="equalsuperior" unicode="&#x207c;" horiz-adv-x="370" 
d="M74 510v18h222v-18h-222zM74 413v19h222v-19h-222z" />
    <glyph glyph-name="parenleftsuperior" unicode="&#x207d;" horiz-adv-x="235" 
d="M205 733q-23 0 -42 -8.5t-32.5 -22.5t-20.5 -33t-7 -40v-321q0 -42 27.5 -72.5t74.5 -30.5v-20q-28 0 -51 10t-39 27t-24.5 39t-8.5 47v321q0 25 8.5 47.5t24.5 39t39 26.5t51 10v-19z" />
    <glyph glyph-name="parenrightsuperior" unicode="&#x207e;" horiz-adv-x="235" 
d="M30 752q28 0 50.5 -10t38.5 -26.5t25 -39t9 -47.5v-321q0 -25 -9 -47t-25 -39t-38.5 -27t-50.5 -10v20q47 0 74.5 30.5t27.5 72.5v321q0 21 -7 40t-20.5 33t-32.5 22.5t-42 8.5v19z" />
    <glyph glyph-name="nsuperior" unicode="&#x207f;" horiz-adv-x="366" 
d="M79 550h20v-64q9 28 34.5 48.5t63.5 20.5q46 0 70 -26q25 -27 25 -77v-137h-20v132q0 38 -19 64t-61 26q-23 0 -40.5 -9.5t-29 -24.5t-17.5 -33t-6 -35v-120h-20v235z" />
    <glyph glyph-name="zeroinferior" unicode="&#x2080;" horiz-adv-x="377" 
d="M65 -8v54.5t1 30.5q2 24 11 44.5t25 36.5t37.5 25t48.5 9q28 0 51 -10t39 -26.5t25 -39t9 -47.5q-1 -42 -1 -76v-85q0 -24 -9.5 -44.5t-25.5 -36.5t-38.5 -25t-49.5 -9q-28 0 -51 10t-39 26.5t-24.5 39t-8.5 47.5v76zM291 69q0 21 -7 40t-20.5 33t-32.5 22.5t-43 8.5
q-23 0 -42 -8.5t-32.5 -22.5t-20.5 -33t-7 -40v-153q0 -21 7 -40t20.5 -33t32.5 -22.5t42 -8.5q24 0 43 8.5t32.5 22.5t20.5 33t7 40v153z" />
    <glyph glyph-name="oneinferior" unicode="&#x2081;" horiz-adv-x="224" 
d="M125 114q-10 -13 -28.5 -17t-47.5 -4v20q27 0 42.5 4t23 12.5t9 22t1.5 33.5h20v-385h-20v314z" />
    <glyph glyph-name="twoinferior" unicode="&#x2082;" horiz-adv-x="349" 
d="M56 -200q0 45 7 75.5t21.5 51.5t37.5 34.5t55 24.5q20 7 37.5 15t30 19t20 27.5t7.5 39.5q0 35 -24 59.5t-71 24.5t-73.5 -28.5t-26.5 -72.5h-21q0 52 33 86t88 34q56 0 86 -29t30 -75q0 -27 -9 -46.5t-24 -33t-34 -22t-39 -15.5q-31 -11 -51.5 -23.5t-33 -30t-18 -41
t-5.5 -55.5h218v-19h-241v0z" />
    <glyph glyph-name="threeinferior" unicode="&#x2083;" horiz-adv-x="355" 
d="M69 -95q0 -41 28 -66t74 -25q48 0 75 25t27 63t-26 62.5t-73 24.5h-31v19h31q44 0 68.5 22.5t24.5 58.5q0 37 -25.5 59.5t-70.5 22.5t-70.5 -23.5t-25.5 -61.5h-21q0 47 31.5 75.5t84.5 28.5t85 -28t32 -73q0 -35 -19.5 -59.5t-56.5 -30.5q39 -7 61 -33.5t22 -63.5
q0 -48 -34 -77.5t-89 -29.5t-89 30t-34 80h21z" />
    <glyph glyph-name="fourinferior" unicode="&#x2084;" horiz-adv-x="355" 
d="M220 -58h-150v243h21v-223h129v126h21v-126h69v-20h-69v-142h-21v142z" />
    <glyph glyph-name="fiveinferior" unicode="&#x2085;" horiz-adv-x="379" 
d="M80 185h211v-19h-191v-179q12 24 38 37.5t57 13.5q28 0 50.5 -9.5t38.5 -26t24.5 -38.5t8.5 -47t-9 -47t-25 -38.5t-39 -26.5t-51 -10t-51 10t-39 26.5t-24.5 38.5t-8.5 47h21q0 -21 7 -39.5t20.5 -32.5t32.5 -22.5t42 -8.5q24 0 43 8.5t32.5 22.5t20.5 32.5t7 39.5
q0 43 -27.5 72.5t-75.5 29.5q-65 0 -90 -55h-23v221z" />
    <glyph glyph-name="sixinferior" unicode="&#x2086;" horiz-adv-x="349" 
d="M173 -205q-28 0 -51 10t-39 26.5t-24.5 38.5t-8.5 47q0 37 19 69l124 199h24l-103 -165q9 11 25.5 15.5t33.5 4.5q28 0 51 -10t39 -26.5t25 -39t9 -47.5t-9 -47t-25 -38.5t-39 -26.5t-51 -10zM173 -186q24 0 43 8.5t32.5 22.5t20.5 32.5t7 39.5q0 43 -27.5 73.5
t-75.5 30.5q-47 0 -74.5 -30.5t-27.5 -73.5q0 -21 7 -39.5t20.5 -32.5t32.5 -22.5t42 -8.5z" />
    <glyph glyph-name="seveninferior" unicode="&#x2087;" horiz-adv-x="301" 
d="M274 185l-187 -385h-23l179 366h-192v19h223z" />
    <glyph glyph-name="eightinferior" unicode="&#x2088;" horiz-adv-x="367" 
d="M183 -205q-57 0 -90 30t-33 77q0 35 20.5 62.5t61.5 34.5q-38 7 -57 32t-19 57q0 45 31.5 73.5t85.5 28.5t86 -28.5t32 -73.5q0 -32 -19 -57t-57 -32q41 -7 61.5 -34.5t20.5 -62.5q0 -47 -33.5 -77t-90.5 -30zM183 7q46 0 71.5 23t25.5 58q0 36 -26 59.5t-71 23.5
q-44 0 -69.5 -23.5t-25.5 -59.5q0 -35 25 -58t70 -23zM183 -186q48 0 75.5 25t27.5 63t-27 62.5t-76 24.5q-48 0 -75 -24.5t-27 -62.5t27 -63t75 -25z" />
    <glyph glyph-name="nineinferior" unicode="&#x2089;" horiz-adv-x="349" 
d="M176 190q28 0 50.5 -10t38.5 -26.5t25 -38.5t9 -47q0 -20 -5.5 -37t-14.5 -32l-124 -199h-24l104 165q-9 -11 -25.5 -15.5t-33.5 -4.5q-29 0 -51.5 10t-39 26.5t-25 39t-8.5 47.5t8.5 47t25 38.5t39 26.5t51.5 10zM176 171q-24 0 -43 -8.5t-32.5 -22.5t-20.5 -32.5
t-7 -39.5q0 -43 27.5 -73.5t75.5 -30.5q47 0 74.5 30.5t27.5 73.5q0 21 -7 39.5t-20.5 32.5t-32.5 22.5t-42 8.5z" />
    <glyph glyph-name="parenleftinferior" unicode="&#x208d;" horiz-adv-x="235" 
d="M205 218q-23 0 -42 -8.5t-32.5 -22.5t-20.5 -33t-7 -40v-321q0 -42 27.5 -72.5t74.5 -30.5v-20q-28 0 -51 10t-39 27t-24.5 39t-8.5 47v321q0 25 8.5 47.5t24.5 39t39 26.5t51 10v-19z" />
    <glyph glyph-name="parenrightinferior" unicode="&#x208e;" horiz-adv-x="235" 
d="M30 237q28 0 50.5 -10t38.5 -26.5t25 -39t9 -47.5v-321q0 -25 -9 -47t-25 -39t-38.5 -27t-50.5 -10v20q47 0 74.5 30.5t27.5 72.5v321q0 21 -7 40t-20.5 33t-32.5 22.5t-42 8.5v19z" />
    <glyph glyph-name="Euro" unicode="&#x20ac;" horiz-adv-x="631" 
d="M553 209q0 -44 -15.5 -83.5t-44.5 -69.5t-69.5 -47.5t-91.5 -17.5q-50 0 -90 17.5t-68.5 47.5t-44 69.5t-15.5 83.5v42h-66l5 20h61v151h-61l5 20h56v45q0 45 15.5 84.5t44 69.5t68.5 47.5t90 17.5q51 0 91.5 -17.5t69.5 -47.5t44.5 -69.5t15.5 -84.5h-20q0 40 -14 76.5
t-40.5 63.5t-63.5 43t-83 16q-45 0 -81.5 -16t-62.5 -43t-40 -63.5t-14 -76.5v-45h289l-5 -20h-284v-151h284l-5 -20h-279v-42q0 -40 14 -76t40 -63t62.5 -43t81.5 -16q46 0 83 16t63.5 43t40.5 63t14 76h20z" />
    <glyph glyph-name="afii61289" unicode="&#x2113;" horiz-adv-x="349" 
d="M222 -9q-9 0 -23 1t-29.5 6.5t-31 16t-28 30.5t-20.5 50.5t-8 74.5v16q-15 -14 -31 -28.5t-33 -29.5l-13 15l77 70v294q0 50 5 89t18.5 66t38.5 41t64 14q60 0 92 -39.5t32 -124.5q0 -37 -13.5 -74.5t-41.5 -79t-71.5 -89.5t-103.5 -105v-35q0 -59 13 -91t31.5 -47
t39.5 -18t36 -3q32 0 56.5 15t37.5 33l17 -10q-8 -10 -17 -20.5t-21.5 -18.5t-30 -13.5t-42.5 -5.5zM208 697q-63 0 -84.5 -50t-21.5 -140v-275q55 53 95 97.5t65.5 83t37.5 73t12 67.5q0 75 -26 109.5t-78 34.5z" />
    <glyph glyph-name="afii61352" unicode="&#x2116;" horiz-adv-x="1026" 
d="M546 31v669h20v-700h-24l-429 669v-669h-20v700h24zM816 350q-41 0 -73.5 14t-56 38.5t-36 56.5t-12.5 68t12.5 68.5t36 57t56 39t73.5 14.5t74.5 -14.5t57 -39t36 -57t12.5 -68.5t-12.5 -68t-36 -56.5t-57 -38.5t-74.5 -14zM816 370q37 0 66.5 12.5t50.5 34t32 50
t11 60.5t-11 61t-32 50.5t-50.5 34.5t-66.5 13q-36 0 -65 -13t-50 -34.5t-32 -50.5t-11 -61t11 -60.5t32 -50t50 -34t65 -12.5zM638 280v20h358v-20h-358z" />
    <glyph glyph-name="trademark" unicode="&#x2122;" horiz-adv-x="793" 
d="M392 700h20l160 -380l161 380h20v-407h-20v356l-151 -356h-20l-150 356v-356h-20v407zM290 700v-20h-115v-387h-20v387h-115v20h250z" />
    <glyph glyph-name="uni2126" unicode="&#x2126;" horiz-adv-x="724" 
d="M362 693q-69 0 -123.5 -22.5t-92.5 -62t-58 -93.5t-20 -117q0 -55 20 -106t55 -92t83 -68.5t105 -36.5v-95h-255v20h235v58q-57 12 -105 42t-83.5 73t-55 95.5t-19.5 109.5q0 67 21.5 125t62 100t98.5 66t132 24q73 0 131.5 -24t99 -66t62 -100t21.5 -125
q0 -57 -19.5 -109.5t-55 -95.5t-83.5 -73t-105 -42v-58h235v-20h-255v95q57 9 105 36.5t83 68.5t55 92t20 106q0 63 -20 117t-58 93.5t-92.5 62t-123.5 22.5z" />
    <glyph glyph-name="estimated" unicode="&#x212e;" horiz-adv-x="507" 
d="M431 241q0 54 -30 98v-104h30v6zM258 408q-44 0 -78 -14.5t-57 -40.5v-118h258v124q-24 23 -55.5 36t-67.5 13zM123 215v-147q23 -26 57.5 -41.5t80.5 -15.5q32 0 58.5 8.5t47.5 22.5t35 32.5t21 39.5h21q-7 -25 -22.5 -47t-38.5 -39t-54 -27t-68 -10q-53 0 -92 18
t-64.5 48.5t-38.5 70t-13 82.5q0 47 13.5 87t40 69t64.5 45.5t87 16.5q42 0 77.5 -14.5t61 -40t40 -59.5t14.5 -73v-11.5t-1 -14.5h-327zM103 330q-15 -26 -22.5 -56.5t-7.5 -63.5q0 -32 7.5 -62.5t22.5 -57.5v240z" />
    <glyph glyph-name="arrowleft" unicode="&#x2190;" 
d="M-70 350l244 216l14 -15l-215 -191h657v-20h-657l215 -191l-14 -15z" />
    <glyph glyph-name="arrowup" unicode="&#x2191;" 
d="M280 700l216 -244l-15 -14l-191 215v-657h-20v657l-191 -215l-15 14z" />
    <glyph glyph-name="arrowright" unicode="&#x2192;" 
d="M630 349l-244 -216l-14 15l215 191h-657v20h657l-215 191l14 15z" />
    <glyph glyph-name="arrowdown" unicode="&#x2193;" 
d="M280 0l-216 244l15 14l191 -215v657h20v-657l191 215l15 -14z" />
    <glyph glyph-name="uni2196" unicode="&#x2196;" 
d="M29 597l325 -19l-1 -21l-287 17l465 -464l-15 -15l-464 465l17 -287l-21 -1z" />
    <glyph glyph-name="uni2197" unicode="&#x2197;" 
d="M531 597l-19 -325l-21 1l17 287l-464 -465l-15 15l465 464l-287 -17l-1 21z" />
    </font>
</defs>
</svg>
