<svg xmlns="http://www.w3.org/2000/svg">
<defs>
<font id="b32821793b252cd242f6829cb0ea5cd7" horiz-adv-x='1024' >
  <font-face 
    font-family="GTWalsheimProBold-Oblique"
    font-weight="700"
    font-style="oblique"
    font-stretch="normal"
    units-per-em="1000"
    panose-1="2 0 5 3 4 0 0 9 0 3"
    ascent="750"
    descent="-250"
    x-height="482"
    cap-height="700"
    bbox="-150 -321 1269.82 1002"
    underline-thickness="50"
    underline-position="-50"
    slope="-6"
    unicode-range="U+0020-FB04"
  />
<missing-glyph horiz-adv-x="800" 
d="M473 717q80 0 141 -27.5t102.5 -73t63 -105.5t21.5 -125q0 -77 -29 -150t-81.5 -129t-126 -90t-162.5 -34q-80 0 -141.5 27.5t-103 73t-63 105.5t-21.5 125q0 77 29 149.5t82 129t126.5 90.5t162.5 34zM473 695q-42 0 -79 -8t-67 -21t-59 -32t-55 -44
q-25 -24 -44.5 -52.5t-33.5 -57.5q-17 -35 -25.5 -66.5t-12.5 -63.5q-7 -66 11 -129q8 -32 22 -59.5t33 -50.5q20 -24 43.5 -43t54.5 -33q64 -29 140 -29t145 29q34 14 61 32.5t53 43.5q49 48 79 110q15 31 27 67.5t12 92.5q0 26 -3 51t-9 48q-8 29 -22 57t-34 53
q-40 48 -98 76q-63 29 -139 29zM192 228q12 -8 31 -20t42.5 -23.5t51 -19.5t56.5 -8q42 4 82 8q34 4 70 8t62 7q-18 -23 -41.5 -44.5t-61.5 -39.5q-30 -14 -60 -22t-53 -8q-47 0 -91.5 37.5t-87.5 124.5zM247 259l207 268l-136 -243h178l-2 -25h-247zM248 169q12 -21 29 -36
t36 -24t36.5 -13t31.5 -4q22 0 49 9t51 20t41.5 21t21.5 13q-35 -7 -78.5 -15t-87.5 -8q-15 0 -33.5 1.5t-36 5.5t-33.5 11.5t-27 18.5zM551 496q0 20 14 33.5t32 13.5q17 0 28 -11t11 -28q0 -19 -14 -33t-33 -14q-17 0 -27.5 11.5t-10.5 27.5zM254 496q0 20 14 33.5
t32 13.5q17 0 28 -11t11 -28q0 -19 -14 -33t-33 -14q-17 0 -27.5 11.5t-10.5 27.5zM617 161q4 9 4 18q0 7 -2 13q-2 5 -3 5q-2 2 -1.5 1.5t-1.5 0.5q-3 1 -2.5 1t-1.5 1l-13 5q-7 4 -15 8t-16 11q-11 9 -16 20l-2 11q-2 7 -2.5 8t0.5 6q-1 8 -1.5 15.5t0.5 15.5q2 5 2.5 10
t2.5 9l14 -5q0 -2 -1 -4.5t-1 -5.5l-1 -13q0 -7 -0.5 -14t1.5 -13q1 -2 1.5 -6t2.5 -6q2 -6 7.5 -12t9.5 -8q8 -5 15.5 -8t9.5 -5l14 -6q2 -1 3 -2l3 -3q6 -5 5.5 -5.5t1.5 -3.5q3 -9 3 -19q0 -13 -4 -24zM154 207q1 5 1.5 10t2.5 10q4 13 11 20q4 4 6 5t5 3l11 7

<glyph glyph-name="IJ" unicode="IJ" horiz-adv-x="881" 
d="M141 700h164l-74 -700h-164zM847 241q-13 -124 -87 -191t-194 -67q-67 0 -113.5 20.5t-74 55.5t-38 82.5t-5.5 100.5h162q-5 -53 14.5 -86.5t67.5 -33.5q45 0 72.5 31.5t33.5 87.5l48 459h162z" />
    <glyph glyph-name="ij" unicode="ij" horiz-adv-x="561" 
d="M388 634q0 22 8.5 41t23.5 33t34.5 22.5t41.5 8.5q40 0 65 -25.5t25 -62.5q0 -22 -9 -41t-24 -33.5t-34.5 -23t-41.5 -8.5q-40 0 -64.5 26t-24.5 63zM110 634q0 22 8.5 41t23.5 33t34.5 22.5t41.5 8.5q40 0 65 -25.5t25 -62.5q0 -22 -9 -41t-24 -33.5t-34.5 -23
t-41.5 -8.5q-40 0 -64.5 26t-24.5 63zM269 482l-51 -482h-153l51 482h153zM488 -75q-5 -47 -18.5 -77.5t-33 -47.5t-44.5 -23.5t-53 -6.5q-26 0 -55 3.5t-43 8.5l12 114q14 -4 21.5 -5t13.5 -1q23 0 34 11t14 37l57 544h154z" />
    <glyph glyph-name="uniFB00" unicode="ff" horiz-adv-x="761" 
d="M810 588q-11 3 -22 4.5t-26 1.5q-12 0 -23.5 -1.5t-21 -8t-16.5 -18.5t-9 -33l-5 -51h112l-12 -114h-112l-39 -368h-153l39 368h-86l12 114h86l4 42q6 66 28 103t50.5 56t60 23.5t56.5 4.5q35 0 55.5 -4t33.5 -9zM430 588q-11 3 -21.5 4.5t-26.5 1.5q-12 0 -24 -1.5
t-21.5 -8t-16.5 -18.5t-9 -33l-5 -51h113l-12 -114h-112l-39 -368h-153l39 368h-87l12 114h87l4 42q6 66 28 103t50.5 56t59.5 23.5t56 4.5q35 0 55.5 -4t34.5 -9z" />
    <glyph glyph-name="fi" unicode="fi" horiz-adv-x="698" 
d="M510 633q0 21 8.5 40t23 33t33.5 22t40 8q38 0 62.5 -25t24.5 -61q0 -21 -8.5 -40t-23 -33t-33.5 -22t-40 -8q-38 0 -62.5 25t-24.5 61zM429 588q-11 3 -22 4.5t-26 1.5q-12 0 -23.5 -1.5t-21 -8t-16.5 -18.5t-9 -33l-5 -51h112l-12 -114h-112l-39 -368h-153l39 368h-86
l12 114h86l4 42q6 66 28 103t50.5 56t60 23.5t56.5 4.5q35 0 55.5 -4t33.5 -9zM513 482h153l-51 -482h-153z" />
    <glyph glyph-name="fl" unicode="fl" horiz-adv-x="662" 
d="M518 700h153l-74 -700h-153zM429 588q-11 3 -22 4.5t-26 1.5q-12 0 -23.5 -1.5t-21 -8t-16.5 -18.5t-9 -33l-5 -51h112l-12 -114h-112l-39 -368h-153l39 368h-86l12 114h86l4 42q6 66 28 103t50.5 56t60 23.5t56.5 4.5q35 0 55.5 -4t33.5 -9z" />
    <glyph glyph-name="uniFB03" unicode="ffi" horiz-adv-x="1080" 
d="M889 634q0 22 9 41t24 33t34.5 22.5t41.5 8.5q39 0 63.5 -25.5t24.5 -62.5q0 -22 -8.5 -41t-23.5 -33.5t-34.5 -23t-41.5 -8.5q-39 0 -64 26t-25 63zM810 588q-11 3 -22 4.5t-26 1.5q-12 0 -23.5 -1.5t-21 -8t-16.5 -18.5t-9 -33l-5 -51h112l-12 -114h-112l-39 -368h-153
l39 368h-86l12 114h86l4 42q6 66 28 103t50.5 56t60 23.5t56.5 4.5q35 0 55.5 -4t33.5 -9zM430 588q-11 3 -21.5 4.5t-26.5 1.5q-12 0 -24 -1.5t-21.5 -8t-16.5 -18.5t-9 -33l-5 -51h113l-12 -114h-112l-39 -368h-153l39 368h-87l12 114h87l4 42q6 66 28 103t50.5 56
t59.5 23.5t56 4.5q35 0 55.5 -4t34.5 -9zM895 482h153l-51 -482h-153z" />
    <glyph glyph-name="uniFB04" unicode="ffl" horiz-adv-x="1041" 
d="M900 700h153l-74 -700h-153zM810 588q-11 3 -22 4.5t-26 1.5q-12 0 -23.5 -1.5t-21 -8t-16.5 -18.5t-9 -33l-5 -51h112l-12 -114h-112l-39 -368h-153l39 368h-86l12 114h86l4 42q6 66 28 103t50.5 56t60 23.5t56.5 4.5q35 0 55.5 -4t33.5 -9zM430 588q-11 3 -21.5 4.5
t-26.5 1.5q-12 0 -24 -1.5t-21.5 -8t-16.5 -18.5t-9 -33l-5 -51h113l-12 -114h-112l-39 -368h-153l39 368h-87l12 114h87l4 42q6 66 28 103t50.5 56t59.5 23.5t56 4.5q35 0 55.5 -4t34.5 -9z" />
    <glyph glyph-name=".notdef" horiz-adv-x="800" 
d="M473 717q80 0 141 -27.5t102.5 -73t63 -105.5t21.5 -125q0 -77 -29 -150t-81.5 -129t-126 -90t-162.5 -34q-80 0 -141.5 27.5t-103 73t-63 105.5t-21.5 125q0 77 29 149.5t82 129t126.5 90.5t162.5 34zM473 695q-42 0 -79 -8t-67 -21t-59 -32t-55 -44
q-25 -24 -44.5 -52.5t-33.5 -57.5q-17 -35 -25.5 -66.5t-12.5 -63.5q-7 -66 11 -129q8 -32 22 -59.5t33 -50.5q20 -24 43.5 -43t54.5 -33q64 -29 140 -29t145 29q34 14 61 32.5t53 43.5q49 48 79 110q15 31 27 67.5t12 92.5q0 26 -3 51t-9 48q-8 29 -22 57t-34 53
q-40 48 -98 76q-63 29 -139 29zM192 228q12 -8 31 -20t42.5 -23.5t51 -19.5t56.5 -8q42 4 82 8q34 4 70 8t62 7q-18 -23 -41.5 -44.5t-61.5 -39.5q-30 -14 -60 -22t-53 -8q-47 0 -91.5 37.5t-87.5 124.5zM247 259l207 268l-136 -243h178l-2 -25h-247zM248 169q12 -21 29 -36
t36 -24t36.5 -13t31.5 -4q22 0 49 9t51 20t41.5 21t21.5 13q-35 -7 -78.5 -15t-87.5 -8q-15 0 -33.5 1.5t-36 5.5t-33.5 11.5t-27 18.5zM551 496q0 20 14 33.5t32 13.5q17 0 28 -11t11 -28q0 -19 -14 -33t-33 -14q-17 0 -27.5 11.5t-10.5 27.5zM254 496q0 20 14 33.5
t32 13.5q17 0 28 -11t11 -28q0 -19 -14 -33t-33 -14q-17 0 -27.5 11.5t-10.5 27.5zM617 161q4 9 4 18q0 7 -2 13q-2 5 -3 5q-2 2 -1.5 1.5t-1.5 0.5q-3 1 -2.5 1t-1.5 1l-13 5q-7 4 -15 8t-16 11q-11 9 -16 20l-2 11q-2 7 -2.5 8t0.5 6q-1 8 -1.5 15.5t0.5 15.5q2 5 2.5 10
t2.5 9l14 -5q0 -2 -1 -4.5t-1 -5.5l-1 -13q0 -7 -0.5 -14t1.5 -13q1 -2 1.5 -6t2.5 -6q2 -6 7.5 -12t9.5 -8q8 -5 15.5 -8t9.5 -5l14 -6q2 -1 3 -2l3 -3q6 -5 5.5 -5.5t1.5 -3.5q3 -9 3 -19q0 -13 -4 -24zM154 207q1 5 1.5 10t2.5 10q4 13 11 20q4 4 6 5t5 3l11 7
q4 2 11.5 5t13.5 5l1 1q5 2 10 8q5 5 5 16v12l-1 20l17 2q-1 -5 -0.5 -10t0.5 -10v-12q0 -8 -2.5 -16t-6.5 -13q-2 -5 -15 -11q-4 -2 -5 -2q-5 -2 -11 -4.5t-11 -5.5q-4 -1 -10 -5q-2 -1 -3 -2t-4 -3q-4 -7 -6 -13l-4 -17h-16zM600 196q1 1 -0.5 -7t-2.5 -8q-3 -1 -10 -1
q7 7 13 16z" />
    <glyph glyph-name=".null" horiz-adv-x="0" 
 />
    <glyph glyph-name="nonmarkingreturn" horiz-adv-x="250" 
 />
    <glyph glyph-name="space" unicode=" " horiz-adv-x="243" 
 />
    <glyph glyph-name="exclam" unicode="!" horiz-adv-x="338" 
d="M161 700h164l-49 -458h-164zM74 78q0 22 9 42.5t24.5 35.5t36.5 24t44 9q21 0 38 -7.5t30 -20t20 -29.5t7 -36q0 -23 -9.5 -43t-25.5 -35.5t-37 -24.5t-44 -9q-42 0 -67.5 27.5t-25.5 66.5z" />
    <glyph glyph-name="quotedbl" unicode="&#x22;" horiz-adv-x="418" 
d="M302 586l13 125h129l-13 -125l-49 -154h-63zM111 586l13 125h128l-13 -125l-48 -154h-64z" />
    <glyph glyph-name="numbersign" unicode="#" horiz-adv-x="590" 
d="M269 288h103l30 124h-103zM345 180h-102l-45 -180h-111l44 180h-86l11 108h101l30 124h-88l12 108h103l44 180h112l-44 -180h103l44 180h111l-44 -180h80l-12 -108h-95l-30 -124h82l-11 -108h-97l-44 -180h-111z" />
    <glyph glyph-name="dollar" unicode="$" horiz-adv-x="606" 
d="M448 715q51 -6 87.5 -26.5t59 -50t31.5 -66.5t5 -77h-162q5 47 -15 74t-63 27q-36 0 -64 -20t-28 -57q0 -33 25 -52.5t66 -34.5q43 -16 83.5 -32.5t71.5 -40.5t50 -58t19 -83t-18.5 -89.5t-51.5 -71t-77.5 -49t-95.5 -23.5l-11 -107h-89l11 107q-47 6 -85.5 25
t-64.5 50.5t-38 74.5t-6 97h162q-6 -56 21 -88.5t77 -32.5q43 0 73 24.5t30 64.5q0 19 -7.5 32.5t-21 24t-32 18.5t-39.5 16q-45 17 -84 34.5t-68 40.5t-45.5 55t-16.5 78q0 48 18 85.5t48.5 64.5t71 43.5t84.5 22.5l11 107h89z" />
    <glyph glyph-name="percent" unicode="%" horiz-adv-x="955" 
d="M697 754l101 -53l-479 -754l-100 53zM258 306q-36 0 -63.5 11t-45 30t-25.5 44.5t-5 53.5l13 125q3 28 16.5 53.5t35 44.5t51.5 30t66 11q37 0 65 -11.5t46 -31t25.5 -44.5t4.5 -52l-13 -125q-3 -28 -16.5 -53.5t-36 -44.5t-52.5 -30t-66 -11zM335 570q2 21 -9.5 36.5
t-33.5 15.5t-36.5 -15.5t-16.5 -36.5l-13 -125q-2 -21 9 -36.5t33 -15.5t37 15.5t17 36.5zM896 130q-3 -28 -16.5 -53.5t-36 -44.5t-52.5 -30t-66 -11t-63.5 11t-45 30t-25.5 44.5t-5 53.5l13 125q3 28 16.5 53.5t35 44.5t51.5 30t66 11q37 0 65 -11.5t46 -31t25.5 -44.5
t4.5 -52zM693 130q-2 -21 9 -36.5t33 -15.5t37 15.5t17 36.5l13 125q2 21 -9.5 36.5t-33.5 15.5t-36.5 -15.5t-16.5 -36.5z" />
    <glyph glyph-name="ampersand" unicode="&#x26;" horiz-adv-x="633" 
d="M384 357h265l-14 -126h-46q-6 -56 -29.5 -101t-61 -77.5t-87.5 -50t-108 -17.5q-48 0 -92 12.5t-77.5 37.5t-53.5 62t-20 85q0 36 11 64t29 50.5t42 39t51 28.5q-36 17 -62 50t-26 91q0 52 22.5 91.5t59.5 65.5t85.5 39.5t99.5 13.5q63 0 107 -18.5t71.5 -49t38 -71
t5.5 -85.5h-162q5 46 -11.5 74t-64.5 28q-40 0 -66 -21t-26 -66q0 -34 19.5 -55.5t72.5 -21.5l-13 -125q-34 0 -57 -8.5t-37 -23t-20 -32.5t-6 -37q0 -23 7.5 -39.5t20 -27.5t29 -16t33.5 -5q43 0 77 30t40 86h-60z" />
    <glyph glyph-name="quotesingle" unicode="'" horiz-adv-x="224" 
d="M110 586l13 125h128l-13 -125l-48 -154h-64z" />
    <glyph glyph-name="parenleft" unicode="(" horiz-adv-x="399" 
d="M429 637q-30 0 -55 -11t-43.5 -30t-30 -44t-14.5 -53l-48 -454q-3 -28 3 -53t21 -44t37.5 -30t52.5 -11l-14 -138q-66 0 -116.5 22t-84 59.5t-48 88t-8.5 106.5l47 454q6 56 31 106.5t66.5 88t96.5 59.5t121 22z" />
    <glyph glyph-name="parenright" unicode=")" horiz-adv-x="399" 
d="M118 775q66 0 117 -22t84.5 -59.5t48 -88t8.5 -106.5l-48 -454q-6 -56 -31 -106.5t-66.5 -88t-97 -59.5t-121.5 -22l15 138q30 0 55.5 11t44 30t30 44t14.5 53l48 454q3 28 -3.5 53t-21.5 44t-38 30t-53 11z" />
    <glyph glyph-name="asterisk" unicode="*" horiz-adv-x="466" 
d="M119 392l108 118l-130 35l37 83l125 -53l4 142h91l-26 -142l136 53l19 -83l-138 -35l84 -118l-81 -53l-66 131l-94 -131z" />
    <glyph glyph-name="plus" unicode="+" 
d="M248 71l16 152h-148l13 123h148l16 152h131l-16 -152h148l-13 -123h-148l-16 -152h-131z" />
    <glyph glyph-name="comma" unicode="," horiz-adv-x="309" 
d="M55 81q0 22 9 42t24.5 35t36.5 24t45 9q44 0 70.5 -31t26.5 -99q0 -100 -60.5 -153t-170.5 -53l7 62q32 0 54.5 7.5t38.5 18.5q16 12 24.5 26.5t11.5 29.5q-2 -2 -10 -5t-22 -3q-37 0 -61 26t-24 64z" />
    <glyph glyph-name="hyphen" unicode="-" horiz-adv-x="317" 
d="M310 236h-253l13 122h253z" />
    <glyph glyph-name="period" unicode="." horiz-adv-x="302" 
d="M59 82q0 22 9 42t24 35t35 23.5t43 8.5q41 0 66.5 -26.5t25.5 -64.5q0 -22 -9 -42t-24 -35t-35.5 -23.5t-42.5 -8.5q-41 0 -66.5 26.5t-25.5 64.5z" />
    <glyph glyph-name="slash" unicode="/" horiz-adv-x="491" 
d="M443 797l118 -53l-437 -816l-118 53z" />
    <glyph glyph-name="zero" unicode="0" horiz-adv-x="616" 
d="M90 465q5 51 28.5 96t62 79.5t90 54.5t112.5 20t108.5 -20t78.5 -54.5t45 -79.5t9 -96l-24 -230q-5 -51 -29 -96t-62.5 -79.5t-90 -54.5t-112.5 -20t-108 20t-78 54.5t-45 79.5t-9 96zM462 465q5 46 -20 79.5t-74 33.5q-24 0 -44.5 -9t-35.5 -24.5t-24.5 -36t-11.5 -43.5
l-24 -230q-2 -23 3 -43.5t17 -36t30 -24.5t42 -9t44 8.5t36 24t25.5 36t12.5 44.5z" />
    <glyph glyph-name="one" unicode="1" horiz-adv-x="405" 
d="M90 577q51 0 84 7.5t53 22.5t29.5 38t12.5 55h143l-74 -700h-165l49 463h-144z" />
    <glyph glyph-name="two" unicode="2" horiz-adv-x="577" 
d="M45 0q9 85 29 143t48.5 98t65.5 68t80 53q33 19 62.5 35.5t52 35t36 40.5t13.5 51q0 37 -20.5 53t-52.5 16q-38 0 -66 -23.5t-33 -78.5h-161q5 48 26 89t55.5 71t82 47t106.5 17q46 0 86.5 -11.5t70.5 -34.5t47 -57.5t17 -81.5q0 -52 -20.5 -92t-51.5 -70.5t-67.5 -53.5
t-68.5 -41q-39 -24 -64 -41.5t-40.5 -32.5t-23 -31t-9.5 -37h300l-14 -131h-486v0z" />
    <glyph glyph-name="three" unicode="3" horiz-adv-x="601" 
d="M219 235q-6 -57 19.5 -88.5t72.5 -31.5q49 0 76.5 31t27.5 76q0 36 -21.5 59t-72.5 23h-63l13 125h63q30 0 50 7.5t32 20.5t16.5 29t4.5 34q0 41 -20.5 57t-54.5 16q-50 0 -71.5 -28t-26.5 -74h-162q5 46 24 86.5t53 71t81.5 48.5t109.5 18q47 0 88.5 -11t72.5 -33.5
t49 -55.5t18 -78q0 -33 -10 -61.5t-27 -50.5t-38.5 -37.5t-45.5 -23.5q42 -16 70 -54t28 -99q0 -53 -23.5 -95t-62.5 -71t-90 -44.5t-106 -15.5q-60 0 -107 18t-77.5 50.5t-44 78.5t-7.5 103h162z" />
    <glyph glyph-name="four" unicode="4" horiz-adv-x="611" 
d="M357 193h-280l53 507h162l-39 -370h118l21 193h161l-21 -193h85l-14 -137h-85l-20 -193h-161z" />
    <glyph glyph-name="five" unicode="5" horiz-adv-x="635" 
d="M143 700h473l-13 -126h-324l-17 -156q23 30 64 47t90 17q51 0 88.5 -18t62 -48.5t37 -69.5t12.5 -81q0 -57 -21 -107.5t-60 -89t-93.5 -61t-121.5 -22.5q-63 0 -110.5 20.5t-78.5 55t-44.5 80.5t-8.5 97h157q-2 -24 3 -45.5t18 -38t32.5 -26t45.5 -9.5q27 0 50 11
t39.5 29t25.5 42t9 51q0 21 -6.5 40.5t-19 34.5t-31.5 23.5t-44 8.5q-66 0 -106 -64h-151z" />
    <glyph glyph-name="six" unicode="6" horiz-adv-x="600" 
d="M300 -14q-59 0 -105 18t-77 49.5t-47 73.5t-16 89q0 48 16 90t44 79l235 315h182l-162 -210q11 -2 21 -4.5t20 -6.5q43 -6 77 -25t57.5 -48t35.5 -66t12 -78q0 -55 -21 -105t-59.5 -88t-92.5 -60.5t-120 -22.5zM312 121q27 0 49.5 10.5t39 28.5t26 42t9.5 51
q0 45 -26 75.5t-74 30.5q-27 0 -49.5 -10.5t-39 -28.5t-25.5 -41.5t-9 -50.5q0 -45 25.5 -76t73.5 -31z" />
    <glyph glyph-name="seven" unicode="7" horiz-adv-x="531" 
d="M612 700l-372 -700h-173l302 564h-275l15 136h503z" />
    <glyph glyph-name="eight" unicode="8" horiz-adv-x="616" 
d="M309 -15q-59 0 -104.5 15.5t-76.5 42t-47 62t-16 75.5q0 33 10 63t28 54.5t42 42t52 25.5q-42 17 -61.5 54.5t-19.5 80.5t19 82t53.5 68.5t83.5 47t110 17.5q55 0 97.5 -14.5t71.5 -39.5t43.5 -58.5t14.5 -70.5q0 -56 -30 -102t-81 -65q22 -7 39.5 -22t30 -35t19 -44
t6.5 -50q0 -44 -19.5 -85.5t-56 -73.5t-89.5 -51t-119 -19zM353 419q23 0 41.5 8t32 21t20.5 30.5t7 35.5q0 32 -21 55.5t-63 23.5q-23 0 -41.5 -8t-32 -21t-20.5 -30t-7 -36q0 -32 21 -55.5t63 -23.5zM320 107q26 0 47.5 8.5t37 23t24 33.5t8.5 40q0 35 -24.5 61.5
t-73.5 26.5q-27 0 -48.5 -8.5t-36.5 -23t-23 -33.5t-8 -40q0 -35 24.5 -61.5t72.5 -26.5z" />
    <glyph glyph-name="nine" unicode="9" horiz-adv-x="600" 
d="M142 0l162 209q-53 3 -94.5 21t-70 48t-43.5 70t-15 87q0 56 21 106.5t59.5 89t92.5 61t120 22.5q59 0 105 -18t77 -49.5t47 -73t16 -88.5q0 -51 -17 -92.5t-43 -77.5l-235 -315h-182zM362 579q-27 0 -50 -10.5t-39.5 -28.5t-25.5 -42t-9 -51q0 -45 26.5 -75.5
t74.5 -30.5q27 0 49.5 10.5t38.5 28.5t25 41.5t9 50.5q0 45 -25.5 76t-73.5 31z" />
    <glyph glyph-name="colon" unicode=":" horiz-adv-x="303" 
d="M93 403q0 22 9 42t24 35t35 23.5t43 8.5q41 0 66.5 -26.5t25.5 -64.5q0 -22 -9 -42t-24 -35t-35.5 -23.5t-42.5 -8.5q-41 0 -66.5 26.5t-25.5 64.5zM59 82q0 22 9 42t24.5 35t35.5 23.5t43 8.5q40 0 66 -26.5t26 -64.5q0 -22 -9 -42t-24.5 -35t-36 -23.5t-42.5 -8.5
q-41 0 -66.5 26.5t-25.5 64.5z" />
    <glyph glyph-name="semicolon" unicode=";" horiz-adv-x="309" 
d="M93 403q0 22 9 42t24 35t35 23.5t43 8.5q41 0 66.5 -26.5t25.5 -64.5q0 -22 -9 -42t-24 -35t-35.5 -23.5t-42.5 -8.5q-41 0 -66.5 26.5t-25.5 64.5zM59 81q0 22 8.5 42t24 35t36.5 24t46 9q44 0 70.5 -31t26.5 -98q0 -101 -61.5 -154t-169.5 -53l7 62q32 0 54.5 7.5
t38.5 18.5q15 12 23.5 26.5t12.5 29.5q-2 -2 -10 -5t-22 -3q-38 0 -61.5 26t-23.5 64z" />
    <glyph glyph-name="less" unicode="&#x3c;" 
d="M65 224l13 120l543 177l-14 -138l-335 -99l314 -99l-15 -139z" />
    <glyph glyph-name="equal" unicode="=" 
d="M126 313l13 122h427l-13 -122h-427zM107 132l13 122h427l-13 -122h-427z" />
    <glyph glyph-name="greater" unicode="&#x3e;" 
d="M53 46l15 139l333 99l-313 99l15 138l505 -177l-12 -120z" />
    <glyph glyph-name="question" unicode="?" horiz-adv-x="542" 
d="M199 218q4 33 10.5 58.5t18 47t30.5 40t49 38.5q14 9 31 20.5t31.5 26.5t24.5 34t10 43q0 35 -21 51t-53 16q-38 0 -65.5 -23.5t-33.5 -78.5h-160q5 48 25.5 89t55 71t82 47t105.5 17q46 0 87 -11.5t71.5 -34t48 -56.5t17.5 -79q0 -41 -14 -72t-33.5 -54.5t-41.5 -39.5
t-38 -28q-20 -15 -34 -27.5t-22.5 -26t-13.5 -30t-7 -38.5h-160zM161 78q0 22 9 42.5t24.5 35.5t36.5 24t44 9q42 0 68.5 -27.5t26.5 -65.5q0 -23 -9.5 -43t-25 -35.5t-36.5 -24.5t-44 -9q-42 0 -68 27.5t-26 66.5z" />
    <glyph glyph-name="at" unicode="@" horiz-adv-x="871" 
d="M444 -194q-101 0 -176.5 31.5t-125.5 84.5t-75.5 123.5t-25.5 148.5q0 102 40 185t107.5 141.5t157 90.5t187.5 32q80 0 147.5 -22t116 -66t76 -110.5t27.5 -155.5q0 -70 -17 -126.5t-47.5 -96t-72.5 -60.5t-92 -21q-62 0 -95.5 29t-44.5 74q-19 -27 -53.5 -46.5
t-79.5 -19.5q-36 0 -67 14t-53.5 39t-35.5 58t-13 72q0 46 18 86.5t47.5 70.5t68 47.5t79.5 17.5q48 0 77.5 -21t40.5 -44l6 56h116l-25 -236q-5 -51 5 -73t33 -22q19 0 35.5 14.5t28.5 40t18.5 60t6.5 75.5q0 69 -19.5 118.5t-54 81.5t-83.5 47t-107 15q-77 0 -143.5 -24.5
t-115 -69t-76.5 -106.5t-28 -138q0 -59 18 -111.5t55 -93t93.5 -64t133.5 -23.5q42 0 97.5 9.5t111.5 37.5l34 -89q-68 -36 -135 -48.5t-121 -12.5zM438 121q23 0 43 9t34.5 24.5t23 36t8.5 43.5q0 39 -23.5 66.5t-65.5 27.5q-23 0 -42.5 -9t-33.5 -25t-22 -36.5t-8 -43.5
q0 -38 22 -65.5t64 -27.5z" />
    <glyph glyph-name="A" unicode="A" horiz-adv-x="660" 
d="M382 500l-117 -288h170zM480 0l-18 85h-249l-36 -85h-173l324 700h149l179 -700h-176z" />
    <glyph glyph-name="B" unicode="B" horiz-adv-x="633" 
d="M137 700h290q64 0 105 -16.5t63.5 -41.5t31 -55t8.5 -56q0 -39 -13.5 -70t-34.5 -52.5t-45.5 -35t-46.5 -18.5q16 0 35.5 -9.5t36.5 -27.5t29 -44.5t12 -60.5q0 -26 -9.5 -62.5t-37 -70t-77 -57t-128.5 -23.5h-293zM365 415q33 0 53.5 9.5t32 23.5t16 30t4.5 29
q0 12 -3.5 25t-13.5 24t-27 18t-45 7h-97l-17 -166h97zM255 296l-18 -172h101q33 0 54 9.5t33 23.5t16 30t4 29t-4 27t-13.5 26t-26.5 19.5t-44 7.5h-102z" />
    <glyph glyph-name="C" unicode="C" horiz-adv-x="788" 
d="M784 251q-16 -56 -50 -105t-83 -85.5t-111 -57.5t-134 -21q-82 0 -145 27t-106 72.5t-65.5 106t-22.5 128.5q0 77 29 149.5t82.5 128.5t130 90t172.5 34q78 0 137.5 -23t100 -62.5t61 -92t21.5 -112.5h-169q-5 65 -47.5 104.5t-117.5 39.5q-54 0 -97.5 -20.5t-74 -55
t-46.5 -78.5t-16 -90q0 -42 13 -78.5t38 -63.5t60.5 -42.5t79.5 -15.5q69 0 117.5 34.5t70.5 88.5h172z" />
    <glyph glyph-name="D" unicode="D" horiz-adv-x="720" 
d="M398 700q81 0 142.5 -26.5t103 -71t62.5 -102t21 -119.5q0 -72 -28 -140.5t-80 -122t-126.5 -86t-168.5 -32.5h-257l74 700h257zM288 560l-44 -420h87q53 0 95.5 19.5t72.5 52t46 73.5t16 85q0 37 -12 71.5t-35.5 60.5t-58.5 42t-80 16h-87z" />
    <glyph glyph-name="E" unicode="E" horiz-adv-x="555" 
d="M289 570l-17 -159h265l-13 -127h-265l-16 -154h265l-14 -130h-427l74 700h427l-14 -130h-265z" />
    <glyph glyph-name="F" unicode="F" horiz-adv-x="550" 
d="M288 564l-20 -189h265l-14 -133h-265l-25 -242h-162l74 700h427l-15 -136h-265z" />
    <glyph glyph-name="G" unicode="G" horiz-adv-x="835" 
d="M493 370h363l-12 -121h-72q-16 -59 -49 -108t-80 -84.5t-107.5 -55t-132.5 -19.5q-84 0 -147.5 26.5t-105.5 72t-63 105t-21 125.5q0 79 29 152.5t82.5 130t128.5 90.5t167 34q69 0 124.5 -19.5t94.5 -53t59.5 -78t19.5 -94.5h-173q-2 21 -12 40t-28 33.5t-43.5 23
t-58.5 8.5q-53 0 -94.5 -22t-70.5 -58t-44 -82t-15 -94q0 -42 11.5 -79t35 -64.5t59 -43.5t83.5 -16q39 0 70 10.5t54 28.5t38 41.5t22 49.5h-124z" />
    <glyph glyph-name="H" unicode="H" horiz-adv-x="699" 
d="M500 278h-242l-29 -278h-162l74 700h162l-30 -283h242l30 283h161l-74 -700h-161z" />
    <glyph glyph-name="I" unicode="I" horiz-adv-x="298" 
d="M141 700h164l-74 -700h-164z" />
    <glyph glyph-name="J" unicode="J" horiz-adv-x="583" 
d="M548 241q-13 -124 -87 -191t-193 -67q-64 0 -110.5 19.5t-75 54t-40 82t-5.5 103.5h162q-5 -53 14.5 -86.5t67.5 -33.5q45 0 72.5 31.5t33.5 87.5l48 459h161z" />
    <glyph glyph-name="K" unicode="K" horiz-adv-x="659" 
d="M260 296l-31 -296h-162l74 700h162l-32 -297l258 297h195l-314 -350l240 -350h-195z" />
    <glyph glyph-name="L" unicode="L" horiz-adv-x="453" 
d="M443 140l-15 -140h-361l74 700h162l-59 -560h199z" />
    <glyph glyph-name="M" unicode="M" horiz-adv-x="877" 
d="M810 0h-158l46 434l-197 -434h-120l-110 434l-46 -434h-158l74 700h187l135 -487l237 487h184z" />
    <glyph glyph-name="N" unicode="N" horiz-adv-x="717" 
d="M515 244l48 456h161l-74 -700h-169l-205 450l-47 -450h-162l74 700h169z" />
    <glyph glyph-name="O" unicode="O" horiz-adv-x="805" 
d="M404 -18q-83 0 -145.5 27.5t-105.5 73t-64.5 106t-21.5 126.5q0 78 29.5 150.5t83 128.5t128.5 90t167 34q82 0 145 -27.5t106 -73t64.5 -106t21.5 -126.5q0 -78 -29.5 -150.5t-83 -129t-128.5 -90t-167 -33.5zM418 128q51 0 93 21t72.5 55t47 78t16.5 91q0 39 -12 75
t-35.5 63.5t-58 44t-79.5 16.5q-51 0 -93 -20.5t-72 -55t-46.5 -78.5t-16.5 -91q0 -39 12 -75t35.5 -63.5t57.5 -44t79 -16.5z" />
    <glyph glyph-name="P" unicode="P" horiz-adv-x="635" 
d="M141 700h293q54 0 96.5 -18.5t72 -50t45 -73t15.5 -88.5q0 -55 -21 -105t-58.5 -88t-89.5 -60.5t-114 -22.5h-131l-20 -194h-162zM374 326q28 0 51 11t39.5 29.5t26 42.5t9.5 50q0 22 -7 42t-20 35t-31.5 23.5t-41.5 8.5h-111l-26 -242h111z" />
    <glyph glyph-name="Q" unicode="Q" horiz-adv-x="805" 
d="M812 385q0 -59 -16.5 -114t-48 -103t-76 -85.5t-100.5 -61.5l51 -81l-149 -72l-72 114q-81 0 -143.5 27.5t-104.5 73.5t-64 106t-22 126q0 78 29.5 150.5t83 128.5t128.5 90t167 34q82 0 145 -27.5t106 -73t64.5 -106t21.5 -126.5zM418 128q51 0 93 21t72.5 55t47 78
t16.5 91q0 39 -12 75t-35.5 63.5t-58 44t-79.5 16.5q-51 0 -93 -20.5t-72 -55t-46.5 -78.5t-16.5 -91q0 -39 12 -75t35.5 -63.5t57.5 -44t79 -16.5z" />
    <glyph glyph-name="R" unicode="R" horiz-adv-x="654" 
d="M374 326q28 0 51 11t39.5 29.5t26 42.5t9.5 50q0 22 -7 42t-20 35t-31.5 23.5t-41.5 8.5h-111l-26 -242h111zM141 700h294q54 0 96.5 -18.5t72 -50t45 -73t15.5 -88.5q0 -41 -11.5 -78.5t-32.5 -69.5t-51.5 -58t-68.5 -43l117 -221h-188l-104 194h-76l-20 -194h-162z" />
    <glyph glyph-name="S" unicode="S" horiz-adv-x="606" 
d="M225 232q-6 -56 21 -88.5t77 -32.5q43 0 72.5 24.5t29.5 64.5q0 19 -7.5 32.5t-20.5 24t-31.5 18.5t-39.5 16q-45 17 -84 34.5t-68 40.5t-45.5 55t-16.5 78q0 54 22.5 95t60 68.5t86 41.5t100.5 14q61 0 106 -18t72.5 -49t39 -71t6.5 -85h-162q5 48 -15 74.5t-62 26.5
q-36 0 -64 -20t-28 -57q0 -33 25 -52.5t66 -34.5q44 -16 84.5 -33t71 -41t49 -57.5t18.5 -82.5q0 -53 -21.5 -96.5t-59.5 -74.5t-90 -48t-112 -17q-61 0 -109 17.5t-79.5 50t-45.5 78.5t-8 104h162z" />
    <glyph glyph-name="T" unicode="T" horiz-adv-x="509" 
d="M232 560h-158l15 140h479l-15 -140h-159l-59 -560h-162z" />
    <glyph glyph-name="U" unicode="U" horiz-adv-x="657" 
d="M129 700h162l-48 -460q-3 -24 3 -45.5t18.5 -37.5t32 -25.5t44.5 -9.5t46 9.5t37.5 25.5t26.5 37.5t13 45.5l48 460h162l-48 -461q-6 -54 -30 -101t-63 -81.5t-91.5 -54.5t-115.5 -20t-111 20t-79.5 54.5t-46 81.5t-8.5 101z" />
    <glyph glyph-name="V" unicode="V" horiz-adv-x="644" 
d="M395 0h-149l-176 700h173l100 -494l203 494h176z" />
    <glyph glyph-name="W" unicode="W" horiz-adv-x="1035" 
d="M565 440l-186 -440h-133l-173 700h171l95 -459l190 459h125l95 -459l190 459h171l-321 -700h-132z" />
    <glyph glyph-name="X" unicode="X" horiz-adv-x="609" 
d="M500 700h179l-245 -350l171 -350h-179l-98 225l-146 -225h-178l245 350l-171 350h178l98 -226z" />
    <glyph glyph-name="Y" unicode="Y" horiz-adv-x="647" 
d="M302 0h-179l157 263l-202 437h189l120 -275l157 275h179z" />
    <glyph glyph-name="Z" unicode="Z" horiz-adv-x="632" 
d="M119 700h572l-403 -564h332l-14 -136h-589l401 564h-314z" />
    <glyph glyph-name="bracketleft" unicode="[" horiz-adv-x="385" 
d="M44 -223l105 998h258l-14 -133h-105l-77 -733h105l-14 -132h-258z" />
    <glyph glyph-name="backslash" unicode="\" horiz-adv-x="491" 
d="M481 -19l-130 -53l-265 816l130 53z" />
    <glyph glyph-name="bracketright" unicode="]" horiz-adv-x="385" 
d="M37 -223l14 132h105l77 732h-105l14 134h258l-105 -998h-258z" />
    <glyph glyph-name="asciicircum" unicode="^" horiz-adv-x="636" 
d="M477 300l-99 271l-158 -271h-146l279 450h87l186 -450h-149z" />
    <glyph glyph-name="underscore" unicode="_" horiz-adv-x="583" 
d="M8 -132l10 92h540l-10 -92h-540z" />
    <glyph glyph-name="grave" unicode="`" horiz-adv-x="513" 
d="M149 631l59 106l263 -128l-59 -106z" />
    <glyph glyph-name="a" unicode="a" horiz-adv-x="635" 
d="M316 118q27 0 50.5 11t41 29.5t27 43t9.5 51.5q0 46 -27.5 78.5t-76.5 32.5q-27 0 -50.5 -11t-41 -30t-27 -43.5t-9.5 -51.5q0 -45 27.5 -77.5t76.5 -32.5zM621 482l-51 -482h-153l8 68q-23 -34 -65.5 -57t-96.5 -23q-45 0 -82.5 17t-64.5 47.5t-42 72.5t-15 91
q0 58 20.5 109t55.5 88.5t81.5 59t98.5 21.5q56 0 93 -23.5t53 -57.5l7 69h153z" />
    <glyph glyph-name="b" unicode="b" horiz-adv-x="637" 
d="M218 0h-153l74 700h153l-31 -287q23 34 65.5 57.5t97.5 23.5q45 0 82.5 -17t64.5 -47.5t42 -72.5t15 -91q0 -58 -20.5 -109t-55.5 -88.5t-81.5 -59t-98.5 -21.5q-57 0 -94.5 23.5t-52.5 56.5zM346 118q27 0 50.5 11t41 29.5t27 43t9.5 51.5q0 45 -27 78t-77 33
q-27 0 -50.5 -11t-40.5 -30t-26.5 -43.5t-9.5 -51.5q0 -45 27 -77.5t76 -32.5z" />
    <glyph glyph-name="c" unicode="c" horiz-adv-x="575" 
d="M419 293q0 29 -19.5 50.5t-64.5 21.5q-32 0 -55.5 -11.5t-38.5 -31t-22.5 -44t-7.5 -51.5q0 -23 5.5 -43t17.5 -35t31.5 -23.5t47.5 -8.5q40 0 61.5 17.5t33.5 46.5h153q-10 -42 -32.5 -77.5t-56.5 -61.5t-78.5 -40.5t-98.5 -14.5q-61 0 -105.5 18.5t-74 50t-44 73
t-14.5 87.5q0 54 19 104t55.5 89t90.5 62.5t124 23.5q59 0 102 -17t71 -45t41 -64.5t12 -75.5h-153z" />
    <glyph glyph-name="d" unicode="d" horiz-adv-x="635" 
d="M316 118q27 0 50.5 11t41 29.5t27 43t9.5 51.5q0 46 -27.5 78.5t-76.5 32.5q-27 0 -50.5 -11t-41 -30t-27 -43.5t-9.5 -51.5q0 -45 27.5 -77.5t76.5 -32.5zM425 68q-23 -34 -65.5 -57t-96.5 -23q-45 0 -82.5 17t-64.5 47.5t-42 72.5t-15 91q0 58 20.5 109t55.5 88.5
t81.5 59t98.5 21.5q56 0 93 -23.5t53 -57.5l30 287h153l-74 -700h-153z" />
    <glyph glyph-name="e" unicode="e" horiz-adv-x="577" 
d="M207 204q-1 -20 2 -39t13.5 -34t29.5 -24.5t50 -9.5q42 0 63.5 16t32.5 39h150q-9 -34 -30.5 -64t-54.5 -52.5t-76 -35.5t-95 -13q-58 0 -102 16.5t-73.5 46.5t-44.5 71.5t-15 91.5q0 58 19.5 109t55.5 89.5t88 61t118 22.5q55 0 98 -16t72 -43.5t44.5 -65.5t15.5 -82
q0 -23 -4 -42.5t-10 -41.5h-347zM329 393q-43 0 -75.5 -25.5t-37.5 -75.5h202q5 49 -20.5 75t-68.5 26z" />
    <glyph glyph-name="f" unicode="f" horiz-adv-x="380" 
d="M430 588q-11 3 -21.5 4.5t-26.5 1.5q-12 0 -24 -1.5t-21.5 -8t-16.5 -18.5t-9 -33l-5 -51h113l-12 -114h-112l-39 -368h-153l39 368h-87l12 114h87l4 42q6 66 28 103t50.5 56t59.5 23.5t56 4.5q35 0 55.5 -4t34.5 -9z" />
    <glyph glyph-name="g" unicode="g" horiz-adv-x="633" 
d="M341 364q-27 0 -50.5 -11t-41 -30t-27 -43.5t-9.5 -51.5q0 -45 27.5 -77.5t76.5 -32.5q27 0 50.5 11t40.5 29.5t27 43t10 51.5q0 45 -27.5 78t-76.5 33zM572 3q-7 -66 -30.5 -109.5t-64.5 -72.5q-37 -26 -85.5 -39t-112.5 -13q-71 0 -115 15t-71 41q-30 28 -44 64.5
t-11 73.5h153q0 -33 24 -57t77 -24t87 27.5t39 81.5l8 81q-23 -32 -64.5 -53.5t-95.5 -21.5q-46 0 -84 16t-65.5 45.5t-42.5 70t-15 90.5q0 57 20 107t55 87.5t81.5 59t100.5 21.5q57 0 93.5 -23t52.5 -58l7 69h153z" />
    <glyph glyph-name="h" unicode="h" horiz-adv-x="597" 
d="M139 700h148l-31 -288q25 38 67 60t99 22q48 0 77.5 -15t46.5 -40q20 -29 24 -65.5t-1 -88.5l-30 -285h-148l26 247q5 51 -10 84t-62 33q-48 0 -74.5 -33t-32.5 -89l-25 -242h-148z" />
    <glyph glyph-name="i" unicode="i" horiz-adv-x="283" 
d="M110 634q0 22 8.5 41t23.5 33t34.5 22.5t41.5 8.5q40 0 65 -25.5t25 -62.5q0 -22 -9 -41t-24 -33.5t-34.5 -23t-41.5 -8.5q-40 0 -64.5 26t-24.5 63zM116 482h153l-51 -482h-153z" />
    <glyph glyph-name="j" unicode="j" horiz-adv-x="283" 
d="M110 634q0 22 8.5 41t23.5 33t34.5 22.5t41.5 8.5q40 0 65 -25.5t25 -62.5q0 -22 -9 -41t-24 -33.5t-34.5 -23t-41.5 -8.5q-40 0 -64.5 26t-24.5 63zM210 -75q-5 -46 -18.5 -76t-33.5 -47.5t-46 -24.5t-56 -7q-26 0 -53 3.5t-40 8.5l12 117q14 -2 22 -2.5t17 -0.5
q39 0 45 49l56 537h154z" />
    <glyph glyph-name="k" unicode="k" horiz-adv-x="554" 
d="M386 241l162 -241h-182l-127 202l-21 -202h-153l74 700h153l-45 -422l171 204h182z" />
    <glyph glyph-name="l" unicode="l" horiz-adv-x="283" 
d="M139 700h153l-74 -700h-153z" />
    <glyph glyph-name="m" unicode="m" horiz-adv-x="878" 
d="M671 0l27 260q5 49 -9.5 76.5t-53.5 27.5q-35 0 -60.5 -26t-33.5 -96l-25 -242h-148l27 261q5 49 -9 76t-53 27q-17 0 -32.5 -6t-28.5 -20.5t-21.5 -38.5t-12.5 -60l-25 -239h-148l51 482h148l-8 -70q21 35 59.5 58.5t93.5 23.5q54 0 87.5 -24t44.5 -63q25 40 66 63.5
t100 23.5q49 0 79 -16.5t45.5 -44t18.5 -63t-1 -73.5l-31 -297h-147z" />
    <glyph glyph-name="n" unicode="n" horiz-adv-x="607" 
d="M116 482h153l-8 -70q25 39 67.5 60.5t99.5 21.5q43 0 76 -13t53 -42q20 -28 23.5 -64.5t-1.5 -88.5l-30 -286h-153l26 247q5 51 -10 84t-62 33q-48 0 -74.5 -33t-32.5 -89l-25 -242h-153z" />
    <glyph glyph-name="o" unicode="o" horiz-adv-x="599" 
d="M300 -13q-59 0 -104.5 18t-76.5 49.5t-47 73.5t-16 90q0 55 21 105.5t60 88.5t93 60.5t120 22.5q59 0 104.5 -18t76.5 -49.5t47 -73.5t16 -90q0 -56 -21 -106t-60 -88t-93 -60.5t-120 -22.5zM313 118q27 0 50.5 11t41 29.5t27 43t9.5 51.5q0 46 -27.5 78.5t-76.5 32.5
q-28 0 -51 -11t-40 -29.5t-26.5 -43.5t-9.5 -52q0 -45 26.5 -77.5t76.5 -32.5z" />
    <glyph glyph-name="p" unicode="p" horiz-adv-x="637" 
d="M371 364q-27 0 -51 -11t-41 -29.5t-27 -43t-10 -51.5q0 -46 27.5 -78.5t76.5 -32.5q27 0 50.5 11t41 29.5t27 43t9.5 51.5q0 46 -27 78.5t-76 32.5zM261 413q23 34 65.5 57.5t97.5 23.5q45 0 82.5 -17t64.5 -47.5t42 -72.5t15 -91q0 -58 -20.5 -109t-55.5 -88.5
t-81.5 -59t-98.5 -21.5q-58 0 -95 24.5t-52 56.5l-30 -287h-153l74 700h153z" />
    <glyph glyph-name="q" unicode="q" horiz-adv-x="637" 
d="M470 482h152l-73 -700h-152l30 287q-23 -34 -66 -57.5t-97 -23.5q-45 0 -82.5 17.5t-64.5 48t-42 72t-15 90.5q0 58 20.5 109t55.5 88.5t81.5 59t98.5 21.5q56 0 93 -23.5t54 -57.5zM341 364q-27 0 -50.5 -11t-40.5 -29.5t-26.5 -43t-9.5 -51.5q0 -46 27 -78.5t76 -32.5
q27 0 51 11t41 29.5t27 43t10 51.5q0 46 -28 78.5t-77 32.5z" />
    <glyph glyph-name="r" unicode="r" horiz-adv-x="417" 
d="M447 343q-15 4 -26 5.5t-25 1.5q-69 0 -109 -38t-49 -124l-20 -188h-153l51 482h153l-9 -78q10 17 26.5 32.5t37 27.5t45 19t50.5 7q24 0 43 -8z" />
    <glyph glyph-name="s" unicode="s" horiz-adv-x="510" 
d="M348 284q31 -9 57 -19t45 -24.5t29 -35.5t10 -53q0 -44 -19 -75t-50.5 -51t-74 -29.5t-88.5 -9.5q-103 0 -159.5 43.5t-47.5 130.5h150q-5 -38 15 -54.5t54 -16.5q30 0 49 11.5t19 35.5q0 13 -6.5 21.5t-20.5 15t-37.5 14t-56.5 19.5q-28 9 -53 18.5t-43.5 23.5t-29 35
t-10.5 53q0 40 17 69.5t47 49t71 29.5t89 10q109 0 156 -45t41 -118h-151q3 30 -11 46.5t-45 16.5q-25 0 -43.5 -11t-18.5 -34q0 -13 7.5 -21t22 -14.5t36 -13.5t50.5 -17z" />
    <glyph glyph-name="t" unicode="t" horiz-adv-x="383" 
d="M366 0q-17 -3 -43.5 -5.5t-61.5 -2.5q-26 0 -55.5 4t-52.5 20.5t-36 51t-7 94.5l22 206h-76l12 114h76l15 143h152l-15 -143h110l-12 -114h-110l-18 -172q-3 -28 0.5 -44t12 -24.5t21 -11t26.5 -2.5q11 0 26.5 0.5t26.5 2.5z" />
    <glyph glyph-name="u" unicode="u" horiz-adv-x="607" 
d="M592 482l-50 -482h-153l7 69q-24 -38 -67 -59.5t-100 -21.5q-48 0 -79.5 14.5t-49.5 40.5q-20 28 -23 64.5t2 88.5l30 286h152l-26 -247q-5 -52 10 -84.5t63 -32.5t74 33t32 89l25 242h153z" />
    <glyph glyph-name="v" unicode="v" horiz-adv-x="551" 
d="M209 482l85 -303l150 303h160l-269 -482h-122l-164 482h160z" />
    <glyph glyph-name="w" unicode="w" horiz-adv-x="803" 
d="M435 307l-132 -307h-124l-129 482h158l59 -287l115 287h141l55 -287l119 287h158l-231 -482h-124z" />
    <glyph glyph-name="x" unicode="x" horiz-adv-x="514" 
d="M513 0h-177l-64 140l-94 -140h-177l192 243l-138 239h177l61 -136l91 136h177l-187 -239z" />
    <glyph glyph-name="y" unicode="y" horiz-adv-x="615" 
d="M282 -234q-61 0 -107 17t-69 36t-40 56.5t-11 87.5h153q-2 -39 20 -61.5t68 -22.5q40 0 67 21.5t33 77.5l11 99q-25 -39 -66.5 -60t-96.5 -21q-92 0 -133 58q-20 28 -23 63t2 86l29 279h152l-26 -247q-5 -52 10 -84.5t63 -32.5t74 33t32 89l25 242h153l-52 -494
q-6 -57 -26.5 -96.5t-58.5 -68.5q-28 -21 -74 -39t-109 -18z" />
    <glyph glyph-name="z" unicode="z" horiz-adv-x="480" 
d="M518 482l-249 -352h205l-14 -130h-442l250 352h-200l14 130h436z" />
    <glyph glyph-name="braceleft" unicode="{" horiz-adv-x="477" 
d="M491 775l-13 -124h-42q-20 0 -33.5 -7t-22.5 -18.5t-14 -26t-6 -29.5l-20 -188q-3 -32 -16.5 -53.5t-31 -34.5t-35 -19t-28.5 -7q11 -2 27.5 -7t30.5 -18.5t23 -36t5 -58.5l-17 -167q-2 -14 0 -28.5t8.5 -26t18.5 -19t32 -7.5h42l-12 -123h-101q-34 0 -62.5 10
t-48.5 30.5t-29.5 50t-5.5 68.5l19 179q3 24 -4 40t-18.5 26t-26.5 14.5t-29 4.5l14 135q14 0 30 4t30 13.5t24 25t12 37.5l21 200q4 39 19.5 69t39.5 50t54.5 30.5t64.5 10.5h101z" />
    <glyph glyph-name="bar" unicode="|" horiz-adv-x="287" 
d="M58 -223l105 998h127l-105 -998h-127z" />
    <glyph glyph-name="braceright" unicode="}" horiz-adv-x="477" 
d="M250 775q34 0 62.5 -10.5t48 -30.5t29 -50t5.5 -69l-21 -200q-2 -22 4.5 -37.5t18.5 -25t27 -13.5t29 -4l-15 -135q-13 0 -28.5 -4t-30 -14t-24.5 -26.5t-13 -40.5l-18 -179q-4 -39 -20 -68.5t-40 -50t-54.5 -30.5t-64.5 -10h-101l13 123h41q20 0 34 7.5t23 19t13 26
t6 28.5l18 167q4 36 17.5 58.5t30.5 36t34.5 18.5t29.5 7q-11 1 -27.5 7t-30.5 19t-23 34.5t-6 53.5l19 188q1 15 0 29.5t-7.5 26t-19 18.5t-32.5 7h-41l13 124h101z" />
    <glyph glyph-name="asciitilde" unicode="~" horiz-adv-x="562" 
d="M68 313q31 33 65.5 46t63.5 13t61 -9.5t64 -22.5q37 -14 65 -25t54 -11q34 0 66.5 17.5t55.5 37.5l-12 -120q-31 -33 -65 -46t-65 -13q-32 0 -59 10t-54 23q-29 14 -59.5 24.5t-63.5 10.5q-42 0 -72 -17t-58 -38z" />
    <glyph glyph-name="nonbreakingspace" unicode="&#xa0;" horiz-adv-x="250" 
 />
    <glyph glyph-name="exclamdown" unicode="&#xa1;" horiz-adv-x="338" 
d="M109 385q0 22 9 42t24.5 35t35.5 24t43 9q41 0 67 -27t26 -65q0 -22 -9 -42t-25 -35t-36.5 -24t-42.5 -9q-41 0 -66.5 27t-25.5 65zM113 237h164l-48 -455h-164z" />
    <glyph glyph-name="cent" unicode="&#xa2;" horiz-adv-x="606" 
d="M439 370q0 29 -19.5 50.5t-64.5 21.5q-32 0 -55.5 -11.5t-38.5 -31t-22.5 -44.5t-7.5 -52q0 -46 23.5 -77.5t78.5 -31.5q39 0 60.5 17t34.5 47h153q-9 -37 -27.5 -69t-47 -57.5t-66 -42t-84.5 -22.5l-11 -109h-89l11 109q-48 6 -83.5 26.5t-59 51t-35.5 68.5t-12 80
q0 49 16.5 95.5t47.5 84t76 63t103 33.5l12 110h89l-12 -110q49 -6 83.5 -24.5t57 -45.5t32.5 -60.5t10 -68.5h-153z" />
    <glyph glyph-name="sterling" unicode="&#xa3;" horiz-adv-x="628" 
d="M308 393h145l-9 -88h-145q-3 -25 -7 -51.5t-9 -46.5q-5 -27 -12 -47t-15 -29h315l-14 -131h-496l12 110q16 14 27.5 37t17.5 55q6 21 10.5 49t8.5 54h-70l9 88h70l11 107q6 46 28.5 85.5t58.5 68.5t83 45t101 16q56 0 100.5 -17.5t74.5 -48.5t43.5 -74t8.5 -93h-162
q4 41 -14.5 68.5t-65.5 27.5q-40 0 -65 -20.5t-29 -57.5z" />
    <glyph glyph-name="currency" unicode="&#xa4;" horiz-adv-x="757" 
d="M518 154q-64 -38 -145 -38q-42 0 -76.5 10t-63.5 29l-81 -74l-63 70l81 72q-16 26 -24 58.5t-8 65.5q0 48 16.5 90.5t44.5 79.5l-63 72l76 70l66 -74q32 20 69 30.5t78 10.5t75 -10.5t63 -30.5l81 74l63 -70l-81 -73q17 -26 25 -58t8 -66q0 -95 -63 -170l64 -71l-76 -70z
M386 247q28 0 51.5 11t40.5 29.5t27 43.5t10 52q0 46 -27.5 78t-77.5 32q-28 0 -51 -11t-40 -29.5t-26.5 -43t-9.5 -51.5q0 -46 26.5 -78.5t76.5 -32.5z" />
    <glyph glyph-name="yen" unicode="&#xa5;" horiz-adv-x="630" 
d="M239 700l122 -275l178 275h188l-278 -394h116l-10 -88h-138l-6 -57h138l-9 -88h-138l-8 -73h-154l8 73h-136l9 88h136l6 57h-136l10 88h110l-196 394h188z" />
    <glyph glyph-name="brokenbar" unicode="&#xa6;" horiz-adv-x="287" 
d="M116 341l46 434h128l-46 -434h-128zM231 217l-46 -440h-128l46 440h128z" />
    <glyph glyph-name="section" unicode="&#xa7;" horiz-adv-x="575" 
d="M439 266q0 20 -8.5 33.5t-25.5 24.5q-18 11 -45.5 20.5t-59.5 20.5q-20 -1 -38.5 -7.5t-33 -18t-23.5 -28t-9 -37.5q0 -41 41 -66q19 -11 44.5 -20.5t50.5 -17.5q21 1 40 8.5t34 20t24 29.5t9 38zM275 60q-44 16 -82 32t-67 37.5t-45.5 51t-16.5 71.5q0 57 32 100.5
t96 64.5q-64 44 -64 126q0 48 21 84.5t55.5 61.5t79 38t91.5 13q53 0 94 -15.5t67.5 -43t38 -64.5t7.5 -80h-137q5 45 -17.5 71.5t-66.5 26.5q-18 0 -35 -5t-30.5 -14.5t-21.5 -23.5t-8 -32q0 -34 26 -52t63 -31q38 -14 76.5 -29t69.5 -36t50.5 -51t19.5 -73
q0 -32 -11 -60.5t-29 -50.5t-41.5 -37t-48.5 -21q32 -22 49 -54t17 -74q0 -46 -20 -83.5t-54.5 -63.5t-80 -40.5t-95.5 -14.5q-51 0 -93 15t-70.5 42.5t-41.5 66.5t-8 87h139q-5 -47 18.5 -74.5t68.5 -27.5q19 0 37 5.5t31.5 15.5t21.5 24.5t8 32.5q0 33 -25.5 51t-67.5 33z
" />
    <glyph glyph-name="dieresis" unicode="&#xa8;" horiz-adv-x="582" 
d="M145 609q0 20 8 38t22 31.5t32.5 21.5t38.5 8q37 0 60.5 -24t23.5 -59q0 -20 -8 -38t-22 -31.5t-32.5 -21.5t-39.5 -8q-37 0 -60 24t-23 59zM385 609q0 20 8 38t22 31.5t32.5 21.5t39.5 8q37 0 60 -24t23 -59q0 -20 -8 -38t-22 -31.5t-32 -21.5t-39 -8q-38 0 -61 24
t-23 59z" />
    <glyph glyph-name="copyright" unicode="&#xa9;" horiz-adv-x="808" 
d="M405 -18q-83 0 -145.5 27.5t-105.5 73t-64.5 106t-21.5 126.5q0 78 29.5 150.5t83 128.5t129 90t167.5 34q82 0 145 -27.5t106 -73t64.5 -106t21.5 -126.5q0 -78 -29.5 -150.5t-83 -128.5t-129 -90t-167.5 -34zM413 65q67 0 123 26.5t95.5 70t61.5 100t22 116.5
q0 51 -16 97.5t-47 82t-77 56.5t-106 21q-68 0 -123.5 -26.5t-95 -70t-61.5 -100t-22 -116.5q0 -51 16 -97.5t47 -82t77 -56.5t106 -21zM628 295q-9 -30 -27 -56t-44.5 -45.5t-59.5 -30.5t-71 -11q-44 0 -78.5 14.5t-57.5 39t-35 57t-12 69.5q0 42 15.5 81t44.5 69t70 48
t93 18q43 0 75.5 -13t53.5 -34.5t32 -49.5t11 -59h-94q-5 32 -26.5 53.5t-62.5 21.5q-28 0 -50 -11t-37.5 -29t-23.5 -41t-8 -47q0 -44 25.5 -74.5t72.5 -30.5q35 0 61 17.5t37 43.5h96z" />
    <glyph glyph-name="ordfeminine" unicode="&#xaa;" horiz-adv-x="635" 
d="M316 118q27 0 50.5 11t41 29.5t27 43t9.5 51.5q0 46 -27.5 78.5t-76.5 32.5q-27 0 -50.5 -11t-41 -30t-27 -43.5t-9.5 -51.5q0 -45 27.5 -77.5t76.5 -32.5zM621 482l-51 -482h-153l8 68q-23 -34 -65.5 -57t-96.5 -23q-45 0 -82.5 17t-64.5 47.5t-42 72.5t-15 91
q0 58 20.5 109t55.5 88.5t81.5 59t98.5 21.5q56 0 93 -23.5t53 -57.5l7 69h153z" />
    <glyph glyph-name="guillemotleft" unicode="&#xab;" horiz-adv-x="512" 
d="M258 78l-195 173l8 80l232 173l-14 -133l-112 -80l95 -80zM478 78l-195 173l8 80l232 173l-14 -133l-112 -80l95 -80z" />
    <glyph glyph-name="logicalnot" unicode="&#xac;" 
d="M423 313h-297l13 122h427l-32 -301h-130z" />
    <glyph glyph-name="softhyphen" unicode="&#xad;" horiz-adv-x="294" 
d="M289 236h-234l10 97h234z" />
    <glyph glyph-name="registered" unicode="&#xae;" horiz-adv-x="808" 
d="M405 -18q-83 0 -145.5 27.5t-105.5 73t-64.5 106t-21.5 126.5q0 78 29.5 150.5t83 128.5t129 90t167.5 34q82 0 145 -27.5t106 -73t64.5 -106t21.5 -126.5q0 -78 -29.5 -150.5t-83 -128.5t-129 -90t-167.5 -34zM413 65q67 0 123 26.5t95.5 70t61.5 100t22 116.5
q0 51 -16 97.5t-47 82t-77 56.5t-106 21q-68 0 -123.5 -26.5t-95 -70t-61.5 -100t-22 -116.5q0 -51 16 -97.5t47 -82t77 -56.5t106 -21zM458 351q29 0 47 21t18 49q0 24 -13 41t-38 17h-65l-14 -128h65zM278 164l41 392h177q30 0 53.5 -10t40 -27.5t25.5 -41t9 -50.5
q0 -45 -25 -82.5t-67 -56.5l65 -124h-109l-59 109h-44l-11 -109h-96z" />
    <glyph glyph-name="macron" unicode="&#xaf;" horiz-adv-x="519" 
d="M517 705h-368l12 115h368z" />
    <glyph glyph-name="degree" unicode="&#xb0;" horiz-adv-x="344" 
d="M385 588q0 -35 -13.5 -65t-37 -52.5t-54 -35.5t-63.5 -13q-30 0 -55.5 10.5t-44 29t-28.5 44t-10 54.5q0 34 13.5 64.5t37 53t54 35.5t63.5 13q30 0 55.5 -10.5t44 -29t28.5 -44t10 -54.5zM290 579q0 22 -15 38t-37 16q-25 0 -44.5 -19.5t-19.5 -44.5q0 -22 15 -37.5
t37 -15.5q25 0 44.5 18.5t19.5 44.5z" />
    <glyph glyph-name="plusminus" unicode="&#xb1;" 
d="M240 219l16 153h-149l13 122h149l16 153h130l-16 -153h149l-13 -122h-149l-16 -153h-130zM68 0l13 122h428l-13 -122h-428z" />
    <glyph glyph-name="twosuperior" unicode="&#xb2;" horiz-adv-x="397" 
d="M87 315q5 49 16.5 82t27 55.5t36 37.5t43.5 28q21 12 38 21t29 18.5t18.5 20t6.5 24.5q0 17 -9 25t-24 8q-17 0 -29.5 -11.5t-15.5 -39.5h-107q2 23 13 45.5t30.5 40t48 28.5t67.5 11q26 0 50 -6t42 -18.5t28.5 -32t10.5 -46.5t-10 -48t-26 -37.5t-36 -29.5t-40 -25
q-24 -14 -38.5 -22.5t-22.5 -15.5t-11 -13.5t-4 -16.5h164l-9 -83h-287v0z" />
    <glyph glyph-name="threesuperior" unicode="&#xb3;" horiz-adv-x="404" 
d="M201 445q-3 -26 7 -42t33 -16q24 0 36 16t12 36q0 38 -43 38h-41l8 79h41q30 0 39.5 12.5t9.5 30.5q0 20 -8 28t-25 8q-24 0 -33.5 -14t-11.5 -37h-107q2 23 11.5 45.5t28 40t47.5 28.5t70 11q28 0 52.5 -5.5t43 -17t29 -30t10.5 -43.5q0 -40 -22 -65.5t-48 -33.5
q23 -8 39 -29.5t16 -55.5q0 -30 -13.5 -53t-36 -38.5t-52 -23.5t-61.5 -8q-76 0 -110.5 39.5t-27.5 99.5h107z" />
    <glyph glyph-name="acute" unicode="&#xb4;" horiz-adv-x="513" 
d="M158 503l-37 106l289 128l37 -106z" />
    <glyph glyph-name="uni00B5" unicode="&#xb5;" 
d="M116 482h152l-27 -249q-5 -51 10.5 -83t62.5 -32q48 0 74 33t32 89l25 242h154l-51 -482h-153l7 69q-23 -35 -60 -55t-85 -24q-23 0 -41 6l-22 -214h-152z" />
    <glyph glyph-name="paragraph" unicode="&#xb6;" horiz-adv-x="679" 
d="M270 298q-44 0 -81.5 12.5t-64.5 36.5t-42.5 59.5t-15.5 82.5q0 64 26.5 107.5t67 70.5t88 38.5t88.5 11.5h363l-12 -107h-56l-81 -776h-120l81 776h-88l-81 -776h-121z" />
    <glyph glyph-name="periodcentered" unicode="&#xb7;" horiz-adv-x="296" 
d="M79 303q0 22 9 42t24.5 35t35.5 23.5t43 8.5q41 0 66 -26.5t25 -64.5q0 -22 -9 -42t-24.5 -35t-36 -23.5t-42.5 -8.5q-41 0 -66 26.5t-25 64.5z" />
    <glyph glyph-name="cedilla" unicode="&#xb8;" horiz-adv-x="473" 
d="M146 12h78l-7 -67q15 15 41 15q32 0 54 -22.5t22 -57.5q0 -20 -8 -39.5t-23 -35.5t-37 -25.5t-49 -9.5q-16 0 -34 4.5t-33 15t-25 28.5t-10 45h74q2 -14 10 -22t22 -8q17 0 27.5 11.5t10.5 28.5q0 14 -8.5 23t-23.5 9q-19 0 -29 -16h-65z" />
    <glyph glyph-name="onesuperior" unicode="&#xb9;" horiz-adv-x="298" 
d="M113 630q29 0 48 4.5t30 13.5t16.5 22t7.5 30h92l-41 -385h-108l26 243h-79z" />
    <glyph glyph-name="ordmasculine" unicode="&#xba;" horiz-adv-x="599" 
d="M300 -13q-59 0 -104.5 18t-76.5 49.5t-47 73.5t-16 90q0 55 21 105.5t60 88.5t93 60.5t120 22.5q59 0 104.5 -18t76.5 -49.5t47 -73.5t16 -90q0 -56 -21 -106t-60 -88t-93 -60.5t-120 -22.5zM313 118q27 0 50.5 11t41 29.5t27 43t9.5 51.5q0 46 -27.5 78.5t-76.5 32.5
q-28 0 -51 -11t-40 -29.5t-26.5 -43.5t-9.5 -52q0 -45 26.5 -77.5t76.5 -32.5z" />
    <glyph glyph-name="guillemotright" unicode="&#xbb;" horiz-adv-x="512" 
d="M284 211l110 80l-93 80l14 133l195 -173l-9 -80l-231 -173zM64 211l110 80l-93 80l14 133l195 -173l-9 -80l-231 -173z" />
    <glyph glyph-name="onequarter" unicode="&#xbc;" horiz-adv-x="955" 
d="M640 754l100 -53l-479 -754l-100 53zM123 630q29 0 48 4.5t30.5 13.5t17 22t7.5 30h92l-41 -385h-109l26 243h-79zM744 100h-163l30 285h107l-21 -197h56l11 100h107l-11 -100h42l-9 -88h-42l-11 -100h-107z" />
    <glyph glyph-name="onehalf" unicode="&#xbd;" horiz-adv-x="955" 
d="M646 754l99 -53l-478 -754l-101 53zM129 630q29 0 48 4.5t30.5 13.5t17 22t7.5 30h91l-41 -385h-108l26 243h-79zM573 0q6 49 17 82t26.5 55.5t35.5 37t44 28.5q19 11 36 20t29.5 18.5t19.5 20.5t7 26q0 17 -9 24.5t-24 7.5q-17 0 -29.5 -11.5t-15.5 -39.5h-107
q2 23 12.5 45.5t30 40t48.5 28.5t67 11q26 0 50 -6t42 -18.5t28.5 -32t10.5 -46.5t-10 -48t-26 -37.5t-36 -30t-40 -24.5t-33.5 -19.5t-22.5 -16t-13.5 -15t-5.5 -17.5h164l-9 -83h-287z" />
    <glyph glyph-name="threequarters" unicode="&#xbe;" horiz-adv-x="955" 
d="M653 754l99 -53l-478 -754l-101 53zM187 445q-3 -26 7 -42t33 -16q24 0 35.5 16t11.5 36q0 18 -9.5 28t-32.5 10h-41l8 79h40q31 0 40.5 12.5t9.5 30.5q0 20 -8 28t-25 8q-24 0 -33.5 -14t-11.5 -37h-107q2 23 11.5 45.5t28 40t47.5 28.5t70 11q27 0 51.5 -5.5t43 -17
t29 -30t10.5 -44.5q0 -39 -22 -64.5t-48 -33.5q23 -8 39 -29.5t16 -55.5q0 -30 -13 -53t-35 -38.5t-51 -23.5t-62 -8q-77 0 -111.5 39.5t-27.5 99.5h107zM749 100h-163l30 285h107l-21 -197h56l11 100h107l-11 -100h42l-9 -88h-42l-11 -100h-107z" />
    <glyph glyph-name="questiondown" unicode="&#xbf;" horiz-adv-x="542" 
d="M432 407q0 -23 -9 -43t-25 -35.5t-36.5 -24.5t-43.5 -9q-21 0 -38.5 7.5t-30 20.5t-19.5 30t-7 36q0 22 9 42.5t25 36t37 24.5t44 9q42 0 68 -27.5t26 -66.5zM394 266q-4 -32 -11 -58t-19 -48t-31 -40.5t-47 -36.5q-16 -11 -33 -23t-31.5 -26.5t-23.5 -33t-9 -40.5
q0 -35 21.5 -51.5t53.5 -16.5q38 0 65 24t33 77h160q-5 -47 -25.5 -87.5t-54.5 -70.5t-81.5 -47.5t-106.5 -17.5q-47 0 -87.5 11.5t-71 34.5t-48 56.5t-17.5 78.5q0 41 14 72t33.5 54.5t41.5 39.5t38 28q22 16 36 29t22 26.5t12.5 29t6.5 36.5h160z" />
    <glyph glyph-name="Agrave" unicode="&#xc0;" horiz-adv-x="660" 
d="M272 865l59 106l263 -128l-60 -106zM265 212h170l-53 288zM656 0h-176l-18 85h-249l-36 -85h-173l324 700h149z" />
    <glyph glyph-name="Aacute" unicode="&#xc1;" horiz-adv-x="660" 
d="M293 727l-37 106l289 128l38 -106zM265 212h170l-53 288zM656 0h-176l-18 85h-249l-36 -85h-173l324 700h149z" />
    <glyph glyph-name="Acircumflex" unicode="&#xc2;" horiz-adv-x="660" 
d="M433 993l180 -164l-85 -84l-108 107l-132 -106l-67 83zM265 212h170l-53 288zM656 0h-176l-18 85h-249l-36 -85h-173l324 700h149z" />
    <glyph glyph-name="Atilde" unicode="&#xc3;" horiz-adv-x="660" 
d="M495 884q23 0 40 13.5t33 32.5l72 -70q-32 -45 -72 -64t-80 -19q-28 0 -48 7.5t-37 16l-32 16t-32 7.5q-22 0 -38 -13t-32 -33l-70 77q32 41 70.5 58.5t77.5 17.5q28 0 48 -7.5t36.5 -16t31.5 -16t32 -7.5zM265 212h170l-53 288zM656 0h-176l-18 85h-249l-36 -85h-173
l324 700h149z" />
    <glyph glyph-name="Adieresis" unicode="&#xc4;" horiz-adv-x="660" 
d="M203 844q0 21 8.5 39.5t23 32.5t33 22t39.5 8q38 0 62.5 -25t24.5 -61q0 -21 -8.5 -39t-23 -32t-33.5 -22t-40 -8q-38 0 -62 25t-24 60zM444 844q0 21 8.5 39.5t22.5 32.5t33 22t40 8q38 0 62 -25t24 -61q0 -21 -8.5 -39t-23 -32t-33.5 -22t-40 -8q-38 0 -61.5 25
t-23.5 60zM265 212h170l-53 288zM656 0h-176l-18 85h-249l-36 -85h-173l324 700h149z" />
    <glyph glyph-name="Aring" unicode="&#xc5;" horiz-adv-x="660" 
d="M434 1002q26 0 48.5 -10t39 -26.5t25.5 -39.5t9 -48q0 -29 -12 -55.5t-32.5 -46.5t-47.5 -31.5t-56 -11.5q-27 0 -49 9.5t-38.5 26.5t-25.5 39t-9 48q0 30 12.5 56.5t33 46.5t47 31.5t55.5 11.5zM427 920q-23 0 -40 -17t-17 -40q0 -19 13 -32.5t33 -13.5q23 0 40 16.5
t17 39.5q0 19 -13 33t-33 14zM265 212h170l-53 288zM656 0h-176l-18 85h-249l-36 -85h-173l324 700h149z" />
    <glyph glyph-name="AE" unicode="&#xc6;" horiz-adv-x="919" 
d="M449 213l36 342l-192 -342h156zM649 570l-17 -159h265l-13 -127h-265l-16 -154h265l-14 -130h-427l9 86h-212l-47 -86h-176l410 700h517l-14 -130h-265z" />
    <glyph glyph-name="Ccedilla" unicode="&#xc7;" horiz-adv-x="788" 
d="M632 428q-5 65 -47.5 104.5t-117.5 39.5q-54 0 -97.5 -20.5t-74 -55t-46.5 -78.5t-16 -90q0 -42 13 -78.5t38 -63.5t60.5 -42.5t79.5 -15.5q69 0 117.5 34.5t70.5 88.5h172q-15 -53 -46.5 -99.5t-76.5 -82.5t-101.5 -58.5t-122.5 -26.5l-5 -40q15 15 45 15q34 0 54 -21.5
t20 -54.5q0 -20 -8 -39.5t-23.5 -34.5t-37 -24t-48.5 -9q-14 0 -31.5 3.5t-33.5 13t-26.5 27t-11.5 45.5h74q5 -26 32 -26q17 0 27.5 11t10.5 27q0 14 -8 22.5t-22 8.5q-19 0 -31 -17h-65l10 94q-71 7 -125.5 36t-91.5 74t-56 101.5t-19 119.5q0 77 29 149.5t82.5 128.5
t130 90t172.5 34q78 0 137.5 -23t100 -62.5t61 -92t21.5 -112.5h-169z" />
    <glyph glyph-name="Egrave" unicode="&#xc8;" horiz-adv-x="555" 
d="M221 856l59 106l263 -128l-59 -106zM289 570l-17 -159h265l-13 -127h-265l-16 -154h265l-14 -130h-427l74 700h427l-14 -130h-265z" />
    <glyph glyph-name="Eacute" unicode="&#xc9;" horiz-adv-x="555" 
d="M244 740l-37 106l289 128l37 -106zM289 570l-17 -159h265l-13 -127h-265l-16 -154h265l-14 -130h-427l74 700h427l-14 -130h-265z" />
    <glyph glyph-name="Ecircumflex" unicode="&#xca;" horiz-adv-x="555" 
d="M387 993l180 -164l-85 -84l-108 107l-131 -106l-68 83zM289 570l-17 -159h265l-13 -127h-265l-16 -154h265l-14 -130h-427l74 700h427l-14 -130h-265z" />
    <glyph glyph-name="Edieresis" unicode="&#xcb;" horiz-adv-x="555" 
d="M165 844q0 21 8.5 39.5t23 32.5t33 22t39.5 8q38 0 62.5 -25t24.5 -61q0 -21 -8.5 -39t-23 -32t-33.5 -22t-40 -8q-38 0 -62 25t-24 60zM406 844q0 21 8.5 39.5t22.5 32.5t33 22t40 8q38 0 62 -25t24 -61q0 -21 -8.5 -39t-23 -32t-33.5 -22t-40 -8q-38 0 -61.5 25
t-23.5 60zM289 570l-17 -159h265l-13 -127h-265l-16 -154h265l-14 -130h-427l74 700h427l-14 -130h-265z" />
    <glyph glyph-name="Igrave" unicode="&#xcc;" horiz-adv-x="298" 
d="M77 855l59 106l263 -128l-60 -106zM141 700h164l-74 -700h-164z" />
    <glyph glyph-name="Iacute" unicode="&#xcd;" horiz-adv-x="298" 
d="M111 727l-36 106l289 128l37 -106zM141 700h164l-74 -700h-164z" />
    <glyph glyph-name="Icircumflex" unicode="&#xce;" horiz-adv-x="298" 
d="M253 993l180 -164l-85 -84l-109 107l-130 -106l-68 83zM140 700h164l-73 -700h-164z" />
    <glyph glyph-name="Idieresis" unicode="&#xcf;" horiz-adv-x="298" 
d="M29 844q0 21 8.5 39.5t23 32.5t33 22t39.5 8q38 0 62.5 -25t24.5 -61q0 -21 -8.5 -39t-23 -32t-33.5 -22t-40 -8q-38 0 -62 25t-24 60zM270 844q0 21 8.5 39.5t22.5 32.5t33 22t40 8q38 0 62 -25t24 -61q0 -21 -8.5 -39t-23 -32t-33.5 -22t-40 -8q-38 0 -61.5 25
t-23.5 60zM141 700h164l-74 -700h-164z" />
    <glyph glyph-name="Eth" unicode="&#xd0;" horiz-adv-x="720" 
d="M397 700q80 0 141.5 -26.5t103.5 -71t63.5 -102t21.5 -119.5q0 -72 -28 -140.5t-80.5 -122t-127 -86t-167.5 -32.5h-257l32 306h-102l9 89h102l32 305h257zM365 306h-104l-17 -166h87q53 0 95.5 19.5t72.5 52t46 73.5t16 85q0 37 -12 71.5t-35.5 60.5t-58.5 42t-80 16
h-87l-18 -165h104z" />
    <glyph glyph-name="Ntilde" unicode="&#xd1;" horiz-adv-x="717" 
d="M515 884q23 0 40 13.5t33 32.5l72 -70q-32 -45 -72 -64t-80 -19q-28 0 -48 7.5t-37 16l-32 16t-32 7.5q-22 0 -38 -13t-32 -33l-70 77q32 41 70.5 58.5t77.5 17.5q28 0 48 -7.5t36.5 -16t31.5 -16t32 -7.5zM515 244l48 456h161l-74 -700h-169l-205 450l-47 -450h-162
l74 700h169z" />
    <glyph glyph-name="Ograve" unicode="&#xd2;" horiz-adv-x="805" 
d="M320 868l59 106l262 -128l-59 -106zM404 -18q-83 0 -145.5 27.5t-105.5 73t-64.5 106t-21.5 126.5q0 78 29.5 150.5t83 128.5t128.5 90t167 34q82 0 145 -27.5t106 -73t64.5 -106t21.5 -126.5q0 -78 -29.5 -150.5t-83 -129t-128.5 -90t-167 -33.5zM418 128q51 0 93 21
t72.5 55t47 78t16.5 91q0 39 -12 75t-35.5 63.5t-58 44t-79.5 16.5q-51 0 -93 -20.5t-72 -55t-46.5 -78.5t-16.5 -91q0 -39 12 -75t35.5 -63.5t57.5 -44t79 -16.5z" />
    <glyph glyph-name="Oacute" unicode="&#xd3;" horiz-adv-x="805" 
d="M376 740l-37 106l290 128l37 -106zM404 -18q-83 0 -145.5 27.5t-105.5 73t-64.5 106t-21.5 126.5q0 78 29.5 150.5t83 128.5t128.5 90t167 34q82 0 145 -27.5t106 -73t64.5 -106t21.5 -126.5q0 -78 -29.5 -150.5t-83 -129t-128.5 -90t-167 -33.5zM418 128q51 0 93 21
t72.5 55t47 78t16.5 91q0 39 -12 75t-35.5 63.5t-58 44t-79.5 16.5q-51 0 -93 -20.5t-72 -55t-46.5 -78.5t-16.5 -91q0 -39 12 -75t35.5 -63.5t57.5 -44t79 -16.5z" />
    <glyph glyph-name="Ocircumflex" unicode="&#xd4;" horiz-adv-x="805" 
d="M508 993l180 -164l-85 -84l-109 107l-131 -106l-67 83zM404 -18q-83 0 -145.5 27.5t-105.5 73t-64.5 106t-21.5 126.5q0 78 29.5 150.5t83 128.5t128.5 90t167 34q82 0 145 -27.5t106 -73t64.5 -106t21.5 -126.5q0 -78 -29.5 -150.5t-83 -129t-128.5 -90t-167 -33.5z
M418 128q51 0 93 21t72.5 55t47 78t16.5 91q0 39 -12 75t-35.5 63.5t-58 44t-79.5 16.5q-51 0 -93 -20.5t-72 -55t-46.5 -78.5t-16.5 -91q0 -39 12 -75t35.5 -63.5t57.5 -44t79 -16.5z" />
    <glyph glyph-name="Otilde" unicode="&#xd5;" horiz-adv-x="805" 
d="M571 884q23 0 40.5 13.5t32.5 32.5l73 -70q-32 -45 -72.5 -64t-80.5 -19q-28 0 -48 7.5t-37 16l-32 16t-32 7.5q-22 0 -38 -13t-32 -33l-70 77q32 41 70.5 58.5t77.5 17.5q28 0 48 -7.5t36.5 -16t31.5 -16t32 -7.5zM404 -18q-83 0 -145.5 27.5t-105.5 73t-64.5 106
t-21.5 126.5q0 78 29.5 150.5t83 128.5t128.5 90t167 34q82 0 145 -27.5t106 -73t64.5 -106t21.5 -126.5q0 -78 -29.5 -150.5t-83 -129t-128.5 -90t-167 -33.5zM418 128q51 0 93 21t72.5 55t47 78t16.5 91q0 39 -12 75t-35.5 63.5t-58 44t-79.5 16.5q-51 0 -93 -20.5
t-72 -55t-46.5 -78.5t-16.5 -91q0 -39 12 -75t35.5 -63.5t57.5 -44t79 -16.5z" />
    <glyph glyph-name="Odieresis" unicode="&#xd6;" horiz-adv-x="805" 
d="M517 846q0 21 8.5 39.5t22.5 32.5t33 22t40 8q38 0 62 -25t24 -60q0 -21 -8.5 -39.5t-23.5 -32.5t-34 -22t-40 -8q-38 0 -61 25t-23 60zM276 846q0 21 8.5 39.5t23 32.5t33 22t39.5 8q38 0 62 -25t24 -61q0 -21 -8.5 -39t-23 -32t-33.5 -22t-40 -8q-38 0 -61.5 25
t-23.5 60zM404 -18q-83 0 -145.5 27.5t-105.5 73t-64.5 106t-21.5 126.5q0 78 29.5 150.5t83 128.5t128.5 90t167 34q82 0 145 -27.5t106 -73t64.5 -106t21.5 -126.5q0 -78 -29.5 -150.5t-83 -129t-128.5 -90t-167 -33.5zM234 327q0 -39 12 -75t35.5 -63.5t57.5 -44
t79 -16.5q51 0 93 21t72.5 55t47 78t16.5 91q0 39 -12 75t-35.5 63.5t-58 44t-79.5 16.5q-51 0 -93 -20.5t-72 -55t-46.5 -78.5t-16.5 -91z" />
    <glyph glyph-name="multiply" unicode="&#xd7;" 
d="M462 482l82 -92l-119 -108l95 -105l-96 -86l-94 104l-120 -107l-82 92l119 107l-94 105l95 87l94 -105z" />
    <glyph glyph-name="Oslash" unicode="&#xd8;" horiz-adv-x="805" 
d="M234 327q0 -44 15 -84.5t44 -67.5l210 391q-18 6 -41 6q-51 0 -93 -20.5t-72 -55t-46.5 -78.5t-16.5 -91zM647 371q0 47 -17.5 89.5t-49.5 69.5l-212 -396q10 -3 23.5 -4.5t26.5 -1.5q51 0 93 20.5t72 54.5t47 77.5t17 90.5zM402 -18q-61 0 -110 15l-48 -90l-78 36l48 88
q-72 44 -109.5 120.5t-37.5 164.5q0 77 29.5 149.5t83 128.5t129 90t168.5 34q29 0 54 -3.5t48 -9.5l45 84l77 -37l-42 -79q37 -21 66 -52.5t48 -69t29 -80.5t10 -87q0 -77 -29 -149.5t-83 -128.5t-129.5 -90t-168.5 -34z" />
    <glyph glyph-name="Ugrave" unicode="&#xd9;" horiz-adv-x="657" 
d="M267 868l59 106l263 -128l-59 -106zM129 700h162l-48 -460q-3 -24 3 -45.5t18.5 -37.5t32 -25.5t44.5 -9.5t46 9.5t37.5 25.5t26.5 37.5t13 45.5l48 460h162l-48 -461q-6 -54 -30 -101t-63 -81.5t-91.5 -54.5t-115.5 -20t-111 20t-79.5 54.5t-46 81.5t-8.5 101z" />
    <glyph glyph-name="Uacute" unicode="&#xda;" horiz-adv-x="657" 
d="M276 740l-37 106l289 128l37 -106zM129 700h162l-48 -460q-3 -24 3 -45.5t18.5 -37.5t32 -25.5t44.5 -9.5t46 9.5t37.5 25.5t26.5 37.5t13 45.5l48 460h162l-48 -461q-6 -54 -30 -101t-63 -81.5t-91.5 -54.5t-115.5 -20t-111 20t-79.5 54.5t-46 81.5t-8.5 101z" />
    <glyph glyph-name="Ucircumflex" unicode="&#xdb;" horiz-adv-x="657" 
d="M429 993l179 -164l-85 -84l-108 107l-131 -106l-68 83zM129 700h162l-48 -460q-3 -24 3 -45.5t18.5 -37.5t32 -25.5t44.5 -9.5t46 9.5t37.5 25.5t26.5 37.5t13 45.5l48 460h162l-48 -461q-6 -54 -30 -101t-63 -81.5t-91.5 -54.5t-115.5 -20t-111 20t-79.5 54.5t-46 81.5
t-8.5 101z" />
    <glyph glyph-name="Udieresis" unicode="&#xdc;" horiz-adv-x="657" 
d="M200 844q0 21 8.5 39.5t23 32.5t33 22t39.5 8q38 0 62 -25t24 -61q0 -21 -8.5 -39t-22.5 -32t-33 -22t-40 -8q-38 0 -62 25t-24 60zM441 844q0 21 8.5 39.5t22.5 32.5t33 22t40 8q38 0 62 -25t24 -61q0 -21 -8.5 -39t-23 -32t-33.5 -22t-40 -8q-38 0 -61.5 25t-23.5 60z
M129 700h162l-48 -460q-3 -24 3 -45.5t18.5 -37.5t32 -25.5t44.5 -9.5t46 9.5t37.5 25.5t26.5 37.5t13 45.5l48 460h162l-48 -461q-6 -54 -30 -101t-63 -81.5t-91.5 -54.5t-115.5 -20t-111 20t-79.5 54.5t-46 81.5t-8.5 101z" />
    <glyph glyph-name="Yacute" unicode="&#xdd;" horiz-adv-x="641" 
d="M324 738l-37 105l289 128l37 -105zM302 0h-179l157 263l-202 437h189l120 -275l157 275h179z" />
    <glyph glyph-name="Thorn" unicode="&#xde;" horiz-adv-x="539" 
d="M138 700h148l-13 -115h44q59 0 103.5 -18t74 -48t44.5 -69.5t15 -82.5q0 -50 -19.5 -97.5t-56.5 -84t-90.5 -58.5t-120.5 -22h-44l-11 -105h-148zM260 458l-24 -226h44q29 0 52 10.5t39 28t24.5 39.5t8.5 46q0 20 -6.5 38.5t-19 32.5t-31 22.5t-43.5 8.5h-44z" />
    <glyph glyph-name="germandbls" unicode="&#xdf;" horiz-adv-x="593" 
d="M254 119q14 -4 32 -6t29 -2q19 0 38 7t34 20.5t24.5 33t9.5 43.5q0 16 -5 32.5t-15.5 29t-28 20.5t-41.5 8h-29l13 122h27q28 0 47.5 8t31.5 21.5t17.5 30t5.5 33.5q0 38 -23.5 57.5t-56.5 19.5q-43 0 -69 -29t-31 -77l-52 -491h-158l52 491q5 46 24 86.5t52 71
t80.5 48.5t109.5 18q48 0 89.5 -11t72.5 -33.5t49 -56t18 -78.5q0 -34 -10.5 -62t-27.5 -49.5t-40.5 -36.5t-48.5 -24q43 -17 73.5 -55.5t30.5 -104.5q0 -51 -20.5 -91.5t-54.5 -68.5t-79 -42.5t-94 -14.5q-29 0 -52 4t-37 9z" />
    <glyph glyph-name="agrave" unicode="&#xe0;" horiz-adv-x="635" 
d="M187 637l60 106l262 -128l-59 -106zM316 118q27 0 50.5 11t41 29.5t27 43t9.5 51.5q0 46 -27.5 78.5t-76.5 32.5q-27 0 -50.5 -11t-41 -30t-27 -43.5t-9.5 -51.5q0 -45 27.5 -77.5t76.5 -32.5zM621 482l-51 -482h-153l8 68q-23 -34 -65.5 -57t-96.5 -23q-45 0 -82.5 17
t-64.5 47.5t-42 72.5t-15 91q0 58 20.5 109t55.5 88.5t81.5 59t98.5 21.5q56 0 93 -23.5t53 -57.5l7 69h153z" />
    <glyph glyph-name="aacute" unicode="&#xe1;" horiz-adv-x="635" 
d="M226 509l-38 106l290 128l37 -106zM316 118q27 0 50.5 11t41 29.5t27 43t9.5 51.5q0 46 -27.5 78.5t-76.5 32.5q-27 0 -50.5 -11t-41 -30t-27 -43.5t-9.5 -51.5q0 -45 27.5 -77.5t76.5 -32.5zM621 482l-51 -482h-153l8 68q-23 -34 -65.5 -57t-96.5 -23q-45 0 -82.5 17
t-64.5 47.5t-42 72.5t-15 91q0 58 20.5 109t55.5 88.5t81.5 59t98.5 21.5q56 0 93 -23.5t53 -57.5l7 69h153z" />
    <glyph glyph-name="acircumflex" unicode="&#xe2;" horiz-adv-x="635" 
d="M396 781l179 -164l-85 -84l-108 107l-130 -106l-69 83zM316 118q27 0 50.5 11t41 29.5t27 43t9.5 51.5q0 46 -27.5 78.5t-76.5 32.5q-27 0 -50.5 -11t-41 -30t-27 -43.5t-9.5 -51.5q0 -45 27.5 -77.5t76.5 -32.5zM621 482l-51 -482h-153l8 68q-23 -34 -65.5 -57
t-96.5 -23q-45 0 -82.5 17t-64.5 47.5t-42 72.5t-15 91q0 58 20.5 109t55.5 88.5t81.5 59t98.5 21.5q56 0 93 -23.5t53 -57.5l7 69h153z" />
    <glyph glyph-name="atilde" unicode="&#xe3;" horiz-adv-x="635" 
d="M471 680q23 0 40 13t32 33l73 -71q-32 -44 -72 -63.5t-80 -19.5q-27 0 -47.5 7.5t-37.5 16l-32 16t-32 7.5q-23 0 -39.5 -13t-31.5 -33l-70 77q32 41 70.5 58.5t78.5 17.5q28 0 48 -7t36.5 -16t31.5 -16t32 -7zM316 118q27 0 50.5 11t41 29.5t27 43t9.5 51.5
q0 46 -27.5 78.5t-76.5 32.5q-27 0 -50.5 -11t-41 -30t-27 -43.5t-9.5 -51.5q0 -45 27.5 -77.5t76.5 -32.5zM621 482l-51 -482h-153l8 68q-23 -34 -65.5 -57t-96.5 -23q-45 0 -82.5 17t-64.5 47.5t-42 72.5t-15 91q0 58 20.5 109t55.5 88.5t81.5 59t98.5 21.5q56 0 93 -23.5
t53 -57.5l7 69h153z" />
    <glyph glyph-name="adieresis" unicode="&#xe4;" horiz-adv-x="635" 
d="M237 537q-38 0 -62 25t-24 60q0 21 8.5 39.5t23 32.5t33.5 22t40 8q38 0 61.5 -25t23.5 -60q0 -21 -8.5 -39.5t-22.5 -32.5t-33 -22t-40 -8zM477 537q-38 0 -61.5 25t-23.5 60q0 21 8.5 39.5t23 32.5t33 22t39.5 8q38 0 62 -25t24 -61q0 -21 -8.5 -39t-23 -32t-33.5 -22
t-40 -8zM316 118q27 0 50.5 11t41 29.5t27 43t9.5 51.5q0 46 -27.5 78.5t-76.5 32.5q-27 0 -50.5 -11t-41 -30t-27 -43.5t-9.5 -51.5q0 -45 27.5 -77.5t76.5 -32.5zM417 0l8 68q-23 -34 -65.5 -57t-96.5 -23q-45 0 -82.5 17t-64.5 47.5t-42 72.5t-15 91q0 58 20.5 109
t55.5 88.5t81.5 59t98.5 21.5q56 0 93 -23.5t53 -57.5l7 69h153l-51 -482h-153z" />
    <glyph glyph-name="aring" unicode="&#xe5;" horiz-adv-x="635" 
d="M364 528q-27 0 -50 10t-39.5 27.5t-26 40.5t-9.5 49q0 31 12.5 58t33.5 47t48.5 32t57.5 12q27 0 50 -10t39.5 -27t26 -40t9.5 -49q0 -30 -12.5 -57t-33.5 -48t-48.5 -33t-57.5 -12zM384 726q-27 0 -46 -19.5t-19 -45.5q0 -22 15 -37t38 -15q26 0 45 19t19 45
q0 22 -14.5 37.5t-37.5 15.5zM316 118q27 0 50.5 11t41 29.5t27 43t9.5 51.5q0 46 -27.5 78.5t-76.5 32.5q-27 0 -50.5 -11t-41 -30t-27 -43.5t-9.5 -51.5q0 -45 27.5 -77.5t76.5 -32.5zM621 482l-51 -482h-153l8 68q-23 -34 -65.5 -57t-96.5 -23q-45 0 -82.5 17t-64.5 47.5
t-42 72.5t-15 91q0 58 20.5 109t55.5 88.5t81.5 59t98.5 21.5q56 0 93 -23.5t53 -57.5l7 69h153z" />
    <glyph glyph-name="ae" unicode="&#xe6;" horiz-adv-x="961" 
d="M606 482l-1 -12q26 11 56.5 18t65.5 7q52 0 94 -16t71 -44t44.5 -66t15.5 -82q0 -22 -3.5 -41.5t-9.5 -41.5h-346q-2 -22 1.5 -41.5t14.5 -34t30 -23t48 -8.5q41 0 62.5 16t32.5 39h150q-10 -35 -32 -65.5t-55 -52.5t-75.5 -34.5t-91.5 -12.5q-38 0 -67.5 7t-53.5 19
l-2 -13h-138l8 68q-23 -34 -65.5 -57t-96.5 -23q-45 0 -82.5 17t-64.5 47.5t-42 72.5t-15 91q0 58 20.5 109t55.5 88.5t81.5 59t98.5 21.5q56 0 93 -23.5t53 -57.5l7 69h138zM713 387q-42 0 -73 -24.5t-37 -70.5h199q5 43 -19.5 69t-69.5 26zM316 118q27 0 50.5 11t41 29.5
t27 43t9.5 51.5q0 47 -28 79t-76 32q-28 0 -51.5 -11t-40.5 -30t-26.5 -43t-9.5 -51q0 -46 27.5 -78.5t76.5 -32.5z" />
    <glyph glyph-name="ccedilla" unicode="&#xe7;" horiz-adv-x="575" 
d="M236 -8q-45 8 -78.5 28.5t-56 50.5t-33.5 67t-11 78q0 53 19 103.5t55.5 89.5t90.5 62.5t124 23.5q60 0 103 -17t70.5 -45.5t40.5 -64.5t12 -75h-153q0 29 -19.5 50.5t-64.5 21.5q-32 0 -55.5 -11.5t-38.5 -31t-22.5 -44t-7.5 -51.5q0 -23 5.5 -43t17.5 -35t31.5 -23.5
t47.5 -8.5q40 0 61.5 17.5t33.5 46.5h153q-10 -39 -30 -73t-51 -59.5t-72.5 -41.5t-93.5 -19l-4 -42q17 15 44 15q34 0 54 -21.5t20 -54.5q0 -20 -8 -39t-23 -34t-36.5 -24.5t-48.5 -9.5q-14 0 -31.5 3.5t-33.5 13t-26.5 27t-11.5 45.5h74q5 -26 31 -26q17 0 28 11t11 27
q0 13 -8 22t-22 9q-11 0 -19 -5t-13 -12h-65z" />
    <glyph glyph-name="egrave" unicode="&#xe8;" horiz-adv-x="577" 
d="M216 637l59 106l262 -128l-59 -106zM207 204q-1 -20 2 -39t13.5 -34t29.5 -24.5t50 -9.5q42 0 63.5 16t32.5 39h150q-9 -34 -30.5 -64t-54.5 -52.5t-76 -35.5t-95 -13q-58 0 -102 16.5t-73.5 46.5t-44.5 71.5t-15 91.5q0 58 19.5 109t55.5 89.5t88 61t118 22.5
q55 0 98 -16t72 -43.5t44.5 -65.5t15.5 -82q0 -23 -4 -42.5t-10 -41.5h-347zM329 393q-43 0 -75.5 -25.5t-37.5 -75.5h202q5 49 -20.5 75t-68.5 26z" />
    <glyph glyph-name="eacute" unicode="&#xe9;" horiz-adv-x="577" 
d="M221 509l-37 106l290 128l37 -106zM207 204q-1 -20 2 -39t13.5 -34t29.5 -24.5t50 -9.5q42 0 63.5 16t32.5 39h150q-9 -34 -30.5 -64t-54.5 -52.5t-76 -35.5t-95 -13q-58 0 -102 16.5t-73.5 46.5t-44.5 71.5t-15 91.5q0 58 19.5 109t55.5 89.5t88 61t118 22.5
q55 0 98 -16t72 -43.5t44.5 -65.5t15.5 -82q0 -23 -4 -42.5t-10 -41.5h-347zM329 393q-43 0 -75.5 -25.5t-37.5 -75.5h202q5 49 -20.5 75t-68.5 26z" />
    <glyph glyph-name="ecircumflex" unicode="&#xea;" horiz-adv-x="577" 
d="M374 781l179 -164l-84 -84l-109 107l-131 -106l-68 83zM207 204q-1 -20 2 -39t13.5 -34t29.5 -24.5t50 -9.5q42 0 63.5 16t32.5 39h150q-9 -34 -30.5 -64t-54.5 -52.5t-76 -35.5t-95 -13q-58 0 -102 16.5t-73.5 46.5t-44.5 71.5t-15 91.5q0 58 19.5 109t55.5 89.5t88 61
t118 22.5q55 0 98 -16t72 -43.5t44.5 -65.5t15.5 -82q0 -23 -4 -42.5t-10 -41.5h-347zM329 393q-43 0 -75.5 -25.5t-37.5 -75.5h202q5 49 -20.5 75t-68.5 26z" />
    <glyph glyph-name="edieresis" unicode="&#xeb;" horiz-adv-x="577" 
d="M138 622q0 21 8.5 39.5t23 32.5t33 22t39.5 8q38 0 62 -25t24 -61q0 -21 -8.5 -39t-23 -32t-33.5 -22t-40 -8q-38 0 -61.5 25t-23.5 60zM378 622q0 21 8.5 39.5t23 32.5t33.5 22t40 8q38 0 61.5 -25t23.5 -61q0 -21 -8 -39t-22.5 -32t-33.5 -22t-40 -8q-38 0 -62 25
t-24 60zM207 204q-1 -20 2 -39t13.5 -34t29.5 -24.5t50 -9.5q42 0 63.5 16t32.5 39h150q-9 -34 -30.5 -64t-54.5 -52.5t-76 -35.5t-95 -13q-58 0 -102 16.5t-73.5 46.5t-44.5 71.5t-15 91.5q0 58 19.5 109t55.5 89.5t88 61t118 22.5q55 0 98 -16t72 -43.5t44.5 -65.5
t15.5 -82q0 -23 -4 -42.5t-10 -41.5h-347zM329 393q-43 0 -75.5 -25.5t-37.5 -75.5h202q5 49 -20.5 75t-68.5 26z" />
    <glyph glyph-name="igrave" unicode="&#xec;" horiz-adv-x="283" 
d="M48 650l59 106l263 -128l-59 -106zM115 482h153l-50 -482h-153z" />
    <glyph glyph-name="iacute" unicode="&#xed;" horiz-adv-x="283" 
d="M83 522l-37 106l289 128l37 -106zM116 482h153l-51 -482h-153z" />
    <glyph glyph-name="icircumflex" unicode="&#xee;" horiz-adv-x="283" 
d="M224 781l179 -164l-85 -84l-109 107l-130 -106l-68 83zM116 482h153l-51 -482h-153z" />
    <glyph glyph-name="idieresis" unicode="&#xef;" horiz-adv-x="283" 
d="M12 622q0 21 8.5 39.5t23 32.5t33 22t39.5 8q38 0 62.5 -25t24.5 -61q0 -21 -8.5 -39t-23.5 -32t-34 -22t-40 -8q-38 0 -61.5 25t-23.5 60zM226 622q0 21 8.5 39.5t23 32.5t33 22t39.5 8q38 0 62 -25t24 -60q0 -21 -8.5 -39.5t-23 -32.5t-33.5 -22t-40 -8q-38 0 -61.5 25
t-23.5 60zM116 482h153l-51 -482h-153z" />
    <glyph glyph-name="eth" unicode="&#xf0;" horiz-adv-x="596" 
d="M299 -15q-59 0 -104.5 18.5t-77 49t-47.5 71t-16 85.5q0 55 23 98.5t60 78t84.5 59.5t97.5 43l6 2l-28 51l-102 -47l-27 76l90 41l-56 106h182l22 -45l87 40l27 -74l-75 -36l118 -218q14 -26 21.5 -58t7.5 -64q0 -56 -21 -106t-59.5 -88t-92.5 -60.5t-120 -22.5zM310 116
q28 0 51.5 11t40.5 29.5t27 43.5t10 52q0 46 -27.5 78t-76.5 32q-28 0 -51 -11t-40 -29.5t-26.5 -43t-9.5 -51.5q0 -46 26.5 -78.5t75.5 -32.5z" />
    <glyph glyph-name="ntilde" unicode="&#xf1;" horiz-adv-x="607" 
d="M454 680q23 0 40.5 13t31.5 33l74 -71q-30 -41 -69.5 -62t-83.5 -21q-27 0 -47.5 7.5t-37 16t-32 16t-32.5 7.5q-22 0 -38 -13t-33 -33l-70 77q33 41 71 58.5t78 17.5q28 0 48 -7t36.5 -16t31.5 -16t32 -7zM116 482h153l-8 -70q25 39 67.5 60.5t99.5 21.5q43 0 76 -13
t53 -42q20 -28 23.5 -64.5t-1.5 -88.5l-30 -286h-153l26 247q5 51 -10 84t-62 33q-48 0 -74.5 -33t-32.5 -89l-25 -242h-153z" />
    <glyph glyph-name="ograve" unicode="&#xf2;" horiz-adv-x="599" 
d="M214 637l59 106l263 -128l-59 -106zM300 -13q-59 0 -104.5 18t-76.5 49.5t-47 73.5t-16 90q0 55 21 105.5t60 88.5t93 60.5t120 22.5q59 0 104.5 -18t76.5 -49.5t47 -73.5t16 -90q0 -56 -21 -106t-60 -88t-93 -60.5t-120 -22.5zM313 118q27 0 50.5 11t41 29.5t27 43
t9.5 51.5q0 46 -27.5 78.5t-76.5 32.5q-28 0 -51 -11t-40 -29.5t-26.5 -43.5t-9.5 -52q0 -45 26.5 -77.5t76.5 -32.5z" />
    <glyph glyph-name="oacute" unicode="&#xf3;" horiz-adv-x="599" 
d="M217 509l-38 106l289 128l38 -106zM300 -13q-59 0 -104.5 18t-76.5 49.5t-47 73.5t-16 90q0 55 21 105.5t60 88.5t93 60.5t120 22.5q59 0 104.5 -18t76.5 -49.5t47 -73.5t16 -90q0 -56 -21 -106t-60 -88t-93 -60.5t-120 -22.5zM313 118q27 0 50.5 11t41 29.5t27 43
t9.5 51.5q0 46 -27.5 78.5t-76.5 32.5q-28 0 -51 -11t-40 -29.5t-26.5 -43.5t-9.5 -52q0 -45 26.5 -77.5t76.5 -32.5z" />
    <glyph glyph-name="ocircumflex" unicode="&#xf4;" horiz-adv-x="599" 
d="M380 781l180 -164l-85 -84l-109 107l-130 -106l-68 83zM300 -13q-59 0 -104.5 18t-76.5 49.5t-47 73.5t-16 90q0 55 21 105.5t60 88.5t93 60.5t120 22.5q59 0 104.5 -18t76.5 -49.5t47 -73.5t16 -90q0 -56 -21 -106t-60 -88t-93 -60.5t-120 -22.5zM313 118q27 0 50.5 11
t41 29.5t27 43t9.5 51.5q0 46 -27.5 78.5t-76.5 32.5q-28 0 -51 -11t-40 -29.5t-26.5 -43.5t-9.5 -52q0 -45 26.5 -77.5t76.5 -32.5z" />
    <glyph glyph-name="otilde" unicode="&#xf5;" horiz-adv-x="599" 
d="M444 680q23 0 40 13t33 33l73 -71q-31 -41 -70.5 -62t-83.5 -21q-27 0 -47.5 7.5t-37 16t-31.5 16t-32 7.5q-23 0 -39.5 -13t-31.5 -33l-69 77q32 41 70.5 58.5t78.5 17.5q28 0 48 -7t36.5 -16t31 -16t31.5 -7zM300 -13q-59 0 -104.5 18t-76.5 49.5t-47 73.5t-16 90
q0 55 21 105.5t60 88.5t93 60.5t120 22.5q59 0 104.5 -18t76.5 -49.5t47 -73.5t16 -90q0 -56 -21 -106t-60 -88t-93 -60.5t-120 -22.5zM313 118q27 0 50.5 11t41 29.5t27 43t9.5 51.5q0 46 -27.5 78.5t-76.5 32.5q-28 0 -51 -11t-40 -29.5t-26.5 -43.5t-9.5 -52
q0 -45 26.5 -77.5t76.5 -32.5z" />
    <glyph glyph-name="odieresis" unicode="&#xf6;" horiz-adv-x="599" 
d="M475 537q-38 0 -61.5 25t-23.5 60q0 21 8.5 39.5t22.5 32.5t33 22t40 8q38 0 62 -25t24 -61q0 -21 -8.5 -39t-23 -32t-33.5 -22t-40 -8zM235 537q-38 0 -62 25t-24 60q0 21 8.5 39.5t23 32.5t33 22t39.5 8q38 0 62 -25t24 -61q0 -21 -8.5 -39t-22.5 -32t-33 -22t-40 -8z
M594 264q0 -56 -21 -106t-60 -88t-93 -60.5t-120 -22.5q-59 0 -104.5 18t-76.5 49.5t-47 73.5t-16 90q0 55 21 105.5t60 88.5t93 60.5t120 22.5q59 0 104.5 -18t76.5 -49.5t47 -73.5t16 -90zM210 228q0 -45 26.5 -77.5t76.5 -32.5q27 0 50.5 11t41 29.5t27 43t9.5 51.5
q0 46 -27.5 78.5t-76.5 32.5q-28 0 -51 -11t-40 -29.5t-26.5 -43.5t-9.5 -52z" />
    <glyph glyph-name="divide" unicode="&#xf7;" 
d="M257 429q0 21 8.5 39.5t23 32.5t33.5 22t39 8q38 0 62 -25t24 -61q0 -21 -8.5 -39t-22.5 -32t-33 -22t-40 -8q-38 0 -62 25t-24 60zM113 190l13 122h427l-13 -122h-427zM219 63q0 21 8.5 39.5t23 32t33 21.5t39.5 8q38 0 62 -24.5t24 -60.5q0 -21 -8.5 -39t-23 -32
t-33 -22t-39.5 -8q-38 0 -62 25t-24 60z" />
    <glyph glyph-name="oslash" unicode="&#xf8;" horiz-adv-x="599" 
d="M210 227q0 -22 6 -43t20 -35l115 213q-4 1 -7 1.5t-10 0.5q-27 0 -49.5 -11t-39 -30t-26 -43.5t-9.5 -52.5zM312 118q28 0 51.5 11t41 29.5t27 43t9.5 51.5q0 25 -8 47t-23 37l-118 -218q5 -1 10 -1h10zM480 465q54 -29 84 -81.5t30 -119.5q0 -55 -21 -105t-59.5 -88.5
t-93.5 -61t-122 -22.5q-41 0 -75 9l-39 -74l-58 26l38 72q-53 29 -80.5 82t-27.5 116q0 55 21.5 105.5t59.5 88.5t91.5 60.5t118.5 22.5q23 0 40 -2.5t33 -5.5l40 74l57 -26z" />
    <glyph glyph-name="ugrave" unicode="&#xf9;" horiz-adv-x="607" 
d="M213 637l59 106l262 -128l-59 -106zM542 0h-153l7 69q-24 -38 -67 -59.5t-100 -21.5q-48 0 -79.5 14.5t-49.5 40.5q-20 28 -23 64.5t2 88.5l30 286h152l-26 -247q-5 -52 10 -84.5t63 -32.5t74 33t32 89l25 242h153z" />
    <glyph glyph-name="uacute" unicode="&#xfa;" horiz-adv-x="607" 
d="M243 509l-37 106l290 128l37 -106zM542 0h-153l7 69q-24 -38 -67 -59.5t-100 -21.5q-48 0 -79.5 14.5t-49.5 40.5q-20 28 -23 64.5t2 88.5l30 286h152l-26 -247q-5 -52 10 -84.5t63 -32.5t74 33t32 89l25 242h153z" />
    <glyph glyph-name="ucircumflex" unicode="&#xfb;" horiz-adv-x="607" 
d="M387 781l180 -164l-85 -84l-109 107l-130 -106l-68 83zM542 0h-153l7 69q-24 -38 -67 -59.5t-100 -21.5q-48 0 -79.5 14.5t-49.5 40.5q-20 28 -23 64.5t2 88.5l30 286h152l-26 -247q-5 -52 10 -84.5t63 -32.5t74 33t32 89l25 242h153z" />
    <glyph glyph-name="udieresis" unicode="&#xfc;" horiz-adv-x="607" 
d="M148 622q0 21 8.5 39.5t23 32.5t33.5 22t40 8q38 0 62 -25t24 -61q0 -21 -8.5 -39t-23 -32t-33.5 -22t-40 -8q-38 0 -62 25t-24 60zM389 622q0 21 8.5 39.5t23 32.5t33 22t39.5 8q38 0 62 -25t24 -61q0 -21 -8.5 -39t-23 -32t-33.5 -22t-40 -8q-38 0 -61.5 25t-23.5 60z
M542 0h-153l7 69q-24 -38 -67 -59.5t-100 -21.5q-48 0 -79.5 14.5t-49.5 40.5q-20 28 -23 64.5t2 88.5l30 286h152l-26 -247q-5 -52 10 -84.5t63 -32.5t74 33t32 89l25 242h153z" />
    <glyph glyph-name="yacute" unicode="&#xfd;" horiz-adv-x="615" 
d="M247 509l-38 106l290 128l38 -106zM283 -234q-62 0 -108 17t-69 36q-22 18 -39.5 55t-11.5 89h153q-2 -39 20 -61.5t68 -22.5q40 0 67 21.5t33 77.5l11 99q-25 -39 -66.5 -60t-96.5 -21q-92 0 -133 58q-20 28 -23 63t2 86l29 279h152l-26 -247q-5 -52 10 -84.5t63 -32.5
t74 33t32 89l25 242h153l-52 -494q-7 -65 -28.5 -102t-55.5 -63q-35 -26 -81 -41.5t-102 -15.5z" />
    <glyph glyph-name="thorn" unicode="&#xfe;" horiz-adv-x="632" 
d="M348 118q27 0 50.5 11t41 29.5t27 43t9.5 51.5q0 46 -27.5 78.5t-76.5 32.5q-27 0 -50.5 -11t-41 -30t-27 -43.5t-9.5 -51.5q0 -45 27.5 -77.5t76.5 -32.5zM44 -218l96 918h153l-30 -287q23 34 65.5 57.5t97.5 23.5q45 0 82 -17t64 -47.5t42 -72.5t15 -91
q0 -58 -20.5 -109t-55.5 -88.5t-81.5 -59t-98.5 -21.5q-57 0 -94.5 24t-51.5 56l-30 -286h-153z" />
    <glyph glyph-name="ydieresis" unicode="&#xff;" horiz-adv-x="615" 
d="M166 622q0 20 8 38t22 31.5t32.5 21.5t39.5 8q37 0 60 -24t23 -59q0 -20 -8 -38t-22 -31.5t-32.5 -21.5t-39.5 -8q-37 0 -60 24t-23 59zM407 622q0 20 8 38t22 31.5t32.5 21.5t38.5 8q37 0 60 -24t23 -59q0 -20 -8 -38t-22 -31.5t-32.5 -21.5t-38.5 -8q-37 0 -60 24
t-23 59zM283 -234q-62 0 -108 17t-69 36q-22 18 -39.5 55t-11.5 89h153q-2 -39 20 -61.5t68 -22.5q40 0 67 21.5t33 77.5l11 99q-25 -39 -66.5 -60t-96.5 -21q-92 0 -133 58q-20 28 -23 63t2 86l29 279h152l-26 -247q-5 -52 10 -84.5t63 -32.5t74 33t32 89l25 242h153
l-52 -494q-7 -65 -28.5 -102t-55.5 -63q-35 -26 -81 -41.5t-102 -15.5z" />
    <glyph glyph-name="Amacron" unicode="&#x100;" horiz-adv-x="660" 
d="M595 794h-368l13 115h368zM265 212h170l-53 288zM656 0h-176l-18 85h-249l-36 -85h-173l324 700h149z" />
    <glyph glyph-name="amacron" unicode="&#x101;" horiz-adv-x="635" 
d="M552 573h-368l12 114h368zM316 118q27 0 50.5 11t41 29.5t27 43t9.5 51.5q0 46 -27.5 78.5t-76.5 32.5q-27 0 -50.5 -11t-41 -30t-27 -43.5t-9.5 -51.5q0 -45 27.5 -77.5t76.5 -32.5zM621 482l-51 -482h-153l8 68q-23 -34 -65.5 -57t-96.5 -23q-45 0 -82.5 17t-64.5 47.5
t-42 72.5t-15 91q0 58 20.5 109t55.5 88.5t81.5 59t98.5 21.5q56 0 93 -23.5t53 -57.5l7 69h153z" />
    <glyph glyph-name="Abreve" unicode="&#x102;" horiz-adv-x="660" 
d="M420 868q38 0 62.5 20.5t36.5 51.5h123q-11 -39 -33 -71t-53 -54.5t-68.5 -34.5t-78.5 -12t-76 12t-60.5 34.5t-41 54.5t-17.5 71h122q5 -31 25.5 -51.5t58.5 -20.5zM265 212h170l-53 288zM656 0h-176l-18 85h-249l-36 -85h-173l324 700h149z" />
    <glyph glyph-name="abreve" unicode="&#x103;" horiz-adv-x="635" 
d="M378 652q38 0 62.5 20.5t37.5 51.5h122q-10 -39 -32.5 -71t-53.5 -54.5t-69 -34.5t-79 -12t-75.5 12t-60 34.5t-41 54.5t-17.5 71h123q5 -31 25 -51.5t58 -20.5zM316 118q27 0 50.5 11t41 29.5t27 43t9.5 51.5q0 46 -27.5 78.5t-76.5 32.5q-27 0 -50.5 -11t-41 -30
t-27 -43.5t-9.5 -51.5q0 -45 27.5 -77.5t76.5 -32.5zM621 482l-51 -482h-153l8 68q-23 -34 -65.5 -57t-96.5 -23q-45 0 -82.5 17t-64.5 47.5t-42 72.5t-15 91q0 58 20.5 109t55.5 88.5t81.5 59t98.5 21.5q56 0 93 -23.5t53 -57.5l7 69h153z" />
    <glyph glyph-name="Aogonek" unicode="&#x104;" horiz-adv-x="660" 
d="M597 -197q-20 -7 -44 -11t-49 -4q-64 0 -92 26t-28 62t25 65.5t71 58.5l-18 85h-249l-36 -85h-173l324 700h149l179 -700h-82q-23 -14 -44 -33t-21 -50q0 -20 10.5 -34t32.5 -14q10 0 25.5 3t29.5 9zM265 212h170l-53 288z" />
    <glyph glyph-name="aogonek" unicode="&#x105;" horiz-adv-x="635" 
d="M570 0h-55q-13 -8 -25.5 -16.5t-23 -19.5t-17 -24t-6.5 -29q0 -17 9.5 -29.5t31.5 -12.5q10 0 25 3t30 9l-10 -78q-20 -7 -44 -11t-50 -4q-65 0 -93.5 26t-28.5 63q0 36 26 65t79 61l7 65q-23 -34 -65.5 -57t-96.5 -23q-45 0 -82.5 17t-64.5 47.5t-42 72.5t-15 91
q0 58 20.5 109t55.5 88.5t81.5 59t98.5 21.5q56 0 93 -23.5t53 -57.5l7 69h153zM316 118q27 0 50.5 11t41 29.5t27 43t9.5 51.5q0 46 -27.5 78.5t-76.5 32.5q-27 0 -50.5 -11t-41 -30t-27 -43.5t-9.5 -51.5q0 -45 27.5 -77.5t76.5 -32.5z" />
    <glyph glyph-name="Cacute" unicode="&#x106;" horiz-adv-x="788" 
d="M358 740l-37 105l290 128l37 -105zM784 251q-16 -56 -50 -105t-83 -85.5t-111 -57.5t-134 -21q-82 0 -145 27t-106 72.5t-65.5 106t-22.5 128.5q0 77 29 149.5t82.5 128.5t130 90t172.5 34q78 0 137.5 -23t100 -62.5t61 -92t21.5 -112.5h-169q-5 65 -47.5 104.5
t-117.5 39.5q-54 0 -97.5 -20.5t-74 -55t-46.5 -78.5t-16 -90q0 -42 13 -78.5t38 -63.5t60.5 -42.5t79.5 -15.5q69 0 117.5 34.5t70.5 88.5h172z" />
    <glyph glyph-name="cacute" unicode="&#x107;" horiz-adv-x="575" 
d="M227 509l-37 106l289 128l37 -106zM419 293q0 29 -19.5 50.5t-64.5 21.5q-32 0 -55.5 -11.5t-38.5 -31t-22.5 -44t-7.5 -51.5q0 -23 5.5 -43t17.5 -35t31.5 -23.5t47.5 -8.5q40 0 61.5 17.5t33.5 46.5h153q-10 -42 -32.5 -77.5t-56.5 -61.5t-78.5 -40.5t-98.5 -14.5
q-61 0 -105.5 18.5t-74 50t-44 73t-14.5 87.5q0 54 19 104t55.5 89t90.5 62.5t124 23.5q59 0 102 -17t71 -45t41 -64.5t12 -75.5h-153z" />
    <glyph glyph-name="Ccircumflex" unicode="&#x108;" horiz-adv-x="788" 
d="M505 993l180 -164l-85 -84l-109 107l-130 -106l-68 83zM784 251q-16 -56 -50 -105t-83 -85.5t-111 -57.5t-134 -21q-82 0 -145 27t-106 72.5t-65.5 106t-22.5 128.5q0 77 29 149.5t82.5 128.5t130 90t172.5 34q78 0 137.5 -23t100 -62.5t61 -92t21.5 -112.5h-169
q-5 65 -47.5 104.5t-117.5 39.5q-54 0 -97.5 -20.5t-74 -55t-46.5 -78.5t-16 -90q0 -42 13 -78.5t38 -63.5t60.5 -42.5t79.5 -15.5q69 0 117.5 34.5t70.5 88.5h172z" />
    <glyph glyph-name="ccircumflex" unicode="&#x109;" horiz-adv-x="575" 
d="M380 781l180 -164l-85 -84l-108 107l-132 -106l-67 83zM419 293q0 29 -19.5 50.5t-64.5 21.5q-32 0 -55.5 -11.5t-38.5 -31t-22.5 -44t-7.5 -51.5q0 -23 5.5 -43t17.5 -35t31.5 -23.5t47.5 -8.5q40 0 61.5 17.5t33.5 46.5h153q-10 -42 -32.5 -77.5t-56.5 -61.5
t-78.5 -40.5t-98.5 -14.5q-61 0 -105.5 18.5t-74 50t-44 73t-14.5 87.5q0 54 19 104t55.5 89t90.5 62.5t124 23.5q59 0 102 -17t71 -45t41 -64.5t12 -75.5h-153z" />
    <glyph glyph-name="Cdotaccent" unicode="&#x10a;" horiz-adv-x="788" 
d="M395 853q0 21 8.5 39.5t23 32.5t33 22t39.5 8q38 0 62 -25.5t24 -60.5q0 -21 -8.5 -39.5t-23 -32.5t-33.5 -22t-40 -8q-38 0 -61.5 25.5t-23.5 60.5zM784 251q-16 -56 -50 -105t-83 -85.5t-111 -57.5t-134 -21q-82 0 -145 27t-106 72.5t-65.5 106t-22.5 128.5
q0 77 29 149.5t82.5 128.5t130 90t172.5 34q78 0 137.5 -23t100 -62.5t61 -92t21.5 -112.5h-169q-5 65 -47.5 104.5t-117.5 39.5q-54 0 -97.5 -20.5t-74 -55t-46.5 -78.5t-16 -90q0 -42 13 -78.5t38 -63.5t60.5 -42.5t79.5 -15.5q69 0 117.5 34.5t70.5 88.5h172z" />
    <glyph glyph-name="cdotaccent" unicode="&#x10b;" horiz-adv-x="575" 
d="M263 621q0 21 8.5 39.5t23 32.5t33 22t39.5 8q38 0 62.5 -25t24.5 -61q0 -21 -8.5 -39t-23 -32t-33.5 -22t-40 -8q-38 0 -62 25t-24 60zM419 293q0 29 -19.5 50.5t-64.5 21.5q-32 0 -55.5 -11.5t-38.5 -31t-22.5 -44t-7.5 -51.5q0 -23 5.5 -43t17.5 -35t31.5 -23.5
t47.5 -8.5q40 0 61.5 17.5t33.5 46.5h153q-10 -42 -32.5 -77.5t-56.5 -61.5t-78.5 -40.5t-98.5 -14.5q-61 0 -105.5 18.5t-74 50t-44 73t-14.5 87.5q0 54 19 104t55.5 89t90.5 62.5t124 23.5q59 0 102 -17t71 -45t41 -64.5t12 -75.5h-153z" />
    <glyph glyph-name="Ccaron" unicode="&#x10c;" horiz-adv-x="788" 
d="M293 907l85 83l108 -108l131 108l68 -83l-214 -165zM784 251q-16 -56 -50 -105t-83 -85.5t-111 -57.5t-134 -21q-82 0 -145 27t-106 72.5t-65.5 106t-22.5 128.5q0 77 29 149.5t82.5 128.5t130 90t172.5 34q78 0 137.5 -23t100 -62.5t61 -92t21.5 -112.5h-169
q-5 65 -47.5 104.5t-117.5 39.5q-54 0 -97.5 -20.5t-74 -55t-46.5 -78.5t-16 -90q0 -42 13 -78.5t38 -63.5t60.5 -42.5t79.5 -15.5q69 0 117.5 34.5t70.5 88.5h172z" />
    <glyph glyph-name="ccaron" unicode="&#x10d;" horiz-adv-x="575" 
d="M170 691l86 82l107 -108l132 109l67 -83l-214 -165zM419 293q0 29 -19.5 50.5t-64.5 21.5q-32 0 -55.5 -11.5t-38.5 -31t-22.5 -44t-7.5 -51.5q0 -23 5.5 -43t17.5 -35t31.5 -23.5t47.5 -8.5q40 0 61.5 17.5t33.5 46.5h153q-10 -42 -32.5 -77.5t-56.5 -61.5t-78.5 -40.5
t-98.5 -14.5q-61 0 -105.5 18.5t-74 50t-44 73t-14.5 87.5q0 54 19 104t55.5 89t90.5 62.5t124 23.5q59 0 102 -17t71 -45t41 -64.5t12 -75.5h-153z" />
    <glyph glyph-name="Dcaron" unicode="&#x10e;" horiz-adv-x="720" 
d="M236 907l86 83l108 -108l131 108l67 -83l-213 -165zM398 700q81 0 142.5 -26.5t103 -71t62.5 -102t21 -119.5q0 -72 -28 -140.5t-80 -122t-126.5 -86t-168.5 -32.5h-257l74 700h257zM288 560l-44 -420h87q53 0 95.5 19.5t72.5 52t46 73.5t16 85q0 37 -12 71.5t-35.5 60.5
t-58.5 42t-80 16h-87z" />
    <glyph glyph-name="dcaron" unicode="&#x10f;" horiz-adv-x="810" 
d="M682 633q0 21 8.5 40t23 33.5t34.5 23t44 8.5q42 0 66.5 -29.5t24.5 -92.5q0 -93 -56 -145.5t-163 -52.5l7 59q29 0 50 6.5t37 18.5q15 11 23.5 25t12.5 28q-3 -2 -10.5 -4.5t-19.5 -2.5q-35 0 -58.5 24t-23.5 61zM316 118q27 0 50.5 11t41 29.5t27 43t9.5 51.5
q0 46 -27.5 78.5t-76.5 32.5q-27 0 -50.5 -11t-41 -30t-27 -43.5t-9.5 -51.5q0 -45 27.5 -77.5t76.5 -32.5zM491 700h153l-74 -700h-153l8 68q-23 -34 -65.5 -57t-96.5 -23q-45 0 -82.5 17t-64.5 47.5t-42 72.5t-15 91q0 58 20.5 109t55.5 88.5t81.5 59t98.5 21.5
q56 0 93 -23.5t53 -57.5z" />
    <glyph glyph-name="Dcroat" unicode="&#x110;" horiz-adv-x="720" 
d="M398 700q81 0 142.5 -26.5t103 -71t62.5 -102t21 -119.5q0 -72 -28 -140.5t-80 -122t-126.5 -86t-168.5 -32.5h-257l32 301h-101l10 98h101l32 301h257zM366 301h-105l-17 -161h87q53 0 95.5 19.5t72.5 52t46 73.5t16 85q0 37 -12 71.5t-35.5 60.5t-58.5 42t-80 16h-87
l-17 -161h105z" />
    <glyph glyph-name="dcroat" unicode="&#x111;" horiz-adv-x="635" 
d="M316 118q27 0 50.5 11t41 29.5t27 43t9.5 51.5q0 46 -27.5 78.5t-76.5 32.5q-27 0 -50.5 -11t-41 -30t-27 -43.5t-9.5 -51.5q0 -45 27.5 -77.5t76.5 -32.5zM671 533h-45l-56 -533h-153l8 68q-23 -34 -65.5 -57t-96.5 -23q-45 0 -82.5 17t-64.5 47.5t-42 72.5t-15 91
q0 58 20.5 109t55.5 88.5t81.5 59t98.5 21.5q56 0 93 -23.5t53 -57.5l12 120h-107l9 82h107l9 85h153l-9 -85h45z" />
    <glyph glyph-name="Emacron" unicode="&#x112;" horiz-adv-x="555" 
d="M549 794h-368l13 115h368zM289 570l-17 -159h265l-13 -127h-265l-16 -154h265l-14 -130h-427l74 700h427l-14 -130h-265z" />
    <glyph glyph-name="emacron" unicode="&#x113;" horiz-adv-x="577" 
d="M539 573h-368l12 114h368zM207 204q-1 -20 2 -39t13.5 -34t29.5 -24.5t50 -9.5q42 0 63.5 16t32.5 39h150q-9 -34 -30.5 -64t-54.5 -52.5t-76 -35.5t-95 -13q-58 0 -102 16.5t-73.5 46.5t-44.5 71.5t-15 91.5q0 58 19.5 109t55.5 89.5t88 61t118 22.5q55 0 98 -16
t72 -43.5t44.5 -65.5t15.5 -82q0 -23 -4 -42.5t-10 -41.5h-347zM329 393q-43 0 -75.5 -25.5t-37.5 -75.5h202q5 49 -20.5 75t-68.5 26z" />
    <glyph glyph-name="Ebreve" unicode="&#x114;" horiz-adv-x="555" 
d="M374 868q38 0 62.5 20.5t36.5 51.5h123q-11 -39 -33 -71t-53 -54.5t-68.5 -34.5t-78.5 -12t-76 12t-60.5 34.5t-41 54.5t-17.5 71h122q5 -31 25.5 -51.5t58.5 -20.5zM289 570l-17 -159h265l-13 -127h-265l-16 -154h265l-14 -130h-427l74 700h427l-14 -130h-265z" />
    <glyph glyph-name="ebreve" unicode="&#x115;" horiz-adv-x="577" 
d="M359 652q38 0 62.5 20.5t36.5 51.5h123q-10 -39 -32.5 -71t-53.5 -54.5t-68.5 -34.5t-78.5 -12t-76 12t-60.5 34.5t-41 54.5t-17.5 71h123q5 -31 25 -51.5t58 -20.5zM207 204q-1 -20 2 -39t13.5 -34t29.5 -24.5t50 -9.5q42 0 63.5 16t32.5 39h150q-9 -34 -30.5 -64
t-54.5 -52.5t-76 -35.5t-95 -13q-58 0 -102 16.5t-73.5 46.5t-44.5 71.5t-15 91.5q0 58 19.5 109t55.5 89.5t88 61t118 22.5q55 0 98 -16t72 -43.5t44.5 -65.5t15.5 -82q0 -23 -4 -42.5t-10 -41.5h-347zM329 393q-43 0 -75.5 -25.5t-37.5 -75.5h202q5 49 -20.5 75t-68.5 26z
" />
    <glyph glyph-name="Edotaccent" unicode="&#x116;" horiz-adv-x="555" 
d="M273 853q0 20 8.5 38.5t22.5 32.5t33 22.5t40 8.5q38 0 62 -25.5t24 -60.5q0 -21 -8.5 -39.5t-23 -32.5t-33.5 -22t-40 -8q-38 0 -61.5 25.5t-23.5 60.5zM289 570l-17 -159h265l-13 -127h-265l-16 -154h265l-14 -130h-427l74 700h427l-14 -130h-265z" />
    <glyph glyph-name="edotaccent" unicode="&#x117;" horiz-adv-x="577" 
d="M259 621q0 21 8.5 39.5t22.5 32.5t33 22t40 8q38 0 62 -25t24 -60q0 -21 -8.5 -39.5t-23 -32.5t-33.5 -22t-40 -8q-38 0 -61.5 25t-23.5 60zM207 204q-1 -20 2 -39t13.5 -34t29.5 -24.5t50 -9.5q42 0 63.5 16t32.5 39h150q-9 -34 -30.5 -64t-54.5 -52.5t-76 -35.5
t-95 -13q-58 0 -102 16.5t-73.5 46.5t-44.5 71.5t-15 91.5q0 58 19.5 109t55.5 89.5t88 61t118 22.5q55 0 98 -16t72 -43.5t44.5 -65.5t15.5 -82q0 -23 -4 -42.5t-10 -41.5h-347zM329 393q-43 0 -75.5 -25.5t-37.5 -75.5h202q5 49 -20.5 75t-68.5 26z" />
    <glyph glyph-name="Eogonek" unicode="&#x118;" horiz-adv-x="555" 
d="M67 0l74 700h427l-14 -130h-265l-17 -159h265l-13 -127h-265l-16 -154h265l-14 -130h-46q-23 -14 -44 -33t-21 -50q0 -20 10.5 -34t32.5 -14q10 0 25.5 3t29.5 9l-10 -78q-20 -7 -43.5 -11t-48.5 -4q-65 0 -93 26t-28 63q0 35 22.5 63.5t69.5 59.5h-283z" />
    <glyph glyph-name="eogonek" unicode="&#x119;" horiz-adv-x="577" 
d="M375 -197q-20 -7 -44.5 -11t-49.5 -4q-63 0 -90.5 26t-27.5 63q0 34 20 61t58 53q-45 7 -79.5 27t-57.5 49.5t-34.5 67t-11.5 81.5q0 57 19.5 107.5t55.5 88.5t88 60.5t117 22.5q55 0 98 -16t72.5 -43.5t45 -65.5t15.5 -82q0 -23 -4 -42.5t-10 -41.5h-345
q-2 -22 1.5 -41.5t14 -34t29.5 -23t48 -8.5q41 0 62.5 16t32.5 39h150q-17 -61 -71.5 -106.5t-141.5 -55.5q-18 -13 -33 -30.5t-15 -43.5q0 -19 10 -33t33 -14q10 0 25 3t30 9zM330 393q-43 0 -75.5 -25.5t-37.5 -75.5h202q5 49 -20.5 75t-68.5 26z" />
    <glyph glyph-name="Ecaron" unicode="&#x11a;" horiz-adv-x="555" 
d="M176 907l85 83l109 -108l131 108l67 -83l-214 -165zM289 570l-17 -159h265l-13 -127h-265l-16 -154h265l-14 -130h-427l74 700h427l-14 -130h-265z" />
    <glyph glyph-name="ecaron" unicode="&#x11b;" horiz-adv-x="577" 
d="M167 691l86 82l107 -108l132 109l67 -83l-214 -165zM207 204q-1 -20 2 -39t13.5 -34t29.5 -24.5t50 -9.5q42 0 63.5 16t32.5 39h150q-9 -34 -30.5 -64t-54.5 -52.5t-76 -35.5t-95 -13q-58 0 -102 16.5t-73.5 46.5t-44.5 71.5t-15 91.5q0 58 19.5 109t55.5 89.5t88 61
t118 22.5q55 0 98 -16t72 -43.5t44.5 -65.5t15.5 -82q0 -23 -4 -42.5t-10 -41.5h-347zM329 393q-43 0 -75.5 -25.5t-37.5 -75.5h202q5 49 -20.5 75t-68.5 26z" />
    <glyph glyph-name="Gcircumflex" unicode="&#x11c;" horiz-adv-x="835" 
d="M507 993l180 -164l-85 -84l-109 107l-130 -106l-68 83zM493 370h363l-12 -121h-72q-16 -59 -49 -108t-80 -84.5t-107.5 -55t-132.5 -19.5q-84 0 -147.5 26.5t-105.5 72t-63 105t-21 125.5q0 79 29 152.5t82.5 130t128.5 90.5t167 34q69 0 124.5 -19.5t94.5 -53t59.5 -78
t19.5 -94.5h-173q-2 21 -11.5 40t-27.5 33.5t-43.5 23t-58.5 8.5q-52 0 -93.5 -22t-71 -58t-45 -82t-15.5 -95q0 -41 11.5 -78t35 -64.5t59 -43.5t83.5 -16q39 0 70 10.5t54 28.5t38 41.5t22 49.5h-124z" />
    <glyph glyph-name="gcircumflex" unicode="&#x11d;" horiz-adv-x="633" 
d="M388 781l179 -164l-85 -84l-108 107l-130 -106l-69 83zM341 364q-27 0 -50.5 -11t-41 -30t-27 -43.5t-9.5 -51.5q0 -45 27.5 -77.5t76.5 -32.5q27 0 50.5 11t40.5 29.5t27 43t10 51.5q0 45 -27.5 78t-76.5 33zM572 3q-8 -74 -32.5 -114.5t-62.5 -66.5q-33 -23 -82.5 -39
t-113.5 -16q-66 0 -113 17t-75 41q-24 21 -41.5 58t-13.5 80h153q0 -33 24 -57t77 -24t87 27.5t39 81.5l8 81q-23 -32 -64.5 -53.5t-95.5 -21.5q-46 0 -84 16t-65.5 45.5t-42.5 70t-15 90.5q0 57 20 107t55 87.5t81.5 59t100.5 21.5q57 0 93.5 -23t52.5 -58l7 69h153z" />
    <glyph glyph-name="Gbreve" unicode="&#x11e;" horiz-adv-x="835" 
d="M494 868q38 0 62.5 20.5t36.5 51.5h122q-10 -39 -32.5 -71t-53.5 -54.5t-68.5 -34.5t-78.5 -12t-75.5 12t-60.5 34.5t-41.5 54.5t-17.5 71h123q5 -31 25.5 -51.5t58.5 -20.5zM493 370h363l-12 -121h-72q-16 -59 -49 -108t-80 -84.5t-107.5 -55t-132.5 -19.5
q-84 0 -147.5 26.5t-105.5 72t-63 105t-21 125.5q0 79 29 152.5t82.5 130t128.5 90.5t167 34q69 0 124.5 -19.5t94.5 -53t59.5 -78t19.5 -94.5h-173q-2 21 -11.5 40t-27.5 33.5t-43.5 23t-58.5 8.5q-52 0 -93.5 -22t-71 -58t-45 -82t-15.5 -95q0 -41 11.5 -78t35 -64.5
t59 -43.5t83.5 -16q39 0 70 10.5t54 28.5t38 41.5t22 49.5h-124z" />
    <glyph glyph-name="gbreve" unicode="&#x11f;" horiz-adv-x="633" 
d="M378 652q38 0 62.5 20.5t37.5 51.5h122q-10 -39 -32.5 -71t-53.5 -54.5t-69 -34.5t-79 -12t-75.5 12t-60 34.5t-41 54.5t-17.5 71h123q5 -31 25 -51.5t58 -20.5zM341 364q-27 0 -50.5 -11t-41 -30t-27 -43.5t-9.5 -51.5q0 -45 27.5 -77.5t76.5 -32.5q27 0 50.5 11
t40.5 29.5t27 43t10 51.5q0 45 -27.5 78t-76.5 33zM572 3q-8 -74 -32.5 -114.5t-62.5 -66.5q-33 -23 -82.5 -39t-113.5 -16q-66 0 -113 17t-75 41q-24 21 -41.5 58t-13.5 80h153q0 -33 24 -57t77 -24t87 27.5t39 81.5l8 81q-23 -32 -64.5 -53.5t-95.5 -21.5q-46 0 -84 16
t-65.5 45.5t-42.5 70t-15 90.5q0 57 20 107t55 87.5t81.5 59t100.5 21.5q57 0 93.5 -23t52.5 -58l7 69h153z" />
    <glyph glyph-name="Gdotaccent" unicode="&#x120;" horiz-adv-x="835" 
d="M394 853q0 21 8.5 39.5t23 32.5t33 22t39.5 8q38 0 62.5 -25.5t24.5 -60.5q0 -21 -8.5 -39.5t-23 -32.5t-33.5 -22t-40 -8q-38 0 -62 25.5t-24 60.5zM493 370h363l-12 -121h-72q-16 -59 -49 -108t-80 -84.5t-107.5 -55t-132.5 -19.5q-84 0 -147.5 26.5t-105.5 72t-63 105
t-21 125.5q0 79 29 152.5t82.5 130t128.5 90.5t167 34q69 0 124.5 -19.5t94.5 -53t59.5 -78t19.5 -94.5h-173q-2 21 -11.5 40t-27.5 33.5t-43.5 23t-58.5 8.5q-52 0 -93.5 -22t-71 -58t-45 -82t-15.5 -95q0 -41 11.5 -78t35 -64.5t59 -43.5t83.5 -16q39 0 70 10.5t54 28.5
t38 41.5t22 49.5h-124z" />
    <glyph glyph-name="gdotaccent" unicode="&#x121;" horiz-adv-x="633" 
d="M265 621q0 21 8.5 39.5t23 32.5t33 22t39.5 8q38 0 62.5 -26t24.5 -61q0 -20 -8.5 -38.5t-23 -32.5t-33.5 -22t-40 -8q-38 0 -62 25.5t-24 60.5zM341 364q-27 0 -50.5 -11t-41 -30t-27 -43.5t-9.5 -51.5q0 -45 27.5 -77.5t76.5 -32.5q27 0 50.5 11t40.5 29.5t27 43
t10 51.5q0 45 -27.5 78t-76.5 33zM572 3q-8 -74 -32.5 -114.5t-62.5 -66.5q-33 -23 -82.5 -39t-113.5 -16q-66 0 -113 17t-75 41q-24 21 -41.5 58t-13.5 80h153q0 -33 24 -57t77 -24t87 27.5t39 81.5l8 81q-23 -32 -64.5 -53.5t-95.5 -21.5q-46 0 -84 16t-65.5 45.5
t-42.5 70t-15 90.5q0 57 20 107t55 87.5t81.5 59t100.5 21.5q57 0 93.5 -23t52.5 -58l7 69h153z" />
    <glyph glyph-name="Gcommaaccent" unicode="&#x122;" horiz-adv-x="835" 
d="M493 370h363l-12 -121h-72q-16 -59 -49 -108t-80 -84.5t-107.5 -55t-132.5 -19.5q-84 0 -147.5 26.5t-105.5 72t-63 105t-21 125.5q0 79 29 152.5t82.5 130t128.5 90.5t167 34q69 0 124.5 -19.5t94.5 -53t59.5 -78t19.5 -94.5h-173q-2 21 -11.5 40t-27.5 33.5t-43.5 23
t-58.5 8.5q-52 0 -93.5 -22t-71 -58t-45 -82t-15.5 -95q0 -41 11.5 -78t35 -64.5t59 -43.5t83.5 -16q39 0 70 10.5t54 28.5t38 41.5t22 49.5h-124zM313 -110q0 34 25 59t62 25q34 0 54 -24t20 -75q0 -78 -47 -118t-128 -40l5 48q25 0 42 5.5t29 14.5q23 17 27 42
q-2 -2 -7.5 -4t-16.5 -2q-28 0 -46.5 20t-18.5 49z" />
    <glyph glyph-name="gcommaaccent" unicode="&#x123;" horiz-adv-x="633" 
d="M453 634q0 -41 -29.5 -70t-73.5 -29q-39 0 -62.5 28t-23.5 88q0 89 53.5 137t151.5 48l-6 -56q-27 0 -47 -6t-35 -17q-14 -11 -22 -23.5t-11 -26.5q2 2 9.5 4.5t18.5 2.5q35 0 56 -23.5t21 -56.5zM341 364q-27 0 -50.5 -11t-41 -30t-27 -43.5t-9.5 -51.5
q0 -45 27.5 -77.5t76.5 -32.5q27 0 50.5 11t40.5 29.5t27 43t10 51.5q0 45 -27.5 78t-76.5 33zM572 3q-8 -74 -32.5 -114.5t-62.5 -66.5q-33 -23 -82.5 -39t-113.5 -16q-66 0 -113 17t-75 41q-24 21 -41.5 58t-13.5 80h153q0 -33 24 -57t77 -24t87 27.5t39 81.5l8 81
q-23 -32 -64.5 -53.5t-95.5 -21.5q-46 0 -84 16t-65.5 45.5t-42.5 70t-15 90.5q0 57 20 107t55 87.5t81.5 59t100.5 21.5q57 0 93.5 -23t52.5 -58l7 69h153z" />
    <glyph glyph-name="Hcircumflex" unicode="&#x124;" horiz-adv-x="699" 
d="M454 993l179 -164l-85 -84l-108 107l-131 -106l-68 83zM500 278h-242l-29 -278h-162l74 700h162l-30 -283h242l30 283h161l-74 -700h-161z" />
    <glyph glyph-name="hcircumflex" unicode="&#x125;" horiz-adv-x="597" 
d="M402 984l180 -164l-85 -84l-108 107l-132 -106l-67 83zM139 700h148l-31 -288q25 38 67 60t99 22q48 0 77.5 -15t46.5 -40q20 -29 24 -65.5t-1 -88.5l-30 -285h-148l26 247q5 51 -10 84t-62 33q-48 0 -74.5 -33t-32.5 -89l-25 -242h-148z" />
    <glyph glyph-name="Hbar" unicode="&#x126;" horiz-adv-x="699" 
d="M524 506h-242l-9 -89h242zM303 700l-12 -106h242l12 106h161l-74 -700h-161l29 278h-242l-29 -278h-162l74 700h162z" />
    <glyph glyph-name="hbar" unicode="&#x127;" horiz-adv-x="597" 
d="M403 533h-134l-13 -121q25 38 67 60t99 22q48 0 77.5 -15t46.5 -40q20 -29 24 -65.5t-1 -88.5l-30 -285h-148l26 247q5 51 -10 84t-62 33q-48 0 -74.5 -33t-32.5 -89l-25 -242h-148l56 533h-66l9 82h66l9 85h148l-9 -85h134z" />
    <glyph glyph-name="Itilde" unicode="&#x128;" horiz-adv-x="298" 
d="M314 884q23 0 40 13.5t32 32.5l74 -70q-33 -45 -73 -64t-80 -19q-28 0 -48 7.5t-37 16l-32 16t-32 7.5q-22 0 -38 -13t-33 -33l-70 77q33 41 71 58.5t77 17.5q28 0 48.5 -7.5t37 -16t31.5 -16t32 -7.5zM141 700h164l-74 -700h-164z" />
    <glyph glyph-name="itilde" unicode="&#x129;" horiz-adv-x="283" 
d="M285 680q23 0 40 13t33 33l73 -71q-31 -41 -70 -62t-83 -21q-27 0 -47.5 7.5t-37 16t-31.5 16t-32 7.5q-23 0 -39.5 -13t-31.5 -33l-70 77q32 41 70.5 58.5t77.5 17.5q28 0 48 -7t36.5 -16t31.5 -16t32 -7zM115 482h153l-50 -482h-153z" />
    <glyph glyph-name="Imacron" unicode="&#x12a;" horiz-adv-x="298" 
d="M417 794h-368l12 115h368zM140 700h164l-73 -700h-164z" />
    <glyph glyph-name="imacron" unicode="&#x12b;" horiz-adv-x="283" 
d="M385 572h-368l12 115h368zM116 482h153l-51 -482h-153z" />
    <glyph glyph-name="Ibreve" unicode="&#x12c;" horiz-adv-x="298" 
d="M241 868q38 0 63 20.5t36 51.5h123q-11 -39 -33 -71t-53 -54.5t-68.5 -34.5t-78.5 -12t-76 12t-60.5 34.5t-41 54.5t-17.5 71h122q6 -31 26 -51.5t58 -20.5zM141 700h164l-74 -700h-164z" />
    <glyph glyph-name="ibreve" unicode="&#x12d;" horiz-adv-x="283" 
d="M211 652q38 0 63 20.5t36 51.5h123q-11 -39 -33 -71t-53 -54.5t-68.5 -34.5t-78.5 -12t-76 12t-60.5 34.5t-41 54.5t-17.5 71h122q6 -31 26 -51.5t58 -20.5zM116 482h153l-51 -482h-153z" />
    <glyph glyph-name="Iogonek" unicode="&#x12e;" horiz-adv-x="298" 
d="M231 0h-28q-12 -7 -23.5 -15t-20.5 -18t-15 -22t-6 -28q0 -20 10 -34t33 -14q10 0 25 3t30 9l-10 -78q-20 -7 -44.5 -11t-49.5 -4q-63 0 -90.5 26t-27.5 63q0 35 22 63.5t70 59.5h-39l73 700h164z" />
    <glyph glyph-name="iogonek" unicode="&#x12f;" horiz-adv-x="283" 
d="M110 634q0 22 8.5 41t23.5 33t34.5 22.5t41.5 8.5q40 0 65 -25.5t25 -62.5q0 -22 -9 -41t-24 -33.5t-34.5 -23t-41.5 -8.5q-40 0 -64.5 26t-24.5 63zM216 -197q-20 -7 -44 -11t-49 -4q-65 0 -92.5 26t-27.5 63q0 35 22 63.5t70 59.5h-30l50 482h153l-50 -482h-25
q-12 -7 -23.5 -15t-20.5 -18t-15 -22t-6 -28q0 -20 10 -34t33 -14q10 0 25 3t30 9z" />
    <glyph glyph-name="Idotaccent" unicode="&#x130;" horiz-adv-x="298" 
d="M144 853q0 21 8.5 39.5t23 32.5t33 22t39.5 8q38 0 62.5 -25t24.5 -61q0 -21 -8.5 -39t-23 -32t-33.5 -22t-40 -8q-38 0 -62 25t-24 60zM141 700h164l-74 -700h-164z" />
    <glyph glyph-name="dotlessi" unicode="&#x131;" horiz-adv-x="258" 
d="M104 482h153l-51 -482h-153z" />
    <glyph glyph-name="Jcircumflex" unicode="&#x134;" horiz-adv-x="583" 
d="M546 993l180 -164l-85 -84l-109 107l-130 -106l-68 83zM548 241q-13 -124 -87 -191t-193 -67q-64 0 -110.5 19.5t-75 54t-40 82t-5.5 103.5h162q-5 -53 14.5 -86.5t67.5 -33.5q45 0 72.5 31.5t33.5 87.5l48 459h161z" />
    <glyph glyph-name="jcircumflex" unicode="&#x135;" horiz-adv-x="283" 
d="M224 781l180 -164l-85 -84l-109 107l-130 -106l-68 83zM210 -75q-5 -47 -18.5 -77.5t-33 -47.5t-44.5 -23.5t-53 -6.5q-26 0 -55 3.5t-43 8.5l12 114q13 -4 21 -5t14 -1q23 0 34 11t14 37l57 544h154z" />
    <glyph glyph-name="Kcommaaccent" unicode="&#x136;" horiz-adv-x="659" 
d="M455 0l-195 296l-31 -296h-162l74 700h162l-32 -297l258 297h195l-314 -350l240 -350h-195zM243 -101q0 35 25 60t62 25q33 0 53.5 -24t20.5 -75q0 -77 -47.5 -117.5t-128.5 -40.5l5 48q24 0 41.5 5.5t29.5 14.5q13 10 19 20.5t9 21.5q-2 -2 -8 -4t-17 -2q-28 0 -46 19.5
t-18 48.5z" />
    <glyph glyph-name="kcommaaccent" unicode="&#x137;" horiz-adv-x="554" 
d="M600 482l-214 -241l162 -241h-182l-127 202l-21 -202h-153l74 700h153l-45 -422l171 204h182zM187 -101q0 17 6.5 32.5t18.5 27t27.5 18.5t33.5 7q33 0 54 -24.5t21 -75.5q0 -75 -47 -116t-130 -41l5 48q25 0 42.5 5.5t29.5 14.5q13 10 19 20.5t8 21.5q-2 -2 -7.5 -4
t-16.5 -2q-29 0 -46.5 19.5t-17.5 48.5z" />
    <glyph glyph-name="kgreenlandic" unicode="&#x138;" horiz-adv-x="554" 
d="M386 241l162 -241h-182l-127 202l-21 -202h-153l51 482h153l-22 -204l171 204h182z" />
    <glyph glyph-name="Lacute" unicode="&#x139;" horiz-adv-x="453" 
d="M113 740l-37 106l289 128l37 -106zM443 140l-15 -140h-361l74 700h162l-59 -560h199z" />
    <glyph glyph-name="lacute" unicode="&#x13a;" horiz-adv-x="283" 
d="M107 747l-37 106l289 128l37 -106zM139 700h153l-74 -700h-153z" />
    <glyph glyph-name="Lcommaaccent" unicode="&#x13b;" horiz-adv-x="453" 
d="M141 700h162l-59 -560h199l-15 -140h-361zM135 -100q0 34 25 59t62 25q33 0 53.5 -24t20.5 -75q0 -77 -47.5 -117.5t-128.5 -40.5l5 48q25 0 42.5 5.5t29.5 14.5q13 9 19 20t8 22q-2 -2 -8 -4t-16 -2q-28 0 -46.5 20t-18.5 49z" />
    <glyph glyph-name="lcommaaccent" unicode="&#x13c;" horiz-adv-x="283" 
d="M138 700h153l-73 -700h-153zM50 -101q0 35 25 60t62 25q33 0 53.5 -24t20.5 -75q0 -77 -47.5 -117.5t-128.5 -40.5l5 48q25 0 42.5 5.5t29.5 14.5q13 10 19 20.5t8 21.5q-5 -3 -10 -4.5t-13 -1.5q-30 0 -48 19.5t-18 48.5z" />
    <glyph glyph-name="Lcaron" unicode="&#x13d;" horiz-adv-x="453" 
d="M379 634q0 22 8.5 41t23 33.5t34.5 23t43 8.5q42 0 67 -29.5t25 -93.5q0 -97 -58.5 -147t-161.5 -50l6 59q31 0 52.5 7t36.5 18t23.5 25t11.5 28q-2 -2 -9.5 -4.5t-19.5 -2.5q-38 0 -60 24.5t-22 59.5zM443 140l-15 -140h-361l74 700h162l-59 -560h199z" />
    <glyph glyph-name="lcaron" unicode="&#x13e;" horiz-adv-x="492" 
d="M347 634q0 22 8.5 41t23 33.5t34.5 23t43 8.5q42 0 67 -29.5t25 -93.5q0 -97 -58.5 -147t-161.5 -50l6 59q31 0 52.5 7t36.5 18t23.5 25t11.5 28q-2 -2 -9.5 -4.5t-19.5 -2.5q-38 0 -60 24.5t-22 59.5zM139 700h153l-74 -700h-153z" />
    <glyph glyph-name="Ldot" unicode="&#x13f;" horiz-adv-x="478" 
d="M443 140l-15 -140h-361l74 700h162l-59 -560h199zM338 401q0 22 9 42t24 35t35 23.5t43 8.5q41 0 66.5 -26.5t25.5 -64.5q0 -22 -9 -42t-24.5 -35t-36 -23.5t-42.5 -8.5q-41 0 -66 26.5t-25 64.5z" />
    <glyph glyph-name="ldot" unicode="&#x140;" horiz-adv-x="440" 
d="M139 700h153l-74 -700h-153zM297 335q0 22 9 42t24.5 35t35.5 23.5t43 8.5q40 0 66 -26.5t26 -64.5q0 -22 -9 -42t-25 -35t-36.5 -23.5t-42.5 -8.5q-40 0 -65.5 26.5t-25.5 64.5z" />
    <glyph glyph-name="Lslash" unicode="&#x141;" horiz-adv-x="456" 
d="M446 140l-15 -140h-361l27 256l-45 -20l10 96l45 20l37 348h162l-29 -273l144 62l-10 -96l-144 -62l-20 -191h199z" />
    <glyph glyph-name="lslash" unicode="&#x142;" horiz-adv-x="290" 
d="M95 281l-67 -33l10 94l67 33l35 325h164l-27 -248l70 35l-10 -96l-70 -34l-37 -357h-164z" />
    <glyph glyph-name="Nacute" unicode="&#x143;" horiz-adv-x="717" 
d="M322 740l-37 106l289 128l37 -106zM515 244l48 456h161l-74 -700h-169l-205 450l-47 -450h-162l74 700h169z" />
    <glyph glyph-name="nacute" unicode="&#x144;" horiz-adv-x="607" 
d="M243 509l-37 106l289 128l38 -106zM116 482h153l-8 -70q25 39 67.5 60.5t99.5 21.5q43 0 76 -13t53 -42q20 -28 23.5 -64.5t-1.5 -88.5l-30 -286h-153l26 247q5 51 -10 84t-62 33q-48 0 -74.5 -33t-32.5 -89l-25 -242h-153z" />
    <glyph glyph-name="Ncommaaccent" unicode="&#x145;" horiz-adv-x="717" 
d="M481 0l-205 450l-47 -450h-162l74 700h169l205 -456l48 456h161l-74 -700h-169zM267 -100q0 34 25 59t62 25q33 0 53.5 -24t20.5 -75q0 -77 -47.5 -117.5t-128.5 -40.5l5 48q25 0 42.5 5.5t29.5 14.5q13 9 19 20t8 22q-2 -2 -8 -4t-16 -2q-28 0 -46.5 20t-18.5 49z" />
    <glyph glyph-name="ncommaaccent" unicode="&#x146;" horiz-adv-x="607" 
d="M65 0l51 482h153l-8 -70q25 39 67.5 60.5t99.5 21.5q43 0 76 -13t53 -42q20 -28 23.5 -64.5t-1.5 -88.5l-30 -286h-153l26 247q5 51 -10 84t-62 33q-48 0 -74.5 -33t-32.5 -89l-25 -242h-153zM223 -101q0 35 24.5 60t61.5 25q33 0 54 -24t21 -75q0 -76 -47.5 -117
t-129.5 -41l5 48q25 0 42.5 5.5t29.5 14.5q13 10 19 20.5t8 21.5q-2 -2 -7.5 -4t-16.5 -2q-29 0 -46.5 19.5t-17.5 48.5z" />
    <glyph glyph-name="Ncaron" unicode="&#x147;" horiz-adv-x="717" 
d="M260 907l85 83l109 -108l131 108l67 -83l-214 -165zM515 244l48 456h161l-74 -700h-169l-205 450l-47 -450h-162l74 700h169z" />
    <glyph glyph-name="ncaron" unicode="&#x148;" horiz-adv-x="607" 
d="M190 691l85 82l108 -108l131 109l68 -83l-215 -165zM65 0l51 482h153l-8 -70q25 39 67.5 60.5t99.5 21.5q43 0 76 -13t53 -42q20 -28 23.5 -64.5t-1.5 -88.5l-30 -286h-153l26 247q5 51 -10 84t-62 33q-48 0 -74.5 -33t-32.5 -89l-25 -242h-153z" />
    <glyph glyph-name="napostrophe" unicode="&#x149;" horiz-adv-x="607" 
d="M-8 710q0 18 7 34.5t20 29t29.5 19.5t36.5 7q35 0 57 -25.5t22 -79.5q0 -80 -50 -124.5t-138 -44.5l6 52q26 0 44 5.5t31 14.5q14 10 20.5 21.5t9.5 23.5q-2 -2 -8.5 -4t-17.5 -2q-29 0 -49 21t-20 52zM65 0l51 482h153l-8 -70q25 39 67.5 60.5t99.5 21.5q43 0 76 -13
t53 -42q20 -28 23.5 -64.5t-1.5 -88.5l-30 -286h-153l26 247q5 51 -10 84t-62 33q-48 0 -74.5 -33t-32.5 -89l-25 -242h-153z" />
    <glyph glyph-name="Eng" unicode="&#x14a;" horiz-adv-x="717" 
d="M515 244l48 456h160l-72 -688q-7 -64 -30.5 -112t-60 -80.5t-84 -48.5t-101.5 -16q-62 0 -100.5 20t-67.5 56l105 100q17 -17 31.5 -27.5t40.5 -10.5q43 0 69.5 29.5t33.5 78.5l-211 449l-47 -450h-162l74 700h162z" />
    <glyph glyph-name="eng" unicode="&#x14b;" horiz-adv-x="607" 
d="M241 -76q14 -14 27 -23t35 -9q41 0 64 28.5t28 73.5l27 253q3 25 1 46t-10.5 37t-23.5 25t-39 9q-48 0 -74.5 -33t-32.5 -89l-25 -242h-153l51 482h153l-8 -70q25 39 67.5 60.5t99.5 21.5q43 0 76 -13t53 -42q20 -28 23.5 -64.5t-1.5 -88.5l-31 -298
q-11 -106 -71.5 -162.5t-156.5 -56.5q-48 0 -84 15t-64 45z" />
    <glyph glyph-name="Omacron" unicode="&#x14c;" horiz-adv-x="805" 
d="M671 794h-368l12 115h368zM404 -18q-83 0 -145.5 27.5t-105.5 73t-64.5 106t-21.5 126.5q0 78 29.5 150.5t83 128.5t128.5 90t167 34q82 0 145 -27.5t106 -73t64.5 -106t21.5 -126.5q0 -78 -29.5 -150.5t-83 -129t-128.5 -90t-167 -33.5zM418 128q51 0 93 21t72.5 55
t47 78t16.5 91q0 39 -12 75t-35.5 63.5t-58 44t-79.5 16.5q-51 0 -93 -20.5t-72 -55t-46.5 -78.5t-16.5 -91q0 -39 12 -75t35.5 -63.5t57.5 -44t79 -16.5z" />
    <glyph glyph-name="omacron" unicode="&#x14d;" horiz-adv-x="599" 
d="M544 572h-368l12 115h368zM300 -13q-59 0 -104.5 18t-76.5 49.5t-47 73.5t-16 90q0 55 21 105.5t60 88.5t93 60.5t120 22.5q59 0 104.5 -18t76.5 -49.5t47 -73.5t16 -90q0 -56 -21 -106t-60 -88t-93 -60.5t-120 -22.5zM313 118q27 0 50.5 11t41 29.5t27 43t9.5 51.5
q0 46 -27.5 78.5t-76.5 32.5q-28 0 -51 -11t-40 -29.5t-26.5 -43.5t-9.5 -52q0 -45 26.5 -77.5t76.5 -32.5z" />
    <glyph glyph-name="Obreve" unicode="&#x14e;" horiz-adv-x="805" 
d="M495 868q38 0 62.5 20.5t35.5 51.5h123q-11 -39 -33 -71t-53 -54.5t-68.5 -34.5t-78.5 -12t-76 12t-60.5 34.5t-41 54.5t-17.5 71h122q6 -31 26.5 -51.5t58.5 -20.5zM404 -18q-83 0 -145.5 27.5t-105.5 73t-64.5 106t-21.5 126.5q0 78 29.5 150.5t83 128.5t128.5 90
t167 34q82 0 145 -27.5t106 -73t64.5 -106t21.5 -126.5q0 -78 -29.5 -150.5t-83 -129t-128.5 -90t-167 -33.5zM418 128q51 0 93 21t72.5 55t47 78t16.5 91q0 39 -12 75t-35.5 63.5t-58 44t-79.5 16.5q-51 0 -93 -20.5t-72 -55t-46.5 -78.5t-16.5 -91q0 -39 12 -75
t35.5 -63.5t57.5 -44t79 -16.5z" />
    <glyph glyph-name="obreve" unicode="&#x14f;" horiz-adv-x="599" 
d="M368 652q38 0 62.5 20.5t35.5 51.5h123q-10 -39 -32.5 -71t-53.5 -54.5t-68.5 -34.5t-78.5 -12t-76 12t-60.5 34.5t-41 54.5t-17.5 71h123q5 -31 25.5 -51.5t58.5 -20.5zM300 -13q-59 0 -104.5 18t-76.5 49.5t-47 73.5t-16 90q0 55 21 105.5t60 88.5t93 60.5t120 22.5
q59 0 104.5 -18t76.5 -49.5t47 -73.5t16 -90q0 -56 -21 -106t-60 -88t-93 -60.5t-120 -22.5zM313 118q27 0 50.5 11t41 29.5t27 43t9.5 51.5q0 46 -27.5 78.5t-76.5 32.5q-28 0 -51 -11t-40 -29.5t-26.5 -43.5t-9.5 -52q0 -45 26.5 -77.5t76.5 -32.5z" />
    <glyph glyph-name="Ohungarumlaut" unicode="&#x150;" horiz-adv-x="805" 
d="M292 798l144 180l100 -62l-185 -146zM631 978l100 -62l-185 -146l-59 28zM404 -18q-83 0 -145.5 27.5t-105.5 73t-64.5 106t-21.5 126.5q0 78 29.5 150.5t83 128.5t128.5 90t167 34q82 0 145 -27.5t106 -73t64.5 -106t21.5 -126.5q0 -78 -29.5 -150.5t-83 -129
t-128.5 -90t-167 -33.5zM418 128q51 0 93 21t72.5 55t47 78t16.5 91q0 39 -12 75t-35.5 63.5t-58 44t-79.5 16.5q-51 0 -93 -20.5t-72 -55t-46.5 -78.5t-16.5 -91q0 -39 12 -75t35.5 -63.5t57.5 -44t79 -16.5z" />
    <glyph glyph-name="ohungarumlaut" unicode="&#x151;" horiz-adv-x="599" 
d="M438 547l-59 28l143 179l100 -61zM327 754l100 -61l-184 -146l-59 28zM300 -13q-59 0 -104.5 18t-76.5 49.5t-47 73.5t-16 90q0 55 21 105.5t60 88.5t93 60.5t120 22.5q59 0 104.5 -18t76.5 -49.5t47 -73.5t16 -90q0 -56 -21 -106t-60 -88t-93 -60.5t-120 -22.5zM313 118
q27 0 50.5 11t41 29.5t27 43t9.5 51.5q0 46 -27.5 78.5t-76.5 32.5q-28 0 -51 -11t-40 -29.5t-26.5 -43.5t-9.5 -52q0 -45 26.5 -77.5t76.5 -32.5z" />
    <glyph glyph-name="OE" unicode="&#x152;" horiz-adv-x="1097" 
d="M418 127q51 0 93 20.5t72 55t46.5 78t16.5 90.5q0 39 -12 75t-36 63.5t-58.5 44t-79.5 16.5q-51 0 -92.5 -20.5t-71.5 -55t-46.5 -78.5t-16.5 -90q0 -39 12 -75t35.5 -63.5t58 -44t79.5 -16.5zM829 570l-16 -159h266l-14 -127h-266l-16 -154h266l-13 -130h-427l4 47
q-43 -31 -96 -48.5t-118 -17.5q-80 0 -142 27.5t-104.5 73t-64.5 106t-22 126.5q0 77 29.5 149.5t83 129t128.5 90.5t167 34q67 0 116.5 -18t86.5 -49l5 50h427l-14 -130h-266z" />
    <glyph glyph-name="oe" unicode="&#x153;" horiz-adv-x="958" 
d="M591 204q-2 -21 1 -40.5t13.5 -34t29.5 -23.5t49 -9q41 0 63 16t33 39h150q-9 -34 -31 -64t-54.5 -52.5t-75.5 -35.5t-94 -13q-61 0 -106 18.5t-75 52.5q-37 -32 -86.5 -51.5t-109.5 -19.5q-58 0 -103 18t-76 49.5t-47 73.5t-16 90q0 55 21 105.5t59.5 88.5t92.5 60.5
t120 22.5q62 0 107 -19.5t76 -51.5q35 33 83.5 52t107.5 19q53 0 95 -16t71.5 -43.5t45 -65.5t15.5 -82q0 -23 -4 -42.5t-10 -41.5h-345zM711 387q-43 0 -74 -24.5t-36 -70.5h199q5 44 -19.5 69.5t-69.5 25.5zM313 118q27 0 50.5 10.5t40.5 29t27 43t10 52.5q0 48 -28 79.5
t-76 31.5q-28 0 -51 -11t-40 -29.5t-26.5 -43.5t-9.5 -52q0 -45 26.5 -77.5t76.5 -32.5z" />
    <glyph glyph-name="Racute" unicode="&#x154;" horiz-adv-x="654" 
d="M291 740l-37 106l289 128l37 -106zM374 326q28 0 51 11t39.5 29.5t26 42.5t9.5 50q0 22 -7 42t-20 35t-31.5 23.5t-41.5 8.5h-111l-26 -242h111zM141 700h294q54 0 96.5 -18.5t72 -50t45 -73t15.5 -88.5q0 -41 -11.5 -78.5t-32.5 -69.5t-51.5 -58t-68.5 -43l117 -221
h-188l-104 194h-76l-20 -194h-162z" />
    <glyph glyph-name="racute" unicode="&#x155;" horiz-adv-x="417" 
d="M150 522l-37 106l289 128l37 -106zM447 343q-15 4 -26 5.5t-25 1.5q-69 0 -109 -38t-49 -124l-20 -188h-153l51 482h153l-9 -78q10 17 26.5 32.5t37 27.5t45 19t50.5 7q24 0 43 -8z" />
    <glyph glyph-name="Rcommaaccent" unicode="&#x156;" horiz-adv-x="654" 
d="M141 700h294q54 0 96.5 -18.5t72 -50t45 -73t15.5 -88.5q0 -41 -11.5 -78.5t-32.5 -69.5t-51.5 -58t-68.5 -43l117 -221h-188l-104 194h-76l-20 -194h-162zM289 568l-26 -242h111q28 0 51 11t39.5 29.5t26 42.5t9.5 50q0 22 -7 42t-20 35t-31.5 23.5t-41.5 8.5h-111z
M236 -101q0 35 24.5 60t61.5 25q33 0 54 -24t21 -75q0 -76 -47.5 -117t-129.5 -41l5 48q48 0 71 19.5t28 42.5q-1 -2 -7.5 -4t-17.5 -2q-27 0 -45 19.5t-18 48.5z" />
    <glyph glyph-name="rcommaaccent" unicode="&#x157;" horiz-adv-x="417" 
d="M447 343q-16 4 -27 5.5t-25 1.5q-69 0 -109 -38t-49 -124l-20 -188h-152l50 482h153l-8 -78q10 17 26 32.5t36.5 27.5t45 19t50.5 7t43 -8zM50 -100q0 35 25 59.5t62 24.5q33 0 53.5 -24t20.5 -75q0 -78 -48.5 -117.5t-127.5 -39.5l5 48q47 0 72 19q10 8 17.5 19t9.5 24
q-2 -2 -7.5 -4.5t-16.5 -2.5q-29 0 -47 20t-18 49z" />
    <glyph glyph-name="Rcaron" unicode="&#x158;" horiz-adv-x="654" 
d="M204 907l85 83l109 -108l131 108l67 -83l-214 -165zM374 326q28 0 51 11t39.5 29.5t26 42.5t9.5 50q0 22 -7 42t-20 35t-31.5 23.5t-41.5 8.5h-111l-26 -242h111zM141 700h294q54 0 96.5 -18.5t72 -50t45 -73t15.5 -88.5q0 -41 -11.5 -78.5t-32.5 -69.5t-51.5 -58
t-68.5 -43l117 -221h-188l-104 194h-76l-20 -194h-162z" />
    <glyph glyph-name="rcaron" unicode="&#x159;" horiz-adv-x="417" 
d="M110 691l85 82l108 -108l131 109l68 -83l-215 -165zM447 343q-15 4 -26 5.5t-25 1.5q-69 0 -109 -38t-49 -124l-20 -188h-153l51 482h153l-9 -78q10 17 26.5 32.5t37 27.5t45 19t50.5 7q24 0 43 -8z" />
    <glyph glyph-name="Sacute" unicode="&#x15a;" horiz-adv-x="606" 
d="M267 740l-38 106l290 128l38 -106zM225 232q-6 -56 21 -88.5t77 -32.5q43 0 72.5 24.5t29.5 64.5q0 19 -7.5 32.5t-20.5 24t-31.5 18.5t-39.5 16q-45 17 -84 34.5t-68 40.5t-45.5 55t-16.5 78q0 54 22.5 95t60 68.5t86 41.5t100.5 14q61 0 106 -18t72.5 -49t39 -71
t6.5 -85h-162q5 48 -15 74.5t-62 26.5q-36 0 -64 -20t-28 -57q0 -33 25 -52.5t66 -34.5q44 -16 84.5 -33t71 -41t49 -57.5t18.5 -82.5q0 -53 -21.5 -96.5t-59.5 -74.5t-90 -48t-112 -17q-61 0 -109 17.5t-79.5 50t-45.5 78.5t-8 104h162z" />
    <glyph glyph-name="sacute" unicode="&#x15b;" horiz-adv-x="510" 
d="M194 509l-37 106l290 128l37 -106zM348 284q31 -9 57 -19t45 -24.5t29 -35.5t10 -53q0 -44 -19 -75t-50.5 -51t-74 -29.5t-88.5 -9.5q-103 0 -159.5 43.5t-47.5 131.5l150 -1q-5 -38 15 -54.5t54 -16.5q30 0 49 11.5t19 35.5q0 13 -6.5 21.5t-20.5 15t-37.5 14
t-56.5 19.5q-28 9 -53 18.5t-43.5 23.5t-29 35t-10.5 53q0 40 17 69.5t47 49t71 29.5t89 10q109 0 156 -45t41 -118h-151q3 30 -11 46.5t-45 16.5q-25 0 -43.5 -11t-18.5 -34q0 -13 7.5 -21t22 -14.5t36 -13.5t50.5 -17z" />
    <glyph glyph-name="Scircumflex" unicode="&#x15c;" horiz-adv-x="606" 
d="M410 993l180 -164l-85 -84l-109 107l-130 -106l-68 83zM225 232q-6 -56 21 -88.5t77 -32.5q43 0 72.5 24.5t29.5 64.5q0 19 -7.5 32.5t-20.5 24t-31.5 18.5t-39.5 16q-45 17 -84 34.5t-68 40.5t-45.5 55t-16.5 78q0 54 22.5 95t60 68.5t86 41.5t100.5 14q61 0 106 -18
t72.5 -49t39 -71t6.5 -85h-162q5 48 -15 74.5t-62 26.5q-36 0 -64 -20t-28 -57q0 -33 25 -52.5t66 -34.5q44 -16 84.5 -33t71 -41t49 -57.5t18.5 -82.5q0 -53 -21.5 -96.5t-59.5 -74.5t-90 -48t-112 -17q-61 0 -109 17.5t-79.5 50t-45.5 78.5t-8 104h162z" />
    <glyph glyph-name="scircumflex" unicode="&#x15d;" horiz-adv-x="510" 
d="M338 781l180 -164l-85 -84l-109 107l-131 -106l-67 83zM348 284q31 -9 57 -19t45 -24.5t29 -35.5t10 -53q0 -44 -19 -75t-50.5 -51t-74 -29.5t-88.5 -9.5q-103 0 -159.5 43.5t-47.5 131.5l150 -1q-5 -38 15 -54.5t54 -16.5q30 0 49 11.5t19 35.5q0 13 -6.5 21.5t-20.5 15
t-37.5 14t-56.5 19.5q-28 9 -53 18.5t-43.5 23.5t-29 35t-10.5 53q0 40 17 69.5t47 49t71 29.5t89 10q109 0 156 -45t41 -118h-151q3 30 -11 46.5t-45 16.5q-25 0 -43.5 -11t-18.5 -34q0 -13 7.5 -21t22 -14.5t36 -13.5t50.5 -17z" />
    <glyph glyph-name="Scedilla" unicode="&#x15e;" horiz-adv-x="606" 
d="M261 -16q-48 6 -87.5 24.5t-66 50t-39 75t-6.5 98.5h162q-6 -57 22 -89t76 -32q43 0 73 24.5t30 64.5q0 19 -7.5 32.5t-21 24t-32 18.5t-39.5 16q-45 17 -84 34.5t-68 40.5t-45.5 55t-16.5 78q0 54 23 95t60.5 68.5t86 41.5t100.5 14q61 0 105.5 -18t72 -49t39 -71
t7.5 -85h-162q5 48 -15 74.5t-62 26.5q-36 0 -64 -20t-28 -57q0 -33 24.5 -52.5t65.5 -34.5q44 -16 84.5 -33t71.5 -41t49.5 -57.5t18.5 -82.5q0 -48 -18 -89t-51 -71.5t-79 -49.5t-101 -24l-4 -43q7 6 17.5 10.5t24.5 4.5q32 0 54 -23t22 -58q0 -20 -8 -39.5t-23 -35
t-37 -25t-49 -9.5q-16 0 -34 4t-33 14.5t-25 28.5t-10 46h74q2 -14 9.5 -22t21.5 -8q17 0 28 11.5t11 28.5q0 14 -8.5 23t-22.5 9q-21 0 -31 -17h-65z" />
    <glyph glyph-name="scedilla" unicode="&#x15f;" horiz-adv-x="510" 
d="M204 -9q-81 11 -121.5 54.5t-32.5 116.5l150 -1q-4 -38 16 -54.5t54 -16.5q29 0 48.5 11.5t19.5 35.5q0 13 -7 21.5t-22 15.5t-38 14.5t-55 18.5q-28 9 -52.5 18.5t-43 23.5t-29 35t-10.5 53q0 40 17 69.5t47 49t71 29.5t89 10q55 0 93.5 -12t62.5 -34t33.5 -51.5
t6.5 -65.5h-151q3 30 -10.5 46.5t-44.5 16.5q-25 0 -44 -11t-19 -34q0 -12 6.5 -20t20.5 -14.5t36 -14t53 -17.5q31 -9 57 -19t45 -24.5t29 -35.5t10 -52q0 -41 -16.5 -71t-44.5 -50t-66 -30.5t-80 -12.5l-5 -46q7 6 18 10.5t25 4.5q32 0 53.5 -22.5t21.5 -57.5
q0 -20 -8 -40t-23 -35.5t-37 -25t-49 -9.5q-16 0 -33.5 4t-32.5 14.5t-25 28.5t-10 46h74q2 -14 9 -22t21 -8q17 0 28.5 11.5t11.5 28.5q0 14 -8.5 23t-23.5 9q-20 0 -31 -17h-65z" />
    <glyph glyph-name="Scaron" unicode="&#x160;" horiz-adv-x="606" 
d="M209 907l85 83l108 -108l131 108l68 -83l-215 -165zM225 232q-6 -56 21 -88.5t77 -32.5q43 0 72.5 24.5t29.5 64.5q0 19 -7.5 32.5t-20.5 24t-31.5 18.5t-39.5 16q-44 17 -83 34t-68 40.5t-46 55t-17 78.5q0 54 23 95t61 68.5t87 41.5t101 14q61 0 105 -18t71.5 -49
t38.5 -71t6 -85h-162q5 48 -15 74.5t-62 26.5q-36 0 -64 -20t-28 -57q0 -33 25 -52.5t66 -34.5q44 -16 84.5 -33t71 -41t49 -57.5t18.5 -82.5q0 -53 -21.5 -96.5t-59.5 -74.5t-90 -48t-112 -17q-61 0 -109 17.5t-79.5 50t-45.5 78.5t-8 104h162z" />
    <glyph glyph-name="scaron" unicode="&#x161;" horiz-adv-x="510" 
d="M133 691l85 82l109 -108l131 109l67 -83l-214 -165zM348 284q31 -9 57 -19t45 -24.5t29 -35.5t10 -53q0 -44 -19 -75t-50.5 -51t-74 -29.5t-88.5 -9.5q-103 0 -159.5 43.5t-47.5 130.5h150q-5 -38 15 -54.5t54 -16.5q30 0 49 11.5t19 35.5q0 13 -6.5 21.5t-20.5 15
t-37.5 14t-56.5 19.5q-28 9 -53 18.5t-43.5 23.5t-29 35t-10.5 53q0 40 17 69.5t47 49t71 29.5t89 10q109 0 156 -45t41 -118h-151q3 30 -11 46.5t-45 16.5q-25 0 -43.5 -11t-18.5 -34q0 -13 7.5 -21t22 -14.5t36 -13.5t50.5 -17z" />
    <glyph glyph-name="Tcommaaccent" unicode="&#x162;" horiz-adv-x="509" 
d="M232 560h-158l15 140h479l-15 -140h-159l-59 -560h-162zM166 -101q0 17 6.5 32.5t18.5 27t27.5 18.5t33.5 7q33 0 54 -24.5t21 -75.5q0 -75 -47 -116t-130 -41l5 48q48 0 71 19.5t28 42.5q-1 -2 -7.5 -4t-16.5 -2q-28 0 -46 19.5t-18 48.5z" />
    <glyph glyph-name="tcommaaccent" unicode="&#x163;" horiz-adv-x="383" 
d="M68 482h76l15 143h152l-15 -143h110l-12 -114h-110l-18 -172q-3 -28 0.5 -44t12 -24.5t21 -11t26.5 -2.5q11 0 26.5 0.5t26.5 2.5l-13 -117q-17 -3 -43.5 -5.5t-61.5 -2.5q-26 0 -55.5 4t-52.5 20.5t-36 51t-7 94.5l22 206h-76zM133 -101q0 35 25 60t62 25q33 0 53.5 -24
t20.5 -75q0 -77 -47.5 -117.5t-128.5 -40.5l5 48q25 0 42.5 5.5t29.5 14.5q10 8 17 18.5t9 23.5q-2 -2 -7 -4t-16 -2q-29 0 -47 19.5t-18 48.5z" />
    <glyph glyph-name="Tcaron" unicode="&#x164;" horiz-adv-x="509" 
d="M154 907l85 83l109 -108l131 108l67 -83l-214 -165zM232 560h-158l15 140h479l-15 -140h-159l-59 -560h-162z" />
    <glyph glyph-name="tcaron" unicode="&#x165;" horiz-adv-x="635" 
d="M445 620q0 21 8.5 40t23.5 33.5t35 23t43 8.5q41 0 66 -29.5t25 -94.5q0 -97 -58.5 -147t-160.5 -50l6 60q31 0 52.5 7t36.5 18t23 25t11 28q-2 -2 -9 -4.5t-19 -2.5q-38 0 -60.5 25t-22.5 60zM68 482h76l15 143h152l-15 -143h110l-12 -114h-110l-18 -172q-3 -28 0.5 -44
t12 -24.5t21 -11t26.5 -2.5q11 0 26.5 0.5t26.5 2.5l-13 -117q-17 -3 -43.5 -5.5t-61.5 -2.5q-26 0 -55.5 4t-52.5 20.5t-36 51t-7 94.5l22 206h-76z" />
    <glyph glyph-name="Tbar" unicode="&#x166;" horiz-adv-x="509" 
d="M477 368h-103l-39 -368h-162l39 368h-103l9 89h103l11 103h-158l15 140h479l-15 -140h-159l-11 -103h103z" />
    <glyph glyph-name="tbar" unicode="&#x167;" horiz-adv-x="383" 
d="M366 0q-17 -3 -43.5 -5.5t-61.5 -2.5q-26 0 -55.5 4t-52.5 20.5t-36 51t-7 94.5l5 47h-76l9 82h76l8 77h-76l12 114h76l15 143h152l-15 -143h110l-12 -114h-110l-8 -77h91l-9 -82h-89l-2 -19q-3 -25 0.5 -40t11.5 -23t20.5 -10.5t27.5 -2.5q11 0 25.5 0.5t25.5 2.5z" />
    <glyph glyph-name="Utilde" unicode="&#x168;" horiz-adv-x="657" 
d="M497 884q23 0 40 13.5t33 32.5l72 -70q-32 -45 -72 -64t-80 -19q-28 0 -48 7.5t-37 16l-32 16t-32 7.5q-22 0 -38 -13t-32 -33l-70 77q32 41 70.5 58.5t77.5 17.5q28 0 48 -7.5t36.5 -16t31.5 -16t32 -7.5zM129 700h162l-48 -460q-3 -24 3 -45.5t18.5 -37.5t32 -25.5
t44.5 -9.5t46 9.5t37.5 25.5t26.5 37.5t13 45.5l48 460h162l-48 -461q-6 -54 -30 -101t-63 -81.5t-91.5 -54.5t-115.5 -20t-111 20t-79.5 54.5t-46 81.5t-8.5 101z" />
    <glyph glyph-name="utilde" unicode="&#x169;" horiz-adv-x="607" 
d="M447 680q23 0 40 13t33 33l72 -71q-32 -44 -72 -63.5t-80 -19.5q-27 0 -47.5 7.5t-37 16t-31.5 16t-32 7.5q-23 0 -39.5 -13t-31.5 -33l-70 77q32 41 70.5 58.5t77.5 17.5q28 0 48 -7t36.5 -16t31.5 -16t32 -7zM542 0h-153l7 69q-24 -38 -67 -59.5t-100 -21.5
q-48 0 -79.5 14.5t-49.5 40.5q-20 28 -23 64.5t2 88.5l30 286h152l-26 -247q-5 -52 10 -84.5t63 -32.5t74 33t32 89l25 242h153z" />
    <glyph glyph-name="Umacron" unicode="&#x16a;" horiz-adv-x="657" 
d="M598 794h-368l13 115h368zM129 700h162l-48 -460q-3 -24 3 -45.5t18.5 -37.5t32 -25.5t44.5 -9.5t46 9.5t37.5 25.5t26.5 37.5t13 45.5l48 460h162l-48 -461q-6 -54 -30 -101t-63 -81.5t-91.5 -54.5t-115.5 -20t-111 20t-79.5 54.5t-46 81.5t-8.5 101z" />
    <glyph glyph-name="umacron" unicode="&#x16b;" horiz-adv-x="607" 
d="M547 572h-368l12 115h368zM542 0h-153l7 69q-24 -38 -67 -59.5t-100 -21.5q-48 0 -79.5 14.5t-49.5 40.5q-20 28 -23 64.5t2 88.5l30 286h152l-26 -247q-5 -52 10 -84.5t63 -32.5t74 33t32 89l25 242h153z" />
    <glyph glyph-name="Ubreve" unicode="&#x16c;" horiz-adv-x="657" 
d="M417 868q38 0 63 20.5t36 51.5h123q-10 -39 -32.5 -71t-53.5 -54.5t-68.5 -34.5t-78.5 -12t-76 12t-60.5 34.5t-41 54.5t-17.5 71h123q5 -31 25 -51.5t58 -20.5zM129 700h162l-48 -460q-3 -24 3 -45.5t18.5 -37.5t32 -25.5t44.5 -9.5t46 9.5t37.5 25.5t26.5 37.5t13 45.5
l48 460h162l-48 -461q-6 -54 -30 -101t-63 -81.5t-91.5 -54.5t-115.5 -20t-111 20t-79.5 54.5t-46 81.5t-8.5 101z" />
    <glyph glyph-name="ubreve" unicode="&#x16d;" horiz-adv-x="607" 
d="M370 652q38 0 62.5 20.5t36.5 51.5h123q-10 -39 -32.5 -71t-53.5 -54.5t-68.5 -34.5t-78.5 -12t-76 12t-60.5 34.5t-41 54.5t-17.5 71h123q5 -31 25 -51.5t58 -20.5zM542 0h-153l7 69q-24 -38 -67 -59.5t-100 -21.5q-48 0 -79.5 14.5t-49.5 40.5q-20 28 -23 64.5t2 88.5
l30 286h152l-26 -247q-5 -52 10 -84.5t63 -32.5t74 33t32 89l25 242h153z" />
    <glyph glyph-name="Uring" unicode="&#x16e;" horiz-adv-x="657" 
d="M432 1002q27 0 49.5 -10t39 -26.5t25.5 -39.5t9 -48q0 -29 -12 -55.5t-32.5 -46.5t-47.5 -31.5t-57 -11.5q-27 0 -49 9.5t-38.5 26.5t-25.5 39t-9 48q0 30 12.5 56.5t33 46.5t47 31.5t55.5 11.5zM425 920q-23 0 -40 -17t-17 -40q0 -19 13 -32.5t33 -13.5q23 0 40.5 16.5
t17.5 39.5q0 19 -13 33t-34 14zM129 700h162l-48 -460q-3 -24 3 -45.5t18.5 -37.5t32 -25.5t44.5 -9.5t46 9.5t37.5 25.5t26.5 37.5t13 45.5l48 460h162l-48 -461q-6 -54 -30 -101t-63 -81.5t-91.5 -54.5t-115.5 -20t-111 20t-79.5 54.5t-46 81.5t-8.5 101z" />
    <glyph glyph-name="uring" unicode="&#x16f;" horiz-adv-x="607" 
d="M383 804q27 0 50 -10t39.5 -27t26 -40t9.5 -49q0 -30 -12.5 -57t-33.5 -48t-48.5 -33t-57.5 -12q-27 0 -50 10t-39.5 27.5t-26 40.5t-9.5 49q0 31 12.5 58t33.5 47t48.5 32t57.5 12zM376 726q-26 0 -45.5 -19t-19.5 -45q0 -23 15 -38t38 -15q26 0 45 19t19 45
q0 22 -14 37.5t-38 15.5zM542 0h-153l7 69q-24 -38 -67 -59.5t-100 -21.5q-48 0 -79.5 14.5t-49.5 40.5q-20 28 -23 64.5t2 88.5l30 286h152l-26 -247q-5 -52 10 -84.5t63 -32.5t74 33t32 89l25 242h153z" />
    <glyph glyph-name="Uhungarumlaut" unicode="&#x170;" horiz-adv-x="657" 
d="M371 978l99 -62l-184 -146l-59 28zM566 978l99 -62l-184 -146l-59 28zM129 700h162l-48 -460q-3 -24 3 -45.5t18.5 -37.5t32 -25.5t44.5 -9.5t46 9.5t37.5 25.5t26.5 37.5t13 45.5l48 460h162l-48 -461q-6 -54 -30 -101t-63 -81.5t-91.5 -54.5t-115.5 -20t-111 20
t-79.5 54.5t-46 81.5t-8.5 101z" />
    <glyph glyph-name="uhungarumlaut" unicode="&#x171;" horiz-adv-x="607" 
d="M433 531l-59 28l144 180l100 -62zM238 531l-59 28l144 180l100 -62zM592 482l-50 -482h-153l7 69q-24 -38 -67 -59.5t-100 -21.5q-48 0 -79.5 14.5t-49.5 40.5q-20 28 -23 64.5t2 88.5l30 286h152l-26 -247q-5 -52 10 -84.5t63 -32.5t74 33t32 89l25 242h153z" />
    <glyph glyph-name="Uogonek" unicode="&#x172;" horiz-adv-x="657" 
d="M412 -197q-20 -7 -44.5 -11t-49.5 -4q-63 0 -90.5 26t-27.5 64q0 29 17 55t55 53q-50 8 -88 30.5t-62.5 56t-35 76t-5.5 90.5l48 461h163l-48 -460q-3 -24 2.5 -45.5t18.5 -37.5t32 -25.5t44 -9.5t46.5 9.5t38 25.5t26.5 37.5t13 45.5l48 460h161l-48 -461
q-5 -50 -26 -94t-54.5 -77.5t-79 -55t-100.5 -27.5q-17 -12 -29.5 -28.5t-12.5 -39.5q0 -20 10 -34t33 -14q10 0 25 3t30 9z" />
    <glyph glyph-name="uogonek" unicode="&#x173;" horiz-adv-x="607" 
d="M229 -12q-48 0 -79.5 14.5t-49.5 40.5q-20 28 -23 64.5t2 88.5l30 286h152l-26 -247q-5 -52 10 -84.5t63 -32.5t74 33t32 89l25 242h153l-50 -482h-55q-13 -8 -26 -16.5t-23.5 -19.5t-17 -24t-6.5 -29q0 -17 9.5 -29.5t31.5 -12.5q10 0 25 3t30 9l-10 -78q-20 -7 -44 -11
t-50 -4q-65 0 -93.5 26t-28.5 63q0 36 26 65t79 61l7 66q-24 -38 -67 -59.5t-100 -21.5z" />
    <glyph glyph-name="Wcircumflex" unicode="&#x174;" horiz-adv-x="1035" 
d="M623 993l180 -164l-85 -84l-109 107l-131 -106l-67 83zM565 440l-186 -440h-133l-173 700h171l95 -459l190 459h125l95 -459l190 459h171l-321 -700h-132z" />
    <glyph glyph-name="wcircumflex" unicode="&#x175;" horiz-adv-x="803" 
d="M486 781l179 -164l-85 -84l-108 107l-131 -106l-68 83zM435 307l-132 -307h-124l-129 482h158l59 -287l115 287h141l55 -287l119 287h158l-231 -482h-124z" />
    <glyph glyph-name="Ycircumflex" unicode="&#x176;" horiz-adv-x="641" 
d="M440 993l180 -164l-85 -84l-109 107l-131 -106l-67 83zM302 0h-179l157 263l-202 437h189l120 -275l157 275h179z" />
    <glyph glyph-name="ycircumflex" unicode="&#x177;" horiz-adv-x="615" 
d="M391 781l179 -164l-85 -84l-109 107l-130 -106l-68 83zM283 -234q-62 0 -108 17t-69 36q-22 18 -39.5 55t-11.5 89h153q-2 -39 20 -61.5t68 -22.5q40 0 67 21.5t33 77.5l11 99q-25 -39 -66.5 -60t-96.5 -21q-92 0 -133 58q-20 28 -23 63t2 86l29 279h152l-26 -247
q-5 -52 10 -84.5t63 -32.5t74 33t32 89l25 242h153l-52 -494q-7 -65 -28.5 -102t-55.5 -63q-35 -26 -81 -41.5t-102 -15.5z" />
    <glyph glyph-name="Ydieresis" unicode="&#x178;" horiz-adv-x="641" 
d="M218 845q0 20 8.5 38t22.5 31.5t32.5 21.5t38.5 8q37 0 60.5 -24t23.5 -59q0 -20 -8 -38t-22 -31.5t-32.5 -21.5t-38.5 -8q-37 0 -61 24t-24 59zM459 845q0 20 8.5 38t22.5 31.5t32.5 21.5t38.5 8q37 0 60 -24t23 -59q0 -20 -8 -38t-22 -31.5t-32.5 -21.5t-39.5 -8
q-37 0 -60 24t-23 59zM302 0h-179l157 263l-202 437h189l120 -275l157 275h179z" />
    <glyph glyph-name="Zacute" unicode="&#x179;" horiz-adv-x="632" 
d="M284 740l-37 106l289 128l37 -106zM119 700h572l-403 -564h332l-14 -136h-589l401 564h-314z" />
    <glyph glyph-name="zacute" unicode="&#x17a;" horiz-adv-x="480" 
d="M180 508l-37 106l289 128l38 -106zM518 482l-249 -352h205l-14 -130h-442l250 352h-200l14 130h436z" />
    <glyph glyph-name="Zdotaccent" unicode="&#x17b;" horiz-adv-x="632" 
d="M314 853q0 20 8.5 38.5t22.5 32.5t33 22.5t40 8.5q38 0 62 -25.5t24 -60.5q0 -21 -8.5 -39.5t-23 -32.5t-33.5 -22t-40 -8q-38 0 -61.5 25.5t-23.5 60.5zM119 700h572l-403 -564h332l-14 -136h-589l401 564h-314z" />
    <glyph glyph-name="zdotaccent" unicode="&#x17c;" horiz-adv-x="480" 
d="M212 621q0 21 8.5 39.5t22.5 32.5t33 22t40 8q38 0 62 -25t24 -61q0 -21 -8.5 -39t-23 -32t-33.5 -22t-40 -8q-38 0 -61.5 25t-23.5 60zM518 482l-249 -352h205l-14 -130h-442l250 352h-200l14 130h436z" />
    <glyph glyph-name="Zcaron" unicode="&#x17d;" horiz-adv-x="632" 
d="M224 907l86 83l108 -108l131 108l67 -83l-213 -165zM119 700h572l-403 -564h332l-14 -136h-589l401 564h-314z" />
    <glyph glyph-name="zcaron" unicode="&#x17e;" horiz-adv-x="480" 
d="M128 691l85 82l108 -108l131 109l68 -83l-215 -165zM518 482l-249 -352h205l-14 -130h-442l250 352h-200l14 130h436z" />
    <glyph glyph-name="longs" unicode="&#x17f;" horiz-adv-x="380" 
d="M430 588q-11 3 -21.5 4.5t-24.5 1.5q-30 0 -49 -11t-24 -50l-56 -533h-152l39 368h-87l12 114h87l4 42q6 66 28 103t50.5 56t59.5 23.5t56 4.5q35 0 55.5 -4t34.5 -9z" />
    <glyph glyph-name="florin" unicode="&#x192;" horiz-adv-x="476" 
d="M-42 -66q11 -3 21.5 -4.5t24.5 -1.5q12 0 23.5 2t22 8.5t20 19t17.5 34.5l105 376h-87l32 114h87l12 42q19 66 47 103t59.5 56t63 23.5t56.5 4.5q35 0 55.5 -4t31.5 -9l-31 -110q-11 3 -21.5 4.5t-25.5 1.5q-12 0 -23.5 -1.5t-22 -8t-19.5 -18.5t-15 -33l-14 -51h111
l-32 -114h-112l-104 -370q-18 -66 -46.5 -103t-60 -56t-63 -23.5t-56.5 -4.5q-35 0 -55.5 4t-31.5 9z" />
    <glyph glyph-name="Aringacute" unicode="&#x1fa;" horiz-adv-x="660" 
d="M301 807l-24 66l247 114l24 -65zM409 784q-12 0 -21 -9t-9 -20q0 -10 7.5 -17.5t18.5 -7.5t20 9t9 20q0 10 -7 17.5t-18 7.5zM265 212h170l-53 288zM490 764q0 -20 -8.5 -36t-21.5 -28h17l179 -700h-176l-18 85h-249l-36 -85h-173l322 699h17q-19 19 -19 51q0 18 7.5 34
t20 28.5t29 19.5t34.5 7q32 0 53.5 -22t21.5 -53z" />
    <glyph glyph-name="aringacute" unicode="&#x1fb;" horiz-adv-x="635" 
d="M230 823l270 122l36 -97l-270 -121zM361 521q-21 0 -39 7.5t-30.5 21t-20 31.5t-7.5 38q0 24 9.5 45t26 36.5t38 25t44.5 9.5q42 0 69.5 -28.5t27.5 -68.5q0 -24 -9.5 -45t-26 -37t-38 -25.5t-44.5 -9.5zM367 588q18 0 31.5 13t13.5 32q0 15 -10 25.5t-26 10.5
q-19 0 -31.5 -13.5t-12.5 -31.5q0 -15 10 -25.5t25 -10.5zM444 253q0 46 -27.5 78.5t-76.5 32.5q-27 0 -50.5 -11t-41 -30t-27 -43.5t-9.5 -51.5q0 -45 27.5 -77.5t76.5 -32.5q27 0 50.5 11t41 29.5t27 43t9.5 51.5zM468 482h153l-51 -482h-153l8 68q-23 -34 -65.5 -57
t-96.5 -23q-45 0 -82.5 17t-64.5 47.5t-42 72.5t-15 91q0 58 20.5 109t55.5 88.5t81.5 59t98.5 21.5q56 0 93 -23.5t53 -57.5z" />
    <glyph glyph-name="AEacute" unicode="&#x1fc;" horiz-adv-x="919" 
d="M494 740l-38 106l289 128l38 -106zM449 213l36 342l-192 -342h156zM649 570l-17 -159h265l-13 -127h-265l-16 -154h265l-14 -130h-427l9 86h-212l-47 -86h-176l410 700h517l-14 -130h-265z" />
    <glyph glyph-name="aeacute" unicode="&#x1fd;" horiz-adv-x="961" 
d="M419 498l-37 105l289 128l37 -105zM606 482l-1 -12q26 11 56.5 18t65.5 7q52 0 94 -16t71 -44t44.5 -66t15.5 -82q0 -22 -3.5 -41.5t-9.5 -41.5h-346q-2 -22 1.5 -41.5t14.5 -34t30 -23t48 -8.5q41 0 62.5 16t32.5 39h150q-10 -35 -32 -65.5t-55 -52.5t-75.5 -34.5
t-91.5 -12.5q-38 0 -67.5 7t-53.5 19l-2 -13h-138l8 68q-23 -34 -65.5 -57t-96.5 -23q-45 0 -82.5 17t-64.5 47.5t-42 72.5t-15 91q0 58 20.5 109t55.5 88.5t81.5 59t98.5 21.5q56 0 93 -23.5t53 -57.5l7 69h138zM713 387q-42 0 -73 -24.5t-37 -70.5h199q5 43 -19.5 69
t-69.5 26zM316 118q27 0 50.5 11t41 29.5t27 43t9.5 51.5q0 47 -28 79t-76 32q-28 0 -51.5 -11t-40.5 -30t-26.5 -43t-9.5 -51q0 -46 27.5 -78.5t76.5 -32.5z" />
    <glyph glyph-name="Oslashacute" unicode="&#x1fe;" horiz-adv-x="805" 
d="M366 740l-37 106l290 128l37 -106zM503 566q-18 6 -41 6q-51 0 -93 -20.5t-72 -55t-46.5 -78.5t-16.5 -91q0 -44 15 -84.5t44 -67.5zM647 371q0 47 -17.5 89.5t-49.5 69.5l-212 -396q10 -3 23.5 -4.5t26.5 -1.5q51 0 93 20.5t72 54.5t47 77.5t17 90.5zM402 -18
q-61 0 -110 15l-48 -90l-78 36l48 88q-72 44 -109.5 120.5t-37.5 164.5q0 77 29.5 149.5t83 128.5t129 90t168.5 34q29 0 54 -3.5t48 -9.5l45 84l77 -37l-42 -79q37 -21 66 -52.5t48 -69t29 -80.5t10 -87q0 -77 -29 -149.5t-83 -128.5t-129.5 -90t-168.5 -34z" />
    <glyph glyph-name="oslashacute" unicode="&#x1ff;" horiz-adv-x="599" 
d="M239 509l-37 106l289 128l37 -106zM210 226q0 -22 6 -42.5t20 -34.5l116 213q-4 1 -7.5 1.5t-10.5 0.5q-26 0 -49 -11t-39.5 -30t-26 -44t-9.5 -53zM312 118q28 0 51.5 11t41 29.5t27 43t9.5 51.5q0 52 -31 83l-118 -217q5 -1 10 -1h10zM480 465q54 -29 84 -81.5
t30 -119.5q0 -55 -21 -105t-59.5 -88.5t-93.5 -61t-122 -22.5q-41 0 -74 9l-40 -74l-57 26l37 72q-53 29 -80.5 82t-27.5 116q0 55 21 105.5t60 88.5t93 60.5t120 22.5q20 0 37 -2t33 -6l40 74l58 -26z" />
    <glyph glyph-name="Scommaaccent" unicode="&#x218;" horiz-adv-x="606" 
d="M225 232q-6 -56 21 -88.5t77 -32.5q43 0 72.5 24.5t29.5 64.5q0 19 -7.5 32.5t-20.5 24t-31.5 18.5t-39.5 16q-45 17 -84 34.5t-68 40.5t-45.5 55t-16.5 78q0 54 22.5 95t60 68.5t86 41.5t100.5 14q61 0 106 -18t72.5 -49t39 -71t6.5 -85h-162q5 48 -15 74.5t-62 26.5
q-36 0 -64 -20t-28 -57q0 -33 25 -52.5t66 -34.5q44 -16 84.5 -33t71 -41t49 -57.5t18.5 -82.5q0 -53 -21.5 -96.5t-59.5 -74.5t-90 -48t-112 -17q-61 0 -109 17.5t-79.5 50t-45.5 78.5t-8 104h162zM214 -111q0 35 25 60t62 25q33 0 53.5 -24t20.5 -75q0 -77 -47.5 -117.5
t-128.5 -40.5l5 48q48 0 70.5 19.5t27.5 42.5q-1 -2 -7 -4t-17 -2q-28 0 -46 19.5t-18 48.5z" />
    <glyph glyph-name="scommaaccent" unicode="&#x219;" horiz-adv-x="510" 
d="M200 161q-5 -38 15 -54.5t54 -16.5q30 0 49 11.5t19 35.5q0 13 -6.5 21.5t-20.5 15t-37.5 14t-56.5 19.5q-28 9 -53 18.5t-43.5 23.5t-29 35t-10.5 53q0 40 17 69.5t47 49t71 29.5t89 10q109 0 156 -45t41 -118h-151q3 30 -11 46.5t-45 16.5q-25 0 -43.5 -11t-18.5 -34
q0 -13 7.5 -21t22 -14.5t36 -13.5t50.5 -17q31 -9 57 -19t45 -24.5t29 -35.5t10 -53q0 -44 -19 -75t-50.5 -51t-74 -29.5t-88.5 -9.5q-103 0 -159.5 43.5t-47.5 131.5zM165 -102q0 35 25.5 59.5t62.5 24.5q33 0 53 -23.5t20 -74.5q0 -78 -47 -118t-128 -40l5 48q25 0 42 5
t29 14q23 17 28 43q-2 -2 -8 -4.5t-17 -2.5q-27 0 -46 19.5t-19 49.5z" />
    <glyph glyph-name="uni021A" unicode="&#x21a;" horiz-adv-x="509" 
d="M232 560h-158l15 140h479l-15 -140h-159l-59 -560h-162zM166 -101q0 17 6.5 32.5t18.5 27t27.5 18.5t33.5 7q33 0 54 -24.5t21 -75.5q0 -75 -47 -116t-130 -41l5 48q48 0 71 19.5t28 42.5q-1 -2 -7.5 -4t-16.5 -2q-28 0 -46 19.5t-18 48.5z" />
    <glyph glyph-name="uni021B" unicode="&#x21b;" horiz-adv-x="383" 
d="M68 482h76l15 143h152l-15 -143h110l-12 -114h-110l-18 -172q-3 -28 0.5 -44t12 -24.5t21 -11t26.5 -2.5q11 0 26.5 0.5t26.5 2.5l-13 -117q-17 -3 -43.5 -5.5t-61.5 -2.5q-26 0 -55.5 4t-52.5 20.5t-36 51t-7 94.5l22 206h-76zM131 -101q0 35 25.5 60t62.5 25
q32 0 52.5 -24t20.5 -75q0 -77 -47 -117.5t-128 -40.5l5 48q24 0 41.5 5.5t29.5 14.5q13 10 19 20.5t8 21.5q-2 -2 -7.5 -4t-16.5 -2q-29 0 -47 19.5t-18 48.5z" />
    <glyph glyph-name="hsuperior" unicode="&#x2b0;" horiz-adv-x="400" 
d="M136 700h96l-16 -154q14 20 37 33t56 13q46 0 66 -26q13 -17 15.5 -40t-0.5 -52l-17 -159h-97l15 138q2 26 -5 40.5t-30 14.5q-44 0 -50 -60l-14 -133h-96z" />
    <glyph glyph-name="jsuperior" unicode="&#x2b2;" horiz-adv-x="248" 
d="M135 665q0 26 20 45.5t47 19.5q25 0 40.5 -15.5t15.5 -38.5q0 -27 -20.5 -46t-47.5 -19q-25 0 -40 15.5t-15 38.5zM207 287q-3 -30 -12 -48.5t-22 -28.5t-29 -13t-32 -3q-17 0 -34.5 2t-27.5 5l8 72q12 -3 21 -3q11 0 18.5 5t9.5 21l30 290h101z" />
    <glyph glyph-name="wsuperior" unicode="&#x2b7;" horiz-adv-x="520" 
d="M310 469l-61 -154h-88l-70 271h102l29 -154l54 154h91l23 -154l61 154h103l-127 -271h-87z" />
    <glyph glyph-name="ysuperior" unicode="&#x2b8;" horiz-adv-x="413" 
d="M226 194q-80 0 -110 27t-25 79h100q-2 -17 7.5 -27.5t33.5 -10.5q23 0 35 13t15 44l4 43q-12 -22 -36.5 -34.5t-56.5 -12.5q-21 0 -39 6.5t-30 21.5q-13 16 -15 37.5t1 52.5l16 153h101l-15 -138q-2 -26 5 -40.5t30 -14.5q43 0 49 60l14 133h102l-27 -260
q-4 -36 -14.5 -61.5t-29.5 -41t-47.5 -22.5t-67.5 -7z" />
    <glyph glyph-name="apostrophemod" unicode="&#x2bc;" horiz-adv-x="283" 
d="M129 655q0 35 25.5 60t63.5 25q33 0 53 -23.5t20 -75.5q0 -78 -46.5 -119t-129.5 -41l5 49q24 0 41 5t30 15q23 17 28 42q-2 -2 -7.5 -3.5t-15.5 -1.5q-30 0 -48.5 19.5t-18.5 48.5z" />
    <glyph glyph-name="circumflex" unicode="&#x2c6;" horiz-adv-x="488" 
d="M331 842l179 -157l-88 -88l-107 94l-126 -93l-71 87z" />
    <glyph glyph-name="caron" unicode="&#x2c7;" horiz-adv-x="461" 
d="M128 761l82 88l99 -98l120 98l64 -88l-200 -157z" />
    <glyph glyph-name="breve" unicode="&#x2d8;" horiz-adv-x="546" 
d="M263 855q8 -33 29.5 -53.5t62.5 -20.5t66.5 20.5t41.5 53.5h116q-11 -39 -34 -71t-54 -54.5t-68.5 -34.5t-77.5 -12q-41 0 -76 12t-61 34.5t-42 54.5t-19 71h116z" />
    <glyph glyph-name="dotaccent" unicode="&#x2d9;" horiz-adv-x="496" 
d="M218 614q0 21 8.5 39.5t23 32.5t33 22t39.5 8q38 0 62.5 -25t24.5 -61q0 -21 -8.5 -39t-23 -32t-33.5 -22t-40 -8q-38 0 -62 25t-24 60z" />
    <glyph glyph-name="ring" unicode="&#x2da;" horiz-adv-x="496" 
d="M335 846q27 0 49 -9.5t38.5 -26t25.5 -39t9 -47.5q0 -30 -12 -56.5t-32.5 -46.5t-47.5 -31.5t-56 -11.5q-27 0 -49 9.5t-38.5 26.5t-25.5 39t-9 48q0 30 12.5 56t33 46t47 31.5t55.5 11.5zM327 758q-20 0 -34.5 -15t-14.5 -34q0 -17 11.5 -29t28.5 -12q19 0 34 14.5
t15 34.5q0 17 -11 29t-29 12z" />
    <glyph glyph-name="ogonek" unicode="&#x2db;" horiz-adv-x="477" 
d="M327 -197q-20 -7 -44 -11t-49 -4q-65 0 -92.5 26t-27.5 63q0 35 22 63.5t70 59.5h98q-12 -7 -23.5 -15t-20.5 -18t-15 -22t-6 -28q0 -20 10 -34t33 -14q10 0 25 3t30 9z" />
    <glyph glyph-name="tilde" unicode="&#x2dc;" horiz-adv-x="513" 
d="M131 662q25 14 43 22t31.5 11.5t22.5 4t17 0.5q12 0 32 -4t42 -9.5t43 -9.5t35 -4t31.5 6t51.5 21l37 -90q-45 -32 -76 -38.5t-40 -6.5q-16 0 -37 4t-43 9t-42 9t-33 4q-17 0 -36.5 -6.5t-38.5 -14.5z" />
    <glyph glyph-name="hungarumlaut" unicode="&#x2dd;" horiz-adv-x="509" 
d="M268 747l99 -61l-184 -146l-59 28zM463 747l99 -61l-184 -146l-59 28z" />
    <glyph glyph-name="xsuperior" unicode="&#x2e3;" horiz-adv-x="370" 
d="M374 315h-116l-32 73l-48 -73h-117l111 137l-81 134h117l31 -71l45 71h117l-109 -134z" />
    <glyph glyph-name="Delta" unicode="&#x394;" horiz-adv-x="660" 
d="M656 0h-652l324 700h149zM231 127h220l-69 373z" />
    <glyph glyph-name="Omega" unicode="&#x3a9;" horiz-adv-x="723" 
d="M420 567q-43 0 -76 -15.5t-56 -42t-35 -61.5t-12 -73q0 -58 27.5 -101t84.5 -56l-23 -218h-275l13 127h150l2 15q-68 32 -104 95t-36 140q0 65 25.5 125.5t72 107t112 74.5t144.5 28q71 0 126 -23t92.5 -61.5t56.5 -89.5t19 -107q0 -47 -13.5 -91t-38.5 -81.5
t-61.5 -67.5t-81.5 -49l-2 -15h150l-13 -127h-275l23 218q38 8 66 27.5t46.5 46.5t27.5 58.5t9 63.5t-8.5 60t-26.5 48.5t-45.5 32.5t-64.5 12z" />
    <glyph glyph-name="mu" unicode="&#x3bc;" 
d="M116 482h152l-27 -249q-5 -51 10.5 -83t62.5 -32q48 0 74 33t32 89l25 242h154l-51 -482h-153l7 69q-23 -35 -60 -55t-85 -24q-23 0 -41 6l-22 -214h-152z" />
    <glyph glyph-name="pi" unicode="&#x3c0;" 
d="M631 367h-70l-39 -367h-153l39 367h-125l-39 -367h-153l39 367h-70l12 115h571z" />
    <glyph glyph-name="uni0401" unicode="&#x401;" horiz-adv-x="555" 
d="M156 844q0 21 8.5 39.5t23 32.5t33 22t39.5 8q38 0 62 -25t24 -61q0 -21 -8.5 -39t-22.5 -32t-33 -22t-40 -8q-38 0 -62 25t-24 60zM397 844q0 21 8.5 39.5t22.5 32.5t33 22t40 8q38 0 62 -25t24 -61q0 -21 -8.5 -39t-23 -32t-33.5 -22t-40 -8q-38 0 -61.5 25t-23.5 60z
M289 570l-17 -159h265l-13 -127h-265l-16 -154h265l-14 -130h-427l74 700h427l-14 -130h-265z" />
    <glyph glyph-name="uni0402" unicode="&#x402;" horiz-adv-x="725" 
d="M657 -75q-4 -41 -18 -70t-35.5 -48t-50 -27.5t-61.5 -8.5h-96l13 125h46q46 0 52 44l30 286q5 52 -10 84.5t-63 32.5q-47 0 -73 -32.5t-32 -86.5l-24 -224h-162l60 570h-158l14 130h479l-14 -130h-159l-19 -178q24 37 67 59t101 22q49 0 78.5 -15.5t46.5 -38.5
q20 -28 24.5 -65.5t-0.5 -89.5z" />
    <glyph glyph-name="uni0403" unicode="&#x403;" horiz-adv-x="488" 
d="M248 727l-36 106l289 128l37 -106zM141 700h419l-15 -140h-257l-59 -560h-162z" />
    <glyph glyph-name="uni0404" unicode="&#x404;" horiz-adv-x="763" 
d="M757 251q-13 -56 -43.5 -105t-77 -85.5t-107.5 -57.5t-135 -21q-83 0 -145 26t-102.5 71t-60.5 105t-20 128q0 79 26.5 152.5t78 129.5t126.5 90t171 34q75 0 132 -20.5t96 -56.5t59 -85t22 -106h-172q-4 53 -44 87.5t-109 34.5q-42 0 -76.5 -13.5t-60 -37t-42.5 -54.5
t-26 -65h265l-11 -107h-264q3 -74 45.5 -120.5t122.5 -46.5q71 0 118.5 35t61.5 88h172z" />
    <glyph glyph-name="uni0405" unicode="&#x405;" horiz-adv-x="606" 
d="M225 232q-6 -56 21 -88.5t77 -32.5q43 0 72.5 24.5t29.5 64.5q0 19 -7.5 32.5t-20.5 24t-31.5 18.5t-39.5 16q-45 17 -84 34.5t-68 40.5t-45.5 55t-16.5 78q0 54 22.5 95t60 68.5t86 41.5t100.5 14q61 0 106 -18t72.5 -49t39 -71t6.5 -85h-162q5 48 -15 74.5t-62 26.5
q-36 0 -64 -20t-28 -57q0 -33 25 -52.5t66 -34.5q44 -16 84.5 -33t71 -41t49 -57.5t18.5 -82.5q0 -53 -21.5 -96.5t-59.5 -74.5t-90 -48t-112 -17q-61 0 -109 17.5t-79.5 50t-45.5 78.5t-8 104h162z" />
    <glyph glyph-name="uni0406" unicode="&#x406;" horiz-adv-x="298" 
d="M141 700h164l-74 -700h-164z" />
    <glyph glyph-name="uni0407" unicode="&#x407;" horiz-adv-x="298" 
d="M38 844q0 21 8.5 39.5t23 32.5t33 22t39.5 8q38 0 62 -25t24 -61q0 -21 -8.5 -39t-22.5 -32t-33 -22t-40 -8q-38 0 -62 25t-24 60zM252 844q0 21 8.5 39.5t22.5 32.5t33 22t40 8q38 0 62 -25t24 -61q0 -21 -8.5 -39t-23 -32t-33.5 -22t-40 -8q-38 0 -61.5 25t-23.5 60z
M141 700h164l-74 -700h-164z" />
    <glyph glyph-name="uni0408" unicode="&#x408;" horiz-adv-x="583" 
d="M548 241q-13 -124 -87 -191t-193 -67q-64 0 -110.5 19.5t-75 54t-40 82t-5.5 103.5h162q-5 -53 14.5 -86.5t67.5 -33.5q45 0 72.5 31.5t33.5 87.5l48 459h161z" />
    <glyph glyph-name="uni0409" unicode="&#x409;" horiz-adv-x="998" 
d="M543 562h-217l-44 -422q-5 -42 -20.5 -71.5t-39.5 -48t-55 -27t-66 -8.5h-93l15 139h47q23 0 37 11t16 31l56 534h539l-30 -285h125q43 0 77.5 -14.5t58.5 -39.5t36.5 -59t12.5 -73q0 -45 -17 -86.5t-47 -73t-72 -50.5t-92 -19h-286zM740 124q42 0 67.5 28t25.5 67
q0 32 -18.5 55t-56.5 23h-82l-18 -173h82z" />
    <glyph glyph-name="uni040A" unicode="&#x40a;" horiz-adv-x="985" 
d="M663 297l-18 -173h82q42 0 68 28t26 68q0 31 -18.5 54t-57.5 23h-82zM676 415h125q43 0 77 -14.5t58 -39.5t36.5 -59t12.5 -73q0 -45 -17 -86.5t-47 -73t-72 -50.5t-92 -19h-286l30 283h-242l-30 -283h-162l74 700h162l-30 -279h242l30 279h161z" />
    <glyph glyph-name="uni040B" unicode="&#x40b;" horiz-adv-x="723" 
d="M395 570l-19 -178q24 37 67 59t101 22q49 0 78.5 -15.5t46.5 -38.5q20 -28 24.5 -65.5t-0.5 -89.5l-28 -264h-152l24 226q5 52 -10 84.5t-63 32.5q-47 0 -73 -32.5t-32 -86.5l-24 -224h-162l60 570h-158l14 130h479l-14 -130h-159z" />
    <glyph glyph-name="uni040C" unicode="&#x40c;" horiz-adv-x="659" 
d="M296 727l-36 106l289 128l37 -106zM274 427h12q27 0 52.5 16.5t52.5 56.5l67 97q36 53 79.5 80.5t102.5 27.5h56l-15 -142h-22q-23 0 -45.5 -10t-44.5 -41l-46 -67q-20 -29 -49 -52.5t-65 -33.5l239 -359h-196l-190 315l-33 -315h-162l74 700h162z" />
    <glyph glyph-name="uni040E" unicode="&#x40e;" horiz-adv-x="647" 
d="M419 868q38 0 62.5 20.5t36.5 51.5h122q-10 -39 -32.5 -71t-53.5 -54.5t-68.5 -34.5t-78.5 -12t-75.5 12t-60.5 34.5t-41.5 54.5t-17.5 71h123q5 -31 25.5 -51.5t58.5 -20.5zM302 0h-179l157 263l-202 437h189l120 -275l157 275h179z" />
    <glyph glyph-name="uni040F" unicode="&#x40f;" horiz-adv-x="685" 
d="M260 -98l10 98h-203l74 700h162l-59 -562h228l59 562h161l-74 -700h-202l-10 -98h-146z" />
    <glyph glyph-name="uni0410" unicode="&#x410;" horiz-adv-x="660" 
d="M382 500l-117 -288h170zM480 0l-18 85h-249l-36 -85h-173l324 700h149l179 -700h-176z" />
    <glyph glyph-name="uni0411" unicode="&#x411;" horiz-adv-x="627" 
d="M596 570h-307l-16 -155h156q43 0 77 -14.5t58 -39.5t36.5 -59t12.5 -73q0 -45 -17 -86.5t-47 -73t-72 -50.5t-92 -19h-318l74 700h469zM260 297l-18 -173h114q42 0 68 28t26 67q0 32 -19 55t-57 23h-114z" />
    <glyph glyph-name="uni0412" unicode="&#x412;" horiz-adv-x="637" 
d="M141 700h291q64 0 104.5 -16.5t63.5 -41.5t31 -54.5t8 -55.5q0 -39 -13 -69.5t-33.5 -52.5t-45.5 -36t-48 -19q16 0 35.5 -9.5t36.5 -27.5t29 -44.5t12 -60.5q0 -26 -9.5 -62.5t-37 -70t-77 -57t-128.5 -23.5h-293zM369 415q33 0 53.5 9.5t32.5 23.5t16.5 30t4.5 29
q0 12 -3.5 25t-13.5 24t-27.5 18t-45.5 7h-96l-17 -166h96zM260 296l-18 -172h100q33 0 54 9.5t33 23t16.5 29.5t4.5 29t-4 27t-14 26t-27 20t-44 8h-101z" />
    <glyph glyph-name="uni0413" unicode="&#x413;" horiz-adv-x="488" 
d="M141 700h419l-15 -140h-257l-59 -560h-162z" />
    <glyph glyph-name="uni0414" unicode="&#x414;" horiz-adv-x="759" 
d="M526 135l46 430h-165l-12 -118q-6 -59 -15.5 -109t-25.5 -90t-40 -68.5t-58 -44.5h270zM3 -98l24 233h11q79 0 133 60q28 31 44.5 72.5t21.5 92.5l36 340h466l-60 -565h61l-24 -233h-146l10 98h-421l-10 -98h-146z" />
    <glyph glyph-name="uni0415" unicode="&#x415;" horiz-adv-x="555" 
d="M289 570l-17 -159h265l-13 -127h-265l-16 -154h265l-14 -130h-427l74 700h427l-14 -130h-265z" />
    <glyph glyph-name="uni0416" unicode="&#x416;" horiz-adv-x="965" 
d="M198 0h-193l301 359q-35 11 -56 36.5t-34 52.5l-31 66q-14 29 -32 40.5t-45 11.5h-20l15 139h48q116 0 163 -107l43 -98q19 -42 37 -63.5t45 -21.5h10l30 285h155l-30 -285h10q27 0 50.5 22t49.5 63l63 98q69 107 185 107h48l-15 -139h-20q-23 0 -44.5 -10t-42.5 -42
l-45 -66q-21 -31 -48 -55.5t-60 -33.5l225 -359h-193l-174 315l-33 -315h-155l33 315z" />
    <glyph glyph-name="uni0417" unicode="&#x417;" horiz-adv-x="620" 
d="M224 235q-6 -56 22 -86.5t76 -30.5q25 0 44.5 8.5t33 22.5t20 32.5t6.5 39.5q0 37 -23.5 57.5t-80.5 20.5h-60l13 123h60q34 0 57 8.5t36 21.5t18.5 29.5t5.5 32.5q0 35 -22 55.5t-62 20.5q-45 0 -76 -25.5t-36 -73.5h-166q5 45 25.5 86t57 71.5t89 48.5t120.5 18
q49 0 92 -10t75.5 -31.5t51.5 -54.5t19 -79q0 -38 -12 -68t-31.5 -52t-43.5 -36t-48 -20q47 -11 78 -50t31 -102q0 -54 -23.5 -96t-63.5 -71t-93 -44.5t-112 -15.5q-64 0 -112.5 17.5t-80 50.5t-45 79t-6.5 103h166z" />
    <glyph glyph-name="uni0418" unicode="&#x418;" horiz-adv-x="706" 
d="M523 436l-289 -388l-5 -48h-162l74 700h162l-46 -436l289 388l5 48h162l-74 -700h-162z" />
    <glyph glyph-name="uni0419" unicode="&#x419;" horiz-adv-x="706" 
d="M448 868q38 0 62.5 20.5t36.5 51.5h123q-10 -39 -32.5 -71t-53.5 -54.5t-68.5 -34.5t-78.5 -12t-76 12t-60.5 34.5t-41 54.5t-17.5 71h123q5 -31 25 -51.5t58 -20.5zM523 436l-289 -388l-5 -48h-162l74 700h162l-46 -436l289 388l5 48h162l-74 -700h-162z" />
    <glyph glyph-name="uni041A" unicode="&#x41a;" horiz-adv-x="659" 
d="M274 427h12q27 0 52.5 16.5t52.5 56.5l67 97q36 53 79.5 80.5t102.5 27.5h56l-15 -142h-22q-23 0 -45.5 -10t-44.5 -41l-46 -67q-20 -29 -49 -52.5t-65 -33.5l239 -359h-196l-190 315l-33 -315h-162l74 700h162z" />
    <glyph glyph-name="uni041B" unicode="&#x41b;" horiz-adv-x="712" 
d="M22 116h47q23 0 37 11t16 31l57 542h539l-73 -700h-162l59 562h-216l-44 -422q-5 -42 -20.5 -71.5t-39.5 -48t-55 -27t-66 -8.5h-93z" />
    <glyph glyph-name="uni041C" unicode="&#x41c;" horiz-adv-x="877" 
d="M810 0h-158l46 434l-197 -434h-120l-110 434l-46 -434h-158l74 700h187l135 -487l237 487h184z" />
    <glyph glyph-name="uni041D" unicode="&#x41d;" horiz-adv-x="699" 
d="M500 278h-242l-29 -278h-162l74 700h162l-30 -283h242l30 283h161l-74 -700h-161z" />
    <glyph glyph-name="uni041E" unicode="&#x41e;" horiz-adv-x="805" 
d="M404 -18q-83 0 -145.5 27.5t-105.5 73t-64.5 106t-21.5 126.5q0 78 29.5 150.5t83 128.5t128.5 90t167 34q82 0 145 -27.5t106 -73t64.5 -106t21.5 -126.5q0 -78 -29.5 -150.5t-83 -129t-128.5 -90t-167 -33.5zM418 128q51 0 93 21t72.5 55t47 78t16.5 91q0 39 -12 75
t-35.5 63.5t-58 44t-79.5 16.5q-51 0 -93 -20.5t-72 -55t-46.5 -78.5t-16.5 -91q0 -39 12 -75t35.5 -63.5t57.5 -44t79 -16.5z" />
    <glyph glyph-name="uni041F" unicode="&#x41f;" horiz-adv-x="699" 
d="M288 562l-59 -562h-162l74 700h565l-74 -700h-162l59 562h-241z" />
    <glyph glyph-name="uni0420" unicode="&#x420;" horiz-adv-x="635" 
d="M141 700h293q54 0 96.5 -18.5t72 -50t45 -73t15.5 -88.5q0 -55 -21 -105t-58.5 -88t-89.5 -60.5t-114 -22.5h-131l-20 -194h-162zM374 326q28 0 51 11t39.5 29.5t26 42.5t9.5 50q0 22 -7 42t-20 35t-31.5 23.5t-41.5 8.5h-111l-26 -242h111z" />
    <glyph glyph-name="uni0421" unicode="&#x421;" horiz-adv-x="788" 
d="M784 251q-16 -56 -50 -105t-83 -85.5t-111 -57.5t-134 -21q-82 0 -145 27t-106 72.5t-65.5 106t-22.5 128.5q0 77 29 149.5t82.5 128.5t130 90t172.5 34q78 0 137.5 -23t100 -62.5t61 -92t21.5 -112.5h-169q-5 65 -47.5 104.5t-117.5 39.5q-54 0 -97.5 -20.5t-74 -55
t-46.5 -78.5t-16 -90q0 -42 13 -78.5t38 -63.5t60.5 -42.5t79.5 -15.5q69 0 117.5 34.5t70.5 88.5h172z" />
    <glyph glyph-name="uni0422" unicode="&#x422;" horiz-adv-x="509" 
d="M232 560h-158l15 140h479l-15 -140h-159l-59 -560h-162z" />
    <glyph glyph-name="uni0423" unicode="&#x423;" horiz-adv-x="647" 
d="M302 0h-179l157 263l-202 437h189l120 -275l157 275h179z" />
    <glyph glyph-name="uni0424" unicode="&#x424;" horiz-adv-x="824" 
d="M496 75l-8 -75h-152l8 75h-40q-60 0 -105.5 20t-77 54.5t-47.5 79.5t-16 95q0 59 21.5 113.5t61.5 96t96 66.5t125 25h40l7 75h152l-7 -75h40q59 0 105 -20t77 -54t47 -79t16 -95q0 -59 -21.5 -113.5t-61 -96.5t-95.5 -67t-125 -25h-40zM539 489l-29 -278h40
q29 0 53 12.5t41.5 33.5t27 49.5t9.5 60.5q0 54 -26.5 88t-75.5 34h-40zM358 211l29 278h-40q-29 0 -53 -12t-41 -33t-26.5 -49t-9.5 -60q0 -54 26.5 -89t74.5 -35h40z" />
    <glyph glyph-name="uni0425" unicode="&#x425;" horiz-adv-x="615" 
d="M504 700h178l-245 -350l171 -350h-178l-98 225l-146 -225h-179l245 350l-171 350h179l98 -226z" />
    <glyph glyph-name="uni0426" unicode="&#x426;" horiz-adv-x="724" 
d="M555 -98l10 98h-498l74 700h162l-59 -562h227l59 562h162l-59 -562h93l-25 -236h-146z" />
    <glyph glyph-name="uni0427" unicode="&#x427;" horiz-adv-x="629" 
d="M401 0l22 202h-139q-53 0 -94.5 17.5t-69 48t-40 71.5t-7.5 88l29 273h162l-25 -235q-8 -69 22 -102.5t86 -33.5h89l39 371h161l-74 -700h-161z" />
    <glyph glyph-name="uni0428" unicode="&#x428;" horiz-adv-x="987" 
d="M67 0l74 700h161l-59 -562h185l59 562h161l-59 -562h186l59 562h160l-74 -700h-853z" />
    <glyph glyph-name="uni0429" unicode="&#x429;" horiz-adv-x="1027" 
d="M850 -98l10 98h-793l74 700h161l-59 -562h185l59 562h161l-59 -562h186l59 562h160l-59 -562h93l-25 -236h-153z" />
    <glyph glyph-name="uni042A" unicode="&#x42a;" horiz-adv-x="689" 
d="M84 700h295l-30 -280h156q43 0 77.5 -15t58.5 -40.5t36.5 -60.5t12.5 -74q0 -46 -17 -88t-47.5 -73.5t-72.5 -50t-92 -18.5h-318l59 560h-133zM336 297l-18 -173h114q42 0 68 28t26 67q0 32 -19 55t-57 23h-114z" />
    <glyph glyph-name="uni042B" unicode="&#x42b;" horiz-adv-x="846" 
d="M691 700h162l-74 -700h-162zM303 700l-30 -280h140q43 0 77 -15t58 -40.5t36.5 -60.5t12.5 -74q0 -46 -17 -88t-47 -73.5t-72 -50t-92 -18.5h-302l74 700h162zM260 297l-18 -173h98q42 0 68 28t26 67q0 32 -19 55t-57 23h-98z" />
    <glyph glyph-name="uni042C" unicode="&#x42c;" 
d="M303 700l-30 -280h156q43 0 77 -15t58 -40.5t36.5 -60.5t12.5 -74q0 -46 -17 -88t-47 -73.5t-72 -50t-92 -18.5h-318l74 700h162zM260 297l-18 -173h114q42 0 68 28t26 67q0 32 -19 55t-57 23h-114z" />
    <glyph glyph-name="uni042D" unicode="&#x42d;" horiz-adv-x="769" 
d="M342 402h266q-2 36 -12.5 67t-30.5 54t-50.5 36t-71.5 13q-73 0 -125 -39.5t-70 -104.5h-169q13 60 44.5 113t79 92t111 62t140.5 23q81 0 141 -25t100.5 -69.5t60.5 -105t20 -130.5q0 -85 -28 -159t-80 -129t-125.5 -86.5t-164.5 -31.5q-74 0 -131.5 21t-98 57.5
t-63.5 85.5t-27 105h173q4 -27 18.5 -49.5t36 -39t50.5 -25.5t62 -9q73 0 126 44t73 122h-266z" />
    <glyph glyph-name="uni042E" unicode="&#x42e;" horiz-adv-x="1088" 
d="M684 -18q-77 0 -136.5 23.5t-101 64t-65 94.5t-27.5 114h-96l-29 -278h-162l74 700h162l-30 -283h95q16 61 51 115.5t85 96t114.5 65.5t141.5 24q81 0 143.5 -27.5t105 -73t64.5 -106t22 -126.5q0 -78 -29.5 -150.5t-83 -128.5t-129.5 -90t-169 -34zM700 128
q51 0 93 20.5t72 55t46.5 78.5t16.5 91q0 39 -12 75t-35.5 63.5t-57.5 44t-79 16.5q-51 0 -93 -21t-72.5 -55t-47 -78.5t-16.5 -90.5q0 -39 12 -75t35.5 -63.5t58 -44t79.5 -16.5z" />
    <glyph glyph-name="uni042F" unicode="&#x42f;" horiz-adv-x="654" 
d="M248 435q0 -22 7 -42t19.5 -35t31 -23.5t42.5 -8.5h111l26 242h-111q-28 0 -51 -11t-39.5 -29.5t-26 -42.5t-9.5 -50zM587 0h-162l20 194h-77l-143 -194h-188l162 221q-55 28 -85.5 82.5t-30.5 120.5q0 55 21 105t58.5 88t89.5 60.5t115 22.5h294z" />
    <glyph glyph-name="uni0430" unicode="&#x430;" horiz-adv-x="633" 
d="M314 118q27 0 50.5 11t40.5 29.5t27 43t10 51.5q0 45 -27.5 78t-76.5 33q-27 0 -50.5 -11t-41 -30t-27 -43.5t-9.5 -51.5q0 -45 27.5 -77.5t76.5 -32.5zM618 482l-51 -482h-152l8 68q-10 -15 -26 -29.5t-37 -25.5t-46 -18t-54 -7q-45 0 -82.5 17t-64.5 47.5t-42 72.5
t-15 91q0 58 20.5 109t55.5 88.5t81.5 59t98.5 21.5q56 0 93 -23.5t54 -57.5l7 69h152z" />
    <glyph glyph-name="uni0431" unicode="&#x431;" horiz-adv-x="612" 
d="M604 260q0 -55 -20.5 -104.5t-58 -87t-90.5 -59.5t-119 -22q-58 0 -104.5 18.5t-79.5 58.5q-32 38 -46.5 92.5t-14.5 126.5q0 67 11.5 120.5t30.5 95.5t43.5 73t51.5 52q58 47 127 61.5t140 14.5h123l-15 -136h-136q-48 0 -88.5 -11t-71.5 -37q-30 -27 -51 -69t-29 -93
q28 60 79.5 91t116.5 31q49 0 87 -17.5t63 -47t38 -69t13 -82.5zM328 113q28 0 51.5 11t41 29.5t27 43t9.5 51.5q0 46 -26.5 78.5t-77.5 32.5q-27 0 -50.5 -10.5t-41 -28.5t-27 -43t-9.5 -54q0 -48 27.5 -79t75.5 -31z" />
    <glyph glyph-name="uni0432" unicode="&#x432;" horiz-adv-x="539" 
d="M116 482h281q44 0 72 -11t43.5 -28t21 -36.5t5.5 -36.5q0 -27 -11 -49t-29.5 -37.5t-42.5 -24.5t-51 -11q54 -2 86.5 -28t32.5 -74q0 -20 -7.5 -45t-28.5 -47.5t-58 -38t-96 -15.5h-269zM324 283q28 0 44.5 17.5t16.5 43.5q0 22 -13 35.5t-37 13.5h-81l-11 -110h81z
M234 204l-12 -116h83q29 0 47.5 18.5t18.5 44.5q0 23 -14 38t-39 15h-84z" />
    <glyph glyph-name="uni0433" unicode="&#x433;" horiz-adv-x="384" 
d="M432 482l-13 -123h-168l-38 -359h-148l51 482h316z" />
    <glyph glyph-name="uni0434" unicode="&#x434;" horiz-adv-x="611" 
d="M417 115l27 252h-143l-12 -115q-2 -21 -6.5 -42t-13 -39.5t-21 -33t-30.5 -22.5h199zM2 -104l23 219h13q56 0 85 36t35 90l25 241h405l-39 -367h44l-23 -219h-130l11 104h-308l-11 -104h-130z" />
    <glyph glyph-name="uni0435" unicode="&#x435;" horiz-adv-x="576" 
d="M206 204q-1 -21 2.5 -40.5t14.5 -34.5t30 -23.5t49 -8.5q42 0 63.5 16t32.5 39h150q-9 -34 -31 -64t-55 -52.5t-76 -35.5t-95 -13q-58 0 -102 16.5t-73.5 46.5t-44.5 71.5t-15 91.5q0 58 19.5 109t56 89.5t88.5 61t118 22.5q55 0 98 -16t72.5 -44t44.5 -65.5t15 -80.5
q0 -25 -4.5 -44t-10.5 -41h-347zM328 393q-46 0 -77 -27.5t-36 -73.5h202q5 50 -20.5 75.5t-68.5 25.5z" />
    <glyph glyph-name="uni0436" unicode="&#x436;" horiz-adv-x="761" 
d="M170 0h-165l216 246q-20 4 -39.5 17t-29.5 34l-16 35q-8 19 -21 28.5t-35 9.5h-22l12 117h50q45 0 75 -14t51 -60l36 -78q11 -23 21.5 -34.5t29.5 -11.5h8l21 193h139l-21 -193h9q18 0 32 11.5t29 34.5l52 78q15 23 31 37.5t33 22.5t36 11t41 3h50l-12 -117h-22
q-23 0 -36.5 -10t-26.5 -28l-25 -35q-15 -21 -36.5 -34t-41.5 -17l163 -246h-165l-119 207l-22 -207h-139l22 207z" />
    <glyph glyph-name="uni0437" unicode="&#x437;" horiz-adv-x="496" 
d="M191 156q-3 -29 13 -46.5t51 -17.5q31 0 49.5 14t18.5 41q0 25 -17.5 39t-55.5 14h-54l9 87h50q45 0 64.5 17t19.5 43q0 24 -15 36.5t-41 12.5q-34 0 -49.5 -18t-18.5 -45h-150q3 32 18.5 61.5t43.5 52t70.5 35.5t99.5 13q42 0 77.5 -8t61 -24t40 -40t14.5 -57
q0 -52 -33.5 -82.5t-81.5 -36.5q42 -5 70 -29.5t28 -72.5q0 -39 -19.5 -69t-52 -50.5t-75.5 -30.5t-90 -10q-106 0 -156 47.5t-41 123.5h152z" />
    <glyph glyph-name="uni0438" unicode="&#x438;" 
d="M430 283l-213 -246l-4 -37h-148l51 482h148l-31 -290l213 247l5 43h148l-51 -482h-148z" />
    <glyph glyph-name="uni0439" unicode="&#x439;" 
d="M382 652q38 0 62.5 20.5t35.5 51.5h123q-11 -39 -33 -71t-53 -54.5t-68.5 -34.5t-78.5 -12t-76 12t-60.5 34.5t-41 54.5t-17.5 71h122q6 -31 26.5 -51.5t58.5 -20.5zM430 283l-213 -246l-4 -37h-148l51 482h148l-31 -290l213 247l5 43h148l-51 -482h-148z" />
    <glyph glyph-name="uni043A" unicode="&#x43a;" horiz-adv-x="555" 
d="M243 286h9q18 0 34 12.5t36 39.5l60 79q28 39 59.5 54.5t78.5 15.5h53l-12 -119h-22q-17 0 -33 -6t-31 -26l-30 -39q-18 -23 -37 -33.5t-43 -15.5l177 -248h-177l-130 207l-22 -207h-148l51 482h148z" />
    <glyph glyph-name="uni043B" unicode="&#x43b;" horiz-adv-x="609" 
d="M29 115h27q44 0 48 39l34 328h457l-51 -482h-148l38 359h-162l-23 -221q-8 -72 -50.5 -111t-123.5 -39h-59z" />
    <glyph glyph-name="uni043C" unicode="&#x43c;" horiz-adv-x="800" 
d="M735 0h-140l39 370l-175 -370h-115l-100 370l-39 -370h-140l51 482h223l80 -315l147 315h220z" />
    <glyph glyph-name="uni043D" unicode="&#x43d;" horiz-adv-x="605" 
d="M411 182h-179l-19 -182h-148l51 482h148l-19 -177h179l19 177h148l-51 -482h-148z" />
    <glyph glyph-name="uni043E" unicode="&#x43e;" horiz-adv-x="599" 
d="M300 -13q-59 0 -104.5 18t-76.5 49.5t-47 73.5t-16 90q0 55 21 105.5t60 88.5t93 60.5t120 22.5q59 0 104.5 -18t76.5 -49.5t47 -73.5t16 -90q0 -56 -21 -106t-60 -88t-93 -60.5t-120 -22.5zM313 118q27 0 50.5 11t41 29.5t27 43t9.5 51.5q0 46 -27.5 78.5t-76.5 32.5
q-28 0 -51 -11t-40 -29.5t-26.5 -43.5t-9.5 -52q0 -45 26.5 -77.5t76.5 -32.5z" />
    <glyph glyph-name="uni043F" unicode="&#x43f;" horiz-adv-x="598" 
d="M533 0h-147l38 359h-173l-38 -359h-148l51 482h468z" />
    <glyph glyph-name="uni0440" unicode="&#x440;" horiz-adv-x="637" 
d="M371 364q-27 0 -51 -11t-41 -29.5t-27 -43t-10 -51.5q0 -46 27.5 -78.5t76.5 -32.5q27 0 50.5 11t41 29.5t27 43t9.5 51.5q0 46 -27 78.5t-76 32.5zM261 413q23 34 65.5 57.5t97.5 23.5q45 0 82.5 -17t64.5 -47.5t42 -72.5t15 -91q0 -58 -20.5 -109t-55.5 -88.5
t-81.5 -59t-98.5 -21.5q-58 0 -95 24.5t-52 56.5l-30 -287h-153l74 700h153z" />
    <glyph glyph-name="uni0441" unicode="&#x441;" horiz-adv-x="575" 
d="M419 293q0 29 -19.5 50.5t-64.5 21.5q-32 0 -55.5 -11.5t-38.5 -31t-22.5 -44t-7.5 -51.5q0 -23 5.5 -43t17.5 -35t31.5 -23.5t47.5 -8.5q40 0 61.5 17.5t33.5 46.5h153q-10 -42 -32.5 -77.5t-56.5 -61.5t-78.5 -40.5t-98.5 -14.5q-61 0 -105.5 18.5t-74 50t-44 73
t-14.5 87.5q0 54 19 104t55.5 89t90.5 62.5t124 23.5q59 0 102 -17t71 -45t41 -64.5t12 -75.5h-153z" />
    <glyph glyph-name="uni0442" unicode="&#x442;" horiz-adv-x="436" 
d="M477 482l-13 -123h-135l-38 -359h-147l38 359h-134l13 123h416z" />
    <glyph glyph-name="uni0443" unicode="&#x443;" horiz-adv-x="615" 
d="M283 -234q-62 0 -108 17t-69 36q-22 18 -39.5 55t-11.5 89h153q-2 -39 20 -61.5t68 -22.5q40 0 67 21.5t33 77.5l11 99q-25 -39 -66.5 -60t-96.5 -21q-92 0 -133 58q-20 28 -23 63t2 86l29 279h152l-26 -247q-5 -52 10 -84.5t63 -32.5t74 33t32 89l25 242h153l-52 -494
q-7 -65 -28.5 -102t-55.5 -63q-35 -26 -81 -41.5t-102 -15.5z" />
    <glyph glyph-name="uni0444" unicode="&#x444;" horiz-adv-x="687" 
d="M285 -12q-54 3 -97 22t-72 50t-44.5 72t-15.5 86q0 53 20.5 101.5t57.5 86.5t89 61.5t115 25.5l22 207h115l-22 -207q54 -2 96.5 -21.5t72 -50.5t45 -72t15.5 -86q0 -53 -20.5 -101.5t-57.5 -86t-89 -61t-115 -26.5l-22 -206h-115zM198 227q0 -23 6 -43.5t18.5 -36.5
t31 -25t43.5 -9h1l27 256h-1q-30 -2 -53 -14t-39.5 -31.5t-25 -44.5t-8.5 -52zM413 113q30 0 53.5 12t40 31.5t25 45.5t8.5 53q0 46 -25 78.5t-75 35.5z" />
    <glyph glyph-name="uni0445" unicode="&#x445;" horiz-adv-x="526" 
d="M519 0h-177l-64 140l-94 -140h-177l191 243l-137 239h177l61 -136l91 136h177l-188 -239z" />
    <glyph glyph-name="uni0446" unicode="&#x446;" horiz-adv-x="632" 
d="M459 -85l9 85h-403l51 482h148l-38 -359h169l38 359h148l-38 -359h75l-22 -208h-137z" />
    <glyph glyph-name="uni0447" unicode="&#x447;" horiz-adv-x="535" 
d="M322 0l14 132h-117q-82 0 -122 41.5t-32 124.5l19 184h148l-18 -170q-7 -68 63 -68h71l25 238h147l-51 -482h-147z" />
    <glyph glyph-name="uni0448" unicode="&#x448;" horiz-adv-x="841" 
d="M504 123h143l38 359h142l-51 -482h-711l51 482h142l-38 -359h143l38 359h141z" />
    <glyph glyph-name="uni0449" unicode="&#x449;" horiz-adv-x="878" 
d="M705 -85l9 85h-649l51 482h142l-38 -359h143l38 359h141l-38 -359h143l38 359h142l-38 -359h75l-22 -208h-137z" />
    <glyph glyph-name="uni044A" unicode="&#x44a;" horiz-adv-x="572" 
d="M151 366h-100l12 116h243l-16 -151h114q43 0 73 -12t48.5 -32t26.5 -46t8 -55q0 -33 -10.5 -66t-33 -60t-59 -43.5t-87.5 -16.5h-257zM280 229l-14 -130h79q35 0 54 21t19 51q0 26 -14.5 42t-44.5 16h-79z" />
    <glyph glyph-name="uni044B" unicode="&#x44b;" horiz-adv-x="753" 
d="M116 482h143l-16 -151h114q43 0 72.5 -12t48 -32t27 -46.5t8.5 -55.5q0 -33 -10.5 -66t-33.5 -59.5t-59.5 -43t-87.5 -16.5h-257zM587 482h152l-51 -482h-152zM232 229l-14 -130h79q36 0 55.5 21.5t19.5 50.5q0 26 -15.5 42t-45.5 16h-79z" />
    <glyph glyph-name="uni044C" unicode="&#x44c;" horiz-adv-x="524" 
d="M116 482h143l-16 -151h114q43 0 72.5 -12t48 -32t27 -46.5t8.5 -55.5q0 -33 -10.5 -66t-33.5 -59.5t-59.5 -43t-87.5 -16.5h-257zM232 229l-14 -130h79q36 0 55.5 21.5t19.5 50.5q0 26 -15.5 42t-45.5 16h-79z" />
    <glyph glyph-name="uni044D" unicode="&#x44d;" horiz-adv-x="582" 
d="M65 293q7 43 29.5 80t58 64t82.5 42.5t103 15.5q62 0 107 -18.5t74.5 -50t43.5 -73t14 -87.5q0 -53 -18 -103.5t-54.5 -89.5t-91.5 -62.5t-129 -23.5q-57 0 -101 14.5t-73.5 40.5t-44.5 61.5t-13 77.5h153q2 -35 26 -54.5t71 -19.5q54 0 82 24.5t36 67.5h-158l8 81h158
q1 43 -21.5 69t-75.5 26q-50 0 -76.5 -23t-36.5 -59h-153z" />
    <glyph glyph-name="uni044E" unicode="&#x44e;" horiz-adv-x="822" 
d="M232 180l-19 -180h-148l51 482h148l-19 -179h54q12 38 36.5 73t59.5 61.5t80.5 42t99.5 15.5q58 0 103 -18t76 -49.5t47 -73.5t16 -90q0 -56 -21 -106t-59.5 -88t-93 -60.5t-120.5 -22.5q-54 0 -96 15t-72 41t-47.5 61t-21.5 76h-54zM535 118q27 0 51 10.5t41 29t27 43
t10 52.5q0 46 -27.5 78.5t-76.5 32.5q-28 0 -51.5 -11t-40.5 -29.5t-26.5 -43.5t-9.5 -52q0 -47 27 -78.5t76 -31.5z" />
    <glyph glyph-name="uni044F" unicode="&#x44f;" horiz-adv-x="552" 
d="M363 241l15 135h-95q-35 0 -56 -22.5t-21 -51.5q0 -25 16.5 -43t45.5 -18h95zM146 155q-47 20 -67.5 58.5t-20.5 80.5q0 37 14.5 71.5t40.5 60t62 41t79 15.5h283l-51 -482h-148l14 135h-63l-99 -135h-166z" />
    <glyph glyph-name="uni0451" unicode="&#x451;" horiz-adv-x="576" 
d="M144 622q0 21 8.5 39.5t23 32.5t33.5 22t40 8q38 0 61.5 -25t23.5 -61q0 -21 -8 -39t-22.5 -32t-33.5 -22t-40 -8q-38 0 -62 25t-24 60zM385 622q0 21 8.5 39.5t23 32.5t33 22t39.5 8q38 0 62 -25t24 -61q0 -21 -8.5 -39t-23 -32t-33.5 -22t-40 -8q-38 0 -61.5 25
t-23.5 60zM206 204q-1 -21 2.5 -40.5t14.5 -34.5t30 -23.5t49 -8.5q42 0 63.5 16t32.5 39h150q-9 -34 -31 -64t-55 -52.5t-76 -35.5t-95 -13q-58 0 -102 16.5t-73.5 46.5t-44.5 71.5t-15 91.5q0 58 19.5 109t56 89.5t88.5 61t118 22.5q55 0 98 -16t72.5 -44t44.5 -65.5
t15 -80.5q0 -25 -4.5 -44t-10.5 -41h-347zM328 393q-46 0 -77 -27.5t-36 -73.5h202q5 50 -20.5 75.5t-68.5 25.5z" />
    <glyph glyph-name="uni0452" unicode="&#x452;" horiz-adv-x="621" 
d="M291 518l-14 -134q24 37 66 59t100 22q86 0 124 -54q20 -28 23.5 -65.5t-1.5 -89.5l-34 -331q-5 -42 -19.5 -71.5t-36.5 -48t-50.5 -26.5t-59.5 -8h-92l13 117h46q45 0 51 44l30 286q3 25 1 46.5t-10 37.5t-23 24.5t-39 8.5q-48 0 -74.5 -33t-32.5 -89l-22 -213h-148
l54 518h-76l9 85h76l10 97h148l-10 -97h110l-9 -85h-110z" />
    <glyph glyph-name="uni0453" unicode="&#x453;" horiz-adv-x="384" 
d="M158 509l-36 106l289 128l37 -106zM432 482l-13 -123h-168l-38 -359h-148l51 482h316z" />
    <glyph glyph-name="uni0454" unicode="&#x454;" horiz-adv-x="585" 
d="M426 293q-2 36 -24 59t-72 23q-53 0 -81 -26t-36 -69h158l-9 -81h-158q-1 -44 23 -68t76 -24q48 0 75.5 19.5t36.5 54.5h153q-7 -42 -29.5 -77.5t-57.5 -61.5t-82 -40.5t-102 -14.5q-63 0 -109 18.5t-75 50t-43 72.5t-14 87q0 54 18.5 104.5t54.5 89.5t90.5 62.5
t126.5 23.5q57 0 101.5 -15.5t74.5 -42.5t44.5 -64t12.5 -80h-153z" />
    <glyph glyph-name="uni0455" unicode="&#x455;" horiz-adv-x="510" 
d="M348 284q31 -9 57 -19t45 -24.5t29 -35.5t10 -53q0 -44 -19 -75t-50.5 -51t-74 -29.5t-88.5 -9.5q-103 0 -159.5 43.5t-47.5 131.5h150q-5 -38 15 -55t55 -17q29 0 48 11.5t19 35.5q0 13 -7 21.5t-21.5 15.5t-37.5 14.5t-55 18.5q-28 9 -53 18.5t-43.5 23.5t-29 35
t-10.5 53q0 40 17 69.5t47 49t71 29.5t89 10q109 0 156 -45t41 -118h-151q3 30 -11 46.5t-45 16.5q-25 0 -43.5 -11t-18.5 -34q0 -13 7.5 -21t22 -14.5t36 -13.5t50.5 -17z" />
    <glyph glyph-name="uni0456" unicode="&#x456;" horiz-adv-x="283" 
d="M110 634q0 22 8.5 41t23.5 33t34.5 22.5t41.5 8.5q40 0 65 -25.5t25 -62.5q0 -22 -9 -41t-24 -33.5t-34.5 -23t-41.5 -8.5q-40 0 -64.5 26t-24.5 63zM116 482h153l-51 -482h-153z" />
    <glyph glyph-name="uni0457" unicode="&#x457;" horiz-adv-x="283" 
d="M8 636q0 21 8.5 39.5t23 33t33.5 22.5t40 8q38 0 61.5 -25.5t23.5 -60.5q0 -21 -8.5 -39.5t-22.5 -32.5t-33 -22t-40 -8q-38 0 -62 25t-24 60zM222 637q0 21 8.5 39.5t23 32.5t33 22t39.5 8q38 0 62 -25.5t24 -60.5q0 -21 -8.5 -39.5t-23 -32.5t-33.5 -22t-40 -8
q-38 0 -61.5 25.5t-23.5 60.5zM116 482h153l-51 -482h-153z" />
    <glyph glyph-name="uni0458" unicode="&#x458;" horiz-adv-x="283" 
d="M110 634q0 22 8.5 41t23.5 33t34.5 22.5t41.5 8.5q40 0 65 -25.5t25 -62.5q0 -22 -9 -41t-24 -33.5t-34.5 -23t-41.5 -8.5q-40 0 -64.5 26t-24.5 63zM210 -75q-5 -46 -18.5 -76t-33.5 -47.5t-46 -24.5t-56 -7q-26 0 -53 3.5t-40 8.5l12 117q14 -2 22 -2.5t17 -0.5
q39 0 45 49l56 537h154z" />
    <glyph glyph-name="uni0459" unicode="&#x459;" horiz-adv-x="860" 
d="M29 115h27q22 0 34 10.5t14 28.5l34 328h457l-16 -155h114q40 0 69.5 -12t49 -32t28.5 -46.5t9 -54.5q0 -33 -12 -65.5t-36 -58.5t-59.5 -42t-83.5 -16h-262l38 359h-162l-23 -221q-8 -72 -50.5 -111t-123.5 -39h-59zM634 100q32 0 52.5 20.5t20.5 49.5q0 25 -16 42
t-44 17h-79l-13 -129h79z" />
    <glyph glyph-name="uni045A" unicode="&#x45a;" horiz-adv-x="847" 
d="M555 229l-13 -129h79q32 0 53 20.5t21 49.5q0 25 -16.5 42t-44.5 17h-79zM679 327q41 0 70.5 -12t48.5 -32t28 -46.5t9 -54.5q0 -33 -12 -65.5t-35.5 -58.5t-59 -42t-83.5 -16h-261l22 208h-171l-22 -208h-148l51 482h148l-17 -155h171l17 155h147l-17 -155h114z" />
    <glyph glyph-name="uni045B" unicode="&#x45b;" horiz-adv-x="621" 
d="M143 518h-76l9 85h76l10 97h148l-10 -97h110l-9 -85h-110l-14 -135q24 38 66 60t99 22q48 0 78 -15t47 -40q20 -28 23.5 -65t-1.5 -89l-27 -256h-148l23 218q3 25 1 46t-10 37t-23 25t-39 9q-48 0 -74.5 -33t-32.5 -89l-22 -213h-148z" />
    <glyph glyph-name="uni045C" unicode="&#x45c;" horiz-adv-x="557" 
d="M240 509l-36 106l289 128l37 -106zM243 286h9q18 0 34 12.5t36 39.5l60 79q28 39 59.5 54.5t78.5 15.5h53l-12 -119h-22q-17 0 -33 -6t-31 -26l-30 -39q-18 -23 -37 -33.5t-43 -15.5l177 -248h-177l-130 207l-22 -207h-148l51 482h148z" />
    <glyph glyph-name="uni045E" unicode="&#x45e;" horiz-adv-x="615" 
d="M380 652q38 0 63 20.5t36 51.5h123q-10 -39 -32.5 -71t-53.5 -54.5t-68.5 -34.5t-78.5 -12t-76 12t-60.5 34.5t-41 54.5t-17.5 71h123q5 -31 25 -51.5t58 -20.5zM283 -234q-62 0 -108 17t-69 36q-22 18 -39.5 55t-11.5 89h153q-2 -39 20 -61.5t68 -22.5q40 0 67 21.5
t33 77.5l11 99q-25 -39 -66.5 -60t-96.5 -21q-92 0 -133 58q-20 28 -23 63t2 86l29 279h152l-26 -247q-5 -52 10 -84.5t63 -32.5t74 33t32 89l25 242h153l-52 -494q-7 -65 -28.5 -102t-55.5 -63q-35 -26 -81 -41.5t-102 -15.5z" />
    <glyph glyph-name="uni045F" unicode="&#x45f;" horiz-adv-x="605" 
d="M228 -85l9 85h-172l51 482h148l-38 -359h179l38 359h148l-51 -482h-173l-9 -85h-130z" />
    <glyph glyph-name="uni0462" unicode="&#x462;" horiz-adv-x="625" 
d="M486 700l-13 -126h-173l-16 -154h157q43 0 77 -15t58 -40.5t36.5 -60.5t12.5 -74q0 -46 -17 -88t-47 -73.5t-72 -50t-92 -18.5h-318l60 574h-69l13 126h403zM271 297l-18 -173h114q42 0 67.5 28t25.5 67q0 32 -18.5 55t-56.5 23h-114z" />
    <glyph glyph-name="uni0463" unicode="&#x463;" horiz-adv-x="533" 
d="M124 476h-61l9 85h61l15 140h143l-15 -140h105l-9 -85h-105l-15 -145h114q43 0 72.5 -12t48 -32t27 -46.5t8.5 -55.5q0 -33 -10.5 -66t-33.5 -59.5t-59.5 -43t-87.5 -16.5h-257zM241 229l-14 -130h79q35 0 54.5 21t19.5 51q0 26 -15 42t-45 16h-79z" />
    <glyph glyph-name="uni0472" unicode="&#x472;" horiz-adv-x="805" 
d="M404 -18q-83 0 -145.5 27.5t-105.5 73t-64.5 106t-21.5 126.5q0 78 29.5 150.5t83 128.5t128.5 90t167 34q82 0 145 -27.5t106 -73t64.5 -106t21.5 -126.5q0 -78 -29.5 -150.5t-83 -129t-128.5 -90t-167 -33.5zM463 572q-42 0 -78 -14.5t-64 -39.5t-48 -58t-29 -69h402
q-2 36 -15.5 69t-36.5 58t-56 39.5t-75 14.5zM417 128q42 0 78 14.5t64.5 39.5t48 58.5t29.5 70.5h-403q2 -37 15 -70.5t36 -58.5t56.5 -39.5t75.5 -14.5z" />
    <glyph glyph-name="uni0473" unicode="&#x473;" horiz-adv-x="599" 
d="M300 -13q-59 0 -104.5 18t-76.5 49.5t-47 73.5t-16 90q0 55 21 105.5t60 88.5t93 60.5t120 22.5q59 0 104.5 -18t76.5 -49.5t47 -73.5t16 -90q0 -56 -21 -106t-60 -88t-93 -60.5t-120 -22.5zM337 364q-44 0 -75.5 -26t-44.5 -65h223q-6 39 -32.5 65t-70.5 26zM312 118
q44 0 75.5 25.5t45.5 64.5h-222q5 -39 31 -64.5t70 -25.5z" />
    <glyph glyph-name="uni0474" unicode="&#x474;" horiz-adv-x="680" 
d="M403 0h-150l-176 700h173l100 -494l160 382q14 34 30.5 56.5t37.5 36.5t47.5 20t59.5 6h65l-15 -139h-23q-13 0 -23.5 -2t-20.5 -8t-18.5 -17.5t-17.5 -30.5z" />
    <glyph glyph-name="uni0475" unicode="&#x475;" horiz-adv-x="565" 
d="M340 0h-123l-164 482h161l84 -303l102 203q29 59 64.5 82.5t92.5 23.5h58l-14 -129h-21q-20 0 -35 -9t-34 -43z" />
    <glyph glyph-name="uni048A" unicode="&#x48a;" horiz-adv-x="733" 
d="M448 868q38 0 62.5 20.5t36.5 51.5h123q-10 -39 -32.5 -71t-53.5 -54.5t-68.5 -34.5t-78.5 -12t-76 12t-60.5 34.5t-41 54.5t-17.5 71h123q5 -31 25 -51.5t58 -20.5zM477 0l46 436l-289 -388l-5 -48h-162l74 700h162l-46 -436l289 388l5 48h162l-59 -562h74l-25 -236
h-154l10 98h-82z" />
    <glyph glyph-name="uni048B" unicode="&#x48b;" horiz-adv-x="636" 
d="M382 652q38 0 62.5 20.5t35.5 51.5h123q-11 -39 -33 -71t-53 -54.5t-68.5 -34.5t-78.5 -12t-76 12t-60.5 34.5t-41 54.5t-17.5 71h122q6 -31 26.5 -51.5t58.5 -20.5zM400 0l30 283l-213 -246l-4 -37h-148l51 482h148l-31 -290l213 247l5 43h148l-38 -359h75l-22 -208
h-137l9 85h-86z" />
    <glyph glyph-name="uni048C" unicode="&#x48c;" horiz-adv-x="624" 
d="M312 700l-9 -87h168l-10 -96h-168l-10 -97h156q43 0 77 -15t58 -40.5t36.5 -60.5t12.5 -74q0 -46 -17 -88t-47 -73.5t-72 -50t-92 -18.5h-318l54 517h-60l10 96h60l9 87h162zM270 297l-18 -173h114q42 0 67.5 28t25.5 67q0 32 -18.5 55t-56.5 23h-114z" />
    <glyph glyph-name="uni048D" unicode="&#x48d;" horiz-adv-x="537" 
d="M113 363h-56l9 85h56l4 34h143l-4 -34h109l-9 -85h-109l-3 -32h114q43 0 72.5 -12t48 -32t26.5 -46t8 -55q0 -33 -10.5 -66t-33 -60t-59 -43.5t-87.5 -16.5h-257zM242 229l-14 -130h79q36 0 55.5 21.5t19.5 50.5q0 26 -15.5 42t-45.5 16h-79z" />
    <glyph glyph-name="uni048E" unicode="&#x48e;" horiz-adv-x="635" 
d="M392 422l54 -68q25 18 39.5 45.5t14.5 59.5q0 22 -7 42t-20 35t-31.5 23.5t-41.5 8.5h-111l-26 -242h100l-36 46zM141 700h293q54 0 96.5 -18.5t72 -50t45 -73t15.5 -88.5q0 -72 -35.5 -134t-97.5 -100l42 -53l-65 -51l-56 72q-17 -5 -34.5 -7.5t-36.5 -2.5h-131
l-20 -194h-162z" />
    <glyph glyph-name="uni048F" unicode="&#x48f;" horiz-adv-x="637" 
d="M388 228l52 -64q34 39 34 89q0 46 -27 78.5t-76 32.5q-28 0 -51.5 -11t-41 -30t-27 -43.5t-9.5 -51.5q0 -22 7 -42t19.5 -35t31 -23.5t42.5 -8.5q14 0 26 3l-45 55zM261 413q23 34 65.5 57.5t97.5 23.5q45 0 82.5 -17t64.5 -47.5t42 -72.5t15 -91q0 -69 -28 -126.5
t-78 -95.5l46 -55l-66 -51l-54 67q-39 -17 -81 -17q-25 0 -47.5 6.5t-41 17.5t-32.5 25.5t-21 31.5l-30 -287h-153l74 700h153z" />
    <glyph glyph-name="uni0490" unicode="&#x490;" horiz-adv-x="486" 
d="M141 700h292l10 98h127l-25 -234h-257l-59 -564h-162z" />
    <glyph glyph-name="uni0491" unicode="&#x491;" horiz-adv-x="401" 
d="M321 482l9 91h128l-22 -214h-185l-38 -359h-148l51 482h205z" />
    <glyph glyph-name="uni0492" unicode="&#x492;" horiz-adv-x="525" 
d="M311 428h90l-10 -95h-90l-35 -333h-162l35 333h-56l10 95h56l29 272h419l-15 -140h-257z" />
    <glyph glyph-name="uni0493" unicode="&#x493;" horiz-adv-x="397" 
d="M251 273h89l-9 -85h-89l-20 -188h-148l20 188h-56l9 85h56l22 209h316l-13 -123h-168z" />
    <glyph glyph-name="uni0494" unicode="&#x494;" horiz-adv-x="609" 
d="M280 576l-19 -180q24 38 66.5 60t99.5 22q88 0 127 -55q20 -28 23.5 -65t-1.5 -89l-36 -344q-8 -82 -52.5 -118t-111.5 -36h-96l13 125h46q46 0 52 44l30 291q5 52 -9.5 84.5t-62.5 32.5t-74 -33t-32 -89l-24 -226h-152l74 700h310l-13 -124h-158z" />
    <glyph glyph-name="uni0495" unicode="&#x495;" horiz-adv-x="566" 
d="M264 482l-24 -225q20 34 55 57.5t89 23.5q41 0 69 -14t44 -40q20 -28 23.5 -66t-1.5 -89l-22 -204q-9 -82 -52.5 -118t-124.5 -36q-24 0 -48 2t-31 3l12 113q1 0 8 -0.5t14.5 -0.5h14.5h9q47 0 52 45l19 178q5 44 -7.5 70.5t-50.5 26.5t-60.5 -26.5t-27.5 -75.5l-11 -106
h-148l51 482h148z" />
    <glyph glyph-name="uni0496" unicode="&#x496;" horiz-adv-x="965" 
d="M804 -98l10 98h-47l-174 315l-33 -315h-155l33 315l-240 -315h-193l301 359q-35 11 -56 36.5t-34 52.5l-31 66q-14 29 -32 40.5t-45 11.5h-20l15 139h48q116 0 163 -107l43 -98q19 -42 37 -63.5t45 -21.5h10l30 285h155l-30 -285h10q27 0 50.5 22t49.5 63l63 98
q69 107 185 107h48l-15 -139h-20q-23 0 -44.5 -10t-42.5 -42l-45 -66q-21 -31 -48 -55.5t-60 -33.5l225 -359l-10 -98h-146z" />
    <glyph glyph-name="uni0497" unicode="&#x497;" horiz-adv-x="761" 
d="M170 0h-165l216 246q-20 4 -39.5 17t-29.5 34l-16 35q-8 19 -21 28.5t-35 9.5h-22l12 117h50q45 0 75 -14t51 -60l36 -78q11 -23 21.5 -34.5t29.5 -11.5h8l21 193h139l-21 -193h9q18 0 32 11.5t29 34.5l52 78q15 23 31 37.5t33 22.5t36 11t41 3h50l-12 -117h-22
q-23 0 -36.5 -10t-26.5 -28l-25 -35q-15 -21 -36.5 -34t-41.5 -17l163 -246l-9 -85h-117l9 85h-48l-119 207l-22 -207h-139l22 207z" />
    <glyph glyph-name="uni0498" unicode="&#x498;" horiz-adv-x="620" 
d="M224 235q-6 -56 22 -86.5t76 -30.5q25 0 44.5 8.5t33 22.5t20 32.5t6.5 39.5q0 37 -23.5 57.5t-80.5 20.5h-60l13 123h60q34 0 57 8.5t36 21.5t18.5 29.5t5.5 32.5q0 35 -22 55.5t-62 20.5q-45 0 -76 -25.5t-36 -73.5h-166q5 45 25.5 86t57 71.5t89 48.5t120.5 18
q49 0 92 -10t75.5 -31.5t51.5 -54.5t19 -79q0 -38 -12 -68t-31.5 -52t-43.5 -36t-48 -20q45 -11 77 -49.5t32 -101.5q0 -48 -19.5 -87t-52.5 -68t-77 -47t-93 -23l-5 -44q15 15 44 15q34 0 54 -21.5t20 -54.5q0 -20 -8 -39.5t-23.5 -34.5t-37 -24t-48.5 -9q-16 0 -34 4
t-33 14t-25 27.5t-10 43.5h74q3 -26 31 -26q17 0 28 11t11 27q0 14 -8 22.5t-22 8.5q-20 0 -32 -17h-65l10 96q-61 4 -104 24t-69.5 52.5t-37 76t-4.5 95.5h166z" />
    <glyph glyph-name="uni0499" unicode="&#x499;" horiz-adv-x="496" 
d="M191 156q-3 -29 13.5 -46.5t51.5 -17.5q30 0 48.5 14t18.5 41q0 25 -17.5 39t-55.5 14h-54l9 87h50q45 0 65 17t20 43q0 24 -15.5 36.5t-41.5 12.5q-34 0 -49.5 -18t-18.5 -45h-150q3 32 18.5 61.5t43.5 52t70.5 35.5t99.5 13q42 0 77.5 -8t61 -24t40 -40t14.5 -57
q0 -52 -33.5 -82.5t-81.5 -36.5q42 -5 70 -29.5t28 -72.5q0 -35 -16 -62.5t-42.5 -47t-61 -31.5t-71.5 -16l-5 -42q17 15 45 15q34 0 53.5 -21.5t19.5 -53.5q0 -20 -8 -39.5t-22.5 -34.5t-36 -24.5t-48.5 -9.5q-14 0 -31.5 3.5t-33.5 13t-26.5 27t-11.5 45.5h74
q3 -26 31 -26q17 0 28 11t11 27q0 13 -8.5 22t-22.5 9q-11 0 -18.5 -5t-12.5 -12h-65l9 94q-48 4 -81 19t-52.5 37t-26.5 51t-4 62h152z" />
    <glyph glyph-name="uni049A" unicode="&#x49a;" horiz-adv-x="659" 
d="M492 -98l10 98h-50l-190 315l-33 -315h-162l74 700h162l-29 -273h12q27 0 52.5 16.5t52.5 56.5l67 97q36 53 79.5 80.5t102.5 27.5h56l-15 -142h-22q-23 0 -45.5 -10t-44.5 -41l-46 -67q-20 -29 -49 -52.5t-65 -33.5l239 -359l-10 -98h-146z" />
    <glyph glyph-name="uni049B" unicode="&#x49b;" horiz-adv-x="557" 
d="M415 -85l9 85h-59l-130 207l-22 -207h-148l51 482h148l-21 -196h9q18 0 34 12.5t36 39.5l60 79q28 39 59.5 54.5t78.5 15.5h53l-12 -119h-22q-17 0 -33 -6t-31 -26l-30 -39q-18 -23 -37 -33.5t-43 -15.5l177 -248l-9 -85h-118z" />
    <glyph glyph-name="uni049C" unicode="&#x49c;" horiz-adv-x="659" 
d="M322 419h2q25 0 45 18.5t44 62.5l54 97q31 56 75.5 82t104.5 26h49l-15 -142h-17q-23 0 -46 -9t-40 -40l-37 -66q-18 -32 -40 -53.5t-57 -30.5l204 -364h-193l-145 302l-12 -108h-24l12 108h-25l-32 -302h-162l74 700h162l-30 -281h25l14 134h24z" />
    <glyph glyph-name="uni049D" unicode="&#x49d;" horiz-adv-x="557" 
d="M282 287h3q14 0 24.5 14t26.5 37l54 79q26 41 57 55.5t77 14.5h49l-13 -121h-18q-16 0 -30.5 -5t-28.5 -22l-30 -39q-18 -23 -30.5 -34.5t-30.5 -16.5l150 -249h-168l-100 207l-11 -98h-21l11 98h-18l-22 -207h-148l51 482h148l-21 -196h18l8 77h21z" />
    <glyph glyph-name="uni049E" unicode="&#x49e;" horiz-adv-x="670" 
d="M150 700h162l-9 -87h65l-9 -89h-65l-10 -97h12q28 0 53.5 16.5t52.5 56.5l67 97q36 53 79 80.5t102 27.5h56l-15 -142h-21q-24 0 -46.5 -10t-44.5 -41l-46 -67q-20 -29 -48.5 -52.5t-65.5 -33.5l239 -359h-196l-190 315l-33 -315h-162l55 524h-60l9 89h60z" />
    <glyph glyph-name="uni049F" unicode="&#x49f;" horiz-adv-x="565" 
d="M125 482h147l-5 -41h57l-8 -78h-57l-8 -77h10q18 0 33 12t36 40l61 79q28 39 59.5 54.5t78.5 15.5h52l-12 -119h-22q-17 0 -33 -6t-31 -26l-29 -39q-17 -23 -38.5 -34t-41.5 -15l176 -248h-176l-131 207l-22 -207h-147l38 363h-61l8 78h61z" />
    <glyph glyph-name="uni04A0" unicode="&#x4a0;" horiz-adv-x="736" 
d="M69 560l15 140h295l-29 -273h12q28 0 53.5 16.5t52.5 56.5l67 97q36 53 79 80.5t102 27.5h56l-15 -142h-21q-24 0 -46 -10t-44 -41l-47 -67q-21 -30 -49 -53t-65 -33l239 -359h-196l-190 315l-33 -315h-162l59 560h-133z" />
    <glyph glyph-name="uni04A1" unicode="&#x4a1;" horiz-adv-x="604" 
d="M51 366l12 116h247l-20 -196h10q18 0 33 12t36 40l61 79q28 39 59.5 54.5t78.5 15.5h52l-13 -119h-22q-17 0 -33 -6t-30 -26l-29 -39q-17 -23 -38.5 -34t-41.5 -15l176 -248h-176l-132 207l-21 -207h-147l38 366h-100z" />
    <glyph glyph-name="uni04A2" unicode="&#x4a2;" horiz-adv-x="723" 
d="M471 0l29 278h-242l-29 -278h-162l74 700h162l-30 -283h242l30 283h161l-59 -561h74l-25 -237h-154l10 98h-81z" />
    <glyph glyph-name="uni04A3" unicode="&#x4a3;" horiz-adv-x="635" 
d="M411 182h-179l-19 -182h-148l51 482h148l-19 -177h179l19 177h148l-38 -359h75l-22 -208h-137l9 85h-86z" />
    <glyph glyph-name="uni04A4" unicode="&#x4a4;" horiz-adv-x="802" 
d="M632 0h-161l29 278h-242l-29 -278h-162l74 700h162l-30 -283h242l30 283h321l-15 -140h-159z" />
    <glyph glyph-name="uni04A5" unicode="&#x4a5;" horiz-adv-x="686" 
d="M724 482l-13 -116h-133l-38 -366h-148l19 182h-179l-19 -182h-148l51 482h148l-19 -177h179l19 177h281z" />
    <glyph glyph-name="uni04A6" unicode="&#x4a6;" horiz-adv-x="741" 
d="M288 562l-59 -562h-162l74 700h565l-59 -561h93l-25 -237h-154l10 98h-101l59 562h-241z" />
    <glyph glyph-name="uni04A7" unicode="&#x4a7;" horiz-adv-x="625" 
d="M546 123h75l-22 -208h-137l9 85h-85l38 359h-173l-38 -359h-148l51 482h468z" />
    <glyph glyph-name="uni04A8" unicode="&#x4a8;" horiz-adv-x="826" 
d="M412 572q-44 -1 -78.5 -20t-58.5 -50.5t-36.5 -73t-12.5 -88.5q0 -44 11.5 -82t33.5 -67.5t54 -47.5t74 -21l39 369q7 64 27.5 108t51.5 70t69 37.5t79 11.5q38 0 72.5 -10.5t59 -36t36.5 -68.5t5 -109l-13 -126q-7 -65 -32 -125t-64.5 -109t-92.5 -85t-116 -53l-7 -60
q0 -18 15 -28.5t40 -10.5h53l-13 -126h-84q-35 0 -64 8.5t-48.5 27t-28.5 47t-5 68.5l6 62q-78 4 -137.5 31.5t-99 73t-60 105t-20.5 127.5q0 79 26.5 150.5t74 126t114 87t146.5 33.5zM535 147q30 15 54.5 38t43 51.5t30 62t15.5 69.5l14 138q4 38 -5.5 64.5t-42.5 26.5
q-29 0 -47.5 -22.5t-23.5 -65.5z" />
    <glyph glyph-name="uni04A9" unicode="&#x4a9;" horiz-adv-x="606" 
d="M290 364q-25 -1 -44 -12.5t-31.5 -30t-18.5 -41.5t-6 -48q0 -51 24 -85.5t69 -38.5l24 229q5 47 21 77.5t39 48t50.5 24.5t55.5 7t53.5 -7t44.5 -24.5t28.5 -47.5t5.5 -76l-9 -90q-4 -41 -20.5 -80.5t-44 -73t-65.5 -58.5t-86 -38l-9 -86q-2 -37 32 -37h36l-11 -105h-59
q-56 0 -85.5 32t-21.5 104l8 80q-52 3 -91.5 22.5t-66.5 52t-41 74.5t-14 90q0 53 17 101t48.5 84.5t77.5 59t103 23.5zM394 130q33 20 54 52.5t25 69.5l6 63q7 74 -27 74q-17 0 -25.5 -16t-11.5 -44z" />
    <glyph glyph-name="uni04AA" unicode="&#x4aa;" horiz-adv-x="788" 
d="M632 428q-5 65 -47.5 104.5t-117.5 39.5q-54 0 -97.5 -20.5t-74 -55t-46.5 -78.5t-16 -90q0 -42 13 -78.5t38 -63.5t60.5 -42.5t79.5 -15.5q69 0 117.5 34.5t70.5 88.5h172q-15 -53 -46.5 -99.5t-76.5 -82.5t-101.5 -58.5t-122.5 -26.5l-5 -40q15 15 45 15q34 0 54 -21.5
t20 -54.5q0 -20 -8 -39.5t-23.5 -34.5t-37 -24t-48.5 -9q-14 0 -31.5 3.5t-33.5 13t-26.5 27t-11.5 45.5h74q5 -26 32 -26q17 0 27.5 11t10.5 27q0 14 -8 22.5t-22 8.5q-19 0 -31 -17h-65l10 94q-71 7 -125.5 36t-91.5 74t-56 101.5t-19 119.5q0 77 29 149.5t82.5 128.5
t130 90t172.5 34q78 0 137.5 -23t100 -62.5t61 -92t21.5 -112.5h-169z" />
    <glyph glyph-name="uni04AB" unicode="&#x4ab;" horiz-adv-x="575" 
d="M236 -8q-45 8 -78.5 28.5t-56 50.5t-33.5 67t-11 78q0 53 19 103.5t55.5 89.5t90.5 62.5t124 23.5q60 0 103 -17t70.5 -45.5t40.5 -64.5t12 -75h-153q0 29 -19.5 50.5t-64.5 21.5q-32 0 -55.5 -11.5t-38.5 -31t-22.5 -44t-7.5 -51.5q0 -23 5.5 -43t17.5 -35t31.5 -23.5
t47.5 -8.5q40 0 61.5 17.5t33.5 46.5h153q-10 -39 -30 -73t-51 -59.5t-72.5 -41.5t-93.5 -19l-4 -42q17 15 44 15q34 0 54 -21.5t20 -54.5q0 -20 -8 -39t-23 -34t-36.5 -24.5t-48.5 -9.5q-14 0 -31.5 3.5t-33.5 13t-26.5 27t-11.5 45.5h74q5 -26 31 -26q17 0 28 11t11 27
q0 13 -8 22t-22 9q-11 0 -19 -5t-13 -12h-65z" />
    <glyph glyph-name="uni04AC" unicode="&#x4ac;" horiz-adv-x="509" 
d="M232 560h-158l15 140h479l-15 -140h-159l-44 -421h74l-25 -237h-154l10 98h-82z" />
    <glyph glyph-name="uni04AD" unicode="&#x4ad;" horiz-adv-x="436" 
d="M477 482l-13 -123h-135l-25 -236h76l-22 -208h-138l9 85h-85l38 359h-134l13 123h416z" />
    <glyph glyph-name="uni04AE" unicode="&#x4ae;" horiz-adv-x="682" 
d="M386 424l178 276h184l-298 -434l-28 -266h-162l28 265l-206 435h184z" />
    <glyph glyph-name="uni04AF" unicode="&#x4af;" horiz-adv-x="559" 
d="M300 193l140 289h161l-240 -445l-27 -256h-157l27 256l-145 445h161z" />
    <glyph glyph-name="uni04B0" unicode="&#x4b0;" horiz-adv-x="682" 
d="M437 143l-15 -143h-162l15 143h-110l11 96h108l3 31l-205 430h184l120 -276l178 276h184l-295 -429l-3 -32h108l-11 -96h-110z" />
    <glyph glyph-name="uni04B1" unicode="&#x4b1;" horiz-adv-x="559" 
d="M300 193l140 289h161l-240 -445l-4 -37h78l-9 -85h-78l-14 -134h-157l14 134h-78l9 85h78l4 37l-145 445h161z" />
    <glyph glyph-name="uni04B2" unicode="&#x4b2;" horiz-adv-x="615" 
d="M470 -87l9 87h-49l-98 225l-146 -225h-179l245 350l-171 350h179l98 -226l146 226h178l-245 -350l171 -350l-9 -87h-129z" />
    <glyph glyph-name="uni04B3" unicode="&#x4b3;" horiz-adv-x="526" 
d="M392 -85l9 85h-59l-64 140l-94 -140h-177l191 243l-137 239h177l61 -136l91 136h177l-188 -239l140 -243l-9 -85h-118z" />
    <glyph glyph-name="uni04B4" unicode="&#x4b4;" horiz-adv-x="826" 
d="M345 138h228l59 562h161l-59 -562h93l-25 -236h-145l10 98h-499l59 560h-158l15 140h459l-15 -140h-139z" />
    <glyph glyph-name="uni04B5" unicode="&#x4b5;" horiz-adv-x="695" 
d="M288 123h169l38 359h148l-38 -359h75l-21 -208h-137l9 85h-403l38 366h-115l12 116h354l-12 -116h-91z" />
    <glyph glyph-name="uni04B6" unicode="&#x4b6;" horiz-adv-x="672" 
d="M401 0l22 202h-139q-53 0 -94.5 17.5t-69 48t-40 71.5t-7.5 88l29 273h162l-25 -235q-8 -69 22 -102.5t86 -33.5h89l39 371h161l-59 -561h93l-25 -237h-153l10 98h-101z" />
    <glyph glyph-name="uni04B7" unicode="&#x4b7;" horiz-adv-x="558" 
d="M315 0l14 132h-116q-82 0 -122 41.5t-32 124.5l19 184h147l-18 -170q-7 -68 63 -68h71l25 238h148l-38 -359h75l-22 -208h-137l9 85h-86z" />
    <glyph glyph-name="uni04B8" unicode="&#x4b8;" horiz-adv-x="629" 
d="M375 329h61l39 371h161l-74 -700h-161l21 202h-61l-8 -78h-59l8 78h-29q-51 1 -90 19.5t-65.5 48.5t-38 70.5t-6.5 86.5l29 273h162l-25 -235q-6 -58 14.5 -91.5t62.5 -41.5l10 91h59z" />
    <glyph glyph-name="uni04B9" unicode="&#x4b9;" horiz-adv-x="528" 
d="M299 244h42l25 238h148l-51 -482h-148l14 132h-42l-8 -79h-46l8 79h-28q-82 0 -122 41.5t-32 124.5l19 184h147l-18 -170q-6 -61 46 -68l9 89h46z" />
    <glyph glyph-name="uni04BA" unicode="&#x4ba;" horiz-adv-x="630" 
d="M141 700h152l-21 -198h118q66 0 106 -19t65 -49t35 -71t3 -106l-27 -257h-152l25 237q7 64 -19.5 97t-83.5 33h-84l-39 -367h-152z" />
    <glyph glyph-name="uni04BB" unicode="&#x4bb;" horiz-adv-x="597" 
d="M139 700h148l-31 -288q25 38 67 60t99 22q48 0 77.5 -15t46.5 -40q20 -29 24 -65.5t-1 -88.5l-30 -285h-148l26 247q5 51 -10 84t-62 33q-48 0 -74.5 -33t-32.5 -89l-25 -242h-148z" />
    <glyph glyph-name="uni04BC" unicode="&#x4bc;" horiz-adv-x="953" 
d="M623 580q-38 0 -72 -11t-61.5 -32.5t-46.5 -55t-26 -78.5h377q2 41 -9 74t-33 56t-55 35t-74 12zM963 416q0 -17 -1.5 -35.5t-3.5 -34.5t-3.5 -27.5t-2.5 -13.5h-546q0 -39 8.5 -71.5t29 -56.5t53.5 -37t81 -13q38 0 67 8t50.5 22t36 32.5t25.5 39.5h180
q-13 -46 -44.5 -90t-79.5 -78t-111.5 -55t-140.5 -21q-84 0 -146.5 25t-104 68.5t-61.5 102t-19 124.5h-58q-30 0 -53.5 10t-39.5 28t-22.5 43t-3.5 54l6 54h114l-5 -44q-2 -21 8.5 -34t30.5 -13h34q13 66 47 123.5t85 100t117 67.5t144 25t139 -24.5t103.5 -66.5t64.5 -97
t22 -115z" />
    <glyph glyph-name="uni04BD" unicode="&#x4bd;" horiz-adv-x="709" 
d="M466 393q-43 0 -75 -25.5t-37 -75.5h202q5 47 -20 74t-70 27zM345 204q-2 -21 1.5 -40.5t14 -34t29.5 -23.5t49 -9q42 0 64 16t32 39h150q-9 -34 -30 -64t-53.5 -52.5t-76 -35.5t-96.5 -13q-57 0 -100.5 16t-73.5 44.5t-45 68.5t-15 88h-33q-60 0 -93 35.5t-27 92.5l6 53
h108l-5 -48q-2 -21 8.5 -33t30.5 -12h15q12 43 35.5 80.5t58 64.5t79.5 42.5t99 15.5t96.5 -15.5t71.5 -43.5t44.5 -66t15.5 -83q0 -22 -3.5 -41.5t-9.5 -41.5h-347z" />
    <glyph glyph-name="uni04BE" unicode="&#x4be;" horiz-adv-x="953" 
d="M623 580q-38 0 -72 -11t-61.5 -32.5t-46.5 -55t-26 -78.5h377q2 41 -9 74t-33 56t-55 35t-74 12zM509 -11q-71 8 -123.5 35t-87 69t-51.5 96t-17 116h-58q-30 0 -53.5 10t-39.5 28t-22.5 43t-3.5 54l6 54h114l-5 -44q-2 -21 8.5 -34t30.5 -13h34q13 66 47 123.5t85 100
t117 67.5t144 25t139 -24.5t103.5 -66.5t64.5 -97t22 -115q0 -17 -1.5 -35.5t-3.5 -34.5t-3.5 -27.5t-2.5 -13.5h-546q0 -39 8.5 -71.5t29 -56.5t53.5 -37t81 -13q38 0 67 8t50.5 22t36 32.5t25.5 39.5h180q-12 -44 -40.5 -85t-71 -74t-98 -55t-121.5 -28q-15 -13 -25 -32
t-10 -39q0 -19 10.5 -33t32.5 -14q10 0 25.5 3t29.5 9l-10 -78q-20 -7 -44 -11t-49 -4q-64 0 -91.5 26t-27.5 63q0 29 16 58.5t46 53.5z" />
    <glyph glyph-name="uni04BF" unicode="&#x4bf;" horiz-adv-x="709" 
d="M466 393q-43 0 -75 -25.5t-37 -75.5h202q5 47 -20 74t-70 27zM372 -9q-88 14 -132.5 71.5t-44.5 141.5h-33q-60 0 -93 35.5t-27 92.5l6 53h108l-5 -48q-2 -21 8.5 -33t30.5 -12h15q12 43 35.5 80.5t58 64.5t79.5 42.5t99 15.5t96.5 -15.5t71.5 -43.5t44.5 -66t15.5 -83
q0 -22 -3.5 -41.5t-9.5 -41.5h-347q-2 -21 1.5 -40.5t14 -34t29.5 -23.5t49 -9q42 0 64 16t32 39h150q-8 -31 -27 -58.5t-46.5 -49.5t-64.5 -36.5t-81 -18.5q-16 -14 -28.5 -33t-12.5 -41q0 -17 10 -31.5t33 -14.5q9 0 24.5 3t30.5 9l-11 -78q-20 -7 -44 -11t-49 -4
q-63 0 -91.5 26t-28.5 61q0 32 20.5 61.5t52.5 54.5z" />
    <glyph glyph-name="uni04C0" unicode="&#x4c0;" horiz-adv-x="298" 
d="M141 700h164l-74 -700h-164z" />
    <glyph glyph-name="uni04C3" unicode="&#x4c3;" horiz-adv-x="670" 
d="M380 -229q-26 0 -51.5 2t-32.5 3l13 122q2 0 15.5 -1t24.5 -1q63 0 68 46l24 229q7 65 -14.5 102.5t-80.5 37.5h-84l-33 -311h-162l74 700h162l-32 -297h19q27 0 46 16.5t45 56.5l77 121q35 54 79 81t103 27h56l-15 -142h-22q-23 0 -45.5 -10t-44.5 -41l-57 -80
q-10 -14 -27.5 -28.5t-34.5 -18.5q83 -11 122 -57q20 -24 27.5 -60t1.5 -90l-27 -253q-5 -43 -20 -72.5t-40 -47.5t-59 -26t-75 -8z" />
    <glyph glyph-name="uni04C4" unicode="&#x4c4;" horiz-adv-x="580" 
d="M232 -230l12 117h42q27 0 43.5 11.5t18.5 32.5l18 172q5 44 -11 70t-62 26h-59l-21 -199h-148l51 482h148l-21 -200h9q18 0 33.5 14t36.5 42l60 79q28 39 59.5 54.5t78.5 15.5h53l-12 -119h-22q-17 0 -34 -6t-31 -26l-26 -36q-21 -28 -58 -39q36 -5 62 -22t40 -37
q16 -23 20 -53t-1 -74l-16 -150q-9 -82 -56 -118.5t-118 -36.5h-89z" />
    <glyph glyph-name="uni04C5" unicode="&#x4c5;" horiz-adv-x="737" 
d="M22 116h47q23 0 37 11t16 31l57 542h539l-63 -597h81l-93 -194h-154l44 91h-50l59 562h-216l-44 -422q-5 -42 -20.5 -71.5t-39.5 -48t-55 -27t-66 -8.5h-93z" />
    <glyph glyph-name="uni04C6" unicode="&#x4c6;" horiz-adv-x="628" 
d="M29 115h27q44 0 48 39l34 328h457l-40 -379h66l-93 -194h-136l43 91h-39l38 359h-162l-23 -221q-8 -72 -50.5 -111t-123.5 -39h-59z" />
    <glyph glyph-name="uni04C7" unicode="&#x4c7;" horiz-adv-x="696" 
d="M624 -75q-9 -82 -53 -118t-111 -36h-106l13 125h46q47 0 52 44l36 338h-243l-29 -278h-162l74 700h162l-30 -283h242l30 283h160z" />
    <glyph glyph-name="uni04C8" unicode="&#x4c8;" horiz-adv-x="600" 
d="M532 -75q-5 -47 -18 -77.5t-32 -47.5t-42.5 -23.5t-49.5 -6.5q-8 0 -23.5 0.5t-31.5 1.5t-29.5 2t-16.5 3l12 117q11 -2 23 -3t17 -1q19 0 30.5 10.5t13.5 35.5l26 246h-179l-19 -182h-148l51 482h148l-19 -177h179l19 177h148z" />
    <glyph glyph-name="uni04C9" unicode="&#x4c9;" horiz-adv-x="708" 
d="M500 278h-242l-29 -278h-162l74 700h162l-30 -283h242l30 283h161l-63 -597h81l-94 -194h-153l44 91h-50z" />
    <glyph glyph-name="uni04CA" unicode="&#x4ca;" horiz-adv-x="626" 
d="M411 182h-179l-19 -182h-148l51 482h148l-19 -177h179l19 177h148l-40 -379h66l-94 -194h-136l44 91h-39z" />
    <glyph glyph-name="uni04CB" unicode="&#x4cb;" horiz-adv-x="629" 
d="M481 0l-10 -98h-154l21 201h74l11 99h-139q-53 0 -94.5 17.5t-69 48t-40 71.5t-7.5 88l29 273h162l-25 -235q-8 -69 22 -102.5t86 -33.5h89l39 371h161l-74 -700h-81z" />
    <glyph glyph-name="uni04CC" unicode="&#x4cc;" horiz-adv-x="558" 
d="M315 0l14 132h-116q-82 0 -122 41.5t-32 124.5l19 184h147l-18 -170q-7 -68 63 -68h71l25 238h148l-38 -359h75l-22 -208h-137l9 85h-86z" />
    <glyph glyph-name="uni04CD" unicode="&#x4cd;" horiz-adv-x="903" 
d="M821 103h82l-94 -194h-154l44 91h-47l46 434l-197 -434h-120l-110 434l-46 -434h-158l74 700h187l135 -487l237 487h184z" />
    <glyph glyph-name="uni04CE" unicode="&#x4ce;" horiz-adv-x="806" 
d="M730 103h67l-94 -194h-130l44 91h-39l36 347l-172 -347h-99l-101 347l-36 -347h-141l51 482h211l83 -315l149 315h211z" />
    <glyph glyph-name="uni04D0" unicode="&#x4d0;" horiz-adv-x="660" 
d="M420 868q38 0 62.5 20.5t36.5 51.5h123q-11 -39 -33 -71t-53 -54.5t-68.5 -34.5t-78.5 -12t-76 12t-60.5 34.5t-41 54.5t-17.5 71h122q5 -31 25.5 -51.5t58.5 -20.5zM265 212h170l-53 288zM656 0h-176l-18 85h-249l-36 -85h-173l324 700h149z" />
    <glyph glyph-name="uni04D1" unicode="&#x4d1;" horiz-adv-x="633" 
d="M376 652q38 0 62.5 20.5t36.5 51.5h123q-11 -39 -33.5 -71t-53.5 -54.5t-68.5 -34.5t-78.5 -12t-75.5 12t-60.5 34.5t-41 54.5t-17 71h122q5 -31 25.5 -51.5t58.5 -20.5zM314 118q27 0 50.5 11t40.5 29.5t27 43t10 51.5q0 45 -27.5 78t-76.5 33q-27 0 -50.5 -11t-41 -30
t-27 -43.5t-9.5 -51.5q0 -45 27.5 -77.5t76.5 -32.5zM618 482l-51 -482h-152l8 68q-10 -15 -26 -29.5t-37 -25.5t-46 -18t-54 -7q-45 0 -82.5 17t-64.5 47.5t-42 72.5t-15 91q0 58 20.5 109t55.5 88.5t81.5 59t98.5 21.5q56 0 93 -23.5t54 -57.5l7 69h152z" />
    <glyph glyph-name="uni04D2" unicode="&#x4d2;" horiz-adv-x="660" 
d="M203 844q0 21 8.5 39.5t23 32.5t33 22t39.5 8q38 0 62.5 -25t24.5 -61q0 -21 -8.5 -39t-23 -32t-33.5 -22t-40 -8q-38 0 -62 25t-24 60zM444 844q0 21 8.5 39.5t22.5 32.5t33 22t40 8q38 0 62 -25t24 -61q0 -21 -8.5 -39t-23 -32t-33.5 -22t-40 -8q-38 0 -61.5 25
t-23.5 60zM265 212h170l-53 288zM656 0h-176l-18 85h-249l-36 -85h-173l324 700h149z" />
    <glyph glyph-name="uni04D3" unicode="&#x4d3;" horiz-adv-x="633" 
d="M339 638q0 -21 -8.5 -39t-23 -32t-33.5 -22t-40 -8q-38 0 -62 25t-24 60q0 21 8.5 39.5t23 32.5t33.5 22t40 8q38 0 62 -25t24 -61zM474 537q-38 0 -61.5 25t-23.5 60q0 21 8.5 39.5t23 32.5t33 22t39.5 8q38 0 62 -25t24 -61q0 -21 -8.5 -39t-23 -32t-33.5 -22t-40 -8z
M314 118q27 0 50.5 11t40.5 29.5t27 43t10 51.5q0 45 -27.5 78t-76.5 33q-27 0 -50.5 -11t-41 -30t-27 -43.5t-9.5 -51.5q0 -45 27.5 -77.5t76.5 -32.5zM415 0l8 68q-10 -15 -26 -29.5t-37 -25.5t-46 -18t-54 -7q-45 0 -82.5 17t-64.5 47.5t-42 72.5t-15 91q0 58 20.5 109
t55.5 88.5t81.5 59t98.5 21.5q56 0 93 -23.5t54 -57.5l7 69h152l-51 -482h-152z" />
    <glyph glyph-name="uni04D4" unicode="&#x4d4;" horiz-adv-x="918" 
d="M451 213l36 342l-192 -342h156zM651 570l-17 -159h266l-13 -127h-266l-16 -154h266l-14 -130h-428l9 86h-211l-48 -86h-175l409 700h518l-14 -130h-266z" />
    <glyph glyph-name="uni04D5" unicode="&#x4d5;" horiz-adv-x="961" 
d="M606 482l-1 -12q26 11 56.5 18t65.5 7q52 0 94 -16t71 -44t44.5 -66t15.5 -82q0 -22 -3.5 -41.5t-9.5 -41.5h-346q-2 -22 1.5 -41.5t14.5 -34t30 -23t48 -8.5q41 0 62.5 16t32.5 39h150q-10 -35 -32 -65.5t-55 -52.5t-75.5 -34.5t-91.5 -12.5q-38 0 -67.5 7t-53.5 19
l-2 -13h-138l8 68q-23 -34 -65.5 -57t-96.5 -23q-45 0 -82.5 17t-64.5 47.5t-42 72.5t-15 91q0 58 20.5 109t55.5 88.5t81.5 59t98.5 21.5q56 0 93 -23.5t53 -57.5l7 69h138zM713 387q-42 0 -73 -24.5t-37 -70.5h199q5 43 -19.5 69t-69.5 26zM316 118q27 0 50.5 11t41 29.5
t27 43t9.5 51.5q0 47 -28 79t-76 32q-28 0 -51.5 -11t-40.5 -30t-26.5 -43t-9.5 -51q0 -46 27.5 -78.5t76.5 -32.5z" />
    <glyph glyph-name="uni04D6" unicode="&#x4d6;" horiz-adv-x="555" 
d="M375 868q38 0 62.5 20.5t36.5 51.5h123q-11 -39 -33 -71t-53 -54.5t-68.5 -34.5t-78.5 -12t-76 12t-60.5 34.5t-41 54.5t-17.5 71h122q5 -31 25.5 -51.5t58.5 -20.5zM289 570l-17 -159h265l-13 -127h-265l-16 -154h265l-14 -130h-427l74 700h427l-14 -130h-265z" />
    <glyph glyph-name="uni04D7" unicode="&#x4d7;" horiz-adv-x="577" 
d="M359 652q38 0 62.5 20.5t36.5 51.5h123q-10 -39 -32.5 -71t-53.5 -54.5t-68.5 -34.5t-78.5 -12t-76 12t-60.5 34.5t-41 54.5t-17.5 71h123q5 -31 25 -51.5t58 -20.5zM207 204q-1 -20 2 -39t13.5 -34t29.5 -24.5t50 -9.5q42 0 63.5 16t32.5 39h150q-9 -34 -30.5 -64
t-54.5 -52.5t-76 -35.5t-95 -13q-58 0 -102 16.5t-73.5 46.5t-44.5 71.5t-15 91.5q0 58 19.5 109t55.5 89.5t88 61t118 22.5q55 0 98 -16t72 -43.5t44.5 -65.5t15.5 -82q0 -23 -4 -42.5t-10 -41.5h-347zM329 393q-43 0 -75.5 -25.5t-37.5 -75.5h202q5 49 -20.5 75t-68.5 26z
" />
    <glyph glyph-name="uni04D8" unicode="&#x4d8;" horiz-adv-x="789" 
d="M90 475q13 46 44.5 90t80 78.5t111.5 55t139 20.5q84 0 146 -25.5t103.5 -70t62 -104t20.5 -128.5q0 -83 -29 -157t-81.5 -129.5t-127 -87.5t-164.5 -32q-80 0 -141.5 25t-103.5 67.5t-63.5 98t-21.5 115.5q0 17 1.5 35.5t3.5 35t3.5 27.5t2.5 13h556q-1 36 -10 68
t-29.5 56t-55 37.5t-86.5 13.5q-40 0 -69 -8t-50.5 -22t-36.5 -32.5t-25 -39.5h-180zM406 124q40 0 76 11.5t64.5 34t48 56.5t25.5 78h-387q-4 -84 42 -132t131 -48z" />
    <glyph glyph-name="uni04D9" unicode="&#x4d9;" horiz-adv-x="577" 
d="M421 278q1 20 -2.5 39t-14 34t-29.5 24.5t-49 9.5q-42 0 -64 -16.5t-32 -39.5h-150q9 34 30.5 64.5t54.5 53t76 35.5t95 13q58 0 102 -16.5t73.5 -46.5t44.5 -71.5t15 -91.5q0 -58 -19.5 -109.5t-56 -89.5t-88.5 -60.5t-117 -22.5q-55 0 -98 16t-72 43.5t-44.5 65.5
t-15.5 82q0 23 4 42.5t10 41.5h347zM300 89q42 0 74 25t37 76h-202q-5 -47 20 -74t71 -27z" />
    <glyph glyph-name="uni04DA" unicode="&#x4da;" horiz-adv-x="789" 
d="M508 844q0 21 8.5 39.5t23 32.5t33 22t39.5 8q38 0 62 -25t24 -61q0 -21 -8.5 -39t-23 -32t-33.5 -22t-40 -8q-38 0 -61.5 25t-23.5 60zM353 759q-38 0 -62 25t-24 60q0 21 8.5 39.5t23 32.5t33.5 22t40 8q38 0 62 -25t24 -61q0 -21 -8.5 -39t-23 -32t-33.5 -22t-40 -8z
M90 475q13 46 44.5 90t80 78.5t111.5 55t139 20.5q84 0 146 -25.5t103.5 -70t62 -104t20.5 -128.5q0 -83 -29 -157t-81.5 -129.5t-127 -87.5t-164.5 -32q-80 0 -141.5 25t-103.5 67.5t-63.5 98t-21.5 115.5q0 17 1.5 35.5t3.5 35t3.5 27.5t2.5 13h556q-1 36 -10 68t-29.5 56
t-55 37.5t-86.5 13.5q-40 0 -69 -8t-50.5 -22t-36.5 -32.5t-25 -39.5h-180zM406 124q40 0 76 11.5t64.5 34t48 56.5t25.5 78h-387q-4 -84 42 -132t131 -48z" />
    <glyph glyph-name="uni04DB" unicode="&#x4db;" horiz-adv-x="577" 
d="M141 622q0 21 8.5 39.5t23 32.5t33.5 22t40 8q38 0 62 -25t24 -61q0 -21 -8.5 -39t-23 -32t-33.5 -22t-40 -8q-38 0 -62 25t-24 60zM382 622q0 21 8.5 39.5t23 32.5t33.5 22t40 8q38 0 61.5 -25t23.5 -60q0 -21 -8.5 -39.5t-23 -32.5t-33 -22t-39.5 -8q-38 0 -62 25
t-24 60zM421 278q1 20 -2.5 39t-14 34t-29.5 24.5t-49 9.5q-42 0 -64 -16.5t-32 -39.5h-150q9 34 30.5 64.5t54.5 53t76 35.5t95 13q58 0 102 -16.5t73.5 -46.5t44.5 -71.5t15 -91.5q0 -58 -19.5 -109.5t-56 -89.5t-88.5 -60.5t-117 -22.5q-55 0 -98 16t-72 43.5t-44.5 65.5
t-15.5 82q0 23 4 42.5t10 41.5h347zM300 89q42 0 74 25t37 76h-202q-5 -47 20 -74t71 -27z" />
    <glyph glyph-name="uni04DC" unicode="&#x4dc;" horiz-adv-x="965" 
d="M357 844q0 21 8.5 39.5t23 32.5t33 22t39.5 8q38 0 62 -25t24 -61q0 -21 -8.5 -39t-22.5 -32t-33 -22t-40 -8q-38 0 -62 25t-24 60zM598 844q0 21 8.5 39.5t22.5 32.5t33 22t40 8q38 0 62 -25t24 -61q0 -21 -8.5 -39t-23 -32t-33.5 -22t-40 -8q-38 0 -61.5 25t-23.5 60z
M198 0h-193l301 359q-35 11 -56 36.5t-34 52.5l-31 66q-14 29 -32 40.5t-45 11.5h-20l15 139h48q116 0 163 -107l43 -98q19 -42 37 -63.5t45 -21.5h10l30 285h155l-30 -285h10q27 0 50.5 22t49.5 63l63 98q69 107 185 107h48l-15 -139h-20q-23 0 -44.5 -10t-42.5 -42
l-45 -66q-21 -31 -48 -55.5t-60 -33.5l225 -359h-193l-174 315l-33 -315h-155l33 315z" />
    <glyph glyph-name="uni04DD" unicode="&#x4dd;" horiz-adv-x="761" 
d="M558 537q-38 0 -61.5 25t-23.5 60q0 21 8.5 39.5t22.5 32.5t33 22t40 8q38 0 62 -25t24 -61q0 -21 -8.5 -39t-23 -32t-33.5 -22t-40 -8zM423 638q0 -21 -8.5 -39t-23.5 -32t-34 -22t-40 -8q-38 0 -61.5 25t-23.5 60q0 21 8.5 39.5t23 32.5t33 22t39.5 8q38 0 62.5 -25
t24.5 -61zM170 0h-165l216 246q-20 4 -39.5 17t-29.5 34l-16 35q-8 19 -21 28.5t-35 9.5h-22l12 117h50q45 0 75 -14t51 -60l36 -78q11 -23 21.5 -34.5t29.5 -11.5h8l21 193h139l-21 -193h9q18 0 32 11.5t29 34.5l52 78q15 23 31 37.5t33 22.5t36 11t41 3h50l-12 -117h-22
q-23 0 -36.5 -10t-26.5 -28l-25 -35q-15 -21 -36.5 -34t-41.5 -17l163 -246h-165l-119 207l-22 -207h-139l22 207z" />
    <glyph glyph-name="uni04DE" unicode="&#x4de;" horiz-adv-x="620" 
d="M422 848q0 21 8.5 39.5t23 32.5t33.5 22t40 8q38 0 61.5 -25t23.5 -60q0 -21 -8.5 -39.5t-23 -32.5t-33.5 -22t-40 -8q-38 0 -61.5 25t-23.5 60zM267 763q-38 0 -62 25t-24 60q0 21 8.5 39.5t23 32.5t33.5 22t40 8q38 0 61.5 -25t23.5 -61q0 -21 -8 -39t-22.5 -32
t-33.5 -22t-40 -8zM224 235q-6 -56 22 -86.5t76 -30.5q25 0 44.5 8.5t33 22.5t20 32.5t6.5 39.5q0 37 -23.5 57.5t-80.5 20.5h-60l13 123h60q34 0 57 8.5t36 21.5t18.5 29.5t5.5 32.5q0 35 -22 55.5t-62 20.5q-45 0 -76 -25.5t-36 -73.5h-166q5 45 25.5 86t57 71.5t89 48.5
t120.5 18q49 0 92 -10t75.5 -31.5t51.5 -54.5t19 -79q0 -38 -12 -68t-31.5 -52t-43.5 -36t-48 -20q47 -11 78 -50t31 -102q0 -54 -23.5 -96t-63.5 -71t-93 -44.5t-112 -15.5q-64 0 -112.5 17.5t-80 50.5t-45 79t-6.5 103h166z" />
    <glyph glyph-name="uni04DF" unicode="&#x4df;" horiz-adv-x="496" 
d="M408 537q-38 0 -62 25t-24 60q0 21 8.5 39.5t23 32.5t33.5 22t40 8q38 0 62 -25t24 -60q0 -21 -8.5 -39.5t-23 -32.5t-33.5 -22t-40 -8zM195 537q-38 0 -62 25t-24 60q0 21 8.5 39.5t23 32.5t33 22t39.5 8q38 0 62 -25t24 -61q0 -21 -8.5 -39t-22.5 -32t-33 -22t-40 -8z
M191 156q-3 -29 13 -46.5t51 -17.5q31 0 49.5 14t18.5 41q0 25 -17.5 39t-55.5 14h-54l9 87h50q45 0 64.5 17t19.5 43q0 24 -15 36.5t-41 12.5q-34 0 -49.5 -18t-18.5 -45h-150q3 32 18.5 61.5t43.5 52t70.5 35.5t99.5 13q42 0 77.5 -8t61 -24t40 -40t14.5 -57
q0 -52 -33.5 -82.5t-81.5 -36.5q42 -5 70 -29.5t28 -72.5q0 -39 -19.5 -69t-52 -50.5t-75.5 -30.5t-90 -10q-106 0 -156 47.5t-41 123.5h152z" />
    <glyph glyph-name="uni04E0" unicode="&#x4e0;" horiz-adv-x="626" 
d="M222 232q-6 -51 21 -82.5t78 -31.5q26 0 46.5 9t34 24.5t20.5 36.5t7 44q0 42 -24 64.5t-79 22.5h-99l178 245h-257l14 136h491l-211 -286q32 -5 59.5 -19t48 -37t32.5 -55t12 -71q0 -55 -23 -100.5t-62.5 -78t-94 -50.5t-117.5 -18t-111 18t-79.5 50.5t-45 78
t-6.5 100.5h167z" />
    <glyph glyph-name="uni04E1" unicode="&#x4e1;" horiz-adv-x="561" 
d="M174 -18q-3 -42 18.5 -65.5t59.5 -23.5q48 0 77.5 36t29.5 92q0 58 -32.5 85.5t-90.5 27.5h-82l182 215h-230l14 133h467l-223 -275q31 -5 58.5 -19.5t48.5 -38t33 -56.5t12 -75q0 -53 -20 -98.5t-56.5 -79t-89.5 -52.5t-119 -19q-59 0 -102.5 15.5t-70.5 44t-37.5 67.5
t-5.5 86h159z" />
    <glyph glyph-name="uni04E2" unicode="&#x4e2;" horiz-adv-x="706" 
d="M630 794h-368l13 115h368zM523 436l-289 -388l-5 -48h-162l74 700h162l-46 -436l289 388l5 48h162l-74 -700h-162z" />
    <glyph glyph-name="uni04E3" unicode="&#x4e3;" 
d="M551 572h-368l12 115h368zM430 283l-213 -246l-4 -37h-148l51 482h148l-31 -290l213 247l5 43h148l-51 -482h-148z" />
    <glyph glyph-name="uni04E4" unicode="&#x4e4;" horiz-adv-x="706" 
d="M234 844q0 21 8.5 39.5t23 32.5t33 22t39.5 8q38 0 62 -25t24 -61q0 -21 -8.5 -39t-22.5 -32t-33 -22t-40 -8q-38 0 -62 25t-24 60zM475 844q0 21 8.5 39.5t22.5 32.5t33 22t40 8q38 0 62 -25t24 -61q0 -21 -8.5 -39t-23 -32t-33.5 -22t-40 -8q-38 0 -61.5 25t-23.5 60z
M523 436l-289 -388l-5 -48h-162l74 700h162l-46 -436l289 388l5 48h162l-74 -700h-162z" />
    <glyph glyph-name="uni04E5" unicode="&#x4e5;" 
d="M487 537q-38 0 -61 25t-23 60q0 21 8.5 39.5t22.5 32.5t33 22t40 8q38 0 62 -25t24 -60q0 -21 -8.5 -39.5t-23.5 -32.5t-34 -22t-40 -8zM353 638q0 -21 -8.5 -39t-23.5 -32t-34 -22t-40 -8q-38 0 -61.5 25t-23.5 60q0 21 8.5 39.5t23 32.5t33 22t39.5 8q38 0 62.5 -25
t24.5 -61zM430 283l-213 -246l-4 -37h-148l51 482h148l-31 -290l213 247l5 43h148l-51 -482h-148z" />
    <glyph glyph-name="uni04E6" unicode="&#x4e6;" horiz-adv-x="805" 
d="M517 846q0 21 8.5 39.5t22.5 32.5t33 22t40 8q38 0 62 -25t24 -60q0 -21 -8.5 -39.5t-23.5 -32.5t-34 -22t-40 -8q-38 0 -61 25t-23 60zM361 761q-38 0 -61.5 25t-23.5 60q0 21 8.5 39.5t23 32.5t33 22t39.5 8q38 0 62 -25t24 -61q0 -21 -8.5 -39t-23 -32t-33.5 -22
t-40 -8zM404 -18q-83 0 -145.5 27.5t-105.5 73t-64.5 106t-21.5 126.5q0 78 29.5 150.5t83 128.5t128.5 90t167 34q82 0 145 -27.5t106 -73t64.5 -106t21.5 -126.5q0 -78 -29.5 -150.5t-83 -129t-128.5 -90t-167 -33.5zM234 327q0 -39 12 -75t35.5 -63.5t57.5 -44t79 -16.5
q51 0 93 21t72.5 55t47 78t16.5 91q0 39 -12 75t-35.5 63.5t-58 44t-79.5 16.5q-51 0 -93 -20.5t-72 -55t-46.5 -78.5t-16.5 -91z" />
    <glyph glyph-name="uni04E7" unicode="&#x4e7;" horiz-adv-x="599" 
d="M475 537q-38 0 -61.5 25t-23.5 60q0 21 8.5 39.5t22.5 32.5t33 22t40 8q38 0 62 -25t24 -61q0 -21 -8.5 -39t-23 -32t-33.5 -22t-40 -8zM235 537q-38 0 -62 25t-24 60q0 21 8.5 39.5t23 32.5t33 22t39.5 8q38 0 62 -25t24 -61q0 -21 -8.5 -39t-22.5 -32t-33 -22t-40 -8z
M594 264q0 -56 -21 -106t-60 -88t-93 -60.5t-120 -22.5q-59 0 -104.5 18t-76.5 49.5t-47 73.5t-16 90q0 55 21 105.5t60 88.5t93 60.5t120 22.5q59 0 104.5 -18t76.5 -49.5t47 -73.5t16 -90zM210 228q0 -45 26.5 -77.5t76.5 -32.5q27 0 50.5 11t41 29.5t27 43t9.5 51.5
q0 46 -27.5 78.5t-76.5 32.5q-28 0 -51 -11t-40 -29.5t-26.5 -43.5t-9.5 -52z" />
    <glyph glyph-name="uni04E8" unicode="&#x4e8;" horiz-adv-x="805" 
d="M404 -18q-83 0 -145.5 27.5t-105.5 73t-64.5 106t-21.5 126.5q0 78 29.5 150.5t83 128.5t128.5 90t167 34q82 0 145 -27.5t106 -73t64.5 -106t21.5 -126.5q0 -78 -29.5 -150.5t-83 -129t-128.5 -90t-167 -33.5zM463 572q-42 0 -78 -14.5t-64 -39.5t-48 -58t-29 -69h402
q-2 36 -15.5 69t-36.5 58t-56 39.5t-75 14.5zM417 128q42 0 78 14.5t64.5 39.5t48 58.5t29.5 70.5h-403q2 -37 15 -70.5t36 -58.5t56.5 -39.5t75.5 -14.5z" />
    <glyph glyph-name="uni04E9" unicode="&#x4e9;" horiz-adv-x="599" 
d="M300 -13q-59 0 -104.5 18t-76.5 49.5t-47 73.5t-16 90q0 55 21 105.5t60 88.5t93 60.5t120 22.5q59 0 104.5 -18t76.5 -49.5t47 -73.5t16 -90q0 -56 -21 -106t-60 -88t-93 -60.5t-120 -22.5zM337 364q-44 0 -75.5 -26t-44.5 -65h223q-6 39 -32.5 65t-70.5 26zM312 118
q44 0 75.5 25.5t45.5 64.5h-222q5 -39 31 -64.5t70 -25.5z" />
    <glyph glyph-name="uni04EA" unicode="&#x4ea;" horiz-adv-x="805" 
d="M364 771q-37 0 -59.5 24t-22.5 58q0 21 8.5 39t22.5 31.5t32.5 21.5t38.5 8q37 0 60 -24t23 -59q0 -20 -8.5 -38t-22.5 -31.5t-32.5 -21.5t-39.5 -8zM522 854q0 20 8 38t22.5 31.5t33 21.5t39.5 8q37 0 59.5 -24t22.5 -59q0 -20 -8 -38t-22 -31.5t-32 -21.5t-39 -8
q-38 0 -61 24t-23 59zM404 -18q-83 0 -145.5 27.5t-105.5 73t-64.5 106t-21.5 126.5q0 78 29.5 150.5t83 128.5t128.5 90t167 34q82 0 145 -27.5t106 -73t64.5 -106t21.5 -126.5q0 -78 -29.5 -150.5t-83 -129t-128.5 -90t-167 -33.5zM463 572q-42 0 -78 -14.5t-64 -39.5
t-48 -58t-29 -69h402q-2 36 -15.5 69t-36.5 58t-56 39.5t-75 14.5zM417 128q42 0 78 14.5t64.5 39.5t48 58.5t29.5 70.5h-403q2 -37 15 -70.5t36 -58.5t56.5 -39.5t75.5 -14.5z" />
    <glyph glyph-name="uni04EB" unicode="&#x4eb;" horiz-adv-x="599" 
d="M238 553q-37 0 -60.5 24t-23.5 59q0 20 8.5 38t22.5 31.5t32.5 21.5t38.5 8q37 0 60 -24t23 -59q0 -20 -8 -38t-22 -31.5t-32.5 -21.5t-38.5 -8zM478 553q-37 0 -60 24t-23 59q0 20 8 38t22 31.5t32.5 21.5t38.5 8q37 0 60.5 -24t23.5 -59q0 -20 -8.5 -38t-22.5 -31.5
t-32.5 -21.5t-38.5 -8zM300 -13q-59 0 -104.5 18t-76.5 49.5t-47 73.5t-16 90q0 55 21 105.5t60 88.5t93 60.5t120 22.5q59 0 104.5 -18t76.5 -49.5t47 -73.5t16 -90q0 -56 -21 -106t-60 -88t-93 -60.5t-120 -22.5zM337 364q-44 0 -75.5 -26t-44.5 -65h223q-6 39 -32.5 65
t-70.5 26zM312 118q44 0 75.5 25.5t45.5 64.5h-222q5 -39 31 -64.5t70 -25.5z" />
    <glyph glyph-name="uni04EC" unicode="&#x4ec;" horiz-adv-x="769" 
d="M497 844q0 21 8.5 39.5t22.5 32.5t33 22t40 8q38 0 62 -25t24 -60q0 -21 -8.5 -39.5t-23.5 -32.5t-34 -22t-40 -8q-38 0 -61 25t-23 60zM341 759q-38 0 -61.5 25t-23.5 60q0 21 8.5 39.5t23 32.5t33 22t39.5 8q38 0 62 -25t24 -61q0 -21 -8.5 -39t-23 -32t-33.5 -22
t-40 -8zM342 402h266q-2 36 -12.5 67t-30.5 54t-50.5 36t-71.5 13q-73 0 -125 -39.5t-70 -104.5h-169q13 60 44.5 113t79 92t111 62t140.5 23q81 0 141 -25t100.5 -69.5t60.5 -105t20 -130.5q0 -85 -28 -159t-80 -129t-125.5 -86.5t-164.5 -31.5q-74 0 -131.5 21t-98 57.5
t-63.5 85.5t-27 105h173q4 -27 18.5 -49.5t36 -39t50.5 -25.5t62 -9q73 0 126 44t73 122h-266z" />
    <glyph glyph-name="uni04ED" unicode="&#x4ed;" horiz-adv-x="581" 
d="M466 537q-38 0 -61.5 25t-23.5 60q0 21 8.5 39.5t23 32.5t33 22t39.5 8q38 0 62 -25t24 -61q0 -21 -8.5 -39t-23 -32t-33.5 -22t-40 -8zM227 537q-38 0 -62.5 25t-24.5 60q0 21 8.5 39.5t23 32.5t33.5 22t40 8q38 0 62 -25t24 -61q0 -21 -8.5 -39t-22.5 -32t-33 -22
t-40 -8zM64 293q7 43 29.5 80t57.5 64t82.5 42.5t103.5 15.5q62 0 107 -18.5t74.5 -50t43.5 -73.5t14 -88q0 -53 -18 -103t-55 -89t-92 -62.5t-128 -23.5q-57 0 -101 14.5t-73.5 40.5t-44.5 61.5t-13 77.5h153q2 -34 25.5 -54t71.5 -20q53 0 81 24.5t36 67.5h-157l8 81h157
q1 43 -21.5 69t-74.5 26q-50 0 -77 -23t-37 -59h-152z" />
    <glyph glyph-name="uni04EE" unicode="&#x4ee;" horiz-adv-x="647" 
d="M611 794h-368l12 115h368zM302 0h-179l157 263l-202 437h189l120 -275l157 275h179z" />
    <glyph glyph-name="uni04EF" unicode="&#x4ef;" horiz-adv-x="615" 
d="M561 572h-368l12 115h368zM283 -234q-62 0 -108 17t-69 36q-22 18 -39.5 55t-11.5 89h153q-2 -39 20 -61.5t68 -22.5q40 0 67 21.5t33 77.5l11 99q-25 -39 -66.5 -60t-96.5 -21q-92 0 -133 58q-20 28 -23 63t2 86l29 279h152l-26 -247q-5 -52 10 -84.5t63 -32.5t74 33
t32 89l25 242h153l-52 -494q-7 -65 -28.5 -102t-55.5 -63q-35 -26 -81 -41.5t-102 -15.5z" />
    <glyph glyph-name="uni04F0" unicode="&#x4f0;" horiz-adv-x="647" 
d="M218 845q0 20 8.5 38t22.5 31.5t32.5 21.5t38.5 8q37 0 60.5 -24t23.5 -59q0 -20 -8 -38t-22 -31.5t-32.5 -21.5t-38.5 -8q-37 0 -61 24t-24 59zM459 845q0 20 8.5 38t22.5 31.5t32.5 21.5t38.5 8q37 0 60 -24t23 -59q0 -20 -8 -38t-22 -31.5t-32.5 -21.5t-39.5 -8
q-37 0 -60 24t-23 59zM302 0h-179l157 263l-202 437h189l120 -275l157 275h179z" />
    <glyph glyph-name="uni04F1" unicode="&#x4f1;" horiz-adv-x="615" 
d="M166 622q0 20 8 38t22 31.5t32.5 21.5t39.5 8q37 0 60 -24t23 -59q0 -20 -8 -38t-22 -31.5t-32.5 -21.5t-39.5 -8q-37 0 -60 24t-23 59zM407 622q0 20 8 38t22 31.5t32.5 21.5t38.5 8q37 0 60 -24t23 -59q0 -20 -8 -38t-22 -31.5t-32.5 -21.5t-38.5 -8q-37 0 -60 24
t-23 59zM283 -234q-62 0 -108 17t-69 36q-22 18 -39.5 55t-11.5 89h153q-2 -39 20 -61.5t68 -22.5q40 0 67 21.5t33 77.5l11 99q-25 -39 -66.5 -60t-96.5 -21q-92 0 -133 58q-20 28 -23 63t2 86l29 279h152l-26 -247q-5 -52 10 -84.5t63 -32.5t74 33t32 89l25 242h153
l-52 -494q-7 -65 -28.5 -102t-55.5 -63q-35 -26 -81 -41.5t-102 -15.5z" />
    <glyph glyph-name="uni04F2" unicode="&#x4f2;" horiz-adv-x="647" 
d="M395 978l100 -62l-185 -146l-59 28zM590 978l100 -62l-185 -146l-59 28zM302 0h-179l157 263l-202 437h189l120 -275l157 275h179z" />
    <glyph glyph-name="uni04F3" unicode="&#x4f3;" horiz-adv-x="615" 
d="M470 542l-59 28l143 179l100 -61zM275 542l-59 28l143 179l100 -61zM283 -234q-62 0 -108 17t-69 36q-22 18 -39.5 55t-11.5 89h153q-2 -39 20 -61.5t68 -22.5q40 0 67 21.5t33 77.5l11 99q-25 -39 -66.5 -60t-96.5 -21q-92 0 -133 58q-20 28 -23 63t2 86l29 279h152
l-26 -247q-5 -52 10 -84.5t63 -32.5t74 33t32 89l25 242h153l-52 -494q-7 -65 -28.5 -102t-55.5 -63q-35 -26 -81 -41.5t-102 -15.5z" />
    <glyph glyph-name="uni04F4" unicode="&#x4f4;" horiz-adv-x="629" 
d="M177 845q0 20 8.5 38t22.5 31.5t32.5 21.5t38.5 8q37 0 60 -24t23 -59q0 -20 -8 -38t-22 -31.5t-32.5 -21.5t-39.5 -8q-37 0 -60 24t-23 59zM417 844q0 21 8.5 39t22.5 31.5t32.5 21.5t39.5 8q37 0 59.5 -24t22.5 -59q0 -20 -8 -38t-22 -31.5t-32.5 -21.5t-39.5 -8
q-37 0 -60 24t-23 58zM401 0l22 202h-139q-53 0 -94.5 17.5t-69 48t-40 71.5t-7.5 88l29 273h162l-25 -235q-8 -69 22 -102.5t86 -33.5h89l39 371h161l-74 -700h-161z" />
    <glyph glyph-name="uni04F5" unicode="&#x4f5;" horiz-adv-x="536" 
d="M108 622q0 21 8.5 39.5t22.5 32.5t33 22t40 8q38 0 62 -25t24 -61q0 -21 -8.5 -39t-23 -32t-33.5 -22t-40 -8q-38 0 -61.5 25t-23.5 60zM342 622q0 21 8.5 39.5t22.5 32.5t33 22t40 8q38 0 62 -25t24 -61q0 -21 -8.5 -39t-23 -32t-33.5 -22t-40 -8q-38 0 -61.5 25
t-23.5 60zM322 0l14 132h-117q-82 0 -122.5 41.5t-32.5 124.5l19 184h149l-18 -170q-7 -68 63 -68h71l25 238h147l-51 -482h-147z" />
    <glyph glyph-name="uni04F8" unicode="&#x4f8;" horiz-adv-x="846" 
d="M316 844q0 20 8.5 38t22.5 31.5t32.5 21.5t38.5 8q37 0 60 -24t23 -59q0 -20 -8 -38t-22 -31.5t-32.5 -21.5t-38.5 -8q-37 0 -60.5 24t-23.5 59zM557 844q0 20 8 38t22 31.5t32.5 21.5t38.5 8q37 0 60.5 -24t23.5 -59q0 -20 -8.5 -38t-22.5 -31.5t-32.5 -21.5t-38.5 -8
q-37 0 -60 24t-23 59zM691 700h162l-74 -700h-162zM303 700l-30 -280h140q43 0 77 -15t58 -40.5t36.5 -60.5t12.5 -74q0 -46 -17 -88t-47 -73.5t-72 -50t-92 -18.5h-302l74 700h162zM260 297l-18 -173h98q42 0 68 28t26 67q0 32 -19 55t-57 23h-98z" />
    <glyph glyph-name="uni04F9" unicode="&#x4f9;" horiz-adv-x="753" 
d="M227 622q0 21 8.5 39.5t23 32.5t33.5 22t40 8q38 0 61.5 -25t23.5 -60q0 -21 -8.5 -39.5t-22.5 -32.5t-33 -22t-40 -8q-38 0 -62 25t-24 60zM468 622q0 21 8.5 39.5t22.5 32.5t33 22t40 8q38 0 62 -25t24 -61q0 -21 -8.5 -39t-23 -32t-33.5 -22t-40 -8q-38 0 -61.5 25
t-23.5 60zM116 482h143l-16 -151h114q43 0 72.5 -12t48 -32t27 -46.5t8.5 -55.5q0 -33 -10.5 -66t-33.5 -59.5t-59.5 -43t-87.5 -16.5h-257zM587 482h152l-51 -482h-152zM232 229l-14 -130h79q36 0 55.5 21.5t19.5 50.5q0 26 -15.5 42t-45.5 16h-79z" />
    <glyph glyph-name="Wgrave" unicode="&#x1e80;" horiz-adv-x="1035" 
d="M447 868l60 106l262 -128l-60 -106zM565 440l-186 -440h-133l-173 700h171l95 -459l190 459h125l95 -459l190 459h171l-321 -700h-132z" />
    <glyph glyph-name="wgrave" unicode="&#x1e81;" horiz-adv-x="803" 
d="M306 637l60 106l263 -128l-60 -106zM435 307l-132 -307h-124l-129 482h158l59 -287l115 287h141l55 -287l119 287h158l-231 -482h-124z" />
    <glyph glyph-name="Wacute" unicode="&#x1e82;" horiz-adv-x="1035" 
d="M482 740l-38 106l290 128l38 -106zM565 440l-186 -440h-133l-173 700h171l95 -459l190 459h125l95 -459l190 459h171l-321 -700h-132z" />
    <glyph glyph-name="wacute" unicode="&#x1e83;" horiz-adv-x="803" 
d="M342 509l-38 106l289 128l38 -106zM435 307l-132 -307h-124l-129 482h158l59 -287l115 287h141l55 -287l119 287h158l-231 -482h-124z" />
    <glyph glyph-name="Wdieresis" unicode="&#x1e84;" horiz-adv-x="1035" 
d="M396 856q0 20 8 38t22 31.5t32.5 21.5t38.5 8q37 0 60.5 -24t23.5 -59q0 -20 -8 -38t-22 -31.5t-32.5 -21.5t-39.5 -8q-38 0 -60.5 24t-22.5 59zM637 856q0 20 8 38t22 31.5t32.5 21.5t38.5 8q37 0 60 -24t23 -59q0 -20 -8 -38t-22 -31.5t-32.5 -21.5t-39.5 -8
q-37 0 -59.5 24t-22.5 59zM565 440l-186 -440h-133l-173 700h171l95 -459l190 459h125l95 -459l190 459h171l-321 -700h-132z" />
    <glyph glyph-name="wdieresis" unicode="&#x1e85;" horiz-adv-x="803" 
d="M255 622q0 20 8 38t22 31.5t32.5 21.5t38.5 8q37 0 60.5 -24t23.5 -59q0 -20 -8 -38t-22 -31.5t-32.5 -21.5t-39.5 -8q-38 0 -60.5 24t-22.5 59zM496 622q0 20 8 38t22 31.5t32.5 21.5t38.5 8q37 0 60 -24t23 -59q0 -20 -8 -38t-22 -31.5t-32.5 -21.5t-39.5 -8
q-37 0 -59.5 24t-22.5 59zM435 307l-132 -307h-124l-129 482h158l59 -287l115 287h141l55 -287l119 287h158l-231 -482h-124z" />
    <glyph glyph-name="Ygrave" unicode="&#x1ef2;" horiz-adv-x="641" 
d="M250 868l59 106l262 -128l-59 -106zM302 0h-179l157 263l-202 437h189l120 -275l157 275h179z" />
    <glyph glyph-name="ygrave" unicode="&#x1ef3;" horiz-adv-x="615" 
d="M212 637l59 106l262 -128l-59 -106zM283 -234q-62 0 -108 17t-69 36q-22 18 -39.5 55t-11.5 89h153q-2 -39 20 -61.5t68 -22.5q40 0 67 21.5t33 77.5l11 99q-25 -39 -66.5 -60t-96.5 -21q-92 0 -133 58q-20 28 -23 63t2 86l29 279h152l-26 -247q-5 -52 10 -84.5t63 -32.5
t74 33t32 89l25 242h153l-52 -494q-7 -65 -28.5 -102t-55.5 -63q-35 -26 -81 -41.5t-102 -15.5z" />
    <glyph glyph-name="thinspace" unicode="&#x2009;" horiz-adv-x="204" 
 />
    <glyph glyph-name="endash" unicode="&#x2013;" horiz-adv-x="503" 
d="M65 236l13 122h423l-13 -122h-423z" />
    <glyph glyph-name="emdash" unicode="&#x2014;" horiz-adv-x="1006" 
d="M70 236l13 122h916l-13 -122h-916z" />
    <glyph glyph-name="quoteleft" unicode="&#x2018;" horiz-adv-x="298" 
d="M307 524q0 -21 -8.5 -40t-23 -33.5t-34.5 -22.5t-44 -8q-42 0 -66.5 29t-24.5 93q0 94 56.5 146t162.5 52l-7 -60q-30 0 -51.5 -7t-35.5 -18q-16 -11 -24 -24.5t-12 -27.5q7 3 13 5t17 2q36 0 59 -24.5t23 -61.5z" />
    <glyph glyph-name="quoteright" unicode="&#x2019;" horiz-adv-x="298" 
d="M113 635q0 21 8.5 40.5t23 33.5t34.5 22.5t43 8.5q42 0 67 -29.5t25 -93.5q0 -96 -58 -146.5t-161 -50.5l6 59q31 0 52.5 7t36.5 18t23.5 25t11.5 28q-3 -2 -10 -4.5t-19 -2.5q-37 0 -60 24.5t-23 60.5z" />
    <glyph glyph-name="quotesinglbase" unicode="&#x201a;" horiz-adv-x="298" 
d="M53 67q0 21 8.5 40.5t23 33.5t34.5 22.5t43 8.5q42 0 67 -29.5t25 -93.5q0 -96 -58 -146.5t-161 -50.5l6 59q31 0 52.5 7t36.5 18q16 12 23.5 25.5t10.5 27.5q-2 -2 -9.5 -4.5t-18.5 -2.5q-37 0 -60 24.5t-23 60.5z" />
    <glyph glyph-name="quotedblleft" unicode="&#x201c;" horiz-adv-x="523" 
d="M307 524q0 -21 -8.5 -40t-23 -33.5t-34.5 -22.5t-44 -8q-42 0 -66.5 29t-24.5 93q0 94 56.5 146t162.5 52l-7 -60q-30 0 -51.5 -7t-35.5 -18q-16 -11 -24 -24.5t-12 -27.5q7 3 13 5t17 2q36 0 59 -24.5t23 -61.5zM532 524q0 -21 -8.5 -40t-23 -33.5t-34.5 -22.5t-44 -8
q-42 0 -66.5 29t-24.5 93q0 94 56 146t163 52l-7 -60q-30 0 -51.5 -7t-36.5 -18q-28 -21 -35 -52q2 2 9.5 4.5t20.5 2.5q35 0 58.5 -24.5t23.5 -61.5z" />
    <glyph glyph-name="quotedblright" unicode="&#x201d;" horiz-adv-x="523" 
d="M338 635q0 21 8.5 40t23 33.5t34.5 23t44 8.5q42 0 66.5 -29.5t24.5 -92.5q0 -93 -56 -145.5t-163 -52.5l6 59q29 0 50.5 6.5t37.5 18.5q15 11 23.5 25t12.5 28q-3 -2 -10.5 -4.5t-19.5 -2.5q-35 0 -58.5 24t-23.5 61zM113 635q0 21 8.5 40.5t23 33.5t34.5 22.5t43 8.5
q42 0 67 -29.5t25 -93.5q0 -96 -58 -146.5t-161 -50.5l6 59q31 0 52.5 7t36.5 18t23.5 25t11.5 28q-2 -2 -9.5 -4.5t-19.5 -2.5q-37 0 -60 24.5t-23 60.5z" />
    <glyph glyph-name="quotedblbase" unicode="&#x201e;" horiz-adv-x="523" 
d="M278 67q0 21 8.5 40t23 33.5t34.5 23t44 8.5q42 0 66.5 -29.5t24.5 -92.5q0 -93 -56 -145.5t-163 -52.5l6 59q30 0 52 7t36 18q15 11 23 25t12 28q-2 -2 -9.5 -4.5t-19.5 -2.5q-35 0 -58.5 24t-23.5 61zM53 67q0 21 8.5 40.5t23 33.5t34.5 22.5t43 8.5q42 0 67 -29.5
t25 -93.5q0 -96 -58 -146.5t-161 -50.5l6 59q31 0 52.5 7t36.5 18q16 12 23.5 25.5t10.5 27.5q-2 -2 -9.5 -4.5t-18.5 -2.5q-37 0 -60 24.5t-23 60.5z" />
    <glyph glyph-name="dagger" unicode="&#x2020;" horiz-adv-x="466" 
d="M152 -182l56 531h-116l12 112h116l27 256h124l-27 -256h115l-12 -112h-115l-56 -531h-124z" />
    <glyph glyph-name="daggerdbl" unicode="&#x2021;" horiz-adv-x="466" 
d="M370 717l-24 -235h115l-12 -110h-115l-28 -263h115l-11 -109h-115l-19 -182h-124l19 182h-116l11 109h116l28 263h-116l12 110h116l24 235h124z" />
    <glyph glyph-name="bullet" unicode="&#x2022;" horiz-adv-x="363" 
d="M79 300q0 30 12 56.5t32.5 46.5t47.5 31.5t57 11.5q27 0 49 -9.5t38.5 -26t25.5 -39t9 -47.5q0 -30 -12 -56t-32.5 -46t-47.5 -31.5t-57 -11.5q-27 0 -49.5 9.5t-38.5 26t-25 38.5t-9 47z" />
    </font>
</defs>
</svg>
