<svg xmlns="http://www.w3.org/2000/svg">
<defs>
<font id="3b1f128b24afff6a56d24af6f0197e24" horiz-adv-x='1024' >
  <font-face 
    font-family="GTWalsheimProThin-Oblique"
    font-weight="300"
    font-style="oblique"
    font-stretch="normal"
    units-per-em="1000"
    panose-1="2 0 5 3 3 0 0 9 0 3"
    ascent="750"
    descent="-250"
    x-height="431"
    cap-height="700"
    bbox="-135 -329 1172.9 976"
    underline-thickness="50"
    underline-position="-50"
    slope="-6"
    unicode-range="U+000D-FB04"
  />
<missing-glyph horiz-adv-x="800" 
d="M473 717q80 0 141 -27.5t102.5 -73t63 -105.5t21.5 -125q0 -77 -29 -150t-81.5 -129t-126 -90t-162.5 -34q-80 0 -141.5 27.5t-103 73t-63 105.5t-21.5 125q0 77 29 149.5t82 129t126.5 90.5t162.5 34zM473 695q-42 0 -79 -8t-67 -21t-59 -32t-55 -44
q-25 -24 -44.5 -52.5t-33.5 -57.5q-17 -35 -25.5 -66.5t-12.5 -63.5q-7 -66 11 -129q8 -32 22 -59.5t33 -50.5q20 -24 43.5 -43t54.5 -33q64 -29 140 -29t145 29q34 14 61 32.5t53 43.5q49 48 79 110q15 31 27 67.5t12 92.5q0 26 -3 51t-9 48q-8 29 -22 57t-34 53
q-40 48 -98 76q-63 29 -139 29zM192 228q12 -8 31 -20t42.5 -23.5t51 -19.5t56.5 -8q42 4 82 8q34 4 70 8t62 7q-18 -23 -41.5 -44.5t-61.5 -39.5q-30 -14 -60 -22t-53 -8q-47 0 -91.5 37.5t-87.5 124.5zM247 259l207 268l-136 -243h178l-2 -25h-247zM248 169q12 -21 29 -36
t36 -24t36.5 -13t31.5 -4q22 0 49 9t51 20t41.5 21t21.5 13q-35 -7 -78.5 -15t-87.5 -8q-15 0 -33.5 1.5t-36 5.5t-33.5 11.5t-27 18.5zM551 496q0 20 14 33.5t32 13.5q17 0 28 -11t11 -28q0 -19 -14 -33t-33 -14q-17 0 -27.5 11.5t-10.5 27.5zM254 496q0 20 14 33.5
t32 13.5q17 0 28 -11t11 -28q0 -19 -14 -33t-33 -14q-17 0 -27.5 11.5t-10.5 27.5zM617 161q4 9 4 18q0 7 -2 13q-2 5 -3 5q-2 2 -1.5 1.5t-1.5 0.5q-3 1 -2.5 1t-1.5 1l-13 5q-7 4 -15 8t-16 11q-11 9 -16 20l-2 11q-2 7 -2.5 8t0.5 6q-1 8 -1.5 15.5t0.5 15.5q2 5 2.5 10
t2.5 9l14 -5q0 -2 -1 -4.5t-1 -5.5l-1 -13q0 -7 -0.5 -14t1.5 -13q1 -2 1.5 -6t2.5 -6q2 -6 7.5 -12t9.5 -8q8 -5 15.5 -8t9.5 -5l14 -6q2 -1 3 -2l3 -3q6 -5 5.5 -5.5t1.5 -3.5q3 -9 3 -19q0 -13 -4 -24zM154 207q1 5 1.5 10t2.5 10q4 13 11 20q4 4 6 5t5 3l11 7

<glyph glyph-name="IJ" unicode="IJ" horiz-adv-x="756" 
d="M162 700h45l-74 -700h-45zM703 211q-6 -52 -26 -93.5t-51 -71t-72 -45t-89 -15.5t-88 16t-67.5 45.5t-40.5 71t-8 92.5h44q-5 -42 5.5 -76t33 -58t54.5 -37t71 -13q38 0 70.5 12.5t57.5 36.5t41 58t21 77l51 489h44z" />
    <glyph glyph-name="ij" unicode="ij" horiz-adv-x="439" 
d="M345 602q0 23 16.5 38.5t38.5 15.5q20 0 32 -13t12 -32q0 -23 -16 -38.5t-38 -15.5q-20 0 -32.5 13t-12.5 32zM123 602q0 23 16.5 38.5t38.5 15.5q20 0 32.5 -13t12.5 -32q0 -23 -16.5 -38.5t-38.5 -15.5q-20 0 -32.5 13t-12.5 32zM133 431h42l-45 -431h-42zM335 -148
q-14 -127 -118 -127q-14 0 -30.5 2.5t-29.5 9.5l5 40q25 -14 49 -14q37 0 57.5 23.5t25.5 67.5l61 577h41z" />
    <glyph glyph-name="uniFB00" unicode="ff" horiz-adv-x="645" 
d="M707 657q-13 5 -24 7.5t-28 2.5q-18 0 -35 -3.5t-31 -15.5t-24.5 -34.5t-14.5 -59.5l-13 -123h146l-4 -38h-146l-41 -393h-43l41 393h-103l4 38h103l13 120q6 52 21.5 83t36 47t43.5 20.5t43 4.5q22 0 35.5 -3t24.5 -8zM385 657q-13 5 -24.5 7.5t-28.5 2.5t-34 -3.5
t-31.5 -15.5t-25 -34.5t-14.5 -59.5l-13 -123h147l-4 -38h-147l-41 -393h-42l41 393h-103l4 38h103l13 120q6 52 21.5 83t36 47t43.5 20.5t43 4.5q22 0 35 -3t25 -8z" />
    <glyph glyph-name="fi" unicode="fi" horiz-adv-x="552" 
d="M385 657q-13 5 -24.5 7.5t-28.5 2.5t-34 -3.5t-31.5 -15.5t-25 -34.5t-14.5 -59.5l-13 -123h147l-4 -38h-147l-41 -393h-42l41 393h-103l4 38h103l13 120q6 52 21.5 83t36 47t43.5 20.5t43 4.5q22 0 35 -3t25 -8zM452 602q0 22 15.5 37t37.5 15q19 0 31.5 -12.5
t12.5 -31.5q0 -22 -16 -37t-38 -15q-19 0 -31 12.5t-12 31.5zM461 431h42l-45 -431h-42z" />
    <glyph glyph-name="fl" unicode="fl" horiz-adv-x="541" 
d="M483 700h43l-73 -700h-43zM385 657q-13 5 -24.5 7.5t-28.5 2.5t-34 -3.5t-31.5 -15.5t-25 -34.5t-14.5 -59.5l-13 -123h147l-4 -38h-147l-41 -393h-42l41 393h-103l4 38h103l13 120q6 52 21.5 83t36 47t43.5 20.5t43 4.5q22 0 35 -3t25 -8z" />
    <glyph glyph-name="uniFB03" unicode="ffi" horiz-adv-x="874" 
d="M707 657q-13 5 -24 7.5t-28 2.5q-18 0 -35 -3.5t-31 -15.5t-24.5 -34.5t-14.5 -59.5l-13 -123h146l-4 -38h-146l-41 -393h-43l41 393h-103l4 38h103l13 120q6 52 21.5 83t36 47t43.5 20.5t43 4.5q22 0 35.5 -3t24.5 -8zM385 657q-13 5 -24.5 7.5t-28.5 2.5t-34 -3.5
t-31.5 -15.5t-25 -34.5t-14.5 -59.5l-13 -123h147l-4 -38h-147l-41 -393h-42l41 393h-103l4 38h103l13 120q6 52 21.5 83t36 47t43.5 20.5t43 4.5q22 0 35 -3t25 -8zM774 602q0 23 16 38.5t38 15.5q20 0 32.5 -13t12.5 -32q0 -23 -17 -38.5t-38 -15.5q-20 0 -32 13t-12 32z
M783 431h42l-45 -431h-42z" />
    <glyph glyph-name="uniFB04" unicode="ffl" horiz-adv-x="862" 
d="M806 700h42l-73 -700h-42zM707 657q-13 5 -24 7.5t-28 2.5q-18 0 -35 -3.5t-31 -15.5t-24.5 -34.5t-14.5 -59.5l-13 -123h146l-4 -38h-146l-41 -393h-43l41 393h-103l4 38h103l13 120q6 52 21.5 83t36 47t43.5 20.5t43 4.5q22 0 35.5 -3t24.5 -8zM385 657
q-13 5 -24.5 7.5t-28.5 2.5t-34 -3.5t-31.5 -15.5t-25 -34.5t-14.5 -59.5l-13 -123h147l-4 -38h-147l-41 -393h-42l41 393h-103l4 38h103l13 120q6 52 21.5 83t36 47t43.5 20.5t43 4.5q22 0 35 -3t25 -8z" />
    <glyph glyph-name=".notdef" horiz-adv-x="800" 
d="M473 717q80 0 141 -27.5t102.5 -73t63 -105.5t21.5 -125q0 -77 -29 -150t-81.5 -129t-126 -90t-162.5 -34q-80 0 -141.5 27.5t-103 73t-63 105.5t-21.5 125q0 77 29 149.5t82 129t126.5 90.5t162.5 34zM473 695q-42 0 -79 -8t-67 -21t-59 -32t-55 -44
q-25 -24 -44.5 -52.5t-33.5 -57.5q-17 -35 -25.5 -66.5t-12.5 -63.5q-7 -66 11 -129q8 -32 22 -59.5t33 -50.5q20 -24 43.5 -43t54.5 -33q64 -29 140 -29t145 29q34 14 61 32.5t53 43.5q49 48 79 110q15 31 27 67.5t12 92.5q0 26 -3 51t-9 48q-8 29 -22 57t-34 53
q-40 48 -98 76q-63 29 -139 29zM192 228q12 -8 31 -20t42.5 -23.5t51 -19.5t56.5 -8q42 4 82 8q34 4 70 8t62 7q-18 -23 -41.5 -44.5t-61.5 -39.5q-30 -14 -60 -22t-53 -8q-47 0 -91.5 37.5t-87.5 124.5zM247 259l207 268l-136 -243h178l-2 -25h-247zM248 169q12 -21 29 -36
t36 -24t36.5 -13t31.5 -4q22 0 49 9t51 20t41.5 21t21.5 13q-35 -7 -78.5 -15t-87.5 -8q-15 0 -33.5 1.5t-36 5.5t-33.5 11.5t-27 18.5zM551 496q0 20 14 33.5t32 13.5q17 0 28 -11t11 -28q0 -19 -14 -33t-33 -14q-17 0 -27.5 11.5t-10.5 27.5zM254 496q0 20 14 33.5
t32 13.5q17 0 28 -11t11 -28q0 -19 -14 -33t-33 -14q-17 0 -27.5 11.5t-10.5 27.5zM617 161q4 9 4 18q0 7 -2 13q-2 5 -3 5q-2 2 -1.5 1.5t-1.5 0.5q-3 1 -2.5 1t-1.5 1l-13 5q-7 4 -15 8t-16 11q-11 9 -16 20l-2 11q-2 7 -2.5 8t0.5 6q-1 8 -1.5 15.5t0.5 15.5q2 5 2.5 10
t2.5 9l14 -5q0 -2 -1 -4.5t-1 -5.5l-1 -13q0 -7 -0.5 -14t1.5 -13q1 -2 1.5 -6t2.5 -6q2 -6 7.5 -12t9.5 -8q8 -5 15.5 -8t9.5 -5l14 -6q2 -1 3 -2l3 -3q6 -5 5.5 -5.5t1.5 -3.5q3 -9 3 -19q0 -13 -4 -24zM154 207q1 5 1.5 10t2.5 10q4 13 11 20q4 4 6 5t5 3l11 7
q4 2 11.5 5t13.5 5l1 1q5 2 10 8q5 5 5 16v12l-1 20l17 2q-1 -5 -0.5 -10t0.5 -10v-12q0 -8 -2.5 -16t-6.5 -13q-2 -5 -15 -11q-4 -2 -5 -2q-5 -2 -11 -4.5t-11 -5.5q-4 -1 -10 -5q-2 -1 -3 -2t-4 -3q-4 -7 -6 -13l-4 -17h-16zM600 196q1 1 -0.5 -7t-2.5 -8q-3 -1 -10 -1
q7 7 13 16z" />
    <glyph glyph-name=".null" horiz-adv-x="0" 
 />
    <glyph glyph-name=".null" horiz-adv-x="0" 
 />
    <glyph glyph-name="nonmarkingreturn" unicode="&#xd;" horiz-adv-x="250" 
 />
    <glyph glyph-name="space" unicode=" " horiz-adv-x="257" 
 />
    <glyph glyph-name="exclam" unicode="!" horiz-adv-x="270" 
d="M187 713h45l-55 -520h-45zM89 38q0 23 16.5 39t39.5 16q20 0 32.5 -13t12.5 -32q0 -23 -16.5 -39t-39.5 -16q-20 0 -32.5 13t-12.5 32z" />
    <glyph glyph-name="quotedbl" unicode="&#x22;" horiz-adv-x="284" 
d="M256 692l2 25h41l-2 -25l-30 -226h-28zM133 692l2 25h41l-2 -25l-31 -226h-27z" />
    <glyph glyph-name="numbersign" unicode="#" horiz-adv-x="551" 
d="M207 255h175l46 190h-175zM372 219h-174l-54 -219h-37l53 219h-107l4 36h113l46 190h-109l4 36h114l53 219h38l-54 -219h175l53 219h38l-54 -219h99l-4 -36h-104l-46 -190h100l-4 -36h-105l-54 -219h-37z" />
    <glyph glyph-name="dollar" unicode="$" horiz-adv-x="573" 
d="M396 713q92 -5 139.5 -58.5t40.5 -146.5h-44q5 75 -33 120t-126 45q-44 0 -78.5 -11.5t-58.5 -32t-37 -49t-13 -61.5q0 -36 14 -59.5t37.5 -39t54 -24.5t63.5 -17q40 -10 76.5 -22.5t64 -33t44 -51.5t16.5 -77q0 -90 -62 -146.5t-174 -61.5l-11 -100h-35l11 100
q-52 3 -92.5 20.5t-66.5 46.5t-38 69t-7 88h44q-4 -40 6 -74t34 -58.5t61 -38t86 -13.5q44 0 80.5 11t63 32t41.5 51t15 68t-14 62.5t-37.5 40t-52.5 25t-59 16.5q-41 10 -78 22t-66 31.5t-46 49t-17 76.5q0 42 14.5 77.5t42 62t68.5 42.5t94 19l11 100h35z" />
    <glyph glyph-name="percent" unicode="%" horiz-adv-x="847" 
d="M711 751l33 -20l-517 -753l-32 20zM219 306q-30 0 -52.5 10t-37.5 27.5t-22 40.5t-4 49l16 152q3 25 14.5 47t30 38.5t43.5 26t54 9.5t52 -10t38 -27.5t22 -40.5t4 -49l-16 -152q-3 -25 -14.5 -47t-30.5 -38.5t-44 -26t-53 -9.5zM340 579q4 38 -18.5 66t-64.5 28
q-41 0 -68 -26.5t-32 -67.5l-16 -146q-4 -38 17.5 -66t63.5 -28q41 0 69 26.5t33 67.5zM801 113q-3 -25 -14.5 -47t-30.5 -38.5t-44 -26t-53 -9.5q-30 0 -52.5 10t-37.5 27.5t-22 40.5t-4 49l16 152q3 25 14.5 47t30 38.5t43.5 26t54 9.5t52 -10t38 -27.5t22 -40.5t4 -49z
M581 119q-4 -38 17.5 -66t63.5 -28q41 0 69 26.5t33 67.5l16 146q4 38 -18.5 66t-64.5 28q-21 0 -38.5 -7.5t-30.5 -20.5t-21 -30t-10 -36z" />
    <glyph glyph-name="ampersand" unicode="&#x26;" horiz-adv-x="598" 
d="M387 275h220l-4 -41h-73q-6 -52 -24 -96.5t-49 -77.5t-74.5 -51.5t-101.5 -18.5q-47 0 -85.5 13t-66 36.5t-42.5 57t-15 74.5q0 70 43 122t123 69q-57 12 -88 50t-31 96q0 44 17.5 81t48.5 64t74 42t93 15q48 0 86 -14t63.5 -39.5t36.5 -60.5t7 -78h-44q7 68 -33 109.5
t-120 41.5q-41 0 -75 -11.5t-58 -32t-37.5 -49.5t-13.5 -64q0 -59 38.5 -94.5t113.5 -35.5h43l-5 -41h-44q-45 0 -81 -13t-61 -35.5t-38.5 -52.5t-13.5 -65q0 -64 43.5 -104t124.5 -40q50 0 86.5 16t60.5 43.5t37 64.5t18 79h-103z" />
    <glyph glyph-name="quotesingle" unicode="'" horiz-adv-x="161" 
d="M133 692l2 25h41l-2 -25l-31 -226h-27z" />
    <glyph glyph-name="parenleft" unicode="(" horiz-adv-x="323" 
d="M400 754q-41 0 -76 -15t-61.5 -40t-42.5 -59t-20 -71l-61 -581q-4 -37 5.5 -70.5t30 -58.5t52.5 -40t73 -15l-4 -41q-51 0 -90.5 18t-66 49t-38 72t-6.5 86l61 581q5 46 25.5 87t53 72t76 49t94.5 18z" />
    <glyph glyph-name="parenright" unicode=")" horiz-adv-x="323" 
d="M86 795q51 0 90.5 -18t66 -49t38 -72t6.5 -87l-61 -581q-5 -45 -25 -86t-52.5 -72t-76 -49t-94.5 -18l4 41q41 0 75.5 15t61 40t43 58.5t20.5 70.5l61 581q4 37 -5.5 71t-30.5 59t-52.5 40t-72.5 15z" />
    <glyph glyph-name="asterisk" unicode="*" horiz-adv-x="450" 
d="M140 386l121 138l-157 49l13 31l154 -58l13 171h34l-23 -171l164 58l7 -31l-166 -49l90 -138l-30 -20l-81 143l-113 -143z" />
    <glyph glyph-name="plus" unicode="+" 
d="M271 90l18 174h-173l4 40h173l19 176h43l-19 -176h173l-4 -40h-173l-18 -174h-43z" />
    <glyph glyph-name="comma" unicode="," horiz-adv-x="229" 
d="M58 39q0 22 16 38.5t42 16.5q29 0 45 -23t16 -64q0 -64 -35.5 -93.5t-92.5 -29.5l3 28q30 0 50 13.5t25 38.5q5 17 4 26.5t-3 14.5q-12 -10 -28 -10q-19 0 -30.5 13t-11.5 31z" />
    <glyph glyph-name="hyphen" unicode="-" horiz-adv-x="294" 
d="M292 265h-234l4 40h234z" />
    <glyph glyph-name="period" unicode="." horiz-adv-x="203" 
d="M57 40q0 23 16 38.5t38 15.5q20 0 32.5 -12.5t12.5 -32.5q0 -23 -16.5 -38t-38.5 -15q-20 0 -32 12.5t-12 31.5z" />
    <glyph glyph-name="slash" unicode="/" horiz-adv-x="402" 
d="M462 788l37 -17l-453 -845l-37 17z" />
    <glyph glyph-name="zero" unicode="0" horiz-adv-x="576" 
d="M114 487q5 46 25 87t52.5 72t76 49t95.5 18t92 -18.5t66.5 -49.5t38 -72t6.5 -86l-29 -275q-5 -45 -25 -86t-53 -72t-76.5 -49t-95.5 -18t-92 18.5t-66 49.5t-37.5 71.5t-6.5 85.5zM522 487q4 37 -5.5 71t-30.5 59t-53 40t-74 15t-77 -15t-61.5 -40t-42.5 -59t-20 -71
l-29 -275q-4 -36 5 -69.5t29.5 -59t52.5 -40.5t74 -15t77.5 15t62 40t43 58.5t20.5 70.5z" />
    <glyph glyph-name="one" unicode="1" horiz-adv-x="303" 
d="M95 584q45 0 72.5 6.5t44 20t24 35.5t10.5 54h42l-73 -700h-45l57 546h-136z" />
    <glyph glyph-name="two" unicode="2" horiz-adv-x="526" 
d="M48 0q10 88 29 144t49.5 92t73.5 59t101 45q34 13 68 27t61 35t43.5 51.5t16.5 74.5q0 66 -38.5 103.5t-111.5 37.5q-42 0 -76.5 -13t-60 -36.5t-41 -56.5t-19.5 -72h-44q5 48 25.5 88.5t52.5 69.5t75.5 45t94.5 16q90 0 138.5 -47.5t48.5 -128.5q0 -53 -19.5 -90.5
t-50 -64t-69 -44t-77.5 -30.5q-57 -20 -95.5 -43t-64 -53.5t-39 -71.5t-19.5 -96h388l-4 -41h-436v0z" />
    <glyph glyph-name="three" unicode="3" horiz-adv-x="538" 
d="M97 195q-4 -37 6 -67t32 -51.5t54.5 -33.5t73.5 -12q43 0 79.5 13t62 36t40 54t14.5 68q0 62 -41.5 100.5t-119.5 38.5h-56l5 41h56q42 0 75.5 12t56.5 32.5t35.5 49t12.5 61.5q0 62 -41.5 97t-113.5 35q-80 0 -128.5 -41.5t-55.5 -109.5h-44q4 43 23 78t49.5 60.5
t70.5 39.5t88 14q45 0 81 -12t61.5 -34t39.5 -53.5t14 -69.5q0 -33 -10.5 -62.5t-30 -53.5t-48.5 -40.5t-65 -22.5q62 -12 96 -54t34 -105q0 -46 -18.5 -85t-51.5 -67.5t-78 -44.5t-98 -16q-50 0 -90 14.5t-67 41.5t-39.5 64.5t-7.5 84.5h44z" />
    <glyph glyph-name="four" unicode="4" horiz-adv-x="539" 
d="M371 255h-272l47 445h44l-43 -404h228l24 227h44l-24 -227h123l-4 -41h-123l-27 -255h-44z" />
    <glyph glyph-name="five" unicode="5" horiz-adv-x="582" 
d="M164 700h387l-5 -41h-346l-33 -314q28 45 78 68.5t107 23.5q46 0 82.5 -15.5t62 -42.5t39 -63.5t13.5 -78.5q0 -49 -18.5 -94t-52 -79t-79.5 -54t-101 -20q-52 0 -92 18t-66.5 49t-38 72t-6.5 86h44q-4 -37 5 -70.5t30 -58.5t53 -40t74 -15q45 0 82.5 16.5t64.5 44.5
t42 64.5t15 76.5q0 34 -11.5 64t-33 52t-52.5 34.5t-70 12.5q-54 0 -97.5 -24.5t-70.5 -73.5h-49z" />
    <glyph glyph-name="six" unicode="6" horiz-adv-x="529" 
d="M263 -10q-48 0 -86.5 16t-64.5 44t-40 65t-14 78q0 44 14 81t36 67l261 359h51l-215 -293q20 18 48.5 26t58.5 8q46 0 83 -16.5t63.5 -44t40.5 -65t14 -79.5q0 -49 -18.5 -93.5t-52 -78.5t-79.5 -54t-100 -20zM267 31q44 0 81 16.5t63.5 44.5t41.5 64.5t15 76.5
q0 34 -11 64.5t-32 53t-52 36t-70 13.5q-44 0 -81 -16.5t-63.5 -44.5t-41.5 -64.5t-15 -76.5q0 -34 11 -64.5t32 -53t52 -36t70 -13.5z" />
    <glyph glyph-name="seven" unicode="7" horiz-adv-x="442" 
d="M521 700l-411 -700h-47l387 659h-343l5 41h409z" />
    <glyph glyph-name="eight" unicode="8" horiz-adv-x="561" 
d="M281 -10q-50 0 -88.5 13.5t-65 37t-40.5 56.5t-14 72q0 34 11 66t32 57.5t51.5 43.5t70.5 26q-60 12 -89 52t-29 94q0 42 17 79t47.5 64.5t73.5 43t95 15.5q47 0 83.5 -12.5t62 -35t39 -54t13.5 -68.5q0 -32 -10 -60.5t-29 -52.5t-47 -41t-65 -24q63 -12 94.5 -55.5
t31.5 -102.5q0 -45 -17.5 -84t-50 -68t-77.5 -45.5t-100 -16.5zM320 379q42 0 76.5 12t59 33t37.5 49.5t13 61.5q0 60 -41 97t-115 37q-41 0 -75 -12t-58 -33.5t-37.5 -51t-13.5 -63.5q0 -58 39.5 -94t114.5 -36zM284 31q44 0 80.5 13t62.5 35.5t40.5 53.5t14.5 67
q0 62 -43 101.5t-124 39.5q-46 0 -82.5 -13t-62 -35.5t-39.5 -53.5t-14 -66q0 -63 44 -102.5t123 -39.5z" />
    <glyph glyph-name="nine" unicode="9" horiz-adv-x="529" 
d="M340 710q49 0 87 -16.5t64 -44t40 -64.5t14 -79t-13.5 -78.5t-37.5 -68.5l-261 -359h-51l216 293q-17 -17 -44.5 -25.5t-59.5 -8.5q-46 0 -83.5 16t-64.5 43.5t-41.5 64.5t-14.5 80q0 49 19 94t52 79t79 54t100 20zM336 669q-44 0 -81 -16.5t-64 -44.5t-42 -64.5
t-15 -76.5q0 -34 11 -64.5t32.5 -53t52.5 -36t70 -13.5q44 0 81 16.5t63.5 44.5t41.5 64.5t15 76.5q0 34 -11 64t-32 53t-51.5 36.5t-70.5 13.5z" />
    <glyph glyph-name="colon" unicode=":" horiz-adv-x="203" 
d="M94 385q0 23 15.5 38t37.5 15q20 0 32.5 -12.5t12.5 -32.5q0 -23 -16 -38t-38 -15q-20 0 -32 12.5t-12 32.5zM57 40q0 23 16 38.5t38 15.5q20 0 32.5 -13t12.5 -32q0 -23 -17 -38.5t-38 -15.5q-20 0 -32 13t-12 32z" />
    <glyph glyph-name="semicolon" unicode=";" horiz-adv-x="206" 
d="M94 385q0 23 16 38.5t38 15.5q20 0 32 -13t12 -32q0 -23 -16 -38t-38 -15q-20 0 -32 12.5t-12 31.5zM58 39q0 22 16 38.5t42 16.5q29 0 45 -23t16 -64q0 -64 -35.5 -93.5t-92.5 -29.5l3 28q30 0 50 13.5t25 38.5q5 17 4 26.5t-3 14.5q-12 -10 -28 -10q-19 0 -30.5 13
t-11.5 31z" />
    <glyph glyph-name="less" unicode="&#x3c;" 
d="M56 267l4 34l527 190l-5 -43l-462 -164l427 -165l-4 -43z" />
    <glyph glyph-name="equal" unicode="=" 
d="M118 350l4 40h404l-4 -40h-404zM100 177l4 40h404l-4 -40h-404z" />
    <glyph glyph-name="greater" unicode="&#x3e;" 
d="M38 76l5 43l462 165l-428 164l5 43l487 -190l-4 -34z" />
    <glyph glyph-name="question" unicode="?" horiz-adv-x="489" 
d="M219 188q4 39 13.5 67.5t25.5 50.5t37.5 38t48.5 31q12 6 32 18t39.5 31.5t34 48t14.5 69.5q0 63 -38 96.5t-107 33.5q-44 0 -79.5 -13.5t-61 -37t-41.5 -56t-20 -71.5h-44q5 48 25 88t52.5 69t76 45.5t96.5 16.5q88 0 136.5 -44.5t48.5 -123.5q0 -46 -15 -79
t-36.5 -55.5t-44 -37t-37.5 -22.5q-24 -14 -44 -27t-34 -31t-23.5 -43t-12.5 -62h-42zM174 39q0 23 16.5 38.5t39.5 15.5q20 0 33 -13t13 -33q0 -23 -17 -38.5t-40 -15.5q-20 0 -32.5 13t-12.5 33z" />
    <glyph glyph-name="at" unicode="@" horiz-adv-x="902" 
d="M611 111q-24 -48 -72 -79t-111 -31q-43 0 -77 15t-58 40.5t-36.5 59t-12.5 71.5q0 45 17 85.5t47 71.5t71.5 49.5t90.5 18.5q63 0 104.5 -30t56.5 -81l11 102h37l-34 -325q-5 -51 14 -75.5t54 -24.5q40 0 65.5 30t40 73.5t20 92t5.5 85.5q0 83 -22 143.5t-62.5 99.5
t-99.5 57.5t-132 18.5q-102 0 -182.5 -32.5t-136 -88t-84.5 -128.5t-29 -153q0 -67 21.5 -128.5t66.5 -108t114 -74t164 -27.5q26 0 57.5 2.5t66.5 9.5t72 19.5t73 31.5l13 -30q-39 -21 -78 -34t-76.5 -21t-71.5 -11t-63 -3q-102 0 -176.5 30.5t-123.5 81.5t-73 118.5
t-24 141.5q0 87 32 166.5t92.5 140.5t149 97t202.5 36q81 0 145.5 -20.5t109.5 -64t69 -111.5t24 -163q0 -43 -6.5 -97t-25.5 -102t-53.5 -81t-90.5 -33q-55 0 -78.5 32.5t-21.5 84.5zM434 35q41 0 75.5 15.5t59.5 41t39 59.5t14 71q0 32 -10.5 60t-30 49t-48.5 33.5
t-65 12.5q-41 0 -75 -15t-58.5 -41t-38.5 -60t-14 -71q0 -32 10 -60t29.5 -49t48 -33.5t64.5 -12.5z" />
    <glyph glyph-name="A" unicode="A" horiz-adv-x="534" 
d="M334 634l-198 -449h299zM479 0l-34 144h-327l-64 -144h-46l315 700h36l166 -700h-46z" />
    <glyph glyph-name="B" unicode="B" horiz-adv-x="576" 
d="M162 700h239q42 0 74 -14t53.5 -37t32 -53t10.5 -61q0 -34 -11.5 -65t-31.5 -55t-46.5 -40.5t-56.5 -22.5q24 -4 45 -17.5t36.5 -33.5t24.5 -45.5t9 -54.5q0 -37 -15 -73t-42.5 -64.5t-67 -46t-88.5 -17.5h-239zM370 372q35 0 64 13.5t49.5 35.5t32 50t11.5 58
q0 25 -9 48.5t-25.5 41.5t-41 29t-55.5 11h-195l-30 -287h199zM167 331l-31 -290h196q36 0 66 13t52 34.5t34 50t12 59.5q0 25 -9 49t-25.5 43t-40 30t-53.5 11h-201z" />
    <glyph glyph-name="C" unicode="C" horiz-adv-x="774" 
d="M752 197q-21 -45 -54.5 -84t-78 -67t-98 -44t-113.5 -16q-78 0 -139 26.5t-103 71.5t-64 105t-22 128q0 76 28 147.5t79.5 127t125 89t165.5 33.5q66 0 119 -17.5t91.5 -49.5t62 -76t30.5 -97h-46q-7 43 -27 80t-53 63t-78 41t-101 15q-81 0 -146 -29.5t-110.5 -79
t-70 -113t-24.5 -131.5q0 -60 19.5 -113t56 -93t90 -63.5t122.5 -23.5q50 0 95 13t82.5 35.5t66 53.5t46.5 68h49z" />
    <glyph glyph-name="D" unicode="D" horiz-adv-x="690" 
d="M355 700q81 0 142 -27t102.5 -71t62.5 -101.5t21 -118.5q0 -71 -28 -139.5t-80 -122.5t-126.5 -87t-167.5 -33h-193l74 700h193zM201 659l-65 -618h149q81 0 146.5 29t111.5 76.5t71 108t25 123.5q0 54 -18.5 104.5t-55 89.5t-90.5 63t-125 24h-149z" />
    <glyph glyph-name="E" unicode="E" horiz-adv-x="541" 
d="M201 659l-30 -291h326l-5 -41h-326l-30 -286h326l-4 -41h-370l74 700h370l-5 -41h-326z" />
    <glyph glyph-name="F" unicode="F" horiz-adv-x="538" 
d="M201 659l-32 -305h326l-4 -41h-326l-33 -313h-44l74 700h370l-5 -41h-326z" />
    <glyph glyph-name="G" unicode="G" horiz-adv-x="831" 
d="M485 310h346l-4 -41h-72q-13 -63 -42.5 -115t-74 -89.5t-103 -58t-129.5 -20.5q-83 0 -144 27t-102 72t-61 103.5t-20 122.5q0 78 28.5 150.5t80.5 129t124.5 90t161.5 33.5q55 0 101 -13.5t80.5 -37.5t56.5 -57.5t30 -72.5h-45q-8 29 -27 54.5t-48 44.5t-68 30t-85 11
q-78 0 -141.5 -30t-108.5 -79.5t-70 -114.5t-25 -134q0 -57 17.5 -109t53.5 -92t90 -63.5t126 -23.5q61 0 111 17.5t88 49.5t63 76.5t36 98.5h-228z" />
    <glyph glyph-name="H" unicode="H" horiz-adv-x="661" 
d="M563 327h-397l-34 -327h-44l74 700h44l-35 -332h397l35 332h44l-74 -700h-44z" />
    <glyph glyph-name="I" unicode="I" horiz-adv-x="221" 
d="M162 700h45l-74 -700h-45z" />
    <glyph glyph-name="J" unicode="J" horiz-adv-x="535" 
d="M483 211q-6 -52 -26 -93.5t-51.5 -71t-72.5 -45t-89 -15.5t-88 16t-67.5 45.5t-40.5 71t-7 92.5h44q-5 -42 5.5 -76t32.5 -58t54 -37t71 -13q38 0 71 12.5t58 36.5t41 58t21 77l51 489h44z" />
    <glyph glyph-name="K" unicode="K" horiz-adv-x="556" 
d="M168 339l-36 -339h-44l74 700h44l-36 -339l396 339h59l-407 -350l333 -350h-59z" />
    <glyph glyph-name="L" unicode="L" horiz-adv-x="418" 
d="M389 41l-4 -41h-297l74 700h44l-70 -659h253z" />
    <glyph glyph-name="M" unicode="M" horiz-adv-x="809" 
d="M721 0h-44l63 598l-317 -598h-38l-190 598l-63 -598h-44l74 700h43l206 -637l340 637h44z" />
    <glyph glyph-name="N" unicode="N" horiz-adv-x="660" 
d="M536 74l66 626h44l-74 -700h-49l-325 626l-66 -626h-44l74 700h50z" />
    <glyph glyph-name="O" unicode="O" horiz-adv-x="809" 
d="M406 -14q-79 0 -140 27t-102 72.5t-62.5 105t-21.5 124.5q0 76 29 148t81 128t125 89.5t162 33.5q79 0 139.5 -27t102 -72.5t62.5 -105t21 -124.5q0 -77 -28.5 -148.5t-81 -127.5t-125.5 -89.5t-161 -33.5zM410 27q77 0 141 30t109.5 79.5t71 113.5t25.5 132
q0 57 -18.5 109.5t-54.5 93t-89.5 64.5t-122.5 24q-77 0 -141 -30t-109.5 -79.5t-70.5 -113.5t-25 -132q0 -57 18.5 -109.5t54.5 -93t89 -64.5t122 -24z" />
    <glyph glyph-name="P" unicode="P" horiz-adv-x="595" 
d="M162 700h235q48 0 86.5 -16t64.5 -44t40 -65t14 -79q0 -49 -18.5 -93.5t-52 -78.5t-80 -54t-102.5 -20h-191l-26 -250h-44zM354 291q45 0 82.5 16.5t64.5 44t42 64t15 76.5q0 34 -11.5 64.5t-32.5 53.5t-52 36t-70 13h-191l-38 -368h191z" />
    <glyph glyph-name="Q" unicode="Q" horiz-adv-x="809" 
d="M802 382q0 -78 -27.5 -145.5t-74.5 -119t-111.5 -84.5t-137.5 -41l56 -92l-41 -20l-64 106q-78 0 -138 27.5t-101 72.5t-62 104.5t-21 124.5q0 76 29 148t81.5 128t125.5 89.5t162 33.5q78 0 138.5 -26.5t102 -72t62.5 -106t21 -127.5zM410 27q77 0 141 30t109.5 79.5
t71 113.5t25.5 132q0 57 -18.5 109.5t-54.5 93t-89.5 64.5t-122.5 24q-77 0 -141 -30t-109.5 -79.5t-70.5 -113.5t-25 -132q0 -57 18.5 -109.5t54.5 -93t89 -64.5t122 -24z" />
    <glyph glyph-name="R" unicode="R" horiz-adv-x="599" 
d="M354 291q45 0 82.5 16.5t64.5 44t42 64t15 76.5q0 34 -11.5 64.5t-32.5 53.5t-52 36t-70 13h-191l-38 -368h191zM162 700h235q48 0 86.5 -16t64.5 -44t40 -65t14 -79q0 -43 -14 -82t-40 -71t-62 -54.5t-79 -32.5l138 -256h-52l-134 250h-201l-26 -250h-44z" />
    <glyph glyph-name="S" unicode="S" horiz-adv-x="573" 
d="M115 211q-4 -40 6 -74t34 -58.5t61 -38t86 -13.5q44 0 80.5 11t63 32t41 51t14.5 68q0 37 -14 61.5t-36.5 40.5t-51.5 25t-60 17q-40 10 -77.5 22t-66 31.5t-46 49t-17.5 76.5q0 44 16 81t46.5 64t74 42t98.5 15q106 0 156 -55.5t42 -150.5h-44q5 76 -33 120.5t-126 44.5
q-44 0 -78.5 -11.5t-58.5 -32t-36.5 -49t-12.5 -61.5q0 -36 14 -59.5t37 -38.5t54 -24.5t64 -17.5q40 -10 76 -22.5t64 -33t44.5 -51.5t16.5 -77q0 -50 -19 -88.5t-52.5 -65.5t-79.5 -41t-99 -14q-59 0 -103.5 16.5t-73 46.5t-41 71t-7.5 91h44z" />
    <glyph glyph-name="T" unicode="T" horiz-adv-x="469" 
d="M281 659h-196l4 41h437l-4 -41h-197l-69 -659h-44z" />
    <glyph glyph-name="U" unicode="U" horiz-adv-x="606" 
d="M148 700h44l-51 -488q-4 -38 5.5 -71.5t30.5 -58.5t53.5 -40t74.5 -15t77.5 15t62.5 40t43.5 58.5t20.5 71.5l51 488h44l-51 -488q-5 -46 -25.5 -87t-53.5 -72t-77 -49t-96 -18q-53 0 -93 18.5t-66.5 49.5t-38 72t-6.5 86z" />
    <glyph glyph-name="V" unicode="V" horiz-adv-x="550" 
d="M294 0h-37l-177 700h47l155 -633l290 633h46z" />
    <glyph glyph-name="W" unicode="W" horiz-adv-x="926" 
d="M529 628l-251 -628h-37l-161 700h47l140 -629l252 629h37l120 -629l271 629h47l-309 -700h-36z" />
    <glyph glyph-name="X" unicode="X" horiz-adv-x="520" 
d="M532 700h50l-260 -350l186 -350h-50l-165 311l-231 -311h-50l260 350l-186 350h50l165 -312z" />
    <glyph glyph-name="Y" unicode="Y" horiz-adv-x="548" 
d="M183 0h-49l172 275l-225 425h52l201 -380l237 380h48z" />
    <glyph glyph-name="Z" unicode="Z" horiz-adv-x="540" 
d="M112 700h495l-510 -659h455l-4 -41h-531l509 659h-419z" />
    <glyph glyph-name="bracketleft" unicode="[" horiz-adv-x="295" 
d="M63 -234l108 1029h187l-4 -40h-145l-100 -950h145l-4 -39h-187z" />
    <glyph glyph-name="backslash" unicode="\" horiz-adv-x="402" 
d="M383 -57l-41 -17l-275 845l41 17z" />
    <glyph glyph-name="bracketright" unicode="]" horiz-adv-x="295" 
d="M-5 -234l4 39h145l100 950h-145l4 40h187l-108 -1029h-187z" />
    <glyph glyph-name="asciicircum" unicode="^" horiz-adv-x="618" 
d="M544 323l-163 375l-240 -375h-47l276 427h34l188 -427h-48z" />
    <glyph glyph-name="underscore" unicode="_" horiz-adv-x="560" 
d="M21 -84l4 34h500l-4 -34h-500z" />
    <glyph glyph-name="grave" unicode="`" horiz-adv-x="339" 
d="M102 688l24 35l234 -137l-23 -35z" />
    <glyph glyph-name="a" unicode="a" horiz-adv-x="586" 
d="M275 30q44 0 81.5 16.5t64.5 44.5t42.5 64.5t15.5 77.5q0 34 -11.5 65t-33 53.5t-52.5 36t-70 13.5q-44 0 -81.5 -16.5t-64.5 -44.5t-42 -65t-15 -78q0 -34 11 -64.5t32.5 -53t52.5 -36t70 -13.5zM543 431l-45 -431h-43l11 109q-27 -53 -79 -86t-120 -33q-47 0 -84 16.5
t-63 44t-40 64.5t-14 79q0 49 18.5 94t51.5 79t78.5 54t98.5 20q69 0 114 -33t61 -87l12 110h43z" />
    <glyph glyph-name="b" unicode="b" horiz-adv-x="586" 
d="M130 0h-42l74 700h42l-40 -379q27 54 79.5 87t120.5 33q46 0 83.5 -16.5t63 -44t39.5 -65t14 -79.5q0 -49 -18.5 -93.5t-51.5 -78.5t-78 -54t-98 -20q-69 0 -114.5 33t-62.5 86zM319 30q44 0 81.5 16.5t64.5 44.5t42 64.5t15 77.5q0 34 -11 65t-32.5 53.5t-52.5 36
t-70 13.5q-44 0 -81.5 -16.5t-65 -44.5t-43 -65t-15.5 -77q0 -35 11.5 -65.5t33 -53t52.5 -36t71 -13.5z" />
    <glyph glyph-name="c" unicode="c" horiz-adv-x="519" 
d="M451 274q0 25 -8 48t-25 41t-43.5 28.5t-64.5 10.5q-48 0 -85 -17.5t-61.5 -46.5t-37.5 -66t-13 -77q0 -33 9 -63t28.5 -52.5t50 -36t72.5 -13.5q69 0 110.5 34t55.5 84h43q-17 -69 -72.5 -113.5t-141.5 -44.5q-51 0 -88.5 16.5t-61.5 44.5t-35.5 64.5t-11.5 76.5
q0 48 16 92.5t47 79.5t76.5 56t104.5 21q48 0 82 -14t55.5 -37.5t31.5 -53.5t10 -62h-43z" />
    <glyph glyph-name="d" unicode="d" horiz-adv-x="586" 
d="M275 30q44 0 81.5 16.5t64.5 44.5t42.5 64.5t15.5 77.5q0 34 -11.5 65t-33 53.5t-52.5 36t-70 13.5q-44 0 -81.5 -16.5t-64.5 -44.5t-42 -65t-15 -78q0 -34 11 -64.5t32.5 -53t52.5 -36t70 -13.5zM466 109q-27 -53 -79 -86t-120 -33q-47 0 -84 16.5t-63 44t-40 64.5
t-14 79q0 49 18.5 94t51.5 79t78.5 54t98.5 20q69 0 114 -33t61 -87l40 379h43l-73 -700h-43z" />
    <glyph glyph-name="e" unicode="e" horiz-adv-x="513" 
d="M114 211q-3 -36 4 -69.5t25 -58.5t48.5 -40t73.5 -15q62 0 101.5 27.5t56.5 65.5h44q-20 -56 -74 -93.5t-131 -37.5q-49 0 -85 16t-59.5 44t-35 64.5t-11.5 78.5q0 51 16.5 96.5t47 79t73 53t93.5 19.5q43 0 77.5 -13.5t58.5 -37.5t37 -57t13 -72q0 -16 -2 -27t-5 -23
h-366zM300 406q-35 0 -65 -11.5t-54 -32t-40 -50t-22 -65.5h325q3 36 -6 65t-28 50t-47 32.5t-63 11.5z" />
    <glyph glyph-name="f" unicode="f" horiz-adv-x="322" 
d="M385 657q-13 5 -24.5 7.5t-28.5 2.5t-34 -3.5t-31.5 -15.5t-25 -34.5t-14.5 -59.5l-13 -123h147l-4 -38h-147l-41 -393h-42l41 393h-103l4 38h103l13 120q6 52 21.5 83t36 47t43.5 20.5t43 4.5q22 0 35 -3t25 -8z" />
    <glyph glyph-name="g" unicode="g" horiz-adv-x="585" 
d="M312 401q-44 0 -81.5 -16.5t-64.5 -44.5t-42 -65t-15 -77q0 -35 11 -65.5t32.5 -53t52.5 -36t70 -13.5q44 0 81.5 16.5t64.5 44.5t42.5 64.5t15.5 77.5q0 34 -11.5 65t-33 53.5t-52.5 36t-70 13.5zM494 -40q-7 -66 -28 -111.5t-53 -74t-75 -41t-93 -12.5q-61 0 -101 16.5
t-63 45t-31.5 66.5t-6.5 82h42q-2 -33 4.5 -64t24.5 -54.5t50.5 -37.5t83.5 -14q87 0 139.5 47t63.5 152l16 150q-28 -54 -80 -87t-120 -33q-47 0 -84 16.5t-63 44.5t-40 65t-14 79q0 49 19 93.5t52 78.5t78 54t98 20q69 0 114 -33t62 -87l11 110h44z" />
    <glyph glyph-name="h" unicode="h" horiz-adv-x="558" 
d="M162 700h42l-40 -381q11 24 28.5 46t41.5 39t54.5 27t66.5 10q81 0 122 -52q19 -24 26 -57.5t2 -80.5l-26 -251h-42l25 240q4 34 -1.5 63.5t-20.5 51t-40 34t-61 12.5q-42 0 -75.5 -16.5t-56.5 -43t-37 -59t-17 -63.5l-23 -219h-42z" />
    <glyph glyph-name="i" unicode="i" horiz-adv-x="218" 
d="M123 602q0 23 16.5 38.5t38.5 15.5q20 0 32.5 -13t12.5 -32q0 -23 -16.5 -38.5t-38.5 -15.5q-20 0 -32.5 13t-12.5 32zM133 431h42l-45 -431h-42z" />
    <glyph glyph-name="j" unicode="j" horiz-adv-x="218" 
d="M124 602q0 23 16 38.5t39 15.5q20 0 32 -13t12 -32q0 -23 -16 -38.5t-39 -15.5q-20 0 -32 13t-12 32zM114 -148q-7 -63 -38 -95t-82 -32q-17 0 -32.5 3.5t-25.5 8.5l4 41q27 -13 50 -13q38 0 58 24.5t25 66.5l60 575h42z" />
    <glyph glyph-name="k" unicode="k" horiz-adv-x="432" 
d="M206 215l210 -215h-59l-205 208l-22 -208h-42l74 700h42l-51 -478l249 209h59z" />
    <glyph glyph-name="l" unicode="l" horiz-adv-x="218" 
d="M162 700h42l-74 -700h-42z" />
    <glyph glyph-name="m" unicode="m" horiz-adv-x="799" 
d="M677 0l27 260q4 39 -2.5 66t-20 43.5t-33.5 24t-43 7.5q-35 0 -62.5 -15t-47 -40.5t-31.5 -58.5t-16 -69l-23 -218h-42l26 243q5 49 -2.5 80t-22.5 48.5t-34.5 23.5t-38.5 6q-35 0 -62.5 -15t-47.5 -40.5t-32 -58.5t-16 -69l-23 -218h-42l45 431h42l-12 -113
q7 22 21 44.5t34 39.5t46.5 28t59.5 11q54 0 89 -31t37 -94q8 24 23 46.5t36 40t48.5 28t61.5 10.5q29 0 54.5 -9t43.5 -29.5t26.5 -53t3.5 -78.5l-28 -271h-42z" />
    <glyph glyph-name="n" unicode="n" horiz-adv-x="558" 
d="M133 431h42l-11 -112q11 24 28.5 46t41.5 39t54.5 27t66.5 10q81 0 122 -52q19 -24 26 -57.5t2 -80.5l-26 -251h-42l25 240q4 34 -1.5 63.5t-20.5 51t-40 34t-61 12.5q-42 0 -75.5 -16.5t-56.5 -43t-37 -59t-17 -63.5l-23 -219h-42z" />
    <glyph glyph-name="o" unicode="o" horiz-adv-x="543" 
d="M272 -10q-49 0 -87 16t-64.5 44t-40.5 65t-14 79q0 49 18.5 94t51.5 79t79 54t100 20q49 0 87.5 -16.5t65 -44t40.5 -65t14 -79.5q0 -49 -18.5 -93.5t-52 -78.5t-79.5 -54t-100 -20zM275 30q44 0 81.5 16.5t64.5 44.5t42.5 64.5t15.5 77.5q0 34 -11.5 65t-33 53.5
t-52.5 36t-70 13.5q-44 0 -81.5 -16.5t-64.5 -44.5t-42 -65t-15 -78q0 -34 11 -64.5t32.5 -53t52.5 -36t70 -13.5z" />
    <glyph glyph-name="p" unicode="p" horiz-adv-x="586" 
d="M355 401q-44 0 -81.5 -16.5t-64.5 -44.5t-42 -65t-15 -77q0 -35 11 -65.5t32.5 -53t52.5 -36t71 -13.5q44 0 81.5 16.5t64.5 44.5t42 64.5t15 77.5q0 34 -11 64.5t-32.5 53.5t-52.5 36.5t-71 13.5zM164 321q27 54 80 87t121 33q46 0 83 -16.5t63 -44t39.5 -64.5t13.5 -79
q0 -49 -18.5 -94t-51.5 -79t-78 -54t-98 -20q-69 0 -114.5 33t-61.5 87l-40 -379h-42l74 700h42z" />
    <glyph glyph-name="q" unicode="q" horiz-adv-x="586" 
d="M501 431h42l-74 -700h-42l40 379q-27 -54 -79.5 -87t-120.5 -33q-46 0 -83 16t-63 44t-40 65t-14 79q0 49 18.5 94t51.5 79t78 54t98 20q69 0 114.5 -33t61.5 -87zM313 401q-45 0 -82.5 -16.5t-64.5 -44.5t-42 -65t-15 -77q0 -35 11 -65.5t32.5 -53t52.5 -36t71 -13.5
q44 0 81.5 16.5t64.5 44.5t42.5 65t15.5 78q0 34 -11.5 64.5t-33 53.5t-52.5 36t-70 13z" />
    <glyph glyph-name="r" unicode="r" horiz-adv-x="340" 
d="M379 391q-13 4 -21.5 5t-17.5 1q-45 0 -78.5 -18t-57 -47t-37 -65t-17.5 -72l-20 -195h-42l45 431h42l-12 -119q29 64 78 95t101 31q26 0 41 -7z" />
    <glyph glyph-name="s" unicode="s" horiz-adv-x="448" 
d="M265 232q30 -6 56 -13t45 -18.5t30 -29.5t11 -48q0 -61 -46.5 -97t-129.5 -36q-38 0 -70.5 9t-55.5 27.5t-34.5 48t-6.5 71.5h42q-3 -33 5.5 -56t26.5 -37t43 -20t54 -6q63 0 97 24.5t34 66.5q0 22 -9.5 35.5t-27 22.5t-43 15t-58.5 13q-27 6 -51.5 12.5t-42.5 17.5
t-28.5 29t-10.5 46q0 31 13 55.5t35.5 41.5t53.5 26t67 9q35 0 65 -8.5t51 -26.5t31.5 -45t7.5 -63h-42q5 53 -26.5 79.5t-87.5 26.5t-91.5 -24.5t-35.5 -67.5q0 -20 8.5 -32.5t25 -21t40.5 -14.5t55 -12z" />
    <glyph glyph-name="t" unicode="t" horiz-adv-x="317" 
d="M312 0q-14 -2 -33.5 -4t-39.5 -2q-25 0 -47 5t-37.5 20.5t-22.5 45t-2 78.5l26 250h-95l4 38h95l18 176h42l-18 -176h139l-4 -38h-139l-26 -244q-4 -38 1 -61t16 -35t27 -15.5t34 -3.5q14 0 33 1.5t33 3.5z" />
    <glyph glyph-name="u" unicode="u" horiz-adv-x="556" 
d="M514 431l-46 -431h-43l12 112q-11 -24 -29 -46.5t-42 -39t-54 -26.5t-66 -10q-81 0 -121 52q-19 24 -27 58t-3 80l26 251h44l-25 -240q-8 -72 23 -117t100 -45q42 0 75 17t56 43t37 58.5t17 64.5l23 219h43z" />
    <glyph glyph-name="v" unicode="v" horiz-adv-x="458" 
d="M102 431l132 -372l212 372h46l-247 -431h-34l-155 431h46z" />
    <glyph glyph-name="w" unicode="w" horiz-adv-x="695" 
d="M387 382l-176 -382h-33l-121 431h45l98 -370l171 370h43l92 -370l176 370h46l-211 -431h-34z" />
    <glyph glyph-name="x" unicode="x" horiz-adv-x="427" 
d="M397 0h-50l-115 183l-152 -183h-50l181 216l-135 215h50l113 -182l152 182h50l-180 -215z" />
    <glyph glyph-name="y" unicode="y" horiz-adv-x="562" 
d="M252 -279q-105 0 -146 52.5t-33 154.5h42q-5 -83 26.5 -126t114.5 -43q40 0 70.5 10.5t51.5 33t34 57t18 83.5l18 169q-12 -24 -29 -46t-40.5 -39t-54.5 -27t-70 -10q-41 0 -71 11.5t-51 37.5q-20 25 -25.5 58.5t0.5 90.5l26 243h41l-24 -233q-4 -36 -0.5 -67t16.5 -53.5
t38 -35.5t64 -13q46 0 80 17t57.5 43t36.5 58.5t16 64.5l23 219h42l-51 -488q-13 -120 -67.5 -171t-152.5 -51z" />
    <glyph glyph-name="z" unicode="z" horiz-adv-x="427" 
d="M438 431l-329 -392h291l-4 -39h-368l329 391h-275l4 40h352z" />
    <glyph glyph-name="braceleft" unicode="{" horiz-adv-x="340" 
d="M411 794l-4 -36h-50q-20 0 -39 -7t-34.5 -21t-25.5 -34t-13 -46l-29 -274q-3 -25 -13 -43t-23.5 -31t-29 -21t-28.5 -12q13 -5 26.5 -13t24.5 -21.5t17 -33t3 -46.5l-26 -245q-5 -52 22 -80t68 -28h50l-4 -36h-56q-24 0 -47.5 8.5t-41.5 25.5t-27.5 43.5t-5.5 61.5
l26 246q3 26 -5 44.5t-21 30.5t-28.5 18t-27.5 6l4 37q12 0 28.5 5.5t32 17t27 28.5t14.5 41l29 276q4 35 19 61t36 43.5t46.5 26t49.5 8.5h56z" />
    <glyph glyph-name="bar" unicode="|" horiz-adv-x="218" 
d="M65 -234l108 1028h39l-108 -1028h-39z" />
    <glyph glyph-name="braceright" unicode="}" horiz-adv-x="340" 
d="M152 794q24 0 47.5 -8.5t41.5 -26t27.5 -43.5t5.5 -61l-29 -276q-3 -24 5.5 -41t21.5 -28.5t28.5 -17t27.5 -5.5l-4 -37q-12 0 -28.5 -6t-32 -18t-27 -30.5t-14.5 -44.5l-26 -246q-4 -35 -19 -61.5t-36.5 -43.5t-47 -25.5t-49.5 -8.5h-56l4 36h49q20 0 39 7t34.5 21
t25.5 34t13 46l26 245q3 26 12.5 45t23 33t29 22.5t30.5 13.5q-13 4 -26.5 12t-24.5 21t-17.5 31t-3.5 43l29 274q5 52 -22 80t-68 28h-49l4 36h56z" />
    <glyph glyph-name="asciitilde" unicode="~" horiz-adv-x="501" 
d="M62 299q26 26 53.5 36t50.5 10q26 0 55.5 -9.5t58.5 -22.5q30 -13 56 -24.5t51 -11.5q15 0 31 5t31 13t28 17.5t23 18.5l-5 -43q-25 -22 -54.5 -36t-58.5 -14q-23 0 -49 9.5t-63 26.5q-26 13 -54.5 22.5t-52.5 9.5q-27 0 -55 -13.5t-51 -36.5z" />
    <glyph glyph-name="exclamdown" unicode="&#xa1;" horiz-adv-x="270" 
d="M128 396q0 23 16.5 38.5t38.5 15.5q20 0 32.5 -13t12.5 -32q0 -23 -16.5 -38.5t-38.5 -15.5q-20 0 -32.5 13t-12.5 32zM139 249h45l-54 -518h-45z" />
    <glyph glyph-name="cent" unicode="&#xa2;" horiz-adv-x="531" 
d="M459 303q0 25 -8 48t-25 41t-44 28.5t-65 10.5q-48 0 -84.5 -17.5t-61.5 -46.5t-37.5 -66t-12.5 -77q0 -33 9 -63t28.5 -52.5t50 -36t72.5 -13.5q35 0 63 9.5t48 26t33.5 37.5t20.5 45h44q-8 -32 -24.5 -59t-41 -48t-58 -34t-76.5 -16l-12 -110h-36l12 110q-44 3 -77 20
t-55 44.5t-33 63t-11 73.5q0 46 15.5 89t44 77.5t70 57t93.5 25.5l12 109h36l-12 -109q45 -3 76.5 -18.5t51 -38.5t28 -51.5t8.5 -58.5h-42z" />
    <glyph glyph-name="sterling" unicode="&#xa3;" horiz-adv-x="605" 
d="M204 534q-8 -21 -10.5 -55.5t-5.5 -64.5h214l-4 -36h-214q-1 -5 -4 -31.5t-6.5 -57.5t-6.5 -57t-4 -30q-8 -62 -20 -98.5t-34 -62.5h378l-4 -41h-428l4 36q12 14 21 29.5t16 34.5t12.5 43t9.5 57q1 2 2.5 15.5t4 32t4.5 40t4.5 40.5t4 33t2.5 17h-68l3 35h68l9 82
q5 46 25.5 85t53 67.5t74 44.5t88.5 16q49 0 87.5 -17t64.5 -46.5t38 -69.5t7 -86h-44q4 37 -5 69.5t-29 56.5t-51.5 38t-72.5 14q-68 0 -116.5 -36.5t-67.5 -96.5z" />
    <glyph glyph-name="currency" unicode="&#xa4;" horiz-adv-x="804" 
d="M528 196q-32 -24 -70.5 -37.5t-83.5 -13.5t-80 14t-61 39l-82 -74l-25 28l82 74q-18 25 -27 57t-9 66q0 48 17 89.5t49 76.5l-65 74l30 28l66 -74q30 24 69 38.5t84 14.5t80.5 -14t61.5 -38l80 73l25 -28l-80 -73q19 -25 28.5 -57.5t9.5 -67.5q0 -48 -18 -90.5t-50 -76.5
l64 -72l-31 -28zM381 185q44 0 81.5 16.5t64.5 44.5t42 64.5t15 77.5q0 34 -11.5 65t-33 53.5t-52.5 36t-70 13.5q-44 0 -81 -16.5t-64 -44.5t-42 -65t-15 -78q0 -34 11 -64.5t32 -53t52 -36t71 -13.5z" />
    <glyph glyph-name="yen" unicode="&#xa5;" horiz-adv-x="617" 
d="M119 700l225 -389l302 389h51l-331 -424h177l-3 -34h-182l-11 -107h182l-4 -36h-182l-11 -99h-41l11 99h-181l4 36h181l11 107h-181l3 34h175l-245 424h50z" />
    <glyph glyph-name="brokenbar" unicode="&#xa6;" horiz-adv-x="218" 
d="M123 316l50 478h39l-50 -478h-39zM154 244l-50 -478h-39l50 478h39z" />
    <glyph glyph-name="section" unicode="&#xa7;" horiz-adv-x="579" 
d="M515 252q0 24 -9.5 39.5t-27 27t-43 20.5t-56.5 19q-3 1 -20 6.5t-37.5 12t-39 11.5t-22.5 7q-32 -1 -56 -12t-40 -28.5t-24 -39t-8 -43.5q0 -38 28.5 -61.5t99.5 -44.5q3 -2 23 -8t44 -12.5t45 -12t25 -6.5q21 1 42.5 11t38 27t27 39t10.5 48zM279 115q-43 12 -79 24.5
t-61.5 29t-39.5 40t-14 58.5q0 30 10 56t27.5 46t41 32.5t49.5 17.5q-29 19 -48.5 50t-19.5 78q0 45 19 80.5t51.5 59.5t75.5 36.5t90 12.5q52 0 92 -15t66 -42t37.5 -64.5t7.5 -81.5h-44q7 73 -35.5 118.5t-128.5 45.5q-37 0 -71 -9.5t-59.5 -27.5t-40.5 -45.5t-15 -63.5
t15 -59.5t39.5 -38.5t56 -25t63.5 -19q47 -14 83.5 -27t61.5 -30t38 -39.5t13 -54.5q0 -30 -10.5 -56t-28 -46t-39.5 -33.5t-45 -19.5q42 -22 61 -52.5t19 -75.5q0 -47 -18.5 -81t-50.5 -56.5t-74 -33.5t-90 -11q-60 0 -104.5 16t-73.5 44.5t-41.5 67.5t-8.5 86h44
q-3 -36 6 -67.5t32 -55.5t60.5 -38t91.5 -14q37 0 70 7.5t58 23.5t40 42t15 64q0 33 -12.5 55t-36.5 37.5t-60.5 27.5t-84.5 26z" />
    <glyph glyph-name="dieresis" unicode="&#xa8;" horiz-adv-x="477" 
d="M143 652q0 22 15.5 37.5t36.5 15.5q20 0 32 -13t12 -32q0 -22 -15.5 -37t-37.5 -15q-19 0 -31 12.5t-12 31.5zM374 652q0 21 15 37t37 16q19 0 31.5 -13t12.5 -32q0 -22 -16 -37t-38 -15q-19 0 -30.5 12.5t-11.5 31.5z" />
    <glyph glyph-name="copyright" unicode="&#xa9;" horiz-adv-x="808" 
d="M406 -17q-79 0 -139.5 27.5t-102 73t-62.5 105.5t-21 125q0 77 29 149.5t81.5 129t125 90.5t160.5 34q79 0 139.5 -27.5t101.5 -73t62.5 -105.5t21.5 -125q0 -77 -29 -150t-81.5 -129t-125 -90t-160.5 -34zM409 15q79 0 144 31t112 82.5t73 118t26 136.5q0 59 -19 113.5
t-56 96.5t-91.5 67t-124.5 25q-79 0 -144 -31t-112 -82.5t-73 -118t-26 -136.5q0 -59 19 -113.5t56 -96.5t91 -67t125 -25zM623 259q-24 -54 -77.5 -88.5t-124.5 -34.5q-46 0 -82 15.5t-60.5 42t-37 61.5t-12.5 75q0 45 16 87t46.5 75t74 52.5t98.5 19.5q40 0 71.5 -11
t53.5 -30t35 -45t16 -55h-33q-9 48 -47 79t-101 31q-46 0 -82.5 -17t-62 -45t-39 -64t-13.5 -74q0 -33 10.5 -63.5t31.5 -53t51 -36t69 -13.5q56 0 99 26t65 66h35z" />
    <glyph glyph-name="ordfeminine" unicode="&#xaa;" horiz-adv-x="586" 
d="M275 30q44 0 81.5 16.5t64.5 44.5t42.5 64.5t15.5 77.5q0 34 -11.5 65t-33 53.5t-52.5 36t-70 13.5q-44 0 -81.5 -16.5t-64.5 -44.5t-42 -65t-15 -78q0 -34 11 -64.5t32.5 -53t52.5 -36t70 -13.5zM543 431l-45 -431h-43l11 109q-27 -53 -79 -86t-120 -33q-47 0 -84 16.5
t-63 44t-40 64.5t-14 79q0 49 18.5 94t51.5 79t78.5 54t98.5 20q69 0 114 -33t61 -87l12 110h43z" />
    <glyph glyph-name="guillemotleft" unicode="&#xab;" horiz-adv-x="472" 
d="M247 102l-178 173l3 32l215 173l-5 -47l-174 -142l144 -142zM443 102l-178 173l3 32l215 173l-5 -47l-174 -142l144 -142z" />
    <glyph glyph-name="logicalnot" unicode="&#xac;" 
d="M472 287h-361l4 38h404l-19 -180h-43z" />
    <glyph glyph-name="uni00AD" unicode="&#xad;" horiz-adv-x="294" 
d="M293 275h-234l2 20h234z" />
    <glyph glyph-name="registered" unicode="&#xae;" horiz-adv-x="816" 
d="M410 -17q-80 0 -141.5 27.5t-103 73t-63 105.5t-21.5 125q0 77 29 149.5t82 129t126.5 90.5t162.5 34q80 0 141 -27.5t102.5 -73t63 -105.5t21.5 -125q0 -77 -29 -150t-81.5 -129t-126 -90t-162.5 -34zM412 15q80 0 146.5 31t114 82.5t73.5 118t26 136.5q0 59 -19 113.5
t-56.5 96.5t-92.5 67t-126 25q-80 0 -146.5 -31t-114 -82.5t-73.5 -118t-26 -136.5q0 -59 19 -113.5t56.5 -96.5t92.5 -67t126 -25zM465 338q48 0 78 31.5t30 75.5q0 37 -23 63.5t-64 26.5h-105l-21 -197h105zM306 160l43 407h142q27 0 49 -9.5t37.5 -26t23.5 -38.5t8 -46
q0 -49 -31 -87.5t-82 -49.5l81 -150h-40l-78 146h-102l-16 -146h-35z" />
    <glyph glyph-name="macron" unicode="&#xaf;" horiz-adv-x="516" 
d="M513 723h-358l4 39h358z" />
    <glyph glyph-name="degree" unicode="&#xb0;" horiz-adv-x="333" 
d="M371 587q0 -32 -13 -60.5t-34.5 -49.5t-50.5 -33.5t-60 -12.5q-29 0 -52.5 10t-41 27.5t-27 41.5t-9.5 51q0 32 13 60.5t34.5 49.5t50 33.5t60.5 12.5q28 0 52 -10t41.5 -27.5t27 -41.5t9.5 -51zM335 584q0 42 -27.5 70.5t-70.5 28.5q-24 0 -46 -9.5t-38.5 -25.5
t-26 -37.5t-9.5 -46.5q0 -42 27.5 -70.5t70.5 -28.5q24 0 45.5 9.5t38 25.5t26.5 37.5t10 46.5z" />
    <glyph glyph-name="plusminus" unicode="&#xb1;" 
d="M285 224l18 174h-173l4 40h173l19 175h43l-19 -175h173l-4 -40h-173l-18 -174h-43zM96 73l4 38h389l-4 -38h-389z" />
    <glyph glyph-name="twosuperior" unicode="&#xb2;" horiz-adv-x="356" 
d="M89 315q5 48 16 79t28 51.5t40 33.5t52 25q20 8 38.5 16.5t32.5 19.5t22.5 26.5t8.5 38.5q0 32 -19 51t-54 19q-42 0 -68 -25t-31 -65h-38q6 52 43 86.5t97 34.5q50 0 79 -25.5t29 -73.5q0 -30 -11.5 -50.5t-28.5 -35t-38.5 -24.5t-40.5 -18q-30 -12 -50 -23.5t-32.5 -26
t-19 -34t-10.5 -48.5h205l-3 -32h-247v0z" />
    <glyph glyph-name="threesuperior" unicode="&#xb3;" horiz-adv-x="364" 
d="M130 426q-4 -38 18.5 -61.5t64.5 -23.5q44 0 70.5 25t26.5 62q0 31 -20 50.5t-60 19.5h-32l3 32h32q43 0 66.5 22.5t23.5 56.5q0 31 -19.5 48.5t-55.5 17.5q-41 0 -65 -21.5t-28 -56.5h-38q5 48 40.5 78.5t92.5 30.5q49 0 80 -24.5t31 -69.5q0 -38 -23 -64.5t-58 -33.5
q32 -7 50 -30t18 -56q0 -26 -11 -48t-29.5 -38t-44 -24.5t-55.5 -8.5q-58 0 -89.5 32t-26.5 85h38z" />
    <glyph glyph-name="acute" unicode="&#xb4;" horiz-adv-x="339" 
d="M99 551l-16 35l263 137l17 -35z" />
    <glyph glyph-name="uni00B5" unicode="&#xb5;" 
d="M133 431h41l-25 -240q-4 -35 1.5 -64.5t20.5 -51t40 -34t61 -12.5q42 0 75.5 17t57 43t37.5 58.5t17 64.5l23 219h42l-46 -431h-42l12 112q-11 -23 -28.5 -45t-41.5 -39t-54 -27.5t-66 -10.5q-90 0 -123 67l-34 -326h-42z" />
    <glyph glyph-name="paragraph" unicode="&#xb6;" horiz-adv-x="623" 
d="M265 329q-43 0 -79 10t-62.5 31.5t-41 55t-14.5 80.5q0 46 13.5 79.5t36 57t51.5 38t59 22.5t59 11t52 3h294l-4 -38h-53l-87 -827h-41l87 826h-192l-87 -826h-41z" />
    <glyph glyph-name="periodcentered" unicode="&#xb7;" horiz-adv-x="203" 
d="M85 308q0 23 16 38.5t38 15.5q20 0 32.5 -13t12.5 -33q0 -22 -16 -37.5t-39 -15.5q-20 0 -32 12.5t-12 32.5z" />
    <glyph glyph-name="cedilla" unicode="&#xb8;" horiz-adv-x="325" 
d="M92 0h32l-9 -83q11 16 28 24t36 8q33 0 55 -23t22 -58q0 -20 -7.5 -38.5t-21 -32.5t-32 -22.5t-41.5 -8.5q-18 0 -34.5 6t-28.5 17.5t-18.5 28t-5.5 38.5h31q-1 -23 13 -42t44 -19q31 0 50.5 21t19.5 49q0 24 -15 40.5t-43 16.5q-13 0 -29 -7t-30 -33h-28z" />
    <glyph glyph-name="onesuperior" unicode="&#xb9;" horiz-adv-x="239" 
d="M115 635q25 0 41.5 3.5t26 11.5t13.5 20.5t6 29.5h35l-41 -385h-39l31 291h-76z" />
    <glyph glyph-name="ordmasculine" unicode="&#xba;" horiz-adv-x="543" 
d="M272 -10q-49 0 -87 16t-64.5 44t-40.5 65t-14 79q0 49 18.5 94t51.5 79t79 54t100 20q49 0 87.5 -16.5t65 -44t40.5 -65t14 -79.5q0 -49 -18.5 -93.5t-52 -78.5t-79.5 -54t-100 -20zM275 30q44 0 81.5 16.5t64.5 44.5t42.5 64.5t15.5 77.5q0 34 -11.5 65t-33 53.5
t-52.5 36t-70 13.5q-44 0 -81.5 -16.5t-64.5 -44.5t-42 -65t-15 -78q0 -34 11 -64.5t32.5 -53t52.5 -36t70 -13.5z" />
    <glyph glyph-name="guillemotright" unicode="&#xbb;" horiz-adv-x="472" 
d="M252 149l174 142l-144 142l5 47l178 -173l-4 -32l-214 -173zM56 149l174 142l-144 142l5 47l178 -173l-4 -32l-214 -173z" />
    <glyph glyph-name="onequarter" unicode="&#xbc;" horiz-adv-x="847" 
d="M629 771l33 -19l-468 -822l-34 19zM123 635q25 0 41 3.5t25.5 11.5t13.5 20.5t6 29.5h35l-41 -385h-38l31 291h-76zM698 133h-150l27 252h37l-23 -218h113l13 121h38l-13 -121h64l-4 -34h-64l-14 -133h-38z" />
    <glyph glyph-name="onehalf" unicode="&#xbd;" horiz-adv-x="847" 
d="M629 771l33 -19l-468 -822l-34 19zM123 635q25 0 41 3.5t25.5 11.5t13.5 20.5t6 29.5h35l-41 -385h-38l31 291h-76zM532 0q5 45 15.5 76t27 52t40 35t54.5 26q20 8 38.5 16.5t32.5 20.5t22.5 27.5t8.5 36.5q0 32 -19.5 51t-54.5 19q-42 0 -68 -25t-30 -65h-37
q5 52 42 86.5t97 34.5q50 0 78.5 -25.5t28.5 -73.5q0 -30 -11.5 -51t-29 -35.5t-38 -24.5t-39.5 -17q-28 -12 -47.5 -22.5t-32.5 -24.5t-20.5 -34t-10.5 -51h205l-4 -32h-248z" />
    <glyph glyph-name="threequarters" unicode="&#xbe;" horiz-adv-x="847" 
d="M654 771l33 -19l-469 -822l-33 19zM131 426q-4 -38 18 -61.5t64 -23.5q45 0 71.5 25t26.5 62q0 31 -20.5 50.5t-59.5 19.5h-32l3 32h32q43 0 66.5 22.5t23.5 56.5q0 31 -19.5 48.5t-55.5 17.5q-41 0 -65 -21.5t-28 -56.5h-38q2 22 12 42t26.5 35t40 23.5t53.5 8.5
q50 0 81 -24.5t31 -69.5q0 -37 -22 -63.5t-59 -34.5q32 -7 50 -30t18 -57q0 -26 -11 -48t-30 -37.5t-44.5 -24t-54.5 -8.5q-59 0 -90 32t-26 85h38zM698 133h-150l26 252h37l-23 -218h113l13 121h38l-13 -121h64l-3 -34h-64l-14 -133h-38z" />
    <glyph glyph-name="questiondown" unicode="&#xbf;" horiz-adv-x="489" 
d="M361 394q0 -23 -16.5 -39t-39.5 -16q-20 0 -32.5 13t-12.5 32q0 23 16.5 39t39.5 16q20 0 32.5 -13t12.5 -32zM317 244q-5 -41 -15 -70t-26 -50t-37.5 -36.5t-47.5 -30.5q-12 -7 -32.5 -19t-40 -31.5t-33.5 -48t-14 -68.5q0 -63 38 -96.5t107 -33.5q85 0 138.5 48.5
t63.5 129.5h44q-5 -48 -25 -88t-52 -69t-75.5 -45.5t-96.5 -16.5q-88 0 -137 44.5t-49 123.5q0 44 14 76t35 55t44 38t41 25q24 14 43.5 27t33.5 30.5t23 42.5t13 63h43z" />
    <glyph glyph-name="Agrave" unicode="&#xc0;" horiz-adv-x="534" 
d="M231 887l24 35l235 -137l-24 -35zM136 185h299l-101 449zM525 0h-46l-34 144h-327l-64 -144h-46l315 700h36z" />
    <glyph glyph-name="Aacute" unicode="&#xc1;" horiz-adv-x="534" 
d="M231 744l-17 35l263 137l18 -35zM136 185h299l-101 449zM525 0h-46l-34 144h-327l-64 -144h-46l315 700h36z" />
    <glyph glyph-name="Acircumflex" unicode="&#xc2;" horiz-adv-x="534" 
d="M364 928l157 -148l-28 -30l-134 129l-160 -128l-23 29zM136 185h299l-101 449zM525 0h-46l-34 144h-327l-64 -144h-46l315 700h36z" />
    <glyph glyph-name="Atilde" unicode="&#xc3;" horiz-adv-x="534" 
d="M429 827q23 0 44.5 16.5t33.5 42.5l33 -16q-21 -40 -52.5 -59t-62.5 -19q-24 0 -41.5 9t-32.5 20.5t-29 20.5t-32 9q-24 0 -44.5 -17t-32.5 -42l-32 18q21 38 52 57t63 19q24 0 41 -9t31 -20.5t28.5 -20.5t32.5 -9zM136 185h299l-101 449zM525 0h-46l-34 144h-327
l-64 -144h-46l315 700h36z" />
    <glyph glyph-name="Adieresis" unicode="&#xc4;" horiz-adv-x="534" 
d="M188 815q0 23 16 38.5t38 15.5q20 0 32.5 -13t12.5 -32q0 -23 -16.5 -38t-38.5 -15q-20 0 -32 12.5t-12 31.5zM419 815q0 23 16 38.5t38 15.5q20 0 32 -13t12 -32q0 -23 -16 -38t-38 -15q-20 0 -32 12.5t-12 31.5zM136 185h299l-101 449zM525 0h-46l-34 144h-327
l-64 -144h-46l315 700h36z" />
    <glyph glyph-name="Aring" unicode="&#xc5;" horiz-adv-x="534" 
d="M369 976q24 0 44.5 -9t35.5 -24t23 -35.5t8 -43.5q0 -27 -11 -51.5t-30 -42.5t-43 -29t-51 -11q-24 0 -44.5 9t-35.5 24.5t-23.5 36t-8.5 43.5q0 27 11.5 51t30 42.5t43 29t51.5 10.5zM366 944q-20 0 -38 -8t-32 -21.5t-22 -31.5t-8 -38q0 -34 23 -58t58 -24q20 0 38 8
t32 21.5t22.5 31.5t8.5 38q0 34 -23 58t-59 24zM136 185h299l-101 449zM525 0h-46l-34 144h-327l-64 -144h-46l315 700h36z" />
    <glyph glyph-name="AE" unicode="&#xc6;" horiz-adv-x="828" 
d="M393 185l48 456l-278 -456h230zM487 659l-30 -291h326l-5 -41h-326l-30 -286h326l-4 -41h-370l15 144h-251l-87 -144h-48l429 700h386l-5 -41h-326z" />
    <glyph glyph-name="Ccedilla" unicode="&#xc7;" horiz-adv-x="774" 
d="M735 474q-7 43 -27 80t-53 63t-78 41t-101 15q-81 0 -146 -29.5t-110.5 -79t-70 -113t-24.5 -131.5q0 -60 19.5 -113t56 -93t90 -63.5t122.5 -23.5q50 0 95 13t82.5 35.5t66 53.5t46.5 68h49q-20 -45 -53.5 -83t-77 -66.5t-96.5 -44.5t-111 -16h-23l-7 -66q10 13 27 21
t37 8q34 0 53.5 -21.5t19.5 -52.5q0 -18 -7 -35.5t-20 -30.5t-31.5 -21t-40.5 -8q-15 0 -30 4t-27 13t-20 23t-9 34h32q2 -19 15 -32.5t39 -13.5q31 0 49.5 19t18.5 45q0 21 -14 35.5t-40 14.5q-14 0 -30 -6.5t-29 -28.5h-29l10 101q-67 8 -119 37t-87 72.5t-53.5 99.5
t-18.5 118q0 76 27.5 148t79.5 127.5t125.5 89t165.5 33.5q66 0 119 -17.5t91.5 -49.5t62 -76t30.5 -97h-46z" />
    <glyph glyph-name="Egrave" unicode="&#xc8;" horiz-adv-x="541" 
d="M241 881l24 35l235 -137l-25 -35zM201 659l-30 -291h326l-5 -41h-326l-30 -286h326l-4 -41h-370l74 700h370l-5 -41h-326z" />
    <glyph glyph-name="Eacute" unicode="&#xc9;" horiz-adv-x="541" 
d="M250 750l-16 35l263 137l16 -35zM201 659l-30 -291h326l-5 -41h-326l-30 -286h326l-4 -41h-370l74 700h370l-5 -41h-326z" />
    <glyph glyph-name="Ecircumflex" unicode="&#xca;" horiz-adv-x="541" 
d="M377 928l157 -148l-28 -30l-135 129l-159 -128l-23 29zM201 659l-30 -291h326l-5 -41h-326l-30 -286h326l-4 -41h-370l74 700h370l-5 -41h-326z" />
    <glyph glyph-name="Edieresis" unicode="&#xcb;" horiz-adv-x="541" 
d="M197 815q0 23 15.5 38.5t38.5 15.5q20 0 32 -13t12 -32q0 -23 -16 -38t-38 -15q-20 0 -32 12.5t-12 31.5zM427 815q0 23 15.5 38.5t38.5 15.5q20 0 32.5 -13t12.5 -32q0 -23 -16 -38t-39 -15q-20 0 -32 12.5t-12 31.5zM201 659l-30 -291h326l-5 -41h-326l-30 -286h326
l-4 -41h-370l74 700h370l-5 -41h-326z" />
    <glyph glyph-name="Igrave" unicode="&#xcc;" horiz-adv-x="221" 
d="M69 881l25 35l234 -137l-24 -35zM162 700h45l-74 -700h-45z" />
    <glyph glyph-name="Iacute" unicode="&#xcd;" horiz-adv-x="221" 
d="M75 745l-17 35l263 137l18 -35zM162 700h45l-74 -700h-45z" />
    <glyph glyph-name="Icircumflex" unicode="&#xce;" horiz-adv-x="221" 
d="M208 928l157 -148l-28 -30l-134 129l-160 -128l-23 29zM162 700h45l-74 -700h-45z" />
    <glyph glyph-name="Idieresis" unicode="&#xcf;" horiz-adv-x="221" 
d="M33 815q0 23 15.5 38.5t38.5 15.5q20 0 32 -13t12 -32q0 -23 -15.5 -38t-38.5 -15q-20 0 -32 12.5t-12 31.5zM264 815q0 23 15.5 38.5t37.5 15.5q20 0 32.5 -13t12.5 -32q0 -23 -16.5 -38t-37.5 -15q-20 0 -32 12.5t-12 31.5zM162 700h45l-74 -700h-45z" />
    <glyph glyph-name="Eth" unicode="&#xd0;" horiz-adv-x="690" 
d="M355 700q81 0 142 -27t102.5 -71t62.5 -101.5t21 -118.5q0 -71 -28 -139.5t-80 -122.5t-126.5 -87t-167.5 -33h-193l35 332h-108l4 36h108l35 332h193zM280 332h-113l-31 -291h149q81 0 146.5 29t111.5 76.5t71 108t25 123.5q0 54 -18.5 104.5t-55 89.5t-90.5 63t-125 24
h-149l-30 -291h113z" />
    <glyph glyph-name="Ntilde" unicode="&#xd1;" horiz-adv-x="660" 
d="M492 827q24 0 45.5 17t32.5 42l33 -16q-21 -40 -52.5 -59t-62.5 -19q-24 0 -41.5 9t-32.5 20.5t-29 20.5t-32 9q-24 0 -44.5 -17t-32.5 -42l-32 18q21 38 51.5 57t62.5 19q24 0 41.5 -9t31.5 -20.5t28.5 -20.5t32.5 -9zM536 74l66 626h44l-74 -700h-49l-325 626l-66 -626
h-44l74 700h50z" />
    <glyph glyph-name="Ograve" unicode="&#xd2;" horiz-adv-x="809" 
d="M359 887l23 35l235 -137l-24 -35zM406 -14q-79 0 -140 27t-102 72.5t-62.5 105t-21.5 124.5q0 76 29 148t81 128t125 89.5t162 33.5q79 0 139.5 -27t102 -72.5t62.5 -105t21 -124.5q0 -77 -28.5 -148.5t-81 -127.5t-125.5 -89.5t-161 -33.5zM410 27q77 0 141 30
t109.5 79.5t71 113.5t25.5 132q0 57 -18.5 109.5t-54.5 93t-89.5 64.5t-122.5 24q-77 0 -141 -30t-109.5 -79.5t-70.5 -113.5t-25 -132q0 -57 18.5 -109.5t54.5 -93t89 -64.5t122 -24z" />
    <glyph glyph-name="Oacute" unicode="&#xd3;" horiz-adv-x="809" 
d="M373 750l-17 35l263 137l18 -35zM406 -14q-79 0 -140 27t-102 72.5t-62.5 105t-21.5 124.5q0 76 29 148t81 128t125 89.5t162 33.5q79 0 139.5 -27t102 -72.5t62.5 -105t21 -124.5q0 -77 -28.5 -148.5t-81 -127.5t-125.5 -89.5t-161 -33.5zM410 27q77 0 141 30
t109.5 79.5t71 113.5t25.5 132q0 57 -18.5 109.5t-54.5 93t-89.5 64.5t-122.5 24q-77 0 -141 -30t-109.5 -79.5t-70.5 -113.5t-25 -132q0 -57 18.5 -109.5t54.5 -93t89 -64.5t122 -24z" />
    <glyph glyph-name="Ocircumflex" unicode="&#xd4;" horiz-adv-x="809" 
d="M502 928l157 -148l-28 -30l-133 129l-161 -128l-23 29zM406 -14q-79 0 -140 27t-102 72.5t-62.5 105t-21.5 124.5q0 76 29 148t81 128t125 89.5t162 33.5q79 0 139.5 -27t102 -72.5t62.5 -105t21 -124.5q0 -77 -28.5 -148.5t-81 -127.5t-125.5 -89.5t-161 -33.5zM410 27
q77 0 141 30t109.5 79.5t71 113.5t25.5 132q0 57 -18.5 109.5t-54.5 93t-89.5 64.5t-122.5 24q-77 0 -141 -30t-109.5 -79.5t-70.5 -113.5t-25 -132q0 -57 18.5 -109.5t54.5 -93t89 -64.5t122 -24z" />
    <glyph glyph-name="Otilde" unicode="&#xd5;" horiz-adv-x="809" 
d="M563 827q23 0 44.5 16.5t34.5 42.5l33 -16q-22 -40 -53 -59t-62 -19q-24 0 -41.5 9t-32.5 20.5t-29 20.5t-32 9q-24 0 -45 -17t-32 -42l-32 18q21 38 52 57t63 19q24 0 40.5 -9t31 -20.5t28.5 -20.5t32 -9zM406 -14q-79 0 -140 27t-102 72.5t-62.5 105t-21.5 124.5
q0 76 29 148t81 128t125 89.5t162 33.5q79 0 139.5 -27t102 -72.5t62.5 -105t21 -124.5q0 -77 -28.5 -148.5t-81 -127.5t-125.5 -89.5t-161 -33.5zM410 27q77 0 141 30t109.5 79.5t71 113.5t25.5 132q0 57 -18.5 109.5t-54.5 93t-89.5 64.5t-122.5 24q-77 0 -141 -30
t-109.5 -79.5t-70.5 -113.5t-25 -132q0 -57 18.5 -109.5t54.5 -93t89 -64.5t122 -24z" />
    <glyph glyph-name="Odieresis" unicode="&#xd6;" horiz-adv-x="809" 
d="M557 815q0 23 16 38.5t38 15.5q20 0 32.5 -13t12.5 -32q0 -23 -16.5 -38t-38.5 -15q-20 0 -32 12.5t-12 31.5zM370 771q-20 0 -32 12.5t-12 31.5q0 23 16 38.5t39 15.5q20 0 32 -13t12 -32q0 -23 -16 -38t-39 -15zM406 -14q-79 0 -140 27t-102 72.5t-62.5 105
t-21.5 124.5q0 76 29 148t81 128t125 89.5t162 33.5q79 0 139.5 -27t102 -72.5t62.5 -105t21 -124.5q0 -77 -28.5 -148.5t-81 -127.5t-125.5 -89.5t-161 -33.5zM126 318q0 -57 18.5 -109.5t54.5 -93t89 -64.5t122 -24q77 0 141 30t109.5 79.5t71 113.5t25.5 132
q0 57 -18.5 109.5t-54.5 93t-89.5 64.5t-122.5 24q-77 0 -141 -30t-109.5 -79.5t-70.5 -113.5t-25 -132z" />
    <glyph glyph-name="multiply" unicode="&#xd7;" 
d="M457 443l27 -30l-144 -129l116 -128l-31 -28l-115 128l-142 -129l-27 30l143 129l-114 128l30 28l115 -128z" />
    <glyph glyph-name="Oslash" unicode="&#xd8;" horiz-adv-x="809" 
d="M126 319q0 -39 8.5 -76.5t26 -71t42.5 -61t58 -46.5l315 593q-23 8 -47.5 12t-53.5 4q-78 0 -142.5 -30t-110.5 -79.5t-71 -113.5t-25 -131zM407 27q79 0 143.5 30t110.5 79.5t71 113t25 130.5q0 41 -9.5 80.5t-28.5 74t-47 62t-64 45.5l-316 -593q48 -22 115 -22z
M404 -14q-38 0 -71 6.5t-63 17.5l-40 -76l-31 14l40 77q-39 21 -68.5 52t-49.5 69t-30.5 81.5t-10.5 88.5q0 76 28.5 148t81 127.5t126.5 89t164 33.5q32 0 61.5 -4.5t55.5 -14.5l38 70l31 -14l-37 -69q42 -20 74.5 -51.5t54.5 -70.5t33 -84t11 -92q0 -76 -28.5 -148
t-81 -127.5t-126 -89t-162.5 -33.5z" />
    <glyph glyph-name="Ugrave" unicode="&#xd9;" horiz-adv-x="606" 
d="M265 887l24 35l235 -137l-25 -35zM148 700h44l-51 -488q-4 -38 5.5 -71.5t30.5 -58.5t53.5 -40t74.5 -15t77.5 15t62.5 40t43.5 58.5t20.5 71.5l51 488h44l-51 -488q-5 -46 -25.5 -87t-53.5 -72t-77 -49t-96 -18q-53 0 -93 18.5t-66.5 49.5t-38 72t-6.5 86z" />
    <glyph glyph-name="Uacute" unicode="&#xda;" horiz-adv-x="606" 
d="M261 750l-17 35l263 137l18 -35zM148 700h44l-51 -488q-4 -38 5.5 -71.5t30.5 -58.5t53.5 -40t74.5 -15t77.5 15t62.5 40t43.5 58.5t20.5 71.5l51 488h44l-51 -488q-5 -46 -25.5 -87t-53.5 -72t-77 -49t-96 -18q-53 0 -93 18.5t-66.5 49.5t-38 72t-6.5 86z" />
    <glyph glyph-name="Ucircumflex" unicode="&#xdb;" horiz-adv-x="606" 
d="M401 929l158 -148l-29 -30l-133 128l-161 -128l-22 30zM148 700h44l-51 -488q-4 -38 5.5 -71.5t30.5 -58.5t53.5 -40t74.5 -15t77.5 15t62.5 40t43.5 58.5t20.5 71.5l51 488h44l-51 -488q-5 -46 -25.5 -87t-53.5 -72t-77 -49t-96 -18q-53 0 -93 18.5t-66.5 49.5t-38 72
t-6.5 86z" />
    <glyph glyph-name="Udieresis" unicode="&#xdc;" horiz-adv-x="606" 
d="M223 815q0 23 16 38.5t39 15.5q20 0 32 -13t12 -32q0 -23 -16 -38t-38 -15q-20 0 -32.5 12.5t-12.5 31.5zM454 815q0 23 16 38.5t38 15.5q20 0 32.5 -13t12.5 -32q0 -23 -16.5 -38t-38.5 -15q-20 0 -32 12.5t-12 31.5zM148 700h44l-51 -488q-4 -38 5.5 -71.5t30.5 -58.5
t53.5 -40t74.5 -15t77.5 15t62.5 40t43.5 58.5t20.5 71.5l51 488h44l-51 -488q-5 -46 -25.5 -87t-53.5 -72t-77 -49t-96 -18q-53 0 -93 18.5t-66.5 49.5t-38 72t-6.5 86z" />
    <glyph glyph-name="Yacute" unicode="&#xdd;" horiz-adv-x="548" 
d="M272 756l-16 35l263 137l16 -35zM183 0h-49l172 275l-225 425h52l201 -380l237 380h48z" />
    <glyph glyph-name="Thorn" unicode="&#xde;" horiz-adv-x="497" 
d="M162 700h41l-15 -135h112q49 0 87 -16t64 -43.5t39.5 -64t13.5 -76.5q0 -47 -18 -90.5t-51 -76.5t-79 -53t-102 -20h-112l-13 -125h-41zM184 527l-38 -364h112q46 0 83.5 16.5t64.5 44t41.5 63.5t14.5 75q0 34 -11 64t-32 52.5t-52 35.5t-71 13h-112z" />
    <glyph glyph-name="germandbls" unicode="&#xdf;" horiz-adv-x="555" 
d="M198 40q18 -7 40 -10t43 -3q43 0 79.5 12.5t63 34.5t41.5 52.5t15 67.5q0 31 -11 58t-32.5 47t-52 31.5t-69.5 11.5h-51l4 39h50q42 0 76 12.5t57 34.5t35.5 51.5t12.5 62.5q0 60 -38.5 95.5t-109.5 35.5q-78 0 -124.5 -42t-53.5 -110l-55 -521h-43l55 521q4 43 22 78
t47 60.5t68 39.5t87 14q88 0 138.5 -46t50.5 -121q0 -35 -11 -66t-32 -55.5t-51 -41t-69 -21.5q69 -12 106 -56.5t37 -109.5q0 -47 -19 -85t-52.5 -66t-78 -43t-95.5 -15q-50 0 -84 13z" />
    <glyph glyph-name="agrave" unicode="&#xe0;" horiz-adv-x="586" 
d="M204 654l25 35l235 -137l-25 -35zM275 30q44 0 81.5 16.5t64.5 44.5t42.5 64.5t15.5 77.5q0 34 -11.5 65t-33 53.5t-52.5 36t-70 13.5q-44 0 -81.5 -16.5t-64.5 -44.5t-42 -65t-15 -78q0 -34 11 -64.5t32.5 -53t52.5 -36t70 -13.5zM543 431l-45 -431h-43l11 109
q-27 -53 -79 -86t-120 -33q-47 0 -84 16.5t-63 44t-40 64.5t-14 79q0 49 18.5 94t51.5 79t78.5 54t98.5 20q69 0 114 -33t61 -87l12 110h43z" />
    <glyph glyph-name="aacute" unicode="&#xe1;" horiz-adv-x="586" 
d="M212 517l-17 35l263 137l17 -35zM275 30q44 0 81.5 16.5t64.5 44.5t42.5 64.5t15.5 77.5q0 34 -11.5 65t-33 53.5t-52.5 36t-70 13.5q-44 0 -81.5 -16.5t-64.5 -44.5t-42 -65t-15 -78q0 -34 11 -64.5t32.5 -53t52.5 -36t70 -13.5zM543 431l-45 -431h-43l11 109
q-27 -53 -79 -86t-120 -33q-47 0 -84 16.5t-63 44t-40 64.5t-14 79q0 49 18.5 94t51.5 79t78.5 54t98.5 20q69 0 114 -33t61 -87l12 110h43z" />
    <glyph glyph-name="acircumflex" unicode="&#xe2;" horiz-adv-x="586" 
d="M354 718l158 -148l-28 -30l-134 128l-160 -128l-23 30zM275 30q44 0 81.5 16.5t64.5 44.5t42.5 64.5t15.5 77.5q0 34 -11.5 65t-33 53.5t-52.5 36t-70 13.5q-44 0 -81.5 -16.5t-64.5 -44.5t-42 -65t-15 -78q0 -34 11 -64.5t32.5 -53t52.5 -36t70 -13.5zM543 431l-45 -431
h-43l11 109q-27 -53 -79 -86t-120 -33q-47 0 -84 16.5t-63 44t-40 64.5t-14 79q0 49 18.5 94t51.5 79t78.5 54t98.5 20q69 0 114 -33t61 -87l12 110h43z" />
    <glyph glyph-name="atilde" unicode="&#xe3;" horiz-adv-x="586" 
d="M418 603q24 0 45.5 16.5t33.5 42.5l34 -15q-22 -40 -53 -59t-63 -19q-24 0 -41 9t-31.5 20t-28.5 20t-32 9q-23 0 -44.5 -16t-33.5 -42l-33 18q22 38 52.5 56.5t61.5 18.5q24 0 41.5 -9t31.5 -20.5t28 -20.5t32 -9zM275 30q44 0 81.5 16.5t64.5 44.5t42.5 64.5t15.5 77.5
q0 34 -11.5 65t-33 53.5t-52.5 36t-70 13.5q-44 0 -81.5 -16.5t-64.5 -44.5t-42 -65t-15 -78q0 -34 11 -64.5t32.5 -53t52.5 -36t70 -13.5zM543 431l-45 -431h-43l11 109q-27 -53 -79 -86t-120 -33q-47 0 -84 16.5t-63 44t-40 64.5t-14 79q0 49 18.5 94t51.5 79t78.5 54
t98.5 20q69 0 114 -33t61 -87l12 110h43z" />
    <glyph glyph-name="adieresis" unicode="&#xe4;" horiz-adv-x="586" 
d="M213 552q-20 0 -32 12.5t-12 31.5q0 23 15.5 38.5t37.5 15.5q20 0 32.5 -13t12.5 -32q0 -23 -16.5 -38t-37.5 -15zM443 552q-20 0 -32 12.5t-12 31.5q0 23 15.5 38.5t38.5 15.5q20 0 32 -13t12 -32q0 -23 -15.5 -38t-38.5 -15zM275 30q44 0 81.5 16.5t64.5 44.5
t42.5 64.5t15.5 77.5q0 34 -11.5 65t-33 53.5t-52.5 36t-70 13.5q-44 0 -81.5 -16.5t-64.5 -44.5t-42 -65t-15 -78q0 -34 11 -64.5t32.5 -53t52.5 -36t70 -13.5zM455 0l11 109q-27 -53 -79 -86t-120 -33q-47 0 -84 16.5t-63 44t-40 64.5t-14 79q0 49 18.5 94t51.5 79
t78.5 54t98.5 20q69 0 114 -33t61 -87l12 110h43l-45 -431h-43z" />
    <glyph glyph-name="aring" unicode="&#xe5;" horiz-adv-x="586" 
d="M351 743q25 0 45.5 -9t35.5 -24.5t23.5 -36.5t8.5 -44q0 -27 -11.5 -51.5t-30.5 -43t-44 -29.5t-52 -11q-24 0 -44.5 9t-35.5 24.5t-23.5 36.5t-8.5 44q0 27 11.5 51.5t30 43t43.5 29.5t52 11zM348 711q-20 0 -38.5 -8t-32.5 -21.5t-22.5 -31.5t-8.5 -39q0 -35 23.5 -60
t59.5 -25q20 0 38.5 8t33 22t23 32t8.5 39q0 35 -23.5 59.5t-60.5 24.5zM275 30q44 0 81.5 16.5t64.5 44.5t42.5 64.5t15.5 77.5q0 34 -11.5 65t-33 53.5t-52.5 36t-70 13.5q-44 0 -81.5 -16.5t-64.5 -44.5t-42 -65t-15 -78q0 -34 11 -64.5t32.5 -53t52.5 -36t70 -13.5z
M543 431l-45 -431h-43l11 109q-27 -53 -79 -86t-120 -33q-47 0 -84 16.5t-63 44t-40 64.5t-14 79q0 49 18.5 94t51.5 79t78.5 54t98.5 20q69 0 114 -33t61 -87l12 110h43z" />
    <glyph glyph-name="ae" unicode="&#xe6;" horiz-adv-x="919" 
d="M543 431l-9 -84q29 44 74.5 69t102.5 25q40 0 73.5 -13t57.5 -37t37.5 -57t13.5 -73q0 -16 -2 -27t-6 -23h-365q-4 -39 4 -72.5t26.5 -58t49 -38.5t71.5 -14q62 0 101 27.5t56 65.5h43q-9 -26 -27 -50t-44 -42t-59 -28.5t-72 -10.5q-64 0 -104 27t-58 69l-9 -86h-43
l11 109q-27 -53 -79 -86t-120 -33q-47 0 -84 16.5t-63 44t-40 64.5t-14 79q0 49 18.5 94t51.5 79t78.5 54t98.5 20q69 0 114 -33t61 -87l12 110h43zM705 403q-34 0 -64 -11t-54 -31.5t-40 -49t-22 -64.5h325q3 35 -6 63.5t-28.5 49t-48 32t-62.5 11.5zM275 30
q44 0 81.5 16.5t64.5 44.5t42.5 65t15.5 78q0 34 -11.5 64.5t-33 53.5t-52.5 36t-70 13q-44 0 -81.5 -16.5t-64.5 -44.5t-42 -65t-15 -78q0 -34 11 -64.5t32.5 -53t52.5 -36t70 -13.5z" />
    <glyph glyph-name="ccedilla" unicode="&#xe7;" horiz-adv-x="519" 
d="M216 -6q-36 7 -63.5 26t-45.5 45.5t-27 59.5t-9 68q0 47 16 92t47 79.5t76.5 55.5t104.5 21q48 0 82 -14.5t55.5 -37.5t31.5 -53.5t10 -61.5h-43q0 25 -8 48t-25 41t-43.5 28.5t-64.5 10.5q-48 0 -85 -17.5t-61.5 -46.5t-37.5 -66t-13 -77q0 -33 9 -63t28.5 -52.5t50 -36
t72.5 -13.5q69 0 110.5 34t55.5 84h43q-21 -74 -71 -113.5t-143 -43.5q-13 -1 -15 -0.5t-4 0.5l-7 -70q8 13 25.5 21t37.5 8q33 0 53 -21t20 -53q0 -38 -27 -66.5t-71 -28.5q-16 0 -31 4.5t-27 13.5t-19.5 23t-8.5 33h32q1 -19 15 -32.5t39 -13.5q29 0 48 19t19 45
q0 21 -14 35.5t-40 14.5q-14 0 -30.5 -6.5t-28.5 -28.5h-29z" />
    <glyph glyph-name="egrave" unicode="&#xe8;" horiz-adv-x="513" 
d="M198 654l24 35l235 -137l-25 -35zM114 211q-3 -36 4 -69.5t25 -58.5t48.5 -40t73.5 -15q62 0 101.5 27.5t56.5 65.5h44q-20 -56 -74 -93.5t-131 -37.5q-49 0 -85 16t-59.5 44t-35 64.5t-11.5 78.5q0 51 16.5 96.5t47 79t73 53t93.5 19.5q43 0 77.5 -13.5t58.5 -37.5
t37 -57t13 -72q0 -16 -2 -27t-5 -23h-366zM300 405q-34 0 -64.5 -11t-54.5 -32t-40 -50t-22 -65h325q4 36 -5 65t-28.5 49.5t-48 32t-62.5 11.5z" />
    <glyph glyph-name="eacute" unicode="&#xe9;" horiz-adv-x="513" 
d="M188 517l-17 35l263 137l18 -35zM114 211q-3 -36 4 -69.5t25 -58.5t48.5 -40t73.5 -15q62 0 101.5 27.5t56.5 65.5h44q-20 -56 -74 -93.5t-131 -37.5q-49 0 -85 16t-59.5 44t-35 64.5t-11.5 78.5q0 51 16.5 96.5t47 79t73 53t93.5 19.5q43 0 77.5 -13.5t58.5 -37.5
t37 -57t13 -72q0 -16 -2 -27t-5 -23h-366zM300 405q-34 0 -64.5 -11t-54.5 -32t-40 -50t-22 -65h325q4 36 -5 65t-28.5 49.5t-48 32t-62.5 11.5z" />
    <glyph glyph-name="ecircumflex" unicode="&#xea;" horiz-adv-x="513" 
d="M334 718l158 -148l-28 -30l-134 128l-160 -128l-23 30zM114 211q-3 -36 4 -69.5t25 -58.5t48.5 -40t73.5 -15q62 0 101.5 27.5t56.5 65.5h44q-20 -56 -74 -93.5t-131 -37.5q-49 0 -85 16t-59.5 44t-35 64.5t-11.5 78.5q0 51 16.5 96.5t47 79t73 53t93.5 19.5
q43 0 77.5 -13.5t58.5 -37.5t37 -57t13 -72q0 -16 -2 -27t-5 -23h-366zM300 405q-34 0 -64.5 -11t-54.5 -32t-40 -50t-22 -65h325q4 36 -5 65t-28.5 49.5t-48 32t-62.5 11.5z" />
    <glyph glyph-name="edieresis" unicode="&#xeb;" horiz-adv-x="513" 
d="M158 596q0 23 15.5 38t38.5 15q20 0 32.5 -12.5t12.5 -32.5q0 -23 -16 -38t-39 -15q-20 0 -32 12.5t-12 32.5zM389 596q0 23 16 38t37 15q20 0 32.5 -12.5t12.5 -32.5q0 -23 -16 -38t-38 -15q-20 0 -32 12.5t-12 32.5zM114 211q-3 -36 4 -69.5t25 -58.5t48.5 -40
t73.5 -15q62 0 101.5 27.5t56.5 65.5h44q-20 -56 -74 -93.5t-131 -37.5q-49 0 -85 16t-59.5 44t-35 64.5t-11.5 78.5q0 51 16.5 96.5t47 79t73 53t93.5 19.5q43 0 77.5 -13.5t58.5 -37.5t37 -57t13 -72q0 -16 -2 -27t-5 -23h-366zM300 405q-34 0 -64.5 -11t-54.5 -32
t-40 -50t-22 -65h325q4 36 -5 65t-28.5 49.5t-48 32t-62.5 11.5z" />
    <glyph glyph-name="igrave" unicode="&#xec;" horiz-adv-x="218" 
d="M44 660l24 35l234 -137l-23 -35zM133 431h42l-45 -431h-42z" />
    <glyph glyph-name="iacute" unicode="&#xed;" horiz-adv-x="218" 
d="M51 522l-16 35l263 137l17 -35zM134 431h42l-46 -431h-42z" />
    <glyph glyph-name="icircumflex" unicode="&#xee;" horiz-adv-x="218" 
d="M185 718l157 -148l-28 -30l-135 128l-159 -128l-23 30zM133 431h42l-45 -431h-42z" />
    <glyph glyph-name="idieresis" unicode="&#xef;" horiz-adv-x="218" 
d="M16 596q0 23 15.5 38.5t37.5 15.5q20 0 32.5 -13t12.5 -32q0 -23 -16 -38t-38 -15q-20 0 -32 12.5t-12 31.5zM236 596q0 23 15.5 38.5t38.5 15.5q20 0 32 -13t12 -32q0 -23 -15.5 -38t-38.5 -15q-20 0 -32 12.5t-12 31.5zM133 431h42l-45 -431h-42z" />
    <glyph glyph-name="eth" unicode="&#xf0;" horiz-adv-x="562" 
d="M281 -10q-48 0 -86.5 16.5t-65 44t-40.5 64.5t-14 79q0 49 19 94t52 79t78 54t98 20q37 0 62.5 -9.5t38.5 -24.5l-72 138l-141 -74l-12 31l137 71l-66 127h52l54 -106l91 48l13 -30l-88 -47l101 -195q18 -35 28.5 -65.5t10.5 -67.5q0 -49 -18.5 -94t-52 -79t-79.5 -54
t-100 -20zM285 30q44 0 81.5 16.5t64.5 44.5t42 64.5t15 77.5q0 34 -11 65t-32.5 53.5t-52.5 36t-70 13.5q-44 0 -81.5 -16.5t-64.5 -44.5t-42.5 -65t-15.5 -77q0 -35 11.5 -65.5t33 -53t52.5 -36t70 -13.5z" />
    <glyph glyph-name="ntilde" unicode="&#xf1;" horiz-adv-x="558" 
d="M415 603q24 0 45.5 16.5t34.5 42.5l33 -15q-22 -40 -53 -59t-63 -19q-24 0 -41 9t-31.5 20t-28.5 20t-32 9q-23 0 -44.5 -16t-33.5 -42l-32 18q21 38 52 56.5t62 18.5q24 0 41 -9t31.5 -20.5t28 -20.5t31.5 -9zM133 431h42l-11 -112q11 24 28.5 46t41.5 39t54.5 27
t66.5 10q81 0 122 -52q19 -24 26 -57.5t2 -80.5l-26 -251h-42l25 240q4 34 -1.5 63.5t-20.5 51t-40 34t-61 12.5q-42 0 -75.5 -16.5t-56.5 -43t-37 -59t-17 -63.5l-23 -219h-42z" />
    <glyph glyph-name="ograve" unicode="&#xf2;" horiz-adv-x="543" 
d="M207 654l25 35l235 -137l-25 -35zM272 -10q-49 0 -87 16t-64.5 44t-40.5 65t-14 79q0 49 18.5 94t51.5 79t79 54t100 20q49 0 87.5 -16.5t65 -44t40.5 -65t14 -79.5q0 -49 -18.5 -93.5t-52 -78.5t-79.5 -54t-100 -20zM275 30q44 0 81.5 16.5t64.5 44.5t42.5 64.5
t15.5 77.5q0 34 -11.5 65t-33 53.5t-52.5 36t-70 13.5q-44 0 -81.5 -16.5t-64.5 -44.5t-42 -65t-15 -78q0 -34 11 -64.5t32.5 -53t52.5 -36t70 -13.5z" />
    <glyph glyph-name="oacute" unicode="&#xf3;" horiz-adv-x="543" 
d="M204 517l-17 35l263 137l17 -35zM272 -10q-49 0 -87 16t-64.5 44t-40.5 65t-14 79q0 49 18.5 94t51.5 79t79 54t100 20q49 0 87.5 -16.5t65 -44t40.5 -65t14 -79.5q0 -49 -18.5 -93.5t-52 -78.5t-79.5 -54t-100 -20zM275 30q44 0 81.5 16.5t64.5 44.5t42.5 64.5
t15.5 77.5q0 34 -11.5 65t-33 53.5t-52.5 36t-70 13.5q-44 0 -81.5 -16.5t-64.5 -44.5t-42 -65t-15 -78q0 -34 11 -64.5t32.5 -53t52.5 -36t70 -13.5z" />
    <glyph glyph-name="ocircumflex" unicode="&#xf4;" horiz-adv-x="543" 
d="M346 718l158 -147l-28 -30l-135 128l-160 -128l-22 30zM272 -10q-49 0 -87 16t-64.5 44t-40.5 65t-14 79q0 49 18.5 94t51.5 79t79 54t100 20q49 0 87.5 -16.5t65 -44t40.5 -65t14 -79.5q0 -49 -18.5 -93.5t-52 -78.5t-79.5 -54t-100 -20zM275 30q44 0 81.5 16.5
t64.5 44.5t42.5 64.5t15.5 77.5q0 34 -11.5 65t-33 53.5t-52.5 36t-70 13.5q-44 0 -81.5 -16.5t-64.5 -44.5t-42 -65t-15 -78q0 -34 11 -64.5t32.5 -53t52.5 -36t70 -13.5z" />
    <glyph glyph-name="otilde" unicode="&#xf5;" horiz-adv-x="543" 
d="M403 603q24 0 45.5 16.5t33.5 42.5l34 -15q-22 -40 -53 -59t-63 -19q-24 0 -41 9t-31.5 20t-28.5 20t-32 9q-23 0 -44.5 -16t-33.5 -42l-33 18q22 38 52.5 56.5t61.5 18.5q24 0 41.5 -9t31.5 -20.5t28 -20.5t32 -9zM272 -10q-49 0 -87 16t-64.5 44t-40.5 65t-14 79
q0 49 18.5 94t51.5 79t79 54t100 20q49 0 87.5 -16.5t65 -44t40.5 -65t14 -79.5q0 -49 -18.5 -93.5t-52 -78.5t-79.5 -54t-100 -20zM275 30q44 0 81.5 16.5t64.5 44.5t42.5 64.5t15.5 77.5q0 34 -11.5 65t-33 53.5t-52.5 36t-70 13.5q-44 0 -81.5 -16.5t-64.5 -44.5t-42 -65
t-15 -78q0 -34 11 -64.5t32.5 -53t52.5 -36t70 -13.5z" />
    <glyph glyph-name="odieresis" unicode="&#xf6;" horiz-adv-x="543" 
d="M444 552q-20 0 -32 12.5t-12 31.5q0 23 15.5 38.5t38.5 15.5q20 0 32.5 -13t12.5 -32q0 -23 -16 -38t-39 -15zM214 552q-20 0 -32 12.5t-12 31.5q0 23 16 38.5t38 15.5q20 0 32 -13t12 -32q0 -23 -16 -38t-38 -15zM522 236q0 -49 -18.5 -93.5t-52 -78.5t-79.5 -54
t-100 -20q-49 0 -87 16t-64.5 44t-40.5 65t-14 79q0 49 18.5 94t51.5 79t79 54t100 20q49 0 87.5 -16.5t65 -44t40.5 -65t14 -79.5zM109 197q0 -34 11 -64.5t32.5 -53t52.5 -36t70 -13.5q44 0 81.5 16.5t64.5 44.5t42.5 64.5t15.5 77.5q0 34 -11.5 65t-33 53.5t-52.5 36
t-70 13.5q-44 0 -81.5 -16.5t-64.5 -44.5t-42 -65t-15 -78z" />
    <glyph glyph-name="divide" unicode="&#xf7;" 
d="M273 367q0 23 16 38.5t38 15.5q20 0 32.5 -13t12.5 -32q0 -23 -16.5 -38t-38.5 -15q-20 0 -32 12.5t-12 31.5zM104 215l4 39h404l-4 -39h-404zM245 97q0 8 5 18t12.5 19t17.5 15t20 6t18 -5.5t14 -13.5t9 -17t3 -16q0 -15 -16 -30.5t-39 -15.5t-33.5 14.5t-10.5 25.5z
" />
    <glyph glyph-name="oslash" unicode="&#xf8;" horiz-adv-x="543" 
d="M109 198q0 -45 18 -82.5t53 -59.5l181 339q-23 6 -49 6q-44 0 -81.5 -16.5t-64.5 -44.5t-42 -65t-15 -77zM271 30q46 0 84.5 16.5t66 44.5t42.5 64.5t15 76.5q0 50 -23 90.5t-66 60.5l-183 -342q15 -6 31 -8.5t33 -2.5zM411 421q53 -24 82 -74t29 -111q0 -49 -18.5 -93.5
t-52 -78.5t-80 -54t-102.5 -20q-46 0 -82 15l-35 -65l-28 12l35 66q-45 26 -69 73t-24 103q0 49 18.5 94t51.5 79t78.5 54t99.5 20q20 0 36.5 -2.5t30.5 -7.5l31 57l29 -12z" />
    <glyph glyph-name="ugrave" unicode="&#xf9;" horiz-adv-x="556" 
d="M215 654l25 35l235 -137l-25 -35zM468 0h-43l12 112q-11 -24 -29 -46.5t-42 -39t-54 -26.5t-66 -10q-81 0 -121 52q-19 24 -27 58t-3 80l26 251h44l-25 -240q-8 -72 23 -117t100 -45q42 0 75 17t56 43t37 58.5t17 64.5l23 219h43z" />
    <glyph glyph-name="uacute" unicode="&#xfa;" horiz-adv-x="556" 
d="M220 517l-17 35l263 137l17 -35zM468 0h-43l12 112q-11 -24 -29 -46.5t-42 -39t-54 -26.5t-66 -10q-81 0 -121 52q-19 24 -27 58t-3 80l26 251h44l-25 -240q-8 -72 23 -117t100 -45q42 0 75 17t56 43t37 58.5t17 64.5l23 219h43z" />
    <glyph glyph-name="ucircumflex" unicode="&#xfb;" horiz-adv-x="557" 
d="M357 718l157 -148l-28 -30l-133 128l-161 -128l-23 30zM468 0h-43l12 112q-11 -24 -29 -46.5t-42 -39t-54 -26.5t-66 -10q-81 0 -121 52q-19 24 -27 58t-3 80l26 251h44l-25 -240q-8 -72 23 -117t100 -45q42 0 75 17t56 43t37 58.5t17 64.5l23 219h43z" />
    <glyph glyph-name="udieresis" unicode="&#xfc;" horiz-adv-x="556" 
d="M171 596q0 23 16.5 38.5t37.5 15.5q20 0 32.5 -13.5t12.5 -31.5q0 -23 -16.5 -38t-38.5 -15q-20 0 -32 12.5t-12 31.5zM401 596q0 23 16 38.5t39 15.5q20 0 32.5 -13t12.5 -32q0 -23 -16.5 -38t-38.5 -15q-20 0 -32.5 12.5t-12.5 31.5zM468 0h-43l12 112
q-11 -24 -29 -46.5t-42 -39t-54 -26.5t-66 -10q-81 0 -121 52q-19 24 -27 58t-3 80l26 251h44l-25 -240q-8 -72 23 -117t100 -45q42 0 75 17t56 43t37 58.5t17 64.5l23 219h43z" />
    <glyph glyph-name="yacute" unicode="&#xfd;" horiz-adv-x="562" 
d="M227 517l-16 35l263 137l17 -35zM252 -279q-105 0 -146 52.5t-33 154.5h42q-5 -83 26.5 -126t114.5 -43q40 0 70.5 10.5t51.5 33t34 57t18 83.5l18 169q-12 -24 -29 -46t-40.5 -39t-54.5 -27t-70 -10q-41 0 -71 11.5t-51 37.5q-20 25 -25.5 58.5t0.5 90.5l26 243h41
l-24 -233q-4 -36 -0.5 -67t16.5 -53.5t38 -35.5t64 -13q46 0 80 17t57.5 43t36.5 58.5t16 64.5l23 219h42l-51 -488q-13 -120 -67.5 -171t-152.5 -51z" />
    <glyph glyph-name="thorn" unicode="&#xfe;" horiz-adv-x="585" 
d="M319 30q44 0 81.5 16.5t64.5 44.5t42 64.5t15 77.5q0 34 -11 65t-32.5 53.5t-52.5 36t-70 13.5q-44 0 -81.5 -16.5t-64.5 -44.5t-42.5 -65t-15.5 -77q0 -35 11.5 -65.5t33 -53t52.5 -36t70 -13.5zM60 -268l102 968h42l-40 -379q27 54 80 87t121 33q46 0 83 -16.5
t62.5 -44t39.5 -65t14 -79.5q0 -49 -18.5 -93.5t-51.5 -78.5t-78 -54t-98 -20q-69 0 -114.5 33t-61.5 86l-40 -377h-42z" />
    <glyph glyph-name="ydieresis" unicode="&#xff;" horiz-adv-x="562" 
d="M189 596q0 22 15.5 37t36.5 15q20 0 32 -12.5t12 -31.5q0 -22 -15.5 -37t-37.5 -15q-20 0 -31.5 12.5t-11.5 31.5zM419 596q0 22 15.5 37t37.5 15q19 0 31.5 -12.5t12.5 -31.5q0 -22 -16 -37t-38 -15q-19 0 -31 12.5t-12 31.5zM252 -279q-105 0 -146 52.5t-33 154.5h42
q-5 -83 26.5 -126t114.5 -43q40 0 70.5 10.5t51.5 33t34 57t18 83.5l18 169q-12 -24 -29 -46t-40.5 -39t-54.5 -27t-70 -10q-41 0 -71 11.5t-51 37.5q-20 25 -25.5 58.5t0.5 90.5l26 243h41l-24 -233q-4 -36 -0.5 -67t16.5 -53.5t38 -35.5t64 -13q46 0 80 17t57.5 43
t36.5 58.5t16 64.5l23 219h42l-51 -488q-13 -120 -67.5 -171t-152.5 -51z" />
    <glyph glyph-name="Amacron" unicode="&#x100;" horiz-adv-x="534" 
d="M529 799h-358l4 39h358zM136 185h299l-101 449zM525 0h-46l-34 144h-327l-64 -144h-46l315 700h36z" />
    <glyph glyph-name="amacron" unicode="&#x101;" horiz-adv-x="586" 
d="M509 581h-358l4 39h358zM275 30q44 0 81.5 16.5t64.5 44.5t42.5 64.5t15.5 77.5q0 34 -11.5 65t-33 53.5t-52.5 36t-70 13.5q-44 0 -81.5 -16.5t-64.5 -44.5t-42 -65t-15 -78q0 -34 11 -64.5t32.5 -53t52.5 -36t70 -13.5zM543 431l-45 -431h-43l11 109q-27 -53 -79 -86
t-120 -33q-47 0 -84 16.5t-63 44t-40 64.5t-14 79q0 49 18.5 94t51.5 79t78.5 54t98.5 20q69 0 114 -33t61 -87l12 110h43z" />
    <glyph glyph-name="Abreve" unicode="&#x102;" horiz-adv-x="534" 
d="M352 804q54 0 95 27.5t57 77.5h42q-9 -33 -28.5 -59t-45.5 -44t-58 -27.5t-66 -9.5q-35 0 -64.5 9.5t-51.5 27.5t-35.5 44t-15.5 59h41q6 -50 41 -77.5t89 -27.5zM136 185h299l-101 449zM525 0h-46l-34 144h-327l-64 -144h-46l315 700h36z" />
    <glyph glyph-name="abreve" unicode="&#x103;" horiz-adv-x="586" 
d="M333 594q51 0 89.5 28t55.5 78h41q-9 -33 -27.5 -59t-43 -44t-55 -27.5t-63.5 -9.5q-67 0 -112 37t-50 103h41q6 -50 39.5 -78t84.5 -28zM275 30q44 0 81.5 16.5t64.5 44.5t42.5 64.5t15.5 77.5q0 34 -11.5 65t-33 53.5t-52.5 36t-70 13.5q-44 0 -81.5 -16.5t-64.5 -44.5
t-42 -65t-15 -78q0 -34 11 -64.5t32.5 -53t52.5 -36t70 -13.5zM543 431l-45 -431h-43l11 109q-27 -53 -79 -86t-120 -33q-47 0 -84 16.5t-63 44t-40 64.5t-14 79q0 49 18.5 94t51.5 79t78.5 54t98.5 20q69 0 114 -33t61 -87l12 110h43z" />
    <glyph glyph-name="Aogonek" unicode="&#x104;" horiz-adv-x="534" 
d="M533 -201q-15 -4 -34.5 -7.5t-40.5 -3.5q-51 0 -75.5 24t-24.5 60q0 39 29.5 69.5t91.5 58.5l-34 144h-327l-64 -144h-46l315 700h36l166 -700h-11q-54 -22 -84 -50t-30 -63q0 -28 18.5 -46t51.5 -18q16 0 35.5 3.5t33.5 8.5zM136 185h299l-101 449z" />
    <glyph glyph-name="aogonek" unicode="&#x105;" horiz-adv-x="586" 
d="M498 0h-7q-54 -23 -85 -51t-31 -65q0 -26 17 -43.5t51 -17.5q17 0 36 3.5t32 8.5l-4 -36q-15 -4 -35 -7.5t-41 -3.5q-51 0 -75.5 24t-24.5 60q0 40 29.5 70t94.5 59l11 108q-27 -53 -79 -86t-120 -33q-47 0 -84 16.5t-63 44t-40 64.5t-14 79q0 49 18.5 94t51.5 79
t78.5 54t98.5 20q69 0 114 -33t61 -87l12 110h43zM275 30q44 0 81.5 16.5t64.5 44.5t42.5 64.5t15.5 77.5q0 34 -11.5 65t-33 53.5t-52.5 36t-70 13.5q-44 0 -81.5 -16.5t-64.5 -44.5t-42 -65t-15 -78q0 -34 11 -64.5t32.5 -53t52.5 -36t70 -13.5z" />
    <glyph glyph-name="Cacute" unicode="&#x106;" horiz-adv-x="774" 
d="M367 750l-17 35l263 137l18 -35zM752 197q-21 -45 -54.5 -84t-78 -67t-98 -44t-113.5 -16q-78 0 -139 26.5t-103 71.5t-64 105t-22 128q0 76 28 147.5t79.5 127t125 89t165.5 33.5q66 0 119 -17.5t91.5 -49.5t62 -76t30.5 -97h-46q-7 43 -27 80t-53 63t-78 41t-101 15
q-81 0 -146 -29.5t-110.5 -79t-70 -113t-24.5 -131.5q0 -60 19.5 -113t56 -93t90 -63.5t122.5 -23.5q50 0 95 13t82.5 35.5t66 53.5t46.5 68h49z" />
    <glyph glyph-name="cacute" unicode="&#x107;" horiz-adv-x="519" 
d="M206 517l-16 35l263 137l17 -35zM451 274q0 25 -8 48t-25 41t-43.5 28.5t-64.5 10.5q-48 0 -85 -17.5t-61.5 -46.5t-37.5 -66t-13 -77q0 -33 9 -63t28.5 -52.5t50 -36t72.5 -13.5q69 0 110.5 34t55.5 84h43q-17 -69 -72.5 -113.5t-141.5 -44.5q-51 0 -88.5 16.5
t-61.5 44.5t-35.5 64.5t-11.5 76.5q0 48 16 92.5t47 79.5t76.5 56t104.5 21q48 0 82 -14t55.5 -37.5t31.5 -53.5t10 -62h-43z" />
    <glyph glyph-name="Ccircumflex" unicode="&#x108;" horiz-adv-x="774" 
d="M495 928l157 -148l-28 -30l-133 129l-161 -128l-23 29zM752 197q-21 -45 -54.5 -84t-78 -67t-98 -44t-113.5 -16q-78 0 -139 26.5t-103 71.5t-64 105t-22 128q0 76 28 147.5t79.5 127t125 89t165.5 33.5q66 0 119 -17.5t91.5 -49.5t62 -76t30.5 -97h-46q-7 43 -27 80
t-53 63t-78 41t-101 15q-81 0 -146 -29.5t-110.5 -79t-70 -113t-24.5 -131.5q0 -60 19.5 -113t56 -93t90 -63.5t122.5 -23.5q50 0 95 13t82.5 35.5t66 53.5t46.5 68h49z" />
    <glyph glyph-name="ccircumflex" unicode="&#x109;" horiz-adv-x="519" 
d="M341 718l158 -148l-28 -30l-135 128l-159 -128l-23 30zM451 274q0 25 -8 48t-25 41t-43.5 28.5t-64.5 10.5q-48 0 -85 -17.5t-61.5 -46.5t-37.5 -66t-13 -77q0 -33 9 -63t28.5 -52.5t50 -36t72.5 -13.5q69 0 110.5 34t55.5 84h43q-17 -69 -72.5 -113.5t-141.5 -44.5
q-51 0 -88.5 16.5t-61.5 44.5t-35.5 64.5t-11.5 76.5q0 48 16 92.5t47 79.5t76.5 56t104.5 21q48 0 82 -14t55.5 -37.5t31.5 -53.5t10 -62h-43z" />
    <glyph glyph-name="Cdotaccent" unicode="&#x10a;" horiz-adv-x="774" 
d="M434 816q0 23 16 38.5t39 15.5q20 0 32.5 -12.5t12.5 -32.5q0 -23 -16.5 -38t-38.5 -15q-20 0 -32.5 12.5t-12.5 31.5zM752 197q-21 -45 -54.5 -84t-78 -67t-98 -44t-113.5 -16q-78 0 -139 26.5t-103 71.5t-64 105t-22 128q0 76 28 147.5t79.5 127t125 89t165.5 33.5
q66 0 119 -17.5t91.5 -49.5t62 -76t30.5 -97h-46q-7 43 -27 80t-53 63t-78 41t-101 15q-81 0 -146 -29.5t-110.5 -79t-70 -113t-24.5 -131.5q0 -60 19.5 -113t56 -93t90 -63.5t122.5 -23.5q50 0 95 13t82.5 35.5t66 53.5t46.5 68h49z" />
    <glyph glyph-name="cdotaccent" unicode="&#x10b;" horiz-adv-x="519" 
d="M280 596q0 23 16 38.5t38 15.5q20 0 32 -13t12 -32q0 -23 -16 -38t-38 -15q-20 0 -32 12.5t-12 31.5zM451 274q0 25 -8 48t-25 41t-43.5 28.5t-64.5 10.5q-48 0 -85 -17.5t-61.5 -46.5t-37.5 -66t-13 -77q0 -33 9 -63t28.5 -52.5t50 -36t72.5 -13.5q69 0 110.5 34
t55.5 84h43q-17 -69 -72.5 -113.5t-141.5 -44.5q-51 0 -88.5 16.5t-61.5 44.5t-35.5 64.5t-11.5 76.5q0 48 16 92.5t47 79.5t76.5 56t104.5 21q48 0 82 -14t55.5 -37.5t31.5 -53.5t10 -62h-43z" />
    <glyph glyph-name="Ccaron" unicode="&#x10c;" horiz-adv-x="774" 
d="M326 899l29 29l125 -127l153 127l23 -29l-182 -148zM752 197q-21 -45 -54.5 -84t-78 -67t-98 -44t-113.5 -16q-78 0 -139 26.5t-103 71.5t-64 105t-22 128q0 76 28 147.5t79.5 127t125 89t165.5 33.5q66 0 119 -17.5t91.5 -49.5t62 -76t30.5 -97h-46q-7 43 -27 80t-53 63
t-78 41t-101 15q-81 0 -146 -29.5t-110.5 -79t-70 -113t-24.5 -131.5q0 -60 19.5 -113t56 -93t90 -63.5t122.5 -23.5q50 0 95 13t82.5 35.5t66 53.5t46.5 68h49z" />
    <glyph glyph-name="ccaron" unicode="&#x10d;" horiz-adv-x="519" 
d="M172 687l29 29l126 -126l153 126l22 -29l-181 -147zM451 274q0 25 -8 48t-25 41t-43.5 28.5t-64.5 10.5q-48 0 -85 -17.5t-61.5 -46.5t-37.5 -66t-13 -77q0 -33 9 -63t28.5 -52.5t50 -36t72.5 -13.5q69 0 110.5 34t55.5 84h43q-17 -69 -72.5 -113.5t-141.5 -44.5
q-51 0 -88.5 16.5t-61.5 44.5t-35.5 64.5t-11.5 76.5q0 48 16 92.5t47 79.5t76.5 56t104.5 21q48 0 82 -14t55.5 -37.5t31.5 -53.5t10 -62h-43z" />
    <glyph glyph-name="Dcaron" unicode="&#x10e;" horiz-adv-x="690" 
d="M268 899l30 29l124 -127l154 127l22 -29l-181 -148zM355 700q81 0 142 -27t102.5 -71t62.5 -101.5t21 -118.5q0 -71 -28 -139.5t-80 -122.5t-126.5 -87t-167.5 -33h-193l74 700h193zM201 659l-65 -618h149q81 0 146.5 29t111.5 76.5t71 108t25 123.5q0 54 -18.5 104.5
t-55 89.5t-90.5 63t-125 24h-149z" />
    <glyph glyph-name="dcaron" unicode="&#x10f;" horiz-adv-x="664" 
d="M611 658q0 21 15.5 37t41.5 16q30 0 45.5 -23t15.5 -64q0 -63 -34.5 -91.5t-90.5 -28.5l3 27q30 0 49.5 14t24.5 39q5 17 3.5 26t-3.5 14q-5 -5 -12.5 -7t-15.5 -2q-19 0 -30.5 12t-11.5 31zM275 30q44 0 81.5 16.5t64.5 44.5t42.5 64.5t15.5 77.5q0 34 -11.5 65
t-33 53.5t-52.5 36t-70 13.5q-44 0 -81.5 -16.5t-64.5 -44.5t-42 -65t-15 -78q0 -34 11 -64.5t32.5 -53t52.5 -36t70 -13.5zM528 700h43l-73 -700h-43l11 109q-27 -53 -79 -86t-120 -33q-47 0 -84 16.5t-63 44t-40 64.5t-14 79q0 49 18.5 94t51.5 79t78.5 54t98.5 20
q69 0 114 -33t61 -87z" />
    <glyph glyph-name="Dcroat" unicode="&#x110;" horiz-adv-x="690" 
d="M354 700q81 0 142.5 -27t103 -71t62.5 -101.5t21 -118.5q0 -71 -28 -139.5t-80 -122.5t-126.5 -87t-167.5 -33h-193l35 334h-156l4 40h156l34 326h193zM325 334h-158l-31 -293h149q81 0 146.5 29t111.5 76.5t70.5 108t24.5 123.5q0 54 -18.5 104.5t-54.5 89.5t-90 63
t-125 24h-149l-30 -285h158z" />
    <glyph glyph-name="dcroat" unicode="&#x111;" horiz-adv-x="586" 
d="M275 30q44 0 81.5 16.5t64.5 44.5t42.5 64.5t15.5 77.5q0 34 -11.5 65t-33 53.5t-52.5 36t-70 13.5q-44 0 -81.5 -16.5t-64.5 -44.5t-42 -65t-15 -78q0 -34 11 -64.5t32.5 -53t52.5 -36t70 -13.5zM628 548h-73l-57 -548h-43l11 109q-27 -53 -79 -86t-120 -33
q-47 0 -84 16.5t-63 44t-40 64.5t-14 79q0 49 18.5 94t51.5 79t78.5 54t98.5 20q69 0 114 -33t61 -87l24 227h-124l4 33h124l12 119h43l-12 -119h73z" />
    <glyph glyph-name="Emacron" unicode="&#x112;" horiz-adv-x="541" 
d="M534 799h-358l4 39h358zM201 659l-30 -291h326l-5 -41h-326l-30 -286h326l-4 -41h-370l74 700h370l-5 -41h-326z" />
    <glyph glyph-name="emacron" unicode="&#x113;" horiz-adv-x="513" 
d="M499 581h-358l4 39h358zM114 211q-3 -36 4 -69.5t25 -58.5t48.5 -40t73.5 -15q62 0 101.5 27.5t56.5 65.5h44q-20 -56 -74 -93.5t-131 -37.5q-49 0 -85 16t-59.5 44t-35 64.5t-11.5 78.5q0 51 16.5 96.5t47 79t73 53t93.5 19.5q43 0 77.5 -13.5t58.5 -37.5t37 -57t13 -72
q0 -16 -2 -27t-5 -23h-366zM300 405q-34 0 -64.5 -11t-54.5 -32t-40 -50t-22 -65h325q4 36 -5 65t-28.5 49.5t-48 32t-62.5 11.5z" />
    <glyph glyph-name="Ebreve" unicode="&#x114;" horiz-adv-x="541" 
d="M358 804q54 0 95 27.5t57 77.5h42q-9 -33 -28.5 -59t-45.5 -44t-58 -27.5t-66 -9.5q-70 0 -116.5 37t-50.5 103h41q6 -50 41 -77.5t89 -27.5zM201 659l-30 -291h326l-5 -41h-326l-30 -286h326l-4 -41h-370l74 700h370l-5 -41h-326z" />
    <glyph glyph-name="ebreve" unicode="&#x115;" horiz-adv-x="513" 
d="M324 594q51 0 90.5 28t55.5 78h41q-9 -33 -27.5 -59t-43.5 -44t-55.5 -27.5t-63.5 -9.5t-61.5 9.5t-49.5 27.5t-34 44t-15 59h41q5 -50 38 -78t84 -28zM114 211q-3 -36 4 -69.5t25 -58.5t48.5 -40t73.5 -15q62 0 101.5 27.5t56.5 65.5h44q-20 -56 -74 -93.5t-131 -37.5
q-49 0 -85 16t-59.5 44t-35 64.5t-11.5 78.5q0 51 16.5 96.5t47 79t73 53t93.5 19.5q43 0 77.5 -13.5t58.5 -37.5t37 -57t13 -72q0 -16 -2 -27t-5 -23h-366zM300 405q-34 0 -64.5 -11t-54.5 -32t-40 -50t-22 -65h325q4 36 -5 65t-28.5 49.5t-48 32t-62.5 11.5z" />
    <glyph glyph-name="Edotaccent" unicode="&#x116;" horiz-adv-x="541" 
d="M307 817q0 23 16 38.5t39 15.5q20 0 32 -13t12 -32q0 -23 -16 -38t-39 -15q-20 0 -32 12.5t-12 31.5zM201 659l-30 -291h326l-5 -41h-326l-30 -286h326l-4 -41h-370l74 700h370l-5 -41h-326z" />
    <glyph glyph-name="edotaccent" unicode="&#x117;" horiz-adv-x="513" 
d="M274 595q0 23 15.5 38.5t38.5 15.5q20 0 32 -13t12 -32q0 -23 -15.5 -38t-38.5 -15q-20 0 -32 12.5t-12 31.5zM114 211q-3 -36 4 -69.5t25 -58.5t48.5 -40t73.5 -15q62 0 101.5 27.5t56.5 65.5h44q-20 -56 -74 -93.5t-131 -37.5q-49 0 -85 16t-59.5 44t-35 64.5
t-11.5 78.5q0 51 16.5 96.5t47 79t73 53t93.5 19.5q43 0 77.5 -13.5t58.5 -37.5t37 -57t13 -72q0 -16 -2 -27t-5 -23h-366zM300 405q-34 0 -64.5 -11t-54.5 -32t-40 -50t-22 -65h325q4 36 -5 65t-28.5 49.5t-48 32t-62.5 11.5z" />
    <glyph glyph-name="Eogonek" unicode="&#x118;" horiz-adv-x="541" 
d="M88 0l74 700h370l-5 -41h-326l-30 -291h326l-5 -41h-326l-30 -286h326l-4 -41h-95q-38 -25 -59.5 -54t-21.5 -58q0 -26 19 -45.5t58 -19.5q20 0 42 5t38 10l-5 -35q-16 -5 -39 -10t-48 -5q-55 0 -81 26t-26 63q0 35 23 63.5t71 59.5h-246z" />
    <glyph glyph-name="eogonek" unicode="&#x119;" horiz-adv-x="513" 
d="M362 -197q-17 -5 -39.5 -10t-47.5 -5q-55 0 -81 26t-26 63q0 32 19 59t61 55q-46 2 -79.5 19t-55 44.5t-32 63t-10.5 75.5q0 52 16.5 97t47 78.5t73 53t93.5 19.5q43 0 77.5 -13.5t58.5 -37.5t37 -57t13 -72q0 -16 -2 -27t-5 -23h-365q-4 -35 2.5 -68t25 -58.5t49 -41
t74.5 -15.5q61 0 100.5 27.5t56.5 65.5h44q-9 -25 -26 -47.5t-41 -40.5t-55 -29t-67 -13q-32 -24 -50 -50.5t-18 -52.5t19.5 -45.5t57.5 -19.5q20 0 42 5t38 10zM300 405q-34 0 -64.5 -11t-54.5 -32t-40 -50t-22 -65h325q4 36 -5 65t-28.5 49.5t-48 32t-62.5 11.5z" />
    <glyph glyph-name="Ecaron" unicode="&#x11a;" horiz-adv-x="541" 
d="M199 899l30 29l125 -127l154 127l21 -29l-181 -148zM201 659l-30 -291h326l-5 -41h-326l-30 -286h326l-4 -41h-370l74 700h370l-5 -41h-326z" />
    <glyph glyph-name="ecaron" unicode="&#x11b;" horiz-adv-x="513" 
d="M167 687l29 29l125 -126l153 126l23 -29l-181 -147zM114 211q-3 -36 4 -69.5t25 -58.5t48.5 -40t73.5 -15q62 0 101.5 27.5t56.5 65.5h44q-20 -56 -74 -93.5t-131 -37.5q-49 0 -85 16t-59.5 44t-35 64.5t-11.5 78.5q0 51 16.5 96.5t47 79t73 53t93.5 19.5
q43 0 77.5 -13.5t58.5 -37.5t37 -57t13 -72q0 -16 -2 -27t-5 -23h-366zM300 405q-34 0 -64.5 -11t-54.5 -32t-40 -50t-22 -65h325q4 36 -5 65t-28.5 49.5t-48 32t-62.5 11.5z" />
    <glyph glyph-name="Gcircumflex" unicode="&#x11c;" horiz-adv-x="831" 
d="M500 928l158 -148l-29 -30l-134 129l-161 -128l-22 29zM485 310h346l-4 -41h-72q-13 -63 -42.5 -115t-74 -89.5t-103 -58t-129.5 -20.5q-83 0 -144 27t-102 72t-61 103.5t-20 122.5q0 78 28.5 150.5t80.5 129t124.5 90t161.5 33.5q55 0 101 -13.5t80.5 -37.5t56.5 -57.5
t30 -72.5h-45q-8 29 -27 54.5t-48 44.5t-68 30t-85 11q-78 0 -141.5 -30t-108.5 -79.5t-70 -114.5t-25 -134q0 -57 17.5 -109t53.5 -92t90 -63.5t126 -23.5q61 0 111 17.5t88 49.5t63 76.5t36 98.5h-228z" />
    <glyph glyph-name="gcircumflex" unicode="&#x11d;" horiz-adv-x="585" 
d="M344 718l158 -148l-28 -30l-135 128l-160 -128l-22 30zM312 401q-44 0 -81.5 -16.5t-64.5 -44.5t-42 -65t-15 -77q0 -35 11 -65.5t32.5 -53t52.5 -36t70 -13.5q44 0 81.5 16.5t64.5 44.5t42.5 64.5t15.5 77.5q0 34 -11.5 65t-33 53.5t-52.5 36t-70 13.5zM494 -40
q-7 -66 -28 -111.5t-53 -74t-75 -41t-93 -12.5q-61 0 -101 16.5t-63 45t-31.5 66.5t-6.5 82h42q-2 -33 4.5 -64t24.5 -54.5t50.5 -37.5t83.5 -14q87 0 139.5 47t63.5 152l16 150q-28 -54 -80 -87t-120 -33q-47 0 -84 16.5t-63 44.5t-40 65t-14 79q0 49 19 93.5t52 78.5
t78 54t98 20q69 0 114 -33t62 -87l11 110h44z" />
    <glyph glyph-name="Gbreve" unicode="&#x11e;" horiz-adv-x="831" 
d="M478 804q54 0 94.5 27.5t57.5 77.5h41q-9 -33 -28 -59t-45 -44t-58 -27.5t-66 -9.5q-70 0 -116.5 37t-51.5 103h41q6 -50 41.5 -77.5t89.5 -27.5zM485 310h346l-4 -41h-72q-13 -63 -42.5 -115t-74 -89.5t-103 -58t-129.5 -20.5q-83 0 -144 27t-102 72t-61 103.5
t-20 122.5q0 78 28.5 150.5t80.5 129t124.5 90t161.5 33.5q55 0 101 -13.5t80.5 -37.5t56.5 -57.5t30 -72.5h-45q-8 29 -27 54.5t-48 44.5t-68 30t-85 11q-78 0 -141.5 -30t-108.5 -79.5t-70 -114.5t-25 -134q0 -57 17.5 -109t53.5 -92t90 -63.5t126 -23.5q61 0 111 17.5
t88 49.5t63 76.5t36 98.5h-228z" />
    <glyph glyph-name="gbreve" unicode="&#x11f;" horiz-adv-x="585" 
d="M336 594q51 0 90.5 28t55.5 78h40q-18 -66 -70 -103t-119 -37q-33 0 -61.5 9.5t-50 27.5t-34.5 44t-15 59h41q6 -50 39 -78t84 -28zM312 401q-44 0 -81.5 -16.5t-64.5 -44.5t-42 -65t-15 -77q0 -35 11 -65.5t32.5 -53t52.5 -36t70 -13.5q44 0 81.5 16.5t64.5 44.5
t42.5 64.5t15.5 77.5q0 34 -11.5 65t-33 53.5t-52.5 36t-70 13.5zM494 -40q-7 -66 -28 -111.5t-53 -74t-75 -41t-93 -12.5q-61 0 -101 16.5t-63 45t-31.5 66.5t-6.5 82h42q-2 -33 4.5 -64t24.5 -54.5t50.5 -37.5t83.5 -14q87 0 139.5 47t63.5 152l16 150q-28 -54 -80 -87
t-120 -33q-47 0 -84 16.5t-63 44.5t-40 65t-14 79q0 49 19 93.5t52 78.5t78 54t98 20q69 0 114 -33t62 -87l11 110h44z" />
    <glyph glyph-name="Gdotaccent" unicode="&#x120;" horiz-adv-x="831" 
d="M439 817q0 23 15.5 38.5t38.5 15.5q20 0 32 -13t12 -32q0 -23 -15.5 -38t-38.5 -15q-20 0 -32 12.5t-12 31.5zM485 310h346l-4 -41h-72q-13 -63 -42.5 -115t-74 -89.5t-103 -58t-129.5 -20.5q-83 0 -144 27t-102 72t-61 103.5t-20 122.5q0 78 28.5 150.5t80.5 129
t124.5 90t161.5 33.5q55 0 101 -13.5t80.5 -37.5t56.5 -57.5t30 -72.5h-45q-8 29 -27 54.5t-48 44.5t-68 30t-85 11q-78 0 -141.5 -30t-108.5 -79.5t-70 -114.5t-25 -134q0 -57 17.5 -109t53.5 -92t90 -63.5t126 -23.5q61 0 111 17.5t88 49.5t63 76.5t36 98.5h-228z" />
    <glyph glyph-name="gdotaccent" unicode="&#x121;" horiz-adv-x="585" 
d="M281 595q0 23 15.5 38.5t38.5 15.5q20 0 32 -13t12 -32q0 -23 -15.5 -38t-38.5 -15q-20 0 -32 12.5t-12 31.5zM312 401q-44 0 -81.5 -16.5t-64.5 -44.5t-42 -65t-15 -77q0 -35 11 -65.5t32.5 -53t52.5 -36t70 -13.5q44 0 81.5 16.5t64.5 44.5t42.5 64.5t15.5 77.5
q0 34 -11.5 65t-33 53.5t-52.5 36t-70 13.5zM494 -40q-7 -66 -28 -111.5t-53 -74t-75 -41t-93 -12.5q-61 0 -101 16.5t-63 45t-31.5 66.5t-6.5 82h42q-2 -33 4.5 -64t24.5 -54.5t50.5 -37.5t83.5 -14q87 0 139.5 47t63.5 152l16 150q-28 -54 -80 -87t-120 -33
q-47 0 -84 16.5t-63 44.5t-40 65t-14 79q0 49 19 93.5t52 78.5t78 54t98 20q69 0 114 -33t62 -87l11 110h44z" />
    <glyph glyph-name="Gcommaaccent" unicode="&#x122;" horiz-adv-x="831" 
d="M485 310h346l-4 -41h-72q-13 -63 -42.5 -115t-74 -89.5t-103 -58t-129.5 -20.5q-83 0 -144 27t-102 72t-61 103.5t-20 122.5q0 78 28.5 150.5t80.5 129t124.5 90t161.5 33.5q55 0 101 -13.5t80.5 -37.5t56.5 -57.5t30 -72.5h-45q-8 29 -27 54.5t-48 44.5t-68 30t-85 11
q-78 0 -141.5 -30t-108.5 -79.5t-70 -114.5t-25 -134q0 -57 17.5 -109t53.5 -92t90 -63.5t126 -23.5q61 0 111 17.5t88 49.5t63 76.5t36 98.5h-228zM352 -72q0 17 12.5 30t33.5 13q23 0 36.5 -19t13.5 -52q0 -50 -28.5 -73.5t-73.5 -23.5l2 25q24 0 40 9.5t21 29.5
q3 12 1.5 21.5t-1.5 11.5q-11 -8 -23 -8q-15 0 -24.5 10t-9.5 26z" />
    <glyph glyph-name="gcommaaccent" unicode="&#x123;" horiz-adv-x="585" 
d="M390 570q0 -22 -16 -37.5t-42 -15.5q-29 0 -45 23t-16 63q0 32 10 55t27 37.5t40 21.5t49 7l-3 -28q-29 0 -49 -13.5t-25 -38.5q-5 -17 -4 -26t3 -14q5 5 12.5 7t15.5 2q19 0 31 -12t12 -31zM275 30q44 0 81.5 16.5t64.5 44.5t42.5 64.5t15.5 77.5q0 34 -11.5 65
t-33 53.5t-52.5 36t-70 13.5q-44 0 -81.5 -16.5t-64.5 -44.5t-42 -65t-15 -77q0 -35 11 -65.5t32.5 -53t52.5 -36t70 -13.5zM494 -40q-7 -66 -28 -111.5t-53 -74t-75 -41t-93 -12.5q-61 0 -101 16.5t-63 45t-31.5 66.5t-6.5 82h42q-2 -33 4.5 -64t24.5 -54.5t50.5 -37.5
t83.5 -14q87 0 139.5 47t63.5 152l16 150q-28 -54 -80 -87t-120 -33q-47 0 -84 16.5t-63 44.5t-40 65t-14 79q0 49 19 93.5t52 78.5t78 54t98 20q69 0 114 -33t62 -87l11 110h44z" />
    <glyph glyph-name="Hcircumflex" unicode="&#x124;" horiz-adv-x="661" 
d="M429 928l156 -148l-28 -30l-134 129l-160 -128l-23 29zM563 327h-397l-34 -327h-44l74 700h44l-35 -332h397l35 332h44l-74 -700h-44z" />
    <glyph glyph-name="hcircumflex" unicode="&#x125;" horiz-adv-x="558" 
d="M392 928l157 -148l-28 -30l-135 129l-159 -128l-23 29zM162 700h42l-40 -381q11 24 28.5 46t41.5 39t54.5 27t66.5 10q81 0 122 -52q19 -24 26 -57.5t2 -80.5l-26 -251h-42l25 240q4 34 -1.5 63.5t-20.5 51t-40 34t-61 12.5q-42 0 -75.5 -16.5t-56.5 -43t-37 -59
t-17 -63.5l-23 -219h-42z" />
    <glyph glyph-name="Hbar" unicode="&#x126;" horiz-adv-x="661" 
d="M583 511h-397l-15 -143h397zM206 700l-17 -153h397l17 153h44l-74 -700h-44l34 327h-397l-34 -327h-44l74 700h44z" />
    <glyph glyph-name="hbar" unicode="&#x127;" horiz-adv-x="558" 
d="M407 548h-219l-24 -229q11 23 28.5 45t41.5 39t54.5 27.5t67.5 10.5q81 0 122 -52q19 -24 26 -57.5t2 -80.5l-26 -251h-42l25 240q4 34 -1.5 63.5t-20.5 51t-40 34t-61 12.5q-42 0 -75.5 -16.5t-57 -43t-37.5 -59t-17 -63.5l-23 -219h-42l58 548h-88l3 33h88l13 119h42
l-13 -119h219z" />
    <glyph glyph-name="Itilde" unicode="&#x128;" horiz-adv-x="221" 
d="M267 827q23 0 44.5 16.5t33.5 42.5l33 -16q-21 -40 -52.5 -59t-62.5 -19q-24 0 -41.5 9t-32.5 20.5t-29 20.5t-32 9q-24 0 -44.5 -17t-32.5 -42l-32 18q21 38 52 57t63 19q24 0 41 -9t31 -20.5t28.5 -20.5t32.5 -9zM161 700h45l-73 -700h-45z" />
    <glyph glyph-name="itilde" unicode="&#x129;" horiz-adv-x="218" 
d="M249 603q24 0 45.5 16.5t33.5 42.5l33 -15q-21 -40 -52.5 -59t-63.5 -19q-24 0 -41 9t-31.5 20t-28.5 20t-32 9q-23 0 -44 -16t-34 -42l-32 18q21 38 52 56.5t62 18.5q24 0 41.5 -9t31.5 -20.5t28 -20.5t32 -9zM134 431h42l-46 -431h-42z" />
    <glyph glyph-name="Imacron" unicode="&#x12a;" horiz-adv-x="221" 
d="M374 799h-358l4 39h358zM162 700h45l-74 -700h-45z" />
    <glyph glyph-name="imacron" unicode="&#x12b;" horiz-adv-x="218" 
d="M343 581h-358l4 39h358zM133 431h42l-45 -431h-42z" />
    <glyph glyph-name="Ibreve" unicode="&#x12c;" horiz-adv-x="221" 
d="M196 804q54 0 95 27.5t57 77.5h42q-9 -33 -28 -59t-45.5 -44t-58.5 -27.5t-66 -9.5q-35 0 -64.5 9.5t-51.5 27.5t-35.5 44t-15.5 59h41q6 -50 41 -77.5t89 -27.5zM162 700h45l-74 -700h-45z" />
    <glyph glyph-name="ibreve" unicode="&#x12d;" horiz-adv-x="218" 
d="M172 594q51 0 90 28t55 78h41q-9 -33 -27.5 -59t-43.5 -44t-55.5 -27.5t-63.5 -9.5t-61.5 9.5t-49.5 27.5t-34 44t-15 59h40q6 -50 39.5 -78t84.5 -28zM134 431h42l-46 -431h-42z" />
    <glyph glyph-name="Iogonek" unicode="&#x12e;" horiz-adv-x="221" 
d="M133 0h-10q-38 -25 -59.5 -54t-21.5 -58q0 -26 19 -45.5t58 -19.5q20 0 42 5t38 10l-5 -35q-17 -5 -40 -10t-47 -5q-55 0 -81 26t-26 63t24.5 65.5t69.5 57.5h-6l73 700h45z" />
    <glyph glyph-name="iogonek" unicode="&#x12f;" horiz-adv-x="218" 
d="M123 602q0 23 16.5 38.5t38.5 15.5q20 0 32.5 -13t12.5 -32q0 -23 -16.5 -38.5t-38.5 -15.5q-20 0 -32.5 13t-12.5 32zM192 -197q-17 -5 -40 -10t-47 -5q-55 0 -81 26t-26 63t24.5 65.5t69.5 57.5h-4l45 431h42l-45 -431h-9q-38 -25 -59.5 -54t-21.5 -59q0 -26 19 -45
t58 -19q20 0 42.5 5t37.5 10z" />
    <glyph glyph-name="Idotaccent" unicode="&#x130;" horiz-adv-x="221" 
d="M147 817q0 23 16 38.5t38 15.5q20 0 32.5 -13t12.5 -32q0 -23 -16.5 -38t-38.5 -15q-20 0 -32 12.5t-12 31.5zM162 700h45l-74 -700h-45z" />
    <glyph glyph-name="dotlessi" unicode="&#x131;" horiz-adv-x="214" 
d="M131 431h42l-45 -431h-42z" />
    <glyph glyph-name="Jcircumflex" unicode="&#x134;" horiz-adv-x="535" 
d="M536 928l157 -148l-28 -30l-133 129l-161 -128l-23 29zM483 211q-6 -52 -26 -93.5t-51.5 -71t-72.5 -45t-89 -15.5t-88 16t-67.5 45.5t-40.5 71t-7 92.5h44q-5 -42 5.5 -76t32.5 -58t54 -37t71 -13q38 0 71 12.5t58 36.5t41 58t21 77l51 489h44z" />
    <glyph glyph-name="jcircumflex" unicode="&#x135;" horiz-adv-x="218" 
d="M185 718l158 -148l-29 -30l-134 128l-160 -128l-22 30zM114 -148q-7 -63 -37 -95t-80 -32q-11 0 -28.5 2t-32.5 10l4 40q27 -14 50 -14q37 0 57 23.5t25 67.5l61 577h42z" />
    <glyph glyph-name="Kcommaaccent" unicode="&#x136;" horiz-adv-x="556" 
d="M492 0l-324 339l-36 -339h-44l74 700h44l-36 -339l396 339h59l-407 -350l333 -350h-59zM239 -62q0 18 12.5 31t33.5 13q23 0 36.5 -19t13.5 -52q0 -50 -28.5 -73.5t-74.5 -23.5l3 25q20 0 36.5 8t23.5 31q4 12 3.5 20t-2.5 13q-11 -8 -23 -8q-16 0 -25 10t-9 25z" />
    <glyph glyph-name="kcommaaccent" unicode="&#x137;" horiz-adv-x="432" 
d="M461 431l-255 -216l210 -215h-59l-205 208l-22 -208h-42l74 700h42l-51 -478l249 209h59zM176 -62q0 18 12.5 31t33.5 13q24 0 37 -19t13 -52q0 -50 -28.5 -73.5t-74.5 -23.5l3 25q20 0 36.5 8t23.5 31q4 12 3.5 20t-2.5 13q-11 -8 -23 -8q-16 0 -25 10t-9 25z" />
    <glyph glyph-name="kgreenlandic" unicode="&#x138;" horiz-adv-x="432" 
d="M206 215l210 -215h-59l-205 208l-22 -208h-42l45 431h42l-22 -209l249 209h59z" />
    <glyph glyph-name="Lacute" unicode="&#x139;" horiz-adv-x="418" 
d="M153 750l-17 35l263 137l17 -35zM389 41l-4 -41h-297l74 700h44l-70 -659h253z" />
    <glyph glyph-name="lacute" unicode="&#x13a;" horiz-adv-x="218" 
d="M74 750l-16 35l263 137l17 -35zM162 700h42l-74 -700h-42z" />
    <glyph glyph-name="Lcommaaccent" unicode="&#x13b;" horiz-adv-x="418" 
d="M162 700h44l-70 -659h253l-4 -41h-297zM187 -63q0 18 12.5 31t33.5 13q24 0 37 -19t13 -52q0 -50 -28.5 -73.5t-74.5 -23.5l3 25q21 0 37.5 8t22.5 31q3 11 3 19.5t-2 13.5q-10 -7 -23 -7q-16 0 -25 9.5t-9 24.5z" />
    <glyph glyph-name="lcommaaccent" unicode="&#x13c;" horiz-adv-x="218" 
d="M161 700h42l-73 -700h-42zM59 -62q0 18 13 31t34 13q23 0 36 -19t13 -51q0 -51 -29 -74.5t-74 -23.5l3 25q24 0 39.5 9.5t20.5 29.5q5 14 4 21t-3 12q-10 -8 -24 -8t-23.5 10t-9.5 25z" />
    <glyph glyph-name="Lcaron" unicode="&#x13d;" horiz-adv-x="418" 
d="M339 658q0 22 16 38t42 16q29 0 45 -23.5t16 -64.5q0 -62 -35 -90.5t-91 -28.5l3 27q61 0 74 52q4 14 3.5 25t-2.5 16q-11 -10 -28 -10q-19 0 -31 12.5t-12 30.5zM389 41l-4 -41h-297l74 700h44l-70 -659h253z" />
    <glyph glyph-name="lcaron" unicode="&#x13e;" horiz-adv-x="297" 
d="M244 658q0 22 16 38t42 16q29 0 45 -23.5t16 -64.5q0 -62 -35 -90.5t-92 -28.5l3 27q30 0 49.5 13.5t24.5 38.5q5 17 4.5 26.5t-2.5 14.5q-11 -10 -28 -10q-20 0 -31.5 13t-11.5 30zM162 700h42l-74 -700h-42z" />
    <glyph glyph-name="Ldot" unicode="&#x13f;" horiz-adv-x="418" 
d="M389 41l-4 -41h-297l74 700h44l-70 -659h253zM289 377q0 23 15.5 38.5t37.5 15.5q20 0 32.5 -13t12.5 -33q0 -22 -16 -37.5t-39 -15.5q-20 0 -31.5 12.5t-11.5 32.5z" />
    <glyph glyph-name="ldot" unicode="&#x140;" horiz-adv-x="299" 
d="M162 700h42l-74 -700h-42zM243 317q0 23 16.5 38.5t37.5 15.5q20 0 32.5 -13.5t12.5 -31.5q0 -23 -16.5 -38.5t-38.5 -15.5q-20 0 -32 13t-12 32z" />
    <glyph glyph-name="Lslash" unicode="&#x141;" horiz-adv-x="418" 
d="M389 41l-4 -41h-297l31 298l-63 -32l4 41l64 31l38 362h44l-36 -342l165 81l-4 -40l-166 -81l-29 -277h253z" />
    <glyph glyph-name="lslash" unicode="&#x142;" horiz-adv-x="218" 
d="M121 319l-100 -52l4 39l100 51l37 343h45l-34 -319l109 57l-4 -39l-109 -56l-36 -343h-45z" />
    <glyph glyph-name="Nacute" unicode="&#x143;" horiz-adv-x="660" 
d="M302 750l-16 35l263 137l16 -35zM536 74l66 626h44l-74 -700h-49l-325 626l-66 -626h-44l74 700h50z" />
    <glyph glyph-name="nacute" unicode="&#x144;" horiz-adv-x="558" 
d="M235 517l-17 35l263 137l18 -35zM133 431h42l-11 -112q11 24 28.5 46t41.5 39t54.5 27t66.5 10q81 0 122 -52q19 -24 26 -57.5t2 -80.5l-26 -251h-42l25 240q4 34 -1.5 63.5t-20.5 51t-40 34t-61 12.5q-42 0 -75.5 -16.5t-56.5 -43t-37 -59t-17 -63.5l-23 -219h-42z" />
    <glyph glyph-name="Ncommaaccent" unicode="&#x145;" horiz-adv-x="660" 
d="M523 0l-325 626l-66 -626h-44l74 700h50l324 -626l66 626h44l-74 -700h-49zM289 -63q0 18 12.5 31t33.5 13q24 0 37 -19t13 -52q0 -50 -28.5 -73.5t-74.5 -23.5l3 25q21 0 37.5 8t22.5 31q3 11 3 19.5t-2 13.5q-10 -7 -22 -7q-16 0 -25.5 9.5t-9.5 24.5z" />
    <glyph glyph-name="ncommaaccent" unicode="&#x146;" horiz-adv-x="558" 
d="M88 0l45 431h42l-11 -112q11 24 28.5 46t41.5 39t54.5 27t66.5 10q81 0 122 -52q19 -24 26 -57.5t2 -80.5l-26 -251h-42l25 240q4 34 -1.5 63.5t-20.5 51t-40 34t-61 12.5q-42 0 -75.5 -16.5t-56.5 -43t-37 -59t-17 -63.5l-23 -219h-42zM242 -62q0 18 13 31t33 13
q24 0 37 -19t13 -52q0 -50 -28.5 -73.5t-74.5 -23.5l3 25q21 0 37.5 8t22.5 31q3 11 3 19.5t-2 13.5q-10 -8 -23 -8q-15 0 -24.5 9.5t-9.5 25.5z" />
    <glyph glyph-name="Ncaron" unicode="&#x147;" horiz-adv-x="660" 
d="M270 899l30 29l124 -127l154 127l22 -29l-181 -148zM536 74l66 626h44l-74 -700h-49l-325 626l-66 -626h-44l74 700h50z" />
    <glyph glyph-name="ncaron" unicode="&#x148;" horiz-adv-x="558" 
d="M204 687l29 29l126 -126l153 126l23 -29l-181 -147zM88 0l45 431h42l-11 -112q11 24 28.5 46t41.5 39t54.5 27t66.5 10q81 0 122 -52q19 -24 26 -57.5t2 -80.5l-26 -251h-42l25 240q4 34 -1.5 63.5t-20.5 51t-40 34t-61 12.5q-42 0 -75.5 -16.5t-56.5 -43t-37 -59
t-17 -63.5l-23 -219h-42z" />
    <glyph glyph-name="napostrophe" unicode="&#x149;" horiz-adv-x="558" 
d="M56 671q0 18 12.5 31t33.5 13q24 0 37 -19t13 -52q0 -50 -28.5 -73.5t-74.5 -23.5l3 25q21 0 37.5 8t22.5 31q3 11 3 19.5t-2 13.5q-11 -8 -23 -8q-16 0 -25 10t-9 25zM88 0l45 431h42l-11 -112q11 24 28.5 46t41.5 39t54.5 27t66.5 10q81 0 122 -52q19 -24 26 -57.5
t2 -80.5l-26 -251h-42l25 240q4 34 -1.5 63.5t-20.5 51t-40 34t-61 12.5q-42 0 -75.5 -16.5t-56.5 -43t-37 -59t-17 -63.5l-23 -219h-42z" />
    <glyph glyph-name="Eng" unicode="&#x14a;" horiz-adv-x="660" 
d="M537 81l65 619h44l-79 -752q-5 -51 -25 -92t-51 -70.5t-72 -45.5t-89 -16q-59 0 -105 23.5t-72 66.5l31 29q23 -37 61 -58t88 -21q37 0 70 12.5t58 36t41.5 57.5t20.5 78l5 52l-330 626l-66 -626h-44l74 700h47z" />
    <glyph glyph-name="eng" unicode="&#x14b;" horiz-adv-x="558" 
d="M107 -175q24 -31 58 -47.5t77 -16.5q37 0 70 12.5t57.5 35.5t40.5 57t21 76l32 298q4 34 -1.5 63.5t-21 51t-40.5 34t-61 12.5q-42 0 -75.5 -16.5t-56.5 -43t-37 -59t-17 -63.5l-23 -219h-42l46 431h42l-12 -112q11 24 29 46t42 39t54 27t66 10q82 0 122 -52
q19 -24 26.5 -57.5t2.5 -80.5l-33 -309q-5 -51 -25 -91.5t-51 -69.5t-71.5 -44.5t-86.5 -15.5q-53 0 -95 20t-68 56z" />
    <glyph glyph-name="Omacron" unicode="&#x14c;" horiz-adv-x="809" 
d="M667 799h-358l4 39h358zM406 -14q-79 0 -140 27t-102 72.5t-62.5 105t-21.5 124.5q0 76 29 148t81 128t125 89.5t162 33.5q79 0 139.5 -27t102 -72.5t62.5 -105t21 -124.5q0 -77 -28.5 -148.5t-81 -127.5t-125.5 -89.5t-161 -33.5zM410 27q77 0 141 30t109.5 79.5
t71 113.5t25.5 132q0 57 -18.5 109.5t-54.5 93t-89.5 64.5t-122.5 24q-77 0 -141 -30t-109.5 -79.5t-70.5 -113.5t-25 -132q0 -57 18.5 -109.5t54.5 -93t89 -64.5t122 -24z" />
    <glyph glyph-name="omacron" unicode="&#x14d;" horiz-adv-x="543" 
d="M511 581h-358l4 39h358zM272 -10q-49 0 -87 16t-64.5 44t-40.5 65t-14 79q0 49 18.5 94t51.5 79t79 54t100 20q49 0 87.5 -16.5t65 -44t40.5 -65t14 -79.5q0 -49 -18.5 -93.5t-52 -78.5t-79.5 -54t-100 -20zM275 30q44 0 81.5 16.5t64.5 44.5t42.5 64.5t15.5 77.5
q0 34 -11.5 65t-33 53.5t-52.5 36t-70 13.5q-44 0 -81.5 -16.5t-64.5 -44.5t-42 -65t-15 -78q0 -34 11 -64.5t32.5 -53t52.5 -36t70 -13.5z" />
    <glyph glyph-name="Obreve" unicode="&#x14e;" horiz-adv-x="809" 
d="M489 804q54 0 95 27.5t58 77.5h41q-9 -33 -28 -59t-45 -44t-58 -27.5t-67 -9.5t-64.5 9.5t-51.5 27.5t-35.5 44t-15.5 59h41q6 -50 41 -77.5t89 -27.5zM406 -14q-79 0 -140 27t-102 72.5t-62.5 105t-21.5 124.5q0 76 29 148t81 128t125 89.5t162 33.5q79 0 139.5 -27
t102 -72.5t62.5 -105t21 -124.5q0 -77 -28.5 -148.5t-81 -127.5t-125.5 -89.5t-161 -33.5zM410 27q77 0 141 30t109.5 79.5t71 113.5t25.5 132q0 57 -18.5 109.5t-54.5 93t-89.5 64.5t-122.5 24q-77 0 -141 -30t-109.5 -79.5t-70.5 -113.5t-25 -132q0 -57 18.5 -109.5
t54.5 -93t89 -64.5t122 -24z" />
    <glyph glyph-name="obreve" unicode="&#x14f;" horiz-adv-x="543" 
d="M332 594q51 0 90 28t56 78h40q-18 -66 -70 -103t-119 -37q-33 0 -61.5 9.5t-50 27.5t-34.5 44t-15 59h41q5 -50 38.5 -78t84.5 -28zM272 -10q-49 0 -87 16t-64.5 44t-40.5 65t-14 79q0 49 18.5 94t51.5 79t79 54t100 20q49 0 87.5 -16.5t65 -44t40.5 -65t14 -79.5
q0 -49 -18.5 -93.5t-52 -78.5t-79.5 -54t-100 -20zM275 30q44 0 81.5 16.5t64.5 44.5t42.5 64.5t15.5 77.5q0 34 -11.5 65t-33 53.5t-52.5 36t-70 13.5q-44 0 -81.5 -16.5t-64.5 -44.5t-42 -65t-15 -78q0 -34 11 -64.5t32.5 -53t52.5 -36t70 -13.5z" />
    <glyph glyph-name="Ohungarumlaut" unicode="&#x150;" horiz-adv-x="809" 
d="M487 939l36 -19l-153 -161l-25 14zM682 939l36 -19l-153 -162l-25 15zM406 -14q-79 0 -140 27t-102 72.5t-62.5 105t-21.5 124.5q0 76 29 148t81 128t125 89.5t162 33.5q79 0 139.5 -27t102 -72.5t62.5 -105t21 -124.5q0 -77 -28.5 -148.5t-81 -127.5t-125.5 -89.5
t-161 -33.5zM410 27q77 0 141 30t109.5 79.5t71 113.5t25.5 132q0 57 -18.5 109.5t-54.5 93t-89.5 64.5t-122.5 24q-77 0 -141 -30t-109.5 -79.5t-70.5 -113.5t-25 -132q0 -57 18.5 -109.5t54.5 -93t89 -64.5t122 -24z" />
    <glyph glyph-name="ohungarumlaut" unicode="&#x151;" horiz-adv-x="543" 
d="M404 513l-25 15l143 166l35 -19zM327 694l35 -19l-153 -161l-25 14zM272 -10q-49 0 -87 16t-64.5 44t-40.5 65t-14 79q0 49 18.5 94t51.5 79t79 54t100 20q49 0 87.5 -16.5t65 -44t40.5 -65t14 -79.5q0 -49 -18.5 -93.5t-52 -78.5t-79.5 -54t-100 -20zM275 30
q44 0 81.5 16.5t64.5 44.5t42.5 64.5t15.5 77.5q0 34 -11.5 65t-33 53.5t-52.5 36t-70 13.5q-44 0 -81.5 -16.5t-64.5 -44.5t-42 -65t-15 -78q0 -34 11 -64.5t32.5 -53t52.5 -36t70 -13.5z" />
    <glyph glyph-name="OE" unicode="&#x152;" horiz-adv-x="1172" 
d="M411 26q77 0 141 30t109.5 79.5t70.5 113.5t25 132q0 57 -18.5 109.5t-54.5 93t-89 65t-122 24.5q-77 0 -141 -30t-110 -79.5t-71 -113.5t-25 -132q0 -57 18.5 -110t54.5 -93.5t89.5 -64.5t122.5 -24zM832 659l-31 -291h327l-4 -41h-327l-30 -286h327l-5 -41h-371l20 188
q-23 -43 -56 -80t-76 -64.5t-94 -43t-109 -15.5q-78 0 -138 27t-101 73t-62.5 105.5t-21.5 124.5q0 76 29 148t81.5 127.5t125.5 89.5t162 34q58 0 106 -15t85 -42t63 -64t40 -82l20 189h371l-4 -41h-327z" />
    <glyph glyph-name="oe" unicode="&#x153;" horiz-adv-x="919" 
d="M520 211q-4 -36 3 -69.5t26 -58.5t49.5 -40t73.5 -15q61 0 100 27.5t56 65.5h43q-9 -26 -27 -50t-44 -42t-59.5 -28.5t-72.5 -10.5q-38 0 -68.5 10t-53 28t-37 42t-21.5 52q-29 -57 -86.5 -94.5t-131.5 -37.5q-48 0 -86 16.5t-64 44t-40 64.5t-14 79q0 49 18.5 94
t51.5 79t79 54t101 20q75 0 124 -37t66 -94q28 59 80.5 95t122.5 36q42 0 76 -13.5t58 -37.5t37 -57t13 -72q0 -16 -2 -27t-6 -23h-365zM705 403q-34 0 -64 -11t-54 -31.5t-40 -49t-22 -64.5h325q3 35 -6 63.5t-28.5 49t-48 32t-62.5 11.5zM276 30q44 0 81 16.5t64 44
t42.5 64.5t15.5 78q0 35 -11.5 65.5t-33 53.5t-52.5 36t-70 13q-44 0 -81.5 -16.5t-64.5 -44.5t-42 -65t-15 -78q0 -34 11 -64.5t32.5 -53t52.5 -36t71 -13.5z" />
    <glyph glyph-name="Racute" unicode="&#x154;" horiz-adv-x="599" 
d="M264 750l-17 35l263 137l17 -35zM354 291q45 0 82.5 16.5t64.5 44t42 64t15 76.5q0 34 -11.5 64.5t-32.5 53.5t-52 36t-70 13h-191l-38 -368h191zM162 700h235q48 0 86.5 -16t64.5 -44t40 -65t14 -79q0 -43 -14 -82t-40 -71t-62 -54.5t-79 -32.5l138 -256h-52l-134 250
h-201l-26 -250h-44z" />
    <glyph glyph-name="racute" unicode="&#x155;" horiz-adv-x="340" 
d="M136 522l-16 35l263 137l16 -35zM379 391q-13 4 -21.5 5t-17.5 1q-45 0 -78.5 -18t-57 -47t-37 -65t-17.5 -72l-20 -195h-42l45 431h42l-12 -119q29 64 78 95t101 31q26 0 41 -7z" />
    <glyph glyph-name="Rcommaaccent" unicode="&#x156;" horiz-adv-x="599" 
d="M201 659l-38 -368h191q45 0 82.5 16.5t64.5 44t42 64t15 76.5q0 34 -11.5 64.5t-32.5 53.5t-52 36t-70 13h-191zM162 700h235q48 0 86.5 -16t64.5 -44t40 -65t14 -79q0 -43 -14 -82t-40 -71t-62 -54.5t-79 -32.5l138 -256h-52l-134 250h-201l-26 -250h-44zM250 -63
q0 18 13 31t33 13q24 0 37 -19t13 -52q0 -50 -28.5 -73.5t-74.5 -23.5l3 25q32 0 49 14.5t17 38.5q0 9 -1.5 13t-3.5 6q-5 -4 -11 -5.5t-11 -1.5q-16 0 -25.5 9.5t-9.5 24.5z" />
    <glyph glyph-name="rcommaaccent" unicode="&#x157;" horiz-adv-x="340" 
d="M379 391q-14 4 -22.5 5t-17.5 1q-45 0 -78.5 -18t-57 -47t-36.5 -65t-17 -72l-20 -195h-42l45 431h42l-13 -119q29 64 78.5 95t101.5 31q24 0 41 -7zM59 -62q0 18 13 31t34 13q23 0 36 -19t13 -51q0 -51 -29 -74.5t-74 -23.5l3 25q24 0 39.5 9.5t20.5 29.5q5 14 4 21
t-3 12q-10 -8 -24 -8t-23.5 10t-9.5 25z" />
    <glyph glyph-name="Rcaron" unicode="&#x158;" horiz-adv-x="599" 
d="M222 899l30 29l125 -127l154 127l22 -29l-182 -148zM354 291q45 0 82.5 16.5t64.5 44t42 64t15 76.5q0 34 -11.5 64.5t-32.5 53.5t-52 36t-70 13h-191l-38 -368h191zM162 700h235q48 0 86.5 -16t64.5 -44t40 -65t14 -79q0 -43 -14 -82t-40 -71t-62 -54.5t-79 -32.5
l138 -256h-52l-134 250h-201l-26 -250h-44z" />
    <glyph glyph-name="rcaron" unicode="&#x159;" horiz-adv-x="340" 
d="M100 687l29 29l126 -126l153 126l22 -29l-181 -147zM379 391q-13 4 -21.5 5t-17.5 1q-45 0 -78.5 -18t-57 -47t-37 -65t-17.5 -72l-20 -195h-42l45 431h42l-12 -119q29 64 78 95t101 31q26 0 41 -7z" />
    <glyph glyph-name="Sacute" unicode="&#x15a;" horiz-adv-x="573" 
d="M259 750l-18 35l264 137l17 -35zM115 211q-4 -40 6 -74t34 -58.5t61 -38t86 -13.5q44 0 80.5 11t63 32t41 51t14.5 68q0 37 -14 61.5t-36.5 40.5t-51.5 25t-60 17q-40 10 -77.5 22t-66 31.5t-46 49t-17.5 76.5q0 44 16 81t46.5 64t74 42t98.5 15q106 0 156 -55.5
t42 -150.5h-44q5 76 -33 120.5t-126 44.5q-44 0 -78.5 -11.5t-58.5 -32t-36.5 -49t-12.5 -61.5q0 -36 14 -59.5t37 -38.5t54 -24.5t64 -17.5q40 -10 76 -22.5t64 -33t44.5 -51.5t16.5 -77q0 -50 -19 -88.5t-52.5 -65.5t-79.5 -41t-99 -14q-59 0 -103.5 16.5t-73 46.5t-41 71
t-7.5 91h44z" />
    <glyph glyph-name="sacute" unicode="&#x15b;" horiz-adv-x="448" 
d="M163 517l-18 35l264 137l17 -35zM265 232q30 -6 56 -13t45 -18.5t30 -29.5t11 -48q0 -61 -46.5 -97t-129.5 -36q-38 0 -70.5 9t-55.5 27.5t-34.5 48t-6.5 71.5h42q-3 -33 5.5 -56t26.5 -37t43 -20t54 -6q63 0 97 24.5t34 66.5q0 22 -9.5 35.5t-27 22.5t-43 15t-58.5 13
q-27 6 -51.5 12.5t-42.5 17.5t-28.5 29t-10.5 46q0 31 13 55.5t35.5 41.5t53.5 26t67 9q35 0 65 -8.5t51 -26.5t31.5 -45t7.5 -63h-42q5 53 -26.5 79.5t-87.5 26.5t-91.5 -24.5t-35.5 -67.5q0 -20 8.5 -32.5t25 -21t40.5 -14.5t55 -12z" />
    <glyph glyph-name="Scircumflex" unicode="&#x15c;" horiz-adv-x="573" 
d="M394 928l158 -148l-28 -30l-135 129l-159 -128l-23 29zM115 211q-4 -40 6 -74t34 -58.5t61 -38t86 -13.5q44 0 80.5 11t63 32t41 51t14.5 68q0 37 -14 61.5t-36.5 40.5t-51.5 25t-60 17q-40 10 -77.5 22t-66 31.5t-46 49t-17.5 76.5q0 44 16 81t46.5 64t74 42t98.5 15
q106 0 156 -55.5t42 -150.5h-44q5 76 -33 120.5t-126 44.5q-44 0 -78.5 -11.5t-58.5 -32t-36.5 -49t-12.5 -61.5q0 -36 14 -59.5t37 -38.5t54 -24.5t64 -17.5q40 -10 76 -22.5t64 -33t44.5 -51.5t16.5 -77q0 -50 -19 -88.5t-52.5 -65.5t-79.5 -41t-99 -14q-59 0 -103.5 16.5
t-73 46.5t-41 71t-7.5 91h44z" />
    <glyph glyph-name="scircumflex" unicode="&#x15d;" horiz-adv-x="448" 
d="M298 718l157 -148l-28 -30l-134 128l-161 -128l-23 30zM265 232q30 -6 56 -13t45 -18.5t30 -29.5t11 -48q0 -61 -46.5 -97t-129.5 -36q-38 0 -70.5 9t-55.5 27.5t-34.5 48t-6.5 71.5h42q-3 -33 5.5 -56t26.5 -37t43 -20t54 -6q63 0 97 24.5t34 66.5q0 22 -9.5 35.5
t-27 22.5t-43 15t-58.5 13q-27 6 -51.5 12.5t-42.5 17.5t-28.5 29t-10.5 46q0 31 13 55.5t35.5 41.5t53.5 26t67 9q35 0 65 -8.5t51 -26.5t31.5 -45t7.5 -63h-42q5 53 -26.5 79.5t-87.5 26.5t-91.5 -24.5t-35.5 -67.5q0 -20 8.5 -32.5t25 -21t40.5 -14.5t55 -12z" />
    <glyph glyph-name="Scedilla" unicode="&#x15e;" horiz-adv-x="573" 
d="M260 -13q-48 5 -85.5 23t-62 47.5t-35.5 68.5t-6 85h44q-4 -40 6 -74t34 -58.5t61 -38t86 -13.5q44 0 80.5 11t63 32t41 51.5t14.5 69.5q0 37 -13.5 61.5t-36.5 40t-54 25.5t-67 18q-37 10 -72.5 21.5t-63.5 31t-45 49t-17 75.5q0 43 16.5 80t47 64t74 42t97.5 15
q106 0 156 -55t42 -151h-44q5 76 -33 120.5t-126 44.5q-44 0 -78.5 -11.5t-58.5 -32t-36.5 -48.5t-12.5 -61q0 -36 14.5 -60t38 -39t54 -24.5t63.5 -17.5q39 -11 75.5 -23t64 -32t44 -50.5t16.5 -77.5q0 -50 -19 -89t-52.5 -65.5t-80.5 -40.5t-102 -15l-7 -69q10 16 27 24
t36 8q34 0 56 -23t22 -58q0 -20 -7.5 -38.5t-21 -32.5t-32.5 -22.5t-42 -8.5q-18 0 -34 6t-28 17.5t-18.5 28t-5.5 38.5h31q-2 -23 12 -42t44 -19q32 0 51 21t19 49q0 24 -14.5 40.5t-43.5 16.5q-13 0 -28.5 -7t-30.5 -33h-28z" />
    <glyph glyph-name="scedilla" unicode="&#x15f;" horiz-adv-x="448" 
d="M199 -8q-32 3 -58.5 13.5t-45 29.5t-27 46t-4.5 65h42q-4 -33 4.5 -55.5t26.5 -36.5t43 -20.5t54 -6.5q63 0 97 24.5t34 66.5q0 24 -11 38t-29.5 22.5t-44 14t-55.5 12.5q-27 5 -50.5 11.5t-41.5 18t-28 29t-10 45.5q0 31 13 55.5t35.5 41.5t53.5 26t67 9q35 0 65 -8.5
t51 -26.5t31.5 -45t6.5 -63h-42q6 53 -25.5 79.5t-87.5 26.5t-91.5 -24t-35.5 -66q0 -21 9.5 -34t27.5 -21.5t43.5 -14t57.5 -12.5q25 -6 49 -12.5t42.5 -18t30 -30.5t11.5 -49q0 -61 -47 -95.5t-128 -35.5l-8 -74q11 16 28 24t36 8q33 0 55 -23t22 -58q0 -20 -7.5 -38.5
t-21 -32.5t-32.5 -22.5t-41 -8.5q-37 0 -63 23.5t-24 66.5h31q-1 -23 13 -42t44 -19q31 0 50.5 21t19.5 49q0 23 -15 40t-44 17q-13 0 -28.5 -7t-29.5 -33h-29z" />
    <glyph glyph-name="Scaron" unicode="&#x160;" horiz-adv-x="573" 
d="M229 907l29 29l125 -127l154 127l22 -29l-182 -148zM115 211q-4 -40 6 -74t34 -58.5t61 -38t86 -13.5q44 0 80.5 11t63 32t41 51t14.5 68q0 37 -14 61.5t-36.5 40.5t-51.5 25t-60 17q-40 10 -77.5 22t-66 31.5t-46 49t-17.5 76.5q0 44 16.5 81t47 64t74 42t98.5 15
q106 0 155.5 -55.5t41.5 -150.5h-44q5 76 -33 120.5t-126 44.5q-44 0 -78.5 -11.5t-58.5 -32t-36.5 -49t-12.5 -61.5q0 -36 14 -59.5t37 -38.5t54 -24.5t64 -17.5q40 -10 76 -22.5t64 -33t44.5 -51.5t16.5 -77q0 -50 -19 -88.5t-52.5 -65.5t-79.5 -41t-99 -14
q-59 0 -103.5 16.5t-73 46.5t-41 71t-7.5 91h44z" />
    <glyph glyph-name="scaron" unicode="&#x161;" horiz-adv-x="448" 
d="M131 682l29 29l125 -127l153 127l23 -29l-182 -148zM265 232q30 -6 56 -13t45 -18.5t30 -29.5t11 -48q0 -61 -46.5 -97t-129.5 -36q-38 0 -70.5 9t-55.5 27.5t-34.5 48t-6.5 71.5h42q-3 -33 5.5 -56t26.5 -37t43 -20t54 -6q63 0 97 24.5t34 66.5q0 22 -9.5 35.5t-27 22.5
t-43 15t-58.5 13q-27 6 -51.5 12.5t-42.5 17.5t-28.5 29t-10.5 46q0 31 13 55.5t35.5 41.5t53.5 26t67 9q35 0 65 -8.5t51 -26.5t31.5 -45t7.5 -63h-42q5 53 -26.5 79.5t-87.5 26.5t-91.5 -24.5t-35.5 -67.5q0 -20 8.5 -32.5t25 -21t40.5 -14.5t55 -12z" />
    <glyph glyph-name="Tcommaaccent" unicode="&#x162;" horiz-adv-x="469" 
d="M281 659h-196l4 41h437l-4 -41h-197l-69 -659h-44zM185 -63q0 18 13.5 31t34.5 13q23 0 35.5 -19t12.5 -51q0 -51 -28 -74.5t-74 -23.5l3 25q32 0 49 14.5t17 40.5q0 14 -5 17q-5 -4 -11 -5.5t-12 -1.5q-16 0 -25.5 9.5t-9.5 24.5z" />
    <glyph glyph-name="tcommaaccent" unicode="&#x163;" horiz-adv-x="317" 
d="M65 431h95l18 176h42l-18 -176h139l-4 -38h-139l-26 -244q-4 -38 1 -61t16 -35t27 -15.5t34 -3.5q14 0 33 1.5t33 3.5l-4 -39q-14 -2 -33.5 -4t-39.5 -2q-25 0 -47 5t-37.5 20.5t-22.5 45t-2 78.5l26 250h-95zM138 -62q0 18 13.5 31t33.5 13q23 0 36 -19t13 -52
q0 -50 -28 -73.5t-74 -23.5l3 25q21 0 37.5 8t22.5 31q2 8 2.5 18t-2.5 15q-8 -8 -23 -8t-24.5 10t-9.5 25z" />
    <glyph glyph-name="Tcaron" unicode="&#x164;" horiz-adv-x="469" 
d="M163 899l29 29l126 -127l153 127l23 -29l-181 -148zM281 659h-196l4 41h437l-4 -41h-197l-69 -659h-44z" />
    <glyph glyph-name="tcaron" unicode="&#x165;" horiz-adv-x="371" 
d="M287 652q0 22 16 38t42 16q29 0 45 -22.5t16 -64.5q0 -62 -34.5 -91t-91.5 -29l3 27q32 0 50.5 15t24.5 38q4 14 3 24.5t-3 15.5q-12 -9 -28 -9q-19 0 -31 12t-12 30zM65 431h95l18 176h42l-18 -176h139l-4 -38h-139l-26 -244q-4 -38 1 -61t16 -35t27 -15.5t34 -3.5
q14 0 33 1.5t33 3.5l-4 -39q-14 -2 -33.5 -4t-39.5 -2q-25 0 -47 5t-37.5 20.5t-22.5 45t-2 78.5l26 250h-95z" />
    <glyph glyph-name="Tbar" unicode="&#x166;" horiz-adv-x="469" 
d="M465 461h-161l-48 -461h-44l48 461h-153l4 36h153l17 162h-196l4 41h437l-4 -41h-197l-17 -162h161z" />
    <glyph glyph-name="tbar" unicode="&#x167;" horiz-adv-x="317" 
d="M312 0q-13 -2 -32.5 -4t-39.5 -2q-25 0 -47 5t-38 20.5t-23 45t-2 78.5l9 82h-95l4 34h95l14 134h-95l4 38h95l18 176h42l-18 -176h139l-4 -38h-139l-14 -134h132l-4 -34h-132l-8 -76q-4 -38 1 -61t16 -35t27 -15.5t34 -3.5q14 0 33 1.5t32 3.5z" />
    <glyph glyph-name="Utilde" unicode="&#x168;" horiz-adv-x="606" 
d="M460 827q25 0 46 17t33 42l33 -16q-22 -40 -53 -59t-62 -19q-24 0 -41.5 9t-32.5 20.5t-29 20.5t-32 9q-24 0 -45 -17t-32 -42l-32 18q21 38 52 57t62 19q24 0 41.5 -9t31.5 -20.5t28 -20.5t32 -9zM148 700h44l-51 -488q-4 -38 5.5 -71.5t30.5 -58.5t53.5 -40t74.5 -15
t77.5 15t62.5 40t43.5 58.5t20.5 71.5l51 488h44l-51 -488q-5 -46 -25.5 -87t-53.5 -72t-77 -49t-96 -18q-53 0 -93 18.5t-66.5 49.5t-38 72t-6.5 86z" />
    <glyph glyph-name="utilde" unicode="&#x169;" horiz-adv-x="556" 
d="M407 603q25 0 46.5 17.5t32.5 41.5l33 -15q-21 -40 -52.5 -59t-63.5 -19q-24 0 -41 9t-31.5 20t-28.5 20t-32 9q-23 0 -44 -16t-34 -42l-32 18q22 38 52.5 56.5t61.5 18.5q24 0 41.5 -9t32 -20.5t28 -20.5t31.5 -9zM468 0h-43l12 112q-11 -24 -29 -46.5t-42 -39
t-54 -26.5t-66 -10q-81 0 -121 52q-19 24 -27 58t-3 80l26 251h44l-25 -240q-8 -72 23 -117t100 -45q42 0 75 17t56 43t37 58.5t17 64.5l23 219h43z" />
    <glyph glyph-name="Umacron" unicode="&#x16a;" horiz-adv-x="606" 
d="M566 799h-358l4 39h358zM148 700h44l-51 -488q-4 -38 5.5 -71.5t30.5 -58.5t53.5 -40t74.5 -15t77.5 15t62.5 40t43.5 58.5t20.5 71.5l51 488h44l-51 -488q-5 -46 -25.5 -87t-53.5 -72t-77 -49t-96 -18q-53 0 -93 18.5t-66.5 49.5t-38 72t-6.5 86z" />
    <glyph glyph-name="umacron" unicode="&#x16b;" horiz-adv-x="556" 
d="M518 581h-358l4 39h358zM468 0h-43l12 112q-11 -24 -29 -46.5t-42 -39t-54 -26.5t-66 -10q-81 0 -121 52q-19 24 -27 58t-3 80l26 251h44l-25 -240q-8 -72 23 -117t100 -45q42 0 75 17t56 43t37 58.5t17 64.5l23 219h43z" />
    <glyph glyph-name="Ubreve" unicode="&#x16c;" horiz-adv-x="606" 
d="M382 804q54 0 95 27.5t57 77.5h42q-9 -33 -28 -59t-45.5 -44t-58.5 -27.5t-66 -9.5q-35 0 -64.5 9.5t-51.5 27.5t-35.5 44t-15.5 59h41q6 -50 41 -77.5t89 -27.5zM148 700h44l-51 -488q-4 -38 5.5 -71.5t30.5 -58.5t53.5 -40t74.5 -15t77.5 15t62.5 40t43.5 58.5
t20.5 71.5l51 488h44l-51 -488q-5 -46 -25.5 -87t-53.5 -72t-77 -49t-96 -18q-53 0 -93 18.5t-66.5 49.5t-38 72t-6.5 86z" />
    <glyph glyph-name="ubreve" unicode="&#x16d;" horiz-adv-x="556" 
d="M337 594q51 0 89.5 28t55.5 78h41q-9 -33 -27.5 -59t-43.5 -44t-55.5 -27.5t-63.5 -9.5q-67 0 -111.5 37t-49.5 103h41q6 -50 39.5 -78t84.5 -28zM468 0h-43l12 112q-11 -24 -29 -46.5t-42 -39t-54 -26.5t-66 -10q-81 0 -121 52q-19 24 -27 58t-3 80l26 251h44l-25 -240
q-8 -72 23 -117t100 -45q42 0 75 17t56 43t37 58.5t17 64.5l23 219h43z" />
    <glyph glyph-name="Uring" unicode="&#x16e;" horiz-adv-x="606" 
d="M404 976q24 0 44.5 -9t35.5 -24t23.5 -35.5t8.5 -43.5q0 -27 -11 -51.5t-30 -42.5t-43.5 -29t-51.5 -11q-24 0 -44.5 9t-35 24t-23 35.5t-8.5 44.5q0 27 11 51t30 42.5t43 29t51 10.5zM401 944q-20 0 -38 -8t-32 -21.5t-22 -31t-8 -37.5q0 -35 23.5 -59t58.5 -24
q20 0 38 8t32 21.5t22 31t8 37.5q0 35 -23 59t-59 24zM148 700h44l-51 -488q-4 -38 5.5 -71.5t30.5 -58.5t53.5 -40t74.5 -15t77.5 15t62.5 40t43.5 58.5t20.5 71.5l51 488h44l-51 -488q-5 -46 -25.5 -87t-53.5 -72t-77 -49t-96 -18q-53 0 -93 18.5t-66.5 49.5t-38 72
t-6.5 86z" />
    <glyph glyph-name="uring" unicode="&#x16f;" horiz-adv-x="556" 
d="M352 743q25 0 45.5 -9t35.5 -24.5t23.5 -36.5t8.5 -44q0 -27 -11.5 -51.5t-30.5 -43t-44 -29.5t-52 -11q-25 0 -45.5 9t-35.5 24.5t-23 36.5t-8 44q0 27 11.5 51.5t30 43t43.5 29.5t52 11zM349 711q-20 0 -38.5 -8t-32.5 -21.5t-22.5 -31.5t-8.5 -39q0 -35 23.5 -60
t59.5 -25q20 0 38.5 8t33 22t23 32t8.5 39q0 35 -23.5 59.5t-60.5 24.5zM468 0h-43l12 112q-11 -24 -29 -46.5t-42 -39t-54 -26.5t-66 -10q-81 0 -121 52q-19 24 -27 58t-3 80l26 251h44l-25 -240q-8 -72 23 -117t100 -45q42 0 75 17t56 43t37 58.5t17 64.5l23 219h43z" />
    <glyph glyph-name="Uhungarumlaut" unicode="&#x170;" horiz-adv-x="606" 
d="M380 939l36 -19l-153 -161l-25 14zM575 939l36 -19l-153 -162l-25 15zM148 700h44l-51 -488q-4 -38 5.5 -71.5t30.5 -58.5t53.5 -40t74.5 -15t77.5 15t62.5 40t43.5 58.5t20.5 71.5l51 488h44l-51 -488q-5 -46 -25.5 -87t-53.5 -72t-77 -49t-96 -18q-53 0 -93 18.5
t-66.5 49.5t-38 72t-6.5 86z" />
    <glyph glyph-name="uhungarumlaut" unicode="&#x171;" horiz-adv-x="556" 
d="M404 507l-25 15l143 166l35 -19zM209 508l-25 14l143 166l35 -19zM514 431l-46 -431h-43l12 112q-11 -24 -29 -46.5t-42 -39t-54 -26.5t-66 -10q-81 0 -121 52q-19 24 -27 58t-3 80l26 251h44l-25 -240q-8 -72 23 -117t100 -45q42 0 75 17t56 43t37 58.5t17 64.5l23 219
h43z" />
    <glyph glyph-name="Uogonek" unicode="&#x172;" horiz-adv-x="606" 
d="M403 -197q-16 -5 -39 -10t-48 -5q-55 0 -81 26t-26 63q0 32 19 58t56 52q-48 3 -85 22t-61 49.5t-35 70t-6 83.5l51 488h44l-51 -488q-4 -38 5.5 -71.5t31 -58.5t54 -40t74.5 -15t77.5 15t62 40t43 58.5t20.5 71.5l51 488h44l-51 -488q-5 -44 -24 -84t-50.5 -70.5
t-73.5 -49.5t-91 -22q-62 -48 -62 -98q0 -26 19 -45.5t57 -19.5q20 0 42.5 5t37.5 10z" />
    <glyph glyph-name="uogonek" unicode="&#x173;" horiz-adv-x="556" 
d="M246 -10q-81 0 -121 52q-19 24 -27 58t-3 80l26 251h44l-25 -240q-8 -72 23 -117t100 -45q42 0 75 17t56 43t37 58.5t17 64.5l23 219h43l-46 -431h-7q-54 -23 -84.5 -51t-30.5 -65q0 -26 17 -43.5t51 -17.5q17 0 35.5 3.5t32.5 8.5l-5 -36q-14 -4 -34 -7.5t-41 -3.5
q-51 0 -76 24t-25 60q0 40 30 70t95 59l11 111q-11 -24 -29 -46.5t-42 -39t-54 -26.5t-66 -10z" />
    <glyph glyph-name="Wcircumflex" unicode="&#x174;" horiz-adv-x="926" 
d="M562 928l157 -148l-28 -30l-133 129l-161 -128l-23 29zM529 628l-251 -628h-37l-161 700h47l140 -629l252 629h37l120 -629l271 629h47l-309 -700h-36z" />
    <glyph glyph-name="wcircumflex" unicode="&#x175;" horiz-adv-x="695" 
d="M423 718l157 -148l-28 -30l-134 128l-161 -128l-22 30zM387 382l-176 -382h-33l-121 431h45l98 -370l171 370h43l92 -370l176 370h46l-211 -431h-34z" />
    <glyph glyph-name="Ycircumflex" unicode="&#x176;" horiz-adv-x="548" 
d="M391 928l157 -148l-28 -30l-134 129l-161 -128l-22 29zM183 0h-49l172 275l-225 425h52l201 -380l237 380h48z" />
    <glyph glyph-name="ycircumflex" unicode="&#x177;" horiz-adv-x="562" 
d="M356 718l158 -148l-28 -30l-134 128l-160 -128l-23 30zM252 -279q-105 0 -146 52.5t-33 154.5h42q-5 -83 26.5 -126t114.5 -43q40 0 70.5 10.5t51.5 33t34 57t18 83.5l18 169q-12 -24 -29 -46t-40.5 -39t-54.5 -27t-70 -10q-41 0 -71 11.5t-51 37.5q-20 25 -25.5 58.5
t0.5 90.5l26 243h41l-24 -233q-4 -36 -0.5 -67t16.5 -53.5t38 -35.5t64 -13q46 0 80 17t57.5 43t36.5 58.5t16 64.5l23 219h42l-51 -488q-13 -120 -67.5 -171t-152.5 -51z" />
    <glyph glyph-name="Ydieresis" unicode="&#x178;" horiz-adv-x="548" 
d="M210 815q0 22 16 37.5t37 15.5q20 0 32 -13t12 -32q0 -22 -15.5 -36.5t-37.5 -14.5q-19 0 -31.5 12t-12.5 31zM441 814q0 23 15.5 38.5t37.5 15.5q20 0 32 -13t12 -32q0 -22 -16 -36.5t-38 -14.5q-20 0 -31.5 12t-11.5 30zM183 0h-49l172 275l-225 425h52l201 -380
l237 380h48z" />
    <glyph glyph-name="Zacute" unicode="&#x179;" horiz-adv-x="540" 
d="M253 756l-16 35l264 137l16 -35zM112 700h495l-510 -659h455l-4 -41h-531l509 659h-419z" />
    <glyph glyph-name="zacute" unicode="&#x17a;" horiz-adv-x="427" 
d="M153 517l-16 35l263 137l17 -35zM438 431l-329 -392h291l-4 -39h-368l329 391h-275l4 40h352z" />
    <glyph glyph-name="Zdotaccent" unicode="&#x17b;" horiz-adv-x="540" 
d="M310 817q0 23 16 38.5t39 15.5q20 0 32.5 -13t12.5 -32q0 -23 -16.5 -38t-39.5 -15q-20 0 -32 12.5t-12 31.5zM112 700h495l-510 -659h455l-4 -41h-531l509 659h-419z" />
    <glyph glyph-name="zdotaccent" unicode="&#x17c;" horiz-adv-x="427" 
d="M227 595q0 23 15.5 38.5t38.5 15.5q20 0 32.5 -13t12.5 -32q0 -23 -16 -38t-39 -15q-20 0 -32 12.5t-12 31.5zM438 431l-329 -392h291l-4 -39h-368l329 391h-275l4 40h352z" />
    <glyph glyph-name="Zcaron" unicode="&#x17d;" horiz-adv-x="540" 
d="M229 899l30 29l125 -127l154 127l22 -29l-182 -148zM112 700h495l-510 -659h455l-4 -41h-531l509 659h-419z" />
    <glyph glyph-name="zcaron" unicode="&#x17e;" horiz-adv-x="427" 
d="M125 672l29 28l124 -126l154 127l23 -29l-182 -148zM438 431l-329 -392h291l-4 -39h-368l329 391h-275l4 40h352z" />
    <glyph glyph-name="longs" unicode="&#x17f;" horiz-adv-x="322" 
d="M385 657q-13 5 -24.5 7.5t-28.5 2.5t-34 -3.5t-31.5 -15.5t-25 -34.5t-14.5 -59.5l-58 -554h-42l41 393h-103l4 38h103l13 120q6 52 21.5 83t36 47t43.5 20.5t43 4.5q22 0 35 -3t25 -8z" />
    <glyph glyph-name="florin" unicode="&#x192;" horiz-adv-x="396" 
d="M-83 -214q11 -5 22.5 -7.5t28.5 -2.5t34 3.5t33.5 15t31 34t26.5 60.5l141 504h-103l11 38h103l33 120q14 52 35 83t45 47t48 20.5t44 4.5q23 0 35.5 -3t23.5 -8l-11 -38q-12 5 -23 7.5t-28 2.5q-16 0 -33.5 -3t-34 -14.5t-31.5 -34t-26 -61.5l-35 -123h148l-11 -38h-148
l-140 -501q-15 -52 -36 -83t-44 -47t-47 -20.5t-44 -4.5q-22 0 -35 3t-23 8z" />
    <glyph glyph-name="Aringacute" unicode="&#x1fa;" horiz-adv-x="534" 
d="M229 789l-13 27l263 137l13 -27zM349 792q-19 0 -32.5 -13.5t-13.5 -32.5q0 -15 10 -26.5t27 -11.5q20 0 34 14t14 32q0 16 -11 27t-28 11zM136 185h299l-101 449zM414 756q0 -24 -15 -43t-38 -26l164 -687h-46l-34 144h-327l-64 -144h-46l308 686q-18 5 -29 21.5
t-11 36.5q0 30 23 52t53 22q27 0 44.5 -18t17.5 -44z" />
    <glyph glyph-name="aringacute" unicode="&#x1fb;" horiz-adv-x="586" 
d="M206 769l263 137l17 -35l-263 -137zM317 495q-47 0 -76.5 31t-29.5 75q0 26 10.5 49t28.5 40t41 27t49 10q23 0 42 -8.5t33 -23t22 -33.5t8 -41q0 -26 -10.5 -48.5t-28 -40t-41 -27.5t-48.5 -10zM320 523q19 0 36.5 7.5t30.5 21t21 30.5t8 37q0 33 -22 56t-57 23
q-19 0 -36.5 -7.5t-31 -20.5t-21.5 -30.5t-8 -36.5q0 -33 22.5 -56.5t57.5 -23.5zM477 215q1 39 -9.5 73t-32 59t-53 39.5t-71.5 14.5q-44 0 -81 -16.5t-64 -44.5t-42 -65t-15 -78q0 -34 11 -64.5t32.5 -53t52 -36t69.5 -13.5q42 0 77.5 15t62 40t43 58.5t20.5 71.5z
M500 431h43l-45 -431h-43l11 109q-27 -53 -79 -86t-120 -33q-47 0 -84 16.5t-63 44t-40 64.5t-14 79q0 49 18.5 94t51.5 79t78.5 54t98.5 20q69 0 114 -33t61 -87z" />
    <glyph glyph-name="AEacute" unicode="&#x1fc;" horiz-adv-x="828" 
d="M494 750l-16 35l263 137l16 -35zM393 185l48 456l-278 -456h230zM487 659l-30 -291h326l-5 -41h-326l-30 -286h326l-4 -41h-370l15 144h-251l-87 -144h-48l429 700h386l-5 -41h-326z" />
    <glyph glyph-name="aeacute" unicode="&#x1fd;" horiz-adv-x="919" 
d="M399 513l-18 35l264 137l17 -35zM543 431l-9 -84q29 44 74.5 69t102.5 25q40 0 73.5 -13t57.5 -37t37.5 -57t13.5 -73q0 -16 -2 -27t-6 -23h-365q-4 -39 4 -72.5t26.5 -58t49 -38.5t71.5 -14q62 0 101 27.5t56 65.5h43q-9 -26 -27 -50t-44 -42t-59 -28.5t-72 -10.5
q-64 0 -104 27t-58 69l-9 -86h-43l11 109q-27 -53 -79 -86t-120 -33q-47 0 -84 16.5t-63 44t-40 64.5t-14 79q0 49 18.5 94t51.5 79t78.5 54t98.5 20q69 0 114 -33t61 -87l12 110h43zM705 403q-34 0 -64 -11t-54 -31.5t-40 -49t-22 -64.5h325q3 35 -6 63.5t-28.5 49t-48 32
t-62.5 11.5zM275 30q44 0 81.5 16.5t64.5 44.5t42.5 65t15.5 78q0 34 -11.5 64.5t-33 53.5t-52.5 36t-70 13q-44 0 -81.5 -16.5t-64.5 -44.5t-42 -65t-15 -78q0 -34 11 -64.5t32.5 -53t52.5 -36t70 -13.5z" />
    <glyph glyph-name="Oslashacute" unicode="&#x1fe;" horiz-adv-x="809" 
d="M369 749l-17 35l263 137l17 -35zM126 319q0 -39 8.5 -76.5t26 -71t42.5 -61t58 -46.5l315 593q-23 8 -47.5 12t-53.5 4q-78 0 -142.5 -30t-110.5 -79.5t-71 -113.5t-25 -131zM757 380q0 41 -9.5 80.5t-28.5 74t-47 62t-64 45.5l-316 -593q48 -22 115 -22q79 0 143.5 30
t110.5 79.5t71 113t25 130.5zM404 -14q-38 0 -71 6.5t-63 17.5l-40 -76l-31 14l40 77q-39 21 -68.5 52t-49.5 69t-30.5 81.5t-10.5 88.5q0 76 28.5 148t81 127.5t126.5 89t164 33.5q32 0 61.5 -4.5t55.5 -14.5l38 70l31 -14l-37 -69q42 -20 74.5 -51.5t54.5 -70.5t33 -84
t11 -92q0 -76 -28.5 -148t-81 -127.5t-126 -89t-162.5 -33.5z" />
    <glyph glyph-name="oslashacute" unicode="&#x1ff;" horiz-adv-x="543" 
d="M211 517l-17 35l263 137l18 -35zM109 198q0 -45 18 -82.5t53 -59.5l181 339q-23 6 -49 6q-44 0 -81.5 -16.5t-64.5 -44.5t-42 -65t-15 -77zM271 30q46 0 84.5 16.5t66 44.5t42.5 64.5t15 76.5q0 50 -23 90.5t-66 60.5l-183 -342q15 -6 31 -8.5t33 -2.5zM411 421
q53 -24 82 -74t29 -111q0 -49 -18.5 -93.5t-52 -78.5t-80 -54t-102.5 -20q-46 0 -82 15l-35 -65l-28 12l35 66q-45 26 -69 73t-24 103q0 49 18.5 94t51.5 79t78.5 54t99.5 20q20 0 36.5 -2.5t30.5 -7.5l31 57l29 -12z" />
    <glyph glyph-name="Scommaaccent" unicode="&#x218;" horiz-adv-x="573" 
d="M115 211q-4 -40 6 -74t34 -58.5t61 -38t86 -13.5q44 0 80.5 11t63 32t41 51t14.5 68q0 37 -14 61.5t-36.5 40.5t-51.5 25t-60 17q-40 10 -77.5 22t-66 31.5t-46 49t-17.5 76.5q0 44 16 81t46.5 64t74 42t98.5 15q106 0 156 -55.5t42 -150.5h-44q5 76 -33 120.5t-126 44.5
q-44 0 -78.5 -11.5t-58.5 -32t-36.5 -49t-12.5 -61.5q0 -36 14 -59.5t37 -38.5t54 -24.5t64 -17.5q40 -10 76 -22.5t64 -33t44.5 -51.5t16.5 -77q0 -50 -19 -88.5t-52.5 -65.5t-79.5 -41t-99 -14q-59 0 -103.5 16.5t-73 46.5t-41 71t-7.5 91h44zM252 -73q0 18 13 31t34 13
q23 0 36 -19t13 -52q0 -50 -28 -73.5t-74 -23.5l3 25q32 0 49 14.5t17 37.5q0 9 -2 13.5t-4 6.5q-10 -8 -23 -8q-15 0 -24.5 10t-9.5 25z" />
    <glyph glyph-name="scommaaccent" unicode="&#x219;" horiz-adv-x="448" 
d="M106 146q-3 -33 5.5 -56t26.5 -37t43 -20t54 -6q63 0 97 24.5t34 66.5q0 22 -9.5 35.5t-27 22.5t-43 15t-58.5 13q-27 6 -51.5 12.5t-42.5 17.5t-28.5 29t-10.5 46q0 31 13 55.5t35.5 41.5t53.5 26t67 9q35 0 65 -8.5t51 -26.5t31.5 -45t7.5 -63h-42q5 53 -26.5 79.5
t-87.5 26.5t-91.5 -24.5t-35.5 -67.5q0 -20 8.5 -32.5t25 -21t40.5 -14.5t55 -12q30 -6 56 -13t45 -18.5t30 -29.5t11 -48q0 -61 -46.5 -97t-129.5 -36q-38 0 -70.5 9t-55.5 27.5t-34.5 48t-6.5 71.5h42zM184 -58q0 18 13.5 31t34.5 13q23 0 35.5 -19t12.5 -51
q0 -52 -29.5 -75t-72.5 -23l3 26q28 0 41.5 10.5t18.5 27.5q2 8 2.5 18t-2.5 15q-4 -4 -10 -5.5t-12 -1.5q-16 0 -25.5 9.5t-9.5 24.5z" />
    <glyph glyph-name="uni021A" unicode="&#x21a;" horiz-adv-x="469" 
d="M281 659h-196l4 41h437l-4 -41h-197l-69 -659h-44zM185 -63q0 18 13.5 31t34.5 13q23 0 35.5 -19t12.5 -51q0 -51 -28 -74.5t-74 -23.5l3 25q32 0 49 14.5t17 40.5q0 14 -5 17q-5 -4 -11 -5.5t-12 -1.5q-16 0 -25.5 9.5t-9.5 24.5z" />
    <glyph glyph-name="uni021B" unicode="&#x21b;" horiz-adv-x="317" 
d="M65 431h95l18 176h42l-18 -176h139l-4 -38h-139l-26 -244q-4 -38 1 -61t16 -35t27 -15.5t34 -3.5q14 0 33 1.5t33 3.5l-4 -39q-14 -2 -33.5 -4t-39.5 -2q-25 0 -47 5t-37.5 20.5t-22.5 45t-2 78.5l26 250h-95zM138 -62q0 18 13.5 31t33.5 13q23 0 36 -19t13 -52
q0 -50 -28 -73.5t-74 -23.5l3 25q21 0 37.5 8t22.5 31q2 8 2.5 18t-2.5 15q-8 -8 -23 -8t-24.5 10t-9.5 25z" />
    <glyph glyph-name="hsuperior" unicode="&#x2b0;" horiz-adv-x="372" 
d="M149 700h35l-21 -200q14 29 41 46t62 17q45 0 67 -27q10 -12 14.5 -31t1.5 -48l-15 -142h-36l14 133q4 35 -10 59t-51 24q-22 0 -39 -9t-28.5 -22.5t-18.5 -30t-8 -31.5l-13 -123h-35z" />
    <glyph glyph-name="jsuperior" unicode="&#x2b2;" horiz-adv-x="198" 
d="M136 649q0 14 10.5 25t24.5 11q13 0 21.5 -9t8.5 -21q0 -14 -11 -24.5t-25 -10.5q-13 0 -21 9t-8 20zM143 242q-4 -38 -22.5 -55.5t-47.5 -17.5q-9 0 -19 1.5t-18 5.5l3 29q16 -6 27 -6q36 0 41 45l33 314h36z" />
    <glyph glyph-name="wsuperior" unicode="&#x2b7;" horiz-adv-x="454" 
d="M282 516l-92 -201h-29l-67 243h37l51 -195l87 195h35l46 -195l91 195h37l-119 -243h-28z" />
    <glyph glyph-name="ysuperior" unicode="&#x2b8;" horiz-adv-x="376" 
d="M205 167q-60 0 -84.5 28t-19.5 85h35q-2 -40 13 -61.5t59 -21.5q40 0 61.5 21t26.5 74l8 81q-11 -26 -36.5 -44t-66.5 -18q-45 0 -67 27q-11 14 -14.5 33t-0.5 49l15 138h36l-14 -130q-2 -17 -0.5 -33t8 -28t19 -19t33.5 -7q23 0 40 8.5t28.5 22t18 30t8.5 33.5l13 123
h37l-28 -265q-8 -69 -39.5 -97.5t-88.5 -28.5z" />
    <glyph glyph-name="circumflex" unicode="&#x2c6;" horiz-adv-x="422" 
d="M299 842l165 -145l-29 -31l-141 124l-166 -124l-24 31z" />
    <glyph glyph-name="caron" unicode="&#x2c7;" horiz-adv-x="376" 
d="M107 749l27 30l122 -123l149 123l22 -30l-176 -145z" />
    <glyph glyph-name="breve" unicode="&#x2d8;" horiz-adv-x="502" 
d="M177 840q7 -51 48.5 -78.5t101.5 -27.5q30 0 58 7t51 20.5t39.5 33t23.5 45.5h39q-8 -33 -28.5 -59t-49.5 -44t-64.5 -27.5t-72.5 -9.5q-38 0 -70.5 9.5t-57 27.5t-39.5 44t-17 59h38z" />
    <glyph glyph-name="dotaccent" unicode="&#x2d9;" horiz-adv-x="273" 
d="M157 651q0 23 16 38.5t38 15.5q20 0 32 -13t12 -33q0 -23 -16 -38t-38 -15q-20 0 -32 12.5t-12 32.5z" />
    <glyph glyph-name="ring" unicode="&#x2da;" horiz-adv-x="392" 
d="M283 835q24 0 44.5 -9t35.5 -24t23 -35.5t8 -43.5q0 -27 -11 -51.5t-30 -42.5t-43 -29t-51 -11q-24 0 -44.5 9t-35.5 24.5t-23.5 36t-8.5 43.5q0 27 11.5 51t30 42.5t43 29t51.5 10.5zM279 800q-19 0 -36.5 -7.5t-31 -20.5t-21.5 -30.5t-8 -37.5q0 -33 22.5 -56.5
t57.5 -23.5q19 0 36.5 7.5t31 21t21.5 30.5t8 37q0 33 -22.5 56.5t-57.5 23.5z" />
    <glyph glyph-name="ogonek" unicode="&#x2db;" horiz-adv-x="328" 
d="M257 -197q-17 -5 -40 -10t-47 -5q-55 0 -81 26t-26 63t24.5 65.5t69.5 57.5h29q-38 -25 -59.5 -54t-21.5 -58q0 -26 19 -45.5t57 -19.5q19 0 42 4.5t39 10.5z" />
    <glyph glyph-name="tilde" unicode="&#x2dc;" horiz-adv-x="439" 
d="M131 662q24 14 41 22t29.5 11.5t21 4t15.5 0.5q11 0 30 -4t39.5 -9.5t40.5 -9.5t34 -4q5 0 11 1t14.5 4t21 8t30.5 14l14 -31q-40 -22 -60 -27.5t-35 -5.5q-19 0 -37 4t-36 9.5t-35 9.5t-35 4q-12 0 -31 -5t-56 -27z" />
    <glyph glyph-name="hungarumlaut" unicode="&#x2dd;" horiz-adv-x="425" 
d="M244 734l36 -19l-152 -161l-26 14zM439 734l36 -19l-153 -162l-25 15z" />
    <glyph glyph-name="xsuperior" unicode="&#x2e3;" horiz-adv-x="306" 
d="M295 315h-41l-58 96l-77 -96h-42l101 122l-75 121h42l56 -96l78 96h42l-101 -121z" />
    <glyph glyph-name="Delta" unicode="&#x394;" horiz-adv-x="534" 
d="M525 0h-517l315 700h36zM73 41h395l-134 593z" />
    <glyph glyph-name="Omega" unicode="&#x3a9;" horiz-adv-x="722" 
d="M429 672q-68 0 -123 -24t-94 -64.5t-60 -94t-21 -112.5q0 -50 15 -93.5t42 -78t65.5 -57.5t86.5 -31l-12 -117h-255l4 41h217l5 48q-48 12 -87.5 39t-67 64.5t-42.5 84t-15 98.5q0 67 24.5 128t70 107.5t109.5 74.5t142 28q69 0 122.5 -21.5t89.5 -59.5t55 -89t19 -109
q0 -63 -21 -119.5t-58.5 -101.5t-88 -77t-110.5 -47l-5 -48h217l-4 -41h-255l12 117q59 10 108.5 38.5t85 70.5t55.5 94.5t20 110.5q0 51 -16 95t-47 76.5t-77 51t-106 18.5z" />
    <glyph glyph-name="mu" unicode="&#x3bc;" 
d="M133 431h41l-25 -240q-4 -35 1.5 -64.5t20.5 -51t40 -34t61 -12.5q42 0 75.5 17t57 43t37.5 58.5t17 64.5l23 219h42l-46 -431h-42l12 112q-11 -23 -28.5 -45t-41.5 -39t-54 -27.5t-66 -10.5q-90 0 -123 67l-34 -326h-42z" />
    <glyph glyph-name="pi" unicode="&#x3c0;" 
d="M525 391h-47l-41 -391h-43l41 391h-224l-41 -391h-43l41 391h-47l4 40h404z" />
    <glyph glyph-name="uni0401" unicode="&#x401;" horiz-adv-x="541" 
d="M193 815q0 23 15.5 38.5t38.5 15.5q20 0 32 -13t12 -32q0 -23 -15.5 -38t-38.5 -15q-20 0 -32 12.5t-12 31.5zM424 815q0 23 15.5 38.5t37.5 15.5q20 0 32.5 -13t12.5 -32q0 -23 -16.5 -38t-37.5 -15q-20 0 -32 12.5t-12 31.5zM201 659l-30 -291h326l-5 -41h-326
l-30 -286h326l-4 -41h-370l74 700h370l-5 -41h-326z" />
    <glyph glyph-name="uni0402" unicode="&#x402;" horiz-adv-x="671" 
d="M591 -148q-6 -59 -38.5 -93t-86.5 -34q-11 0 -30 2t-30 8l4 43q10 -7 25.5 -9.5t26.5 -2.5q38 0 59.5 23.5t26.5 65.5l40 385q8 72 -23 116.5t-101 44.5q-43 0 -76 -17t-56.5 -44t-36.5 -59t-16 -62l-23 -219h-44l69 659h-196l4 41h437l-4 -41h-197l-36 -340q12 25 30 47
t42 38.5t54 26.5t66 10q81 0 123 -52q18 -23 26 -56t3 -82z" />
    <glyph glyph-name="uni0403" unicode="&#x403;" horiz-adv-x="472" 
d="M250 745l-16 35l263 137l17 -35zM162 700h370l-5 -41h-326l-69 -659h-44z" />
    <glyph glyph-name="uni0404" unicode="&#x404;" horiz-adv-x="765" 
d="M742 197q-20 -45 -52.5 -84t-76 -67t-97 -44t-113.5 -16q-79 0 -139 26.5t-101 71.5t-62 105t-21 126q0 76 27 148t78 127.5t124 89.5t166 34q67 0 119 -18t89.5 -49.5t60 -73.5t28.5 -91h-47q-6 42 -26 77t-52.5 60.5t-77 39.5t-98.5 14q-74 0 -133.5 -25.5t-102.5 -68
t-69.5 -97.5t-34.5 -114h406l-4 -41h-406q-3 -61 13.5 -115.5t52 -95.5t89 -65t124.5 -24q50 0 95 12.5t82 35t65 53.5t46 69h48z" />
    <glyph glyph-name="uni0405" unicode="&#x405;" horiz-adv-x="573" 
d="M115 211q-4 -40 6 -74t34 -58.5t61 -38t86 -13.5q44 0 80.5 11t63 32t41 51t14.5 68q0 37 -14 61.5t-36.5 40.5t-51.5 25t-60 17q-40 10 -77.5 22t-66 31.5t-46 49t-17.5 76.5q0 44 16 81t46.5 64t74 42t98.5 15q106 0 156 -55.5t42 -150.5h-44q5 76 -33 120.5t-126 44.5
q-44 0 -78.5 -11.5t-58.5 -32t-36.5 -49t-12.5 -61.5q0 -36 14 -59.5t37 -38.5t54 -24.5t64 -17.5q40 -10 76 -22.5t64 -33t44.5 -51.5t16.5 -77q0 -50 -19 -88.5t-52.5 -65.5t-79.5 -41t-99 -14q-59 0 -103.5 16.5t-73 46.5t-41 71t-7.5 91h44z" />
    <glyph glyph-name="uni0406" unicode="&#x406;" horiz-adv-x="221" 
d="M162 700h45l-74 -700h-45z" />
    <glyph glyph-name="uni0407" unicode="&#x407;" horiz-adv-x="221" 
d="M38 815q0 23 16 38.5t38 15.5q20 0 32 -13t12 -32q0 -23 -16 -38t-38 -15q-20 0 -32 12.5t-12 31.5zM258 815q0 23 15.5 38.5t38.5 15.5q20 0 32.5 -13t12.5 -32q0 -23 -16 -38t-39 -15q-20 0 -32 12.5t-12 31.5zM162 700h45l-74 -700h-45z" />
    <glyph glyph-name="uni0408" unicode="&#x408;" horiz-adv-x="535" 
d="M483 211q-6 -52 -26 -93.5t-51.5 -71t-72.5 -45t-89 -15.5t-88 16t-67.5 45.5t-40.5 71t-7 92.5h44q-5 -42 5.5 -76t32.5 -58t54 -37t71 -13q38 0 71 12.5t58 36.5t41 58t21 77l51 489h44z" />
    <glyph glyph-name="uni0409" unicode="&#x409;" horiz-adv-x="977" 
d="M590 659h-349l-58 -551q-4 -35 -15.5 -58t-28 -37t-38 -19.5t-44.5 -5.5h-48l4 41h41q18 0 32.5 3.5t25 13t17.5 26.5t10 43l61 585h438l-33 -313h194q35 0 65 -13.5t51.5 -37t34 -55.5t12.5 -69q0 -44 -16.5 -82.5t-45 -67t-66.5 -45.5t-81 -17h-233zM758 41q32 0 61 13
t50.5 35.5t34.5 53t13 64.5q0 28 -9 53.5t-25.5 44.5t-38.5 30t-49 11h-194l-32 -305h189z" />
    <glyph glyph-name="uni040A" unicode="&#x40a;" horiz-adv-x="987" 
d="M609 346l-32 -305h190q32 0 61 13t50.5 36t34.5 53t13 65q0 28 -9 53t-25 44t-39 30t-50 11h-194zM614 387h194q35 0 65 -13.5t51.5 -37t33.5 -55.5t12 -69q0 -44 -16.5 -82.5t-45 -67t-66 -45.5t-79.5 -17h-234l36 346h-397l-36 -346h-44l74 700h44l-33 -313h397l33 313
h44z" />
    <glyph glyph-name="uni040B" unicode="&#x40b;" horiz-adv-x="685" 
d="M325 659l-36 -340q12 25 30 47t42 38.5t54 26.5t66 10q81 0 123 -52q18 -23 26 -56t3 -82l-26 -251h-44l25 240q8 72 -23 116.5t-101 44.5q-43 0 -76 -17t-56.5 -44t-36.5 -59t-16 -62l-23 -219h-44l69 659h-196l4 41h437l-4 -41h-197z" />
    <glyph glyph-name="uni040C" unicode="&#x40c;" horiz-adv-x="571" 
d="M265 745l-16 35l263 137l17 -35zM173 386h27q18 0 36.5 2.5t37.5 11.5t38.5 26t39.5 46l90 132q30 45 64 71t83 26h45l-5 -41h-40q-38 0 -63.5 -19.5t-53.5 -61.5l-88 -130q-34 -50 -77.5 -69t-89.5 -22l333 -358h-59l-322 349l-37 -349h-44l74 700h44z" />
    <glyph glyph-name="uni040E" unicode="&#x40e;" horiz-adv-x="548" 
d="M368 804q54 0 95 27.5t57 77.5h42q-9 -33 -28 -59t-45.5 -44t-58.5 -27.5t-66 -9.5q-70 0 -116 37t-51 103h41q5 -50 40.5 -77.5t89.5 -27.5zM183 0h-49l172 275l-225 425h52l201 -380l237 380h48z" />
    <glyph glyph-name="uni040F" unicode="&#x40f;" horiz-adv-x="625" 
d="M281 -110l12 110h-205l74 700h44l-70 -659h361l70 659h44l-74 -700h-203l-12 -110h-41z" />
    <glyph glyph-name="uni0410" unicode="&#x410;" horiz-adv-x="534" 
d="M334 634l-198 -449h299zM479 0l-34 144h-327l-64 -144h-46l315 700h36l166 -700h-46z" />
    <glyph glyph-name="uni0411" unicode="&#x411;" horiz-adv-x="572" 
d="M536 659h-335l-28 -272h206q35 0 65 -13.5t51.5 -37t33.5 -55.5t12 -69q0 -44 -16.5 -82.5t-45 -67t-66 -45.5t-79.5 -17h-246l74 700h379zM168 346l-32 -305h202q32 0 61 13t50.5 35.5t34.5 53t13 64.5q0 28 -9 53.5t-25.5 44.5t-39 30t-49.5 11h-206z" />
    <glyph glyph-name="uni0412" unicode="&#x412;" horiz-adv-x="576" 
d="M162 700h239q42 0 74 -14t53.5 -37t32 -53t10.5 -61q0 -34 -11.5 -65t-31.5 -55t-46.5 -40.5t-56.5 -22.5q24 -4 45 -17.5t36.5 -33.5t24.5 -45.5t9 -54.5q0 -37 -15 -73t-42.5 -64.5t-67 -46t-88.5 -17.5h-239zM370 372q35 0 64 13.5t49.5 35.5t32 50t11.5 58
q0 25 -9 48.5t-25.5 41.5t-41 29t-55.5 11h-195l-30 -287h199zM167 331l-31 -290h196q36 0 66 13t52 34.5t34 50t12 59.5q0 25 -9 49t-25.5 43t-40 30t-53.5 11h-201z" />
    <glyph glyph-name="uni0413" unicode="&#x413;" horiz-adv-x="472" 
d="M162 700h370l-5 -41h-326l-69 -659h-44z" />
    <glyph glyph-name="uni0414" unicode="&#x414;" horiz-adv-x="680" 
d="M529 41l65 618h-278l-33 -316q-13 -123 -45.5 -201t-102.5 -101h394zM-1 -110l16 151h13q43 0 83.5 17t69.5 60q18 27 32 70.5t21 110.5l42 401h367l-69 -659h77l-16 -151h-41l12 110h-554l-12 -110h-41z" />
    <glyph glyph-name="uni0415" unicode="&#x415;" horiz-adv-x="541" 
d="M201 659l-30 -291h326l-5 -41h-326l-30 -286h326l-4 -41h-370l74 700h370l-5 -41h-326z" />
    <glyph glyph-name="uni0416" unicode="&#x416;" horiz-adv-x="861" 
d="M69 0h-58l383 351q-53 3 -87 23t-54 71l-47 122q-17 44 -35.5 68.5t-56.5 24.5h-38l5 41h41q48 0 74.5 -29.5t44.5 -77.5l50 -131q21 -54 51 -72t77 -18h29l35 327h43l-35 -327h29q46 0 80.5 18t66.5 72l77 131q29 48 61.5 77.5t80.5 29.5h42l-5 -41h-38q-19 0 -33.5 -6
t-27.5 -18t-25 -29.5t-25 -39.5l-73 -122q-29 -48 -66.5 -69.5t-94.5 -24.5l310 -351h-58l-303 349l-37 -349h-43l37 349z" />
    <glyph glyph-name="uni0417" unicode="&#x417;" horiz-adv-x="548" 
d="M105 195q-4 -38 6.5 -69t32 -52.5t54.5 -33.5t74 -12q44 0 80.5 13.5t62 36.5t39.5 55t14 69q0 63 -41.5 101t-120.5 38h-55l4 41h55q43 0 77.5 12.5t57.5 33.5t35.5 49.5t12.5 61.5q0 60 -40 96.5t-115 36.5q-39 0 -73 -11t-60 -31t-42 -48.5t-20 -63.5h-44
q4 43 24.5 79t52.5 62t75 40t93 14q90 0 142 -44.5t52 -121.5q0 -35 -11 -65.5t-31.5 -54.5t-50 -40t-65.5 -22q63 -10 98 -53t35 -109q0 -47 -18.5 -86.5t-51 -68.5t-78 -45t-99.5 -16q-51 0 -91 15t-67 42t-39.5 65.5t-7.5 85.5h44z" />
    <glyph glyph-name="uni0418" unicode="&#x418;" horiz-adv-x="660" 
d="M590 590l-453 -546l-5 -44h-44l74 700h44l-62 -589l453 545l5 44h44l-74 -700h-44z" />
    <glyph glyph-name="uni0419" unicode="&#x419;" horiz-adv-x="660" 
d="M423 804q54 0 95 27.5t58 77.5h41q-9 -33 -28 -59t-45.5 -44t-58 -27.5t-66.5 -9.5t-64.5 9.5t-51.5 27.5t-35.5 44t-15.5 59h41q6 -50 41 -77.5t89 -27.5zM590 590l-453 -546l-5 -44h-44l74 700h44l-62 -589l453 545l5 44h44l-74 -700h-44z" />
    <glyph glyph-name="uni041A" unicode="&#x41a;" horiz-adv-x="571" 
d="M173 386h27q18 0 36.5 2.5t37.5 11.5t38.5 26t39.5 46l90 132q30 45 64 71t83 26h45l-5 -41h-40q-38 0 -63.5 -19.5t-53.5 -61.5l-88 -130q-34 -50 -77.5 -69t-89.5 -22l333 -358h-59l-322 349l-37 -349h-44l74 700h44z" />
    <glyph glyph-name="uni041B" unicode="&#x41b;" horiz-adv-x="691" 
d="M13 29h29q21 0 38 4t29.5 15.5t20.5 31t11 50.5l60 570h476l-74 -700h-43l70 659h-390l-56 -536q-4 -40 -16.5 -66t-30.5 -41.5t-41.5 -21.5t-49.5 -6h-37z" />
    <glyph glyph-name="uni041C" unicode="&#x41c;" horiz-adv-x="809" 
d="M721 0h-44l63 598l-317 -598h-38l-190 598l-63 -598h-44l74 700h43l206 -637l340 637h44z" />
    <glyph glyph-name="uni041D" unicode="&#x41d;" horiz-adv-x="661" 
d="M563 327h-397l-34 -327h-44l74 700h44l-35 -332h397l35 332h44l-74 -700h-44z" />
    <glyph glyph-name="uni041E" unicode="&#x41e;" horiz-adv-x="809" 
d="M406 -14q-79 0 -140 27t-102 72.5t-62.5 105t-21.5 124.5q0 76 29 148t81 128t125 89.5t162 33.5q79 0 139.5 -27t102 -72.5t62.5 -105t21 -124.5q0 -77 -28.5 -148.5t-81 -127.5t-125.5 -89.5t-161 -33.5zM410 27q77 0 141 30t109.5 79.5t71 113.5t25.5 132
q0 57 -18.5 109.5t-54.5 93t-89.5 64.5t-122.5 24q-77 0 -141 -30t-109.5 -79.5t-70.5 -113.5t-25 -132q0 -57 18.5 -109.5t54.5 -93t89 -64.5t122 -24z" />
    <glyph glyph-name="uni041F" unicode="&#x41f;" horiz-adv-x="670" 
d="M201 659l-69 -659h-44l74 700h494l-74 -700h-44l69 659h-406z" />
    <glyph glyph-name="uni0420" unicode="&#x420;" horiz-adv-x="595" 
d="M162 700h235q48 0 86.5 -16t64.5 -44t40 -65t14 -79q0 -49 -18.5 -93.5t-52 -78.5t-80 -54t-102.5 -20h-191l-26 -250h-44zM354 291q45 0 82.5 16.5t64.5 44t42 64t15 76.5q0 34 -11.5 64.5t-32.5 53.5t-52 36t-70 13h-191l-38 -368h191z" />
    <glyph glyph-name="uni0421" unicode="&#x421;" horiz-adv-x="774" 
d="M752 197q-21 -45 -54.5 -84t-78 -67t-98 -44t-113.5 -16q-78 0 -139 26.5t-103 71.5t-64 105t-22 128q0 76 28 147.5t79.5 127t125 89t165.5 33.5q66 0 119 -17.5t91.5 -49.5t62 -76t30.5 -97h-46q-7 43 -27 80t-53 63t-78 41t-101 15q-81 0 -146 -29.5t-110.5 -79
t-70 -113t-24.5 -131.5q0 -60 19.5 -113t56 -93t90 -63.5t122.5 -23.5q50 0 95 13t82.5 35.5t66 53.5t46.5 68h49z" />
    <glyph glyph-name="uni0422" unicode="&#x422;" horiz-adv-x="469" 
d="M281 659h-196l4 41h437l-4 -41h-197l-69 -659h-44z" />
    <glyph glyph-name="uni0423" unicode="&#x423;" horiz-adv-x="548" 
d="M183 0h-49l172 275l-225 425h52l201 -380l237 380h48z" />
    <glyph glyph-name="uni0424" unicode="&#x424;" horiz-adv-x="758" 
d="M412 103l-11 -103h-44l11 103h-76q-51 0 -90.5 17.5t-67.5 47.5t-42.5 70.5t-14.5 87.5q0 54 19.5 103.5t54.5 87t84.5 59.5t108.5 22h76l10 102h44l-10 -102h76q50 0 90 -17.5t67.5 -48t42 -71.5t14.5 -87q0 -55 -19.5 -104t-55 -86t-84.5 -59t-107 -22h-76zM459 557
l-43 -413h76q48 0 88 18.5t69 49.5t45 72t16 87q0 39 -12 73t-34.5 59t-55 39.5t-73.5 14.5h-76zM372 144l43 413h-76q-48 0 -88 -18.5t-69 -49.5t-45 -72t-16 -87q0 -39 12 -72.5t34.5 -59t55 -40t73.5 -14.5h76z" />
    <glyph glyph-name="uni0425" unicode="&#x425;" horiz-adv-x="520" 
d="M532 700h50l-260 -350l186 -350h-50l-165 311l-231 -311h-50l260 350l-186 350h50l165 -312z" />
    <glyph glyph-name="uni0426" unicode="&#x426;" horiz-adv-x="651" 
d="M573 -110l12 110h-497l74 700h44l-70 -659h361l70 659h44l-70 -659h89l-16 -151h-41z" />
    <glyph glyph-name="uni0427" unicode="&#x427;" horiz-adv-x="564" 
d="M432 0l26 246h-154q-61 0 -103 15.5t-67 45t-34 71t-3 94.5l24 228h44l-23 -219q-5 -44 1.5 -80t27 -61.5t56 -39t89.5 -13.5h146l44 413h44l-74 -700h-44z" />
    <glyph glyph-name="uni0428" unicode="&#x428;" horiz-adv-x="918" 
d="M88 0l74 700h44l-70 -659h305l70 659h44l-70 -659h305l70 659h44l-74 -700h-742z" />
    <glyph glyph-name="uni0429" unicode="&#x429;" horiz-adv-x="943" 
d="M863 -110l12 110h-787l74 700h44l-70 -659h305l70 659h44l-70 -659h305l70 659h44l-70 -659h89l-16 -151h-44z" />
    <glyph glyph-name="uni042A" unicode="&#x42a;" horiz-adv-x="638" 
d="M89 700h197l-33 -313h206q36 0 65.5 -13.5t51.5 -37t34 -55.5t12 -69q0 -44 -16.5 -82.5t-45 -67t-66.5 -45.5t-80 -17h-245l69 659h-153zM249 346l-32 -305h201q32 0 61 13t51 35.5t35 53t13 64.5q0 28 -9 53.5t-25.5 44.5t-39 30t-49.5 11h-206z" />
    <glyph glyph-name="uni042B" unicode="&#x42b;" horiz-adv-x="722" 
d="M664 700h44l-74 -700h-44zM206 700l-33 -313h200q35 0 65 -13.5t51.5 -37t33.5 -55.5t12 -69q0 -44 -16.5 -82.5t-45 -67t-66.5 -45.5t-80 -17h-239l74 700h44zM168 346l-32 -305h195q32 0 61 13t51 35.5t35 53t13 64.5q0 28 -9 53.5t-25.5 44.5t-39 30t-49.5 11h-200z
" />
    <glyph glyph-name="uni042C" unicode="&#x42c;" horiz-adv-x="557" 
d="M206 700l-33 -313h206q35 0 65 -13.5t51.5 -37t33.5 -55.5t12 -69q0 -44 -16.5 -82.5t-45 -67t-66 -45.5t-79.5 -17h-246l74 700h44zM168 346l-32 -305h202q32 0 61 13t50.5 35.5t34.5 53t13 64.5q0 28 -9 53.5t-25.5 44.5t-39 30t-49.5 11h-206z" />
    <glyph glyph-name="uni042D" unicode="&#x42d;" horiz-adv-x="767" 
d="M308 368h407q4 60 -11 115t-49 97.5t-88 67.5t-127 25q-58 0 -106.5 -16t-86.5 -43t-65 -63t-42 -77h-46q16 50 48 94t76.5 76.5t101 51t123.5 18.5q80 0 139.5 -26.5t99.5 -71.5t59.5 -104.5t19.5 -124.5q0 -80 -28.5 -153t-80 -128t-124.5 -87.5t-162 -32.5
q-60 0 -110.5 15.5t-89 43t-64.5 66.5t-37 86h48q23 -78 91.5 -124t165.5 -46q67 0 125 23t102.5 63.5t74 95.5t39.5 118h-407z" />
    <glyph glyph-name="uni042E" unicode="&#x42e;" horiz-adv-x="1092" 
d="M687 -14q-83 0 -145 28.5t-102.5 76t-60 109t-16.5 127.5h-197l-34 -327h-44l74 700h44l-35 -332h197q10 70 43.5 133t85 110t118.5 75t146 28q78 0 138.5 -27t102 -72.5t62.5 -105t21 -124.5q0 -77 -28.5 -148.5t-81 -127.5t-125.5 -89.5t-163 -33.5zM693 27
q77 0 141 30t109.5 79.5t71 113.5t25.5 132q0 57 -18.5 109.5t-54.5 93t-89.5 64.5t-122.5 24q-77 0 -141 -30t-109.5 -79.5t-70.5 -113.5t-25 -132q0 -57 18.5 -109.5t54.5 -93t89 -64.5t122 -24z" />
    <glyph glyph-name="uni042F" unicode="&#x42f;" horiz-adv-x="599" 
d="M141 458q0 -35 11 -65t32.5 -53t52 -36t69.5 -13h192l38 368h-192q-45 0 -82.5 -16.5t-64 -44t-41.5 -64t-15 -76.5zM511 0h-44l26 250h-201l-187 -250h-51l192 256q-72 17 -111 71.5t-39 126.5q0 49 18.5 93.5t52 78.5t80 54t102.5 20h236z" />
    <glyph glyph-name="uni0430" unicode="&#x430;" horiz-adv-x="586" 
d="M275 30q44 0 81.5 16.5t64.5 44.5t42.5 64.5t15.5 77.5q0 34 -11.5 65t-33 53.5t-52.5 36t-70 13.5q-44 0 -81.5 -16.5t-64.5 -44.5t-42 -65t-15 -78q0 -34 11 -64.5t32.5 -53t52.5 -36t70 -13.5zM543 431l-45 -431h-43l11 109q-27 -53 -79 -86t-120 -33q-47 0 -84 16.5
t-63 44t-40 64.5t-14 79q0 49 18.5 94t51.5 79t78.5 54t98.5 20q69 0 114 -33t61 -87l12 110h43z" />
    <glyph glyph-name="uni0431" unicode="&#x431;" horiz-adv-x="566" 
d="M123 280q12 39 34.5 69t51.5 50.5t63.5 31t72.5 10.5q48 0 85 -16.5t62.5 -44t38.5 -64.5t13 -78q0 -50 -19 -94.5t-52.5 -79t-80.5 -54.5t-103 -20q-60 0 -100 23t-63.5 61.5t-33 88.5t-9.5 103q0 109 32.5 193.5t89.5 141.5q97 99 253 99h82l-4 -41h-96q-66 0 -117 -21
t-89 -58q-54 -55 -80 -130.5t-31 -169.5zM296 30q44 0 81.5 16.5t64.5 44.5t42.5 64.5t15.5 77.5q0 34 -11 65t-33 53.5t-53.5 36t-71.5 13.5q-45 0 -82 -16t-64 -43t-42 -63.5t-15 -77.5q0 -34 11 -65t32 -54.5t52.5 -37.5t72.5 -14z" />
    <glyph glyph-name="uni0432" unicode="&#x432;" horiz-adv-x="477" 
d="M133 431h202q29 0 50 -8.5t35 -22.5t21 -31.5t7 -36.5q0 -41 -28.5 -72t-73.5 -39q19 -1 34.5 -9.5t27 -22t17.5 -30.5t6 -35q0 -23 -9.5 -45t-28 -39.5t-45 -28.5t-59.5 -11h-201zM315 238q18 0 34.5 7.5t29 19.5t20 27.5t7.5 32.5q0 29 -21 50.5t-55 21.5h-158
l-17 -159h160zM151 203l-17 -169h159q19 0 36.5 7t30.5 19.5t21 28.5t8 34q0 32 -22 56t-55 24h-161z" />
    <glyph glyph-name="uni0433" unicode="&#x433;" horiz-adv-x="351" 
d="M381 431l-4 -38h-206l-41 -393h-42l45 431h248z" />
    <glyph glyph-name="uni0434" unicode="&#x434;" horiz-adv-x="543" 
d="M408 36l37 358h-201l-17 -157q-9 -84 -34.5 -134t-71.5 -67h287zM3 -104l15 140h28q51 0 89.5 44.5t48.5 136.5l22 214h284l-41 -395h65l-15 -140h-40l11 104h-417l-11 -104h-39z" />
    <glyph glyph-name="uni0435" unicode="&#x435;" horiz-adv-x="513" 
d="M114 211q-3 -36 4 -69.5t25 -58.5t48.5 -40t73.5 -15q62 0 101.5 27.5t56.5 65.5h43q-20 -56 -73.5 -93.5t-131.5 -37.5q-49 0 -85 16t-59.5 44t-35 64.5t-11.5 78.5q0 52 17 97t47.5 78.5t73 53t93.5 19.5q43 0 77.5 -13.5t58.5 -37.5t37 -57t13 -72q0 -16 -2 -27
t-5 -23h-366zM299 406q-34 0 -64 -11.5t-54 -32t-40.5 -50t-22.5 -65.5h326q4 36 -5.5 65t-29 50t-48 32.5t-62.5 11.5z" />
    <glyph glyph-name="uni0436" unicode="&#x436;" horiz-adv-x="655" 
d="M85 0h-54l259 222q-47 1 -71 14t-38 48l-20 56q-9 25 -22.5 41.5t-34.5 16.5h-31l4 37h36q29 0 47.5 -18.5t32.5 -53.5l25 -64q13 -33 31 -45.5t56 -12.5h27l20 190h41l-20 -190h26q39 0 59.5 12.5t39.5 45.5l40 64q22 35 44.5 53.5t51.5 18.5h36l-4 -37h-32
q-21 0 -37.5 -16.5t-30.5 -41.5l-33 -56q-20 -35 -47.5 -48t-74.5 -14l212 -222h-53l-199 217l-23 -217h-41l23 217z" />
    <glyph glyph-name="uni0437" unicode="&#x437;" horiz-adv-x="402" 
d="M92 116q-5 -41 23.5 -65t81.5 -24q54 0 87 25t33 68q0 37 -25.5 58.5t-73.5 21.5h-40l3 34h39q53 0 82.5 27.5t29.5 66.5q0 35 -24 56t-71 21q-50 0 -80.5 -24t-34.5 -62h-43q3 27 16.5 49.5t35 38.5t50 25t61.5 9q63 0 98 -29.5t35 -77.5q0 -42 -27.5 -74t-78.5 -41
q42 -4 66 -30.5t24 -66.5q0 -30 -13 -54t-35.5 -41.5t-53 -27t-65.5 -9.5q-70 0 -109.5 34.5t-33.5 91.5h43z" />
    <glyph glyph-name="uni0438" unicode="&#x438;" horiz-adv-x="551" 
d="M456 346l-323 -314l-3 -32h-42l45 431h42l-36 -348l323 316l3 32h43l-45 -431h-43z" />
    <glyph glyph-name="uni0439" unicode="&#x439;" horiz-adv-x="551" 
d="M341 594q51 0 90.5 28t55.5 78h41q-9 -33 -27.5 -59t-43.5 -44t-55.5 -27.5t-63.5 -9.5q-67 0 -111.5 37t-48.5 103h40q6 -50 39 -78t84 -28zM456 346l-323 -314l-3 -32h-42l45 431h42l-36 -348l323 316l3 32h43l-45 -431h-43z" />
    <glyph glyph-name="uni043A" unicode="&#x43a;" horiz-adv-x="464" 
d="M154 233h22q23 0 44.5 10t47.5 45l65 86q21 28 41 44.5t52 16.5h40l-4 -37h-29q-27 0 -41.5 -12t-31.5 -35l-57 -75q-24 -32 -46.5 -44.5t-57.5 -13.5l232 -218h-58l-221 210l-22 -210h-42l45 431h42z" />
    <glyph glyph-name="uni043B" unicode="&#x43b;" horiz-adv-x="542" 
d="M16 28h20q15 0 27.5 2.5t22.5 11t16.5 24.5t9.5 43l34 322h353l-45 -431h-43l41 393h-269l-30 -290q-4 -35 -14.5 -57.5t-26 -35t-34.5 -17t-40 -4.5h-26z" />
    <glyph glyph-name="uni043C" unicode="&#x43c;" horiz-adv-x="668" 
d="M580 0h-40l41 394l-232 -394h-29l-151 394l-41 -394h-40l45 431h65l142 -373l220 373h65z" />
    <glyph glyph-name="uni043D" unicode="&#x43d;" horiz-adv-x="557" 
d="M447 196h-296l-21 -196h-42l45 431h42l-20 -197h296l20 197h43l-45 -431h-43z" />
    <glyph glyph-name="uni043E" unicode="&#x43e;" horiz-adv-x="543" 
d="M272 -10q-49 0 -87 16t-64.5 44t-40.5 65t-14 79q0 49 18.5 94t51.5 79t79 54t100 20q49 0 87.5 -16.5t65 -44t40.5 -65t14 -79.5q0 -49 -18.5 -93.5t-52 -78.5t-79.5 -54t-100 -20zM275 30q44 0 81.5 16.5t64.5 44.5t42.5 64.5t15.5 77.5q0 34 -11.5 65t-33 53.5
t-52.5 36t-70 13.5q-44 0 -81.5 -16.5t-64.5 -44.5t-42 -65t-15 -78q0 -34 11 -64.5t32.5 -53t52.5 -36t70 -13.5z" />
    <glyph glyph-name="uni043F" unicode="&#x43f;" horiz-adv-x="567" 
d="M479 0h-42l41 393h-307l-41 -393h-42l45 431h391z" />
    <glyph glyph-name="uni0440" unicode="&#x440;" horiz-adv-x="586" 
d="M355 401q-44 0 -81.5 -16.5t-64.5 -44.5t-42 -65t-15 -77q0 -35 11 -65.5t32.5 -53t52.5 -36t71 -13.5q44 0 81.5 16.5t64.5 44.5t42 64.5t15 77.5q0 34 -11 64.5t-32.5 53.5t-52.5 36.5t-71 13.5zM164 321q27 54 80 87t121 33q46 0 83 -16.5t63 -44t39.5 -64.5t13.5 -79
q0 -49 -18.5 -94t-51.5 -79t-78 -54t-98 -20q-69 0 -114.5 33t-61.5 87l-40 -379h-42l74 700h42z" />
    <glyph glyph-name="uni0441" unicode="&#x441;" horiz-adv-x="519" 
d="M451 274q0 25 -8 48t-25 41t-43.5 28.5t-64.5 10.5q-48 0 -85 -17.5t-61.5 -46.5t-37.5 -66t-13 -77q0 -33 9 -63t28.5 -52.5t50 -36t72.5 -13.5q69 0 110.5 34t55.5 84h43q-17 -69 -72.5 -113.5t-141.5 -44.5q-51 0 -88.5 16.5t-61.5 44.5t-35.5 64.5t-11.5 76.5
q0 48 16 92.5t47 79.5t76.5 56t104.5 21q48 0 82 -14t55.5 -37.5t31.5 -53.5t10 -62h-43z" />
    <glyph glyph-name="uni0442" unicode="&#x442;" horiz-adv-x="359" 
d="M386 431l-4 -38h-141l-41 -393h-42l41 393h-141l4 38h324z" />
    <glyph glyph-name="uni0443" unicode="&#x443;" horiz-adv-x="562" 
d="M252 -279q-105 0 -146 52.5t-33 154.5h42q-5 -83 26.5 -126t114.5 -43q40 0 70.5 10.5t51.5 33t34 57t18 83.5l18 169q-12 -24 -29 -46t-40.5 -39t-54.5 -27t-70 -10q-41 0 -71 11.5t-51 37.5q-20 25 -25.5 58.5t0.5 90.5l26 243h41l-24 -233q-4 -36 -0.5 -67t16.5 -53.5
t38 -35.5t64 -13q46 0 80 17t57.5 43t36.5 58.5t16 64.5l23 219h42l-51 -488q-13 -120 -67.5 -171t-152.5 -51z" />
    <glyph glyph-name="uni0444" unicode="&#x444;" horiz-adv-x="584" 
d="M272 -10q-48 1 -86 17.5t-64.5 43.5t-41 64t-14.5 80q0 50 19 94t52.5 77t80 53t101.5 21l27 260h38l-27 -260q48 -1 86 -17t64.5 -43.5t41 -64.5t14.5 -80q0 -50 -19 -94t-52.5 -77t-80 -53t-101.5 -21l-27 -259h-38zM108 198q0 -36 11.5 -67t33 -54t52.5 -36.5
t71 -13.5l39 377q-46 -1 -84 -17.5t-65.5 -44.5t-42.5 -65t-15 -79zM521 233q0 36 -11.5 66.5t-33 53.5t-52.5 36.5t-71 14.5l-39 -377q46 0 84 16.5t65.5 44.5t42.5 65.5t15 79.5z" />
    <glyph glyph-name="uni0445" unicode="&#x445;" horiz-adv-x="427" 
d="M397 0h-50l-115 183l-152 -183h-50l181 216l-135 215h50l113 -182l152 182h50l-180 -215z" />
    <glyph glyph-name="uni0446" unicode="&#x446;" horiz-adv-x="571" 
d="M489 -97l10 97h-411l45 431h42l-41 -393h294l41 393h43l-41 -393h74l-14 -135h-42z" />
    <glyph glyph-name="uni0447" unicode="&#x447;" horiz-adv-x="450" 
d="M320 0l15 148h-118q-78 0 -112 41t-26 111l14 131h44l-14 -130q-6 -56 19.5 -85.5t83.5 -29.5h113l26 245h42l-45 -431h-42z" />
    <glyph glyph-name="uni0448" unicode="&#x448;" horiz-adv-x="792" 
d="M422 38h244l41 393h42l-45 -431h-616l45 431h42l-41 -393h245l41 393h43z" />
    <glyph glyph-name="uni0449" unicode="&#x449;" horiz-adv-x="808" 
d="M726 -97l10 97h-648l45 431h42l-41 -393h245l41 393h43l-41 -393h244l41 393h42l-41 -393h74l-14 -135h-42z" />
    <glyph glyph-name="uni044A" unicode="&#x44a;" horiz-adv-x="462" 
d="M154 393h-94l4 38h134l-18 -173h139q50 0 80 -33t30 -83q0 -29 -10.5 -54.5t-29.5 -45t-44.5 -31t-55.5 -11.5h-176zM176 221l-19 -184h131q21 0 39 8t31.5 22t21.5 32.5t8 38.5q0 34 -21.5 58.5t-56.5 24.5h-134z" />
    <glyph glyph-name="uni044B" unicode="&#x44b;" horiz-adv-x="581" 
d="M133 431h41l-18 -173h138q51 0 80.5 -33t29.5 -83q0 -29 -10.5 -54.5t-29 -45t-44.5 -31t-56 -11.5h-176zM496 431h42l-45 -431h-42zM152 221l-19 -184h130q21 0 39.5 8t32 22t21.5 32.5t8 38.5q0 34 -22 58.5t-57 24.5h-133z" />
    <glyph glyph-name="uni044C" unicode="&#x44c;" horiz-adv-x="437" 
d="M133 431h41l-18 -173h138q51 0 80.5 -33t29.5 -83q0 -29 -10.5 -54.5t-29 -45t-44.5 -31t-56 -11.5h-176zM152 221l-19 -184h130q21 0 39.5 8t32 22t21.5 32.5t8 38.5q0 34 -22 58.5t-57 24.5h-133z" />
    <glyph glyph-name="uni044D" unicode="&#x44d;" horiz-adv-x="521" 
d="M83 274q6 33 23 63.5t44.5 53.5t65 36.5t83.5 13.5q51 0 88.5 -16.5t61.5 -44.5t36 -64.5t12 -76.5q0 -47 -16 -91.5t-46.5 -79.5t-76.5 -56.5t-106 -21.5q-46 0 -80.5 12.5t-57.5 34.5t-34.5 50.5t-11.5 60.5h43q1 -24 11 -45.5t28 -37.5t45 -25.5t63 -9.5q42 0 75.5 13
t57.5 35.5t38.5 53t20.5 65.5h-211l4 36h211q1 34 -7 64.5t-27 53.5t-49.5 37t-73.5 14q-38 0 -67 -10.5t-50.5 -28t-34.5 -41t-19 -48.5h-43z" />
    <glyph glyph-name="uni044E" unicode="&#x44e;" horiz-adv-x="724" 
d="M150 195l-20 -195h-42l45 431h42l-21 -198h97q7 43 28.5 80.5t53.5 66t74 45t90 16.5t86.5 -16.5t65 -44t40.5 -65t14 -79.5q0 -49 -18.5 -93.5t-52 -78.5t-80 -54t-101.5 -20q-49 0 -87.5 16.5t-64.5 44t-39.5 65t-12.5 79.5h-97zM456 30q44 0 81.5 16.5t64.5 44.5
t42.5 64.5t15.5 77.5q0 34 -11.5 65t-33 53.5t-52.5 36t-70 13.5q-44 0 -81.5 -16.5t-64.5 -44.5t-42 -65t-15 -78q0 -34 11 -64.5t32.5 -53t52.5 -36t70 -13.5z" />
    <glyph glyph-name="uni044F" unicode="&#x44f;" horiz-adv-x="475" 
d="M365 192l21 202h-156q-27 0 -49 -9.5t-37.5 -25t-24.5 -35.5t-9 -41q0 -37 26 -64t73 -27h156zM95 0h-50l131 158q-24 2 -44 13t-34.5 28.5t-22.5 39t-8 44.5q0 29 12 55.5t33.5 47t51 33t64.5 12.5h204l-45 -431h-42l16 154h-141z" />
    <glyph glyph-name="uni0451" unicode="&#x451;" horiz-adv-x="513" 
d="M160 596q0 23 15.5 38t37.5 15q20 0 32.5 -12.5t12.5 -32.5q0 -23 -16 -38t-38 -15q-20 0 -32 12.5t-12 32.5zM390 596q0 23 15.5 38t38.5 15q20 0 32 -12.5t12 -32.5q0 -23 -15.5 -38t-38.5 -15q-20 0 -32 12.5t-12 32.5zM114 211q-3 -36 4 -69.5t25 -58.5t48.5 -40
t73.5 -15q62 0 101.5 27.5t56.5 65.5h43q-20 -56 -73.5 -93.5t-131.5 -37.5q-49 0 -85 16t-59.5 44t-35 64.5t-11.5 78.5q0 52 17 97t47.5 78.5t73 53t93.5 19.5q43 0 77.5 -13.5t58.5 -37.5t37 -57t13 -72q0 -16 -2 -27t-5 -23h-366zM300 405q-34 0 -64.5 -11t-54.5 -32
t-40.5 -50t-22.5 -65h326q4 36 -5 65t-28.5 49.5t-48 32t-62.5 11.5z" />
    <glyph glyph-name="uni0452" unicode="&#x452;" horiz-adv-x="585" 
d="M213 537l-23 -218q11 23 28.5 45t41.5 39t54.5 27.5t67.5 10.5q80 0 121 -52q19 -24 26.5 -57.5t2.5 -80.5l-42 -399q-6 -59 -38.5 -93t-86.5 -34q-11 0 -29 2t-29 8l4 39q10 -6 26 -9t29 -3q36 0 56.5 23.5t25.5 65.5l41 389q8 72 -23 116.5t-101 44.5q-43 0 -76 -17
t-56.5 -44t-36.5 -59t-16 -62l-23 -219h-42l56 537h-95l3 33h95l14 130h42l-14 -130h139l-3 -33h-139z" />
    <glyph glyph-name="uni0453" unicode="&#x453;" horiz-adv-x="351" 
d="M149 517l-17 35l263 137l18 -35zM381 431l-4 -38h-206l-41 -393h-42l45 431h248z" />
    <glyph glyph-name="uni0454" unicode="&#x454;" horiz-adv-x="522" 
d="M453 274q0 24 -8 47t-25 41t-44.5 29t-66.5 11q-44 0 -77.5 -14t-57.5 -37.5t-38.5 -54t-19.5 -63.5h211l-3 -36h-211q-2 -34 6 -64t27 -53t49.5 -36.5t74.5 -13.5q37 0 66 9.5t50 26t35 38t20 44.5h43q-6 -32 -23.5 -60.5t-45 -50t-64.5 -34.5t-83 -13q-52 0 -89.5 16.5
t-61.5 44.5t-35.5 64.5t-11.5 76.5q0 48 16 92.5t47 79.5t76.5 56t104.5 21q48 0 83 -14t57 -37.5t32.5 -53.5t9.5 -62h-43z" />
    <glyph glyph-name="uni0455" unicode="&#x455;" horiz-adv-x="448" 
d="M265 232q30 -6 56 -13t45 -18.5t30 -29.5t11 -48q0 -61 -46.5 -97t-129.5 -36q-38 0 -70.5 9t-55.5 27.5t-34.5 48t-6.5 71.5h42q-3 -33 5.5 -56t26.5 -37t43 -20t54 -6q63 0 97 24.5t34 66.5q0 22 -9.5 35.5t-27 22.5t-43 15t-58.5 13q-27 6 -51.5 12.5t-42.5 17.5
t-28.5 29t-10.5 46q0 31 13 55.5t35.5 41.5t53.5 26t67 9q35 0 65 -8.5t51 -26.5t31.5 -45t7.5 -63h-42q5 53 -26.5 79.5t-87.5 26.5t-91.5 -24.5t-35.5 -67.5q0 -20 8.5 -32.5t25 -21t40.5 -14.5t55 -12z" />
    <glyph glyph-name="uni0456" unicode="&#x456;" horiz-adv-x="218" 
d="M123 602q0 23 16.5 38.5t38.5 15.5q20 0 32.5 -13t12.5 -32q0 -23 -16.5 -38.5t-38.5 -15.5q-20 0 -32.5 13t-12.5 32zM133 431h42l-45 -431h-42z" />
    <glyph glyph-name="uni0457" unicode="&#x457;" horiz-adv-x="218" 
d="M54 602q0 23 16 38.5t39 15.5q20 0 32 -13t12 -32q0 -23 -16 -38.5t-38 -15.5q-20 0 -32.5 13t-12.5 32zM192 602q0 23 16 38.5t39 15.5q20 0 32 -13t12 -32q0 -23 -16 -38.5t-38 -15.5q-20 0 -32.5 13t-12.5 32zM133 431h42l-45 -431h-42z" />
    <glyph glyph-name="uni0458" unicode="&#x458;" horiz-adv-x="218" 
d="M124 602q0 23 16 38.5t39 15.5q20 0 32 -13t12 -32q0 -23 -16 -38.5t-39 -15.5q-20 0 -32 13t-12 32zM114 -148q-7 -63 -38 -95t-82 -32q-17 0 -32.5 3.5t-25.5 8.5l4 41q27 -13 50 -13q38 0 58 24.5t25 66.5l60 575h42z" />
    <glyph glyph-name="uni0459" unicode="&#x459;" horiz-adv-x="791" 
d="M40 28h28q28 0 45.5 12t21.5 50l36 341h356l-18 -173h139q24 0 44 -9t35 -24.5t23 -36.5t8 -46q0 -29 -11 -55t-30.5 -45.5t-45 -30.5t-53.5 -11h-178l41 393h-273l-32 -309q-3 -28 -12.5 -46t-23.5 -29t-32 -15.5t-38 -4.5h-34zM617 37q20 0 38 8t32 21.5t22 32t8 38.5
q0 34 -21.5 59t-56.5 25h-134l-19 -184h131z" />
    <glyph glyph-name="uni045A" unicode="&#x45a;" horiz-adv-x="767" 
d="M481 221l-19 -184h131q20 0 38 8t32 21.5t22 32t8 38.5q0 34 -21.5 59t-56.5 25h-134zM624 258q24 0 44 -9t34.5 -24.5t22.5 -36.5t8 -46q0 -29 -11 -55t-30 -45.5t-44.5 -30.5t-53.5 -11h-178l23 221h-286l-23 -221h-42l45 431h42l-18 -173h286l18 173h42l-18 -173h139z
" />
    <glyph glyph-name="uni045B" unicode="&#x45b;" horiz-adv-x="585" 
d="M171 537h-95l3 33h95l14 130h42l-14 -130h139l-3 -33h-139l-23 -218q11 23 28.5 45t41.5 39t54.5 27.5t67.5 10.5q80 0 121 -52q19 -24 26.5 -57.5t2.5 -80.5l-26 -251h-42l25 240q8 72 -23 116.5t-101 44.5q-43 0 -76 -17t-56.5 -44t-36.5 -59t-16 -62l-23 -219h-42z
" />
    <glyph glyph-name="uni045C" unicode="&#x45c;" horiz-adv-x="464" 
d="M185 517l-16 35l263 137l17 -35zM154 233h22q23 0 44.5 10t47.5 45l65 86q21 28 41 44.5t52 16.5h40l-4 -37h-29q-27 0 -41.5 -12t-31.5 -35l-57 -75q-24 -32 -46.5 -44.5t-57.5 -13.5l232 -218h-58l-221 210l-22 -210h-42l45 431h42z" />
    <glyph glyph-name="uni045E" unicode="&#x45e;" horiz-adv-x="562" 
d="M344 594q51 0 90 28t55 78h41q-9 -33 -27.5 -59t-43 -44t-55 -27.5t-63.5 -9.5q-67 0 -111.5 37t-49.5 103h40q6 -50 39.5 -78t84.5 -28zM252 -279q-105 0 -146 52.5t-33 154.5h42q-5 -83 26.5 -126t114.5 -43q40 0 70.5 10.5t51.5 33t34 57t18 83.5l18 169
q-12 -24 -29 -46t-40.5 -39t-54.5 -27t-70 -10q-41 0 -71 11.5t-51 37.5q-20 25 -25.5 58.5t0.5 90.5l26 243h41l-24 -233q-4 -36 -0.5 -67t16.5 -53.5t38 -35.5t64 -13q46 0 80 17t57.5 43t36.5 58.5t16 64.5l23 219h42l-51 -488q-13 -120 -67.5 -171t-152.5 -51z" />
    <glyph glyph-name="uni045F" unicode="&#x45f;" horiz-adv-x="567" 
d="M254 -97l10 97h-176l45 431h42l-41 -393h307l41 393h42l-45 -431h-176l-10 -97h-39z" />
    <glyph glyph-name="uni0462" unicode="&#x462;" horiz-adv-x="620" 
d="M461 700l-4 -39h-194l-29 -274h206q36 0 65.5 -13.5t51.5 -37t34 -55.5t12 -69q0 -44 -16.5 -82.5t-45 -67t-66 -45.5t-79.5 -17h-246l69 661h-134l4 39h372zM230 346l-32 -305h202q31 0 60 13t51 36t35 53t13 65q0 28 -9 53t-25.5 44t-39 30t-49.5 11h-206z" />
    <glyph glyph-name="uni0463" unicode="&#x463;" horiz-adv-x="458" 
d="M164 521h-89l3 33h89l16 146h41l-16 -146h137l-3 -33h-137l-28 -263h138q51 0 81 -33t30 -83q0 -29 -10.5 -54.5t-29.5 -45t-45 -31t-56 -11.5h-176zM173 221l-19 -184h130q21 0 39 8t32 22t22 32t8 39q0 34 -22 58.5t-57 24.5h-133z" />
    <glyph glyph-name="uni0472" unicode="&#x472;" horiz-adv-x="809" 
d="M406 -14q-79 0 -140 27t-102 72.5t-62.5 105t-21.5 124.5q0 76 29 148t81 128t125 89.5t162 33.5q79 0 139.5 -27t102 -72.5t62.5 -105t21 -124.5q0 -77 -28.5 -148.5t-81 -127.5t-125.5 -89.5t-161 -33.5zM475 673q-71 0 -130.5 -25.5t-104 -67.5t-73 -97.5
t-37.5 -115.5h627q3 60 -14 115.5t-53 97.5t-90 67.5t-125 25.5zM407 27q71 0 130.5 25.5t104.5 68t73.5 98t37.5 115.5h-627q-3 -60 13.5 -115.5t52.5 -98t90 -68t125 -25.5z" />
    <glyph glyph-name="uni0473" unicode="&#x473;" horiz-adv-x="543" 
d="M272 -10q-49 0 -87 16t-64.5 44t-40.5 65t-14 79q0 49 18.5 94t51.5 79t79 54t100 20q49 0 87.5 -16.5t65 -44t40.5 -65t14 -79.5q0 -49 -18.5 -93.5t-52 -78.5t-79.5 -54t-100 -20zM313 401q-40 0 -74 -13.5t-60 -36.5t-43 -54t-23 -66h365q1 35 -9.5 66t-32 54
t-52.5 36.5t-71 13.5zM274 30q40 0 74.5 13.5t60.5 36.5t43 53.5t23 64.5h-365q-2 -35 9 -65.5t32 -53.5t52 -36t71 -13z" />
    <glyph glyph-name="uni0474" unicode="&#x474;" horiz-adv-x="633" 
d="M294 0h-37l-177 700h47l156 -633l240 525q14 31 29 52t32.5 34.5t38 19.5t46.5 6h24l-4 -40h-23q-32 0 -56.5 -15.5t-45.5 -62.5z" />
    <glyph glyph-name="uni0475" unicode="&#x475;" horiz-adv-x="518" 
d="M244 0h-33l-155 431h46l132 -372l151 264q16 29 31 50t31.5 35t36 20.5t45.5 6.5h24l-4 -40h-16q-35 0 -57.5 -16.5t-47.5 -59.5z" />
    <glyph glyph-name="uni048A" unicode="&#x48a;" horiz-adv-x="681" 
d="M423 804q54 0 95 27.5t58 77.5h41q-9 -33 -28 -59t-45.5 -44t-58 -27.5t-66.5 -9.5t-64.5 9.5t-51.5 27.5t-35.5 44t-15.5 59h41q6 -50 41 -77.5t89 -27.5zM528 0l62 590l-453 -546l-5 -44h-44l74 700h44l-62 -589l453 545l5 44h44l-70 -659h82l-16 -151h-44l12 110h-82z
" />
    <glyph glyph-name="uni048B" unicode="&#x48b;" horiz-adv-x="562" 
d="M341 594q51 0 90.5 28t55.5 78h41q-9 -33 -27.5 -59t-43.5 -44t-55.5 -27.5t-63.5 -9.5q-67 0 -111.5 37t-48.5 103h40q6 -50 39 -78t84 -28zM420 0l36 346l-323 -314l-3 -32h-42l45 431h42l-36 -348l323 316l3 32h43l-41 -393h74l-14 -135h-42l10 97h-75z" />
    <glyph glyph-name="uni048C" unicode="&#x48c;" horiz-adv-x="578" 
d="M226 700l-13 -127h154l-4 -37h-154l-16 -149h206q36 0 65.5 -13.5t51.5 -37t34 -55.5t12 -69q0 -44 -16.5 -82.5t-45 -67t-66.5 -45.5t-80 -17h-245l56 536h-89l4 37h89l13 127h44zM189 346l-32 -305h201q32 0 61 13t51 35.5t35 53t13 64.5q0 28 -9 53.5t-25.5 44.5
t-39 30t-49.5 11h-206z" />
    <glyph glyph-name="uni048D" unicode="&#x48d;" horiz-adv-x="458" 
d="M143 334h-87l3 33h87l7 64h41l-7 -64h139l-3 -33h-139l-8 -76h139q51 0 80 -33t29 -82q0 -29 -10.5 -55t-29.5 -45.5t-44 -31t-55 -11.5h-177zM172 221l-19 -184h130q21 0 39.5 8t32 22t21.5 32.5t8 38.5q0 34 -22 58.5t-57 24.5h-133z" />
    <glyph glyph-name="uni048E" unicode="&#x48e;" horiz-adv-x="595" 
d="M328 413l98 -109q61 23 96.5 74t35.5 114q0 34 -11.5 64.5t-32.5 53.5t-52 36t-70 13h-191l-38 -368h189q18 0 35 3l-85 96zM162 700h235q48 0 86.5 -16t64.5 -44t40 -65.5t14 -79.5q0 -73 -39.5 -132.5t-108.5 -89.5l73 -80l-27 -25l-81 91q-17 -5 -34 -7t-36 -2h-191
l-26 -250h-44z" />
    <glyph glyph-name="uni048F" unicode="&#x48f;" horiz-adv-x="592" 
d="M378 169l77 -86q32 29 49.5 67.5t17.5 83.5q0 34 -11 64.5t-32.5 53t-52.5 36t-71 13.5q-44 0 -81.5 -16.5t-64.5 -44.5t-42 -65t-15 -77q0 -35 11.5 -65.5t32.5 -53t52 -36t70 -13.5q31 0 58.5 8.5t49.5 23.5l-73 84zM164 321q27 54 80 87t121 33q46 0 83 -16.5t63 -44
t39.5 -64.5t13.5 -79q0 -54 -21.5 -101t-61.5 -82l62 -68l-27 -24l-63 70q-29 -20 -63.5 -31t-73.5 -11q-67 0 -112.5 33t-61.5 87l-40 -379h-42l74 700h42z" />
    <glyph glyph-name="uni0490" unicode="&#x490;" horiz-adv-x="472" 
d="M162 700h329l9 91h41l-14 -132h-326l-69 -659h-44z" />
    <glyph glyph-name="uni0491" unicode="&#x491;" horiz-adv-x="357" 
d="M348 431l10 88h39l-14 -126h-212l-41 -393h-42l45 431h215z" />
    <glyph glyph-name="uni0492" unicode="&#x492;" horiz-adv-x="506" 
d="M211 425h134l-4 -37h-134l-41 -388h-44l41 388h-89l4 37h89l29 275h371l-5 -41h-327z" />
    <glyph glyph-name="uni0493" unicode="&#x493;" horiz-adv-x="353" 
d="M158 255h115l-3 -33h-115l-23 -222h-42l23 222h-71l3 33h71l19 176h248l-4 -38h-206z" />
    <glyph glyph-name="uni0494" unicode="&#x494;" horiz-adv-x="561" 
d="M201 659l-35 -340q10 23 27.5 45t41.5 39t54.5 27.5t67.5 10.5q81 0 122 -52q18 -23 26 -56t3 -82l-42 -399q-6 -59 -38.5 -93t-86.5 -34q-16 0 -34.5 2.5t-25.5 7.5l5 43q11 -7 26 -9.5t26 -2.5q38 0 59 23.5t26 65.5l40 385q4 34 -1.5 63.5t-20.5 51t-40 34t-61 12.5
q-42 0 -75 -16.5t-56 -43t-37 -59t-17 -63.5l-23 -219h-44l74 700h254l-5 -41h-210z" />
    <glyph glyph-name="uni0495" unicode="&#x495;" horiz-adv-x="476" 
d="M175 431l-25 -238q18 44 57 75.5t95 31.5q66 0 99 -48q17 -25 23.5 -59.5t1.5 -82.5l-28 -258q-6 -59 -38.5 -93t-86.5 -34q-11 0 -29 2t-29 8l4 39q9 -6 25.5 -9t29.5 -3q36 0 56.5 23.5t25.5 65.5l27 256q3 33 -0.5 61t-15 48.5t-31.5 32.5t-50 12q-33 0 -58.5 -14.5
t-44 -37t-29 -50t-13.5 -54.5l-11 -105h-42l45 431h42z" />
    <glyph glyph-name="uni0496" unicode="&#x496;" horiz-adv-x="867" 
d="M797 -110l12 110h-17l-303 349l-37 -349h-43l37 349l-377 -349h-58l383 351q-53 3 -87 23t-54 71l-47 122q-17 44 -35.5 68.5t-56.5 24.5h-38l5 41h41q48 0 74.5 -29.5t44.5 -77.5l50 -131q21 -54 51 -72t77 -18h29l35 327h43l-35 -327h29q46 0 80.5 18t66.5 72l77 131
q29 48 61.5 77.5t80.5 29.5h42l-5 -41h-38q-19 0 -33.5 -6t-27.5 -18t-25 -29.5t-25 -39.5l-73 -122q-29 -48 -66.5 -69.5t-94.5 -24.5l310 -351l-12 -110h-41z" />
    <glyph glyph-name="uni0497" unicode="&#x497;" horiz-adv-x="655" 
d="M85 0h-54l259 222q-47 1 -71 14t-38 48l-20 56q-9 25 -22.5 41.5t-34.5 16.5h-31l4 37h36q29 0 47.5 -18.5t32.5 -53.5l25 -64q13 -33 31 -45.5t56 -12.5h27l20 190h41l-20 -190h26q39 0 59.5 12.5t39.5 45.5l40 64q22 35 44.5 53.5t51.5 18.5h36l-4 -37h-32
q-21 0 -37.5 -16.5t-30.5 -41.5l-33 -56q-20 -35 -47.5 -48t-74.5 -14l212 -222l-10 -97h-33l10 97h-20l-199 217l-23 -217h-41l23 217z" />
    <glyph glyph-name="uni0498" unicode="&#x498;" horiz-adv-x="548" 
d="M106 195q-8 -76 37.5 -121.5t128.5 -45.5q44 0 80.5 13.5t62.5 36.5t40 55t14 69q0 63 -42 101t-121 38h-55l4 41h55q43 0 77 12t57.5 33.5t36 50t12.5 61.5q0 60 -39.5 96.5t-114.5 36.5q-39 0 -73.5 -11t-60 -31t-42 -48.5t-19.5 -63.5h-44q4 43 24 79t52.5 62t75 40
t92.5 14q91 0 142.5 -44.5t51.5 -121.5q0 -35 -11 -65.5t-31 -54.5t-49.5 -40t-65.5 -22q62 -10 97 -52t35 -109q0 -41 -14 -78.5t-43 -67t-74 -48t-106 -20.5q-16 -1 -17.5 -0.5t-5.5 0.5l-7 -69q10 13 27 21t37 8q33 0 53 -21.5t20 -52.5q0 -18 -7 -35.5t-20 -30.5
t-31.5 -21t-40.5 -8q-31 0 -57 17.5t-28 56.5h31q2 -19 15 -32.5t39 -13.5q31 0 49.5 19t18.5 45q0 20 -13 35t-41 15q-14 0 -30 -6.5t-29 -28.5h-28l10 103q-81 12 -124.5 65.5t-34.5 138.5h44z" />
    <glyph glyph-name="uni0499" unicode="&#x499;" horiz-adv-x="402" 
d="M92 116q-5 -41 23.5 -65t81.5 -24q54 0 87 25t33 68q0 37 -25.5 58.5t-73.5 21.5h-40l3 34h39q53 0 82.5 27.5t29.5 66.5q0 35 -24 56t-71 21q-50 0 -80 -24t-35 -62h-43q3 27 16.5 49.5t35 38.5t50 25t61.5 9q63 0 98 -29.5t35 -77.5q0 -42 -27.5 -74t-78.5 -41
q42 -4 66 -30.5t24 -66.5q0 -29 -12 -52.5t-33 -41t-49.5 -27t-62.5 -9.5q-11 0 -20.5 0.5t-17.5 2.5l-8 -74q9 13 26.5 21t37.5 8q33 0 53 -21t20 -53q0 -38 -27 -66.5t-71 -28.5q-16 0 -31 4.5t-27 13.5t-19.5 23t-8.5 33h32q1 -19 15 -32.5t39 -13.5q29 0 48 19t19 45
q0 21 -14 35.5t-40 14.5q-14 0 -30.5 -6.5t-28.5 -28.5h-29l12 112q-44 13 -66 43t-17 73h43z" />
    <glyph glyph-name="uni049A" unicode="&#x49a;" horiz-adv-x="577" 
d="M499 -110l12 110h-20l-322 349l-37 -349h-44l74 700h44l-33 -314h27q18 0 36.5 2.5t37.5 11.5t38.5 26t39.5 46l90 132q30 45 64 71t83 26h45l-5 -41h-40q-38 0 -63.5 -19.5t-53.5 -61.5l-88 -130q-34 -50 -77.5 -69t-89.5 -22l333 -358l-12 -110h-39z" />
    <glyph glyph-name="uni049B" unicode="&#x49b;" horiz-adv-x="464" 
d="M386 -97l10 97h-23l-221 210l-22 -210h-42l45 431h42l-21 -198h22q23 0 44.5 10t47.5 45l65 86q21 28 41 44.5t52 16.5h40l-4 -37h-29q-27 0 -41.5 -12t-31.5 -35l-57 -75q-24 -32 -46.5 -44.5t-57.5 -13.5l232 -218l-10 -97h-35z" />
    <glyph glyph-name="uni049C" unicode="&#x49c;" horiz-adv-x="571" 
d="M226 383h1q22 0 38.5 4t32 16.5t33 35t41.5 60.5l68 105q29 45 63 71t84 26h47l-5 -41h-40q-38 0 -64 -19.5t-53 -61.5l-69 -107q-35 -55 -66 -82.5t-69 -29.5l282 -360h-59l-269 344l-16 -150h-20l16 150h-34l-36 -344h-44l74 700h44l-34 -317h34l18 170h20z" />
    <glyph glyph-name="uni049D" unicode="&#x49d;" horiz-adv-x="464" 
d="M197 233h7q26 0 42.5 11t36.5 44l57 86q20 30 40 45.5t52 15.5h34l-4 -37h-22q-27 0 -41.5 -11.5t-30.5 -35.5l-50 -75q-20 -29 -38.5 -42.5t-40.5 -15.5l192 -218h-58l-178 210l-10 -100h-19l10 100h-24l-22 -210h-42l45 431h42l-21 -198h24l11 102h19z" />
    <glyph glyph-name="uni049E" unicode="&#x49e;" horiz-adv-x="592" 
d="M183 700h44l-12 -118h102l-4 -34h-102l-17 -162h27q18 0 36.5 2.5t37.5 11.5t38.5 26t39.5 46l91 132q30 45 63 71t83 26h45l-4 -41h-40q-38 0 -63.5 -20t-53.5 -61l-89 -130q-35 -50 -78.5 -69t-88.5 -22l333 -358h-59l-322 349l-37 -349h-44l58 548h-89l4 34h89z" />
    <glyph glyph-name="uni049F" unicode="&#x49f;" horiz-adv-x="458" 
d="M127 431h43l-7 -67h69l-3 -30h-69l-11 -101h21q23 0 44.5 10t47.5 45l65 86q21 28 41.5 44.5t51.5 16.5h40l-4 -37h-29q-27 0 -41 -12t-31 -35l-57 -75q-26 -35 -50.5 -46t-54.5 -12l232 -218h-57l-221 210l-22 -210h-43l35 334h-63l3 30h63z" />
    <glyph glyph-name="uni04A0" unicode="&#x4a0;" horiz-adv-x="653" 
d="M86 659l4 41h197l-33 -314h28q18 0 37 3t38.5 12t39 26t38.5 45l89 132q32 47 66 72t81 25h44l-4 -41h-39q-39 0 -64.5 -19.5t-54.5 -61.5l-87 -130q-34 -50 -77.5 -69t-89.5 -22l334 -358h-60l-323 349l-36 -349h-44l69 659h-153z" />
    <glyph glyph-name="uni04A1" unicode="&#x4a1;" horiz-adv-x="489" 
d="M60 393l4 38h136l-21 -198h21q23 0 45 10t48 45l64 86q22 29 42.5 45t50.5 16h40l-3 -37h-29q-27 0 -42 -12t-32 -35l-56 -75q-25 -33 -48.5 -45t-55.5 -13l231 -218h-57l-221 210l-22 -210h-42l41 393h-94z" />
    <glyph glyph-name="uni04A2" unicode="&#x4a2;" horiz-adv-x="662" 
d="M529 0l34 327h-397l-34 -327h-44l74 700h44l-35 -332h397l35 332h44l-70 -659h31l-16 -151h-44l12 110h-31z" />
    <glyph glyph-name="uni04A3" unicode="&#x4a3;" horiz-adv-x="562" 
d="M447 196h-296l-21 -196h-42l45 431h42l-20 -197h296l20 197h43l-41 -393h34l-14 -135h-42l10 97h-35z" />
    <glyph glyph-name="uni04A4" unicode="&#x4a4;" horiz-adv-x="754" 
d="M573 0h-44l34 327h-397l-34 -327h-44l74 700h44l-35 -332h397l35 332h207l-5 -41h-163z" />
    <glyph glyph-name="uni04A5" unicode="&#x4a5;" horiz-adv-x="594" 
d="M620 431l-4 -38h-106l-41 -393h-43l21 196h-296l-21 -196h-42l45 431h42l-20 -197h296l20 197h149z" />
    <glyph glyph-name="uni04A6" unicode="&#x4a6;" horiz-adv-x="678" 
d="M201 659l-69 -659h-44l74 700h494l-70 -659h38l-16 -151h-44l12 110h-38l69 659h-406z" />
    <glyph glyph-name="uni04A7" unicode="&#x4a7;" horiz-adv-x="573" 
d="M483 38h34l-14 -135h-42l10 97h-34l41 393h-307l-41 -393h-42l45 431h391z" />
    <glyph glyph-name="uni04A8" unicode="&#x4a8;" horiz-adv-x="829" 
d="M466 673q-77 0 -140 -29t-107 -78t-68 -112t-24 -131q0 -59 18.5 -112.5t53.5 -94.5t87 -65t119 -24h17.5t16.5 1l51 484q5 51 21.5 89t41 63t56 37.5t67.5 12.5q34 0 62.5 -12t48 -36.5t28 -62t3.5 -89.5l-16 -157q-7 -65 -33 -125.5t-68.5 -109t-99.5 -82.5t-124 -46
l-14 -138q-5 -44 14 -67t56 -23q13 0 30 3t28 9l-4 -43q-12 -6 -32.5 -8t-31.5 -2q-55 0 -81.5 34.5t-20.5 92.5l14 136q-11 0 -16 -1t-22 -1q-74 0 -132.5 26.5t-99.5 72t-63 105.5t-22 127q0 76 28 147.5t79 127t123 89t160 33.5zM482 37q58 12 106 43t83.5 74t57.5 95
t28 108l17 161q8 77 -22.5 117.5t-81.5 40.5q-50 0 -89.5 -39.5t-47.5 -118.5z" />
    <glyph glyph-name="uni04A9" unicode="&#x4a9;" horiz-adv-x="552" 
d="M304 400q-44 0 -80 -16t-61.5 -43.5t-39.5 -64t-14 -76.5q0 -35 11 -66t31.5 -54t50.5 -36.5t68 -13.5h11t11 1l30 281q7 66 38 97t80 31q103 0 90 -126l-10 -96q-4 -39 -19.5 -75.5t-40.5 -65.5t-59 -50t-75 -30l-15 -146q-5 -42 11 -65.5t51 -23.5q12 0 27 3t26 9
l-4 -39q-13 -6 -29.5 -8t-27.5 -2q-52 0 -74.5 34t-16.5 91l15 141q-7 0 -11.5 -0.5t-14.5 -0.5q-46 0 -82.5 16.5t-62 44.5t-39 65.5t-13.5 79.5q0 48 17.5 92.5t49.5 78t76.5 53.5t98.5 20zM331 39q31 9 57.5 26.5t46.5 41.5t32 52.5t15 59.5l9 91q9 92 -56 92
q-66 0 -76 -93z" />
    <glyph glyph-name="uni04AA" unicode="&#x4aa;" horiz-adv-x="774" 
d="M735 474q-7 43 -27 80t-53 63t-78 41t-101 15q-81 0 -146 -29.5t-110.5 -79t-70 -113t-24.5 -131.5q0 -60 19.5 -113t56 -93t90 -63.5t122.5 -23.5q50 0 95 13t82.5 35.5t66 53.5t46.5 68h49q-20 -45 -53.5 -83t-77 -66.5t-96.5 -44.5t-111 -16h-23l-7 -66q10 13 27 21
t37 8q34 0 53.5 -21.5t19.5 -52.5q0 -18 -7 -35.5t-20 -30.5t-31.5 -21t-40.5 -8q-15 0 -30 4t-27 13t-20 23t-9 34h32q2 -19 15 -32.5t39 -13.5q31 0 49.5 19t18.5 45q0 21 -14 35.5t-40 14.5q-14 0 -30 -6.5t-29 -28.5h-29l10 101q-67 8 -119 37t-87 72.5t-53.5 99.5
t-18.5 118q0 76 27.5 148t79.5 127.5t125.5 89t165.5 33.5q66 0 119 -17.5t91.5 -49.5t62 -76t30.5 -97h-46z" />
    <glyph glyph-name="uni04AB" unicode="&#x4ab;" horiz-adv-x="519" 
d="M216 -6q-36 7 -63.5 26t-45.5 45.5t-27 59.5t-9 68q0 47 16 92t47 79.5t76.5 55.5t104.5 21q48 0 82 -14.5t55.5 -37.5t31.5 -53.5t10 -61.5h-43q0 25 -8 48t-25 41t-43.5 28.5t-64.5 10.5q-48 0 -85 -17.5t-61.5 -46.5t-37.5 -66t-13 -77q0 -33 9 -63t28.5 -52.5t50 -36
t72.5 -13.5q69 0 110.5 34t55.5 84h43q-21 -74 -71 -113.5t-143 -43.5q-13 -1 -15 -0.5t-4 0.5l-7 -70q8 13 25.5 21t37.5 8q33 0 53 -21t20 -53q0 -38 -27 -66.5t-71 -28.5q-16 0 -31 4.5t-27 13.5t-19.5 23t-8.5 33h32q1 -19 15 -32.5t39 -13.5q29 0 48 19t19 45
q0 21 -14 35.5t-40 14.5q-14 0 -30.5 -6.5t-28.5 -28.5h-29z" />
    <glyph glyph-name="uni04AC" unicode="&#x4ac;" horiz-adv-x="469" 
d="M281 659h-196l4 41h437l-4 -41h-197l-65 -618h31l-16 -151h-44l12 110h-31z" />
    <glyph glyph-name="uni04AD" unicode="&#x4ad;" horiz-adv-x="359" 
d="M386 431l-4 -38h-141l-37 -355h34l-15 -135h-42l11 97h-34l41 393h-141l4 38h324z" />
    <glyph glyph-name="uni04AE" unicode="&#x4ae;" horiz-adv-x="554" 
d="M311 321l257 379h51l-289 -423l-30 -277h-46l30 277l-201 423h51z" />
    <glyph glyph-name="uni04AF" unicode="&#x4af;" horiz-adv-x="475" 
d="M242 50l217 381h48l-248 -427l-29 -273h-44l29 273l-157 427h47z" />
    <glyph glyph-name="uni04B0" unicode="&#x4b0;" horiz-adv-x="554" 
d="M319 178l-19 -178h-46l19 178h-127l4 36h127l7 63l-201 423h51l177 -379l257 379h51l-289 -423l-7 -63h127l-4 -36h-127z" />
    <glyph glyph-name="uni04B1" unicode="&#x4b1;" horiz-adv-x="475" 
d="M242 50l217 381h48l-248 -427l-6 -61h118l-4 -32h-118l-19 -180h-44l19 180h-118l4 32h118l6 61l-157 427h47z" />
    <glyph glyph-name="uni04B2" unicode="&#x4b2;" horiz-adv-x="520" 
d="M464 -106l11 106h-17l-165 311l-231 -311h-50l260 350l-186 350h50l165 -312l231 312h50l-260 -350l186 -350l-11 -106h-33z" />
    <glyph glyph-name="uni04B3" unicode="&#x4b3;" horiz-adv-x="427" 
d="M354 -97l10 97h-17l-115 183l-152 -183h-50l181 216l-135 215h50l113 -182l152 182h50l-180 -215l136 -216l-10 -97h-33z" />
    <glyph glyph-name="uni04B4" unicode="&#x4b4;" horiz-adv-x="777" 
d="M262 41h361l69 659h44l-69 -659h89l-16 -151h-41l12 110h-497l69 659h-197l4 41h438l-4 -41h-197z" />
    <glyph glyph-name="uni04B5" unicode="&#x4b5;" horiz-adv-x="636" 
d="M199 38h294l41 393h43l-41 -393h74l-15 -135h-42l11 97h-411l41 393h-134l4 38h311l-4 -38h-135z" />
    <glyph glyph-name="uni04B6" unicode="&#x4b6;" horiz-adv-x="558" 
d="M417 0l26 246h-153q-62 0 -104 15.5t-67 45t-34 71t-3 94.5l24 228h44l-23 -219q-5 -44 1.5 -80t27 -61.5t56 -39t89.5 -13.5h146l44 413h44l-70 -659h38l-15 -151h-44l11 110h-38z" />
    <glyph glyph-name="uni04B7" unicode="&#x4b7;" horiz-adv-x="453" 
d="M317 0l15 148h-118q-78 0 -111.5 41t-25.5 111l14 131h43l-14 -130q-6 -56 20 -85.5t84 -29.5h112l26 245h43l-41 -393h33l-14 -135h-42l10 97h-34z" />
    <glyph glyph-name="uni04B8" unicode="&#x4b8;" horiz-adv-x="564" 
d="M328 287h134l43 413h44l-73 -700h-44l26 246h-134l-11 -105h-33l11 105q-58 1 -97.5 17.5t-63 46t-31.5 70.5t-3 92l24 228h44l-23 -219q-5 -42 0.5 -76t23.5 -59.5t50 -40t80 -17.5l13 126h33z" />
    <glyph glyph-name="uni04B9" unicode="&#x4b9;" horiz-adv-x="490" 
d="M317 0l15 148h-89l-8 -80h-29l8 80q-78 0 -111.5 41t-25.5 111l14 131h43l-14 -130q-6 -54 19 -84t79 -31l12 112h29l-12 -112h89l26 245h43l-45 -431h-43z" />
    <glyph glyph-name="uni04BA" unicode="&#x4ba;" horiz-adv-x="570" 
d="M162 700h44l-26 -241h152q105 0 150.5 -56t34.5 -158l-26 -245h-44l25 236q9 87 -25.5 134.5t-125.5 47.5h-145l-44 -418h-44z" />
    <glyph glyph-name="uni04BB" unicode="&#x4bb;" horiz-adv-x="558" 
d="M162 700h42l-40 -381q11 24 28.5 46t41.5 39t54.5 27t66.5 10q81 0 122 -52q19 -24 26 -57.5t2 -80.5l-26 -251h-42l25 240q4 34 -1.5 63.5t-20.5 51t-40 34t-61 12.5q-42 0 -75.5 -16.5t-56.5 -43t-37 -59t-17 -63.5l-23 -219h-42z" />
    <glyph glyph-name="uni04BC" unicode="&#x4bc;" horiz-adv-x="928" 
d="M607 674q-68 0 -126 -24.5t-101.5 -65.5t-71.5 -96.5t-35 -116.5h602q4 60 -11.5 115t-49.5 96.5t-86 66.5t-121 25zM537 -12q-85 0 -147 29t-101.5 77t-56.5 110.5t-12 128.5h-34q-67 0 -97 36t-24 97l5 52h41l-5 -52q-5 -46 16.5 -70.5t70.5 -24.5h31q10 70 42.5 132
t83.5 109t117.5 74.5t144.5 27.5q80 0 141 -29t100 -78.5t56 -115t10 -138.5l-2 -20h-648q-4 -60 11 -115t49.5 -97t88.5 -67t126 -25q54 0 99.5 14t81.5 39t63.5 58t46.5 72h52q-21 -47 -54 -87.5t-77 -71t-99 -48t-120 -17.5z" />
    <glyph glyph-name="uni04BD" unicode="&#x4bd;" horiz-adv-x="614" 
d="M402 406q-34 0 -64 -11.5t-54 -32t-40.5 -50t-22.5 -65.5h326q4 36 -5.5 65t-29 50t-48 32.5t-62.5 11.5zM217 211q-3 -36 4 -69.5t25 -58.5t48.5 -40t73.5 -15q62 0 101.5 27.5t56.5 65.5h43q-9 -26 -27 -50t-44.5 -42t-60 -28.5t-73.5 -10.5q-52 0 -89 17.5t-60.5 47.5
t-33 69.5t-6.5 82.5l-13 4q-62 0 -89.5 32t-21.5 87l4 38h39l-4 -38q-4 -37 14 -60t63 -23h13q9 43 29 79t49.5 61.5t67 39.5t80.5 14q42 0 76 -13.5t58 -37.5t37 -57t13 -72q0 -16 -2 -27t-5 -23h-366z" />
    <glyph glyph-name="uni04BE" unicode="&#x4be;" horiz-adv-x="928" 
d="M607 674q-68 0 -126 -24.5t-101.5 -65.5t-71.5 -96.5t-35 -116.5h602q4 60 -11.5 115t-49.5 96.5t-86 66.5t-121 25zM523 -12q-78 3 -137 32t-97 76t-56 108t-13 129h-34q-67 0 -97 36t-24 97l5 52h41l-5 -52q-5 -46 16.5 -70.5t70.5 -24.5h31q10 70 42.5 132t83.5 109
t117.5 74.5t144.5 27.5q80 0 141 -29t100 -78.5t56 -115t10 -138.5l-2 -20h-648q-4 -60 11 -115t49.5 -97t88.5 -67t126 -25q54 0 99.5 14t81.5 39t63.5 58t46.5 72h52q-20 -46 -52 -86t-74 -70t-94.5 -48t-112.5 -20q-29 -24 -43.5 -50t-14.5 -50q0 -26 18.5 -45.5
t57.5 -19.5q20 0 42.5 5t37.5 10l-5 -35q-17 -5 -40 -10t-47 -5q-55 0 -81 26t-26 63q0 59 70 111z" />
    <glyph glyph-name="uni04BF" unicode="&#x4bf;" horiz-adv-x="614" 
d="M402 406q-34 0 -64 -11.5t-54 -32t-40.5 -50t-22.5 -65.5h326q4 36 -5.5 65t-29 50t-48 32.5t-62.5 11.5zM349 -9q-48 3 -83 21.5t-56.5 47.5t-30 67t-4.5 80l-13 4q-62 0 -89.5 32t-21.5 87l4 38h39l-4 -38q-4 -37 14 -60t63 -23h13q9 43 29 79t49.5 61.5t67 39.5
t80.5 14q42 0 76 -13.5t58 -37.5t37 -57t13 -72q0 -16 -2 -27t-5 -23h-366q-3 -36 4 -69.5t25 -58.5t48.5 -40t73.5 -15q62 0 101.5 27.5t56.5 65.5h43q-9 -25 -26 -48t-41.5 -41t-56 -29t-67.5 -13q-30 -23 -47.5 -50t-17.5 -53t19.5 -45t57.5 -19q20 0 42 5t38 10l-5 -35
q-16 -5 -39 -10t-47 -5q-55 0 -81.5 26t-26.5 62q0 32 20 60t58 55z" />
    <glyph glyph-name="uni04C0" unicode="&#x4c0;" horiz-adv-x="221" 
d="M162 700h45l-74 -700h-45z" />
    <glyph glyph-name="uni04C3" unicode="&#x4c3;" horiz-adv-x="574" 
d="M172 383h27q22 0 41 2.5t37.5 13t37.5 31t41 56.5l77 120q29 46 64 72t86 26h47l-4 -41h-40q-40 0 -68 -20t-54 -62l-73 -116q-41 -65 -85 -82h43q82 0 125 -49q20 -24 29 -57.5t4 -79.5l-37 -345q-6 -59 -40 -93t-90 -34q-11 0 -30 2t-30 8l5 43q10 -7 25.5 -9.5
t27.5 -2.5q38 0 61 23.5t28 65.5l34 330q4 36 -2 66.5t-22.5 53t-43 35.5t-64.5 13h-160l-37 -353h-44l74 700h44z" />
    <glyph glyph-name="uni04C4" unicode="&#x4c4;" horiz-adv-x="475" 
d="M154 232h29q21 0 41.5 12t44.5 44l64 86q21 28 41.5 44.5t52.5 16.5h49l-4 -37h-38q-27 0 -41.5 -12t-31.5 -35l-56 -74q-14 -18 -26.5 -28t-26.5 -17h31q36 -2 62 -14.5t41 -32.5q16 -21 21 -51t1 -67l-23 -215q-6 -59 -39.5 -93t-88.5 -34q-11 0 -29.5 2t-29.5 8l4 39
q9 -6 25 -9t29 -3q38 0 59.5 23.5t26.5 65.5l24 222q6 56 -16 91.5t-85 35.5h-114l-21 -200h-42l45 431h42z" />
    <glyph glyph-name="uni04C5" unicode="&#x4c5;" horiz-adv-x="696" 
d="M13 29h29q21 0 38 4t29.5 15.5t20.5 31t11 50.5l60 570h476l-69 -659h32l-74 -151h-44l53 110h-15l70 659h-390l-56 -536q-4 -40 -16.5 -66t-30.5 -41.5t-41.5 -21.5t-49.5 -6h-37z" />
    <glyph glyph-name="uni04C6" unicode="&#x4c6;" horiz-adv-x="543" 
d="M16 28h20q15 0 27.5 2.5t22.5 11t16.5 24.5t9.5 43l34 322h353l-41 -390h25l-68 -142h-41l48 101h-11l41 393h-269l-30 -290q-4 -35 -14.5 -57.5t-26 -35t-34.5 -17t-40 -4.5h-26z" />
    <glyph glyph-name="uni04C7" unicode="&#x4c7;" horiz-adv-x="660" 
d="M557 -148q-6 -59 -38.5 -93t-86.5 -34q-16 0 -34.5 2.5t-25.5 7.5l5 43q11 -7 26 -9.5t26 -2.5q38 0 59 23.5t26 65.5l50 472h-398l-34 -327h-44l74 700h44l-35 -332h397l35 332h43z" />
    <glyph glyph-name="uni04C8" unicode="&#x4c8;" horiz-adv-x="555" 
d="M453 -148q-14 -127 -118 -127q-14 0 -30.5 2.5t-29.5 9.5l5 40q25 -14 49 -14q37 0 57 23.5t25 67.5l36 342h-296l-21 -196h-42l45 431h42l-20 -197h296l20 197h43z" />
    <glyph glyph-name="uni04C9" unicode="&#x4c9;" horiz-adv-x="667" 
d="M563 327h-397l-34 -327h-44l74 700h44l-35 -332h397l35 332h44l-70 -659h32l-74 -151h-44l54 110h-16z" />
    <glyph glyph-name="uni04CA" unicode="&#x4ca;" horiz-adv-x="570" 
d="M459 196h-296l-21 -196h-43l45 431h43l-20 -197h296l20 197h42l-41 -390h26l-69 -142h-42l50 101h-11z" />
    <glyph glyph-name="uni04CB" unicode="&#x4cb;" horiz-adv-x="564" 
d="M446 0l-11 -110h-44l15 151h30l22 205h-154q-61 0 -103 15.5t-67 45t-34 71t-3 94.5l24 228h44l-23 -219q-5 -44 1.5 -80t27 -61.5t56 -39t89.5 -13.5h146l44 413h44l-74 -700h-30z" />
    <glyph glyph-name="uni04CC" unicode="&#x4cc;" horiz-adv-x="445" 
d="M309 0l15 148h-118q-78 0 -112 41t-26 111l14 131h44l-14 -130q-6 -56 19.5 -85.5t83.5 -29.5h113l26 245h42l-41 -393h34l-14 -135h-42l10 97h-34z" />
    <glyph glyph-name="uni04CD" unicode="&#x4cd;" horiz-adv-x="813" 
d="M725 41h31l-74 -151h-44l54 110h-15l63 598l-317 -598h-38l-190 598l-63 -598h-44l74 700h43l206 -637l340 637h44z" />
    <glyph glyph-name="uni04CE" unicode="&#x4ce;" horiz-adv-x="697" 
d="M611 41h26l-70 -142h-39l50 101h-11l41 391l-246 -391h-30l-163 391l-41 -391h-40l45 431h63l157 -376l236 376h63z" />
    <glyph glyph-name="uni04D0" unicode="&#x4d0;" horiz-adv-x="534" 
d="M352 804q54 0 95 27.5t57 77.5h42q-9 -33 -28.5 -59t-45.5 -44t-58 -27.5t-66 -9.5q-35 0 -64.5 9.5t-51.5 27.5t-35.5 44t-15.5 59h41q6 -50 41 -77.5t89 -27.5zM136 185h299l-101 449zM525 0h-46l-34 144h-327l-64 -144h-46l315 700h36z" />
    <glyph glyph-name="uni04D1" unicode="&#x4d1;" horiz-adv-x="586" 
d="M333 594q51 0 89.5 28t55.5 78h41q-9 -33 -27.5 -59t-43 -44t-55 -27.5t-63.5 -9.5q-67 0 -112 37t-50 103h41q6 -50 39.5 -78t84.5 -28zM275 30q44 0 81.5 16.5t64.5 44.5t42.5 64.5t15.5 77.5q0 34 -11.5 65t-33 53.5t-52.5 36t-70 13.5q-44 0 -81.5 -16.5t-64.5 -44.5
t-42 -65t-15 -78q0 -34 11 -64.5t32.5 -53t52.5 -36t70 -13.5zM543 431l-45 -431h-43l11 109q-27 -53 -79 -86t-120 -33q-47 0 -84 16.5t-63 44t-40 64.5t-14 79q0 49 18.5 94t51.5 79t78.5 54t98.5 20q69 0 114 -33t61 -87l12 110h43z" />
    <glyph glyph-name="uni04D2" unicode="&#x4d2;" horiz-adv-x="534" 
d="M188 815q0 23 16 38.5t38 15.5q20 0 32.5 -13t12.5 -32q0 -23 -16.5 -38t-38.5 -15q-20 0 -32 12.5t-12 31.5zM419 815q0 23 16 38.5t38 15.5q20 0 32 -13t12 -32q0 -23 -16 -38t-38 -15q-20 0 -32 12.5t-12 31.5zM136 185h299l-101 449zM525 0h-46l-34 144h-327
l-64 -144h-46l315 700h36z" />
    <glyph glyph-name="uni04D3" unicode="&#x4d3;" horiz-adv-x="586" 
d="M267 605q0 -23 -16.5 -38t-37.5 -15q-20 0 -32 12.5t-12 31.5q0 23 15.5 38.5t37.5 15.5q20 0 32.5 -13t12.5 -32zM443 552q-20 0 -32 12.5t-12 31.5q0 23 15.5 38.5t38.5 15.5q20 0 32 -13t12 -32q0 -23 -15.5 -38t-38.5 -15zM275 30q44 0 81.5 16.5t64.5 44.5
t42.5 64.5t15.5 77.5q0 34 -11.5 65t-33 53.5t-52.5 36t-70 13.5q-44 0 -81.5 -16.5t-64.5 -44.5t-42 -65t-15 -78q0 -34 11 -64.5t32.5 -53t52.5 -36t70 -13.5zM455 0l11 109q-27 -53 -79 -86t-120 -33q-47 0 -84 16.5t-63 44t-40 64.5t-14 79q0 49 18.5 94t51.5 79
t78.5 54t98.5 20q69 0 114 -33t61 -87l12 110h43l-45 -431h-43z" />
    <glyph glyph-name="uni04D4" unicode="&#x4d4;" horiz-adv-x="833" 
d="M398 185l48 456l-278 -456h230zM492 659l-30 -291h327l-5 -41h-327l-30 -286h327l-4 -41h-371l15 144h-250l-88 -144h-48l429 700h387l-5 -41h-327z" />
    <glyph glyph-name="uni04D5" unicode="&#x4d5;" horiz-adv-x="919" 
d="M543 431l-9 -84q29 44 74.5 69t102.5 25q40 0 73.5 -13t57.5 -37t37.5 -57t13.5 -73q0 -16 -2 -27t-6 -23h-365q-4 -39 4 -72.5t26.5 -58t49 -38.5t71.5 -14q62 0 101 27.5t56 65.5h43q-9 -26 -27 -50t-44 -42t-59 -28.5t-72 -10.5q-64 0 -104 27t-58 69l-9 -86h-43
l11 109q-27 -53 -79 -86t-120 -33q-47 0 -84 16.5t-63 44t-40 64.5t-14 79q0 49 18.5 94t51.5 79t78.5 54t98.5 20q69 0 114 -33t61 -87l12 110h43zM705 403q-34 0 -64 -11t-54 -31.5t-40 -49t-22 -64.5h325q3 35 -6 63.5t-28.5 49t-48 32t-62.5 11.5zM275 30
q44 0 81.5 16.5t64.5 44.5t42.5 65t15.5 78q0 34 -11.5 64.5t-33 53.5t-52.5 36t-70 13q-44 0 -81.5 -16.5t-64.5 -44.5t-42 -65t-15 -78q0 -34 11 -64.5t32.5 -53t52.5 -36t70 -13.5z" />
    <glyph glyph-name="uni04D6" unicode="&#x4d6;" horiz-adv-x="541" 
d="M358 804q54 0 95 27.5t57 77.5h42q-9 -33 -28.5 -59t-45.5 -44t-58 -27.5t-66 -9.5q-70 0 -116.5 37t-50.5 103h41q6 -50 41 -77.5t89 -27.5zM201 659l-30 -291h326l-5 -41h-326l-30 -286h326l-4 -41h-370l74 700h370l-5 -41h-326z" />
    <glyph glyph-name="uni04D7" unicode="&#x4d7;" horiz-adv-x="513" 
d="M324 594q51 0 90.5 28t55.5 78h41q-9 -33 -27.5 -59t-43.5 -44t-55.5 -27.5t-63.5 -9.5t-61.5 9.5t-49.5 27.5t-34 44t-15 59h41q5 -50 38 -78t84 -28zM114 211q-3 -36 4 -69.5t25 -58.5t48.5 -40t73.5 -15q62 0 101.5 27.5t56.5 65.5h44q-20 -56 -74 -93.5t-131 -37.5
q-49 0 -85 16t-59.5 44t-35 64.5t-11.5 78.5q0 51 16.5 96.5t47 79t73 53t93.5 19.5q43 0 77.5 -13.5t58.5 -37.5t37 -57t13 -72q0 -16 -2 -27t-5 -23h-366zM300 405q-34 0 -64.5 -11t-54.5 -32t-40 -50t-22 -65h325q4 36 -5 65t-28.5 49.5t-48 32t-62.5 11.5z" />
    <glyph glyph-name="uni04D8" unicode="&#x4d8;" horiz-adv-x="787" 
d="M113 490q19 45 51 86t76 71.5t99 48.5t120 18q78 0 138.5 -26.5t101 -71.5t61.5 -104t21 -125q0 -78 -28.5 -150.5t-80 -128t-123.5 -88.5t-158 -33q-79 0 -141.5 28.5t-103.5 77.5t-58.5 115t-6.5 141l3 21h651q4 60 -12 114.5t-51 96.5t-89.5 67t-127.5 25
q-54 0 -99.5 -14t-81.5 -39t-63.5 -58t-46.5 -72h-51zM393 28q68 0 126.5 24.5t103 66t72.5 96.5t36 117h-606q-5 -62 11 -117t50.5 -96.5t86.5 -66t120 -24.5z" />
    <glyph glyph-name="uni04D9" unicode="&#x4d9;" horiz-adv-x="513" 
d="M444 220q3 36 -4 69.5t-25 58.5t-48.5 40t-73.5 15q-62 0 -101.5 -27.5t-56.5 -65.5h-44q20 56 74 93.5t132 37.5q49 0 84.5 -16t59 -44t35 -64.5t11.5 -78.5q0 -52 -16.5 -97t-47 -78.5t-73 -53t-93.5 -19.5q-43 0 -77.5 13.5t-58.5 37.5t-37 57t-13 72q0 16 2 27t5 23
h366zM259 25q34 0 64 11.5t54 32t40 50t22 65.5h-325q-4 -36 5.5 -65t29 -50t47.5 -32.5t63 -11.5z" />
    <glyph glyph-name="uni04DA" unicode="&#x4da;" horiz-adv-x="787" 
d="M548 815q0 23 15.5 38.5t37.5 15.5q20 0 32.5 -13t12.5 -32q0 -23 -16.5 -38t-37.5 -15q-20 0 -32 12.5t-12 31.5zM361 771q-20 0 -32 12.5t-12 31.5q0 23 15.5 38.5t38.5 15.5q20 0 32.5 -13t12.5 -32q0 -23 -16 -38t-39 -15zM113 490q19 45 51 86t76 71.5t99 48.5
t120 18q78 0 138.5 -26.5t101 -71.5t61.5 -104t21 -125q0 -78 -28.5 -150.5t-80 -128t-123.5 -88.5t-158 -33q-79 0 -141.5 28.5t-103.5 77.5t-58.5 115t-6.5 141l3 21h651q4 60 -12 114.5t-51 96.5t-89.5 67t-127.5 25q-54 0 -99.5 -14t-81.5 -39t-63.5 -58t-46.5 -72h-51z
M393 28q68 0 126.5 24.5t103 66t72.5 96.5t36 117h-606q-5 -62 11 -117t50.5 -96.5t86.5 -66t120 -24.5z" />
    <glyph glyph-name="uni04DB" unicode="&#x4db;" horiz-adv-x="513" 
d="M160 596q0 23 16 38t37 15q20 0 32.5 -12.5t12.5 -32.5q0 -23 -16 -38t-38 -15q-20 0 -32 12.5t-12 32.5zM390 596q0 23 15.5 38t38.5 15q20 0 32.5 -12.5t12.5 -32.5q0 -23 -16 -38t-39 -15q-20 0 -32 12.5t-12 32.5zM444 220q3 36 -4 69.5t-25 58.5t-48.5 40t-73.5 15
q-62 0 -101.5 -27.5t-56.5 -65.5h-44q20 56 74 93.5t132 37.5q49 0 84.5 -16t59 -44t35 -64.5t11.5 -78.5q0 -52 -16.5 -97t-47 -78.5t-73 -53t-93.5 -19.5q-43 0 -77.5 13.5t-58.5 37.5t-37 57t-13 72q0 16 2 27t5 23h366zM259 26q34 0 64 11t54 32t40 50t22 65h-325
q-4 -36 5.5 -65t29 -49.5t47.5 -32t63 -11.5z" />
    <glyph glyph-name="uni04DC" unicode="&#x4dc;" horiz-adv-x="861" 
d="M351 815q0 23 15.5 38.5t38.5 15.5q20 0 32 -13t12 -32q0 -23 -15.5 -38t-38.5 -15q-20 0 -32 12.5t-12 31.5zM582 815q0 23 15.5 38.5t37.5 15.5q20 0 32.5 -13t12.5 -32q0 -23 -16.5 -38t-37.5 -15q-20 0 -32 12.5t-12 31.5zM69 0h-58l383 351q-53 3 -87 23t-54 71
l-47 122q-17 44 -35.5 68.5t-56.5 24.5h-38l5 41h41q48 0 74.5 -29.5t44.5 -77.5l50 -131q21 -54 51 -72t77 -18h29l35 327h43l-35 -327h29q46 0 80.5 18t66.5 72l77 131q29 48 61.5 77.5t80.5 29.5h42l-5 -41h-38q-19 0 -33.5 -6t-27.5 -18t-25 -29.5t-25 -39.5l-73 -122
q-29 -48 -66.5 -69.5t-94.5 -24.5l310 -351h-58l-303 349l-37 -349h-43l37 349z" />
    <glyph glyph-name="uni04DD" unicode="&#x4dd;" horiz-adv-x="655" 
d="M500 552q-20 0 -32 12.5t-12 31.5q0 23 15.5 38.5t38.5 15.5q20 0 32.5 -13t12.5 -32q0 -23 -16 -38t-39 -15zM324 605q0 -23 -16 -38t-38 -15q-20 0 -32 12.5t-12 31.5q0 23 15.5 38.5t38.5 15.5q20 0 32 -13t12 -32zM85 0h-54l259 222q-47 1 -71 14t-38 48l-20 56
q-9 25 -22.5 41.5t-34.5 16.5h-31l4 37h36q29 0 47.5 -18.5t32.5 -53.5l25 -64q13 -33 31 -45.5t56 -12.5h27l20 190h41l-20 -190h26q39 0 59.5 12.5t39.5 45.5l40 64q22 35 44.5 53.5t51.5 18.5h36l-4 -37h-32q-21 0 -37.5 -16.5t-30.5 -41.5l-33 -56q-20 -35 -47.5 -48
t-74.5 -14l212 -222h-53l-199 217l-23 -217h-41l23 217z" />
    <glyph glyph-name="uni04DE" unicode="&#x4de;" horiz-adv-x="548" 
d="M422 815q0 23 16 38.5t38 15.5q20 0 32.5 -13t12.5 -32q0 -23 -16.5 -38t-38.5 -15q-20 0 -32 12.5t-12 31.5zM236 771q-20 0 -32 12.5t-12 31.5q0 23 16 38.5t38 15.5q20 0 32 -13t12 -32q0 -23 -16 -38t-38 -15zM105 195q-4 -38 6.5 -69t32 -52.5t54.5 -33.5t74 -12
q44 0 80.5 13.5t62 36.5t39.5 55t14 69q0 63 -41.5 101t-120.5 38h-55l4 41h55q43 0 77.5 12.5t57.5 33.5t35.5 49.5t12.5 61.5q0 60 -40 96.5t-115 36.5q-39 0 -73 -11t-60 -31t-42 -48.5t-20 -63.5h-44q4 43 24.5 79t52.5 62t75 40t93 14q90 0 142 -44.5t52 -121.5
q0 -35 -11 -65.5t-31.5 -54.5t-50 -40t-65.5 -22q63 -10 98 -53t35 -109q0 -47 -18.5 -86.5t-51 -68.5t-78 -45t-99.5 -16q-51 0 -91 15t-67 42t-39.5 65.5t-7.5 85.5h44z" />
    <glyph glyph-name="uni04DF" unicode="&#x4df;" horiz-adv-x="402" 
d="M336 552q-20 0 -32 12.5t-12 31.5q0 23 16 38.5t38 15.5q20 0 32 -13t12 -32q0 -23 -16 -38t-38 -15zM160 552q-20 0 -32 12.5t-12 31.5q0 23 15.5 38.5t38.5 15.5q20 0 32 -13t12 -32q0 -23 -15.5 -38t-38.5 -15zM92 116q-5 -41 23.5 -65t81.5 -24q54 0 87 25t33 68
q0 37 -25.5 58.5t-73.5 21.5h-40l3 34h39q53 0 82.5 27.5t29.5 66.5q0 35 -24 56t-71 21q-50 0 -80.5 -24t-34.5 -62h-43q3 27 16.5 49.5t35 38.5t50 25t61.5 9q63 0 98 -29.5t35 -77.5q0 -42 -27.5 -74t-78.5 -41q42 -4 66 -30.5t24 -66.5q0 -30 -13 -54t-35.5 -41.5
t-53 -27t-65.5 -9.5q-70 0 -109.5 34.5t-33.5 91.5h43z" />
    <glyph glyph-name="uni04E0" unicode="&#x4e0;" horiz-adv-x="550" 
d="M104 194q-4 -38 6.5 -68.5t32.5 -52t54 -33.5t73 -12q45 0 81.5 14t62.5 39t40.5 59.5t14.5 74.5q0 68 -41.5 108.5t-119.5 40.5h-68l248 296h-346l4 40h422l-254 -300q94 1 146.5 -46.5t52.5 -134.5q0 -51 -18.5 -93.5t-51.5 -73.5t-79 -48t-100 -17q-50 0 -90 14.5
t-67 41.5t-39.5 65.5t-7.5 85.5h44z" />
    <glyph glyph-name="uni04E1" unicode="&#x4e1;" horiz-adv-x="480" 
d="M60 -84q-6 -71 31.5 -113.5t104.5 -42.5q39 0 72 15t56 42t36 63.5t13 80.5q0 86 -50.5 127.5t-145.5 41.5h-17l235 262h-301l5 39h377l-244 -272q83 -7 133 -54t50 -140q0 -53 -16.5 -97.5t-46 -76.5t-70.5 -50.5t-91 -18.5q-87 0 -134 52.5t-39 141.5h42z" />
    <glyph glyph-name="uni04E2" unicode="&#x4e2;" horiz-adv-x="660" 
d="M598 799h-358l4 39h358zM590 590l-453 -546l-5 -44h-44l74 700h44l-62 -589l453 545l5 44h44l-74 -700h-44z" />
    <glyph glyph-name="uni04E3" unicode="&#x4e3;" horiz-adv-x="551" 
d="M516 581h-358l4 39h358zM456 346l-323 -314l-3 -32h-42l45 431h42l-36 -348l323 316l3 32h43l-45 -431h-43z" />
    <glyph glyph-name="uni04E4" unicode="&#x4e4;" horiz-adv-x="660" 
d="M260 815q0 23 15.5 38.5t38.5 15.5q20 0 32 -13t12 -32q0 -23 -15.5 -38t-38.5 -15q-20 0 -32 12.5t-12 31.5zM491 815q0 23 15.5 38.5t37.5 15.5q20 0 32.5 -13t12.5 -32q0 -23 -16.5 -38t-37.5 -15q-20 0 -32 12.5t-12 31.5zM590 590l-453 -546l-5 -44h-44l74 700h44
l-62 -589l453 545l5 44h44l-74 -700h-44z" />
    <glyph glyph-name="uni04E5" unicode="&#x4e5;" horiz-adv-x="551" 
d="M457 552q-20 0 -32 12.5t-12 31.5q0 23 15.5 38.5t38.5 15.5q20 0 32 -13t12 -32q0 -23 -15.5 -38t-38.5 -15zM281 605q0 -23 -16 -38t-38 -15q-20 0 -32 12.5t-12 31.5q0 23 15.5 38.5t37.5 15.5q20 0 32.5 -13t12.5 -32zM456 346l-323 -314l-3 -32h-42l45 431h42
l-36 -348l323 316l3 32h43l-45 -431h-43z" />
    <glyph glyph-name="uni04E6" unicode="&#x4e6;" horiz-adv-x="809" 
d="M557 815q0 23 16 38.5t38 15.5q20 0 32.5 -13t12.5 -32q0 -23 -16.5 -38t-38.5 -15q-20 0 -32 12.5t-12 31.5zM370 771q-20 0 -32 12.5t-12 31.5q0 23 16 38.5t39 15.5q20 0 32 -13t12 -32q0 -23 -16 -38t-39 -15zM406 -14q-79 0 -140 27t-102 72.5t-62.5 105
t-21.5 124.5q0 76 29 148t81 128t125 89.5t162 33.5q79 0 139.5 -27t102 -72.5t62.5 -105t21 -124.5q0 -77 -28.5 -148.5t-81 -127.5t-125.5 -89.5t-161 -33.5zM126 318q0 -57 18.5 -109.5t54.5 -93t89 -64.5t122 -24q77 0 141 30t109.5 79.5t71 113.5t25.5 132
q0 57 -18.5 109.5t-54.5 93t-89.5 64.5t-122.5 24q-77 0 -141 -30t-109.5 -79.5t-70.5 -113.5t-25 -132z" />
    <glyph glyph-name="uni04E7" unicode="&#x4e7;" horiz-adv-x="543" 
d="M444 552q-20 0 -32 12.5t-12 31.5q0 23 15.5 38.5t38.5 15.5q20 0 32.5 -13t12.5 -32q0 -23 -16 -38t-39 -15zM214 552q-20 0 -32 12.5t-12 31.5q0 23 16 38.5t38 15.5q20 0 32 -13t12 -32q0 -23 -16 -38t-38 -15zM522 236q0 -49 -18.5 -93.5t-52 -78.5t-79.5 -54
t-100 -20q-49 0 -87 16t-64.5 44t-40.5 65t-14 79q0 49 18.5 94t51.5 79t79 54t100 20q49 0 87.5 -16.5t65 -44t40.5 -65t14 -79.5zM109 197q0 -34 11 -64.5t32.5 -53t52.5 -36t70 -13.5q44 0 81.5 16.5t64.5 44.5t42.5 64.5t15.5 77.5q0 34 -11.5 65t-33 53.5t-52.5 36
t-70 13.5q-44 0 -81.5 -16.5t-64.5 -44.5t-42 -65t-15 -78z" />
    <glyph glyph-name="uni04E8" unicode="&#x4e8;" horiz-adv-x="809" 
d="M406 -14q-79 0 -140 27t-102 72.5t-62.5 105t-21.5 124.5q0 76 29 148t81 128t125 89.5t162 33.5q79 0 139.5 -27t102 -72.5t62.5 -105t21 -124.5q0 -77 -28.5 -148.5t-81 -127.5t-125.5 -89.5t-161 -33.5zM475 673q-71 0 -130.5 -25.5t-104 -68t-73 -98t-37.5 -115.5
h627q4 60 -13 115.5t-53 98t-90.5 68t-125.5 25.5zM407 27q71 0 130.5 25t104 67.5t73.5 98t38 115.5h-627q-3 -60 13.5 -115.5t52.5 -98t90 -67.5t125 -25z" />
    <glyph glyph-name="uni04E9" unicode="&#x4e9;" horiz-adv-x="543" 
d="M272 -10q-49 0 -87 16t-64.5 44t-40.5 65t-14 79q0 49 18.5 94t51.5 79t79 54t100 20q49 0 87.5 -16.5t65 -44t40.5 -65t14 -79.5q0 -49 -18.5 -93.5t-52 -78.5t-79.5 -54t-100 -20zM313 401q-40 0 -74 -13.5t-60 -36.5t-43 -54t-23 -66h365q1 35 -9.5 66t-32 54
t-52.5 36.5t-71 13.5zM273 30q39 0 72.5 12.5t60 35t44.5 53.5t25 67h-365q-1 -33 9 -63.5t31 -54t51.5 -37t71.5 -13.5z" />
    <glyph glyph-name="uni04EA" unicode="&#x4ea;" horiz-adv-x="809" 
d="M371 775q-19 0 -31 12.5t-12 31.5q0 22 15.5 37t37.5 15q19 0 31 -12.5t12 -31.5q0 -22 -15.5 -37t-37.5 -15zM559 819q0 22 15 37t37 15q20 0 32 -12.5t12 -31.5q0 -22 -15.5 -37t-37.5 -15q-20 0 -31.5 12.5t-11.5 31.5zM406 -14q-79 0 -140 27t-102 72.5t-62.5 105
t-21.5 124.5q0 76 29 148t81 128t125 89.5t162 33.5q79 0 139.5 -27t102 -72.5t62.5 -105t21 -124.5q0 -77 -28.5 -148.5t-81 -127.5t-125.5 -89.5t-161 -33.5zM475 673q-71 0 -130.5 -25.5t-104 -68t-73 -98t-37.5 -115.5h627q4 60 -13 115.5t-53 98t-90.5 68t-125.5 25.5z
M407 27q71 0 130.5 25t104 67.5t73.5 98t38 115.5h-627q-3 -60 13.5 -115.5t52.5 -98t90 -67.5t125 -25z" />
    <glyph glyph-name="uni04EB" unicode="&#x4eb;" horiz-adv-x="543" 
d="M214 558q-20 0 -31.5 12.5t-11.5 31.5q0 21 15 36.5t38 15.5q20 0 32 -12.5t12 -31.5q0 -22 -16 -37t-38 -15zM444 558q-19 0 -31 12.5t-12 31.5q0 22 15.5 37t37.5 15q19 0 32 -12.5t13 -31.5q0 -22 -16.5 -37t-38.5 -15zM272 -10q-49 0 -87 16t-64.5 44t-40.5 65
t-14 79q0 49 18.5 94t51.5 79t79 54t100 20q49 0 87.5 -16.5t65 -44t40.5 -65t14 -79.5q0 -49 -18.5 -93.5t-52 -78.5t-79.5 -54t-100 -20zM313 401q-40 0 -74 -13.5t-60 -36.5t-43 -54t-23 -66h365q1 35 -9.5 66t-32 54t-52.5 36.5t-71 13.5zM273 30q39 0 72.5 12.5t60 35
t44.5 53.5t25 67h-365q-1 -33 9 -63.5t31 -54t51.5 -37t71.5 -13.5z" />
    <glyph glyph-name="uni04EC" unicode="&#x4ec;" horiz-adv-x="767" 
d="M531 815q0 23 16 38.5t39 15.5q20 0 32.5 -13t12.5 -32q0 -23 -16.5 -38t-39.5 -15q-20 0 -32 12.5t-12 31.5zM345 771q-20 0 -32 12.5t-12 31.5q0 23 16 38.5t38 15.5q20 0 32.5 -13t12.5 -32q0 -23 -16.5 -38t-38.5 -15zM308 368h407q4 60 -11 115t-49 97.5t-88 67.5
t-127 25q-58 0 -106.5 -16t-86.5 -43t-65 -63t-42 -77h-46q16 50 48 94t76.5 76.5t101 51t123.5 18.5q80 0 139.5 -26.5t99.5 -71.5t59.5 -104.5t19.5 -124.5q0 -80 -28.5 -153t-80 -128t-124.5 -87.5t-162 -32.5q-60 0 -110.5 15.5t-89 43t-64.5 66.5t-37 86h48
q23 -78 91.5 -124t165.5 -46q67 0 125 23t102.5 63.5t74 95.5t39.5 118h-407z" />
    <glyph glyph-name="uni04ED" unicode="&#x4ed;" horiz-adv-x="509" 
d="M427 552q-20 0 -32 12.5t-12 31.5q0 23 16 38.5t38 15.5q20 0 32.5 -13t12.5 -32q0 -23 -16.5 -38t-38.5 -15zM196 552q-20 0 -32 12.5t-12 31.5q0 23 16 38.5t39 15.5q20 0 32 -13t12 -32q0 -23 -16 -38t-39 -15zM75 274q6 33 23 63.5t44.5 53.5t65 36.5t83.5 13.5
q51 0 88.5 -16.5t61.5 -44.5t36 -64.5t12 -76.5q0 -47 -16 -91.5t-46.5 -79.5t-76.5 -56.5t-106 -21.5q-46 0 -80.5 12.5t-57.5 34.5t-34.5 50.5t-11.5 60.5h43q1 -24 11 -45.5t28 -37.5t45 -25.5t63 -9.5q42 0 75.5 13t57.5 35.5t38.5 53t20.5 65.5h-211l4 36h211
q1 34 -7 64.5t-27 53.5t-49.5 37t-73.5 14q-38 0 -67 -10.5t-50.5 -28t-34.5 -41t-19 -48.5h-43z" />
    <glyph glyph-name="uni04EE" unicode="&#x4ee;" horiz-adv-x="548" 
d="M550 799h-358l5 39h358zM183 0h-49l172 275l-225 425h52l201 -380l237 380h48z" />
    <glyph glyph-name="uni04EF" unicode="&#x4ef;" horiz-adv-x="562" 
d="M524 581h-358l4 39h358zM252 -279q-105 0 -146 52.5t-33 154.5h42q-5 -83 26.5 -126t114.5 -43q40 0 70.5 10.5t51.5 33t34 57t18 83.5l18 169q-12 -24 -29 -46t-40.5 -39t-54.5 -27t-70 -10q-41 0 -71 11.5t-51 37.5q-20 25 -25.5 58.5t0.5 90.5l26 243h41l-24 -233
q-4 -36 -0.5 -67t16.5 -53.5t38 -35.5t64 -13q46 0 80 17t57.5 43t36.5 58.5t16 64.5l23 219h42l-51 -488q-13 -120 -67.5 -171t-152.5 -51z" />
    <glyph glyph-name="uni04F0" unicode="&#x4f0;" horiz-adv-x="548" 
d="M210 815q0 22 16 37.5t37 15.5q20 0 32 -13t12 -32q0 -22 -15.5 -36.5t-37.5 -14.5q-19 0 -31.5 12t-12.5 31zM441 814q0 23 15.5 38.5t37.5 15.5q20 0 32 -13t12 -32q0 -22 -16 -36.5t-38 -14.5q-20 0 -31.5 12t-11.5 30zM183 0h-49l172 275l-225 425h52l201 -380
l237 380h48z" />
    <glyph glyph-name="uni04F1" unicode="&#x4f1;" horiz-adv-x="562" 
d="M189 596q0 22 15.5 37t36.5 15q20 0 32 -12.5t12 -31.5q0 -22 -15.5 -37t-37.5 -15q-20 0 -31.5 12.5t-11.5 31.5zM419 596q0 22 15.5 37t37.5 15q19 0 31.5 -12.5t12.5 -31.5q0 -22 -16 -37t-38 -15q-19 0 -31 12.5t-12 31.5zM252 -279q-105 0 -146 52.5t-33 154.5h42
q-5 -83 26.5 -126t114.5 -43q40 0 70.5 10.5t51.5 33t34 57t18 83.5l18 169q-12 -24 -29 -46t-40.5 -39t-54.5 -27t-70 -10q-41 0 -71 11.5t-51 37.5q-20 25 -25.5 58.5t0.5 90.5l26 243h41l-24 -233q-4 -36 -0.5 -67t16.5 -53.5t38 -35.5t64 -13q46 0 80 17t57.5 43
t36.5 58.5t16 64.5l23 219h42l-51 -488q-13 -120 -67.5 -171t-152.5 -51z" />
    <glyph glyph-name="uni04F2" unicode="&#x4f2;" horiz-adv-x="548" 
d="M373 939l36 -19l-153 -161l-25 14zM568 939l36 -19l-153 -162l-25 15zM183 0h-49l172 275l-225 425h52l201 -380l237 380h48z" />
    <glyph glyph-name="uni04F3" unicode="&#x4f3;" horiz-adv-x="562" 
d="M422 511l-26 15l143 166l36 -19zM227 512l-26 14l143 166l36 -19zM252 -279q-105 0 -146 52.5t-33 154.5h42q-5 -83 26.5 -126t114.5 -43q40 0 70.5 10.5t51.5 33t34 57t18 83.5l18 169q-12 -24 -29 -46t-40.5 -39t-54.5 -27t-70 -10q-41 0 -71 11.5t-51 37.5
q-20 25 -25.5 58.5t0.5 90.5l26 243h41l-24 -233q-4 -36 -0.5 -67t16.5 -53.5t38 -35.5t64 -13q46 0 80 17t57.5 43t36.5 58.5t16 64.5l23 219h42l-51 -488q-13 -120 -67.5 -171t-152.5 -51z" />
    <glyph glyph-name="uni04F4" unicode="&#x4f4;" horiz-adv-x="564" 
d="M191 815q0 22 15.5 37.5t36.5 15.5q20 0 32 -13t12 -32q0 -22 -15.5 -36.5t-37.5 -14.5q-20 0 -31.5 12t-11.5 31zM421 815q0 22 15.5 37.5t36.5 15.5q20 0 32.5 -13t12.5 -32q0 -22 -16 -36.5t-38 -14.5q-19 0 -31 12t-12 31zM432 0l26 246h-154q-61 0 -103 15.5t-67 45
t-34 71t-3 94.5l24 228h44l-23 -219q-5 -44 1.5 -80t27 -61.5t56 -39t89.5 -13.5h146l44 413h44l-74 -700h-44z" />
    <glyph glyph-name="uni04F5" unicode="&#x4f5;" horiz-adv-x="450" 
d="M111 596q0 23 15.5 38.5t38.5 15.5q20 0 32 -13t12 -32q0 -23 -15.5 -38t-38.5 -15q-20 0 -32 12.5t-12 31.5zM327 596q0 23 15.5 38.5t38.5 15.5q20 0 32 -13t12 -32q0 -23 -15.5 -38t-38.5 -15q-20 0 -32 12.5t-12 31.5zM320 0l16 148h-118q-78 0 -112 41t-26 111
l14 131h43l-14 -130q-6 -56 20 -85.5t84 -29.5h113l25 245h42l-45 -431h-42z" />
    <glyph glyph-name="uni04F8" unicode="&#x4f8;" horiz-adv-x="722" 
d="M293 815q0 22 15 37.5t37 15.5q20 0 32 -13t12 -32q0 -22 -15.5 -36.5t-37.5 -14.5q-20 0 -31.5 12t-11.5 31zM523 815q0 22 15.5 37.5t36.5 15.5q20 0 32 -13t12 -32q0 -22 -15.5 -36.5t-37.5 -14.5q-19 0 -31 12t-12 31zM664 700h44l-74 -700h-44zM206 700l-33 -313
h200q35 0 65 -13.5t51.5 -37t33.5 -55.5t12 -69q0 -44 -16.5 -82.5t-45 -67t-66.5 -45.5t-80 -17h-239l74 700h44zM168 346l-32 -305h195q32 0 61 13t51 35.5t35 53t13 64.5q0 28 -9 53.5t-25.5 44.5t-39 30t-49.5 11h-200z" />
    <glyph glyph-name="uni04F9" unicode="&#x4f9;" horiz-adv-x="581" 
d="M195 596q0 23 15.5 38.5t38.5 15.5q20 0 32 -13t12 -32q0 -23 -16 -38t-38 -15q-20 0 -32 12.5t-12 31.5zM426 596q0 23 15.5 38.5t37.5 15.5q20 0 32.5 -13t12.5 -32q0 -23 -16 -38t-38 -15q-20 0 -32 12.5t-12 31.5zM133 431h41l-18 -173h138q51 0 80.5 -33t29.5 -83
q0 -29 -10.5 -54.5t-29 -45t-44.5 -31t-56 -11.5h-176zM496 431h42l-45 -431h-42zM152 221l-19 -184h130q21 0 39.5 8t32 22t21.5 32.5t8 38.5q0 34 -22 58.5t-57 24.5h-133z" />
    <glyph glyph-name="Wgrave" unicode="&#x1e80;" horiz-adv-x="926" 
d="M422 887l24 35l235 -137l-25 -35zM529 628l-251 -628h-37l-161 700h47l140 -629l252 629h37l120 -629l271 629h47l-309 -700h-36z" />
    <glyph glyph-name="wgrave" unicode="&#x1e81;" horiz-adv-x="695" 
d="M281 654l24 35l235 -137l-24 -35zM387 382l-176 -382h-33l-121 431h45l98 -370l171 370h43l92 -370l176 370h46l-211 -431h-34z" />
    <glyph glyph-name="Wacute" unicode="&#x1e82;" horiz-adv-x="926" 
d="M428 750l-17 35l263 137l18 -35zM529 628l-251 -628h-37l-161 700h47l140 -629l252 629h37l120 -629l271 629h47l-309 -700h-36z" />
    <glyph glyph-name="wacute" unicode="&#x1e83;" horiz-adv-x="695" 
d="M287 517l-16 35l263 137l16 -35zM387 382l-176 -382h-33l-121 431h45l98 -370l171 370h43l92 -370l176 370h46l-211 -431h-34z" />
    <glyph glyph-name="Wdieresis" unicode="&#x1e84;" horiz-adv-x="926" 
d="M386 819q0 22 15.5 37t37.5 15q19 0 31 -12.5t12 -31.5q0 -22 -15.5 -37t-37.5 -15q-19 0 -31 12.5t-12 31.5zM617 819q0 22 15 37t37 15q20 0 32 -12.5t12 -31.5q0 -22 -15.5 -37t-37.5 -15q-20 0 -31.5 12.5t-11.5 31.5zM529 628l-251 -628h-37l-161 700h47l140 -629
l252 629h37l120 -629l271 629h47l-309 -700h-36z" />
    <glyph glyph-name="wdieresis" unicode="&#x1e85;" horiz-adv-x="695" 
d="M247 596q0 23 15 38t37 15q19 0 31.5 -12.5t12.5 -31.5q0 -23 -16 -37.5t-38 -14.5q-19 0 -30.5 12t-11.5 31zM477 596q0 23 15.5 38t37.5 15q19 0 31 -12.5t12 -31.5q0 -23 -15.5 -37.5t-37.5 -14.5q-19 0 -31 12t-12 31zM387 382l-176 -382h-33l-121 431h45l98 -370
l171 370h43l92 -370l176 370h46l-211 -431h-34z" />
    <glyph glyph-name="Ygrave" unicode="&#x1ef2;" horiz-adv-x="548" 
d="M232 887l24 35l235 -137l-25 -35zM183 0h-49l172 275l-225 425h52l201 -380l237 380h48z" />
    <glyph glyph-name="ygrave" unicode="&#x1ef3;" horiz-adv-x="562" 
d="M215 654l24 35l235 -137l-25 -35zM252 -279q-105 0 -146 52.5t-33 154.5h42q-5 -83 26.5 -126t114.5 -43q40 0 70.5 10.5t51.5 33t34 57t18 83.5l18 169q-12 -24 -29 -46t-40.5 -39t-54.5 -27t-70 -10q-41 0 -71 11.5t-51 37.5q-20 25 -25.5 58.5t0.5 90.5l26 243h41
l-24 -233q-4 -36 -0.5 -67t16.5 -53.5t38 -35.5t64 -13q46 0 80 17t57.5 43t36.5 58.5t16 64.5l23 219h42l-51 -488q-13 -120 -67.5 -171t-152.5 -51z" />
    <glyph glyph-name="thinspace" unicode="&#x2009;" horiz-adv-x="206" 
 />
    <glyph glyph-name="endash" unicode="&#x2013;" horiz-adv-x="503" 
d="M78 265l4 40h403l-4 -40h-403z" />
    <glyph glyph-name="emdash" unicode="&#x2014;" horiz-adv-x="1006" 
d="M78 265l4 40h906l-4 -40h-906z" />
    <glyph glyph-name="quoteleft" unicode="&#x2018;" horiz-adv-x="242" 
d="M243 587q0 -22 -15.5 -38t-41.5 -16q-29 0 -45 23.5t-16 64.5q0 62 35 90.5t91 28.5l-3 -27q-28 0 -48 -13t-27 -39q-3 -12 -2.5 -23t2.5 -18q11 10 28 10q19 0 30.5 -12.5t11.5 -30.5z" />
    <glyph glyph-name="quoteright" unicode="&#x2019;" horiz-adv-x="242" 
d="M132 687q0 21 16 37t42 16q29 0 45 -23t16 -63q0 -32 -10 -55t-27 -37.5t-40 -21.5t-50 -7l3 28q30 0 49.5 13.5t24.5 38.5q5 17 4.5 26t-2.5 14q-12 -9 -28 -9q-19 0 -31 12t-12 31z" />
    <glyph glyph-name="quotesinglbase" unicode="&#x201a;" horiz-adv-x="242" 
d="M64 35q0 22 16 38t42 16q29 0 45 -23t16 -64q0 -63 -35.5 -91.5t-91.5 -28.5l3 27q30 0 49.5 14t24.5 38q5 17 4.5 26.5t-2.5 14.5q-11 -10 -28 -10q-19 0 -31 12.5t-12 30.5z" />
    <glyph glyph-name="quotedblleft" unicode="&#x201c;" horiz-adv-x="391" 
d="M243 587q0 -22 -15.5 -38t-41.5 -16q-29 0 -45 23.5t-16 64.5q0 62 35 90.5t91 28.5l-3 -27q-28 0 -48 -13t-27 -39q-3 -12 -2.5 -23t2.5 -18q11 10 28 10q19 0 30.5 -12.5t11.5 -30.5zM392 587q0 -21 -15.5 -37.5t-41.5 -16.5q-29 0 -44.5 23.5t-15.5 63.5q0 63 35 91.5
t91 28.5l-3 -27q-30 0 -50 -14t-25 -38q-5 -17 -3.5 -26.5t3.5 -14.5q5 5 12.5 7.5t15.5 2.5q19 0 30 -12.5t11 -30.5z" />
    <glyph glyph-name="quotedblright" unicode="&#x201d;" horiz-adv-x="391" 
d="M282 687q0 21 15.5 37t41.5 16q29 0 45 -22.5t16 -62.5q0 -63 -36 -92.5t-90 -29.5l3 28q30 0 49.5 13.5t24.5 38.5q5 17 4 26t-3 14q-11 -9 -28 -9q-19 0 -30.5 12t-11.5 31zM132 687q0 21 16 37t42 16q29 0 45 -23t16 -63q0 -32 -10 -55t-27 -37.5t-40 -21.5t-50 -7
l3 28q30 0 49.5 13.5t24.5 38.5q5 17 4.5 26t-2.5 14q-12 -9 -28 -9q-19 0 -31 12t-12 31z" />
    </font>
</defs>
</svg>
