<svg xmlns="http://www.w3.org/2000/svg">
<defs>
<font id="910db4b795b0a86b8bde418d87f526d4" horiz-adv-x='1024' >
  <font-face 
    font-family="GTWalsheimProBlack"
    font-weight="800"
    font-stretch="normal"
    units-per-em="1000"
    panose-1="2 0 5 3 4 0 0 2 0 4"
    ascent="750"
    descent="-250"
    x-height="497"
    cap-height="700"
    bbox="-150 -320 1271 1027"
    underline-thickness="50"
    underline-position="-50"
    unicode-range="U+0020-FB04"
  />
<missing-glyph horiz-adv-x="800" 
d="M400 717q84 0 151.5 -30.5t114 -81.5t71.5 -117.5t25 -137.5t-25 -137.5t-71.5 -117.5t-114 -81.5t-151.5 -30.5t-151.5 30.5t-114 81.5t-71.5 117.5t-25 137.5t25 137.5t71.5 117.5t114 81.5t151.5 30.5zM400 695q-76 0 -143 -29q-60 -27 -106 -76q-45 -50 -67 -110
q-24 -63 -24 -130q0 -68 24 -129q22 -62 67 -110q46 -50 106 -76q67 -29 143 -29t142 29q60 26 106 76q45 48 67 110q24 61 24 129q0 67 -24 130q-22 60 -67 110q-46 49 -106 76q-66 29 -142 29zM168 228q25 -15 47 -28t44 -22.5t45.5 -15t51.5 -5.5q21 0 49 1.5t58.5 5
t60 11t52.5 19.5q1 0 3 2q-13 -28 -42 -54t-65 -45q-57 -31 -106 -31t-97.5 37.5t-100.5 124.5zM219 259l179 268l-110 -243h178v-25h-247zM230 169q15 -22 34 -37t38.5 -24t36.5 -12.5t27 -3.5q25 0 52 9t50 20t39 21t20 13q-43 -8 -81 -15.5t-88 -7.5q-13 0 -30.5 1.5
t-35.5 6t-34.5 11.5t-27.5 18zM498 500q0 18 12.5 30.5t29.5 12.5q18 0 30.5 -12.5t12.5 -30.5q0 -17 -12.5 -30t-30.5 -13q-17 0 -29.5 13t-12.5 30zM201 500q0 18 12.5 30.5t29.5 12.5q18 0 30.5 -12.5t12.5 -30.5q0 -17 -12.5 -30t-30.5 -13q-17 0 -29.5 13t-12.5 30z
M600 161q2 5 2 9.5v8.5q-2 9 -4 13q-1 3 -3 5q-1 0 -3 2q-2 0 -4 2l-14 5q-8 4 -16.5 8t-16.5 11q-10 7 -18 20l-4 11q-1 4 -2 7t-1 7q-2 8 -3 15.5t-1 15.5q1 5 1 10t2 9l15 -5q0 -2 -0.5 -4.5t-0.5 -5.5v-13q1 -7 1.5 -14t2.5 -13q2 -4 2.5 -7t2.5 -5q3 -6 8 -10.5
t11 -9.5q6 -4 13 -7t13 -6l15 -6q3 -1 7 -5q6 -4 7 -9q5 -9 6 -19v-12t-2 -12zM213 331q0 -5 0.5 -10t1.5 -10t1.5 -10t0.5 -10q0 -10 -7 -20q-7 -9 -14 -13q-1 0 -2 -0.5t-2 -0.5q-5 -2 -10.5 -4.5t-10.5 -5.5q-4 -1 -10 -5q-4 -4 -6 -5q-3 -5 -5 -13q-1 -5 -1.5 -9

<glyph glyph-name="IJ" unicode="IJ" horiz-adv-x="961" 
d="M910 254q0 -73 -20 -124.5t-56.5 -84t-89 -47.5t-117.5 -15q-73 0 -126 21t-88 57.5t-52 86t-17 107.5h208q0 -42 18.5 -70t56.5 -28q35 0 55 24.5t20 72.5v446h208v-446zM61 700h210v-700h-210v700z" />
    <glyph glyph-name="ij" unicode="ij" horiz-adv-x="621" 
d="M40 647q0 24 9 44.5t24.5 36.5t36.5 25t45 9q25 0 46 -9t36.5 -25t24.5 -36.5t9 -44.5q0 -23 -9 -43.5t-24.5 -36t-36.5 -24.5t-46 -9q-24 0 -45 9t-36.5 24.5t-24.5 36t-9 43.5zM254 497v-497h-196v497h196zM563 -40q0 -55 -12 -89.5t-33.5 -53.5t-51 -26t-64.5 -7
q-16 0 -34 1t-34.5 3t-30.5 4.5t-23 5.5v136q13 -2 21.5 -3t19.5 -1q23 0 34.5 11t11.5 37v519h196v-537zM349 647q0 24 9 44.5t24.5 36.5t36.5 25t45 9q25 0 46 -9t36.5 -25t24.5 -36.5t9 -44.5q0 -23 -9 -43.5t-24.5 -36t-36.5 -24.5t-46 -9q-24 0 -45 9t-36.5 24.5
t-24.5 36t-9 43.5z" />
    <glyph glyph-name="uniFB00" unicode="ff" horiz-adv-x="803" 
d="M389 573q-12 3 -21.5 4.5t-24.5 1.5q-24 0 -40 -9.5t-16 -40.5v-32h102v-137h-102v-360h-196v360h-78v137h78v27q0 64 17 102t44.5 57.5t62.5 25.5t72 6q34 0 59.5 -4t42.5 -10v-128zM791 573q-12 3 -21.5 4.5t-24.5 1.5q-25 0 -41 -9.5t-16 -40.5v-32h103v-137h-102
v-360h-196v360h-79v137h79v27q0 64 17 102t44.5 57.5t62.5 25.5t72 6q33 0 59 -4t43 -10v-128z" />
    <glyph glyph-name="fi" unicode="fi" horiz-adv-x="739" 
d="M388 573q-12 3 -21.5 4.5t-24.5 1.5q-25 0 -41 -9.5t-16 -40.5v-32h103v-137h-102v-360h-196v360h-79v137h79v27q0 64 17 102t44.5 57.5t62.5 25.5t72 6q33 0 59 -4t43 -10v-128zM471 497h196v-497h-196v497zM454 647q0 23 8.5 43.5t24 36t36.5 24.5t45 9q25 0 46 -9
t36.5 -24.5t24 -36t8.5 -43.5t-8.5 -43.5t-24 -35.5t-36.5 -24t-46 -9q-24 0 -45 9t-36.5 24t-24 35.5t-8.5 43.5z" />
    <glyph glyph-name="fl" unicode="fl" horiz-adv-x="711" 
d="M388 573q-12 3 -21.5 4.5t-24.5 1.5q-25 0 -41 -9.5t-16 -40.5v-32h103v-137h-102v-360h-196v360h-79v137h79v27q0 64 17 102t44.5 57.5t62.5 25.5t72 6q33 0 59 -4t43 -10v-128zM457 700h196v-700h-196v700z" />
    <glyph glyph-name="uniFB03" unicode="ffi" horiz-adv-x="1143" 
d="M389 573q-12 3 -21.5 4.5t-24.5 1.5q-24 0 -40 -9.5t-16 -40.5v-32h102v-137h-102v-360h-196v360h-78v137h78v27q0 64 17 102t44.5 57.5t62.5 25.5t72 6q34 0 59.5 -4t42.5 -10v-128zM791 573q-12 3 -21.5 4.5t-24.5 1.5q-25 0 -41 -9.5t-16 -40.5v-32h103v-137h-102
v-360h-196v360h-79v137h79v27q0 64 17 102t44.5 57.5t62.5 25.5t72 6q33 0 59 -4t43 -10v-128zM875 497h196v-497h-196v497zM857 647q0 24 9 44.5t24.5 36.5t36.5 25t45 9q25 0 46.5 -9t37 -25t24.5 -36.5t9 -44.5q0 -23 -9 -43.5t-24.5 -36t-37 -24.5t-46.5 -9q-24 0 -45 9
t-36.5 24.5t-24.5 36t-9 43.5z" />
    <glyph glyph-name="uniFB04" unicode="ffl" horiz-adv-x="1114" 
d="M389 573q-12 3 -21.5 4.5t-24.5 1.5q-24 0 -40 -9.5t-16 -40.5v-32h102v-137h-102v-360h-196v360h-78v137h78v27q0 64 17 102t44.5 57.5t62.5 25.5t72 6q34 0 59.5 -4t42.5 -10v-128zM791 573q-12 3 -21.5 4.5t-24.5 1.5q-25 0 -41 -9.5t-16 -40.5v-32h103v-137h-102
v-360h-196v360h-79v137h79v27q0 64 17 102t44.5 57.5t62.5 25.5t72 6q33 0 59 -4t43 -10v-128zM861 700h196v-700h-196v700z" />
    <glyph glyph-name=".notdef" horiz-adv-x="800" 
d="M400 717q84 0 151.5 -30.5t114 -81.5t71.5 -117.5t25 -137.5t-25 -137.5t-71.5 -117.5t-114 -81.5t-151.5 -30.5t-151.5 30.5t-114 81.5t-71.5 117.5t-25 137.5t25 137.5t71.5 117.5t114 81.5t151.5 30.5zM400 695q-76 0 -143 -29q-60 -27 -106 -76q-45 -50 -67 -110
q-24 -63 -24 -130q0 -68 24 -129q22 -62 67 -110q46 -50 106 -76q67 -29 143 -29t142 29q60 26 106 76q45 48 67 110q24 61 24 129q0 67 -24 130q-22 60 -67 110q-46 49 -106 76q-66 29 -142 29zM168 228q25 -15 47 -28t44 -22.5t45.5 -15t51.5 -5.5q21 0 49 1.5t58.5 5
t60 11t52.5 19.5q1 0 3 2q-13 -28 -42 -54t-65 -45q-57 -31 -106 -31t-97.5 37.5t-100.5 124.5zM219 259l179 268l-110 -243h178v-25h-247zM230 169q15 -22 34 -37t38.5 -24t36.5 -12.5t27 -3.5q25 0 52 9t50 20t39 21t20 13q-43 -8 -81 -15.5t-88 -7.5q-13 0 -30.5 1.5
t-35.5 6t-34.5 11.5t-27.5 18zM498 500q0 18 12.5 30.5t29.5 12.5q18 0 30.5 -12.5t12.5 -30.5q0 -17 -12.5 -30t-30.5 -13q-17 0 -29.5 13t-12.5 30zM201 500q0 18 12.5 30.5t29.5 12.5q18 0 30.5 -12.5t12.5 -30.5q0 -17 -12.5 -30t-30.5 -13q-17 0 -29.5 13t-12.5 30z
M600 161q2 5 2 9.5v8.5q-2 9 -4 13q-1 3 -3 5q-1 0 -3 2q-2 0 -4 2l-14 5q-8 4 -16.5 8t-16.5 11q-10 7 -18 20l-4 11q-1 4 -2 7t-1 7q-2 8 -3 15.5t-1 15.5q1 5 1 10t2 9l15 -5q0 -2 -0.5 -4.5t-0.5 -5.5v-13q1 -7 1.5 -14t2.5 -13q2 -4 2.5 -7t2.5 -5q3 -6 8 -10.5
t11 -9.5q6 -4 13 -7t13 -6l15 -6q3 -1 7 -5q6 -4 7 -9q5 -9 6 -19v-12t-2 -12zM213 331q0 -5 0.5 -10t1.5 -10t1.5 -10t0.5 -10q0 -10 -7 -20q-7 -9 -14 -13q-1 0 -2 -0.5t-2 -0.5q-5 -2 -10.5 -4.5t-10.5 -5.5q-4 -1 -10 -5q-4 -4 -6 -5q-3 -5 -5 -13q-1 -5 -1.5 -9
t-0.5 -8h-16q0 5 0.5 10t1.5 10q2 5 3.5 10t5.5 10q2 2 9 8l11 7q5 3 11.5 5.5t12.5 4.5l1 1q4 1 9 8q4 6 4 10q0 5 -0.5 9t-1.5 9l-3 20z" />
    <glyph glyph-name=".null" horiz-adv-x="0" 
 />
    <glyph glyph-name="nonmarkingreturn" horiz-adv-x="250" 
 />
    <glyph glyph-name="space" unicode=" " horiz-adv-x="235" 
 />
    <glyph glyph-name="exclam" unicode="!" horiz-adv-x="366" 
d="M78 700h210v-440h-210v440zM60 106q0 25 9.5 47t26 38.5t39 26t48.5 9.5t48.5 -9.5t39 -26t26 -38.5t9.5 -47t-9.5 -47.5t-26 -39t-39 -26t-48.5 -9.5t-48.5 9.5t-39 26t-26 39t-9.5 47.5z" />
    <glyph glyph-name="quotedbl" unicode="&#x22;" horiz-adv-x="446" 
d="M37 555v151h155v-151l-40 -158h-75zM255 555v151h154v-151l-39 -158h-76z" />
    <glyph glyph-name="numbersign" unicode="#" horiz-adv-x="631" 
d="M344 157h-104l-21 -157h-134l21 157h-84v131h103l17 124h-90v131h108l22 157h134l-22 -157h103l22 157h135l-22 -157h77v-131h-95l-17 -124h82v-131h-101l-22 -157h-134zM259 288h103l17 124h-103z" />
    <glyph glyph-name="dollar" unicode="$" horiz-adv-x="644" 
d="M382 716q65 -6 109 -27.5t71 -53t38.5 -69t11.5 -75.5h-208q0 87 -69 87q-26 0 -45 -13t-19 -42q0 -27 24 -45t72 -35q45 -16 90.5 -34t82 -44t59 -63.5t22.5 -91.5q0 -100 -63 -158t-176 -69v-106h-95v106q-112 12 -176 76.5t-64 176.5h208q0 -48 24 -73.5t64 -25.5
q32 0 50.5 16t18.5 44q0 29 -25.5 45.5t-80.5 38.5q-48 19 -92.5 38t-78 45t-53.5 62t-20 90q0 47 18.5 82.5t49 60t71.5 38.5t86 19v107h95v-107z" />
    <glyph glyph-name="percent" unicode="%" horiz-adv-x="960" 
d="M896 131q0 -29 -11.5 -54.5t-33 -45t-52 -30.5t-67.5 -11q-38 0 -68.5 11t-51.5 30.5t-32 45t-11 54.5v123q0 29 11 54.5t32 45t51.5 30.5t68.5 11q37 0 67.5 -11t52 -30.5t33 -45t11.5 -54.5v-123zM695 131q0 -16 10 -28t27 -12q18 0 28 12t10 28v123q0 16 -10 28
t-28 12q-17 0 -27 -12t-10 -28v-123zM63 446v123q0 29 11 54.5t32 45t51.5 30.5t68.5 11q37 0 67.5 -11t52 -30.5t33 -45t11.5 -54.5v-123q0 -29 -11.5 -54.5t-33 -45t-52 -30.5t-67.5 -11q-38 0 -68.5 11t-51.5 30.5t-32 45t-11 54.5zM264 569q0 16 -10 28t-28 12
q-17 0 -27 -12t-10 -28v-123q0 -16 10 -28t27 -12q18 0 28 12t10 28v123zM595 757l123 -58l-362 -755l-124 58z" />
    <glyph glyph-name="ampersand" unicode="&#x26;" horiz-adv-x="668" 
d="M353 379h291v-149h-40q-1 -52 -17 -97t-50.5 -78.5t-90 -52.5t-135.5 -19q-50 0 -99.5 12.5t-88.5 38.5t-63 65.5t-24 93.5q0 32 9.5 59t25.5 48.5t37 36.5t45 24q-21 7 -41 21t-35.5 34t-25 46t-9.5 56q0 54 22 92t59 62t85 34.5t100 10.5q82 0 135.5 -20.5t84.5 -52.5
t43 -73t12 -81h-208q0 39 -13.5 63t-53.5 24q-28 0 -44.5 -16t-16.5 -51q0 -32 18.5 -50.5t62.5 -18.5v-150q-45 0 -64.5 -19.5t-19.5 -57.5q0 -29 20 -52.5t59 -23.5q33 0 55.5 24t24.5 68h-50v149z" />
    <glyph glyph-name="quotesingle" unicode="'" horiz-adv-x="225" 
d="M35 555v151h155v-151l-40 -158h-75z" />
    <glyph glyph-name="parenleft" unicode="(" horiz-adv-x="407" 
d="M375 584q-31 0 -55 -10.5t-40.5 -29t-25.5 -43.5t-9 -53v-357q0 -28 9 -53t25.5 -43.5t40.5 -29t55 -10.5v-171q-77 0 -138 24.5t-103 66t-64.5 97.5t-22.5 119v357q0 63 22.5 119t64.5 97.5t103 66t138 24.5v-171z" />
    <glyph glyph-name="parenright" unicode=")" horiz-adv-x="407" 
d="M33 755q76 0 137 -24.5t103 -66t64.5 -97.5t22.5 -119v-357q0 -63 -22.5 -119t-64.5 -97.5t-103 -66t-137 -24.5v171q30 0 54 10.5t40.5 29t25.5 43.5t9 53v357q0 28 -9 53t-25.5 43.5t-40.5 29t-54 10.5v171z" />
    <glyph glyph-name="asterisk" unicode="*" horiz-adv-x="470" 
d="M66 380l87 111l-128 35l35 101l129 -51l-8 141h108l-8 -141l129 51l35 -101l-128 -35l87 -111l-88 -64l-81 128l-81 -128z" />
    <glyph glyph-name="plus" unicode="+" 
d="M248 59v152h-150v147h150v152h151v-152h150v-147h-150v-152h-151z" />
    <glyph glyph-name="comma" unicode="," horiz-adv-x="327" 
d="M33 107q0 25 9 47t25 38.5t37.5 26t46.5 9.5q30 0 55 -11.5t43 -31.5t28 -48.5t10 -62.5q0 -68 -17 -115.5t-49 -77t-78 -43t-104 -13.5v75q38 0 64.5 8t43.5 22t25.5 32t10.5 36q-2 -3 -11.5 -6.5t-20.5 -3.5q-27 0 -49 9.5t-37.5 25.5t-23.5 38t-8 46z" />
    <glyph glyph-name="hyphen" unicode="-" horiz-adv-x="339" 
d="M306 236h-273v148h273v-148z" />
    <glyph glyph-name="period" unicode="." horiz-adv-x="324" 
d="M40 108q0 25 9.5 46.5t25.5 38t38 26t48 9.5t48.5 -9.5t39 -26t26 -38t9.5 -46.5t-9.5 -46.5t-26 -38t-39 -26t-48.5 -9.5t-48 9.5t-38 26t-25.5 38t-9.5 46.5z" />
    <glyph glyph-name="slash" unicode="/" horiz-adv-x="529" 
d="M355 774l147 -63l-338 -786l-147 63z" />
    <glyph glyph-name="zero" unicode="0" horiz-adv-x="652" 
d="M38 462q0 52 19.5 98t57 81t90.5 55.5t121 20.5q66 0 119 -20.5t90.5 -55.5t58 -81t20.5 -98v-224q0 -52 -20.5 -98t-58 -81t-90.5 -55.5t-119 -20.5q-68 0 -121 20.5t-90.5 55.5t-57 81t-19.5 98v224zM406 462q0 35 -22 60.5t-58 25.5q-37 0 -58.5 -25.5t-21.5 -60.5
v-224q0 -35 21.5 -60.5t58.5 -25.5q36 0 58 25.5t22 60.5v224z" />
    <glyph glyph-name="one" unicode="1" horiz-adv-x="443" 
d="M29 571q54 0 88.5 8.5t54 24.5t27 40t7.5 56h176v-700h-209v434h-144v137z" />
    <glyph glyph-name="two" unicode="2" horiz-adv-x="628" 
d="M44 0q0 87 13 146.5t37 101.5t57.5 70.5t74.5 52.5q39 23 68 40.5t48.5 33.5t29.5 33t10 38q0 32 -17.5 46.5t-41.5 14.5q-31 0 -49.5 -19.5t-18.5 -67.5h-209q0 42 14.5 82.5t47.5 73t85.5 52t127.5 19.5q51 0 98 -11.5t84 -37t59 -66t22 -98.5q0 -41 -14.5 -74t-39 -61
t-56.5 -51t-67 -42q-34 -20 -57.5 -34t-38 -27t-21 -25.5t-6.5 -29.5h296v-160h-536v0z" />
    <glyph glyph-name="three" unicode="3" horiz-adv-x="634" 
d="M239 237q0 -48 19.5 -73.5t57.5 -25.5q35 0 51.5 24t16.5 53q0 37 -18.5 56.5t-61.5 19.5h-79v150h78q47 0 63 18.5t16 50.5q0 35 -16.5 51t-44.5 16q-41 0 -54 -24t-13 -63h-208q0 40 12 81t43 73t84 52.5t135 20.5q52 0 100.5 -10.5t85.5 -34.5t59 -62t22 -92
q0 -30 -9.5 -56t-25.5 -46.5t-36 -34.5t-41 -20q24 -7 45 -22t37.5 -37t26 -50.5t9.5 -61.5q0 -52 -22.5 -91t-60 -64.5t-86 -38.5t-99.5 -13q-82 0 -138.5 20t-91 54.5t-49.5 80.5t-15 99h208z" />
    <glyph glyph-name="four" unicode="4" horiz-adv-x="663" 
d="M353 177h-303v523h208v-354h95v177h209v-177h73v-169h-73v-177h-209v177z" />
    <glyph glyph-name="five" unicode="5" horiz-adv-x="663" 
d="M62 700h522v-150h-328v-118q20 26 56 40t79 14q60 0 103.5 -21.5t71.5 -56t41.5 -77t13.5 -85.5q0 -54 -19 -102t-56 -84t-90.5 -56.5t-123.5 -20.5t-124 20.5t-90.5 56t-55.5 83t-19 100.5h198q0 -39 24.5 -67.5t66.5 -28.5t66.5 28.5t24.5 70.5q0 19 -6 36.5t-17.5 31
t-28 21.5t-37.5 8q-35 0 -54.5 -14t-31.5 -37h-186v408z" />
    <glyph glyph-name="six" unicode="6" horiz-adv-x="631" 
d="M314 -15q-69 0 -123 21t-91 56.5t-56 83t-19 101.5q0 40 10 77t31 69l205 307h231l-133 -196q39 -8 69 -24q39 -12 70 -35t52.5 -53.5t32.5 -67.5t11 -77q0 -54 -19.5 -101.5t-56.5 -83t-91 -56.5t-123 -21zM314 151q42 0 66.5 27.5t24.5 68.5t-24.5 68.5t-66.5 27.5
t-66.5 -27.5t-24.5 -68.5t24.5 -68.5t66.5 -27.5z" />
    <glyph glyph-name="seven" unicode="7" horiz-adv-x="583" 
d="M591 700l-298 -700h-223l227 530h-266v170h560z" />
    <glyph glyph-name="eight" unicode="8" horiz-adv-x="644" 
d="M322 -17q-69 0 -122 17t-90 46t-56 68t-19 83q0 31 10.5 59t28 50t40 36.5t45.5 19.5q-21 7 -40.5 21.5t-34 34.5t-23 44.5t-8.5 51.5q0 42 18 79t52 64.5t84 43.5t115 16q64 0 114.5 -16t84.5 -43.5t52 -64.5t18 -79q0 -27 -8.5 -51.5t-23 -44.5t-34 -34.5t-40.5 -21.5
q24 -6 46 -21t39.5 -36.5t28 -49t10.5 -58.5q0 -44 -19 -83t-55.5 -68t-90 -46t-122.5 -17zM322 433q36 0 56 21.5t20 50.5q0 28 -20 49.5t-56 21.5t-56 -21t-20 -50t20 -50.5t56 -21.5zM322 124q42 0 65 24.5t23 56.5t-23 56.5t-65 24.5q-43 0 -66 -24.5t-23 -56.5
q0 -33 23.5 -57t65.5 -24z" />
    <glyph glyph-name="nine" unicode="9" horiz-adv-x="631" 
d="M317 715q69 0 123 -21t91 -56.5t56 -83t19 -101.5q0 -83 -42 -146l-204 -307h-231l132 196q-55 7 -98.5 29.5t-73.5 57t-46 78t-16 92.5q0 54 19.5 101.5t56.5 83t91 56.5t123 21zM317 549q-42 0 -66.5 -27.5t-24.5 -68.5t24.5 -68.5t66.5 -27.5t66.5 27.5t24.5 68.5
t-24.5 68.5t-66.5 27.5z" />
    <glyph glyph-name="colon" unicode=":" horiz-adv-x="324" 
d="M40 420q0 25 9.5 46.5t25.5 38t38 26t48 9.5t48.5 -9.5t39 -26t26 -38t9.5 -46.5t-9.5 -46.5t-26 -38t-39 -26t-48.5 -9.5t-48 9.5t-38 26t-25.5 38t-9.5 46.5zM41 108q0 25 9 46.5t25.5 38t38.5 26t48 9.5t48.5 -9.5t39 -26t25.5 -38t9 -46.5t-9 -46.5t-25.5 -38
t-39 -26t-48.5 -9.5t-48 9.5t-38.5 26t-25.5 38t-9 46.5z" />
    <glyph glyph-name="semicolon" unicode=";" horiz-adv-x="327" 
d="M40 107q0 25 9.5 47t25.5 38.5t37.5 26t46.5 9.5q30 0 55 -11.5t42.5 -31.5t27.5 -48.5t10 -62.5q0 -68 -17 -115.5t-48.5 -77t-78 -43t-104.5 -13.5v75q38 0 64.5 8t43.5 22t25.5 32t10.5 36q-2 -3 -11.5 -6.5t-19.5 -3.5q-27 0 -49 9.5t-37.5 25.5t-24 38t-8.5 46z
M40 420q0 25 9.5 46.5t25.5 38t38 26t48 9.5t48.5 -9.5t39 -26t26 -38t9.5 -46.5t-9.5 -46.5t-26 -38t-39 -26t-48.5 -9.5t-48 9.5t-38 26t-25.5 38t-9.5 46.5z" />
    <glyph glyph-name="less" unicode="&#x3c;" 
d="M46 202v163l541 180v-175l-301 -86l301 -87v-174z" />
    <glyph glyph-name="equal" unicode="=" 
d="M98 313v148h451v-148h-451zM98 106v148h451v-148h-451z" />
    <glyph glyph-name="greater" unicode="&#x3e;" 
d="M59 23v174l302 87l-302 86v175l542 -180v-163z" />
    <glyph glyph-name="question" unicode="?" horiz-adv-x="573" 
d="M178 249q0 32 4.5 56.5t16 45t30 38t46.5 34.5q14 9 27 18.5t23.5 20.5t16.5 25.5t6 32.5q0 29 -17.5 43t-44.5 14q-28 0 -47 -19.5t-19 -67.5h-205q0 42 14 82.5t46 73t83.5 52t126.5 19.5q51 0 99 -11.5t85 -36t59.5 -62t22.5 -89.5q0 -41 -12.5 -70t-30 -49.5t-36 -34
t-31.5 -23.5q-25 -20 -39 -39t-14 -53h-210zM160 106q0 25 9.5 47t26 38.5t38.5 26t48 9.5q27 0 49.5 -9.5t39 -26t26 -38.5t9.5 -47t-9.5 -47.5t-26 -39t-39 -26t-49.5 -9.5q-26 0 -48 9.5t-38.5 26t-26 39t-9.5 47.5z" />
    <glyph glyph-name="at" unicode="@" horiz-adv-x="914" 
d="M517 112q-5 -12 -16.5 -24.5t-27.5 -22t-35 -16t-40 -6.5q-40 0 -74.5 15t-59.5 41.5t-39 63t-14 80.5t14.5 80.5t40 63t59.5 41.5t73 15q21 0 40 -6.5t35 -16t27.5 -22t16.5 -24.5v59h142v-210q0 -58 12 -79t38 -21q12 0 22 9t17 29.5t11 54.5t4 85q0 58 -22 103
t-62 76.5t-96 48t-125 16.5q-63 0 -117.5 -20t-95 -58.5t-63.5 -94.5t-23 -129q0 -60 19.5 -115.5t59.5 -98.5t101.5 -69t145.5 -26q22 0 50.5 2t59.5 8t63 16.5t61 26.5l54 -108q-36 -20 -75 -33t-77 -21t-73 -11.5t-63 -3.5q-113 0 -199.5 35.5t-145.5 95t-89.5 138
t-30.5 164.5q0 100 36 179t96.5 134.5t139.5 85t166 29.5q95 0 176.5 -25.5t141 -73.5t93.5 -118t34 -159q0 -82 -17 -138.5t-46 -91t-69.5 -49.5t-86.5 -15q-63 0 -106.5 30t-60.5 81zM440 160q35 0 57 24.5t22 58.5t-22 58.5t-57 24.5t-56.5 -24.5t-21.5 -58.5t21.5 -58.5
t56.5 -24.5z" />
    <glyph glyph-name="A" unicode="A" horiz-adv-x="748" 
d="M512 0l-24 81h-235l-24 -81h-225l258 700h218l264 -700h-232zM371 490l-74 -258h148z" />
    <glyph glyph-name="B" unicode="B" horiz-adv-x="668" 
d="M52 700h343q72 0 116.5 -19.5t69.5 -48t33.5 -61.5t8.5 -60q0 -33 -11.5 -59.5t-29.5 -47t-39.5 -33t-41.5 -16.5q17 -2 39 -12.5t41.5 -30t33 -49t13.5 -68.5q0 -27 -9 -61t-33.5 -64t-69.5 -50t-117 -20h-347v700zM261 289v-143h71q47 0 66 22t19 50q0 10 -3.5 22.5
t-13 23.5t-26 18t-42.5 7h-71zM330 425q24 0 40 6t26 16t14.5 23t4.5 26q0 11 -3.5 23t-12.5 22.5t-25.5 17.5t-43.5 7h-69v-141h69z" />
    <glyph glyph-name="C" unicode="C" horiz-adv-x="801" 
d="M777 276q-9 -60 -37 -114t-75 -94t-111 -63.5t-145 -23.5q-90 0 -161.5 30t-120.5 81t-75 118t-26 140t25.5 139.5t74.5 117.5t118.5 81.5t158.5 30.5q85 0 151 -24t112.5 -66t74 -98t34.5 -119h-218q-9 50 -46 84t-102 34q-42 0 -74 -15t-53 -39.5t-32 -57t-11 -68.5
q0 -38 12 -71t34.5 -57t54.5 -38t73 -14q58 0 96 31t48 75h220z" />
    <glyph glyph-name="D" unicode="D" horiz-adv-x="739" 
d="M347 700q87 0 155 -29t115 -77.5t71.5 -112t24.5 -131.5t-24.5 -131.5t-71 -112t-114.5 -77.5t-156 -29h-286v700h286zM269 524v-348h63q39 0 70.5 14.5t53 38.5t33 55.5t11.5 65.5t-11.5 65.5t-33 55.5t-53 38.5t-70.5 14.5h-63z" />
    <glyph glyph-name="E" unicode="E" horiz-adv-x="566" 
d="M269 544v-122h243v-149h-243v-117h243v-156h-451v700h451v-156h-243z" />
    <glyph glyph-name="F" unicode="F" horiz-adv-x="561" 
d="M269 530v-155h243v-164h-243v-211h-208v700h451v-170h-243z" />
    <glyph glyph-name="G" unicode="G" horiz-adv-x="831" 
d="M426 388h394v-137h-67q-10 -60 -37.5 -110t-71.5 -85.5t-105.5 -55t-138.5 -19.5q-90 0 -159.5 29.5t-117 79.5t-72 117.5t-24.5 142.5q0 72 25 138.5t73 118t117 82t157 30.5q76 0 138 -21t107 -57t71.5 -83.5t31.5 -100.5h-230q-3 15 -11.5 30t-23.5 27t-36.5 19.5
t-48.5 7.5q-42 0 -72 -16.5t-49 -43.5t-28 -62t-9 -72q0 -41 10.5 -76.5t32 -62t53.5 -41.5t75 -15q59 0 91.5 28.5t40.5 70.5h-116v137z" />
    <glyph glyph-name="H" unicode="H" horiz-adv-x="734" 
d="M464 261h-195v-261h-208v700h208v-266h195v266h209v-700h-209v261z" />
    <glyph glyph-name="I" unicode="I" horiz-adv-x="332" 
d="M61 700h210v-700h-210v700z" />
    <glyph glyph-name="J" unicode="J" horiz-adv-x="629" 
d="M579 254q0 -73 -20 -124.5t-57 -84t-89.5 -47.5t-117.5 -15q-73 0 -126 21t-88 57.5t-52 86t-17 107.5h208q0 -42 18.5 -70t56.5 -28q35 0 55 24.5t20 72.5v446h209v-446z" />
    <glyph glyph-name="K" unicode="K" horiz-adv-x="710" 
d="M269 285v-285h-208v700h208v-286l194 286h244l-257 -350l257 -350h-244z" />
    <glyph glyph-name="L" unicode="L" horiz-adv-x="477" 
d="M452 178v-178h-391v700h208v-522h183z" />
    <glyph glyph-name="M" unicode="M" horiz-adv-x="942" 
d="M881 0h-202v434l-127 -434h-154l-135 434v-434h-202v700h265l148 -452l149 452h258v-700z" />
    <glyph glyph-name="N" unicode="N" horiz-adv-x="771" 
d="M501 285v415h209v-700h-212l-229 401v-401h-208v700h212z" />
    <glyph glyph-name="O" unicode="O" horiz-adv-x="811" 
d="M405 -19q-90 0 -160.5 30.5t-119 81.5t-74 118t-25.5 139t25.5 139t74 118t119 81.5t160.5 30.5t161 -30.5t119.5 -81.5t74 -118t25.5 -139t-25.5 -139t-74 -118t-119.5 -81.5t-161 -30.5zM405 171q40 0 71.5 15t53 39.5t33 57t11.5 67.5t-11.5 67.5t-33 57t-53 39.5
t-71.5 15t-71.5 -15t-53 -39.5t-33 -57t-11.5 -67.5t11.5 -67.5t33 -57t53 -39.5t71.5 -15z" />
    <glyph glyph-name="P" unicode="P" horiz-adv-x="673" 
d="M61 700h336q60 0 108.5 -21t83 -56.5t53 -83t18.5 -100.5t-18.5 -100t-53 -82.5t-83 -56.5t-108.5 -21h-128v-179h-208v700zM355 340q42 0 67.5 29t25.5 70t-25 70t-67 29h-87v-198h86z" />
    <glyph glyph-name="Q" unicode="Q" horiz-adv-x="811" 
d="M785 350q0 -48 -11.5 -93.5t-33.5 -86t-54 -74t-74 -57.5l60 -78q-52 -27 -92 -47l-92 -46l-83 113q-90 0 -160.5 30.5t-119 81.5t-74 118t-25.5 139t25.5 139t74 118t119 81.5t160.5 30.5t161 -30.5t119.5 -81.5t74 -118t25.5 -139zM405 171q40 0 71.5 15t53 39.5t33 57
t11.5 67.5t-11.5 67.5t-33 57t-53 39.5t-71.5 15t-71.5 -15t-53 -39.5t-33 -57t-11.5 -67.5t11.5 -67.5t33 -57t53 -39.5t71.5 -15z" />
    <glyph glyph-name="R" unicode="R" horiz-adv-x="698" 
d="M61 700h336q60 0 108.5 -21t83 -56.5t53 -83t18.5 -100.5q0 -72 -34 -132t-94 -94l140 -213h-245l-119 179h-39v-179h-208v700zM355 340q42 0 67.5 29t25.5 70t-25 70t-67 29h-87v-198h86z" />
    <glyph glyph-name="S" unicode="S" horiz-adv-x="644" 
d="M242 236q0 -48 24 -73.5t64 -25.5q32 0 50.5 16t18.5 44q0 29 -25.5 45.5t-80.5 38.5q-48 19 -92.5 38t-78 45t-53.5 62t-20 90t23.5 92.5t62.5 63t88.5 36t102.5 11.5q77 0 129 -20t84 -52.5t46 -73.5t14 -82h-208q0 87 -69 87q-26 0 -45 -13t-19 -42q0 -27 24 -45
t72 -35q45 -16 90.5 -34t82 -44t59 -63.5t22.5 -91.5t-20 -97t-57 -72t-90 -44.5t-119 -15.5t-119 17t-90.5 49t-58 79.5t-20.5 109.5h208z" />
    <glyph glyph-name="T" unicode="T" horiz-adv-x="536" 
d="M164 522h-144v178h496v-178h-144v-522h-208v522z" />
    <glyph glyph-name="U" unicode="U" horiz-adv-x="673" 
d="M44 700h208v-455q0 -36 24 -62t60 -26q38 0 61.5 26t23.5 62v455h208v-457q0 -57 -20 -105t-58 -83t-92 -54.5t-123 -19.5q-68 0 -122 19.5t-92 54.5t-58 83t-20 105v457z" />
    <glyph glyph-name="V" unicode="V" horiz-adv-x="720" 
d="M466 0h-218l-258 700h225l142 -479l141 479h232z" />
    <glyph glyph-name="W" unicode="W" horiz-adv-x="1088" 
d="M544 381l-117 -381h-181l-252 700h220l124 -418l123 418h166l122 -418l125 418h220l-252 -700h-182z" />
    <glyph glyph-name="X" unicode="X" horiz-adv-x="655" 
d="M429 700h227l-208 -350l208 -350h-227l-101 200l-101 -200h-228l208 350l-208 350h228l101 -200z" />
    <glyph glyph-name="Y" unicode="Y" horiz-adv-x="683" 
d="M345 0h-234l121 247l-235 453h244l113 -249l106 249h232z" />
    <glyph glyph-name="Z" unicode="Z" horiz-adv-x="687" 
d="M56 700h611l-322 -530h303v-170h-628l323 530h-287v170z" />
    <glyph glyph-name="bracketleft" unicode="[" horiz-adv-x="415" 
d="M61 -213v969h314v-170h-118v-629h118v-170h-314z" />
    <glyph glyph-name="backslash" unicode="\" horiz-adv-x="529" 
d="M502 -12l-147 -63l-338 786l147 63z" />
    <glyph glyph-name="bracketright" unicode="]" horiz-adv-x="415" 
d="M40 -213v170h118v629h-118v169h314v-968h-314z" />
    <glyph glyph-name="asciicircum" unicode="^" horiz-adv-x="623" 
d="M425 277l-113 253l-114 -253h-175l240 473h98l239 -473h-175z" />
    <glyph glyph-name="underscore" unicode="_" horiz-adv-x="607" 
d="M13 -138v108h580v-108h-580z" />
    <glyph glyph-name="grave" unicode="`" horiz-adv-x="454" 
d="M47 610l45 126l303 -119l-45 -126z" />
    <glyph glyph-name="a" unicode="a" horiz-adv-x="668" 
d="M610 497v-497h-196v74q-7 -15 -21.5 -30.5t-34.5 -28t-44.5 -20.5t-51.5 -8q-51 0 -93.5 19t-73 53t-47.5 82t-17 107q0 58 17 106.5t47.5 82.5t73 53t93.5 19q27 0 51.5 -7.5t44.5 -20t34.5 -28t21.5 -30.5v74h196zM320 150q42 0 68 29t26 69q0 41 -26 69.5t-68 28.5
q-41 0 -66.5 -28.5t-25.5 -69.5q0 -40 25.5 -69t66.5 -29z" />
    <glyph glyph-name="b" unicode="b" horiz-adv-x="668" 
d="M254 0h-196v700h196v-277q7 15 21.5 30.5t34.5 28t44.5 20t50.5 7.5q51 0 93.5 -19t73 -53t47.5 -82.5t17 -106.5q0 -59 -17 -107t-47.5 -82t-73 -53t-93.5 -19q-26 0 -50.5 8t-44.5 20.5t-34.5 28t-21.5 30.5v-74zM347 150q42 0 67.5 29t25.5 69q0 41 -25.5 69.5
t-67.5 28.5t-67.5 -28.5t-25.5 -69.5q0 -40 25.5 -69t67.5 -29z" />
    <glyph glyph-name="c" unicode="c" horiz-adv-x="617" 
d="M393 290q-5 26 -24.5 42.5t-55.5 16.5q-23 0 -40 -8.5t-28 -22.5t-16.5 -32t-5.5 -38t5.5 -38t16.5 -32t29 -22t42 -8q32 0 50 14t26 39h197q-5 -45 -25.5 -84.5t-55 -68.5t-84 -45.5t-112.5 -16.5q-70 0 -123.5 21t-89.5 57t-54 83.5t-18 100.5t18 101t54 84t89 57
t123 21q66 0 116 -18t84.5 -48t53.5 -70t24 -85h-196z" />
    <glyph glyph-name="d" unicode="d" horiz-adv-x="668" 
d="M414 74q-7 -15 -21.5 -30.5t-34.5 -28t-44.5 -20.5t-51.5 -8q-51 0 -93.5 19t-73 53t-47.5 82t-17 107q0 58 17 106.5t47.5 82.5t73 53t93.5 19q27 0 51.5 -7.5t44.5 -20t34.5 -28t21.5 -30.5v277h196v-700h-196v74zM320 150q42 0 68 29t26 69q0 41 -26 69.5t-68 28.5
q-41 0 -66.5 -28.5t-25.5 -69.5q0 -40 25.5 -69t66.5 -29z" />
    <glyph glyph-name="e" unicode="e" horiz-adv-x="623" 
d="M310 389q-38 0 -62.5 -22.5t-24.5 -64.5h172q0 41 -23 64t-62 23zM223 207q1 -18 5.5 -34.5t14.5 -29t27.5 -20.5t43.5 -8q33 0 53 14t26 36h190q-6 -38 -27 -71t-55 -57t-81 -37.5t-105 -13.5q-68 0 -121 18.5t-90.5 53t-57 82.5t-19.5 108q0 54 18 102t53.5 83.5
t88.5 56.5t124 21q68 0 120 -19.5t87.5 -51.5t54 -73.5t18.5 -85.5q0 -17 -1 -34.5t-5 -39.5h-362z" />
    <glyph glyph-name="f" unicode="f" horiz-adv-x="402" 
d="M389 573q-12 3 -21.5 4.5t-24.5 1.5q-24 0 -40 -9.5t-16 -40.5v-32h102v-137h-102v-360h-196v360h-78v137h78v27q0 64 17 102t44.5 57.5t62.5 25.5t72 6q34 0 59.5 -4t42.5 -10v-128z" />
    <glyph glyph-name="g" unicode="g" horiz-adv-x="666" 
d="M322 346q-42 0 -67.5 -28.5t-25.5 -69.5q0 -40 25.5 -69t67.5 -29t67.5 29t25.5 69q0 41 -25.5 69.5t-67.5 28.5zM611 28q0 -71 -20.5 -117.5t-63.5 -75.5q-35 -25 -83.5 -38t-124.5 -13q-78 0 -125.5 13t-79.5 39q-34 26 -56 63t-23 79h197q2 -24 24 -44.5t63 -20.5
q44 0 70 22t26 69v77q-18 -31 -57.5 -53t-92.5 -22q-51 0 -93.5 16t-73.5 47t-48 76t-17 103t16 106.5t45.5 82.5t71.5 53t94 19t93.5 -22t61.5 -64v74h196v-469z" />
    <glyph glyph-name="h" unicode="h" horiz-adv-x="626" 
d="M58 700h186v-276q20 37 60 61t99 24q84 0 124 -45q28 -29 37 -72.5t9 -99.5v-292h-186v252q0 45 -15 69.5t-53 24.5q-75 0 -75 -103v-243h-186v700z" />
    <glyph glyph-name="i" unicode="i" horiz-adv-x="312" 
d="M58 497h196v-497h-196v497zM40 647q0 24 9 44.5t24.5 36.5t36.5 25t45 9q25 0 46 -9t36.5 -25t24.5 -36.5t9 -44.5q0 -23 -9 -43.5t-24.5 -36t-36.5 -24.5t-46 -9q-24 0 -45 9t-36.5 24.5t-24.5 36t-9 43.5z" />
    <glyph glyph-name="j" unicode="j" horiz-adv-x="312" 
d="M254 -40q0 -55 -12.5 -89.5t-34.5 -53.5t-52 -26t-65 -7q-16 0 -33 1t-33.5 3t-30 4.5t-22.5 5.5v138q13 -2 21.5 -3t19.5 -1q46 0 46 49v516h196v-537zM40 647q0 24 9 44.5t24.5 36.5t36.5 25t45 9q25 0 46 -9t36.5 -25t24.5 -36.5t9 -44.5q0 -23 -9 -43.5t-24.5 -36
t-36.5 -24.5t-46 -9q-24 0 -45 9t-36.5 24.5t-24.5 36t-9 43.5z" />
    <glyph glyph-name="k" unicode="k" horiz-adv-x="610" 
d="M428 248l180 -248h-229l-125 199v-199h-196v700h196v-403l126 200h228z" />
    <glyph glyph-name="l" unicode="l" horiz-adv-x="312" 
d="M58 700h196v-700h-196v700z" />
    <glyph glyph-name="m" unicode="m" horiz-adv-x="920" 
d="M680 0v259q0 87 -59 87q-29 0 -47.5 -21.5t-18.5 -76.5v-248h-186v259q0 43 -13.5 65t-45.5 22q-29 0 -47.5 -22.5t-18.5 -81.5v-242h-186v497h186v-73q17 35 54.5 60t93.5 25q63 0 97 -25t49 -65q21 40 61 65t97 25q53 0 86.5 -16.5t52 -45t25.5 -67t7 -82.5v-298h-187z
" />
    <glyph glyph-name="n" unicode="n" horiz-adv-x="646" 
d="M58 497h196v-73q20 39 62 62t102 23q43 0 76.5 -12.5t53.5 -34.5q28 -29 36.5 -70.5t8.5 -97.5v-294h-196v252q0 45 -15 69.5t-53 24.5q-75 0 -75 -103v-243h-196v497z" />
    <glyph glyph-name="o" unicode="o" horiz-adv-x="631" 
d="M315 -14q-69 0 -123 21t-91 56.5t-56 83t-19 101.5t19 102t56 84t91 56.5t123 20.5t123 -20.5t91 -56.5t56.5 -84t19.5 -102t-19.5 -101.5t-56.5 -83t-91 -56.5t-123 -21zM315 150q43 0 68 28.5t25 69.5q0 42 -25 70t-68 28q-42 0 -67.5 -28t-25.5 -70q0 -41 25.5 -69.5
t67.5 -28.5z" />
    <glyph glyph-name="p" unicode="p" horiz-adv-x="668" 
d="M254 424q7 15 21.5 30.5t34.5 27.5t44.5 19.5t50.5 7.5q51 0 93.5 -18.5t73 -53t47.5 -82.5t17 -106q0 -59 -17 -107t-47.5 -82t-73 -53t-93.5 -19q-26 0 -50.5 7.5t-44.5 20t-34.5 28t-21.5 30.5v-277h-196v700h196v-73zM347 347q-42 0 -67.5 -29t-25.5 -69t25.5 -69
t67.5 -29t67.5 29t25.5 69t-25.5 69t-67.5 29z" />
    <glyph glyph-name="q" unicode="q" horiz-adv-x="668" 
d="M414 497h197v-700h-197v277q-6 -15 -20.5 -30.5t-34.5 -28t-44.5 -20t-51.5 -7.5q-51 0 -93.5 19t-73 53t-47.5 82t-17 107q0 58 17 106t47.5 82.5t73 53t93.5 18.5q27 0 51.5 -7.5t44.5 -19.5t34.5 -27.5t20.5 -30.5v73zM321 347q-42 0 -67.5 -29t-25.5 -69t25.5 -69
t67.5 -29t67.5 29t25.5 69t-25.5 69t-67.5 29z" />
    <glyph glyph-name="r" unicode="r" horiz-adv-x="457" 
d="M454 321q-20 5 -33.5 7t-33.5 2q-28 0 -52.5 -7.5t-42.5 -25t-28 -47.5t-10 -75v-175h-196v497h196v-79q8 17 22.5 33t33.5 28.5t42.5 20t50.5 7.5q17 0 28 -1.5t23 -5.5v-179z" />
    <glyph glyph-name="s" unicode="s" horiz-adv-x="566" 
d="M352 305q39 -9 72.5 -19.5t57.5 -27t38 -41.5t14 -64q0 -49 -19.5 -81t-53.5 -51t-79.5 -27t-96.5 -8q-132 0 -194 47.5t-62 132.5h196q0 -31 17 -45.5t47 -14.5q23 0 36.5 9.5t13.5 26.5q0 11 -6 18.5t-19.5 13.5t-35 12.5t-53.5 15.5q-36 9 -69.5 18.5t-59.5 26
t-41.5 41.5t-15.5 65q0 85 63 121.5t187 36.5q67 0 113 -13t73.5 -35.5t39.5 -52.5t12 -65h-195q0 27 -14.5 40t-37.5 13q-18 0 -32 -8t-14 -27q0 -22 29.5 -32t88.5 -26z" />
    <glyph glyph-name="t" unicode="t" horiz-adv-x="415" 
d="M400 0q-20 -4 -48.5 -7t-73.5 -3q-34 0 -68.5 4.5t-62 22t-44.5 52.5t-17 97v194h-73v137h73v145h197v-145h112v-137h-112v-150q0 -24 5 -38.5t14 -22.5t20.5 -11t24.5 -3q16 0 28.5 1t24.5 3v-139z" />
    <glyph glyph-name="u" unicode="u" horiz-adv-x="646" 
d="M588 497v-497h-196v74q-20 -40 -62 -63t-102 -23q-43 0 -76.5 12.5t-53.5 34.5q-28 29 -37 70.5t-9 97.5v294h197v-252q0 -45 15 -69.5t53 -24.5q75 0 75 103v243h196z" />
    <glyph glyph-name="v" unicode="v" horiz-adv-x="609" 
d="M199 497l104 -296l107 296h204l-225 -497h-172l-222 497h204z" />
    <glyph glyph-name="w" unicode="w" horiz-adv-x="853" 
d="M426 267l-75 -267h-175l-178 497h198l79 -277l64 277h175l64 -277l79 277h198l-178 -497h-175z" />
    <glyph glyph-name="x" unicode="x" horiz-adv-x="583" 
d="M588 0h-227l-70 131l-69 -131h-227l178 251l-175 246h227l66 -126l67 126h227l-176 -246z" />
    <glyph glyph-name="y" unicode="y" horiz-adv-x="652" 
d="M322 -216q-70 0 -117.5 11t-82.5 39q-29 24 -49 59.5t-21 84.5h197q2 -31 21.5 -49t53.5 -18q38 0 57 19.5t19 67.5v90q-20 -39 -59.5 -61.5t-96.5 -22.5q-47 0 -82.5 15t-55.5 37q-28 29 -37 67.5t-9 94.5v279h197v-252q0 -45 15 -69.5t53 -24.5q75 0 75 103v243h196
v-478q0 -63 -21 -109.5t-54 -72.5q-18 -14 -37.5 -24t-43 -16.5t-52.5 -9.5t-66 -3z" />
    <glyph glyph-name="z" unicode="z" horiz-adv-x="523" 
d="M509 497l-202 -335h189v-162h-482l204 335h-185v162h476z" />
    <glyph glyph-name="braceleft" unicode="{" horiz-adv-x="493" 
d="M440 755v-164h-39q-23 0 -38.5 -7.5t-25 -20t-14 -28.5t-4.5 -32v-121q0 -32 -11.5 -53.5t-27 -34.5t-32.5 -19t-28 -7q11 -2 28 -7.5t32.5 -19t27 -35.5t11.5 -56v-110q0 -17 4.5 -32.5t14 -28t25 -20t38.5 -7.5h39v-165h-131q-88 0 -137.5 47.5t-49.5 132.5v133
q0 43 -25 60t-57 17v180q32 0 57 17t25 58v144q0 85 49.5 132t137.5 47h131z" />
    <glyph glyph-name="bar" unicode="|" horiz-adv-x="318" 
d="M80 -213v968h159v-968h-159z" />
    <glyph glyph-name="braceright" unicode="}" horiz-adv-x="493" 
d="M184 755q88 0 137.5 -47t49.5 -132v-144q0 -41 25 -58t57 -17v-180q-16 0 -30.5 -4t-26 -13t-18.5 -24t-7 -36v-133q0 -85 -49.5 -132.5t-137.5 -47.5h-131v165h40q22 0 37.5 7.5t25.5 20t14.5 28t4.5 32.5v110q0 34 11 56t27 35.5t33 19t28 7.5q-11 1 -28 7t-33 19
t-27 34.5t-11 53.5v121q0 16 -4.5 32t-14.5 28.5t-25.5 20t-37.5 7.5h-40v164h131z" />
    <glyph glyph-name="asciitilde" unicode="~" horiz-adv-x="596" 
d="M31 339q29 33 65.5 46t67.5 13q32 0 68 -9.5t73 -22.5q35 -12 69 -24t60 -12q41 0 74 17.5t58 37.5v-146q-30 -33 -66.5 -46t-66.5 -13q-35 0 -66.5 9.5t-63.5 23.5q-30 14 -66 24.5t-80 10.5q-37 0 -69.5 -17.5t-56.5 -37.5v146z" />
    <glyph glyph-name="nonbreakingspace" unicode="&#xa0;" horiz-adv-x="250" 
 />
    <glyph glyph-name="exclamdown" unicode="&#xa1;" horiz-adv-x="366" 
d="M79 235h210v-438h-210v438zM62 390q0 25 9.5 47t25.5 38.5t38 26t48 9.5t48.5 -9.5t39 -26t26 -38.5t9.5 -47q0 -24 -9.5 -46t-26 -38t-39 -25.5t-48.5 -9.5t-48 9.5t-38 25.5t-25.5 38t-9.5 46z" />
    <glyph glyph-name="cent" unicode="&#xa2;" horiz-adv-x="632" 
d="M399 329q-5 26 -24.5 42.5t-55.5 16.5q-23 0 -40 -8.5t-28 -22.5t-16.5 -32t-5.5 -38t5.5 -38t16.5 -32t29 -22t42 -8q32 0 50 13.5t26 39.5h197q-5 -41 -22 -77.5t-45.5 -64.5t-69.5 -46.5t-93 -24.5v-110h-95v111q-59 7 -103 30t-74 58t-45 79t-15 92t15 92t45 79
t74 58.5t103 30.5v113h95v-113q54 -6 95 -26t69.5 -49.5t44.5 -66t21 -76.5h-196z" />
    <glyph glyph-name="sterling" unicode="&#xa3;" horiz-adv-x="676" 
d="M307 390h147v-96h-147q0 -12 -0.5 -31t-1.5 -29q-2 -24 -5.5 -43.5t-10.5 -30.5h331v-160h-565v135q18 18 28 40.5t12 56.5q2 11 2.5 30.5t1.5 31.5h-71v96h71v90q0 50 20 93t56.5 75t88 50.5t114.5 18.5t114.5 -19t88 -52.5t56.5 -78.5t20 -96h-208q0 33 -18 55t-55 22
q-32 0 -50.5 -19t-18.5 -49v-90z" />
    <glyph glyph-name="currency" unicode="&#xa4;" horiz-adv-x="795" 
d="M506 145q-32 -19 -68.5 -29t-78.5 -10t-78 10.5t-68 29.5l-84 -83l-71 70l80 81q-51 68 -51 156q0 89 51 157l-80 81l71 71l82 -83q32 19 69 30t79 11q40 0 77 -11t69 -31l83 83l71 -70l-81 -81q26 -33 40 -72.5t14 -84.5q0 -46 -13.5 -86t-37.5 -72l78 -78l-71 -71z
M359 272q43 0 68 28t25 70t-25 70t-68 28q-42 0 -67.5 -28t-25.5 -70t25.5 -70t67.5 -28z" />
    <glyph glyph-name="yen" unicode="&#xa5;" horiz-adv-x="680" 
d="M228 700l112 -249l112 249h245l-229 -391h101v-94h-124v-50h124v-94h-124v-71h-204v71h-123v94h123v50h-123v94h94l-229 391h245z" />
    <glyph glyph-name="brokenbar" unicode="&#xa6;" horiz-adv-x="318" 
d="M80 348v407h159v-407h-159zM239 208v-421h-159v421h159z" />
    <glyph glyph-name="section" unicode="&#xa7;" horiz-adv-x="570" 
d="M259 57q-42 16 -82 33t-71 40t-49.5 54.5t-18.5 76.5q0 57 25 92.5t83 58.5q-41 25 -62.5 60t-21.5 89q0 45 19.5 79t52 56t74.5 33t88 11q60 0 104 -17t72.5 -45t42.5 -64.5t14 -75.5h-160q0 42 -19.5 65t-56.5 23q-29 0 -51 -15t-22 -46q0 -29 24.5 -47t66.5 -32
q40 -14 81.5 -29.5t74.5 -38.5t54 -55.5t21 -80.5q0 -61 -31 -99.5t-80 -52.5q40 -24 63.5 -59t23.5 -87q0 -46 -17.5 -82t-49.5 -61t-76 -38.5t-98 -13.5t-99 15t-77 43t-50 68.5t-18 91.5h162q0 -44 24.5 -69t62.5 -25q33 0 54.5 16.5t21.5 46.5q0 31 -26.5 47.5
t-72.5 33.5zM399 263q0 22 -10 35.5t-27 23.5q-18 10 -42 17.5t-53 17.5q-15 -1 -30.5 -4.5t-28 -12t-21 -22t-8.5 -34.5q0 -22 11.5 -37.5t29.5 -26.5q18 -12 41 -20l46 -16q16 1 32.5 7t30 16t21.5 24.5t8 31.5z" />
    <glyph glyph-name="dieresis" unicode="&#xa8;" horiz-adv-x="570" 
d="M316 598q0 22 8 41t22.5 33.5t33.5 23t42 8.5t42.5 -8.5t34 -23t23 -33.5t8.5 -41q0 -21 -8.5 -40.5t-23 -33.5t-34 -22.5t-42.5 -8.5t-42 8.5t-33.5 22.5t-22.5 33.5t-8 40.5zM63 598q0 22 8.5 41t22.5 33.5t33.5 23t42.5 8.5t43 -8.5t34.5 -23t22.5 -33.5t8 -41
q0 -21 -8 -40.5t-22.5 -33.5t-34.5 -22.5t-43 -8.5t-42.5 8.5t-33.5 22.5t-22.5 33.5t-8.5 40.5z" />
    <glyph glyph-name="copyright" unicode="&#xa9;" horiz-adv-x="812" 
d="M406 -19q-90 0 -160.5 30.5t-119 81.5t-74 118t-25.5 139t25.5 139t74 118t119 81.5t160.5 30.5t160.5 -30.5t119 -81.5t74 -118t25.5 -139t-25.5 -139t-74 -118t-119 -81.5t-160.5 -30.5zM600 311q-5 -32 -19.5 -60t-39 -49t-57.5 -33t-75 -12q-47 0 -84.5 16t-63 42.5
t-39 61.5t-13.5 73t13.5 73t38.5 61.5t61.5 42.5t83.5 16q44 0 78.5 -13t58.5 -34.5t38 -50.5t18 -62h-114q-6 25 -25 42.5t-53 17.5q-43 0 -64.5 -28t-21.5 -65q0 -39 23 -66t65 -27q32 0 51 15.5t25 38.5h115zM406 77q64 0 114.5 22.5t85 60.5t52.5 87t18 103t-18 103
t-52.5 87t-85 60.5t-114.5 22.5t-114.5 -22.5t-85 -60.5t-52.5 -87t-18 -103t18 -103t52.5 -87t85 -60.5t114.5 -22.5z" />
    <glyph glyph-name="ordfeminine" unicode="&#xaa;" horiz-adv-x="668" 
d="M610 497v-497h-196v74q-7 -15 -21.5 -30.5t-34.5 -28t-44.5 -20.5t-51.5 -8q-51 0 -93.5 19t-73 53t-47.5 82t-17 107q0 58 17 106.5t47.5 82.5t73 53t93.5 19q27 0 51.5 -7.5t44.5 -20t34.5 -28t21.5 -30.5v74h196zM320 150q42 0 68 29t26 69q0 41 -26 69.5t-68 28.5
q-41 0 -66.5 -28.5t-25.5 -69.5q0 -40 25.5 -69t66.5 -29z" />
    <glyph glyph-name="guillemotleft" unicode="&#xab;" horiz-adv-x="551" 
d="M508 60l-231 184v94l231 184v-162l-96 -69l96 -69v-162zM264 60l-231 184v94l231 184v-162l-96 -69l96 -69v-162z" />
    <glyph glyph-name="logicalnot" unicode="&#xac;" 
d="M397 313h-299v148h451v-354h-152v206z" />
    <glyph glyph-name="softhyphen" unicode="&#xad;" horiz-adv-x="294" 
d="M264 236h-234v97h234v-97z" />
    <glyph glyph-name="registered" unicode="&#xae;" horiz-adv-x="812" 
d="M406 -19q-90 0 -160.5 30.5t-119 81.5t-74 118t-25.5 139t25.5 139t74 118t119 81.5t160.5 30.5t160.5 -30.5t119 -81.5t74 -118t25.5 -139t-25.5 -139t-74 -118t-119 -81.5t-160.5 -30.5zM406 77q64 0 114.5 22.5t85 60.5t52.5 87t18 103t-18 103t-52.5 87t-85 60.5
t-114.5 22.5t-114.5 -22.5t-85 -60.5t-52.5 -87t-18 -103t18 -103t52.5 -87t85 -60.5t114.5 -22.5zM255 170v379h186q32 0 58.5 -11.5t45 -31t28.5 -45t10 -53.5q0 -39 -18.5 -71.5t-51.5 -49.5l75 -117h-132l-65 98h-23v-98h-113zM417 355q22 0 34.5 16t12.5 37t-12.5 36.5
t-34.5 15.5h-49v-105h49z" />
    <glyph glyph-name="macron" unicode="&#xaf;" horiz-adv-x="482" 
d="M430 688h-378v132h378v-132z" />
    <glyph glyph-name="degree" unicode="&#xb0;" horiz-adv-x="362" 
d="M342 574q0 -34 -12.5 -63.5t-34.5 -51t-51 -34t-63 -12.5t-63.5 12.5t-51 34t-34 51t-12.5 63.5t12.5 63t34 51t51 34.5t63.5 12.5t63 -12.5t51 -34.5t34.5 -51t12.5 -63zM230 574q0 20 -14.5 35.5t-34.5 15.5t-34.5 -15.5t-14.5 -35.5q0 -21 14.5 -35.5t34.5 -14.5
t34.5 14.5t14.5 35.5z" />
    <glyph glyph-name="plusminus" unicode="&#xb1;" 
d="M198 223v151h-149v148h149v151h152v-151h149v-148h-149v-151h-152zM49 0v148h450v-148h-450z" />
    <glyph glyph-name="twosuperior" unicode="&#xb2;" horiz-adv-x="418" 
d="M54 315q0 48 7 81.5t20 56.5t31.5 39t41.5 29q46 28 66.5 43t20.5 35q0 15 -8 22t-19 7q-15 0 -24 -9.5t-9 -34.5h-126q0 22 7.5 44.5t26 40.5t48.5 29.5t75 11.5q28 0 55.5 -6t48.5 -20t34 -36t13 -55q0 -44 -26.5 -73t-69.5 -52q-36 -20 -52 -31t-16 -27h162v-95h-307
v0z" />
    <glyph glyph-name="threesuperior" unicode="&#xb3;" horiz-adv-x="416" 
d="M173 445q0 -23 8 -35.5t27 -12.5q17 0 24 11.5t7 26.5q0 37 -38 37h-47v88h46q24 0 32 9t8 25q0 19 -7.5 26.5t-21.5 7.5q-20 0 -25.5 -12t-5.5 -32h-126q0 21 6 43.5t23.5 41t48 30t79.5 11.5q30 0 57.5 -5.5t48.5 -18.5t33.5 -34.5t12.5 -52.5q0 -32 -20 -56t-43 -30
q26 -8 45.5 -33t19.5 -62q0 -29 -13 -50.5t-34 -35.5t-48 -20.5t-55 -6.5q-50 0 -82 11.5t-51.5 30.5t-27 44.5t-7.5 53.5h126z" />
    <glyph glyph-name="acute" unicode="&#xb4;" horiz-adv-x="453" 
d="M79 491l-45 126l303 119l45 -126z" />
    <glyph glyph-name="uni00B5" unicode="&#xb5;" 
d="M55 497h197v-257q0 -42 15.5 -65.5t52.5 -23.5q75 0 75 103v243h196v-497h-196v74q-17 -33 -48 -54t-75 -27q-6 0 -10.5 0.5t-9.5 1.5v-197h-197v699z" />
    <glyph glyph-name="paragraph" unicode="&#xb6;" horiz-adv-x="691" 
d="M246 267q-49 0 -91 16.5t-73.5 46t-49.5 70.5t-18 91q0 55 21.5 97.5t56 71t78 43t87.5 14.5h393v-123h-57v-778h-138v777h-72v-777h-137v451z" />
    <glyph glyph-name="periodcentered" unicode="&#xb7;" horiz-adv-x="310" 
d="M33 312q0 25 9.5 46.5t26 38t38.5 26t48 9.5t48 -9.5t38.5 -26t26 -38t9.5 -46.5t-9.5 -46.5t-26 -38t-38.5 -26t-48 -9.5t-48 9.5t-38.5 26t-26 38t-9.5 46.5z" />
    <glyph glyph-name="cedilla" unicode="&#xb8;" horiz-adv-x="391" 
d="M94 23h87v-69q5 7 16.5 12.5t30.5 5.5t35 -8t27.5 -21t17.5 -29.5t6 -33.5q0 -42 -29 -73.5t-87 -31.5q-22 0 -42 6t-36 18.5t-26 31t-11 43.5h84q2 -13 10 -21t21 -8q14 0 23 9.5t9 25.5q0 13 -8.5 22t-22.5 9q-21 0 -28 -16h-77v128z" />
    <glyph glyph-name="onesuperior" unicode="&#xb9;" horiz-adv-x="313" 
d="M45 628q31 0 50.5 5t30.5 14t15.5 22.5t4.5 30.5h105v-385h-127v231h-79v82z" />
    <glyph glyph-name="ordmasculine" unicode="&#xba;" horiz-adv-x="631" 
d="M315 -14q-69 0 -123 21t-91 56.5t-56 83t-19 101.5t19 102t56 84t91 56.5t123 20.5t123 -20.5t91 -56.5t56.5 -84t19.5 -102t-19.5 -101.5t-56.5 -83t-91 -56.5t-123 -21zM315 150q43 0 68 28.5t25 69.5q0 42 -25 70t-68 28q-42 0 -67.5 -28t-25.5 -70q0 -41 25.5 -69.5
t67.5 -28.5z" />
    <glyph glyph-name="guillemotright" unicode="&#xbb;" horiz-adv-x="551" 
d="M43 222l97 69l-97 69v162l231 -184v-94l-231 -184v162zM287 222l97 69l-97 69v162l231 -184v-94l-231 -184v162z" />
    <glyph glyph-name="onequarter" unicode="&#xbc;" horiz-adv-x="960" 
d="M41 628q30 0 49.5 5t31 14t15.5 22.5t4 30.5h105v-385h-126v231h-79v82zM748 93h-173v292h126v-191h47v94h125v-94h38v-101h-38v-93h-125v93zM536 757l123 -58l-362 -755l-124 58z" />
    <glyph glyph-name="onehalf" unicode="&#xbd;" horiz-adv-x="960" 
d="M52 628q30 0 49.5 5t31 14t15.5 22.5t4 30.5h106v-385h-127v231h-79v82zM583 0q0 48 7 81.5t20 56.5t31.5 39t41.5 29q46 28 66.5 43t20.5 35q0 15 -8 22t-19 7q-15 0 -23.5 -9.5t-8.5 -34.5h-126q0 22 7.5 44.5t25.5 40.5t48.5 29.5t75.5 11.5q28 0 55.5 -6t48.5 -20
t34 -36t13 -55q0 -44 -26.5 -73t-69.5 -52q-37 -20 -53 -31t-16 -27h162v-95h-307zM547 757l124 -58l-363 -755l-123 58z" />
    <glyph glyph-name="threequarters" unicode="&#xbe;" horiz-adv-x="960" 
d="M147 445q0 -23 8 -35.5t27 -12.5q17 0 24.5 11.5t7.5 26.5q0 37 -39 37h-47v88h47q23 0 31 9t8 25q0 19 -7.5 26.5t-21.5 7.5q-20 0 -25.5 -12t-5.5 -32h-126q0 21 6 43.5t23.5 41t48 30t80.5 11.5q30 0 57.5 -5.5t48.5 -18.5t33.5 -34.5t12.5 -52.5q0 -16 -5.5 -30.5
t-14.5 -25.5t-20.5 -19t-22.5 -11q26 -8 45.5 -33t19.5 -62q0 -29 -13 -50.5t-34 -35.5t-48.5 -20.5t-55.5 -6.5q-50 0 -82 11.5t-51.5 30.5t-27 44.5t-7.5 53.5h126zM759 93h-173v292h126v-191h47v94h125v-94h38v-101h-38v-93h-125v93zM561 757l124 -58l-363 -755l-123 58z
" />
    <glyph glyph-name="questiondown" unicode="&#xbf;" horiz-adv-x="573" 
d="M395 251q0 -32 -5 -57t-16 -45.5t-29.5 -38t-46.5 -34.5t-50.5 -38.5t-22.5 -57.5q0 -29 17.5 -43.5t44.5 -14.5q28 0 47 20t19 68h205q0 -42 -14 -83t-46 -73t-83.5 -52t-126.5 -20q-51 0 -99 11.5t-85 36t-59.5 62t-22.5 89.5q0 41 12.5 70t30 49.5t36 34t31.5 23.5
q25 20 39 39t14 54h210zM413 393q0 -25 -9.5 -46.5t-26 -38t-38.5 -26t-48 -9.5q-27 0 -49.5 9.5t-39 26t-26 38t-9.5 46.5t9.5 47.5t26 39t39 26t49.5 9.5q26 0 48 -9.5t38.5 -26t26 -39t9.5 -47.5z" />
    <glyph glyph-name="Agrave" unicode="&#xc0;" horiz-adv-x="748" 
d="M744 0h-232l-24 81h-235l-24 -81h-225l258 700h218zM297 232h148l-74 258zM204 845l45 126l303 -119l-45 -126z" />
    <glyph glyph-name="Aacute" unicode="&#xc1;" horiz-adv-x="748" 
d="M744 0h-232l-24 81h-235l-24 -81h-225l258 700h218zM297 232h148l-74 258zM245 724l-44 126l303 119l44 -126z" />
    <glyph glyph-name="Acircumflex" unicode="&#xc2;" horiz-adv-x="748" 
d="M744 0h-232l-24 81h-235l-24 -81h-225l258 700h218zM297 232h148l-74 258zM373 1015l212 -174l-89 -96l-123 106l-122 -106l-90 96z" />
    <glyph glyph-name="Atilde" unicode="&#xc3;" horiz-adv-x="748" 
d="M744 0h-232l-24 81h-235l-24 -81h-225l258 700h218zM297 232h148l-74 258zM449 890q29 0 47.5 13t34.5 35l84 -101q-29 -39 -69 -58t-85 -19q-29 0 -52.5 7.5t-43 17t-37 17t-35.5 7.5q-29 0 -47 -13t-35 -35l-82 104q29 38 68.5 56t84.5 18q29 0 52.5 -7.5t43 -17
t36.5 -17t35 -7.5z" />
    <glyph glyph-name="Adieresis" unicode="&#xc4;" horiz-adv-x="748" 
d="M744 0h-232l-24 81h-235l-24 -81h-225l258 700h218zM297 232h148l-74 258zM389 849q0 22 8.5 41.5t23 34.5t34 23.5t42.5 8.5t43 -8.5t34.5 -23.5t23 -34.5t8.5 -41.5q0 -21 -8.5 -40.5t-23 -34t-34.5 -23t-43 -8.5t-42.5 8.5t-34 23t-23 34t-8.5 40.5zM137 849
q0 22 8.5 41.5t23 34.5t34 23.5t42.5 8.5t43 -8.5t34.5 -23.5t23 -34.5t8.5 -41.5q0 -21 -8.5 -40.5t-23 -34t-34.5 -23t-43 -8.5t-42.5 8.5t-34 23t-23 34t-8.5 40.5z" />
    <glyph glyph-name="Aring" unicode="&#xc5;" horiz-adv-x="748" 
d="M744 0h-232l-24 81h-235l-24 -81h-225l258 700h218zM297 232h148l-74 258zM374 1027q30 0 57 -11.5t46.5 -31.5t31 -46t11.5 -56t-11.5 -56.5t-31 -46.5t-46.5 -31.5t-57 -11.5t-57 11.5t-46.5 31.5t-31 46.5t-11.5 56.5t11.5 56.5t31 46t46.5 31t57 11.5zM374 931
q-21 0 -35 -15t-14 -35q0 -18 14.5 -32.5t34.5 -14.5t34.5 14.5t14.5 34.5t-14 34t-35 14z" />
    <glyph glyph-name="AE" unicode="&#xc6;" horiz-adv-x="954" 
d="M656 544v-122h243v-149h-243v-117h243v-156h-451v81h-186l-35 -81h-226l330 700h568v-156h-243zM448 232v286l-124 -286h124z" />
    <glyph glyph-name="Ccedilla" unicode="&#xc7;" horiz-adv-x="801" 
d="M557 412q-9 50 -46 84t-102 34q-42 0 -74 -15t-53 -39.5t-32 -57t-11 -68.5q0 -38 12 -71t34.5 -57t54.5 -38t73 -14q58 0 96 31t48 75h220q-8 -57 -33.5 -107.5t-67 -89.5t-98 -64.5t-127.5 -31.5v-36q6 7 17.5 12.5t31.5 5.5q19 0 35 -8t26.5 -20.5t16.5 -29t6 -33.5
q0 -21 -7.5 -39.5t-22 -32.5t-36 -22.5t-50.5 -8.5q-22 0 -42 6.5t-36 18.5t-26 30.5t-11 42.5h84q2 -12 10 -20t21 -8q14 0 23 9.5t9 23.5q0 13 -8.5 22t-21.5 9q-22 0 -29 -15h-77v93q-80 7 -143 40t-106.5 82.5t-66 112.5t-22.5 132q0 73 25.5 139.5t74.5 117.5
t118.5 81.5t158.5 30.5q85 0 151 -24t112.5 -66t74 -98t34.5 -119h-218z" />
    <glyph glyph-name="Egrave" unicode="&#xc8;" horiz-adv-x="566" 
d="M269 544v-122h243v-149h-243v-117h243v-156h-451v700h451v-156h-243zM118 844l45 126l303 -119l-45 -126z" />
    <glyph glyph-name="Eacute" unicode="&#xc9;" horiz-adv-x="566" 
d="M269 544v-122h243v-149h-243v-117h243v-156h-451v700h451v-156h-243zM158 731l-45 126l303 119l45 -126z" />
    <glyph glyph-name="Ecircumflex" unicode="&#xca;" horiz-adv-x="566" 
d="M269 544v-122h243v-149h-243v-117h243v-156h-451v700h451v-156h-243zM288 1015l212 -174l-89 -96l-123 106l-123 -106l-89 96z" />
    <glyph glyph-name="Edieresis" unicode="&#xcb;" horiz-adv-x="566" 
d="M269 544v-122h243v-149h-243v-117h243v-156h-451v700h451v-156h-243zM309 849q0 22 8.5 41.5t23 34.5t34 23.5t42.5 8.5t43 -8.5t34.5 -23.5t23 -34.5t8.5 -41.5q0 -21 -8.5 -40.5t-23 -34t-34.5 -23t-43 -8.5t-42.5 8.5t-34 23t-23 34t-8.5 40.5zM57 849q0 22 8.5 41.5
t23 34.5t34 23.5t42.5 8.5t43 -8.5t34.5 -23.5t23 -34.5t8.5 -41.5q0 -21 -8.5 -40.5t-23 -34t-34.5 -23t-43 -8.5t-42.5 8.5t-34 23t-23 34t-8.5 40.5z" />
    <glyph glyph-name="Igrave" unicode="&#xcc;" horiz-adv-x="332" 
d="M61 700h210v-700h-210v700zM-8 844l45 126l303 -119l-45 -126z" />
    <glyph glyph-name="Iacute" unicode="&#xcd;" horiz-adv-x="332" 
d="M61 700h210v-700h-210v700zM37 724l-45 126l303 119l45 -126z" />
    <glyph glyph-name="Icircumflex" unicode="&#xce;" horiz-adv-x="332" 
d="M61 700h210v-700h-210v700zM167 1015l212 -174l-89 -96l-123 106l-123 -106l-89 96z" />
    <glyph glyph-name="Idieresis" unicode="&#xcf;" horiz-adv-x="332" 
d="M61 700h210v-700h-210v700zM191 849q0 22 8.5 41.5t23 34.5t34 23.5t42.5 8.5t43 -8.5t34.5 -23.5t23 -34.5t8.5 -41.5q0 -21 -8.5 -40.5t-23 -34t-34.5 -23t-43 -8.5t-42.5 8.5t-34 23t-23 34t-8.5 40.5zM-61 849q0 22 8.5 41.5t23 34.5t34 23.5t42.5 8.5t43 -8.5
t34.5 -23.5t23 -34.5t8.5 -41.5q0 -21 -8.5 -40.5t-23 -34t-34.5 -23t-43 -8.5t-42.5 8.5t-34 23t-23 34t-8.5 40.5z" />
    <glyph glyph-name="Eth" unicode="&#xd0;" horiz-adv-x="739" 
d="M347 700q87 0 155 -29t115 -77.5t71.5 -112t24.5 -131.5t-24.5 -131.5t-71 -112t-115 -77.5t-155.5 -29h-286v302h-83v95h83v303h286zM356 302h-87v-126h63q39 0 70.5 14.5t53 38.5t33 55.5t11.5 65.5t-11.5 65.5t-33 55.5t-53 38.5t-70.5 14.5h-63v-127h87v-95z" />
    <glyph glyph-name="Ntilde" unicode="&#xd1;" horiz-adv-x="771" 
d="M501 285v415h209v-700h-212l-229 401v-401h-208v700h212zM453 890q29 0 47.5 13t34.5 35l84 -101q-29 -39 -69 -58t-85 -19q-29 0 -52.5 7.5t-43 17t-37 17t-35.5 7.5q-29 0 -47 -13t-35 -35l-82 104q29 38 68.5 56t84.5 18q29 0 52.5 -7.5t43 -17t36.5 -17t35 -7.5z" />
    <glyph glyph-name="Ograve" unicode="&#xd2;" horiz-adv-x="811" 
d="M405 -19q-90 0 -160.5 30.5t-119 81.5t-74 118t-25.5 139t25.5 139t74 118t119 81.5t160.5 30.5t161 -30.5t119.5 -81.5t74 -118t25.5 -139t-25.5 -139t-74 -118t-119.5 -81.5t-161 -30.5zM405 171q40 0 71.5 15t53 39.5t33 57t11.5 67.5t-11.5 67.5t-33 57t-53 39.5
t-71.5 15t-71.5 -15t-53 -39.5t-33 -57t-11.5 -67.5t11.5 -67.5t33 -57t53 -39.5t71.5 -15zM225 850l45 126l303 -119l-45 -126z" />
    <glyph glyph-name="Oacute" unicode="&#xd3;" horiz-adv-x="811" 
d="M405 -19q-90 0 -160.5 30.5t-119 81.5t-74 118t-25.5 139t25.5 139t74 118t119 81.5t160.5 30.5t161 -30.5t119.5 -81.5t74 -118t25.5 -139t-25.5 -139t-74 -118t-119.5 -81.5t-161 -30.5zM405 171q40 0 71.5 15t53 39.5t33 57t11.5 67.5t-11.5 67.5t-33 57t-53 39.5
t-71.5 15t-71.5 -15t-53 -39.5t-33 -57t-11.5 -67.5t11.5 -67.5t33 -57t53 -39.5t71.5 -15zM281 731l-45 126l303 119l45 -126z" />
    <glyph glyph-name="Ocircumflex" unicode="&#xd4;" horiz-adv-x="811" 
d="M405 -19q-90 0 -160.5 30.5t-119 81.5t-74 118t-25.5 139t25.5 139t74 118t119 81.5t160.5 30.5t161 -30.5t119.5 -81.5t74 -118t25.5 -139t-25.5 -139t-74 -118t-119.5 -81.5t-161 -30.5zM405 171q40 0 71.5 15t53 39.5t33 57t11.5 67.5t-11.5 67.5t-33 57t-53 39.5
t-71.5 15t-71.5 -15t-53 -39.5t-33 -57t-11.5 -67.5t11.5 -67.5t33 -57t53 -39.5t71.5 -15zM406 1015l212 -174l-89 -96l-123 106l-122 -106l-90 96z" />
    <glyph glyph-name="Otilde" unicode="&#xd5;" horiz-adv-x="811" 
d="M405 -19q-90 0 -160.5 30.5t-119 81.5t-74 118t-25.5 139t25.5 139t74 118t119 81.5t160.5 30.5t161 -30.5t119.5 -81.5t74 -118t25.5 -139t-25.5 -139t-74 -118t-119.5 -81.5t-161 -30.5zM405 171q40 0 71.5 15t53 39.5t33 57t11.5 67.5t-11.5 67.5t-33 57t-53 39.5
t-71.5 15t-71.5 -15t-53 -39.5t-33 -57t-11.5 -67.5t11.5 -67.5t33 -57t53 -39.5t71.5 -15zM481 890q29 0 47.5 13t34.5 35l84 -101q-29 -39 -69 -58t-85 -19q-29 0 -52.5 7.5t-43 17t-37 17t-35.5 7.5q-29 0 -47 -13t-35 -35l-82 104q29 38 68.5 56t84.5 18q29 0 52.5 -7.5
t43 -17t36.5 -17t35 -7.5z" />
    <glyph glyph-name="Odieresis" unicode="&#xd6;" horiz-adv-x="811" 
d="M405 -19q-90 0 -160.5 30.5t-119 81.5t-74 118t-25.5 139t25.5 139t74 118t119 81.5t160.5 30.5t161 -30.5t119.5 -81.5t74 -118t25.5 -139t-25.5 -139t-74 -118t-119.5 -81.5t-161 -30.5zM167 852q0 22 8.5 41.5t23 34.5t34 23.5t42.5 8.5t43 -8.5t35 -23.5t23.5 -34.5
t8.5 -41.5q0 -21 -8.5 -40.5t-23.5 -34t-35 -23t-43 -8.5t-42.5 8.5t-34 23t-23 34t-8.5 40.5zM419 852q0 22 8.5 41.5t23 34.5t34 23.5t42.5 8.5t43 -8.5t34.5 -23.5t23 -34.5t8.5 -41.5q0 -21 -8.5 -40.5t-23 -34t-34.5 -23t-43 -8.5t-42.5 8.5t-34 23t-23 34t-8.5 40.5z
M236 350q0 -35 11.5 -67.5t33 -57t53 -39.5t71.5 -15t71.5 15t53 39.5t33 57t11.5 67.5t-11.5 67.5t-33 57t-53 39.5t-71.5 15t-71.5 -15t-53 -39.5t-33 -57t-11.5 -67.5z" />
    <glyph glyph-name="multiply" unicode="&#xd7;" 
d="M429 497l107 -107l-107 -107l105 -106l-104 -104l-105 106l-108 -108l-107 107l107 108l-105 106l104 104l106 -106z" />
    <glyph glyph-name="Oslash" unicode="&#xd8;" horiz-adv-x="811" 
d="M405 -19q-58 0 -111 14l-39 -89l-87 40l37 84q-43 24 -76.5 59t-56 76.5t-34.5 88.5t-12 96q0 72 25.5 139t74 118t119 81.5t160.5 30.5q55 0 102 -12l37 82l86 -39l-34 -76q45 -24 80.5 -59t59.5 -77t36.5 -90t12.5 -98q0 -72 -25.5 -139t-74 -118t-119.5 -81.5
t-161 -30.5zM574 350q0 41 -16 78t-45 62l-139 -316q5 -2 15 -2.5t16 -0.5q40 0 71.5 15t53 39.5t33 57t11.5 67.5zM236 350q0 -38 13.5 -73t39.5 -60l137 310q-5 1 -10.5 1.5t-10.5 0.5q-40 0 -71.5 -15t-53 -39.5t-33 -57t-11.5 -67.5z" />
    <glyph glyph-name="Ugrave" unicode="&#xd9;" horiz-adv-x="673" 
d="M44 700h208v-455q0 -36 24 -62t60 -26q38 0 61.5 26t23.5 62v455h208v-457q0 -57 -20 -105t-58 -83t-92 -54.5t-123 -19.5q-68 0 -122 19.5t-92 54.5t-58 83t-20 105v457zM167 850l45 126l303 -119l-45 -126z" />
    <glyph glyph-name="Uacute" unicode="&#xda;" horiz-adv-x="673" 
d="M44 700h208v-455q0 -36 24 -62t60 -26q38 0 61.5 26t23.5 62v455h208v-457q0 -57 -20 -105t-58 -83t-92 -54.5t-123 -19.5q-68 0 -122 19.5t-92 54.5t-58 83t-20 105v457zM199 731l-45 126l303 119l45 -126z" />
    <glyph glyph-name="Ucircumflex" unicode="&#xdb;" horiz-adv-x="673" 
d="M44 700h208v-455q0 -36 24 -62t60 -26q38 0 61.5 26t23.5 62v455h208v-457q0 -57 -20 -105t-58 -83t-92 -54.5t-123 -19.5q-68 0 -122 19.5t-92 54.5t-58 83t-20 105v457zM335 1015l213 -174l-89 -96l-123 106l-123 -106l-89 96z" />
    <glyph glyph-name="Udieresis" unicode="&#xdc;" horiz-adv-x="673" 
d="M44 700h208v-455q0 -36 24 -62t60 -26q38 0 61.5 26t23.5 62v455h208v-457q0 -57 -20 -105t-58 -83t-92 -54.5t-123 -19.5q-68 0 -122 19.5t-92 54.5t-58 83t-20 105v457zM350 848q0 22 8.5 41.5t23 34.5t34 23.5t42.5 8.5t43 -8.5t34.5 -23.5t23 -34.5t8.5 -41.5
q0 -21 -8.5 -40.5t-23 -34t-34.5 -23t-43 -8.5t-42.5 8.5t-34 23t-23 34t-8.5 40.5zM98 848q0 22 8.5 41.5t23 34.5t34 23.5t42.5 8.5t43 -8.5t35 -23.5t23.5 -34.5t8.5 -41.5q0 -21 -8.5 -40.5t-23.5 -34t-35 -23t-43 -8.5t-42.5 8.5t-34 23t-23 34t-8.5 40.5z" />
    <glyph glyph-name="Yacute" unicode="&#xdd;" horiz-adv-x="679" 
d="M345 0h-234l121 247l-235 453h244l113 -249l106 249h232zM250 726l-45 127l303 119l45 -127z" />
    <glyph glyph-name="Thorn" unicode="&#xde;" horiz-adv-x="576" 
d="M54 700h195v-99h26q70 0 123.5 -20.5t89.5 -55.5t54.5 -81.5t18.5 -98.5q0 -51 -18.5 -97.5t-54.5 -81.5t-89.5 -55.5t-123.5 -20.5h-26v-90h-195v700zM249 438v-186h26q43 0 67.5 27.5t24.5 65.5t-24.5 65.5t-67.5 27.5h-26z" />
    <glyph glyph-name="germandbls" unicode="&#xdf;" horiz-adv-x="621" 
d="M267 143q11 -4 25 -5.5t19 -1.5q32 0 51 22t19 58q0 31 -18.5 53.5t-53.5 22.5h-19v148h18q38 0 54.5 19.5t16.5 50.5q0 35 -18.5 52t-47.5 17q-35 0 -50.5 -24.5t-15.5 -64.5v-490h-206v490q0 40 12 81t43 73t84 52.5t135 20.5q52 0 100 -10.5t85 -34.5t59.5 -62
t22.5 -92q0 -30 -10 -56t-26 -46.5t-36.5 -34.5t-41.5 -20q24 -7 45.5 -22.5t38 -38t26.5 -51t10 -61.5q0 -96 -57 -149t-157 -53q-40 0 -64 4t-43 10v143z" />
    <glyph glyph-name="agrave" unicode="&#xe0;" horiz-adv-x="668" 
d="M610 497v-497h-196v74q-7 -15 -21.5 -30.5t-34.5 -28t-44.5 -20.5t-51.5 -8q-51 0 -93.5 19t-73 53t-47.5 82t-17 107q0 58 17 106.5t47.5 82.5t73 53t93.5 19q27 0 51.5 -7.5t44.5 -20t34.5 -28t21.5 -30.5v74h196zM320 150q42 0 68 29t26 69q0 41 -26 69.5t-68 28.5
q-41 0 -66.5 -28.5t-25.5 -69.5q0 -40 25.5 -69t66.5 -29zM109 642l45 126l303 -119l-45 -126z" />
    <glyph glyph-name="aacute" unicode="&#xe1;" horiz-adv-x="668" 
d="M610 497v-497h-196v74q-7 -15 -21.5 -30.5t-34.5 -28t-44.5 -20.5t-51.5 -8q-51 0 -93.5 19t-73 53t-47.5 82t-17 107q0 58 17 106.5t47.5 82.5t73 53t93.5 19q27 0 51.5 -7.5t44.5 -20t34.5 -28t21.5 -30.5v74h196zM320 150q42 0 68 29t26 69q0 41 -26 69.5t-68 28.5
q-41 0 -66.5 -28.5t-25.5 -69.5q0 -40 25.5 -69t66.5 -29zM154 523l-44 126l303 119l44 -126z" />
    <glyph glyph-name="acircumflex" unicode="&#xe2;" horiz-adv-x="668" 
d="M610 497v-497h-196v74q-7 -15 -21.5 -30.5t-34.5 -28t-44.5 -20.5t-51.5 -8q-51 0 -93.5 19t-73 53t-47.5 82t-17 107q0 58 17 106.5t47.5 82.5t73 53t93.5 19q27 0 51.5 -7.5t44.5 -20t34.5 -28t21.5 -30.5v74h196zM320 150q42 0 68 29t26 69q0 41 -26 69.5t-68 28.5
q-41 0 -66.5 -28.5t-25.5 -69.5q0 -40 25.5 -69t66.5 -29zM344 814l212 -174l-89 -96l-123 106l-123 -106l-89 96z" />
    <glyph glyph-name="atilde" unicode="&#xe3;" horiz-adv-x="668" 
d="M610 497v-497h-196v74q-7 -15 -21.5 -30.5t-34.5 -28t-44.5 -20.5t-51.5 -8q-51 0 -93.5 19t-73 53t-47.5 82t-17 107q0 58 17 106.5t47.5 82.5t73 53t93.5 19q27 0 51.5 -7.5t44.5 -20t34.5 -28t21.5 -30.5v74h196zM320 150q42 0 68 29t26 69q0 41 -26 69.5t-68 28.5
q-41 0 -66.5 -28.5t-25.5 -69.5q0 -40 25.5 -69t66.5 -29zM422 701q29 0 47.5 13.5t35.5 34.5l83 -100q-29 -40 -69 -58.5t-85 -18.5q-29 0 -52.5 7.5t-43 17t-37 17t-35.5 7.5q-29 0 -47 -13t-34 -35l-82 104q29 38 68 56t84 18q29 0 52.5 -8t43 -17t36.5 -17t35 -8z" />
    <glyph glyph-name="adieresis" unicode="&#xe4;" horiz-adv-x="668" 
d="M414 0v74q-7 -15 -21.5 -30.5t-34.5 -28t-44.5 -20.5t-51.5 -8q-51 0 -93.5 19t-73 53t-47.5 82t-17 107q0 58 17 106.5t47.5 82.5t73 53t93.5 19q27 0 51.5 -7.5t44.5 -20t34.5 -28t21.5 -30.5v74h196v-497h-196zM320 150q42 0 68 29t26 69q0 41 -26 69.5t-68 28.5
q-41 0 -66.5 -28.5t-25.5 -69.5q0 -40 25.5 -69t66.5 -29zM443 539q-23 0 -42.5 8.5t-34 23t-23 34t-8.5 40.5q0 22 8.5 41.5t23 34.5t34 23.5t42.5 8.5t43 -8.5t34.5 -23.5t23 -34.5t8.5 -41.5q0 -21 -8.5 -40.5t-23 -34t-34.5 -23t-43 -8.5zM83 645q0 22 8.5 41.5t23 34.5
t34 23.5t42.5 8.5t43 -8.5t35 -23.5t23.5 -34.5t8.5 -41.5q0 -21 -8.5 -40.5t-23.5 -34t-35 -23t-43 -8.5t-42.5 8.5t-34 23t-23 34t-8.5 40.5z" />
    <glyph glyph-name="aring" unicode="&#xe5;" horiz-adv-x="668" 
d="M610 497v-497h-196v74q-7 -15 -21.5 -30.5t-34.5 -28t-44.5 -20.5t-51.5 -8q-51 0 -93.5 19t-73 53t-47.5 82t-17 107q0 58 17 106.5t47.5 82.5t73 53t93.5 19q27 0 51.5 -7.5t44.5 -20t34.5 -28t21.5 -30.5v74h196zM320 150q42 0 68 29t26 69q0 41 -26 69.5t-68 28.5
q-41 0 -66.5 -28.5t-25.5 -69.5q0 -40 25.5 -69t66.5 -29zM334 548q-31 0 -57.5 11.5t-46.5 32t-31.5 47t-11.5 56.5q0 31 11.5 58t31.5 47t46.5 31.5t57.5 11.5t58 -12t47 -32t31.5 -47t11.5 -57t-11.5 -56.5t-31.5 -47t-47 -32t-58 -11.5zM334 751q-23 0 -38.5 -17
t-15.5 -40q0 -20 16 -36.5t38 -16.5q23 0 39 16.5t16 38.5q0 23 -16 39t-39 16z" />
    <glyph glyph-name="ae" unicode="&#xe6;" horiz-adv-x="1009" 
d="M580 497v-6q52 20 117 20q68 0 120 -19.5t87.5 -51.5t54 -73.5t18.5 -85.5q0 -17 -1 -34.5t-5 -39.5h-360q0 -18 4 -34.5t14.5 -29t27.5 -20.5t43 -8q33 0 53 14t26 36h190q-6 -38 -27 -71t-54.5 -57t-80.5 -37.5t-106 -13.5q-66 0 -120 20v-6h-167v74
q-7 -15 -21.5 -30.5t-34.5 -28t-44.5 -20.5t-51.5 -8q-51 0 -93.5 19t-73 53t-47.5 82t-17 107q0 58 17 106.5t47.5 82.5t73 53t93.5 19q27 0 51.5 -7.5t44.5 -20t34.5 -28t21.5 -30.5v74h166zM697 386q-38 0 -61.5 -21t-24.5 -63h171q0 39 -23.5 61.5t-61.5 22.5zM320 150
q42 0 68 29t26 69q0 42 -26 70t-68 28q-41 0 -66.5 -28.5t-25.5 -69.5q0 -40 25.5 -69t66.5 -29z" />
    <glyph glyph-name="ccedilla" unicode="&#xe7;" horiz-adv-x="617" 
d="M251 -9q-55 9 -97 32.5t-70 58t-42.5 77t-14.5 89.5q0 53 18 101t54 84t89 57t123 21q66 0 116 -18t84.5 -48t53.5 -70t24 -85h-196q-5 26 -24.5 42.5t-55.5 16.5q-23 0 -40 -8.5t-28 -22.5t-16.5 -32t-5.5 -38t5.5 -38t16.5 -32t29 -22t42 -8q32 0 50 14t26 39h197
q-5 -43 -23.5 -80.5t-50 -66t-76 -46t-101.5 -21.5v-36q5 7 17 12.5t31 5.5q20 0 35.5 -8t26.5 -20.5t17 -29t6 -33.5q0 -21 -7.5 -39.5t-22 -32.5t-36.5 -22.5t-50 -8.5q-22 0 -42.5 6.5t-36 18.5t-26 30.5t-11.5 42.5h84q2 -12 10.5 -20t21.5 -8q14 0 22.5 9.5t8.5 23.5
q0 13 -8 22t-22 9q-21 0 -28 -15h-77v97z" />
    <glyph glyph-name="egrave" unicode="&#xe8;" horiz-adv-x="623" 
d="M223 207q1 -18 5.5 -34.5t14.5 -29t27.5 -20.5t43.5 -8q33 0 53 14t26 36h190q-6 -38 -27 -71t-55 -57t-81 -37.5t-105 -13.5q-68 0 -121 18.5t-90.5 53t-57 82.5t-19.5 108q0 54 18 102t53.5 83.5t88.5 56.5t124 21q68 0 120 -19.5t87.5 -51.5t54 -73.5t18.5 -85.5
q0 -17 -1 -34.5t-5 -39.5h-362zM310 389q-38 0 -62.5 -22.5t-24.5 -64.5h172q0 41 -23 64t-62 23zM152 642l45 126l303 -119l-45 -126z" />
    <glyph glyph-name="eacute" unicode="&#xe9;" horiz-adv-x="623" 
d="M223 207q1 -18 5.5 -34.5t14.5 -29t27.5 -20.5t43.5 -8q33 0 53 14t26 36h190q-6 -38 -27 -71t-55 -57t-81 -37.5t-105 -13.5q-68 0 -121 18.5t-90.5 53t-57 82.5t-19.5 108q0 54 18 102t53.5 83.5t88.5 56.5t124 21q68 0 120 -19.5t87.5 -51.5t54 -73.5t18.5 -85.5
q0 -17 -1 -34.5t-5 -39.5h-362zM310 389q-38 0 -62.5 -22.5t-24.5 -64.5h172q0 41 -23 64t-62 23zM173 523l-45 126l303 119l45 -126z" />
    <glyph glyph-name="ecircumflex" unicode="&#xea;" horiz-adv-x="623" 
d="M223 207q1 -18 5.5 -34.5t14.5 -29t27.5 -20.5t43.5 -8q33 0 53 14t26 36h190q-6 -38 -27 -71t-55 -57t-81 -37.5t-105 -13.5q-68 0 -121 18.5t-90.5 53t-57 82.5t-19.5 108q0 54 18 102t53.5 83.5t88.5 56.5t124 21q68 0 120 -19.5t87.5 -51.5t54 -73.5t18.5 -85.5
q0 -17 -1 -34.5t-5 -39.5h-362zM310 389q-38 0 -62.5 -22.5t-24.5 -64.5h172q0 41 -23 64t-62 23zM315 814l212 -174l-89 -96l-123 106l-122 -106l-90 96z" />
    <glyph glyph-name="edieresis" unicode="&#xeb;" horiz-adv-x="623" 
d="M223 207q1 -18 5.5 -34.5t14.5 -29t27.5 -20.5t43.5 -8q33 0 53 14t26 36h190q-6 -38 -27 -71t-55 -57t-81 -37.5t-105 -13.5q-68 0 -121 18.5t-90.5 53t-57 82.5t-19.5 108q0 54 18 102t53.5 83.5t88.5 56.5t124 21q68 0 120 -19.5t87.5 -51.5t54 -73.5t18.5 -85.5
q0 -17 -1 -34.5t-5 -39.5h-362zM310 389q-38 0 -62.5 -22.5t-24.5 -64.5h172q0 41 -23 64t-62 23zM325 645q0 22 8 41.5t22.5 34.5t34.5 23.5t43 8.5t43 -8.5t34.5 -23.5t23 -34.5t8.5 -41.5q0 -21 -8.5 -40.5t-23 -34t-34.5 -23t-43 -8.5t-43 8.5t-34.5 23t-22.5 34
t-8 40.5zM72 645q0 22 8.5 41.5t23 34.5t34 23.5t42.5 8.5q24 0 44 -8.5t34.5 -23.5t23 -34.5t8.5 -41.5q0 -21 -8.5 -40.5t-23 -34t-34.5 -23t-44 -8.5q-23 0 -42.5 8.5t-34 23t-23 34t-8.5 40.5z" />
    <glyph glyph-name="igrave" unicode="&#xec;" horiz-adv-x="312" 
d="M58 497h196v-497h-196v497zM-18 649l45 126l303 -119l-45 -126z" />
    <glyph glyph-name="iacute" unicode="&#xed;" horiz-adv-x="312" 
d="M58 497h196v-497h-196v497zM27 530l-45 126l303 119l45 -126z" />
    <glyph glyph-name="icircumflex" unicode="&#xee;" horiz-adv-x="312" 
d="M58 497h196v-497h-196v497zM156 814l213 -174l-89 -96l-123 106l-123 -106l-89 96z" />
    <glyph glyph-name="idieresis" unicode="&#xef;" horiz-adv-x="312" 
d="M58 497h196v-497h-196v497zM168 645q0 22 8 41.5t22.5 34.5t34.5 23.5t43 8.5t43 -8.5t34.5 -23.5t23 -34.5t8.5 -41.5q0 -21 -8.5 -40.5t-23 -34t-34.5 -23t-43 -8.5t-43 8.5t-34.5 23t-22.5 34t-8 40.5zM-71 645q0 22 8.5 41.5t23 34.5t34 23.5t42.5 8.5t43 -8.5
t34.5 -23.5t23 -34.5t8.5 -41.5q0 -21 -8.5 -40.5t-23 -34t-34.5 -23t-43 -8.5t-42.5 8.5t-34 23t-23 34t-8.5 40.5z" />
    <glyph glyph-name="eth" unicode="&#xf0;" horiz-adv-x="627" 
d="M311 -17q-69 0 -123 21t-91 56.5t-56 83t-19 101.5q0 48 15 91.5t44.5 78t72 57t96.5 30.5h3l-27 42l-97 -39l-33 85l77 32l-74 112h231l29 -44l83 33l32 -85l-62 -27l147 -220q42 -63 42 -146q0 -54 -19.5 -101.5t-56.5 -83t-91 -56.5t-123 -21zM311 147q43 0 68 28
t25 70t-25 70t-68 28q-42 0 -67.5 -28t-25.5 -70t25.5 -70t67.5 -28z" />
    <glyph glyph-name="ntilde" unicode="&#xf1;" horiz-adv-x="646" 
d="M58 497h196v-73q20 39 62 62t102 23q43 0 76.5 -12.5t53.5 -34.5q28 -29 36.5 -70.5t8.5 -97.5v-294h-196v252q0 45 -15 69.5t-53 24.5q-75 0 -75 -103v-243h-196v497zM402 701q29 0 47.5 13.5t35.5 34.5l83 -100q-29 -40 -69 -58.5t-85 -18.5q-29 0 -52.5 7.5t-43 17
t-37 17t-35.5 7.5q-29 0 -47 -13t-34 -35l-82 104q29 38 68 56t84 18q29 0 52.5 -8t43 -17t36.5 -17t35 -8z" />
    <glyph glyph-name="ograve" unicode="&#xf2;" horiz-adv-x="631" 
d="M315 -14q-69 0 -123 21t-91 56.5t-56 83t-19 101.5t19 102t56 84t91 56.5t123 20.5t123 -20.5t91 -56.5t56.5 -84t19.5 -102t-19.5 -101.5t-56.5 -83t-91 -56.5t-123 -21zM315 150q43 0 68 28.5t25 69.5q0 42 -25 70t-68 28q-42 0 -67.5 -28t-25.5 -70q0 -41 25.5 -69.5
t67.5 -28.5zM151 642l45 126l303 -119l-45 -126z" />
    <glyph glyph-name="oacute" unicode="&#xf3;" horiz-adv-x="631" 
d="M315 -14q-69 0 -123 21t-91 56.5t-56 83t-19 101.5t19 102t56 84t91 56.5t123 20.5t123 -20.5t91 -56.5t56.5 -84t19.5 -102t-19.5 -101.5t-56.5 -83t-91 -56.5t-123 -21zM315 150q43 0 68 28.5t25 69.5q0 42 -25 70t-68 28q-42 0 -67.5 -28t-25.5 -70q0 -41 25.5 -69.5
t67.5 -28.5zM169 523l-44 126l303 119l44 -126z" />
    <glyph glyph-name="ocircumflex" unicode="&#xf4;" horiz-adv-x="631" 
d="M315 -14q-69 0 -123 21t-91 56.5t-56 83t-19 101.5t19 102t56 84t91 56.5t123 20.5t123 -20.5t91 -56.5t56.5 -84t19.5 -102t-19.5 -101.5t-56.5 -83t-91 -56.5t-123 -21zM315 150q43 0 68 28.5t25 69.5q0 42 -25 70t-68 28q-42 0 -67.5 -28t-25.5 -70q0 -41 25.5 -69.5
t67.5 -28.5zM315 814l212 -174l-89 -96l-123 106l-123 -106l-89 96z" />
    <glyph glyph-name="otilde" unicode="&#xf5;" horiz-adv-x="631" 
d="M315 -14q-69 0 -123 21t-91 56.5t-56 83t-19 101.5t19 102t56 84t91 56.5t123 20.5t123 -20.5t91 -56.5t56.5 -84t19.5 -102t-19.5 -101.5t-56.5 -83t-91 -56.5t-123 -21zM315 150q43 0 68 28.5t25 69.5q0 42 -25 70t-68 28q-42 0 -67.5 -28t-25.5 -70q0 -41 25.5 -69.5
t67.5 -28.5zM394 701q29 0 47.5 13.5t34.5 34.5l83 -100q-29 -40 -68.5 -58.5t-84.5 -18.5q-29 0 -52.5 7.5t-43 17t-37 17t-35.5 7.5q-29 0 -47 -13t-35 -35l-82 104q29 38 68 56t84 18q29 0 52.5 -8t43 -17t37 -17t35.5 -8z" />
    <glyph glyph-name="odieresis" unicode="&#xf6;" horiz-adv-x="631" 
d="M185 539q-23 0 -42.5 8.5t-34 23t-23 34t-8.5 40.5q0 22 8.5 41.5t23 34.5t34 23.5t42.5 8.5t43 -8.5t35 -23.5t23.5 -34.5t8.5 -41.5q0 -21 -8.5 -40.5t-23.5 -34t-35 -23t-43 -8.5zM329 645q0 22 8.5 41.5t23 34.5t34 23.5t42.5 8.5t43 -8.5t34.5 -23.5t23 -34.5
t8.5 -41.5q0 -21 -8.5 -40.5t-23 -34t-34.5 -23t-43 -8.5t-42.5 8.5t-34 23t-23 34t-8.5 40.5zM315 -14q-69 0 -123 21t-91 56.5t-56 83t-19 101.5t19 102t56 84t91 56.5t123 20.5t123 -20.5t91 -56.5t56.5 -84t19.5 -102t-19.5 -101.5t-56.5 -83t-91 -56.5t-123 -21z
M315 150q43 0 68 28.5t25 69.5q0 42 -25 70t-68 28q-42 0 -67.5 -28t-25.5 -70q0 -41 25.5 -69.5t67.5 -28.5z" />
    <glyph glyph-name="divide" unicode="&#xf7;" 
d="M98 194v148h451v-148h-451zM215 471q0 22 8 41t22.5 33.5t34 23t42.5 8.5t43 -8.5t34.5 -23t22.5 -33.5t8 -41t-8 -41.5t-22.5 -34t-34.5 -23t-43 -8.5t-42.5 8.5t-34 23t-22.5 34t-8 41.5zM215 68q0 22 8 41t22.5 33.5t34 23t42.5 8.5t43 -8.5t34.5 -23t22.5 -33.5
t8 -41t-8 -41.5t-22.5 -34t-34.5 -23t-43 -8.5t-42.5 8.5t-34 23t-22.5 34t-8 41.5z" />
    <glyph glyph-name="oslash" unicode="&#xf8;" horiz-adv-x="631" 
d="M451 485q75 -32 114.5 -95.5t39.5 -141.5q0 -54 -19.5 -101.5t-56.5 -83t-91 -56.5t-123 -21q-46 0 -83 9l-30 -67l-54 24l27 62q-73 33 -111 95.5t-38 138.5q0 54 19 102t56 84t91 56.5t123 20.5q41 0 79 -8l31 69l55 -24zM315 150q43 0 68 28.5t25 69.5q0 46 -30 74
l-76 -171q2 -1 6.5 -1h6.5zM222 248q0 -42 26 -71l75 169h-8q-42 0 -67.5 -28t-25.5 -70z" />
    <glyph glyph-name="ugrave" unicode="&#xf9;" horiz-adv-x="646" 
d="M588 0h-196v74q-20 -40 -62 -63t-102 -23q-43 0 -76.5 12.5t-53.5 34.5q-28 29 -37 70.5t-9 97.5v294h197v-252q0 -45 15 -69.5t53 -24.5q75 0 75 103v243h196v-497zM158 642l45 126l303 -119l-45 -126z" />
    <glyph glyph-name="uacute" unicode="&#xfa;" horiz-adv-x="646" 
d="M588 0h-196v74q-20 -40 -62 -63t-102 -23q-43 0 -76.5 12.5t-53.5 34.5q-28 29 -37 70.5t-9 97.5v294h197v-252q0 -45 15 -69.5t53 -24.5q75 0 75 103v243h196v-497zM201 523l-45 126l303 119l45 -126z" />
    <glyph glyph-name="ucircumflex" unicode="&#xfb;" horiz-adv-x="646" 
d="M588 0h-196v74q-20 -40 -62 -63t-102 -23q-43 0 -76.5 12.5t-53.5 34.5q-28 29 -37 70.5t-9 97.5v294h197v-252q0 -45 15 -69.5t53 -24.5q75 0 75 103v243h196v-497zM326 814l212 -174l-89 -96l-123 106l-123 -106l-89 96z" />
    <glyph glyph-name="udieresis" unicode="&#xfc;" horiz-adv-x="646" 
d="M588 0h-196v74q-20 -40 -62 -63t-102 -23q-43 0 -76.5 12.5t-53.5 34.5q-28 29 -37 70.5t-9 97.5v294h197v-252q0 -45 15 -69.5t53 -24.5q75 0 75 103v243h196v-497zM332 645q0 22 8.5 41.5t23 34.5t34 23.5t42.5 8.5t43 -8.5t34.5 -23.5t23 -34.5t8.5 -41.5
q0 -21 -8.5 -40.5t-23 -34t-34.5 -23t-43 -8.5t-42.5 8.5t-34 23t-23 34t-8.5 40.5zM80 645q0 22 8.5 41.5t23 34.5t34 23.5t42.5 8.5t43 -8.5t34.5 -23.5t23 -34.5t8.5 -41.5q0 -21 -8.5 -40.5t-23 -34t-34.5 -23t-43 -8.5t-42.5 8.5t-34 23t-23 34t-8.5 40.5z" />
    <glyph glyph-name="yacute" unicode="&#xfd;" horiz-adv-x="652" 
d="M322 -216q-70 0 -117.5 11t-82.5 39q-29 24 -49 59t-21 85h197q2 -31 21.5 -49t53.5 -18q38 0 57 19.5t19 67.5v90q-20 -39 -59.5 -61.5t-96.5 -22.5q-47 0 -82.5 15t-55.5 37q-28 29 -37 67.5t-9 94.5v279h197v-252q0 -45 15 -69.5t53 -24.5q75 0 75 103v243h196v-478
q0 -63 -21 -109.5t-54 -72.5q-18 -14 -37.5 -24t-43 -16.5t-52.5 -9.5t-66 -3zM195 523l-44 126l303 119l44 -126z" />
    <glyph glyph-name="thorn" unicode="&#xfe;" horiz-adv-x="664" 
d="M61 -203v903h196v-277q7 15 21.5 30.5t34.5 28t44.5 20t51.5 7.5q51 0 93.5 -19t73 -53t47.5 -82.5t17 -106.5q0 -59 -17 -107t-47.5 -82t-73 -53t-93.5 -19q-27 0 -51.5 8t-44.5 20.5t-34.5 28t-21.5 30.5v-277h-196zM351 150q41 0 66.5 29t25.5 69q0 41 -25.5 69.5
t-66.5 28.5q-42 0 -68 -28.5t-26 -69.5q0 -40 26 -69t68 -29z" />
    <glyph glyph-name="ydieresis" unicode="&#xff;" horiz-adv-x="652" 
d="M322 -216q-70 0 -117.5 11t-82.5 39q-29 24 -49 59t-21 85h197q2 -31 21.5 -49t53.5 -18q38 0 57 19.5t19 67.5v90q-20 -39 -59.5 -61.5t-96.5 -22.5q-47 0 -82.5 15t-55.5 37q-28 29 -37 67.5t-9 94.5v279h197v-252q0 -45 15 -69.5t53 -24.5q75 0 75 103v243h196v-478
q0 -63 -21 -109.5t-54 -72.5q-18 -14 -37.5 -24t-43 -16.5t-52.5 -9.5t-66 -3zM346 645q0 22 8 41.5t22.5 34t34 23t42.5 8.5t42.5 -8.5t34 -23t23 -34t8.5 -41.5q0 -21 -8.5 -40t-23 -33t-34 -22.5t-42.5 -8.5t-42.5 8.5t-34 22.5t-22.5 33t-8 40zM94 645q0 22 8.5 41.5
t22.5 34t33.5 23t42.5 8.5t42.5 -8.5t34 -23t23 -34t8.5 -41.5q0 -21 -8.5 -40t-23 -33t-34 -22.5t-42.5 -8.5t-42.5 8.5t-33.5 22.5t-22.5 33t-8.5 40z" />
    <glyph glyph-name="Amacron" unicode="&#x100;" horiz-adv-x="748" 
d="M744 0h-232l-24 81h-235l-24 -81h-225l258 700h218zM297 232h148l-74 258zM561 785h-378v132h378v-132z" />
    <glyph glyph-name="amacron" unicode="&#x101;" horiz-adv-x="668" 
d="M610 497v-497h-196v74q-7 -15 -21.5 -30.5t-34.5 -28t-44.5 -20.5t-51.5 -8q-51 0 -93.5 19t-73 53t-47.5 82t-17 107q0 58 17 106.5t47.5 82.5t73 53t93.5 19q27 0 51.5 -7.5t44.5 -20t34.5 -28t21.5 -30.5v74h196zM320 150q42 0 68 29t26 69q0 41 -26 69.5t-68 28.5
q-41 0 -66.5 -28.5t-25.5 -69.5q0 -40 25.5 -69t66.5 -29zM526 579h-378v133h378v-133z" />
    <glyph glyph-name="Abreve" unicode="&#x102;" horiz-adv-x="748" 
d="M744 0h-232l-24 81h-235l-24 -81h-225l258 700h218zM297 232h148l-74 258zM371 875q38 0 58 21t28 50h143q-6 -46 -26.5 -81t-51 -59t-69.5 -36t-82 -12q-44 0 -82.5 12t-69 36t-50.5 59t-27 81h144q7 -29 27 -50t58 -21z" />
    <glyph glyph-name="abreve" unicode="&#x103;" horiz-adv-x="668" 
d="M610 497v-497h-196v74q-7 -15 -21.5 -30.5t-34.5 -28t-44.5 -20.5t-51.5 -8q-51 0 -93.5 19t-73 53t-47.5 82t-17 107q0 58 17 106.5t47.5 82.5t73 53t93.5 19q27 0 51.5 -7.5t44.5 -20t34.5 -28t21.5 -30.5v74h196zM320 150q42 0 68 29t26 69q0 41 -26 69.5t-68 28.5
q-41 0 -66.5 -28.5t-25.5 -69.5q0 -40 25.5 -69t66.5 -29zM338 677q38 0 58 21t27 50h144q-7 -46 -27.5 -81t-51 -59t-69 -36t-81.5 -12q-44 0 -82.5 12t-69 36t-51 59t-26.5 81h143q8 -29 28 -50t58 -21z" />
    <glyph glyph-name="Aogonek" unicode="&#x104;" horiz-adv-x="748" 
d="M297 232h148l-74 258zM667 -197q-23 -8 -45.5 -11.5t-53.5 -3.5q-71 0 -103.5 28.5t-32.5 68.5q0 32 20 59.5t60 55.5l-24 81h-235l-24 -81h-225l258 700h218l264 -700h-119q-10 -7 -20 -14.5t-18 -16.5t-13 -20.5t-5 -26.5q0 -21 12 -37t34 -16q12 0 27 3t29 9z" />
    <glyph glyph-name="aogonek" unicode="&#x105;" horiz-adv-x="668" 
d="M610 0h-82q-21 -14 -40 -32.5t-19 -48.5q0 -20 11.5 -35t32.5 -15q12 0 27 3t29 9l-4 -78q-23 -8 -45.5 -11.5t-53.5 -3.5q-72 0 -105 28.5t-33 68.5q0 33 21.5 60.5t64.5 56.5v72q-7 -15 -21.5 -30.5t-34.5 -28t-44.5 -20.5t-51.5 -8q-51 0 -93.5 19t-73 53t-47.5 82
t-17 107q0 58 17 106.5t47.5 82.5t73 53t93.5 19q27 0 51.5 -7.5t44.5 -20t34.5 -28t21.5 -30.5v74h196v-497zM320 150q42 0 68 29t26 69q0 41 -26 69.5t-68 28.5q-41 0 -66.5 -28.5t-25.5 -69.5q0 -40 25.5 -69t66.5 -29z" />
    <glyph glyph-name="Cacute" unicode="&#x106;" horiz-adv-x="801" 
d="M777 276q-9 -60 -37 -114t-75 -94t-111 -63.5t-145 -23.5q-90 0 -161.5 30t-120.5 81t-75 118t-26 140t25.5 139.5t74.5 117.5t118.5 81.5t158.5 30.5q85 0 151 -24t112.5 -66t74 -98t34.5 -119h-218q-9 50 -46 84t-102 34q-42 0 -74 -15t-53 -39.5t-32 -57t-11 -68.5
q0 -38 12 -71t34.5 -57t54.5 -38t73 -14q58 0 96 31t48 75h220zM271 730l-45 127l303 119l45 -127z" />
    <glyph glyph-name="cacute" unicode="&#x107;" horiz-adv-x="617" 
d="M393 290q-5 26 -24.5 42.5t-55.5 16.5q-23 0 -40 -8.5t-28 -22.5t-16.5 -32t-5.5 -38t5.5 -38t16.5 -32t29 -22t42 -8q32 0 50 14t26 39h197q-5 -45 -25.5 -84.5t-55 -68.5t-84 -45.5t-112.5 -16.5q-70 0 -123.5 21t-89.5 57t-54 83.5t-18 100.5t18 101t54 84t89 57
t123 21q66 0 116 -18t84.5 -48t53.5 -70t24 -85h-196zM179 523l-45 126l303 119l45 -126z" />
    <glyph glyph-name="Ccircumflex" unicode="&#x108;" horiz-adv-x="801" 
d="M777 276q-9 -60 -37 -114t-75 -94t-111 -63.5t-145 -23.5q-90 0 -161.5 30t-120.5 81t-75 118t-26 140t25.5 139.5t74.5 117.5t118.5 81.5t158.5 30.5q85 0 151 -24t112.5 -66t74 -98t34.5 -119h-218q-9 50 -46 84t-102 34q-42 0 -74 -15t-53 -39.5t-32 -57t-11 -68.5
q0 -38 12 -71t34.5 -57t54.5 -38t73 -14q58 0 96 31t48 75h220zM405 1015l212 -174l-89 -96l-123 106l-123 -106l-89 96z" />
    <glyph glyph-name="ccircumflex" unicode="&#x109;" horiz-adv-x="617" 
d="M393 290q-5 26 -24.5 42.5t-55.5 16.5q-23 0 -40 -8.5t-28 -22.5t-16.5 -32t-5.5 -38t5.5 -38t16.5 -32t29 -22t42 -8q32 0 50 14t26 39h197q-5 -45 -25.5 -84.5t-55 -68.5t-84 -45.5t-112.5 -16.5q-70 0 -123.5 21t-89.5 57t-54 83.5t-18 100.5t18 101t54 84t89 57
t123 21q66 0 116 -18t84.5 -48t53.5 -70t24 -85h-196zM318 814l212 -174l-89 -96l-123 106l-122 -106l-90 96z" />
    <glyph glyph-name="Cdotaccent" unicode="&#x10a;" horiz-adv-x="801" 
d="M777 276q-9 -60 -37 -114t-75 -94t-111 -63.5t-145 -23.5q-90 0 -161.5 30t-120.5 81t-75 118t-26 140t25.5 139.5t74.5 117.5t118.5 81.5t158.5 30.5q85 0 151 -24t112.5 -66t74 -98t34.5 -119h-218q-9 50 -46 84t-102 34q-42 0 -74 -15t-53 -39.5t-32 -57t-11 -68.5
q0 -38 12 -71t34.5 -57t54.5 -38t73 -14q58 0 96 31t48 75h220zM295 856q0 22 8.5 41.5t23 34t34 23t42.5 8.5q48 0 79 -31t31 -76q0 -44 -31 -75t-79 -31q-23 0 -42.5 8.5t-34 23t-23 33.5t-8.5 41z" />
    <glyph glyph-name="cdotaccent" unicode="&#x10b;" horiz-adv-x="617" 
d="M393 290q-5 26 -24.5 42.5t-55.5 16.5q-23 0 -40 -8.5t-28 -22.5t-16.5 -32t-5.5 -38t5.5 -38t16.5 -32t29 -22t42 -8q32 0 50 14t26 39h197q-5 -45 -25.5 -84.5t-55 -68.5t-84 -45.5t-112.5 -16.5q-70 0 -123.5 21t-89.5 57t-54 83.5t-18 100.5t18 101t54 84t89 57
t123 21q66 0 116 -18t84.5 -48t53.5 -70t24 -85h-196zM202 644q0 22 8.5 41.5t23 34.5t34 23.5t42.5 8.5t43 -8.5t34.5 -23.5t23 -34.5t8.5 -41.5q0 -21 -8.5 -40.5t-23 -34t-34.5 -23t-43 -8.5t-42.5 8.5t-34 23t-23 34t-8.5 40.5z" />
    <glyph glyph-name="Ccaron" unicode="&#x10c;" horiz-adv-x="801" 
d="M777 276q-9 -60 -37 -114t-75 -94t-111 -63.5t-145 -23.5q-90 0 -161.5 30t-120.5 81t-75 118t-26 140t25.5 139.5t74.5 117.5t118.5 81.5t158.5 30.5q85 0 151 -24t112.5 -66t74 -98t34.5 -119h-218q-9 50 -46 84t-102 34q-42 0 -74 -15t-53 -39.5t-32 -57t-11 -68.5
q0 -38 12 -71t34.5 -57t54.5 -38t73 -14q58 0 96 31t48 75h220zM189 912l89 96l123 -109l123 110l89 -97l-213 -173z" />
    <glyph glyph-name="ccaron" unicode="&#x10d;" horiz-adv-x="617" 
d="M393 290q-5 26 -24.5 42.5t-55.5 16.5q-23 0 -40 -8.5t-28 -22.5t-16.5 -32t-5.5 -38t5.5 -38t16.5 -32t29 -22t42 -8q32 0 50 14t26 39h197q-5 -45 -25.5 -84.5t-55 -68.5t-84 -45.5t-112.5 -16.5q-70 0 -123.5 21t-89.5 57t-54 83.5t-18 100.5t18 101t54 84t89 57
t123 21q66 0 116 -18t84.5 -48t53.5 -70t24 -85h-196zM99 707l89 97l123 -109l123 109l89 -97l-212 -173z" />
    <glyph glyph-name="Dcaron" unicode="&#x10e;" horiz-adv-x="739" 
d="M347 700q87 0 155 -29t115 -77.5t71.5 -112t24.5 -131.5t-24.5 -131.5t-71 -112t-114.5 -77.5t-156 -29h-286v700h286zM269 524v-348h63q39 0 70.5 14.5t53 38.5t33 55.5t11.5 65.5t-11.5 65.5t-33 55.5t-53 38.5t-70.5 14.5h-63zM137 912l89 96l123 -109l123 110l89 -97
l-213 -173z" />
    <glyph glyph-name="dcaron" unicode="&#x10f;" horiz-adv-x="870" 
d="M320 150q42 0 68 29t26 69q0 41 -26 69.5t-68 28.5q-41 0 -66.5 -28.5t-25.5 -69.5q0 -40 25.5 -69t66.5 -29zM414 700h196v-700h-196v74q-7 -15 -21.5 -30.5t-34.5 -28t-44.5 -20.5t-51.5 -8q-51 0 -93.5 19t-73 53t-47.5 82t-17 107q0 58 17 106.5t47.5 82.5t73 53
t93.5 19q27 0 51.5 -7.5t44.5 -20t34.5 -28t21.5 -30.5v277zM642 624q0 24 9 44.5t24 36.5t35.5 25t43.5 9q58 0 93.5 -40t35.5 -106q0 -65 -16 -110t-46 -72.5t-74 -40.5t-100 -13v71q37 0 61.5 8t41.5 22q16 13 24 29.5t10 33.5q-2 -3 -10.5 -6t-19.5 -3q-52 0 -82 33
t-30 79z" />
    <glyph glyph-name="Dcroat" unicode="&#x110;" horiz-adv-x="739" 
d="M347 700q87 0 155 -29t115 -77.5t71.5 -112t24.5 -131.5t-24.5 -131.5t-71 -112t-114.5 -77.5t-156 -29h-286v299h-83v101h83v300h286zM356 299h-87v-123h63q39 0 70.5 14.5t53 38.5t33 55.5t11.5 65.5t-11.5 65.5t-33 55.5t-53 38.5t-70.5 14.5h-63v-124h87v-101z" />
    <glyph glyph-name="dcroat" unicode="&#x111;" horiz-adv-x="668" 
d="M659 537h-49v-537h-196v74q-7 -15 -21.5 -30.5t-34.5 -28t-44.5 -20.5t-51.5 -8q-51 0 -93.5 19t-73 53t-47.5 82t-17 107q0 58 17 106.5t47.5 82.5t73 53t93.5 19q27 0 51.5 -7.5t44.5 -20t34.5 -28t21.5 -30.5v114h-108v92h108v71h196v-71h49v-92zM320 150q42 0 68 29
t26 69q0 41 -26 69.5t-68 28.5q-41 0 -66.5 -28.5t-25.5 -69.5q0 -40 25.5 -69t66.5 -29z" />
    <glyph glyph-name="Emacron" unicode="&#x112;" horiz-adv-x="566" 
d="M269 544v-122h243v-149h-243v-117h243v-156h-451v700h451v-156h-243zM480 785h-378v132h378v-132z" />
    <glyph glyph-name="emacron" unicode="&#x113;" horiz-adv-x="623" 
d="M223 207q1 -18 5.5 -34.5t14.5 -29t27.5 -20.5t43.5 -8q33 0 53 14t26 36h190q-6 -38 -27 -71t-55 -57t-81 -37.5t-105 -13.5q-68 0 -121 18.5t-90.5 53t-57 82.5t-19.5 108q0 54 18 102t53.5 83.5t88.5 56.5t124 21q68 0 120 -19.5t87.5 -51.5t54 -73.5t18.5 -85.5
q0 -17 -1 -34.5t-5 -39.5h-362zM310 389q-38 0 -62.5 -22.5t-24.5 -64.5h172q0 41 -23 64t-62 23zM504 579h-378v133h378v-133z" />
    <glyph glyph-name="Ebreve" unicode="&#x114;" horiz-adv-x="566" 
d="M269 544v-122h243v-149h-243v-117h243v-156h-451v700h451v-156h-243zM288 875q38 0 58 21t28 50h143q-6 -46 -26.5 -81t-51 -59t-69.5 -36t-82 -12q-44 0 -82.5 12t-69 36t-50.5 59t-27 81h144q7 -29 27 -50t58 -21z" />
    <glyph glyph-name="ebreve" unicode="&#x115;" horiz-adv-x="623" 
d="M223 207q1 -18 5.5 -34.5t14.5 -29t27.5 -20.5t43.5 -8q33 0 53 14t26 36h190q-6 -38 -27 -71t-55 -57t-81 -37.5t-105 -13.5q-68 0 -121 18.5t-90.5 53t-57 82.5t-19.5 108q0 54 18 102t53.5 83.5t88.5 56.5t124 21q68 0 120 -19.5t87.5 -51.5t54 -73.5t18.5 -85.5
q0 -17 -1 -34.5t-5 -39.5h-362zM310 389q-38 0 -62.5 -22.5t-24.5 -64.5h172q0 41 -23 64t-62 23zM314 677q38 0 58 21t28 50h143q-7 -46 -27.5 -81t-51 -59t-69 -36t-81.5 -12q-44 0 -82.5 12t-69 36t-50.5 59t-27 81h143q8 -29 28 -50t58 -21z" />
    <glyph glyph-name="Edotaccent" unicode="&#x116;" horiz-adv-x="566" 
d="M269 544v-122h243v-149h-243v-117h243v-156h-451v700h451v-156h-243zM173 856q0 22 8.5 41.5t23 34t34 23t42.5 8.5q48 0 79 -31t31 -76q0 -44 -31 -75t-79 -31q-23 0 -42.5 8.5t-34 23t-23 33.5t-8.5 41z" />
    <glyph glyph-name="edotaccent" unicode="&#x117;" horiz-adv-x="623" 
d="M223 207q1 -18 5.5 -34.5t14.5 -29t27.5 -20.5t43.5 -8q33 0 53 14t26 36h190q-6 -38 -27 -71t-55 -57t-81 -37.5t-105 -13.5q-68 0 -121 18.5t-90.5 53t-57 82.5t-19.5 108q0 54 18 102t53.5 83.5t88.5 56.5t124 21q68 0 120 -19.5t87.5 -51.5t54 -73.5t18.5 -85.5
q0 -17 -1 -34.5t-5 -39.5h-362zM310 389q-38 0 -62.5 -22.5t-24.5 -64.5h172q0 41 -23 64t-62 23zM202 644q0 22 8.5 41.5t23 34.5t34 23.5t42.5 8.5q24 0 44 -8.5t34.5 -23.5t23 -34.5t8.5 -41.5q0 -21 -8.5 -40.5t-23 -34t-34.5 -23t-44 -8.5q-23 0 -42.5 8.5t-34 23
t-23 34t-8.5 40.5z" />
    <glyph glyph-name="Eogonek" unicode="&#x118;" horiz-adv-x="566" 
d="M61 0v700h451v-156h-243v-122h243v-149h-243v-117h243v-156h-48q-10 -7 -20 -14.5t-18 -16.5t-13 -20.5t-5 -26.5q0 -21 12 -37t34 -16q12 0 27 3t29 9l-4 -78q-23 -8 -45.5 -11.5t-53.5 -3.5q-71 0 -103.5 28.5t-32.5 68.5q0 32 19.5 59t59.5 56h-289z" />
    <glyph glyph-name="eogonek" unicode="&#x119;" horiz-adv-x="623" 
d="M424 -197q-23 -8 -45.5 -11.5t-53.5 -3.5q-72 0 -104.5 28.5t-32.5 68.5q0 29 16.5 54.5t49.5 51.5q-109 15 -168 84t-59 173q0 54 18 102t53.5 83.5t88.5 56.5t124 21q68 0 120 -19.5t87.5 -51.5t54 -73.5t18.5 -85.5q0 -17 -1 -34.5t-5 -39.5h-361q0 -18 4.5 -34.5
t15 -29t27.5 -20.5t43 -8q33 0 53 14t26 36h190q-12 -69 -67.5 -117t-149.5 -59q-17 -12 -28.5 -28t-11.5 -39q0 -21 12 -37t34 -16q12 0 27 3t29 9zM310 389q-38 0 -62.5 -22.5t-24.5 -64.5h172q0 41 -23 64t-62 23z" />
    <glyph glyph-name="Ecaron" unicode="&#x11a;" horiz-adv-x="566" 
d="M269 544v-122h243v-149h-243v-117h243v-156h-451v700h451v-156h-243zM70 912l90 96l122 -109l123 110l89 -97l-212 -173z" />
    <glyph glyph-name="ecaron" unicode="&#x11b;" horiz-adv-x="623" 
d="M223 207q1 -18 5.5 -34.5t14.5 -29t27.5 -20.5t43.5 -8q33 0 53 14t26 36h190q-6 -38 -27 -71t-55 -57t-81 -37.5t-105 -13.5q-68 0 -121 18.5t-90.5 53t-57 82.5t-19.5 108q0 54 18 102t53.5 83.5t88.5 56.5t124 21q68 0 120 -19.5t87.5 -51.5t54 -73.5t18.5 -85.5
q0 -17 -1 -34.5t-5 -39.5h-362zM310 389q-38 0 -62.5 -22.5t-24.5 -64.5h172q0 41 -23 64t-62 23zM104 707l89 97l123 -109l123 109l89 -97l-212 -173z" />
    <glyph glyph-name="Gcircumflex" unicode="&#x11c;" horiz-adv-x="831" 
d="M426 388h394v-137h-67q-10 -60 -37.5 -110t-71.5 -85.5t-105.5 -55t-138.5 -19.5q-90 0 -159.5 29.5t-117 79.5t-72 117.5t-24.5 142.5q0 72 25 138.5t73 118t117 82t157 30.5q76 0 138 -21t107 -57t71.5 -83.5t31.5 -100.5h-230q-3 15 -11.5 30t-23 27t-35 19.5
t-46.5 7.5q-41 0 -71.5 -16.5t-50.5 -43.5t-30 -62t-10 -72q0 -41 10.5 -76.5t32 -62t53.5 -41.5t75 -15q59 0 91.5 28.5t40.5 70.5h-116v137zM408 1015l212 -174l-89 -96l-123 106l-123 -106l-89 96z" />
    <glyph glyph-name="gcircumflex" unicode="&#x11d;" horiz-adv-x="666" 
d="M611 28q0 -71 -20.5 -117.5t-63.5 -75.5q-35 -25 -83.5 -38t-124.5 -13q-78 0 -125.5 13t-79.5 39q-34 26 -56 63t-23 79h197q2 -24 24 -44.5t63 -20.5q44 0 70 22t26 69v77q-18 -31 -57.5 -53t-92.5 -22q-51 0 -93.5 16t-73.5 47t-48 76t-17 103t16 106.5t45.5 82.5
t71.5 53t94 19t93.5 -22t61.5 -64v74h196v-469zM322 346q-42 0 -67.5 -28.5t-25.5 -69.5q0 -40 25.5 -69t67.5 -29t67.5 29t25.5 69q0 41 -25.5 69.5t-67.5 28.5zM334 814l212 -174l-89 -96l-123 106l-123 -106l-89 96z" />
    <glyph glyph-name="Gbreve" unicode="&#x11e;" horiz-adv-x="831" 
d="M426 388h394v-137h-67q-10 -60 -37.5 -110t-71.5 -85.5t-105.5 -55t-138.5 -19.5q-90 0 -159.5 29.5t-117 79.5t-72 117.5t-24.5 142.5q0 72 25 138.5t73 118t117 82t157 30.5q76 0 138 -21t107 -57t71.5 -83.5t31.5 -100.5h-230q-3 15 -11.5 30t-23 27t-35 19.5
t-46.5 7.5q-41 0 -71.5 -16.5t-50.5 -43.5t-30 -62t-10 -72q0 -41 10.5 -76.5t32 -62t53.5 -41.5t75 -15q59 0 91.5 28.5t40.5 70.5h-116v137zM409 875q38 0 58 21t27 50h144q-7 -46 -27.5 -81t-51 -59t-69 -36t-81.5 -12q-44 0 -82.5 12t-69 36t-51 59t-26.5 81h143
q8 -29 28 -50t58 -21z" />
    <glyph glyph-name="gbreve" unicode="&#x11f;" horiz-adv-x="666" 
d="M611 28q0 -71 -20.5 -117.5t-63.5 -75.5q-35 -25 -83.5 -38t-124.5 -13q-78 0 -125.5 13t-79.5 39q-34 26 -56 63t-23 79h197q2 -24 24 -44.5t63 -20.5q44 0 70 22t26 69v77q-18 -31 -57.5 -53t-92.5 -22q-51 0 -93.5 16t-73.5 47t-48 76t-17 103t16 106.5t45.5 82.5
t71.5 53t94 19t93.5 -22t61.5 -64v74h196v-469zM322 346q-42 0 -67.5 -28.5t-25.5 -69.5q0 -40 25.5 -69t67.5 -29t67.5 29t25.5 69q0 41 -25.5 69.5t-67.5 28.5zM338 677q38 0 58 21t27 50h144q-7 -46 -27.5 -81t-51 -59t-69 -36t-81.5 -12q-44 0 -82.5 12t-69 36t-51 59
t-26.5 81h143q8 -29 28 -50t58 -21z" />
    <glyph glyph-name="Gdotaccent" unicode="&#x120;" horiz-adv-x="831" 
d="M426 388h394v-137h-67q-10 -60 -37.5 -110t-71.5 -85.5t-105.5 -55t-138.5 -19.5q-90 0 -159.5 29.5t-117 79.5t-72 117.5t-24.5 142.5q0 72 25 138.5t73 118t117 82t157 30.5q76 0 138 -21t107 -57t71.5 -83.5t31.5 -100.5h-230q-3 15 -11.5 30t-23 27t-35 19.5
t-46.5 7.5q-41 0 -71.5 -16.5t-50.5 -43.5t-30 -62t-10 -72q0 -41 10.5 -76.5t32 -62t53.5 -41.5t75 -15q59 0 91.5 28.5t40.5 70.5h-116v137zM291 856q0 22 8.5 41.5t23 34t34 23t42.5 8.5q48 0 79 -31t31 -76q0 -44 -31 -75t-79 -31q-23 0 -42.5 8.5t-34 23t-23 33.5
t-8.5 41z" />
    <glyph glyph-name="gdotaccent" unicode="&#x121;" horiz-adv-x="666" 
d="M611 28q0 -71 -20.5 -117.5t-63.5 -75.5q-35 -25 -83.5 -38t-124.5 -13q-78 0 -125.5 13t-79.5 39q-34 26 -56 63t-23 79h197q2 -24 24 -44.5t63 -20.5q44 0 70 22t26 69v77q-18 -31 -57.5 -53t-92.5 -22q-51 0 -93.5 16t-73.5 47t-48 76t-17 103t16 106.5t45.5 82.5
t71.5 53t94 19t93.5 -22t61.5 -64v74h196v-469zM322 346q-42 0 -67.5 -28.5t-25.5 -69.5q0 -40 25.5 -69t67.5 -29t67.5 29t25.5 69q0 41 -25.5 69.5t-67.5 28.5zM210 644q0 22 8.5 41.5t23 34t34 23t42.5 8.5t43 -8.5t34.5 -23t23 -34t8.5 -41.5t-8.5 -41t-23 -33.5
t-34.5 -23t-43 -8.5t-42.5 8.5t-34 23t-23 33.5t-8.5 41z" />
    <glyph glyph-name="Gcommaaccent" unicode="&#x122;" horiz-adv-x="831" 
d="M426 388h394v-137h-67q-10 -60 -37.5 -110t-71.5 -85.5t-105.5 -55t-138.5 -19.5q-90 0 -159.5 29.5t-117 79.5t-72 117.5t-24.5 142.5q0 72 25 138.5t73 118t117 82t157 30.5q76 0 138 -21t107 -57t71.5 -83.5t31.5 -100.5h-230q-3 15 -11.5 30t-23 27t-35 19.5
t-46.5 7.5q-41 0 -71.5 -16.5t-50.5 -43.5t-30 -62t-10 -72q0 -41 10.5 -76.5t32 -62t53.5 -41.5t75 -15q59 0 91.5 28.5t40.5 70.5h-116v137zM317 -114q0 38 25.5 63.5t61.5 25.5q45 0 72.5 -31t27.5 -82q0 -50 -12.5 -84.5t-36 -56t-57.5 -31.5t-77 -10v55q53 0 80 22
q12 11 18 23.5t8 26.5q-2 -3 -8.5 -5.5t-14.5 -2.5q-41 0 -64 26t-23 61z" />
    <glyph glyph-name="gcommaaccent" unicode="&#x123;" horiz-adv-x="666" 
d="M322 346q-42 0 -67.5 -28.5t-25.5 -69.5q0 -40 25.5 -69t67.5 -29t67.5 29t25.5 69q0 41 -25.5 69.5t-67.5 28.5zM611 28q0 -71 -20.5 -117.5t-63.5 -75.5q-35 -25 -83.5 -38t-124.5 -13q-78 0 -125.5 13t-79.5 39q-34 26 -56 63t-23 79h197q2 -24 24 -44.5t63 -20.5
q44 0 70 22t26 69v77q-18 -31 -57.5 -53t-92.5 -22q-51 0 -93.5 16t-73.5 47t-48 76t-17 103t16 106.5t45.5 82.5t71.5 53t94 19t93.5 -22t61.5 -64v74h196v-469zM419 639q0 -22 -8 -41t-21.5 -33t-32 -22t-39.5 -8q-52 0 -84 36t-32 95q0 58 14.5 98.5t42 66t67 37
t89.5 11.5v-64q-33 0 -55.5 -7.5t-37.5 -19.5q-14 -11 -21.5 -26.5t-9.5 -30.5q2 2 10 5t17 3q48 0 74.5 -29t26.5 -71z" />
    <glyph glyph-name="Hcircumflex" unicode="&#x124;" horiz-adv-x="734" 
d="M464 261h-195v-261h-208v700h208v-266h195v266h209v-700h-209v261zM367 1015l213 -174l-89 -96l-123 106l-123 -106l-89 96z" />
    <glyph glyph-name="hcircumflex" unicode="&#x125;" horiz-adv-x="626" 
d="M58 700h186v-276q20 37 60 61t99 24q84 0 124 -45q28 -29 37 -72.5t9 -99.5v-292h-186v252q0 45 -15 69.5t-53 24.5q-75 0 -75 -103v-243h-186v700zM313 997l212 -174l-89 -96l-123 106l-122 -106l-90 96z" />
    <glyph glyph-name="Hbar" unicode="&#x126;" horiz-adv-x="734" 
d="M464 515h-195v-81h195v81zM269 700v-89h195v89h209v-700h-209v261h-195v-261h-208v700h208z" />
    <glyph glyph-name="hbar" unicode="&#x127;" horiz-adv-x="626" 
d="M372 537h-128v-113q20 37 60 61t99 24q84 0 124 -45q28 -29 37 -72.5t9 -99.5v-292h-186v252q0 45 -15 69.5t-53 24.5q-75 0 -75 -103v-243h-186v537h-60v92h60v71h186v-71h128v-92z" />
    <glyph glyph-name="Itilde" unicode="&#x128;" horiz-adv-x="332" 
d="M61 700h210v-700h-210v700zM242 890q29 0 47.5 13t35.5 35l83 -101q-29 -39 -69 -58t-85 -19q-29 0 -52.5 7.5t-43 17t-37 17t-35.5 7.5q-29 0 -47 -13t-34 -35l-82 104q29 38 68 56t84 18q29 0 52.5 -7.5t43 -17t36.5 -17t35 -7.5z" />
    <glyph glyph-name="itilde" unicode="&#x129;" horiz-adv-x="312" 
d="M58 497h196v-497h-196v497zM229 701q29 0 47.5 13.5t34.5 34.5l84 -100q-29 -40 -69 -58.5t-85 -18.5q-29 0 -52.5 7.5t-43 17t-37 17t-35.5 7.5q-29 0 -47 -13t-35 -35l-82 104q29 38 68.5 56t84.5 18q29 0 52.5 -8t43 -17t36.5 -17t35 -8z" />
    <glyph glyph-name="Imacron" unicode="&#x12a;" horiz-adv-x="332" 
d="M61 700h210v-700h-210v700zM355 785h-378v132h378v-132z" />
    <glyph glyph-name="imacron" unicode="&#x12b;" horiz-adv-x="312" 
d="M58 497h196v-497h-196v497zM345 579h-378v132h378v-132z" />
    <glyph glyph-name="Ibreve" unicode="&#x12c;" horiz-adv-x="332" 
d="M61 700h210v-700h-210v700zM166 875q38 0 58 21t28 50h143q-6 -46 -26.5 -81t-51 -59t-69.5 -36t-82 -12q-44 0 -82.5 12t-69 36t-50.5 59t-27 81h144q7 -29 27 -50t58 -21z" />
    <glyph glyph-name="ibreve" unicode="&#x12d;" horiz-adv-x="312" 
d="M58 497h196v-497h-196v497zM156 677q38 0 58 21t28 50h143q-6 -46 -26.5 -81t-51 -59t-69.5 -36t-82 -12q-44 0 -82.5 12t-69 36t-50.5 59t-27 81h144q7 -29 27 -50t58 -21z" />
    <glyph glyph-name="Iogonek" unicode="&#x12e;" horiz-adv-x="332" 
d="M271 0h-40q-10 -7 -20 -14.5t-18 -16.5t-13 -20.5t-5 -26.5q0 -21 12 -37t34 -16q12 0 27 3t29 9l-4 -78q-23 -8 -45.5 -11.5t-53.5 -3.5q-72 0 -104.5 28.5t-32.5 68.5q0 32 19.5 59t59.5 56h-55v700h210v-700z" />
    <glyph glyph-name="iogonek" unicode="&#x12f;" horiz-adv-x="312" 
d="M258 -197q-23 -8 -45.5 -11.5t-53.5 -3.5q-71 0 -103.5 28.5t-32.5 68.5q0 32 19.5 59t59.5 56h-44v497h196v-497h-38q-10 -7 -20 -14.5t-18 -16.5t-13 -20.5t-5 -26.5q0 -21 12 -37t34 -16q12 0 27 3t29 9zM40 647q0 24 9 44.5t24.5 36.5t36.5 25t45 9q25 0 46 -9
t36.5 -25t24.5 -36.5t9 -44.5q0 -23 -9 -43.5t-24.5 -36t-36.5 -24.5t-46 -9q-24 0 -45 9t-36.5 24.5t-24.5 36t-9 43.5z" />
    <glyph glyph-name="Idotaccent" unicode="&#x130;" horiz-adv-x="332" 
d="M61 700h210v-700h-210v700zM57 857q0 22 8.5 41.5t23 34.5t34 23.5t42.5 8.5t43 -8.5t34.5 -23.5t23 -34.5t8.5 -41.5q0 -21 -8.5 -40.5t-23 -34t-34.5 -23t-43 -8.5t-42.5 8.5t-34 23t-23 34t-8.5 40.5z" />
    <glyph glyph-name="dotlessi" unicode="&#x131;" horiz-adv-x="278" 
d="M41 497h196v-497h-196v497z" />
    <glyph glyph-name="Jcircumflex" unicode="&#x134;" horiz-adv-x="629" 
d="M579 254q0 -73 -20 -124.5t-57 -84t-89.5 -47.5t-117.5 -15q-73 0 -126 21t-88 57.5t-52 86t-17 107.5h208q0 -42 18.5 -70t56.5 -28q35 0 55 24.5t20 72.5v446h209v-446zM475 1015l212 -174l-89 -96l-123 106l-123 -106l-89 96z" />
    <glyph glyph-name="jcircumflex" unicode="&#x135;" horiz-adv-x="312" 
d="M254 -40q0 -55 -12 -89.5t-33.5 -53.5t-51 -26t-64.5 -7q-16 0 -34 1t-34.5 3t-30.5 4.5t-23 5.5v136q13 -2 21.5 -3t19.5 -1q23 0 34.5 11t11.5 37v519h196v-537zM154 814l212 -174l-89 -96l-123 106l-123 -106l-89 96z" />
    <glyph glyph-name="Kcommaaccent" unicode="&#x136;" horiz-adv-x="710" 
d="M463 0l-194 285v-285h-208v700h208v-286l194 286h244l-257 -350l257 -350h-244zM264 -105q0 38 25.5 63.5t61.5 25.5q45 0 72.5 -31t27.5 -82q0 -50 -12.5 -84.5t-36 -56t-57.5 -31.5t-77 -10v55q29 0 48 5.5t32 16.5t19 23.5t7 26.5q-2 -3 -8.5 -5.5t-14.5 -2.5
q-40 0 -63.5 26t-23.5 61z" />
    <glyph glyph-name="kcommaaccent" unicode="&#x137;" horiz-adv-x="610" 
d="M608 497l-180 -249l180 -248h-229l-125 199v-199h-196v700h196v-403l126 200h228zM211 -105q0 38 25.5 63.5t62.5 25.5q45 0 72 -31t27 -82q0 -50 -12.5 -84.5t-36 -56t-57 -31.5t-76.5 -10v55q28 0 47 5.5t32 16.5t19 23.5t8 26.5q-2 -3 -9 -5.5t-14 -2.5
q-41 0 -64.5 26t-23.5 61z" />
    <glyph glyph-name="kgreenlandic" unicode="&#x138;" horiz-adv-x="610" 
d="M428 248l180 -248h-229l-125 199v-199h-196v497h196v-200l126 200h228z" />
    <glyph glyph-name="Lacute" unicode="&#x139;" horiz-adv-x="477" 
d="M452 178v-178h-391v700h208v-522h183zM36 731l-45 126l303 119l45 -126z" />
    <glyph glyph-name="lacute" unicode="&#x13a;" horiz-adv-x="312" 
d="M58 700h196v-700h-196v700zM27 744l-45 126l303 119l45 -126z" />
    <glyph glyph-name="Lcommaaccent" unicode="&#x13b;" horiz-adv-x="477" 
d="M61 700h208v-522h183v-178h-391v700zM145 -105q0 38 25.5 63.5t61.5 25.5q45 0 72.5 -31t27.5 -82q0 -50 -12.5 -84.5t-36 -56t-57.5 -31.5t-77 -10v55q53 0 80 22q12 11 18 23.5t8 26.5q-2 -3 -8.5 -5.5t-14.5 -2.5q-41 0 -64 26t-23 61z" />
    <glyph glyph-name="lcommaaccent" unicode="&#x13c;" horiz-adv-x="312" 
d="M58 700h196v-700h-196v700zM62 -105q0 38 25.5 63.5t62.5 25.5q45 0 72 -31t27 -82q0 -50 -12.5 -84.5t-36 -56t-57 -31.5t-76.5 -10v55q28 0 47 5.5t32 16.5t19 23.5t8 26.5q-2 -3 -9 -5.5t-14 -2.5q-41 0 -64.5 26t-23.5 61z" />
    <glyph glyph-name="Lcaron" unicode="&#x13d;" horiz-adv-x="477" 
d="M452 178v-178h-391v700h208v-522h183zM335 625q0 24 9 44.5t24 36.5t35.5 25t44.5 9q28 0 52 -10.5t40.5 -30t26 -46t9.5 -59.5q0 -65 -16 -110t-46 -72.5t-74 -40.5t-99 -13v71q36 0 61 8t41 22q17 13 25 29.5t10 33.5q-3 -3 -11.5 -6t-18.5 -3q-52 0 -82.5 33t-30.5 79
z" />
    <glyph glyph-name="lcaron" unicode="&#x13e;" horiz-adv-x="580" 
d="M58 700h196v-700h-196v700zM319 625q0 24 9 44.5t24 36.5t35.5 25t44.5 9q28 0 52 -10.5t40.5 -30t26 -46t9.5 -59.5q0 -65 -16 -110t-46 -72.5t-74 -40.5t-99 -13v71q36 0 61 8t41 22q17 13 25 29.5t10 33.5q-3 -3 -11.5 -6t-18.5 -3q-52 0 -82.5 33t-30.5 79z" />
    <glyph glyph-name="Ldot" unicode="&#x13f;" horiz-adv-x="526" 
d="M452 178v-178h-391v700h208v-522h183zM321 423q0 25 9.5 46.5t26 38t38.5 26t48 9.5t48 -9.5t38.5 -26t26 -38t9.5 -46.5t-9.5 -46.5t-26 -38t-38.5 -26t-48 -9.5t-48 9.5t-38.5 26t-26 38t-9.5 46.5z" />
    <glyph glyph-name="ldot" unicode="&#x140;" horiz-adv-x="517" 
d="M58 700h196v-700h-196v700zM286 340q0 25 9 46.5t25.5 38t38.5 26t48 9.5t48.5 -9.5t39 -26t25.5 -38t9 -46.5t-9 -46.5t-25.5 -38t-39 -26t-48.5 -9.5t-48 9.5t-38.5 26t-25.5 38t-9 46.5z" />
    <glyph glyph-name="Lslash" unicode="&#x141;" horiz-adv-x="483" 
d="M458 178v-178h-391v258l-40 -21v102l40 21v340h208v-237l108 54v-102l-108 -54v-183h183z" />
    <glyph glyph-name="lslash" unicode="&#x142;" horiz-adv-x="326" 
d="M58 269l-59 -31v105l59 31v326h210v-234l63 32v-106l-63 -33v-359h-210v269z" />
    <glyph glyph-name="Nacute" unicode="&#x143;" horiz-adv-x="771" 
d="M501 285v415h209v-700h-212l-229 401v-401h-208v700h212zM256 731l-45 126l303 119l45 -126z" />
    <glyph glyph-name="nacute" unicode="&#x144;" horiz-adv-x="646" 
d="M58 497h196v-73q20 39 62 62t102 23q43 0 76.5 -12.5t53.5 -34.5q28 -29 36.5 -70.5t8.5 -97.5v-294h-196v252q0 45 -15 69.5t-53 24.5q-75 0 -75 -103v-243h-196v497zM193 523l-44 126l303 119l44 -126z" />
    <glyph glyph-name="Ncommaaccent" unicode="&#x145;" horiz-adv-x="771" 
d="M498 0l-229 401v-401h-208v700h212l228 -415v415h209v-700h-212zM292 -105q0 38 25.5 63.5t61.5 25.5q45 0 72.5 -31t27.5 -82q0 -50 -12.5 -84.5t-36 -56t-57.5 -31.5t-77 -10v55q53 0 80 22q12 11 18 23.5t8 26.5q-2 -3 -8.5 -5.5t-14.5 -2.5q-41 0 -64 26t-23 61z" />
    <glyph glyph-name="ncommaaccent" unicode="&#x146;" horiz-adv-x="646" 
d="M58 0v497h196v-73q20 39 62 62t102 23q43 0 76.5 -12.5t53.5 -34.5q28 -29 36.5 -70.5t8.5 -97.5v-294h-196v252q0 45 -15 69.5t-53 24.5q-75 0 -75 -103v-243h-196zM234 -105q0 38 25.5 63.5t62.5 25.5q45 0 72 -31t27 -82q0 -50 -12.5 -84.5t-36 -56t-57 -31.5
t-76.5 -10v55q28 0 47 5.5t32 16.5t19 23.5t8 26.5q-2 -3 -9 -5.5t-14 -2.5q-41 0 -64.5 26t-23.5 61z" />
    <glyph glyph-name="Ncaron" unicode="&#x147;" horiz-adv-x="771" 
d="M501 285v415h209v-700h-212l-229 401v-401h-208v700h212zM178 912l90 96l122 -109l123 110l89 -97l-212 -173z" />
    <glyph glyph-name="ncaron" unicode="&#x148;" horiz-adv-x="646" 
d="M58 0v497h196v-73q20 39 62 62t102 23q43 0 76.5 -12.5t53.5 -34.5q28 -29 36.5 -70.5t8.5 -97.5v-294h-196v252q0 45 -15 69.5t-53 24.5q-75 0 -75 -103v-243h-196zM115 707l89 97l123 -109l123 109l89 -97l-212 -173z" />
    <glyph glyph-name="napostrophe" unicode="&#x149;" horiz-adv-x="646" 
d="M58 0v497h196v-73q20 39 62 62t102 23q43 0 76.5 -12.5t53.5 -34.5q28 -29 36.5 -70.5t8.5 -97.5v-294h-196v252q0 45 -15 69.5t-53 24.5q-75 0 -75 -103v-243h-196zM-117 763q0 21 7.5 39t21 31.5t31.5 21t38 7.5q50 0 80.5 -35t30.5 -90q0 -56 -14 -95t-40 -63t-64 -35
t-86 -11v61q32 0 53.5 7t35.5 18t21 25.5t9 29.5q-2 -3 -10 -5.5t-16 -2.5q-45 0 -71.5 28.5t-26.5 68.5z" />
    <glyph glyph-name="Eng" unicode="&#x14a;" horiz-adv-x="771" 
d="M501 285v415h209v-674q0 -74 -20 -125.5t-57 -84t-89.5 -47.5t-117.5 -15q-52 0 -95.5 19t-76.5 54l112 129q18 -13 30.5 -20t29.5 -7q32 0 50.5 19.5t22.5 55.5l-230 397v-401h-208v700h208z" />
    <glyph glyph-name="eng" unicode="&#x14b;" horiz-adv-x="646" 
d="M296 -51q10 -8 20 -12.5t23 -4.5q29 0 43 19.5t15 51.5v249q0 45 -15 69.5t-53 24.5q-75 0 -75 -103v-243h-196v497h196v-73q20 39 62 62t102 23q43 0 76.5 -12.5t53.5 -34.5q28 -29 36.5 -70.5t8.5 -97.5v-303q0 -58 -14 -97.5t-40 -64t-63 -35t-83 -10.5
q-44 0 -80.5 11t-63.5 31z" />
    <glyph glyph-name="Omacron" unicode="&#x14c;" horiz-adv-x="811" 
d="M405 -19q-90 0 -160.5 30.5t-119 81.5t-74 118t-25.5 139t25.5 139t74 118t119 81.5t160.5 30.5t161 -30.5t119.5 -81.5t74 -118t25.5 -139t-25.5 -139t-74 -118t-119.5 -81.5t-161 -30.5zM405 171q40 0 71.5 15t53 39.5t33 57t11.5 67.5t-11.5 67.5t-33 57t-53 39.5
t-71.5 15t-71.5 -15t-53 -39.5t-33 -57t-11.5 -67.5t11.5 -67.5t33 -57t53 -39.5t71.5 -15zM594 785h-378v132h378v-132z" />
    <glyph glyph-name="omacron" unicode="&#x14d;" horiz-adv-x="631" 
d="M315 -14q-69 0 -123 21t-91 56.5t-56 83t-19 101.5t19 102t56 84t91 56.5t123 20.5t123 -20.5t91 -56.5t56.5 -84t19.5 -102t-19.5 -101.5t-56.5 -83t-91 -56.5t-123 -21zM315 150q43 0 68 28.5t25 69.5q0 42 -25 70t-68 28q-42 0 -67.5 -28t-25.5 -70q0 -41 25.5 -69.5
t67.5 -28.5zM504 579h-378v132h378v-132z" />
    <glyph glyph-name="Obreve" unicode="&#x14e;" horiz-adv-x="811" 
d="M405 -19q-90 0 -160.5 30.5t-119 81.5t-74 118t-25.5 139t25.5 139t74 118t119 81.5t160.5 30.5t161 -30.5t119.5 -81.5t74 -118t25.5 -139t-25.5 -139t-74 -118t-119.5 -81.5t-161 -30.5zM405 171q40 0 71.5 15t53 39.5t33 57t11.5 67.5t-11.5 67.5t-33 57t-53 39.5
t-71.5 15t-71.5 -15t-53 -39.5t-33 -57t-11.5 -67.5t11.5 -67.5t33 -57t53 -39.5t71.5 -15zM405 875q38 0 58 21t28 50h143q-6 -46 -26.5 -81t-51 -59t-69.5 -36t-82 -12q-44 0 -82.5 12t-69 36t-50.5 59t-27 81h144q7 -29 27 -50t58 -21z" />
    <glyph glyph-name="obreve" unicode="&#x14f;" horiz-adv-x="631" 
d="M315 -14q-69 0 -123 21t-91 56.5t-56 83t-19 101.5t19 102t56 84t91 56.5t123 20.5t123 -20.5t91 -56.5t56.5 -84t19.5 -102t-19.5 -101.5t-56.5 -83t-91 -56.5t-123 -21zM315 150q43 0 68 28.5t25 69.5q0 42 -25 70t-68 28q-42 0 -67.5 -28t-25.5 -70q0 -41 25.5 -69.5
t67.5 -28.5zM315 677q38 0 58 21t28 50h143q-7 -46 -27.5 -81t-51 -59t-69 -36t-81.5 -12q-44 0 -82.5 12t-69 36t-50.5 59t-27 81h143q8 -29 28 -50t58 -21z" />
    <glyph glyph-name="Ohungarumlaut" unicode="&#x150;" horiz-adv-x="811" 
d="M405 -19q-90 0 -160.5 30.5t-119 81.5t-74 118t-25.5 139t25.5 139t74 118t119 81.5t160.5 30.5t161 -30.5t119.5 -81.5t74 -118t25.5 -139t-25.5 -139t-74 -118t-119.5 -81.5t-161 -30.5zM405 171q40 0 71.5 15t53 39.5t33 57t11.5 67.5t-11.5 67.5t-33 57t-53 39.5
t-71.5 15t-71.5 -15t-53 -39.5t-33 -57t-11.5 -67.5t11.5 -67.5t33 -57t53 -39.5t71.5 -15zM516 987l116 -74l-169 -146l-72 28zM196 795l125 192l116 -74l-169 -146z" />
    <glyph glyph-name="ohungarumlaut" unicode="&#x151;" horiz-adv-x="631" 
d="M315 -14q-69 0 -123 21t-91 56.5t-56 83t-19 101.5t19 102t56 84t91 56.5t123 20.5t123 -20.5t91 -56.5t56.5 -84t19.5 -102t-19.5 -101.5t-56.5 -83t-91 -56.5t-123 -21zM315 150q43 0 68 28.5t25 69.5q0 42 -25 70t-68 28q-42 0 -67.5 -28t-25.5 -70q0 -41 25.5 -69.5
t67.5 -28.5zM256 774l116 -75l-169 -146l-72 28zM398 553l-72 28l125 193l116 -75z" />
    <glyph glyph-name="OE" unicode="&#x152;" horiz-adv-x="1079" 
d="M783 544v-122h242v-149h-242v-117h242v-156h-449v24q-35 -21 -78 -32.5t-93 -11.5q-90 0 -160.5 30.5t-119 81.5t-74 118t-25.5 139q0 73 25.5 139.5t74 117.5t119 81.5t160.5 30.5q50 0 93 -11.5t78 -31.5v25h449v-156h-242zM405 170q40 0 71.5 15t53 39.5t33 57
t11.5 67.5t-11.5 67.5t-33 57.5t-53 40t-71.5 15t-71.5 -15t-53 -40t-33 -57.5t-11.5 -67.5t11.5 -67.5t33 -57t53 -39.5t71.5 -15z" />
    <glyph glyph-name="oe" unicode="&#x153;" horiz-adv-x="1005" 
d="M606 207q0 -18 4.5 -34.5t14.5 -29t27 -20.5t43 -8q33 0 53 14t26 36h190q-6 -38 -27 -71t-54.5 -57t-80.5 -37.5t-105 -13.5q-61 0 -109 15.5t-83 44.5q-35 -28 -83 -44t-107 -16q-69 0 -123 21t-91 56.5t-56 83t-19 101.5t19 102t56 84t91 56.5t123 20.5
q60 0 107.5 -15.5t82.5 -44.5q34 28 80.5 44t106.5 16q68 0 120 -19.5t87.5 -51.5t54 -73.5t18.5 -85.5q0 -17 -0.5 -34.5t-4.5 -39.5h-361zM692 386q-38 0 -62 -22t-24 -62h171q0 39 -23.5 61.5t-61.5 22.5zM315 150q42 0 67.5 28t25.5 70q0 43 -25.5 70.5t-67.5 27.5
t-67.5 -28t-25.5 -70q0 -41 25.5 -69.5t67.5 -28.5z" />
    <glyph glyph-name="Racute" unicode="&#x154;" horiz-adv-x="698" 
d="M61 700h336q60 0 108.5 -21t83 -56.5t53 -83t18.5 -100.5q0 -72 -34 -132t-94 -94l140 -213h-245l-119 179h-39v-179h-208v700zM355 340q42 0 67.5 29t25.5 70t-25 70t-67 29h-87v-198h86zM220 731l-45 126l303 119l45 -126z" />
    <glyph glyph-name="racute" unicode="&#x155;" horiz-adv-x="457" 
d="M454 321q-20 5 -33.5 7t-33.5 2q-28 0 -52.5 -7.5t-42.5 -25t-28 -47.5t-10 -75v-175h-196v497h196v-79q8 17 22.5 33t33.5 28.5t42.5 20t50.5 7.5q17 0 28 -1.5t23 -5.5v-179zM99 530l-45 126l303 119l45 -126z" />
    <glyph glyph-name="Rcommaaccent" unicode="&#x156;" horiz-adv-x="698" 
d="M61 700h336q60 0 108.5 -21t83 -56.5t53 -83t18.5 -100.5q0 -72 -34 -132t-94 -94l140 -213h-245l-119 179h-39v-179h-208v700zM255 -105q0 38 25.5 63.5t62.5 25.5q45 0 72 -31t27 -82q0 -50 -12.5 -84.5t-36 -56t-57 -31.5t-76.5 -10v55q28 0 47 6t31.5 16.5t19 23
t8.5 26.5q-2 -2 -9 -5t-14 -3q-41 0 -64.5 26t-23.5 61zM269 538v-198h86q42 0 67.5 29t25.5 70t-25 70t-67 29h-87z" />
    <glyph glyph-name="rcommaaccent" unicode="&#x157;" horiz-adv-x="457" 
d="M454 321q-20 5 -33.5 7t-33.5 2q-28 0 -52.5 -7.5t-42.5 -25t-28 -47.5t-10 -75v-175h-196v497h196v-79q8 17 22.5 33t33.5 28.5t42.5 20t50.5 7.5q17 0 28 -1.5t23 -5.5v-179zM62 -104q0 37 25.5 63t62.5 26q45 0 72 -31.5t27 -81.5t-12.5 -85t-36 -56.5t-57 -31.5
t-76.5 -10v55q28 0 47 6t32 17q13 10 19 23t8 26q-2 -2 -9 -4.5t-14 -2.5q-41 0 -64.5 25.5t-23.5 61.5z" />
    <glyph glyph-name="Rcaron" unicode="&#x158;" horiz-adv-x="698" 
d="M61 700h336q60 0 108.5 -21t83 -56.5t53 -83t18.5 -100.5q0 -72 -34 -132t-94 -94l140 -213h-245l-119 179h-39v-179h-208v700zM355 340q42 0 67.5 29t25.5 70t-25 70t-67 29h-87v-198h86zM114 912l90 96l122 -109l123 110l89 -97l-212 -173z" />
    <glyph glyph-name="rcaron" unicode="&#x159;" horiz-adv-x="457" 
d="M454 321q-20 5 -33.5 7t-33.5 2q-28 0 -52.5 -7.5t-42.5 -25t-28 -47.5t-10 -75v-175h-196v497h196v-79q8 17 22.5 33t33.5 28.5t42.5 20t50.5 7.5q17 0 28 -1.5t23 -5.5v-179zM39 707l89 97l123 -109l123 109l89 -97l-212 -173z" />
    <glyph glyph-name="Sacute" unicode="&#x15a;" horiz-adv-x="644" 
d="M242 236q0 -48 24 -73.5t64 -25.5q32 0 50.5 16t18.5 44q0 29 -25.5 45.5t-80.5 38.5q-48 19 -92.5 38t-78 45t-53.5 62t-20 90t23.5 92.5t62.5 63t88.5 36t102.5 11.5q77 0 129 -20t84 -52.5t46 -73.5t14 -82h-208q0 87 -69 87q-26 0 -45 -13t-19 -42q0 -27 24 -45
t72 -35q45 -16 90.5 -34t82 -44t59 -63.5t22.5 -91.5t-20 -97t-57 -72t-90 -44.5t-119 -15.5t-119 17t-90.5 49t-58 79.5t-20.5 109.5h208zM191 731l-44 126l303 119l44 -126z" />
    <glyph glyph-name="sacute" unicode="&#x15b;" horiz-adv-x="566" 
d="M352 305q39 -9 72.5 -19.5t57.5 -27t38 -41.5t14 -64q0 -49 -19.5 -81t-53.5 -51t-79.5 -27t-96.5 -8q-132 0 -194 48t-62 132h196q0 -31 17 -45.5t47 -14.5q23 0 36.5 9.5t13.5 26.5q0 11 -6 18.5t-19.5 13.5t-35 12.5t-53.5 15.5q-36 9 -69.5 18.5t-59.5 26t-41.5 41.5
t-15.5 65q0 85 63 121.5t187 36.5q67 0 113 -13t73.5 -35.5t39.5 -52.5t12 -65h-195q0 27 -14.5 40t-37.5 13q-18 0 -32 -8t-14 -27q0 -22 29.5 -32t88.5 -26zM154 523l-45 126l303 119l45 -126z" />
    <glyph glyph-name="Scircumflex" unicode="&#x15c;" horiz-adv-x="644" 
d="M242 236q0 -48 24 -73.5t64 -25.5q32 0 50.5 16t18.5 44q0 29 -25.5 45.5t-80.5 38.5q-48 19 -92.5 38t-78 45t-53.5 62t-20 90t23.5 92.5t62.5 63t88.5 36t102.5 11.5q77 0 129 -20t84 -52.5t46 -73.5t14 -82h-208q0 87 -69 87q-26 0 -45 -13t-19 -42q0 -27 24 -45
t72 -35q45 -16 90.5 -34t82 -44t59 -63.5t22.5 -91.5t-20 -97t-57 -72t-90 -44.5t-119 -15.5t-119 17t-90.5 49t-58 79.5t-20.5 109.5h208zM328 1015l212 -174l-89 -96l-123 106l-123 -106l-89 96z" />
    <glyph glyph-name="scircumflex" unicode="&#x15d;" horiz-adv-x="566" 
d="M352 305q39 -9 72.5 -19.5t57.5 -27t38 -41.5t14 -64q0 -49 -19.5 -81t-53.5 -51t-79.5 -27t-96.5 -8q-132 0 -194 48t-62 132h196q0 -31 17 -45.5t47 -14.5q23 0 36.5 9.5t13.5 26.5q0 11 -6 18.5t-19.5 13.5t-35 12.5t-53.5 15.5q-36 9 -69.5 18.5t-59.5 26t-41.5 41.5
t-15.5 65q0 85 63 121.5t187 36.5q67 0 113 -13t73.5 -35.5t39.5 -52.5t12 -65h-195q0 27 -14.5 40t-37.5 13q-18 0 -32 -8t-14 -27q0 -22 29.5 -32t88.5 -26zM285 814l212 -174l-89 -96l-123 106l-122 -106l-90 96z" />
    <glyph glyph-name="Scedilla" unicode="&#x15e;" horiz-adv-x="644" 
d="M277 -17q-112 11 -177.5 75.5t-65.5 177.5h208q0 -48 24 -73.5t64 -25.5q32 0 50.5 16t18.5 44q0 29 -25.5 45.5t-80.5 38.5q-48 19 -92.5 38t-78 45t-53.5 62t-20 90t23.5 92.5t62.5 63t88.5 36t102.5 11.5q77 0 129 -20t84 -52.5t46 -73.5t14 -82h-208q0 87 -69 87
q-26 0 -45 -13t-19 -42q0 -27 24 -45t72 -35q45 -16 90.5 -34t82 -44t59 -63.5t22.5 -91.5q0 -100 -64.5 -159t-179.5 -68v-38q5 8 16.5 13t30.5 5t35 -8t27.5 -21t17.5 -29.5t6 -33.5q0 -42 -29.5 -73.5t-86.5 -31.5q-22 0 -42.5 6.5t-36 19t-26 31t-11.5 42.5h84
q2 -13 10 -21t22 -8t22.5 10t8.5 25q0 13 -8.5 22t-21.5 9q-21 0 -28 -15h-77v96z" />
    <glyph glyph-name="scedilla" unicode="&#x15f;" horiz-adv-x="566" 
d="M226 -11q-102 11 -149.5 56.5t-47.5 120.5h196q0 -31 17 -45.5t47 -14.5q23 0 36.5 9.5t13.5 26.5q0 11 -6 18.5t-19.5 13.5t-35 12.5t-53.5 15.5q-36 9 -69.5 18.5t-59.5 26t-41.5 41.5t-15.5 65q0 85 63 121.5t187 36.5q67 0 113 -13t73.5 -35.5t39.5 -52.5t12 -65
h-195q0 27 -14.5 40t-37.5 13q-18 0 -32 -8t-14 -27q0 -22 29.5 -32t88.5 -26q39 -9 72.5 -19.5t57.5 -27t38 -41.5t14 -64q0 -45 -17 -76t-47 -50.5t-70.5 -28.5t-86.5 -11v-38q5 8 16.5 13t30.5 5t35 -8t27.5 -21t17.5 -29.5t6 -33.5q0 -42 -29.5 -73.5t-86.5 -31.5
q-22 0 -42.5 6.5t-36 19t-26 31t-11.5 42.5h84q2 -13 10 -21t22 -8t22.5 10t8.5 25q0 13 -8.5 22t-21.5 9q-21 0 -28 -15h-77v98z" />
    <glyph glyph-name="Scaron" unicode="&#x160;" horiz-adv-x="644" 
d="M242 236q0 -48 24 -73.5t64 -25.5q32 0 50.5 16t18.5 44q0 29 -25.5 45.5t-80.5 38.5q-48 19 -92.5 38t-78 45t-53.5 62t-20 90t23.5 92.5t62.5 63t89 36t103 11.5q77 0 129 -20t84 -52.5t45.5 -73.5t13.5 -82h-208q0 87 -69 87q-26 0 -45 -13t-19 -42q0 -27 24 -45
t72 -35q45 -16 90.5 -34t82 -44t59 -63.5t22.5 -91.5t-20 -97t-57 -72t-90 -44.5t-119 -15.5t-119 17t-90.5 49t-58 79.5t-20.5 109.5h208zM118 912l89 96l123 -109l123 110l89 -97l-212 -173z" />
    <glyph glyph-name="scaron" unicode="&#x161;" horiz-adv-x="566" 
d="M352 305q39 -9 72.5 -19.5t57.5 -27t38 -41.5t14 -64q0 -49 -19.5 -81t-53.5 -51t-79.5 -27t-96.5 -8q-132 0 -194 47.5t-62 132.5h196q0 -31 17 -45.5t47 -14.5q23 0 36.5 9.5t13.5 26.5q0 11 -6 18.5t-19.5 13.5t-35 12.5t-53.5 15.5q-36 9 -69.5 18.5t-59.5 26
t-41.5 41.5t-15.5 65q0 85 63 121.5t187 36.5q67 0 113 -13t73.5 -35.5t39.5 -52.5t12 -65h-195q0 27 -14.5 40t-37.5 13q-18 0 -32 -8t-14 -27q0 -22 29.5 -32t88.5 -26zM74 707l90 97l122 -109l123 109l89 -97l-212 -173z" />
    <glyph glyph-name="Tcommaaccent" unicode="&#x162;" horiz-adv-x="536" 
d="M164 522h-144v178h496v-178h-144v-522h-208v522zM175 -105q0 38 25.5 63.5t62.5 25.5q45 0 72 -31t27 -82q0 -50 -12.5 -84.5t-36 -56t-57 -31.5t-76.5 -10v55q28 0 47 6t31.5 16.5t19 23t8.5 26.5q-2 -2 -9 -5t-14 -3q-41 0 -64.5 26t-23.5 61z" />
    <glyph glyph-name="tcommaaccent" unicode="&#x163;" horiz-adv-x="415" 
d="M13 497h73v145h197v-145h112v-137h-112v-150q0 -24 5 -38.5t14 -22.5t20.5 -11t24.5 -3q16 0 28.5 1t24.5 3v-139q-20 -4 -48.5 -7t-73.5 -3q-34 0 -68.5 4.5t-62 22t-44.5 52.5t-17 97v194h-73v137zM142 -105q0 38 25.5 63.5t62.5 25.5q45 0 72 -31t27 -82
q0 -50 -12.5 -84.5t-36 -56t-57 -31.5t-76.5 -10v55q28 0 47 5.5t32 16.5t19 23.5t8 26.5q-2 -3 -9 -5.5t-14 -2.5q-41 0 -64.5 26t-23.5 61z" />
    <glyph glyph-name="Tcaron" unicode="&#x164;" horiz-adv-x="536" 
d="M164 522h-144v178h496v-178h-144v-522h-208v522zM55 912l90 96l122 -109l123 110l89 -97l-212 -173z" />
    <glyph glyph-name="tcaron" unicode="&#x165;" horiz-adv-x="705" 
d="M13 497h73v145h197v-145h112v-137h-112v-150q0 -24 5 -38.5t14 -22.5t20.5 -11t24.5 -3q16 0 28.5 1t24.5 3v-139q-20 -4 -48.5 -7t-73.5 -3q-34 0 -68.5 4.5t-62 22t-44.5 52.5t-17 97v194h-73v137zM423 617q0 24 9 45t24 36.5t35.5 24.5t43.5 9q58 0 93.5 -40
t35.5 -105t-16 -110t-46.5 -72.5t-74.5 -40.5t-99 -13v70q36 0 61 8t41 22q17 13 25 29.5t10 33.5q-2 -3 -11 -6t-19 -3q-52 0 -82 33t-30 79z" />
    <glyph glyph-name="Tbar" unicode="&#x166;" horiz-adv-x="536" 
d="M457 333h-85v-333h-208v333h-85v95h85v94h-144v178h496v-178h-144v-94h85v-95z" />
    <glyph glyph-name="tbar" unicode="&#x167;" horiz-adv-x="415" 
d="M400 0q-20 -4 -48.5 -7t-73.5 -3q-34 0 -68.5 4.5t-62 22t-44.5 52.5t-17 97v40h-73v92h73v62h-73v137h73v145h197v-145h112v-137h-112v-62h103v-92h-101v-10q1 -38 20 -49.5t42 -11.5q16 0 28.5 1t24.5 3v-139z" />
    <glyph glyph-name="Utilde" unicode="&#x168;" horiz-adv-x="673" 
d="M44 700h208v-455q0 -36 24 -62t60 -26q38 0 61.5 26t23.5 62v455h208v-457q0 -57 -20 -105t-58 -83t-92 -54.5t-123 -19.5q-68 0 -122 19.5t-92 54.5t-58 83t-20 105v457zM417 890q29 0 47.5 13t34.5 35l84 -101q-29 -39 -69 -58t-85 -19q-29 0 -52.5 7.5t-43 17t-37 17
t-35.5 7.5q-29 0 -47 -13t-35 -35l-82 104q29 38 68.5 56t84.5 18q29 0 52.5 -7.5t43 -17t36.5 -17t35 -7.5z" />
    <glyph glyph-name="utilde" unicode="&#x169;" horiz-adv-x="646" 
d="M588 0h-196v74q-20 -40 -62 -63t-102 -23q-43 0 -76.5 12.5t-53.5 34.5q-28 29 -37 70.5t-9 97.5v294h197v-252q0 -45 15 -69.5t53 -24.5q75 0 75 103v243h196v-497zM401 701q29 0 47.5 13.5t34.5 34.5l84 -100q-29 -40 -69 -58.5t-85 -18.5q-29 0 -52.5 7.5t-43 17
t-37 17t-35.5 7.5q-29 0 -47 -13t-35 -35l-82 104q29 38 68.5 56t84.5 18q29 0 52.5 -8t43 -17t36.5 -17t35 -8z" />
    <glyph glyph-name="Umacron" unicode="&#x16a;" horiz-adv-x="673" 
d="M44 700h208v-455q0 -36 24 -62t60 -26q38 0 61.5 26t23.5 62v455h208v-457q0 -57 -20 -105t-58 -83t-92 -54.5t-123 -19.5q-68 0 -122 19.5t-92 54.5t-58 83t-20 105v457zM532 785h-378v132h378v-132z" />
    <glyph glyph-name="umacron" unicode="&#x16b;" horiz-adv-x="646" 
d="M588 0h-196v74q-20 -40 -62 -63t-102 -23q-43 0 -76.5 12.5t-53.5 34.5q-28 29 -37 70.5t-9 97.5v294h197v-252q0 -45 15 -69.5t53 -24.5q75 0 75 103v243h196v-497zM512 579h-378v132h378v-132z" />
    <glyph glyph-name="Ubreve" unicode="&#x16c;" horiz-adv-x="673" 
d="M44 700h208v-455q0 -36 24 -62t60 -26q38 0 61.5 26t23.5 62v455h208v-457q0 -57 -20 -105t-58 -83t-92 -54.5t-123 -19.5q-68 0 -122 19.5t-92 54.5t-58 83t-20 105v457zM335 875q38 0 58 21t28 50h143q-7 -46 -27.5 -81t-51 -59t-69 -36t-81.5 -12q-44 0 -82.5 12
t-69 36t-50.5 59t-27 81h143q8 -29 28 -50t58 -21z" />
    <glyph glyph-name="ubreve" unicode="&#x16d;" horiz-adv-x="646" 
d="M588 0h-196v74q-20 -40 -62 -63t-102 -23q-43 0 -76.5 12.5t-53.5 34.5q-28 29 -37 70.5t-9 97.5v294h197v-252q0 -45 15 -69.5t53 -24.5q75 0 75 103v243h196v-497zM323 677q38 0 58 21t28 50h143q-7 -46 -27.5 -81t-51 -59t-69 -36t-81.5 -12q-44 0 -82.5 12t-69 36
t-50.5 59t-27 81h143q8 -29 28 -50t58 -21z" />
    <glyph glyph-name="Uring" unicode="&#x16e;" horiz-adv-x="673" 
d="M44 700h208v-455q0 -36 24 -62t60 -26q38 0 61.5 26t23.5 62v455h208v-457q0 -57 -20 -105t-58 -83t-92 -54.5t-123 -19.5q-68 0 -122 19.5t-92 54.5t-58 83t-20 105v457zM337 1027q30 0 56.5 -11.5t46 -31.5t31 -46t11.5 -56t-11.5 -56.5t-31 -46.5t-46 -31.5
t-56.5 -11.5t-57 11.5t-46.5 31.5t-31 46.5t-11.5 56.5t11.5 56.5t31 46t46.5 31t57 11.5zM337 931q-21 0 -35 -15t-14 -35q0 -18 14.5 -32.5t34.5 -14.5t34 14.5t14 34.5t-14 34t-34 14z" />
    <glyph glyph-name="uring" unicode="&#x16f;" horiz-adv-x="646" 
d="M588 0h-196v74q-20 -40 -62 -63t-102 -23q-43 0 -76.5 12.5t-53.5 34.5q-28 29 -37 70.5t-9 97.5v294h197v-252q0 -45 15 -69.5t53 -24.5q75 0 75 103v243h196v-497zM320 843q31 0 58 -12t47 -32t31.5 -47t11.5 -57t-11.5 -56.5t-31.5 -47t-47 -32t-58 -11.5t-57.5 11.5
t-46.5 32t-31.5 47t-11.5 56.5q0 31 11.5 58t31.5 47t46.5 31.5t57.5 11.5zM320 751q-23 0 -38.5 -17t-15.5 -40q0 -20 16 -36.5t38 -16.5q23 0 39 16.5t16 38.5q0 23 -16 39t-39 16z" />
    <glyph glyph-name="Uhungarumlaut" unicode="&#x170;" horiz-adv-x="673" 
d="M44 700h208v-455q0 -36 24 -62t60 -26q38 0 61.5 26t23.5 62v455h208v-457q0 -57 -20 -105t-58 -83t-92 -54.5t-123 -19.5q-68 0 -122 19.5t-92 54.5t-58 83t-20 105v457zM453 987l116 -74l-169 -146l-72 28zM258 987l116 -74l-169 -146l-72 28z" />
    <glyph glyph-name="uhungarumlaut" unicode="&#x171;" horiz-adv-x="646" 
d="M588 497v-497h-196v74q-20 -40 -62 -63t-102 -23q-43 0 -76.5 12.5t-53.5 34.5q-28 29 -37 70.5t-9 97.5v294h197v-252q0 -45 15 -69.5t53 -24.5q75 0 75 103v243h196zM207 546l-72 28l125 192l116 -74zM402 546l-72 28l125 192l116 -74z" />
    <glyph glyph-name="Uogonek" unicode="&#x172;" horiz-adv-x="673" 
d="M450 -197q-23 -8 -45.5 -11.5t-53.5 -3.5q-72 0 -104.5 28.5t-32.5 68.5q0 28 15 52t45 49q-54 8 -96.5 30t-72.5 56t-45.5 77.5t-15.5 93.5v457h208v-455q0 -36 24 -62t60 -26q38 0 61.5 26t23.5 62v455h208v-457q0 -52 -16.5 -96.5t-48 -78.5t-77 -56t-102.5 -28
q-14 -11 -23.5 -26t-9.5 -36t12 -37t34 -16q12 0 27 3t29 9z" />
    <glyph glyph-name="uogonek" unicode="&#x173;" horiz-adv-x="646" 
d="M228 -12q-43 0 -76.5 12.5t-53.5 34.5q-28 29 -37 70.5t-9 97.5v294h197v-252q0 -45 15 -69.5t53 -24.5q75 0 75 103v243h196v-497h-82q-21 -14 -40 -32.5t-19 -48.5q0 -20 11.5 -35t32.5 -15q12 0 27 3t29 9l-4 -78q-23 -8 -45.5 -11.5t-53.5 -3.5q-72 0 -105 28.5
t-33 68.5q0 33 21.5 60.5t64.5 56.5v72q-20 -40 -62 -63t-102 -23z" />
    <glyph glyph-name="Wcircumflex" unicode="&#x174;" horiz-adv-x="1088" 
d="M544 381l-117 -381h-181l-252 700h220l124 -418l123 418h166l122 -418l125 418h220l-252 -700h-182zM544 1015l212 -174l-89 -96l-123 106l-122 -106l-90 96z" />
    <glyph glyph-name="wcircumflex" unicode="&#x175;" horiz-adv-x="853" 
d="M426 267l-75 -267h-175l-178 497h198l79 -277l64 277h175l64 -277l79 277h198l-178 -497h-175zM428 814l213 -174l-89 -96l-123 106l-123 -106l-89 96z" />
    <glyph glyph-name="Ycircumflex" unicode="&#x176;" horiz-adv-x="679" 
d="M345 0h-234l121 247l-235 453h244l113 -249l106 249h232zM351 1015l212 -174l-89 -96l-123 106l-122 -106l-90 96z" />
    <glyph glyph-name="ycircumflex" unicode="&#x177;" horiz-adv-x="652" 
d="M322 -216q-70 0 -117.5 11t-82.5 39q-29 24 -49 59t-21 85h197q2 -31 21.5 -49t53.5 -18q38 0 57 19.5t19 67.5v90q-20 -39 -59.5 -61.5t-96.5 -22.5q-47 0 -82.5 15t-55.5 37q-28 29 -37 67.5t-9 94.5v279h197v-252q0 -45 15 -69.5t53 -24.5q75 0 75 103v243h196v-478
q0 -63 -21 -109.5t-54 -72.5q-18 -14 -37.5 -24t-43 -16.5t-52.5 -9.5t-66 -3zM326 814l213 -174l-89 -96l-123 106l-123 -106l-89 96z" />
    <glyph glyph-name="Ydieresis" unicode="&#x178;" horiz-adv-x="679" 
d="M345 0h-234l121 247l-235 453h244l113 -249l106 249h232zM371 849q0 22 8 41t22.5 33.5t34 23t42.5 8.5t42.5 -8.5t34 -23t22.5 -33.5t8 -41q0 -21 -8 -40.5t-22.5 -33.5t-34 -22.5t-42.5 -8.5t-42.5 8.5t-34 22.5t-22.5 33.5t-8 40.5zM119 849q0 22 8 41t22.5 33.5
t33.5 23t42 8.5t43 -8.5t34.5 -23t23 -33.5t8.5 -41q0 -21 -8.5 -40.5t-23 -33.5t-34.5 -22.5t-43 -8.5t-42 8.5t-33.5 22.5t-22.5 33.5t-8 40.5z" />
    <glyph glyph-name="Zacute" unicode="&#x179;" horiz-adv-x="687" 
d="M56 700h611l-322 -530h303v-170h-628l323 530h-287v170zM223 731l-45 126l303 119l45 -126z" />
    <glyph glyph-name="zacute" unicode="&#x17a;" horiz-adv-x="523" 
d="M509 497l-202 -335h189v-162h-482l204 335h-185v162h476zM132 523l-44 126l303 119l44 -126z" />
    <glyph glyph-name="Zdotaccent" unicode="&#x17b;" horiz-adv-x="687" 
d="M56 700h611l-322 -530h303v-170h-628l323 530h-287v170zM239 856q0 22 8.5 41.5t23 34t34 23t42.5 8.5q48 0 79 -31t31 -76q0 -44 -31 -75t-79 -31q-23 0 -42.5 8.5t-34 23t-23 33.5t-8.5 41z" />
    <glyph glyph-name="zdotaccent" unicode="&#x17c;" horiz-adv-x="523" 
d="M509 497l-202 -335h189v-162h-482l204 335h-185v162h476zM152 644q0 22 8.5 41.5t23 34.5t34 23.5t42.5 8.5q24 0 44 -8.5t34.5 -23.5t23 -34.5t8.5 -41.5q0 -21 -8.5 -40.5t-23 -34t-34.5 -23t-44 -8.5q-23 0 -42.5 8.5t-34 23t-23 34t-8.5 40.5z" />
    <glyph glyph-name="Zcaron" unicode="&#x17d;" horiz-adv-x="687" 
d="M149 912l89 96l123 -109l123 110l89 -97l-213 -173zM56 700h611l-322 -530h303v-170h-628l323 530h-287v170z" />
    <glyph glyph-name="zcaron" unicode="&#x17e;" horiz-adv-x="523" 
d="M62 707l89 97l123 -109l123 109l89 -97l-212 -173zM509 497l-202 -335h189v-162h-482l204 335h-185v162h476z" />
    <glyph glyph-name="longs" unicode="&#x17f;" horiz-adv-x="402" 
d="M389 573q-12 3 -21.5 4.5t-24.5 1.5q-24 0 -40 -9.5t-16 -40.5v-529h-196v360h-78v137h78v27q0 64 17 102t44.5 57.5t62.5 25.5t72 6q34 0 59.5 -4t42.5 -10v-128z" />
    <glyph glyph-name="florin" unicode="&#x192;" horiz-adv-x="511" 
d="M-27 -54q11 -3 20.5 -4.5t24.5 -1.5q24 0 40.5 10.5t24.5 45.5l64 364h-78l24 137h78l5 27q11 64 34.5 102t55 57.5t67.5 25.5t73 6q34 0 59 -4t41 -10l-23 -128q-11 3 -20.5 4.5t-24.5 1.5q-25 0 -42 -9.5t-23 -40.5l-6 -32h103l-24 -137h-102l-64 -365
q-12 -64 -35.5 -102t-54.5 -57.5t-67 -25.5t-73 -6q-34 0 -59 4t-41 10z" />
    <glyph glyph-name="Aringacute" unicode="&#x1fa;" horiz-adv-x="748" 
d="M467 759q0 -33 -21 -59h34l264 -700h-232l-24 81h-235l-24 -81h-225l258 699h35q-23 26 -23 60q0 20 7.5 37.5t20.5 31t31 21t38 7.5t37.5 -7.5t30.5 -21t20.5 -31t7.5 -37.5zM297 232h148l-74 258zM371 790q-13 0 -21.5 -9t-8.5 -22q0 -11 9 -20t21 -9q11 0 20.5 9
t9.5 21t-8.5 21t-21.5 9zM269 832l-28 79l222 92l28 -80z" />
    <glyph glyph-name="aringacute" unicode="&#x1fb;" horiz-adv-x="668" 
d="M414 497h196v-497h-196v74q-7 -15 -21.5 -30.5t-34.5 -28t-44.5 -20.5t-51.5 -8q-51 0 -93.5 19t-73 53t-47.5 82t-17 107q0 58 17 106.5t47.5 82.5t73 53t93.5 19q27 0 51.5 -7.5t44.5 -20t34.5 -28t21.5 -30.5v74zM320 346q-41 0 -66.5 -28.5t-25.5 -69.5
q0 -40 25.5 -69t66.5 -29q42 0 68 29t26 69q0 41 -26 69.5t-68 28.5zM372 650q0 15 -10.5 27t-27.5 12t-28 -12t-11 -29q0 -15 11.5 -26t27.5 -11t27 11t11 28zM214 649q0 24 9.5 45.5t26 37.5t38.5 25.5t46 9.5t45.5 -9.5t37.5 -25.5t25.5 -37.5t9.5 -45.5t-9.5 -46
t-25.5 -38t-37.5 -25.5t-45.5 -9.5t-46 9.5t-38.5 25.5t-26 38t-9.5 46zM169 862l266 106l39 -110l-264 -105z" />
    <glyph glyph-name="AEacute" unicode="&#x1fc;" horiz-adv-x="954" 
d="M656 544v-122h243v-149h-243v-117h243v-156h-451v81h-186l-35 -81h-226l330 700h568v-156h-243zM448 232v286l-124 -286h124zM436 731l-44 126l303 119l44 -126z" />
    <glyph glyph-name="aeacute" unicode="&#x1fd;" horiz-adv-x="1009" 
d="M580 497v-6q52 20 117 20q68 0 120 -19.5t87.5 -51.5t54 -73.5t18.5 -85.5q0 -17 -1 -34.5t-5 -39.5h-360q0 -18 4 -34.5t14.5 -29t27.5 -20.5t43 -8q33 0 53 14t26 36h190q-6 -38 -27 -71t-54.5 -57t-80.5 -37.5t-106 -13.5q-66 0 -120 20v-6h-167v74
q-7 -15 -21.5 -30.5t-34.5 -28t-44.5 -20.5t-51.5 -8q-51 0 -93.5 19t-73 53t-47.5 82t-17 107q0 58 17 106.5t47.5 82.5t73 53t93.5 19q27 0 51.5 -7.5t44.5 -20t34.5 -28t21.5 -30.5v74h166zM697 386q-38 0 -61.5 -21t-24.5 -63h171q0 39 -23.5 61.5t-61.5 22.5zM320 150
q42 0 68 29t26 69q0 42 -26 70t-68 28q-41 0 -66.5 -28.5t-25.5 -69.5q0 -40 25.5 -69t66.5 -29zM375 517l-45 127l303 119l45 -127z" />
    <glyph glyph-name="Oslashacute" unicode="&#x1fe;" horiz-adv-x="811" 
d="M405 -19q-58 0 -111 14l-39 -89l-87 40l37 84q-43 24 -76.5 59t-56 76.5t-34.5 88.5t-12 96q0 72 25.5 139t74 118t119 81.5t160.5 30.5q55 0 102 -12l37 82l86 -39l-34 -76q45 -24 80.5 -59t59.5 -77t36.5 -90t12.5 -98q0 -72 -25.5 -139t-74 -118t-119.5 -81.5
t-161 -30.5zM426 527q-5 1 -10.5 1.5t-10.5 0.5q-40 0 -71.5 -15t-53 -39.5t-33 -57t-11.5 -67.5q0 -38 13.5 -73t39.5 -60zM574 350q0 41 -16 78t-45 62l-139 -316q5 -2 15 -2.5t16 -0.5q40 0 71.5 15t53 39.5t33 57t11.5 67.5zM276 731l-45 126l303 119l45 -126z" />
    <glyph glyph-name="oslashacute" unicode="&#x1ff;" horiz-adv-x="631" 
d="M452 484q75 -32 114 -95t39 -141q0 -54 -19.5 -101.5t-56.5 -83t-91 -56.5t-123 -21q-44 0 -83 9l-29 -67l-55 24l28 62q-74 32 -112 94.5t-38 139.5q0 54 19 102t56 84t91 56.5t123 20.5q40 0 80 -8l31 69l54 -24zM186 523l-45 126l303 119l45 -126zM315 150
q43 0 68 28.5t25 69.5q0 22 -7.5 41t-21.5 33l-76 -171q2 -1 6 -1h6zM222 248q0 -43 27 -72l75 170h-9q-42 0 -67.5 -28t-25.5 -70z" />
    <glyph glyph-name="Scommaaccent" unicode="&#x218;" horiz-adv-x="644" 
d="M242 236q0 -48 24 -73.5t64 -25.5q32 0 50.5 16t18.5 44q0 29 -25.5 45.5t-80.5 38.5q-48 19 -92.5 38t-78 45t-53.5 62t-20 90t23.5 92.5t62.5 63t88.5 36t102.5 11.5q77 0 129 -20t84 -52.5t46 -73.5t14 -82h-208q0 87 -69 87q-26 0 -45 -13t-19 -42q0 -27 24 -45
t72 -35q45 -16 90.5 -34t82 -44t59 -63.5t22.5 -91.5t-20 -97t-57 -72t-90 -44.5t-119 -15.5t-119 17t-90.5 49t-58 79.5t-20.5 109.5h208zM233 -114q0 38 25.5 63.5t62.5 25.5q45 0 72 -31t27 -82q0 -50 -12.5 -84.5t-36 -56t-57 -31.5t-76.5 -10v55q28 0 47 6t31.5 16.5
t19 23t8.5 26.5q-2 -2 -9 -5t-14 -3q-41 0 -64.5 26t-23.5 61z" />
    <glyph glyph-name="scommaaccent" unicode="&#x219;" horiz-adv-x="566" 
d="M191 -108q0 37 25.5 63t61.5 26q45 0 72.5 -31.5t27.5 -81.5t-12.5 -85t-36 -56.5t-57.5 -31.5t-77 -10v55q28 0 47.5 6t32.5 17q12 10 18 23t8 26q-2 -2 -8.5 -4.5t-14.5 -2.5q-41 0 -64 25.5t-23 61.5zM225 166q0 -31 17 -45.5t47 -14.5q23 0 36.5 9.5t13.5 26.5
q0 11 -6 18.5t-19.5 13.5t-35 12.5t-53.5 15.5q-36 9 -69.5 18.5t-59.5 26t-41.5 41.5t-15.5 65q0 85 63 121.5t187 36.5q67 0 113 -13t73.5 -35.5t39.5 -52.5t12 -65h-195q0 27 -14.5 40t-37.5 13q-18 0 -32 -8t-14 -27q0 -22 29.5 -32t88.5 -26q39 -9 72.5 -19.5t57.5 -27
t38 -41.5t14 -64q0 -49 -19.5 -81t-53.5 -51t-79.5 -27t-96.5 -8q-132 0 -194 48t-62 132h196z" />
    <glyph glyph-name="uni021A" unicode="&#x21a;" horiz-adv-x="536" 
d="M164 522h-144v178h496v-178h-144v-522h-208v522zM175 -105q0 38 25.5 63.5t62.5 25.5q45 0 72 -31t27 -82q0 -50 -12.5 -84.5t-36 -56t-57 -31.5t-76.5 -10v55q28 0 47 6t31.5 16.5t19 23t8.5 26.5q-2 -2 -9 -5t-14 -3q-41 0 -64.5 26t-23.5 61z" />
    <glyph glyph-name="uni021B" unicode="&#x21b;" horiz-adv-x="415" 
d="M13 497h73v145h197v-145h112v-137h-112v-150q0 -24 5 -38.5t14 -22.5t20.5 -11t24.5 -3q16 0 28.5 1t24.5 3v-139q-20 -4 -48.5 -7t-73.5 -3q-34 0 -68.5 4.5t-62 22t-44.5 52.5t-17 97v194h-73v137zM139 -105q0 38 25.5 63.5t61.5 25.5q45 0 72.5 -31t27.5 -82
q0 -50 -12.5 -84.5t-36 -56t-57.5 -31.5t-77 -10v55q29 0 48 5.5t32 16.5t19 23.5t7 26.5q-2 -3 -8.5 -5.5t-14.5 -2.5q-40 0 -63.5 26t-23.5 61z" />
    <glyph glyph-name="hsuperior" unicode="&#x2b0;" horiz-adv-x="411" 
d="M60 700h112v-149q10 20 32.5 34t55.5 14q45 0 66 -23q17 -17 22.5 -41.5t5.5 -56.5v-163h-112v140q0 23 -7.5 34.5t-26.5 11.5q-36 0 -36 -52v-134h-112v385z" />
    <glyph glyph-name="jsuperior" unicode="&#x2b2;" horiz-adv-x="259" 
d="M192 301q0 -32 -7 -52t-19.5 -31t-30.5 -15t-39 -4q-18 0 -39 2.5t-32 6.5v80q6 -2 11 -2h11q27 0 27 27v280h118v-292zM65 673q0 27 19 46.5t48 19.5q30 0 49.5 -19.5t19.5 -46.5q0 -28 -19.5 -47.5t-49.5 -19.5q-29 0 -48 19.5t-19 47.5z" />
    <glyph glyph-name="wsuperior" unicode="&#x2b7;" horiz-adv-x="541" 
d="M270 452l-36 -137h-108l-98 278h119l41 -152l30 152h104l31 -152l41 152h118l-98 -278h-108z" />
    <glyph glyph-name="ysuperior" unicode="&#x2b8;" horiz-adv-x="427" 
d="M211 199q-85 0 -119.5 26t-34.5 82h118q1 -15 9.5 -24t27.5 -9q20 0 29 11.5t9 39.5v41q-11 -22 -34 -35t-58 -13q-23 0 -41 6.5t-29 17.5q-17 17 -22 40.5t-5 55.5v155h119v-141q0 -22 7.5 -34t25.5 -12q37 0 37 52v135h118v-256q0 -38 -7 -64.5t-24.5 -43t-48 -23.5
t-77.5 -7z" />
    <glyph glyph-name="apostrophemod" unicode="&#x2bc;" horiz-adv-x="283" 
d="M60 662q0 32 22.5 55t54.5 23q39 0 62.5 -27t23.5 -72q0 -88 -41.5 -123.5t-117.5 -36.5v49q25 0 41.5 5.5t27.5 14.5t16.5 20t7.5 22q-2 -2 -8 -3.5t-12 -1.5q-35 0 -56 21.5t-21 53.5z" />
    <glyph glyph-name="circumflex" unicode="&#x2c6;" horiz-adv-x="484" 
d="M241 842l212 -170l-91 -98l-121 96l-121 -96l-91 98z" />
    <glyph glyph-name="caron" unicode="&#x2c7;" horiz-adv-x="471" 
d="M30 774l87 98l118 -98l118 98l88 -98l-206 -170z" />
    <glyph glyph-name="breve" unicode="&#x2d8;" horiz-adv-x="537" 
d="M168 853q12 -28 34.5 -48.5t65.5 -20.5t66 20.5t34 48.5h140q-9 -45 -30.5 -80t-53 -59t-71.5 -36.5t-85 -12.5t-84.5 12.5t-71.5 36.5t-53.5 59t-30.5 80h140z" />
    <glyph glyph-name="dotaccent" unicode="&#x2d9;" horiz-adv-x="404" 
d="M93 612q0 22 8.5 41.5t23 34.5t34 23.5t42.5 8.5t43 -8.5t34.5 -23.5t23 -34.5t8.5 -41.5q0 -21 -8.5 -40.5t-23 -34t-34.5 -23t-43 -8.5t-42.5 8.5t-34 23t-23 34t-8.5 40.5z" />
    <glyph glyph-name="ring" unicode="&#x2da;" horiz-adv-x="425" 
d="M212 858q30 0 57 -11.5t46.5 -31.5t31 -46.5t11.5 -56.5t-11.5 -56.5t-31 -46.5t-46.5 -31.5t-57 -11.5t-56.5 11.5t-46 31.5t-31 46.5t-11.5 56.5t11.5 57t31 46.5t46 31t56.5 11.5zM212 758q-19 0 -32 -13.5t-13 -33.5q0 -17 13.5 -30t31.5 -13t32 13.5t14 31.5
t-13 31.5t-33 13.5z" />
    <glyph glyph-name="ogonek" unicode="&#x2db;" horiz-adv-x="385" 
d="M309 -197q-23 -8 -45.5 -11.5t-53.5 -3.5q-71 0 -103.5 28.5t-32.5 68.5q0 32 19.5 59t59.5 56h114q-10 -7 -20 -14.5t-18 -16.5t-13 -20.5t-5 -26.5q0 -21 12 -37t34 -16q12 0 27 3t29 9z" />
    <glyph glyph-name="tilde" unicode="&#x2dc;" horiz-adv-x="500" 
d="M41 662q25 14 43.5 22t32.5 11.5t23.5 4t17.5 0.5q12 0 34.5 -4t46.5 -9.5t46 -9.5t33 -4q9 0 17 1t18 4t23 8t33 14l49 -110q-44 -32 -77 -38.5t-47 -6.5q-12 0 -34.5 4t-46.5 9t-46 9t-33 4q-23 0 -41 -6.5t-38 -14.5z" />
    <glyph glyph-name="hungarumlaut" unicode="&#x2dd;" horiz-adv-x="493" 
d="M361 761l116 -75l-169 -146l-72 28zM166 761l116 -75l-169 -146l-72 28z" />
    <glyph glyph-name="xsuperior" unicode="&#x2e3;" horiz-adv-x="397" 
d="M372 315h-138l-36 70l-35 -70h-137l101 140l-99 138h136l34 -67l35 67h137l-100 -138z" />
    <glyph glyph-name="Delta" unicode="&#x394;" horiz-adv-x="748" 
d="M274 151h194l-97 339zM744 0h-740l258 700h218z" />
    <glyph glyph-name="Omega" unicode="&#x3a9;" horiz-adv-x="731" 
d="M365 524q-30 0 -53 -10.5t-38.5 -28.5t-23.5 -42t-8 -51q0 -51 25.5 -88t74.5 -48v-256h-295v151h135v13q-71 38 -109.5 102t-38.5 142q0 60 22.5 115t65.5 97t104.5 67t138.5 25q78 0 139.5 -25t104 -67t65.5 -97t23 -115q0 -78 -39 -142.5t-110 -102.5v-12h136v-151
h-295v255q49 11 74.5 48.5t25.5 88.5q0 27 -8 51t-24 42t-39 28.5t-53 10.5z" />
    <glyph glyph-name="mu" unicode="&#x3bc;" 
d="M55 497h197v-257q0 -42 15.5 -65.5t52.5 -23.5q75 0 75 103v243h196v-497h-196v74q-17 -33 -48 -54t-75 -27q-6 0 -10.5 0.5t-9.5 1.5v-197h-197v699z" />
    <glyph glyph-name="pi" unicode="&#x3c0;" 
d="M636 365h-70v-365h-196v365h-93v-365h-196v365h-70v132h625v-132z" />
    <glyph glyph-name="uni0401" unicode="&#x401;" horiz-adv-x="566" 
d="M269 544v-122h243v-149h-243v-117h243v-156h-451v700h451v-156h-243zM305 849q0 22 8.5 41.5t23 34.5t34 23.5t42.5 8.5t43 -8.5t34.5 -23.5t23 -34.5t8.5 -41.5q0 -21 -8.5 -40.5t-23 -34t-34.5 -23t-43 -8.5t-42.5 8.5t-34 23t-23 34t-8.5 40.5zM53 849q0 22 8.5 41.5
t23 34.5t34 23.5t42.5 8.5t43 -8.5t35 -23.5t23.5 -34.5t8.5 -41.5q0 -21 -8.5 -40.5t-23.5 -34t-35 -23t-43 -8.5t-42.5 8.5t-34 23t-23 34t-8.5 40.5z" />
    <glyph glyph-name="uni0402" unicode="&#x402;" horiz-adv-x="758" 
d="M703 -40q0 -52 -11.5 -86t-33 -54t-51.5 -28t-66 -8h-119v149h44q47 0 49 44v234q0 45 -15 69.5t-53 24.5q-73 0 -75 -97v-208h-208v544h-144v156h496v-156h-144v-162q20 38 60.5 62t99.5 24q43 0 73.5 -12t50.5 -34q28 -29 37.5 -72t9.5 -99v-291z" />
    <glyph glyph-name="uni0403" unicode="&#x403;" horiz-adv-x="498" 
d="M156 725l-45 126l303 119l45 -126zM61 700h434v-178h-226v-522h-208v700z" />
    <glyph glyph-name="uni0404" unicode="&#x404;" horiz-adv-x="790" 
d="M764 276q-8 -60 -34.5 -114t-71 -94t-106.5 -63.5t-141 -23.5q-94 0 -166 29t-120.5 79.5t-73.5 117.5t-25 143t25 143t73.5 117.5t120 79.5t164.5 29q78 0 140.5 -23.5t107.5 -63.5t71.5 -94.5t33.5 -115.5h-220q-8 46 -44.5 77t-99.5 31q-65 0 -103 -36t-47 -91h215
v-112h-214q11 -57 48.5 -89t100.5 -32q65 0 102 31t45 75h219z" />
    <glyph glyph-name="uni0405" unicode="&#x405;" horiz-adv-x="644" 
d="M242 236q0 -48 24 -73.5t64 -25.5q32 0 50.5 16t18.5 44q0 29 -25.5 45.5t-80.5 38.5q-48 19 -92.5 38t-78 45t-53.5 62t-20 90t23.5 92.5t62.5 63t88.5 36t102.5 11.5q77 0 129 -20t84 -52.5t46 -73.5t14 -82h-208q0 87 -69 87q-26 0 -45 -13t-19 -42q0 -27 24 -45
t72 -35q45 -16 90.5 -34t82 -44t59 -63.5t22.5 -91.5t-20 -97t-57 -72t-90 -44.5t-119 -15.5t-119 17t-90.5 49t-58 79.5t-20.5 109.5h208z" />
    <glyph glyph-name="uni0406" unicode="&#x406;" horiz-adv-x="332" 
d="M61 700h210v-700h-210v700z" />
    <glyph glyph-name="uni0407" unicode="&#x407;" horiz-adv-x="332" 
d="M179 849q0 22 8.5 41.5t23 34.5t34 23.5t42.5 8.5t43 -8.5t34.5 -23.5t23 -34.5t8.5 -41.5q0 -21 -8.5 -40.5t-23 -34t-34.5 -23t-43 -8.5t-42.5 8.5t-34 23t-23 34t-8.5 40.5zM-60 849q0 22 8.5 41.5t23 34.5t34 23.5t42.5 8.5t43 -8.5t35 -23.5t23.5 -34.5t8.5 -41.5
q0 -21 -8.5 -40.5t-23.5 -34t-35 -23t-43 -8.5t-42.5 8.5t-34 23t-23 34t-8.5 40.5zM61 700h210v-700h-210v700z" />
    <glyph glyph-name="uni0408" unicode="&#x408;" horiz-adv-x="629" 
d="M579 254q0 -73 -20 -124.5t-57 -84t-89.5 -47.5t-117.5 -15q-73 0 -126 21t-88 57.5t-52 86t-17 107.5h208q0 -42 18.5 -70t56.5 -28q35 0 55 24.5t20 72.5v446h209v-446z" />
    <glyph glyph-name="uni0409" unicode="&#x409;" horiz-adv-x="1069" 
d="M763 145q38 0 58 21t20 52q0 26 -17.5 48.5t-60.5 22.5h-62v-144h62zM492 526h-179v-368q0 -52 -14.5 -86t-41 -53.5t-62 -27.5t-77.5 -8h-108v175h46q49 0 49 40v502h596v-275h146q46 0 84 -16.5t65 -44.5t41.5 -65.5t14.5 -80.5q0 -44 -14.5 -83.5t-41.5 -69.5
t-65 -47.5t-84 -17.5h-355v526z" />
    <glyph glyph-name="uni040A" unicode="&#x40a;" horiz-adv-x="1041" 
d="M673 425h146q46 0 84 -16.5t65 -44.5t41.5 -65.5t14.5 -80.5q0 -44 -14.5 -83.5t-41.5 -69.5t-65 -47.5t-84 -17.5h-355v263h-195v-263h-208v700h208v-263h195v263h209v-275zM673 289v-144h62q38 0 58 21t20 52q0 26 -17.5 48.5t-60.5 22.5h-62z" />
    <glyph glyph-name="uni040B" unicode="&#x40b;" horiz-adv-x="756" 
d="M372 544v-162q20 38 60.5 62t99.5 24q43 0 73.5 -12t50.5 -34q28 -29 37.5 -72t9.5 -99v-251h-188v211q0 45 -15 69.5t-53 24.5q-73 0 -75 -97v-208h-208v544h-144v156h496v-156h-144z" />
    <glyph glyph-name="uni040C" unicode="&#x40c;" horiz-adv-x="714" 
d="M269 428h14q24 0 44 15.5t43 55.5l57 101q32 58 74 81.5t104 23.5h70v-181h-22q-26 0 -45 -9.5t-37 -38.5l-36 -56q-13 -21 -33 -40.5t-49 -30.5l252 -349h-244l-192 299v-299h-208v700h208v-272zM228 725l-45 126l303 119l45 -126z" />
    <glyph glyph-name="uni040E" unicode="&#x40e;" horiz-adv-x="683" 
d="M351 875q38 0 58 21t27 50h144q-7 -46 -27.5 -81t-51 -59t-69 -36t-81.5 -12q-44 0 -82.5 12t-69 36t-51 59t-26.5 81h143q8 -29 28 -50t58 -21zM345 0h-234l121 247l-235 453h244l113 -249l106 249h232z" />
    <glyph glyph-name="uni040F" unicode="&#x40f;" horiz-adv-x="721" 
d="M266 -105v105h-205v700h208v-526h182v526h209v-700h-206v-105h-188z" />
    <glyph glyph-name="uni0410" unicode="&#x410;" horiz-adv-x="748" 
d="M512 0l-24 81h-235l-24 -81h-225l258 700h218l264 -700h-232zM371 490l-74 -258h148z" />
    <glyph glyph-name="uni0411" unicode="&#x411;" horiz-adv-x="672" 
d="M579 544h-310v-119h163q46 0 84 -16.5t65 -44.5t41.5 -65.5t14.5 -80.5q0 -44 -14.5 -83.5t-41.5 -69.5t-65 -47.5t-84 -17.5h-371v700h518v-156zM269 289v-144h78q38 0 58 21t20 52q0 13 -4 26t-13 23t-24 16t-37 6h-78z" />
    <glyph glyph-name="uni0412" unicode="&#x412;" horiz-adv-x="677" 
d="M61 700h342q72 0 117 -19.5t69.5 -48t33.5 -61.5t9 -60q0 -33 -11.5 -59.5t-29.5 -47t-39.5 -33t-41.5 -16.5q17 -2 39 -12.5t41.5 -30t33 -49t13.5 -68.5q0 -27 -9 -61t-33.5 -64t-69.5 -50t-117 -20h-347v700zM269 289v-143h72q47 0 65.5 22t18.5 50q0 10 -3.5 22.5
t-12.5 23.5t-25.5 18t-42.5 7h-72zM339 425q24 0 40 6t25.5 16t14 23t4.5 26q0 11 -3.5 23t-12.5 22.5t-25.5 17.5t-42.5 7h-70v-141h70z" />
    <glyph glyph-name="uni0413" unicode="&#x413;" horiz-adv-x="498" 
d="M61 700h434v-178h-226v-522h-208v700z" />
    <glyph glyph-name="uni0414" unicode="&#x414;" horiz-adv-x="812" 
d="M12 -105v273h10q37 0 68 16.5t54 46.5t35.5 71t12.5 91v307h520v-532h73v-273h-188v105h-397v-105h-188zM521 168v364h-145v-58q0 -60 -4 -108.5t-15.5 -86t-31.5 -65t-52 -46.5h248z" />
    <glyph glyph-name="uni0415" unicode="&#x415;" horiz-adv-x="566" 
d="M269 544v-122h243v-149h-243v-117h243v-156h-451v700h451v-156h-243z" />
    <glyph glyph-name="uni0416" unicode="&#x416;" horiz-adv-x="1056" 
d="M244 0h-239l250 351q-28 8 -48.5 26t-34.5 42l-33 62q-17 29 -36.5 39.5t-44.5 10.5h-21v174h62q62 0 109.5 -22t76.5 -80l51 -101q22 -44 39.5 -63t43.5 -19h8v280h202v-280h8q26 0 43.5 19t39.5 63l51 101q29 58 76.5 80t109.5 22h62v-174h-21q-25 0 -44.5 -10.5
t-36.5 -39.5l-33 -62q-14 -24 -34.5 -42t-48.5 -26l250 -351h-239l-183 299v-299h-202v299z" />
    <glyph glyph-name="uni0417" unicode="&#x417;" horiz-adv-x="654" 
d="M240 237q0 -45 20.5 -68.5t60.5 -23.5q38 0 55 21.5t17 48.5q0 39 -21 58t-69 19h-77v142h76q53 0 71.5 20.5t18.5 52.5q0 30 -18.5 46.5t-50.5 16.5q-39 0 -57 -21t-18 -59h-219q0 40 13.5 81t47 73t90.5 52.5t144 20.5q57 0 108.5 -10t91.5 -33.5t63.5 -61.5t23.5 -94
q0 -31 -11 -57.5t-28.5 -47t-39.5 -34t-45 -18.5q25 -6 48.5 -20t41 -36t28 -51t10.5 -64q0 -52 -24.5 -91t-64.5 -64.5t-91.5 -38.5t-106.5 -13q-87 0 -146 20t-95 54.5t-51 80.5t-15 99h219z" />
    <glyph glyph-name="uni0418" unicode="&#x418;" horiz-adv-x="748" 
d="M479 388l-210 -340v-48h-208v700h208v-388l210 340v48h208v-700h-208v388z" />
    <glyph glyph-name="uni0419" unicode="&#x419;" horiz-adv-x="748" 
d="M479 388l-210 -340v-48h-208v700h208v-388l210 340v48h208v-700h-208v388zM377 875q38 0 58 21t28 50h143q-7 -46 -27.5 -81t-51 -59t-69 -36t-81.5 -12q-44 0 -82.5 12t-69 36t-50.5 59t-27 81h143q8 -29 28 -50t58 -21z" />
    <glyph glyph-name="uni041A" unicode="&#x41a;" horiz-adv-x="714" 
d="M269 428h14q24 0 44 15.5t43 55.5l57 101q32 58 74 81.5t104 23.5h70v-181h-22q-26 0 -45 -9.5t-37 -38.5l-36 -56q-13 -21 -33 -40.5t-49 -30.5l252 -349h-244l-192 299v-299h-208v700h208v-272z" />
    <glyph glyph-name="uni041B" unicode="&#x41b;" horiz-adv-x="760" 
d="M10 141h46q49 0 49 40v519h594v-700h-208v526h-178v-368q0 -52 -14.5 -86t-41 -53.5t-62 -27.5t-77.5 -8h-108v158z" />
    <glyph glyph-name="uni041C" unicode="&#x41c;" horiz-adv-x="942" 
d="M881 0h-202v434l-127 -434h-154l-135 434v-434h-202v700h265l148 -452l149 452h258v-700z" />
    <glyph glyph-name="uni041D" unicode="&#x41d;" horiz-adv-x="734" 
d="M464 261h-195v-261h-208v700h208v-266h195v266h209v-700h-209v261z" />
    <glyph glyph-name="uni041E" unicode="&#x41e;" horiz-adv-x="811" 
d="M405 -19q-90 0 -160.5 30.5t-119 81.5t-74 118t-25.5 139t25.5 139t74 118t119 81.5t160.5 30.5t161 -30.5t119.5 -81.5t74 -118t25.5 -139t-25.5 -139t-74 -118t-119.5 -81.5t-161 -30.5zM405 171q40 0 71.5 15t53 39.5t33 57t11.5 67.5t-11.5 67.5t-33 57t-53 39.5
t-71.5 15t-71.5 -15t-53 -39.5t-33 -57t-11.5 -67.5t11.5 -67.5t33 -57t53 -39.5t71.5 -15z" />
    <glyph glyph-name="uni041F" unicode="&#x41f;" horiz-adv-x="733" 
d="M269 526v-526h-208v700h611v-700h-208v526h-195z" />
    <glyph glyph-name="uni0420" unicode="&#x420;" horiz-adv-x="673" 
d="M61 700h336q60 0 108.5 -21t83 -56.5t53 -83t18.5 -100.5t-18.5 -100t-53 -82.5t-83 -56.5t-108.5 -21h-128v-179h-208v700zM355 340q42 0 67.5 29t25.5 70t-25 70t-67 29h-87v-198h86z" />
    <glyph glyph-name="uni0421" unicode="&#x421;" horiz-adv-x="801" 
d="M777 276q-9 -60 -37 -114t-75 -94t-111 -63.5t-145 -23.5q-90 0 -161.5 30t-120.5 81t-75 118t-26 140t25.5 139.5t74.5 117.5t118.5 81.5t158.5 30.5q85 0 151 -24t112.5 -66t74 -98t34.5 -119h-218q-9 50 -46 84t-102 34q-42 0 -74 -15t-53 -39.5t-32 -57t-11 -68.5
q0 -38 12 -71t34.5 -57t54.5 -38t73 -14q58 0 96 31t48 75h220z" />
    <glyph glyph-name="uni0422" unicode="&#x422;" horiz-adv-x="536" 
d="M164 522h-144v178h496v-178h-144v-522h-208v522z" />
    <glyph glyph-name="uni0423" unicode="&#x423;" horiz-adv-x="683" 
d="M345 0h-234l121 247l-235 453h244l113 -249l106 249h232z" />
    <glyph glyph-name="uni0424" unicode="&#x424;" horiz-adv-x="873" 
d="M530 59v-59h-187v59h-24q-71 0 -126.5 24.5t-93.5 65.5t-57.5 93.5t-19.5 109.5q0 56 19.5 108t57.5 92.5t93.5 64.5t126.5 24h24v59h187v-59h24q71 0 126.5 -24t93.5 -64.5t57.5 -92.5t19.5 -108q0 -57 -19.5 -109.5t-57.5 -93.5t-93.5 -65.5t-126.5 -24.5h-24zM343 227
v246h-23q-47 0 -73 -34t-26 -87q0 -54 26 -89.5t73 -35.5h23zM530 473v-246h23q47 0 73 35.5t26 89.5q0 53 -26 87t-73 34h-23z" />
    <glyph glyph-name="uni0425" unicode="&#x425;" horiz-adv-x="669" 
d="M435 700h228l-208 -350l208 -350h-228l-101 200l-101 -200h-227l208 350l-208 350h227l101 -200z" />
    <glyph glyph-name="uni0426" unicode="&#x426;" horiz-adv-x="771" 
d="M566 -105v105h-505v700h208v-526h182v526h208v-526h95v-279h-188z" />
    <glyph glyph-name="uni0427" unicode="&#x427;" horiz-adv-x="673" 
d="M403 0v194h-145q-53 0 -96 17t-74.5 47t-48.5 71t-17 90v281h208v-236q0 -66 28.5 -93t77.5 -27h67v356h209v-700h-209z" />
    <glyph glyph-name="uni0428" unicode="&#x428;" horiz-adv-x="1070" 
d="M61 0v700h206v-526h165v526h206v-526h164v526h207v-700h-948z" />
    <glyph glyph-name="uni0429" unicode="&#x429;" horiz-adv-x="1120" 
d="M911 -105v105h-850v700h206v-526h165v526h206v-526h164v526h207v-526h95v-279h-193z" />
    <glyph glyph-name="uni042A" unicode="&#x42a;" horiz-adv-x="734" 
d="M349 289v-144h78q38 0 58 21t20 52q0 13 -4 26t-13 23t-24 16t-37 6h-78zM10 700h339v-265h163q46 0 84 -17t65 -46.5t41.5 -69t14.5 -84.5q0 -44 -14.5 -83.5t-41.5 -69.5t-65 -47.5t-84 -17.5h-371v522h-131v178z" />
    <glyph glyph-name="uni042B" unicode="&#x42b;" horiz-adv-x="935" 
d="M269 700v-265h155q46 0 84 -17t65 -46.5t41.5 -69t14.5 -84.5q0 -44 -14.5 -83.5t-41.5 -69.5t-65 -47.5t-84 -17.5h-363v700h208zM269 289v-144h70q38 0 58 21t20 52q0 13 -4 26t-13 23t-24 16t-37 6h-70zM666 700h208v-700h-208v700z" />
    <glyph glyph-name="uni042C" unicode="&#x42c;" horiz-adv-x="654" 
d="M269 700v-265h163q46 0 84 -17t65 -46.5t41.5 -69t14.5 -84.5q0 -44 -14.5 -83.5t-41.5 -69.5t-65 -47.5t-84 -17.5h-371v700h208zM269 289v-144h78q38 0 58 21t20 52q0 13 -4 26t-13 23t-24 16t-37 6h-78z" />
    <glyph glyph-name="uni042D" unicode="&#x42d;" horiz-adv-x="793" 
d="M329 402h217q-10 58 -48 93t-98 35q-69 0 -106.5 -34t-47.5 -84h-218q7 63 33.5 119t72 98t110 66t147.5 24q89 0 159 -28.5t118 -78t73.5 -117t25.5 -145.5q0 -79 -25.5 -146.5t-74.5 -117t-120 -77.5t-162 -28q-79 0 -141.5 23.5t-108 63.5t-73 94t-36.5 114h219
q11 -44 50.5 -75t102.5 -31q59 0 97 30.5t49 90.5h-215v111z" />
    <glyph glyph-name="uni042E" unicode="&#x42e;" horiz-adv-x="1111" 
d="M706 -19q-75 0 -136.5 22t-107 60t-75.5 89t-43 109h-75v-261h-208v700h208v-266h74q12 59 42 111t76 90.5t107.5 61t137.5 22.5q90 0 160.5 -30.5t119 -81.5t74 -118t25.5 -139t-25.5 -139t-74 -118t-119 -81.5t-160.5 -30.5zM706 171q40 0 71 15t53 39.5t33.5 57
t11.5 67.5t-11.5 67.5t-33.5 57t-53 39.5t-71 15t-71.5 -15t-53 -39.5t-33 -57t-11.5 -67.5t11.5 -67.5t33 -57t53 -39.5t71.5 -15z" />
    <glyph glyph-name="uni042F" unicode="&#x42f;" horiz-adv-x="698" 
d="M637 0h-208v179h-38l-120 -179h-245l141 213q-61 34 -95 94t-34 132q0 53 18.5 100.5t53 83t83 56.5t108.5 21h336v-700zM343 340h86v198h-87q-42 0 -67 -29t-25 -70t25.5 -70t67.5 -29z" />
    <glyph glyph-name="uni0430" unicode="&#x430;" horiz-adv-x="662" 
d="M605 497v-497h-197v74q-6 -15 -20.5 -30.5t-34.5 -28t-44.5 -20.5t-51.5 -8q-51 0 -93.5 19t-73 53t-47.5 82t-17 107q0 58 17 106.5t47.5 82.5t73 53t93.5 19q27 0 51.5 -7.5t44.5 -20t34.5 -28t20.5 -30.5v74h197zM315 150q42 0 67.5 29t25.5 69q0 41 -25.5 69.5
t-67.5 28.5t-67.5 -28.5t-25.5 -69.5q0 -40 25.5 -69t67.5 -29z" />
    <glyph glyph-name="uni0431" unicode="&#x431;" horiz-adv-x="641" 
d="M615 235q0 -51 -18.5 -96.5t-54 -79t-87 -53.5t-117.5 -20q-61 0 -112.5 16.5t-93.5 54.5q-46 41 -74 112.5t-28 161.5q0 64 8.5 110.5t23 80t33.5 57.5t40 43q26 25 57 40t65.5 23.5t71 11.5t73.5 3h152v-166h-147q-51 0 -90.5 -11.5t-65.5 -35.5q-26 -25 -41.5 -63
t-17.5 -81q22 63 69 97t122 34q56 0 99 -20t72.5 -53t45 -76t15.5 -90zM336 140q42 0 67.5 28.5t25.5 69.5q0 42 -25.5 70t-67.5 28t-67.5 -27.5t-25.5 -70.5q0 -42 25.5 -70t67.5 -28z" />
    <glyph glyph-name="uni0432" unicode="&#x432;" horiz-adv-x="589" 
d="M58 497h347q49 0 79 -13.5t47 -33t23 -41.5t6 -40q0 -51 -38 -80.5t-98 -32.5q71 -3 108 -33.5t37 -88.5q0 -18 -7 -41.5t-27 -44t-55.5 -34.5t-92.5 -14h-329v497zM247 208v-107h64q27 0 42 15t15 38q0 24 -15 39t-42 15h-64zM309 292q27 0 41.5 14.5t14.5 37.5t-14 38
t-41 15h-63v-105h62z" />
    <glyph glyph-name="uni0433" unicode="&#x433;" horiz-adv-x="410" 
d="M403 497v-154h-160v-343h-185v497h345z" />
    <glyph glyph-name="uni0434" unicode="&#x434;" horiz-adv-x="666" 
d="M17 -105v251h16q53 0 78.5 31.5t25.5 80.5v239h446v-351h53v-251h-163v105h-293v-105h-163zM421 146v206h-127v-88q0 -42 -8.5 -72.5t-37.5 -45.5h173z" />
    <glyph glyph-name="uni0435" unicode="&#x435;" horiz-adv-x="623" 
d="M223 207q1 -18 5.5 -34.5t14.5 -29t27 -20.5t43 -8q33 0 53.5 14t25.5 36h190q-6 -38 -26.5 -71t-54.5 -57t-81 -37.5t-105 -13.5q-68 0 -121.5 18.5t-90.5 53t-56.5 82.5t-19.5 108q0 54 18 102t53 83.5t88 56.5t124 21q68 0 120 -19.5t87.5 -51.5t54 -73.5t18.5 -85.5
q0 -17 -0.5 -34.5t-4.5 -39.5h-362zM310 389q-39 0 -63 -22.5t-24 -64.5h172q0 41 -23.5 64t-61.5 23z" />
    <glyph glyph-name="uni0436" unicode="&#x436;" horiz-adv-x="849" 
d="M213 0h-208l180 249q-17 5 -32 16t-24 28l-17 28q-11 18 -24 26.5t-36 8.5h-23v146h62q27 0 49 -3.5t39.5 -12t32 -24t27.5 -39.5l40 -75q11 -20 22 -31t28 -11h7v191h177v-191h6q18 0 29 11t22 31l40 75q13 24 27 39.5t32 24t39.5 12t49.5 3.5h62v-146h-23
q-24 0 -37 -8.5t-24 -26.5l-16 -28q-10 -17 -25 -28t-32 -16l181 -249h-208l-123 201v-201h-177v201z" />
    <glyph glyph-name="uni0437" unicode="&#x437;" horiz-adv-x="549" 
d="M215 169q0 -29 13.5 -45t43.5 -16q21 0 34 11t13 31q0 55 -77 55h-54v99h51q42 0 60.5 14t18.5 39q0 20 -13.5 31t-34.5 11q-29 0 -40 -16t-11 -42h-195q0 30 11 60.5t39.5 55t77.5 39.5t125 15q48 0 91 -8.5t74.5 -25.5t50 -44.5t18.5 -64.5q0 -29 -9.5 -50t-25.5 -34.5
t-35.5 -20.5t-40.5 -9q24 -2 44.5 -9.5t36.5 -22t25 -36t9 -50.5q0 -38 -21 -67t-55 -48t-77.5 -28.5t-87.5 -9.5q-75 0 -125 15t-79 40.5t-41 59t-12 71.5h198z" />
    <glyph glyph-name="uni0438" unicode="&#x438;" horiz-adv-x="655" 
d="M412 265l-169 -231v-34h-185v497h185v-274l169 232v42h185v-497h-185v265z" />
    <glyph glyph-name="uni0439" unicode="&#x439;" horiz-adv-x="655" 
d="M412 265l-169 -231v-34h-185v497h185v-274l169 232v42h185v-497h-185v265zM332 677q38 0 58 21t28 50h143q-6 -46 -26.5 -81t-51 -59t-69.5 -36t-82 -12q-44 0 -82.5 12t-69 36t-50.5 59t-27 81h144q7 -29 27 -50t58 -21z" />
    <glyph glyph-name="uni043A" unicode="&#x43a;" horiz-adv-x="601" 
d="M243 299h9q19 0 32 13t31 43l43 72q25 43 60 59t91 16h55v-149h-18q-17 0 -32 -6.5t-28 -27.5l-20 -31q-11 -17 -26 -26t-33 -13l187 -249h-223l-128 201v-201h-185v497h185v-198z" />
    <glyph glyph-name="uni043B" unicode="&#x43b;" horiz-adv-x="648" 
d="M13 140h28q44 0 44 40v317h505v-497h-185v343h-137v-184q0 -85 -42 -130t-145 -45h-68v156z" />
    <glyph glyph-name="uni043C" unicode="&#x43c;" horiz-adv-x="882" 
d="M824 0h-181v367l-122 -367h-154l-128 367v-367h-181v497h286l99 -310l99 310h282v-497z" />
    <glyph glyph-name="uni043D" unicode="&#x43d;" horiz-adv-x="633" 
d="M390 173h-147v-173h-185v497h185v-170h147v170h185v-497h-185v173z" />
    <glyph glyph-name="uni043E" unicode="&#x43e;" horiz-adv-x="631" 
d="M315 -14q-69 0 -123 21t-91 56.5t-56 83t-19 101.5t19 102t56 84t91 56.5t123 20.5t123 -20.5t91 -56.5t56.5 -84t19.5 -102t-19.5 -101.5t-56.5 -83t-91 -56.5t-123 -21zM315 150q43 0 68 28.5t25 69.5q0 42 -25 70t-68 28q-42 0 -67.5 -28t-25.5 -70q0 -41 25.5 -69.5
t67.5 -28.5z" />
    <glyph glyph-name="uni043F" unicode="&#x43f;" horiz-adv-x="630" 
d="M572 0h-186v343h-143v-343h-185v497h514v-497z" />
    <glyph glyph-name="uni0440" unicode="&#x440;" horiz-adv-x="668" 
d="M254 424q7 15 21.5 30.5t34.5 27.5t44.5 19.5t50.5 7.5q51 0 93.5 -18.5t73 -53t47.5 -82.5t17 -106q0 -59 -17 -107t-47.5 -82t-73 -53t-93.5 -19q-26 0 -50.5 7.5t-44.5 20t-34.5 28t-21.5 30.5v-277h-196v700h196v-73zM347 347q-42 0 -67.5 -29t-25.5 -69t25.5 -69
t67.5 -29t67.5 29t25.5 69t-25.5 69t-67.5 29z" />
    <glyph glyph-name="uni0441" unicode="&#x441;" horiz-adv-x="617" 
d="M393 290q-5 26 -24.5 42.5t-55.5 16.5q-23 0 -40 -8.5t-28 -22.5t-16.5 -32t-5.5 -38t5.5 -38t16.5 -32t29 -22t42 -8q32 0 50 14t26 39h197q-5 -45 -25.5 -84.5t-55 -68.5t-84 -45.5t-112.5 -16.5q-70 0 -123.5 21t-89.5 57t-54 83.5t-18 100.5t18 101t54 84t89 57
t123 21q66 0 116 -18t84.5 -48t53.5 -70t24 -85h-196z" />
    <glyph glyph-name="uni0442" unicode="&#x442;" horiz-adv-x="476" 
d="M466 497v-154h-135v-343h-186v343h-135v154h456z" />
    <glyph glyph-name="uni0443" unicode="&#x443;" horiz-adv-x="652" 
d="M322 -216q-70 0 -117.5 11t-82.5 39q-29 24 -49 59t-21 85h197q2 -31 21.5 -49t53.5 -18q38 0 57 19.5t19 67.5v90q-20 -39 -59.5 -61.5t-96.5 -22.5q-47 0 -82.5 15t-55.5 37q-28 29 -37 67.5t-9 94.5v279h197v-252q0 -45 15 -69.5t53 -24.5q75 0 75 103v243h196v-478
q0 -63 -21 -109.5t-54 -72.5q-18 -14 -37.5 -24t-43 -16.5t-52.5 -9.5t-66 -3z" />
    <glyph glyph-name="uni0444" unicode="&#x444;" horiz-adv-x="735" 
d="M300 -12q-65 1 -116 22.5t-86 57.5t-53.5 82.5t-18.5 97.5q0 52 18 98.5t53 82.5t86 57.5t117 23.5v190h135v-190q66 -2 117 -23.5t86 -57.5t53 -83t18 -98t-18 -97.5t-52.5 -82.5t-85.5 -57.5t-118 -22.5v-190h-135v190zM533 248q0 43 -25.5 72.5t-70.5 30.5h-2v-206h2
q45 0 70.5 30.5t25.5 72.5zM202 248q0 -42 25.5 -72.5t71.5 -30.5h1v206h-1q-46 -1 -71.5 -30.5t-25.5 -72.5z" />
    <glyph glyph-name="uni0445" unicode="&#x445;" horiz-adv-x="605" 
d="M599 0h-227l-70 131l-69 -131h-227l179 251l-176 246h227l66 -126l67 126h227l-175 -246z" />
    <glyph glyph-name="uni0446" unicode="&#x446;" horiz-adv-x="669" 
d="M479 -95v95h-421v497h185v-343h142v343h185v-343h76v-249h-167z" />
    <glyph glyph-name="uni0447" unicode="&#x447;" horiz-adv-x="577" 
d="M334 0v131h-125q-87 0 -134.5 43t-47.5 130v193h185v-167q0 -68 70 -68h52v235h186v-497h-186z" />
    <glyph glyph-name="uni0448" unicode="&#x448;" horiz-adv-x="900" 
d="M537 154h130v343h175v-497h-784v497h175v-343h130v343h174v-343z" />
    <glyph glyph-name="uni0449" unicode="&#x449;" horiz-adv-x="941" 
d="M751 -95v95h-693v497h175v-343h130v343h174v-343h130v343h175v-343h76v-249h-167z" />
    <glyph glyph-name="uni044A" unicode="&#x44a;" horiz-adv-x="633" 
d="M126 356h-114v141h297v-152h115q55 0 91.5 -15t58.5 -39t30.5 -55t8.5 -63q0 -28 -8.5 -58.5t-30.5 -56t-58.5 -42t-91.5 -16.5h-298v356zM309 227v-114h64q29 0 44.5 16t15.5 41t-15.5 41t-43.5 16h-65z" />
    <glyph glyph-name="uni044B" unicode="&#x44b;" horiz-adv-x="832" 
d="M578 497h196v-497h-196v497zM58 497h183v-152h115q55 0 91.5 -15t58.5 -39t30.5 -55t8.5 -63q0 -28 -8.5 -58.5t-30.5 -56t-58.5 -42t-91.5 -16.5h-298v497zM241 227v-114h64q28 0 43.5 16t15.5 41t-15 41t-43 16h-65z" />
    <glyph glyph-name="uni044C" unicode="&#x44c;" horiz-adv-x="565" 
d="M58 497h183v-152h115q55 0 91.5 -15t58.5 -39t30.5 -55t8.5 -63q0 -28 -8.5 -58.5t-30.5 -56t-58.5 -42t-91.5 -16.5h-298v497zM241 227v-114h64q28 0 43.5 16t15.5 41t-15 41t-43 16h-65z" />
    <glyph glyph-name="uni044D" unicode="&#x44d;" horiz-adv-x="622" 
d="M27 290q4 48 25 89t57.5 70t86.5 45.5t113 16.5q73 0 127 -21t89.5 -57t53 -84t17.5 -101t-17.5 -100.5t-53 -83.5t-89.5 -57t-127 -21q-63 0 -113.5 15.5t-86.5 44t-57 68t-25 87.5h197q6 -33 27.5 -53t63.5 -20q83 0 89 79h-134v80h134q-3 37 -24 59.5t-64 22.5
t-65 -22t-28 -57h-196z" />
    <glyph glyph-name="uni044E" unicode="&#x44e;" horiz-adv-x="876" 
d="M560 150q43 0 68 28.5t25 69.5q0 42 -25 70t-68 28q-42 0 -67.5 -28t-25.5 -70q0 -41 25.5 -69.5t67.5 -28.5zM243 172v-172h-185v497h185v-171h48q11 40 33.5 73.5t56.5 58.5t78.5 39t100.5 14q69 0 123 -20.5t91 -56.5t56.5 -84t19.5 -102t-19.5 -101.5t-56.5 -83
t-91 -56.5t-123 -21q-56 0 -101 14t-78.5 39t-56.5 59t-33 74h-48z" />
    <glyph glyph-name="uni044F" unicode="&#x44f;" horiz-adv-x="584" 
d="M127 156q-54 23 -78.5 64.5t-24.5 91.5q0 37 13.5 71t38 59t59 40t77.5 15h315v-497h-190v128h-31l-84 -128h-208zM337 250v124h-71q-27 0 -43.5 -18.5t-16.5 -43.5q0 -26 16.5 -44t44.5 -18h70z" />
    <glyph glyph-name="uni0451" unicode="&#x451;" horiz-adv-x="623" 
d="M223 207q1 -18 5.5 -34.5t14.5 -29t27 -20.5t43 -8q33 0 53.5 14t25.5 36h190q-6 -38 -26.5 -71t-54.5 -57t-81 -37.5t-105 -13.5q-68 0 -121.5 18.5t-90.5 53t-56.5 82.5t-19.5 108q0 54 18 102t53 83.5t88 56.5t124 21q68 0 120 -19.5t87.5 -51.5t54 -73.5t18.5 -85.5
q0 -17 -0.5 -34.5t-4.5 -39.5h-362zM310 389q-39 0 -63 -22.5t-24 -64.5h172q0 41 -23.5 64t-61.5 23zM332 645q0 22 8.5 41.5t23 34.5t34 23.5t42.5 8.5t43 -8.5t34.5 -23.5t23 -34.5t8.5 -41.5q0 -21 -8.5 -40.5t-23 -34t-34.5 -23t-43 -8.5t-42.5 8.5t-34 23t-23 34
t-8.5 40.5zM80 645q0 22 8.5 41.5t23 34.5t34 23.5t42.5 8.5t43 -8.5t35 -23.5t23.5 -34.5t8.5 -41.5q0 -21 -8.5 -40.5t-23.5 -34t-35 -23t-43 -8.5t-42.5 8.5t-34 23t-23 34t-8.5 40.5z" />
    <glyph glyph-name="uni0452" unicode="&#x452;" horiz-adv-x="648" 
d="M266 506v-140q20 38 60 62t99 24q43 0 73.5 -12t50.5 -34q28 -29 37 -72t9 -99v-275q0 -52 -11.5 -86t-33 -54t-51.5 -28t-66 -8h-117v144h44q47 0 49 44v223q0 45 -15 69.5t-53 24.5q-75 0 -75 -103v-186h-186v506h-73v99h73v95h186v-95h112v-99h-112z" />
    <glyph glyph-name="uni0453" unicode="&#x453;" horiz-adv-x="410" 
d="M94 523l-45 126l303 119l45 -126zM403 497v-154h-160v-343h-185v497h345z" />
    <glyph glyph-name="uni0454" unicode="&#x454;" horiz-adv-x="624" 
d="M399 290q-6 35 -28 57t-65 22t-64.5 -22.5t-23.5 -59.5h134v-80h-134q2 -38 25 -58.5t64 -20.5q42 0 63.5 20t27.5 53h197q-4 -48 -25 -87.5t-57 -68t-86.5 -44t-113.5 -15.5q-73 0 -127 21t-89.5 57t-53 83.5t-17.5 100.5t17.5 101t53 84t89.5 57t127 21q63 0 113 -16.5
t86.5 -45.5t57.5 -70t25 -89h-196z" />
    <glyph glyph-name="uni0455" unicode="&#x455;" horiz-adv-x="566" 
d="M352 305q39 -9 72.5 -19.5t57.5 -27t38 -41.5t14 -64q0 -49 -19.5 -81t-53.5 -51t-79.5 -27t-96.5 -8q-132 0 -194 48t-62 132h196q0 -31 17 -45.5t47 -14.5q23 0 36.5 9.5t13.5 26.5q0 11 -6 18.5t-19.5 13.5t-35 12.5t-53.5 15.5q-36 9 -69.5 18.5t-59.5 26t-41.5 41.5
t-15.5 65q0 85 63 121.5t187 36.5q67 0 113 -13t73.5 -35.5t39.5 -52.5t12 -65h-195q0 27 -14.5 40t-37.5 13q-18 0 -32 -8t-14 -27q0 -22 29.5 -32t88.5 -26z" />
    <glyph glyph-name="uni0456" unicode="&#x456;" horiz-adv-x="312" 
d="M58 497h196v-497h-196v497zM40 647q0 24 9 44.5t24.5 36.5t36.5 25t45 9q25 0 46 -9t36.5 -25t24.5 -36.5t9 -44.5q0 -23 -9 -43.5t-24.5 -36t-36.5 -24.5t-46 -9q-24 0 -45 9t-36.5 24.5t-24.5 36t-9 43.5z" />
    <glyph glyph-name="uni0457" unicode="&#x457;" horiz-adv-x="312" 
d="M58 497h196v-497h-196v497zM168 653q0 22 8.5 41.5t23 34t34 23t42.5 8.5t43 -8.5t34.5 -23t23 -34t8.5 -41.5t-8.5 -41t-23 -33.5t-34.5 -23t-43 -8.5t-42.5 8.5t-34 23t-23 33.5t-8.5 41zM-71 653q0 22 8.5 41.5t23 34t34 23t42.5 8.5t43 -8.5t35 -23t23.5 -34
t8.5 -41.5t-8.5 -41t-23.5 -33.5t-35 -23t-43 -8.5t-42.5 8.5t-34 23t-23 33.5t-8.5 41z" />
    <glyph glyph-name="uni0458" unicode="&#x458;" horiz-adv-x="312" 
d="M254 -40q0 -55 -12.5 -89.5t-34.5 -53.5t-52 -26t-65 -7q-16 0 -33 1t-33.5 3t-30 4.5t-22.5 5.5v138q13 -2 21.5 -3t19.5 -1q46 0 46 49v516h196v-537zM40 647q0 24 9 44.5t24.5 36.5t36.5 25t45 9q25 0 46 -9t36.5 -25t24.5 -36.5t9 -44.5q0 -23 -9 -43.5t-24.5 -36
t-36.5 -24.5t-46 -9q-24 0 -45 9t-36.5 24.5t-24.5 36t-9 43.5z" />
    <glyph glyph-name="uni0459" unicode="&#x459;" horiz-adv-x="914" 
d="M13 140h28q23 0 33.5 11.5t10.5 28.5v317h505v-158h115q54 0 90.5 -14.5t58 -38.5t31 -54.5t9.5 -62.5q0 -27 -9.5 -57t-31 -55t-58 -41t-90.5 -16h-300v343h-137v-184q0 -85 -42 -130t-145 -45h-68v156zM654 113q27 0 43.5 17t16.5 41t-16.5 40.5t-42.5 16.5h-65v-115
h64z" />
    <glyph glyph-name="uni045A" unicode="&#x45a;" horiz-adv-x="895" 
d="M686 339q54 0 90.5 -14.5t58 -38.5t31 -54.5t9.5 -62.5q0 -27 -9.5 -57t-31 -55t-58 -41t-90.5 -16h-301v186h-142v-186h-185v497h185v-158h142v158h186v-158h115zM571 228v-115h64q26 0 42.5 17t16.5 41t-16 40.5t-42 16.5h-65z" />
    <glyph glyph-name="uni045B" unicode="&#x45b;" horiz-adv-x="648" 
d="M80 506h-73v99h73v95h186v-95h112v-99h-112v-140q20 37 60 61t99 24q84 0 124 -45q28 -29 37 -72.5t9 -99.5v-234h-186v194q0 45 -15 69.5t-53 24.5q-75 0 -75 -103v-185h-186v506z" />
    <glyph glyph-name="uni045C" unicode="&#x45c;" horiz-adv-x="604" 
d="M243 299h9q19 0 32 13t31 43l43 72q25 43 60 59t91 16h55v-149h-18q-17 0 -32 -6.5t-28 -27.5l-20 -31q-11 -17 -26 -26t-33 -13l187 -249h-223l-128 201v-201h-185v497h185v-198zM185 523l-45 126l303 119l45 -126z" />
    <glyph glyph-name="uni045E" unicode="&#x45e;" horiz-adv-x="652" 
d="M322 -216q-70 0 -117.5 11t-82.5 39q-29 24 -49 59t-21 85h197q2 -31 21.5 -49t53.5 -18q38 0 57 19.5t19 67.5v90q-20 -39 -59.5 -61.5t-96.5 -22.5q-47 0 -82.5 15t-55.5 37q-28 29 -37 67.5t-9 94.5v279h197v-252q0 -45 15 -69.5t53 -24.5q75 0 75 103v243h196v-478
q0 -63 -21 -109.5t-54 -72.5q-18 -14 -37.5 -24t-43 -16.5t-52.5 -9.5t-66 -3zM331 677q38 0 58 21t28 50h143q-7 -46 -27.5 -81t-51 -59t-69 -36t-81.5 -12q-44 0 -82.5 12t-69 36t-50.5 59t-27 81h143q8 -29 28 -50t58 -21z" />
    <glyph glyph-name="uni045F" unicode="&#x45f;" horiz-adv-x="633" 
d="M235 -95v95h-177v497h185v-343h147v343h185v-497h-177v-95h-163z" />
    <glyph glyph-name="uni0462" unicode="&#x462;" horiz-adv-x="679" 
d="M295 289v-144h78q38 0 58 21t20 52q0 26 -17.5 48.5t-60.5 22.5h-78zM477 700v-154h-182v-111h162q46 0 84 -17t65 -46.5t41.5 -69t14.5 -84.5q0 -44 -14.5 -83.5t-41.5 -69.5t-65 -47.5t-84 -17.5h-371v546h-76v154h467z" />
    <glyph glyph-name="uni0463" unicode="&#x463;" horiz-adv-x="579" 
d="M72 485h-65v99h65v116h183v-116h111v-99h-111v-140h115q55 0 91.5 -15t58.5 -39t30.5 -55t8.5 -63q0 -28 -8.5 -58.5t-30.5 -56t-58.5 -42t-91.5 -16.5h-298v485zM255 227v-114h64q29 0 44.5 16t15.5 41t-15.5 41t-43.5 16h-65z" />
    <glyph glyph-name="uni0472" unicode="&#x472;" horiz-adv-x="811" 
d="M405 -19q-90 0 -160.5 30.5t-119 81.5t-74 118t-25.5 139t25.5 139t74 118t119 81.5t160.5 30.5t161 -30.5t119.5 -81.5t74 -118t25.5 -139t-25.5 -139t-74 -118t-119.5 -81.5t-161 -30.5zM405 529q-33 0 -60 -10.5t-48 -28.5t-35 -42.5t-20 -51.5h326q-6 27 -20 51.5
t-34.5 42.5t-48 28.5t-60.5 10.5zM405 171q33 0 60.5 10.5t48.5 29t34.5 43t19.5 52.5h-326q6 -28 19.5 -52.5t34.5 -43t48.5 -29t60.5 -10.5z" />
    <glyph glyph-name="uni0473" unicode="&#x473;" horiz-adv-x="631" 
d="M315 -14q-69 0 -123 21t-91 56.5t-56 83t-19 101.5t19 102t56 84t91 56.5t123 20.5t123 -20.5t91 -56.5t56.5 -84t19.5 -102t-19.5 -101.5t-56.5 -83t-91 -56.5t-123 -21zM315 346q-35 0 -58 -19.5t-31 -48.5h178q-8 29 -31 48.5t-58 19.5zM315 150q35 0 58 19.5t31 49.5
h-178q8 -30 31 -49.5t58 -19.5z" />
    <glyph glyph-name="uni0474" unicode="&#x474;" horiz-adv-x="761" 
d="M482 0h-220l-258 700h225l142 -479l110 363q11 36 27 60t38.5 38.5t52.5 20.5t69 6h86v-174h-23q-29 0 -47.5 -11t-33.5 -51z" />
    <glyph glyph-name="uni0475" unicode="&#x475;" horiz-adv-x="620" 
d="M397 0h-171l-222 497h203l105 -296l73 201q11 31 26 51t34.5 31t44.5 15.5t56 4.5h70v-154h-17q-20 0 -35 -8.5t-31 -42.5z" />
    <glyph glyph-name="uni048A" unicode="&#x48a;" horiz-adv-x="793" 
d="M377 875q38 0 58 21t28 50h143q-7 -46 -27.5 -81t-51 -59t-69 -36t-81.5 -12q-44 0 -82.5 12t-69 36t-50.5 59t-27 81h143q8 -29 28 -50t58 -21zM479 0v388l-210 -340v-48h-208v700h208v-388l210 340v48h208v-526h86v-279h-192v105h-102z" />
    <glyph glyph-name="uni048B" unicode="&#x48b;" horiz-adv-x="690" 
d="M332 677q38 0 58 21t28 50h143q-6 -46 -26.5 -81t-51 -59t-69.5 -36t-82 -12q-44 0 -82.5 12t-69 36t-50.5 59t-27 81h144q7 -29 27 -50t58 -21zM412 0v265l-169 -231v-34h-185v497h185v-274l169 232v42h185v-343h76v-249h-167v95h-94z" />
    <glyph glyph-name="uni048C" unicode="&#x48c;" horiz-adv-x="671" 
d="M287 700v-91h168v-103h-168v-71h163q46 0 84 -17t65 -46.5t41.5 -69t14.5 -84.5q0 -44 -14.5 -83.5t-41.5 -69.5t-65 -47.5t-84 -17.5h-371v506h-66v103h66v91h208zM287 289v-144h78q38 0 58 21t20 52q0 26 -17.5 48.5t-60.5 22.5h-78z" />
    <glyph glyph-name="uni048D" unicode="&#x48d;" horiz-adv-x="592" 
d="M78 371h-64v99h64v27h183v-27h113v-99h-113v-26h115q55 0 91.5 -15t58.5 -39t30.5 -55t8.5 -63q0 -28 -8.5 -58.5t-30.5 -56t-58.5 -42t-91.5 -16.5h-298v371zM261 227v-114h64q28 0 43.5 16t15.5 41t-15 41t-43 16h-65z" />
    <glyph glyph-name="uni048E" unicode="&#x48e;" horiz-adv-x="673" 
d="M61 700h336q60 0 108.5 -21t83 -56.5t53 -83t18.5 -100.5q0 -70 -32.5 -129.5t-92.5 -94.5l39 -49l-68 -50l-54 69q-27 -6 -55 -6h-128v-179h-208v700zM377 433l46 -58q25 25 25 64q0 41 -25 70t-67 29h-87v-198h72l-32 42z" />
    <glyph glyph-name="uni048F" unicode="&#x48f;" horiz-adv-x="668" 
d="M254 424q7 15 21.5 30.5t34.5 27.5t44.5 19.5t50.5 7.5q51 0 93.5 -18.5t73 -53t47.5 -82.5t17 -106q0 -73 -25 -128.5t-70 -87.5l39 -49l-68 -50l-50 64q-14 -5 -28 -7.5t-29 -2.5q-26 0 -50.5 7.5t-44.5 20t-34.5 28t-21.5 30.5v-277h-196v700h196v-73zM383 251l42 -52
q7 10 11 23t4 27q0 40 -25.5 69t-67.5 29t-67.5 -29t-25.5 -69q0 -38 23.5 -66.5t62.5 -30.5h6.5t6.5 1l-38 48z" />
    <glyph glyph-name="uni0490" unicode="&#x490;" horiz-adv-x="495" 
d="M61 700h282v105h152v-275h-226v-530h-208v700z" />
    <glyph glyph-name="uni0491" unicode="&#x491;" horiz-adv-x="418" 
d="M253 497v109h158v-263h-168v-343h-185v497h195z" />
    <glyph glyph-name="uni0492" unicode="&#x492;" horiz-adv-x="517" 
d="M288 415h94v-104h-94v-311h-208v311h-56v104h56v285h434v-178h-226v-107z" />
    <glyph glyph-name="uni0493" unicode="&#x493;" horiz-adv-x="436" 
d="M263 265h86v-99h-86v-166h-185v166h-56v99h56v232h345v-154h-160v-78z" />
    <glyph glyph-name="uni0494" unicode="&#x494;" horiz-adv-x="635" 
d="M249 555v-163q20 37 60.5 61t99.5 24q84 0 124 -45q28 -29 38 -72.5t10 -99.5v-300q0 -52 -12 -86t-33.5 -54t-51.5 -28t-66 -8h-119v149h44q47 0 49 44v243q0 45 -15 69.5t-53 24.5q-75 0 -75 -103v-211h-188v700h332v-145h-144z" />
    <glyph glyph-name="uni0495" unicode="&#x495;" horiz-adv-x="611" 
d="M244 497v-225q17 38 55 62t93 24q41 0 70 -12t48 -34q28 -29 37.5 -72t9.5 -99v-181q0 -52 -12 -86t-34 -54t-52.5 -28t-67.5 -8q-11 0 -28 1t-33.5 2.5t-31 3t-21.5 3.5v137q8 -2 22 -2.5t22 -0.5q49 0 49 48v135q0 40 -13.5 62t-46.5 22q-66 0 -66 -93v-102h-186v497
h186z" />
    <glyph glyph-name="uni0496" unicode="&#x496;" horiz-adv-x="1056" 
d="M863 -105v105h-51l-183 299v-299h-202v299l-183 -299h-239l250 351q-28 8 -48.5 26t-34.5 42l-33 62q-17 29 -36.5 39.5t-44.5 10.5h-21v174h62q62 0 109.5 -22t76.5 -80l51 -101q22 -44 39.5 -63t43.5 -19h8v280h202v-280h8q26 0 43.5 19t39.5 63l51 101q29 58 76.5 80
t109.5 22h62v-174h-21q-25 0 -44.5 -10.5t-36.5 -39.5l-33 -62q-14 -24 -34.5 -42t-48.5 -26l250 -351v-105h-188z" />
    <glyph glyph-name="uni0497" unicode="&#x497;" horiz-adv-x="849" 
d="M213 0h-208l180 249q-17 5 -32 16t-24 28l-17 28q-11 18 -24 26.5t-36 8.5h-23v146h62q27 0 49 -3.5t39.5 -12t32 -24t27.5 -39.5l40 -75q11 -20 22 -31t28 -11h7v191h177v-191h6q18 0 29 11t22 31l40 75q13 24 27 39.5t32 24t39.5 12t49.5 3.5h62v-146h-23
q-24 0 -37 -8.5t-24 -26.5l-16 -28q-10 -17 -25 -28t-32 -16l181 -249v-95h-157v95h-51l-123 201v-201h-177v201z" />
    <glyph glyph-name="uni0498" unicode="&#x498;" horiz-adv-x="654" 
d="M240 237q0 -45 20.5 -68.5t60.5 -23.5q38 0 55 21.5t17 48.5q0 39 -21 58t-69 19h-77v142h76q53 0 71.5 20.5t18.5 52.5q0 30 -18.5 46.5t-50.5 16.5q-39 0 -57 -21t-18 -59h-219q0 40 13.5 81t47 73t90.5 52.5t144 20.5q57 0 108.5 -10t91.5 -33.5t63.5 -61.5t23.5 -94
q0 -31 -11 -57.5t-28.5 -47t-39.5 -34t-45 -18.5q25 -6 48.5 -20t41 -36t28 -51t10.5 -64q0 -47 -20 -83.5t-53.5 -62t-78 -40.5t-92.5 -19v-38q6 7 17.5 12.5t31.5 5.5q19 0 35 -8t26.5 -20.5t16.5 -29t6 -33.5q0 -21 -7.5 -39.5t-22 -32.5t-36 -22.5t-50.5 -8.5
q-22 0 -42 6.5t-36 18.5t-26 30.5t-11 42.5h84q2 -12 10 -20t21 -8q14 0 23 9.5t9 23.5q0 13 -8.5 22t-21.5 9q-22 0 -29 -15h-77v95q-75 5 -125 26.5t-81 55t-44 77t-13 93.5h219z" />
    <glyph glyph-name="uni0499" unicode="&#x499;" horiz-adv-x="549" 
d="M215 169q0 -29 13.5 -45t43.5 -16q21 0 34 11t13 31q0 55 -77 55h-54v99h51q42 0 60.5 14t18.5 39q0 20 -13.5 31t-34.5 11q-29 0 -40 -16t-11 -42h-195q0 30 11 60.5t39.5 55t77.5 39.5t125 15q48 0 91 -8.5t74.5 -25.5t50 -44.5t18.5 -64.5q0 -29 -9.5 -50t-25.5 -34.5
t-35.5 -20.5t-40.5 -9q24 -2 44.5 -9.5t36.5 -22t25 -36t9 -50.5q0 -34 -17 -60.5t-44.5 -45.5t-64 -30t-75.5 -15v-34q5 7 17 12.5t31 5.5q20 0 35.5 -8t26.5 -20.5t17 -29t6 -33.5q0 -21 -7.5 -39.5t-22 -32.5t-36.5 -22.5t-50 -8.5q-22 0 -42.5 6.5t-36 18.5t-26 30.5
t-11.5 42.5h84q2 -12 10.5 -20t21.5 -8q14 0 22.5 9.5t8.5 23.5q0 13 -8 22t-22 9q-21 0 -28 -15h-77v91q-61 4 -101.5 20.5t-64.5 41t-34 56t-10 66.5h198z" />
    <glyph glyph-name="uni049A" unicode="&#x49a;" horiz-adv-x="714" 
d="M517 -105v105h-56l-192 299v-299h-208v700h208v-272h14q24 0 44 15.5t43 55.5l57 101q32 58 74 81.5t104 23.5h70v-181h-22q-26 0 -45 -9.5t-37 -38.5l-36 -56q-13 -21 -33 -40.5t-49 -30.5l252 -349v-105h-188z" />
    <glyph glyph-name="uni049B" unicode="&#x49b;" horiz-adv-x="604" 
d="M438 -95v95h-67l-128 201v-201h-185v497h185v-198h9q19 0 32 13t31 43l43 72q25 43 60 59t91 16h55v-149h-18q-17 0 -32 -6.5t-28 -27.5l-20 -31q-11 -17 -26 -26t-33 -13l187 -249v-95h-156z" />
    <glyph glyph-name="uni049C" unicode="&#x49c;" horiz-adv-x="714" 
d="M326 425q21 0 37.5 17t34.5 57l45 101q27 60 70.5 82.5t104.5 22.5h57v-181h-12q-23 0 -42.5 -8.5t-33.5 -36.5l-27 -54q-11 -23 -27 -40t-40 -26l212 -359h-237l-142 293v-99h-28v99h-29v-293h-208v700h208v-275h29v128h28v-128z" />
    <glyph glyph-name="uni049D" unicode="&#x49d;" horiz-adv-x="604" 
d="M289 301h2q12 3 21 16.5t22 37.5l36 72q20 45 55 60t90 15h49v-152h-8q-17 0 -30 -4.5t-24 -19.5l-19 -31q-11 -17 -22 -27.5t-26 -14.5l159 -253h-207l-98 201v-92h-25v92h-21v-201h-185v497h185v-198h21v64h25v-62z" />
    <glyph glyph-name="uni049E" unicode="&#x49e;" horiz-adv-x="731" 
d="M79 700h208v-91h63v-100h-63v-81h14q23 0 43 15.5t43 55.5l57 101q32 58 74 81.5t105 23.5h70v-181h-23q-25 0 -44 -9.5t-38 -38.5l-35 -56q-13 -21 -33 -40.5t-49 -30.5l252 -349h-244l-192 299v-299h-208v509h-66v100h66v91z" />
    <glyph glyph-name="uni049F" unicode="&#x49f;" horiz-adv-x="624" 
d="M77 497h186v-30h50v-96h-50v-72h8q19 0 32.5 13t30.5 43l43 72q25 43 60 59t91 16h56v-149h-18q-18 0 -33 -6.5t-28 -27.5l-20 -31q-11 -17 -25.5 -26t-33.5 -13l188 -249h-224l-127 201v-201h-186v371h-65v96h65v30z" />
    <glyph glyph-name="uni04A0" unicode="&#x4a0;" horiz-adv-x="794" 
d="M10 522v178h339l1 -272h14q23 0 43 15.5t43 55.5l57 101q32 58 74 81.5t105 23.5h70v-181h-23q-25 0 -44 -9.5t-38 -38.5l-35 -56q-13 -21 -33 -40.5t-49 -30.5l252 -349h-244l-192 299v-299h-209v522h-131z" />
    <glyph glyph-name="uni04A1" unicode="&#x4a1;" horiz-adv-x="673" 
d="M12 356v141h300v-198h8q19 0 32.5 13t30.5 43l43 72q25 43 60 59t91 16h56v-149h-18q-18 0 -33 -6.5t-28 -27.5l-20 -31q-11 -17 -25.5 -26t-33.5 -13l188 -249h-224l-127 201v-201h-186v356h-114z" />
    <glyph glyph-name="uni04A2" unicode="&#x4a2;" horiz-adv-x="776" 
d="M464 0v261h-195v-261h-208v700h208v-266h195v266h209v-526h85v-280h-192v106h-102z" />
    <glyph glyph-name="uni04A3" unicode="&#x4a3;" horiz-adv-x="671" 
d="M390 173h-147v-173h-185v497h185v-170h147v170h185v-343h76v-249h-167v95h-94v173z" />
    <glyph glyph-name="uni04A4" unicode="&#x4a4;" horiz-adv-x="827" 
d="M673 0h-209v261h-195v-261h-208v700h208v-266h195v266h353v-178h-144v-522z" />
    <glyph glyph-name="uni04A5" unicode="&#x4a5;" horiz-adv-x="718" 
d="M706 497v-141h-131v-356h-185v173h-147v-173h-185v497h185v-170h147v170h316z" />
    <glyph glyph-name="uni04A6" unicode="&#x4a6;" horiz-adv-x="786" 
d="M269 526v-526h-208v700h611v-526h95v-280h-192v106h-111v526h-195z" />
    <glyph glyph-name="uni04A7" unicode="&#x4a7;" horiz-adv-x="661" 
d="M572 154h76v-249h-167v95h-95v343h-143v-343h-185v497h514v-343z" />
    <glyph glyph-name="uni04A8" unicode="&#x4a8;" horiz-adv-x="838" 
d="M343 529q-60 -4 -91.5 -50t-31.5 -117q0 -39 11 -73.5t32 -61.5t51 -45t68 -24v322q0 60 16.5 105t44.5 74.5t65 44t79 14.5q47 0 87.5 -11.5t70 -38.5t46.5 -72.5t17 -113.5v-123q0 -61 -17.5 -118.5t-51 -105.5t-83 -83.5t-112.5 -53.5v-30q6 -35 55 -35h47v-148h-95
q-37 0 -68 7.5t-53 27t-34.5 51.5t-13.5 82v30q-85 6 -151 38t-111.5 82.5t-69.5 115.5t-24 137q0 76 21.5 141t62 113.5t99.5 77t134 31.5v-190zM633 359v131q0 38 -10 58t-34 20q-46 0 -46 -76v-305q43 25 66 71t24 101z" />
    <glyph glyph-name="uni04A9" unicode="&#x4a9;" horiz-adv-x="644" 
d="M254 351q-37 -5 -54.5 -33t-17.5 -70q0 -45 23.5 -77.5t69.5 -40.5v210q0 50 15 83t39 52.5t53 27.5t58 8q30 0 59.5 -8t53.5 -27.5t38.5 -52t14.5 -81.5v-89q0 -44 -13.5 -84t-39 -74t-63.5 -59t-86 -38v-57q1 -36 39 -36h34v-121h-63q-30 0 -55.5 6t-44 22.5t-29 45
t-10.5 73.5v57q-59 5 -105.5 28.5t-78.5 59.5t-48.5 83t-16.5 98q0 54 15 99.5t44 79t71.5 53.5t97.5 22v-160zM456 255v55q0 45 -6 64t-20 19q-26 0 -26 -54v-185q25 17 38.5 43t13.5 58z" />
    <glyph glyph-name="uni04AA" unicode="&#x4aa;" horiz-adv-x="801" 
d="M557 412q-9 50 -46 84t-102 34q-42 0 -74 -15t-53 -39.5t-32 -57t-11 -68.5q0 -38 12 -71t34.5 -57t54.5 -38t73 -14q58 0 96 31t48 75h220q-8 -57 -33.5 -107.5t-67 -89.5t-98 -64.5t-127.5 -31.5v-36q6 7 17.5 12.5t31.5 5.5q19 0 35 -8t26.5 -20.5t16.5 -29t6 -33.5
q0 -21 -7.5 -39.5t-22 -32.5t-36 -22.5t-50.5 -8.5q-22 0 -42 6.5t-36 18.5t-26 30.5t-11 42.5h84q2 -12 10 -20t21 -8q14 0 23 9.5t9 23.5q0 13 -8.5 22t-21.5 9q-22 0 -29 -15h-77v93q-80 7 -143 40t-106.5 82.5t-66 112.5t-22.5 132q0 73 25.5 139.5t74.5 117.5
t118.5 81.5t158.5 30.5q85 0 151 -24t112.5 -66t74 -98t34.5 -119h-218z" />
    <glyph glyph-name="uni04AB" unicode="&#x4ab;" horiz-adv-x="617" 
d="M251 -9q-55 9 -97 32.5t-70 58t-42.5 77t-14.5 89.5q0 53 18 101t54 84t89 57t123 21q66 0 116 -18t84.5 -48t53.5 -70t24 -85h-196q-5 26 -24.5 42.5t-55.5 16.5q-23 0 -40 -8.5t-28 -22.5t-16.5 -32t-5.5 -38t5.5 -38t16.5 -32t29 -22t42 -8q32 0 50 14t26 39h197
q-5 -43 -23.5 -80.5t-50 -66t-76 -46t-101.5 -21.5v-36q5 7 17 12.5t31 5.5q20 0 35.5 -8t26.5 -20.5t17 -29t6 -33.5q0 -21 -7.5 -39.5t-22 -32.5t-36.5 -22.5t-50 -8.5q-22 0 -42.5 6.5t-36 18.5t-26 30.5t-11.5 42.5h84q2 -12 10.5 -20t21.5 -8q14 0 22.5 9.5t8.5 23.5
q0 13 -8 22t-22 9q-21 0 -28 -15h-77v97z" />
    <glyph glyph-name="uni04AC" unicode="&#x4ac;" horiz-adv-x="536" 
d="M164 522h-144v178h496v-178h-144v-348h85v-280h-192v106h-101v522z" />
    <glyph glyph-name="uni04AD" unicode="&#x4ad;" horiz-adv-x="476" 
d="M466 497v-154h-135v-189h75v-249h-166v95h-95v343h-135v154h456z" />
    <glyph glyph-name="uni04AE" unicode="&#x4ae;" horiz-adv-x="715" 
d="M357 451l117 249h234l-247 -458v-242h-207v242l-247 458h234z" />
    <glyph glyph-name="uni04AF" unicode="&#x4af;" horiz-adv-x="605" 
d="M302 229l92 268h205l-194 -462v-238h-206v238l-192 462h205z" />
    <glyph glyph-name="uni04B0" unicode="&#x4b0;" horiz-adv-x="715" 
d="M461 133v-133h-207v133h-109v103h103v16l-241 448h234l116 -249l117 249h234l-242 -448v-16h104v-103h-109z" />
    <glyph glyph-name="uni04B1" unicode="&#x4b1;" horiz-adv-x="605" 
d="M302 229l92 268h205l-194 -462v-35h81v-99h-81v-104h-206v104h-80v99h80v35l-192 462h205z" />
    <glyph glyph-name="uni04B2" unicode="&#x4b2;" horiz-adv-x="669" 
d="M483 -100v100h-48l-101 200l-101 -200h-227l208 350l-208 350h227l101 -200l101 200h228l-208 -350l208 -350v-100h-180z" />
    <glyph glyph-name="uni04B3" unicode="&#x4b3;" horiz-adv-x="605" 
d="M443 -95v95h-71l-70 131l-69 -131h-227l179 251l-176 246h227l66 -126l67 126h227l-175 -246l178 -251v-95h-156z" />
    <glyph glyph-name="uni04B4" unicode="&#x4b4;" horiz-adv-x="863" 
d="M362 174h181v526h209v-526h95v-279h-189v105h-504v522h-144v178h457v-178h-105v-348z" />
    <glyph glyph-name="uni04B5" unicode="&#x4b5;" horiz-adv-x="745" 
d="M319 154h142v343h185v-343h76v-249h-167v95h-421v356h-122v141h381v-141h-74v-202z" />
    <glyph glyph-name="uni04B6" unicode="&#x4b6;" horiz-adv-x="725" 
d="M403 0v194h-145q-53 0 -96 17t-74.5 47t-48.5 71t-17 90v281h208v-236q0 -66 28.5 -93t77.5 -27h67v356h209v-526h95v-280h-193v106h-111z" />
    <glyph glyph-name="uni04B7" unicode="&#x4b7;" horiz-adv-x="612" 
d="M331 0v131h-126q-87 0 -134.5 43t-47.5 130v193h186v-167q0 -68 70 -68h52v235h185v-343h76v-249h-167v95h-94z" />
    <glyph glyph-name="uni04B8" unicode="&#x4b8;" horiz-adv-x="673" 
d="M356 344h47v356h209v-700h-209v194h-47v-69h-45v69h-57q-52 1 -94.5 18t-73 47t-47.5 71t-17 89v281h208v-236q0 -57 21.5 -84.5t59.5 -33.5v77h45v-79z" />
    <glyph glyph-name="uni04B9" unicode="&#x4b9;" horiz-adv-x="574" 
d="M296 262h35v235h185v-497h-185v131h-35v-73h-37v73h-54q-87 0 -134.5 43t-47.5 130v193h186v-167q0 -59 50 -66v78h37v-80z" />
    <glyph glyph-name="uni04BA" unicode="&#x4ba;" horiz-adv-x="645" 
d="M61 700h188v-187h103q77 0 119.5 -19.5t68.5 -48.5q26 -28 39 -72t13 -123v-250h-188v240q0 56 -23 82t-74 26h-58v-348h-188v700z" />
    <glyph glyph-name="uni04BB" unicode="&#x4bb;" horiz-adv-x="626" 
d="M58 700h186v-276q20 37 60 61t99 24q84 0 124 -45q28 -29 37 -72.5t9 -99.5v-292h-186v252q0 45 -15 69.5t-53 24.5q-75 0 -75 -103v-243h-186v700z" />
    <glyph glyph-name="uni04BC" unicode="&#x4bc;" horiz-adv-x="979" 
d="M953 363v-13.5t-0.5 -18t-1 -18t-0.5 -12.5h-531q9 -66 47.5 -103.5t111.5 -37.5q62 0 94.5 24.5t46.5 58.5h223q-9 -48 -37 -95t-74 -83.5t-109 -59t-142 -22.5q-84 0 -150.5 25t-114 68t-75.5 101t-36 124h-64q-30 0 -54.5 10t-42 28t-27 43t-9.5 54v58h126v-39
q0 -21 12 -34t32 -13h28q9 65 38 121.5t76.5 98.5t113 66.5t147.5 24.5q86 0 155 -28.5t117 -77.5t74 -113.5t26 -136.5zM576 543q-62 0 -104 -34.5t-50 -100.5h314q-8 63 -50 99t-110 36z" />
    <glyph glyph-name="uni04BD" unicode="&#x4bd;" horiz-adv-x="778" 
d="M380 207q1 -18 5.5 -34.5t14.5 -29t27.5 -20.5t43.5 -8q33 0 53 14t26 36h190q-6 -38 -27 -71t-55 -57t-81 -37.5t-105 -13.5q-125 0 -198.5 59t-86.5 162h-45q-60 0 -97 37t-37 95v58h123v-48q0 -21 12 -34t32 -13h14q8 45 29.5 83t56.5 66t83 44t110 16q68 0 120 -19.5
t87.5 -51.5t54 -73.5t18.5 -85.5q0 -17 -1 -34.5t-5 -39.5h-362zM467 389q-38 0 -62.5 -22.5t-24.5 -64.5h172q0 41 -23 64t-62 23z" />
    <glyph glyph-name="uni04BE" unicode="&#x4be;" horiz-adv-x="979" 
d="M520 -13q-71 9 -126 36.5t-95 69t-63.5 95t-30.5 113.5h-64q-30 0 -54.5 10t-42 28t-27 43t-9.5 54v58h126v-39q0 -21 12 -34t32 -13h28q9 65 38 121.5t76.5 98.5t113 66.5t147.5 24.5q86 0 155 -28.5t117 -77.5t74 -113.5t26 -136.5v-13.5t-0.5 -18t-1 -18t-0.5 -12.5
h-531q9 -66 47.5 -103.5t111.5 -37.5q62 0 94.5 24.5t46.5 58.5h223q-8 -44 -32 -87t-63.5 -78.5t-94 -60t-121.5 -31.5q-13 -12 -20.5 -28t-7.5 -36q0 -21 12 -37t34 -16q12 0 27 3t29 9l-4 -78q-23 -8 -45.5 -11.5t-53.5 -3.5q-72 0 -104.5 28.5t-32.5 68.5q0 57 54 102z
M576 543q-62 0 -104 -34.5t-50 -100.5h314q-8 63 -50 99t-110 36z" />
    <glyph glyph-name="uni04BF" unicode="&#x4bf;" horiz-adv-x="778" 
d="M408 -9q-96 14 -153 70.5t-68 145.5h-45q-60 0 -97 37t-37 95v58h123v-48q0 -21 12 -34t32 -13h14q8 45 29.5 83t56.5 66t83 44t110 16q68 0 120 -19.5t87.5 -51.5t54 -73.5t18.5 -85.5q0 -17 -1 -34.5t-5 -39.5h-362q1 -18 5.5 -34.5t14.5 -29t27.5 -20.5t43.5 -8
q33 0 53 14t26 36h190q-6 -35 -23 -65t-45 -53t-66.5 -38.5t-86.5 -20.5q-14 -12 -25 -28.5t-11 -37.5t12 -37t34 -16q12 0 27 3t29 9l-4 -78q-23 -8 -45.5 -11.5t-53.5 -3.5q-71 0 -103.5 28.5t-32.5 68.5q0 55 62 106zM467 389q-38 0 -62.5 -22.5t-24.5 -64.5h172
q0 41 -23 64t-62 23z" />
    <glyph glyph-name="uni04C0" unicode="&#x4c0;" horiz-adv-x="332" 
d="M61 700h210v-700h-210v700z" />
    <glyph glyph-name="uni04C3" unicode="&#x4c3;" horiz-adv-x="704" 
d="M269 402h17q24 0 42 14t38 56l61 128q28 60 71.5 82.5t106.5 22.5h70v-181h-22q-26 0 -45 -9.5t-37 -38.5l-40 -63q-8 -13 -23.5 -27t-34.5 -21q76 -12 118 -62q21 -25 31 -63t10 -101v-179q0 -52 -13 -86t-36.5 -54t-56.5 -28t-73 -8q-11 0 -28 1t-34 2.5t-31.5 3
t-21.5 3.5v141q7 -2 21 -2h23q23 0 36 11.5t13 35.5v186q0 57 -20 84.5t-69 27.5h-73v-278h-208v700h208v-298z" />
    <glyph glyph-name="uni04C4" unicode="&#x4c4;" horiz-adv-x="613" 
d="M243 298h9q19 0 32 13t31 44l43 72q25 43 60 59t91 16h55v-149h-18q-17 0 -32 -6.5t-28 -27.5l-19 -29q-8 -12 -19.5 -20.5t-29.5 -13.5q34 -6 56.5 -19t39.5 -33q35 -39 35 -115v-130q0 -52 -12 -86t-34 -53.5t-53 -27.5t-69 -8h-108v144h36q51 0 54 44v142q0 40 -16 62
t-55 22h-49v-198h-185v497h185v-199z" />
    <glyph glyph-name="uni04C5" unicode="&#x4c5;" horiz-adv-x="793" 
d="M10 141h46q49 0 49 40v519h594v-597h85l-73 -194h-191l34 91h-63v526h-178v-368q0 -52 -14.5 -86t-41 -53.5t-62 -27.5t-77.5 -8h-108v158z" />
    <glyph glyph-name="uni04C6" unicode="&#x4c6;" horiz-adv-x="680" 
d="M13 140h28q44 0 44 40v317h505v-394h78l-73 -194h-168l34 91h-56v343h-137v-184q0 -85 -42 -130t-145 -45h-68v156z" />
    <glyph glyph-name="uni04C7" unicode="&#x4c7;" horiz-adv-x="733" 
d="M673 -40q0 -52 -11.5 -86t-33 -54t-51.5 -28t-66 -8h-139v149h44q48 0 48 44v284h-195v-261h-208v700h208v-266h195v266h209v-740z" />
    <glyph glyph-name="uni04C8" unicode="&#x4c8;" horiz-adv-x="630" 
d="M575 -40q0 -55 -11.5 -89.5t-31.5 -53.5t-47.5 -26t-59.5 -7q-5 0 -23.5 0.5t-40 1t-39 1t-19.5 1.5v144q3 -1 9 -1.5t12.5 -0.5h12h6.5q23 0 35 10.5t12 34.5v198h-147v-173h-185v497h185v-170h147v170h185v-537z" />
    <glyph glyph-name="uni04C9" unicode="&#x4c9;" horiz-adv-x="743" 
d="M464 261h-195v-261h-208v700h208v-266h195v266h209v-597h85l-73 -194h-192l34 91h-63v261z" />
    <glyph glyph-name="uni04CA" unicode="&#x4ca;" horiz-adv-x="668" 
d="M390 173h-147v-173h-185v497h185v-170h147v170h185v-394h78l-73 -194h-168l34 91h-56v173z" />
    <glyph glyph-name="uni04CB" unicode="&#x4cb;" horiz-adv-x="673" 
d="M510 0v-105h-192v208h85v91h-145q-53 0 -96 17t-74.5 47t-48.5 71t-17 90v281h208v-236q0 -66 28.5 -93t77.5 -27h67v356h209v-700h-102z" />
    <glyph glyph-name="uni04CC" unicode="&#x4cc;" horiz-adv-x="612" 
d="M331 0v131h-126q-87 0 -134.5 43t-47.5 130v193h186v-167q0 -68 70 -68h52v235h185v-343h76v-249h-167v95h-94z" />
    <glyph glyph-name="uni04CD" unicode="&#x4cd;" horiz-adv-x="975" 
d="M881 103h85l-73 -194h-191l34 91h-57v434l-127 -434h-154l-135 434v-434h-202v700h265l148 -452l149 452h258v-597z" />
    <glyph glyph-name="uni04CE" unicode="&#x4ce;" horiz-adv-x="886" 
d="M794 103h77l-73 -194h-164l34 91h-57v323l-123 -323h-125l-122 323v-323h-183v497h264l104 -311l104 311h264v-394z" />
    <glyph glyph-name="uni04D0" unicode="&#x4d0;" horiz-adv-x="748" 
d="M744 0h-232l-24 81h-235l-24 -81h-225l258 700h218zM297 232h148l-74 258zM371 875q38 0 58 21t28 50h143q-6 -46 -26.5 -81t-51 -59t-69.5 -36t-82 -12q-44 0 -82.5 12t-69 36t-50.5 59t-27 81h144q7 -29 27 -50t58 -21z" />
    <glyph glyph-name="uni04D1" unicode="&#x4d1;" horiz-adv-x="662" 
d="M605 497v-497h-197v74q-6 -15 -20.5 -30.5t-34.5 -28t-44.5 -20.5t-51.5 -8q-51 0 -93.5 19t-73 53t-47.5 82t-17 107q0 58 17 106.5t47.5 82.5t73 53t93.5 19q27 0 51.5 -7.5t44.5 -20t34.5 -28t20.5 -30.5v74h197zM315 150q42 0 67.5 29t25.5 69q0 41 -25.5 69.5
t-67.5 28.5t-67.5 -28.5t-25.5 -69.5q0 -40 25.5 -69t67.5 -29zM332 677q38 0 58 21t28 50h143q-6 -46 -26.5 -81t-51 -59t-69.5 -36t-82 -12q-44 0 -82.5 12t-69 36t-50.5 59t-27 81h144q7 -29 27 -50t58 -21z" />
    <glyph glyph-name="uni04D2" unicode="&#x4d2;" horiz-adv-x="748" 
d="M744 0h-232l-24 81h-235l-24 -81h-225l258 700h218zM297 232h148l-74 258zM389 849q0 22 8.5 41.5t23 34.5t34 23.5t42.5 8.5t43 -8.5t34.5 -23.5t23 -34.5t8.5 -41.5q0 -21 -8.5 -40.5t-23 -34t-34.5 -23t-43 -8.5t-42.5 8.5t-34 23t-23 34t-8.5 40.5zM137 849
q0 22 8.5 41.5t23 34.5t34 23.5t42.5 8.5t43 -8.5t34.5 -23.5t23 -34.5t8.5 -41.5q0 -21 -8.5 -40.5t-23 -34t-34.5 -23t-43 -8.5t-42.5 8.5t-34 23t-23 34t-8.5 40.5z" />
    <glyph glyph-name="uni04D3" unicode="&#x4d3;" horiz-adv-x="662" 
d="M408 0v74q-6 -15 -20.5 -30.5t-34.5 -28t-44.5 -20.5t-51.5 -8q-51 0 -93.5 19t-73 53t-47.5 82t-17 107q0 58 17 106.5t47.5 82.5t73 53t93.5 19q27 0 51.5 -7.5t44.5 -20t34.5 -28t20.5 -30.5v74h197v-497h-197zM315 150q42 0 67.5 29t25.5 69q0 41 -25.5 69.5
t-67.5 28.5t-67.5 -28.5t-25.5 -69.5q0 -40 25.5 -69t67.5 -29zM438 539q-23 0 -42.5 8.5t-34 23t-23 34t-8.5 40.5q0 22 8.5 41.5t23 34.5t34 23.5t42.5 8.5t43 -8.5t34.5 -23.5t23 -34.5t8.5 -41.5q0 -21 -8.5 -40.5t-23 -34t-34.5 -23t-43 -8.5zM186 539q-23 0 -42.5 8.5
t-34 23t-23 34t-8.5 40.5q0 22 8.5 41.5t23 34.5t34 23.5t42.5 8.5t43 -8.5t34.5 -23.5t23 -34.5t8.5 -41.5q0 -21 -8.5 -40.5t-23 -34t-34.5 -23t-43 -8.5z" />
    <glyph glyph-name="uni04D4" unicode="&#x4d4;" horiz-adv-x="956" 
d="M660 544v-122h242v-149h-242v-117h242v-156h-450v81h-187l-34 -81h-227l331 700h567v-156h-242zM452 232v286l-124 -286h124z" />
    <glyph glyph-name="uni04D5" unicode="&#x4d5;" horiz-adv-x="1009" 
d="M580 497v-6q52 20 117 20q68 0 120 -19.5t87.5 -51.5t54 -73.5t18.5 -85.5q0 -17 -1 -34.5t-5 -39.5h-360q0 -18 4 -34.5t14.5 -29t27.5 -20.5t43 -8q33 0 53 14t26 36h190q-6 -38 -27 -71t-54.5 -57t-80.5 -37.5t-106 -13.5q-66 0 -120 20v-6h-167v74
q-7 -15 -21.5 -30.5t-34.5 -28t-44.5 -20.5t-51.5 -8q-51 0 -93.5 19t-73 53t-47.5 82t-17 107q0 58 17 106.5t47.5 82.5t73 53t93.5 19q27 0 51.5 -7.5t44.5 -20t34.5 -28t21.5 -30.5v74h166zM697 386q-38 0 -61.5 -21t-24.5 -63h171q0 39 -23.5 61.5t-61.5 22.5zM320 150
q42 0 68 29t26 69q0 42 -26 70t-68 28q-41 0 -66.5 -28.5t-25.5 -69.5q0 -40 25.5 -69t66.5 -29z" />
    <glyph glyph-name="uni04D6" unicode="&#x4d6;" horiz-adv-x="566" 
d="M269 544v-122h243v-149h-243v-117h243v-156h-451v700h451v-156h-243zM290 875q38 0 58 21t28 50h143q-6 -46 -26.5 -81t-51 -59t-69.5 -36t-82 -12q-44 0 -82.5 12t-69 36t-50.5 59t-27 81h144q7 -29 27 -50t58 -21z" />
    <glyph glyph-name="uni04D7" unicode="&#x4d7;" horiz-adv-x="623" 
d="M223 207q1 -18 5.5 -34.5t14.5 -29t27.5 -20.5t43.5 -8q33 0 53 14t26 36h190q-6 -38 -27 -71t-55 -57t-81 -37.5t-105 -13.5q-68 0 -121 18.5t-90.5 53t-57 82.5t-19.5 108q0 54 18 102t53.5 83.5t88.5 56.5t124 21q68 0 120 -19.5t87.5 -51.5t54 -73.5t18.5 -85.5
q0 -17 -1 -34.5t-5 -39.5h-362zM310 389q-38 0 -62.5 -22.5t-24.5 -64.5h172q0 41 -23 64t-62 23zM314 677q38 0 58 21t28 50h143q-7 -46 -27.5 -81t-51 -59t-69 -36t-81.5 -12q-44 0 -82.5 12t-69 36t-50.5 59t-27 81h143q8 -29 28 -50t58 -21z" />
    <glyph glyph-name="uni04D8" unicode="&#x4d8;" horiz-adv-x="803" 
d="M36 459q9 48 37 95t74 83.5t109 59t142 22.5q92 0 163 -29.5t119 -80t72.5 -117.5t24.5 -141q0 -75 -25 -142t-73.5 -117t-119 -79.5t-161.5 -29.5q-86 0 -155 29t-117 77.5t-74 113.5t-26 137v13t0.5 18.5t1 18t0.5 13.5h535q-8 65 -48 102t-115 37q-62 0 -94.5 -24.5
t-46.5 -58.5h-223zM403 159q63 0 107 34.5t52 102.5h-319q8 -65 50 -101t110 -36z" />
    <glyph glyph-name="uni04D9" unicode="&#x4d9;" horiz-adv-x="623" 
d="M313 108q38 0 62.5 22.5t24.5 64.5h-172q0 -41 23 -64t62 -23zM400 290q-1 18 -5.5 34.5t-14.5 29.5t-27.5 20.5t-43.5 7.5q-33 0 -53 -13.5t-26 -35.5h-190q6 38 27 70.5t55 56.5t80.5 37.5t105.5 13.5q67 0 120.5 -18.5t91 -52.5t57 -82.5t19.5 -108.5
q0 -54 -18 -101.5t-53.5 -83.5t-88.5 -57t-124 -21q-68 0 -120 19.5t-87.5 51.5t-54 73.5t-18.5 85.5q0 17 1 34.5t5 39.5h362z" />
    <glyph glyph-name="uni04DA" unicode="&#x4da;" horiz-adv-x="803" 
d="M36 459q9 48 37 95t74 83.5t109 59t142 22.5q92 0 163 -29.5t119 -80t72.5 -117.5t24.5 -141q0 -75 -25 -142t-73.5 -117t-119 -79.5t-161.5 -29.5q-86 0 -155 29t-117 77.5t-74 113.5t-26 137v13t0.5 18.5t1 18t0.5 13.5h535q-8 65 -48 102t-115 37q-62 0 -94.5 -24.5
t-46.5 -58.5h-223zM403 159q63 0 107 34.5t52 102.5h-319q8 -65 50 -101t110 -36zM277 743q-23 0 -42.5 8.5t-34 23t-23 34t-8.5 40.5q0 22 8.5 41.5t23 34.5t34 23.5t42.5 8.5t43 -8.5t34.5 -23.5t23 -34.5t8.5 -41.5q0 -21 -8.5 -40.5t-23 -34t-34.5 -23t-43 -8.5z
M421 849q0 22 8.5 41.5t23 34.5t34 23.5t42.5 8.5t43 -8.5t34.5 -23.5t23 -34.5t8.5 -41.5q0 -21 -8.5 -40.5t-23 -34t-34.5 -23t-43 -8.5t-42.5 8.5t-34 23t-23 34t-8.5 40.5z" />
    <glyph glyph-name="uni04DB" unicode="&#x4db;" horiz-adv-x="623" 
d="M400 290q-1 18 -5.5 34.5t-14.5 29.5t-27.5 20.5t-43.5 7.5q-33 0 -53 -13.5t-26 -35.5h-190q6 38 27 70.5t55 56.5t80.5 37.5t105.5 13.5q67 0 120.5 -18.5t91 -52.5t57 -82.5t19.5 -108.5q0 -54 -18 -101.5t-53.5 -83.5t-88.5 -57t-124 -21q-68 0 -120 19.5t-87.5 51.5
t-54 73.5t-18.5 85.5q0 17 1 34.5t5 39.5h362zM313 108q38 0 62.5 22.5t24.5 64.5h-172q0 -41 23 -64t62 -23zM333 645q0 22 8.5 41.5t23 34.5t34 23.5t42.5 8.5t43 -8.5t34.5 -23.5t23 -34.5t8.5 -41.5q0 -21 -8.5 -40.5t-23 -34t-34.5 -23t-43 -8.5t-42.5 8.5t-34 23
t-23 34t-8.5 40.5zM81 645q0 22 8.5 41.5t23 34.5t34 23.5t42.5 8.5t43 -8.5t34.5 -23.5t23 -34.5t8.5 -41.5q0 -21 -8.5 -40.5t-23 -34t-34.5 -23t-43 -8.5t-42.5 8.5t-34 23t-23 34t-8.5 40.5z" />
    <glyph glyph-name="uni04DC" unicode="&#x4dc;" horiz-adv-x="1056" 
d="M244 0h-239l250 351q-28 8 -48.5 26t-34.5 42l-33 62q-17 29 -36.5 39.5t-44.5 10.5h-21v174h62q62 0 109.5 -22t76.5 -80l51 -101q22 -44 39.5 -63t43.5 -19h8v280h202v-280h8q26 0 43.5 19t39.5 63l51 101q29 58 76.5 80t109.5 22h62v-174h-21q-25 0 -44.5 -10.5
t-36.5 -39.5l-33 -62q-14 -24 -34.5 -42t-48.5 -26l250 -351h-239l-183 299v-299h-202v299zM546 849q0 22 8.5 41.5t23 34.5t34 23.5t42.5 8.5t43 -8.5t34.5 -23.5t23 -34.5t8.5 -41.5q0 -21 -8.5 -40.5t-23 -34t-34.5 -23t-43 -8.5t-42.5 8.5t-34 23t-23 34t-8.5 40.5z
M294 849q0 22 8.5 41.5t23 34.5t34 23.5t42.5 8.5t43 -8.5t35 -23.5t23.5 -34.5t8.5 -41.5q0 -21 -8.5 -40.5t-23.5 -34t-35 -23t-43 -8.5t-42.5 8.5t-34 23t-23 34t-8.5 40.5z" />
    <glyph glyph-name="uni04DD" unicode="&#x4dd;" horiz-adv-x="849" 
d="M213 0h-208l180 249q-17 5 -32 16t-24 28l-17 28q-11 18 -24 26.5t-36 8.5h-23v146h62q27 0 49 -3.5t39.5 -12t32 -24t27.5 -39.5l40 -75q11 -20 22 -31t28 -11h7v191h177v-191h6q18 0 29 11t22 31l40 75q13 24 27 39.5t32 24t39.5 12t49.5 3.5h62v-146h-23
q-24 0 -37 -8.5t-24 -26.5l-16 -28q-10 -17 -25 -28t-32 -16l181 -249h-208l-123 201v-201h-177v201zM299 539q-23 0 -42.5 8.5t-34 23t-23 34t-8.5 40.5q0 22 8.5 41.5t23 34.5t34 23.5t42.5 8.5t43 -8.5t34.5 -23.5t23 -34.5t8.5 -41.5q0 -21 -8.5 -40.5t-23 -34
t-34.5 -23t-43 -8.5zM551 539q-23 0 -42.5 8.5t-34 23t-23 34t-8.5 40.5q0 22 8.5 41.5t23 34.5t34 23.5t42.5 8.5t43 -8.5t34.5 -23.5t23 -34.5t8.5 -41.5q0 -21 -8.5 -40.5t-23 -34t-34.5 -23t-43 -8.5z" />
    <glyph glyph-name="uni04DE" unicode="&#x4de;" horiz-adv-x="654" 
d="M240 237q0 -45 20.5 -68.5t60.5 -23.5q38 0 55 21.5t17 48.5q0 39 -21 58t-69 19h-77v142h76q53 0 71.5 20.5t18.5 52.5q0 30 -18.5 46.5t-50.5 16.5q-39 0 -57 -21t-18 -59h-219q0 40 13.5 81t47 73t90.5 52.5t144 20.5q57 0 108.5 -10t91.5 -33.5t63.5 -61.5t23.5 -94
q0 -31 -11 -57.5t-28.5 -47t-39.5 -34t-45 -18.5q25 -6 48.5 -20t41 -36t28 -51t10.5 -64q0 -52 -24.5 -91t-64.5 -64.5t-91.5 -38.5t-106.5 -13q-87 0 -146 20t-95 54.5t-51 80.5t-15 99h219zM198 751q-23 0 -42.5 8.5t-34 23t-23 34t-8.5 40.5q0 22 8.5 41.5t23 34.5
t34 23.5t42.5 8.5t43 -8.5t35 -23.5t23.5 -34.5t8.5 -41.5q0 -21 -8.5 -40.5t-23.5 -34t-35 -23t-43 -8.5zM342 857q0 22 8.5 41.5t23 34.5t34 23.5t42.5 8.5t43 -8.5t34.5 -23.5t23 -34.5t8.5 -41.5q0 -21 -8.5 -40.5t-23 -34t-34.5 -23t-43 -8.5t-42.5 8.5t-34 23t-23 34
t-8.5 40.5z" />
    <glyph glyph-name="uni04DF" unicode="&#x4df;" horiz-adv-x="549" 
d="M215 169q0 -29 13.5 -45t43.5 -16q21 0 34 11t13 31q0 55 -77 55h-54v99h51q42 0 60.5 14t18.5 39q0 20 -13.5 31t-34.5 11q-29 0 -40 -16t-11 -42h-195q0 30 11 60.5t39.5 55t77.5 39.5t125 15q48 0 91 -8.5t74.5 -25.5t50 -44.5t18.5 -64.5q0 -29 -9.5 -50t-25.5 -34.5
t-35.5 -20.5t-40.5 -9q24 -2 44.5 -9.5t36.5 -22t25 -36t9 -50.5q0 -38 -21 -67t-55 -48t-77.5 -28.5t-87.5 -9.5q-75 0 -125 15t-79 40.5t-41 59t-12 71.5h198zM155 539q-23 0 -42.5 8.5t-34 23t-23 34t-8.5 40.5q0 22 8.5 41.5t23 34.5t34 23.5t42.5 8.5t43 -8.5t35 -23.5
t23.5 -34.5t8.5 -41.5q0 -21 -8.5 -40.5t-23.5 -34t-35 -23t-43 -8.5zM286 645q0 22 8.5 41.5t23 34.5t34 23.5t42.5 8.5t43 -8.5t34.5 -23.5t23 -34.5t8.5 -41.5q0 -21 -8.5 -40.5t-23 -34t-34.5 -23t-43 -8.5t-42.5 8.5t-34 23t-23 34t-8.5 40.5z" />
    <glyph glyph-name="uni04E0" unicode="&#x4e0;" horiz-adv-x="658" 
d="M238 235q0 -38 21.5 -64t63.5 -26q40 0 57.5 23.5t17.5 52.5q0 41 -22 61t-73 20h-102l130 228h-254v170h535l-165 -289q34 -6 64.5 -22t53 -41t35.5 -58.5t13 -74.5q0 -58 -24 -101.5t-64 -72.5t-91.5 -43.5t-106.5 -14.5q-85 0 -143.5 19.5t-95 53t-52.5 79.5t-16 100
h218z" />
    <glyph glyph-name="uni04E1" unicode="&#x4e1;" horiz-adv-x="618" 
d="M225 16q2 -33 19.5 -55t53.5 -22q38 0 56 26t18 68q0 51 -27.5 74.5t-75.5 23.5h-101l135 199h-235v167h524l-174 -283q33 -6 62 -22.5t51 -42t34.5 -59t12.5 -73.5q0 -60 -23 -104t-61 -72.5t-87 -42.5t-102 -14q-82 0 -138 17.5t-90 48.5t-49 73.5t-15 92.5h212z" />
    <glyph glyph-name="uni04E2" unicode="&#x4e2;" horiz-adv-x="748" 
d="M479 388l-210 -340v-48h-208v700h208v-388l210 340v48h208v-700h-208v388zM569 785h-378v132h378v-132z" />
    <glyph glyph-name="uni04E3" unicode="&#x4e3;" horiz-adv-x="655" 
d="M412 265l-169 -231v-34h-185v497h185v-274l169 232v42h185v-497h-185v265zM515 579h-378v132h378v-132z" />
    <glyph glyph-name="uni04E4" unicode="&#x4e4;" horiz-adv-x="748" 
d="M479 388l-210 -340v-48h-208v700h208v-388l210 340v48h208v-700h-208v388zM397 849q0 22 8.5 41.5t23 34.5t34 23.5t42.5 8.5t43 -8.5t34.5 -23.5t23 -34.5t8.5 -41.5q0 -21 -8.5 -40.5t-23 -34t-34.5 -23t-43 -8.5t-42.5 8.5t-34 23t-23 34t-8.5 40.5zM145 849
q0 22 8.5 41.5t23 34.5t34 23.5t42.5 8.5t43 -8.5t35 -23.5t23.5 -34.5t8.5 -41.5q0 -21 -8.5 -40.5t-23.5 -34t-35 -23t-43 -8.5t-42.5 8.5t-34 23t-23 34t-8.5 40.5z" />
    <glyph glyph-name="uni04E5" unicode="&#x4e5;" horiz-adv-x="655" 
d="M412 265l-169 -231v-34h-185v497h185v-274l169 232v42h185v-497h-185v265zM206 539q-23 0 -42.5 8.5t-34 23t-23 34t-8.5 40.5q0 22 8.5 41.5t23 34.5t34 23.5t42.5 8.5t43 -8.5t34.5 -23.5t23 -34.5t8.5 -41.5q0 -21 -8.5 -40.5t-23 -34t-34.5 -23t-43 -8.5zM458 539
q-23 0 -42.5 8.5t-34 23t-23 34t-8.5 40.5q0 22 8.5 41.5t23 34.5t34 23.5t42.5 8.5t43 -8.5t34.5 -23.5t23 -34.5t8.5 -41.5q0 -21 -8.5 -40.5t-23 -34t-34.5 -23t-43 -8.5z" />
    <glyph glyph-name="uni04E6" unicode="&#x4e6;" horiz-adv-x="811" 
d="M405 -19q-90 0 -160.5 30.5t-119 81.5t-74 118t-25.5 139t25.5 139t74 118t119 81.5t160.5 30.5t161 -30.5t119.5 -81.5t74 -118t25.5 -139t-25.5 -139t-74 -118t-119.5 -81.5t-161 -30.5zM236 350q0 -35 11.5 -67.5t33 -57t53 -39.5t71.5 -15t71.5 15t53 39.5t33 57
t11.5 67.5t-11.5 67.5t-33 57t-53 39.5t-71.5 15t-71.5 -15t-53 -39.5t-33 -57t-11.5 -67.5zM275 746q-23 0 -42.5 8.5t-34 23t-23 34t-8.5 40.5q0 22 8.5 41.5t23 34.5t34 23.5t42.5 8.5t43 -8.5t35 -23.5t23.5 -34.5t8.5 -41.5q0 -21 -8.5 -40.5t-23.5 -34t-35 -23
t-43 -8.5zM419 852q0 22 8.5 41.5t23 34.5t34 23.5t42.5 8.5t43 -8.5t34.5 -23.5t23 -34.5t8.5 -41.5q0 -21 -8.5 -40.5t-23 -34t-34.5 -23t-43 -8.5t-42.5 8.5t-34 23t-23 34t-8.5 40.5z" />
    <glyph glyph-name="uni04E7" unicode="&#x4e7;" horiz-adv-x="631" 
d="M185 539q-23 0 -42.5 8.5t-34 23t-23 34t-8.5 40.5q0 22 8.5 41.5t23 34.5t34 23.5t42.5 8.5t43 -8.5t35 -23.5t23.5 -34.5t8.5 -41.5q0 -21 -8.5 -40.5t-23.5 -34t-35 -23t-43 -8.5zM329 645q0 22 8.5 41.5t23 34.5t34 23.5t42.5 8.5t43 -8.5t34.5 -23.5t23 -34.5
t8.5 -41.5q0 -21 -8.5 -40.5t-23 -34t-34.5 -23t-43 -8.5t-42.5 8.5t-34 23t-23 34t-8.5 40.5zM315 150q43 0 68 28.5t25 69.5q0 42 -25 70t-68 28q-42 0 -67.5 -28t-25.5 -70q0 -41 25.5 -69.5t67.5 -28.5zM315 -14q-69 0 -123 21t-91 56.5t-56 83t-19 101.5t19 102t56 84
t91 56.5t123 20.5t123 -20.5t91 -56.5t56.5 -84t19.5 -102t-19.5 -101.5t-56.5 -83t-91 -56.5t-123 -21z" />
    <glyph glyph-name="uni04E8" unicode="&#x4e8;" horiz-adv-x="811" 
d="M405 -19q-90 0 -160.5 30.5t-119 81.5t-74 118t-25.5 139t25.5 139t74 118t119 81.5t160.5 30.5t161 -30.5t119.5 -81.5t74 -118t25.5 -139t-25.5 -139t-74 -118t-119.5 -81.5t-161 -30.5zM405 529q-33 0 -60 -10.5t-48 -28.5t-35 -42.5t-20 -51.5h326q-6 27 -20 51.5
t-34.5 42.5t-48 28.5t-60.5 10.5zM405 171q33 0 60.5 10.5t48.5 29t34.5 43t19.5 52.5h-326q6 -28 19.5 -52.5t34.5 -43t48.5 -29t60.5 -10.5z" />
    <glyph glyph-name="uni04E9" unicode="&#x4e9;" horiz-adv-x="631" 
d="M315 -14q-69 0 -123 21t-91 56.5t-56 83t-19 101.5t19 102t56 84t91 56.5t123 20.5t123 -20.5t91 -56.5t56.5 -84t19.5 -102t-19.5 -101.5t-56.5 -83t-91 -56.5t-123 -21zM315 346q-35 0 -58 -19.5t-31 -48.5h178q-8 29 -31 48.5t-58 19.5zM315 150q35 0 58 19.5t31 49.5
h-178q8 -30 31 -49.5t58 -19.5z" />
    <glyph glyph-name="uni04EA" unicode="&#x4ea;" horiz-adv-x="811" 
d="M405 -19q-90 0 -160.5 30.5t-119 81.5t-74 118t-25.5 139t25.5 139t74 118t119 81.5t160.5 30.5t161 -30.5t119.5 -81.5t74 -118t25.5 -139t-25.5 -139t-74 -118t-119.5 -81.5t-161 -30.5zM405 529q-33 0 -60 -10.5t-48 -28.5t-35 -42.5t-20 -51.5h326q-6 27 -20 51.5
t-34.5 42.5t-48 28.5t-60.5 10.5zM405 171q33 0 60.5 10.5t48.5 29t34.5 43t19.5 52.5h-326q6 -28 19.5 -52.5t34.5 -43t48.5 -29t60.5 -10.5zM427 854q0 22 8 41t22.5 33.5t33.5 23t42 8.5t42.5 -8.5t34 -23t23 -33.5t8.5 -41q0 -21 -8.5 -40.5t-23 -33.5t-34 -22.5
t-42.5 -8.5t-42 8.5t-33.5 22.5t-22.5 33.5t-8 40.5zM281 749q-23 0 -42.5 8.5t-33.5 22.5t-22.5 33.5t-8.5 40.5q0 22 8.5 41t22.5 33.5t33.5 23t42.5 8.5t43 -8.5t34.5 -23t22.5 -33.5t8 -41q0 -21 -8 -40.5t-22.5 -33.5t-34.5 -22.5t-43 -8.5z" />
    <glyph glyph-name="uni04EB" unicode="&#x4eb;" horiz-adv-x="631" 
d="M315 -14q-69 0 -123 21t-91 56.5t-56 83t-19 101.5t19 102t56 84t91 56.5t123 20.5t123 -20.5t91 -56.5t56.5 -84t19.5 -102t-19.5 -101.5t-56.5 -83t-91 -56.5t-123 -21zM315 346q-35 0 -58 -19.5t-31 -48.5h178q-8 29 -31 48.5t-58 19.5zM315 150q35 0 58 19.5t31 49.5
h-178q8 -30 31 -49.5t58 -19.5zM334 652q0 22 8 41.5t22.5 34t34 23t42.5 8.5t42.5 -8.5t34 -23t22.5 -34t8 -41.5q0 -21 -8 -40t-22.5 -33t-34 -22.5t-42.5 -8.5t-42.5 8.5t-34 22.5t-22.5 33t-8 40zM188 548q-23 0 -42 8.5t-33.5 22.5t-22.5 33t-8 40q0 22 8 41.5t22.5 34
t33.5 23t42 8.5t43 -8.5t34.5 -23t23 -34t8.5 -41.5q0 -21 -8.5 -40t-23 -33t-34.5 -22.5t-43 -8.5z" />
    <glyph glyph-name="uni04EC" unicode="&#x4ec;" horiz-adv-x="793" 
d="M329 402h217q-10 58 -48 93t-98 35q-69 0 -106.5 -34t-47.5 -84h-218q7 63 33.5 119t72 98t110 66t147.5 24q89 0 159 -28.5t118 -78t73.5 -117t25.5 -145.5q0 -79 -25.5 -146.5t-74.5 -117t-120 -77.5t-162 -28q-79 0 -141.5 23.5t-108 63.5t-73 94t-36.5 114h219
q11 -44 50.5 -75t102.5 -31q59 0 97 30.5t49 90.5h-215v111zM266 743q-23 0 -42.5 8.5t-34 23t-23 34t-8.5 40.5q0 22 8.5 41.5t23 34.5t34 23.5t42.5 8.5t43 -8.5t35 -23.5t23.5 -34.5t8.5 -41.5q0 -21 -8.5 -40.5t-23.5 -34t-35 -23t-43 -8.5zM410 849q0 22 8.5 41.5
t23 34.5t34 23.5t42.5 8.5t43 -8.5t34.5 -23.5t23 -34.5t8.5 -41.5q0 -21 -8.5 -40.5t-23 -34t-34.5 -23t-43 -8.5t-42.5 8.5t-34 23t-23 34t-8.5 40.5z" />
    <glyph glyph-name="uni04ED" unicode="&#x4ed;" horiz-adv-x="621" 
d="M26 290q4 48 25.5 89t57.5 70t86 45.5t113 16.5q73 0 127.5 -21t89.5 -57t52.5 -84t17.5 -101t-17.5 -100.5t-52.5 -83.5t-89.5 -57t-127.5 -21q-63 0 -113.5 15.5t-86.5 44t-57 68t-25 87.5h197q6 -33 27.5 -53t63.5 -20q84 0 90 79h-135v80h135q-3 37 -24 59.5
t-65 22.5q-43 0 -64.5 -22t-27.5 -57h-197zM189 539q-23 0 -42.5 8.5t-34 23t-23 34t-8.5 40.5q0 22 8.5 41.5t23 34.5t34 23.5t42.5 8.5t43 -8.5t35 -23.5t23.5 -34.5t8.5 -41.5q0 -21 -8.5 -40.5t-23.5 -34t-35 -23t-43 -8.5zM333 645q0 22 8.5 41.5t23 34.5t34.5 23.5
t43 8.5t42.5 -8.5t34 -23.5t23 -34.5t8.5 -41.5q0 -21 -8.5 -40.5t-23 -34t-34 -23t-42.5 -8.5t-43 8.5t-34.5 23t-23 34t-8.5 40.5z" />
    <glyph glyph-name="uni04EE" unicode="&#x4ee;" horiz-adv-x="683" 
d="M345 0h-234l121 247l-235 453h244l113 -249l106 249h232zM544 785h-378v132h378v-132z" />
    <glyph glyph-name="uni04EF" unicode="&#x4ef;" horiz-adv-x="652" 
d="M322 -216q-70 0 -117.5 11t-82.5 39q-29 24 -49 59t-21 85h197q2 -31 21.5 -49t53.5 -18q38 0 57 19.5t19 67.5v90q-20 -39 -59.5 -61.5t-96.5 -22.5q-47 0 -82.5 15t-55.5 37q-28 29 -37 67.5t-9 94.5v279h197v-252q0 -45 15 -69.5t53 -24.5q75 0 75 103v243h196v-478
q0 -63 -21 -109.5t-54 -72.5q-18 -14 -37.5 -24t-43 -16.5t-52.5 -9.5t-66 -3zM525 579h-378v132h378v-132z" />
    <glyph glyph-name="uni04F0" unicode="&#x4f0;" horiz-adv-x="683" 
d="M345 0h-234l121 247l-235 453h244l113 -249l106 249h232zM371 849q0 22 8 41t22.5 33.5t34 23t42.5 8.5t42.5 -8.5t34 -23t22.5 -33.5t8 -41q0 -21 -8 -40.5t-22.5 -33.5t-34 -22.5t-42.5 -8.5t-42.5 8.5t-34 22.5t-22.5 33.5t-8 40.5zM119 849q0 22 8 41t22.5 33.5
t33.5 23t42 8.5t43 -8.5t34.5 -23t23 -33.5t8.5 -41q0 -21 -8.5 -40.5t-23 -33.5t-34.5 -22.5t-43 -8.5t-42 8.5t-33.5 22.5t-22.5 33.5t-8 40.5z" />
    <glyph glyph-name="uni04F1" unicode="&#x4f1;" horiz-adv-x="652" 
d="M322 -216q-70 0 -117.5 11t-82.5 39q-29 24 -49 59t-21 85h197q2 -31 21.5 -49t53.5 -18q38 0 57 19.5t19 67.5v90q-20 -39 -59.5 -61.5t-96.5 -22.5q-47 0 -82.5 15t-55.5 37q-28 29 -37 67.5t-9 94.5v279h197v-252q0 -45 15 -69.5t53 -24.5q75 0 75 103v243h196v-478
q0 -63 -21 -109.5t-54 -72.5q-18 -14 -37.5 -24t-43 -16.5t-52.5 -9.5t-66 -3zM346 645q0 22 8 41.5t22.5 34t34 23t42.5 8.5t42.5 -8.5t34 -23t23 -34t8.5 -41.5q0 -21 -8.5 -40t-23 -33t-34 -22.5t-42.5 -8.5t-42.5 8.5t-34 22.5t-22.5 33t-8 40zM94 645q0 22 8.5 41.5
t22.5 34t33.5 23t42.5 8.5t42.5 -8.5t34 -23t23 -34t8.5 -41.5q0 -21 -8.5 -40t-23 -33t-34 -22.5t-42.5 -8.5t-42.5 8.5t-33.5 22.5t-22.5 33t-8.5 40z" />
    <glyph glyph-name="uni04F2" unicode="&#x4f2;" horiz-adv-x="683" 
d="M345 0h-234l121 247l-235 453h244l113 -249l106 249h232zM494 987l116 -74l-169 -146l-72 28zM299 987l116 -74l-169 -146l-72 28z" />
    <glyph glyph-name="uni04F3" unicode="&#x4f3;" horiz-adv-x="652" 
d="M322 -216q-70 0 -117.5 11t-82.5 39q-29 24 -49 59t-21 85h197q2 -31 21.5 -49t53.5 -18q38 0 57 19.5t19 67.5v90q-20 -39 -59.5 -61.5t-96.5 -22.5q-47 0 -82.5 15t-55.5 37q-28 29 -37 67.5t-9 94.5v279h197v-252q0 -45 15 -69.5t53 -24.5q75 0 75 103v243h196v-478
q0 -63 -21 -109.5t-54 -72.5q-18 -14 -37.5 -24t-43 -16.5t-52.5 -9.5t-66 -3zM236 551l-72 28l125 193l116 -75zM431 551l-72 28l125 193l116 -75z" />
    <glyph glyph-name="uni04F4" unicode="&#x4f4;" horiz-adv-x="673" 
d="M403 0v194h-145q-53 0 -96 17t-74.5 47t-48.5 71t-17 90v281h208v-236q0 -66 28.5 -93t77.5 -27h67v356h209v-700h-209zM341 849q0 22 8 41t22.5 33.5t33.5 23t42 8.5t42.5 -8.5t34 -23t23 -33.5t8.5 -41q0 -21 -8.5 -40.5t-23 -33.5t-34 -22.5t-42.5 -8.5t-42 8.5
t-33.5 22.5t-22.5 33.5t-8 40.5zM88 849q0 22 8.5 41t22.5 33.5t33.5 23t42.5 8.5t43 -8.5t34.5 -23t22.5 -33.5t8 -41q0 -21 -8 -40.5t-22.5 -33.5t-34.5 -22.5t-43 -8.5t-42.5 8.5t-33.5 22.5t-22.5 33.5t-8.5 40.5z" />
    <glyph glyph-name="uni04F5" unicode="&#x4f5;" horiz-adv-x="578" 
d="M334 0v131h-125q-87 0 -134.5 43t-47.5 130v193h185v-167q0 -68 70 -68h52v235h186v-497h-186zM291 645q0 22 8.5 41.5t23 34.5t34.5 23.5t43 8.5t42.5 -8.5t34 -23.5t23 -34.5t8.5 -41.5q0 -21 -8.5 -40.5t-23 -34t-34 -23t-42.5 -8.5t-43 8.5t-34.5 23t-23 34
t-8.5 40.5zM42 645q0 22 8.5 41.5t23 34.5t34.5 23.5t43 8.5t43 -8.5t34.5 -23.5t23 -34.5t8.5 -41.5q0 -21 -8.5 -40.5t-23 -34t-34.5 -23t-43 -8.5t-43 8.5t-34.5 23t-23 34t-8.5 40.5z" />
    <glyph glyph-name="uni04F8" unicode="&#x4f8;" horiz-adv-x="935" 
d="M269 700v-265h155q46 0 84 -17t65 -46.5t41.5 -69t14.5 -84.5q0 -44 -14.5 -83.5t-41.5 -69.5t-65 -47.5t-84 -17.5h-363v700h208zM269 289v-144h70q38 0 58 21t20 52q0 13 -4 26t-13 23t-24 16t-37 6h-70zM666 700h208v-700h-208v700zM495 848q0 22 8 41.5t22.5 34
t34 23t42.5 8.5t42.5 -8.5t34 -23t22.5 -34t8 -41.5q0 -21 -8 -40t-22.5 -33t-34 -22.5t-42.5 -8.5t-42.5 8.5t-34 22.5t-22.5 33t-8 40zM243 848q0 22 8 41.5t22.5 34t33.5 23t42 8.5t43 -8.5t34.5 -23t23 -34t8.5 -41.5q0 -21 -8.5 -40t-23 -33t-34.5 -22.5t-43 -8.5
t-42 8.5t-33.5 22.5t-22.5 33t-8 40z" />
    <glyph glyph-name="uni04F9" unicode="&#x4f9;" horiz-adv-x="832" 
d="M578 497h196v-497h-196v497zM58 497h183v-152h115q55 0 91.5 -15t58.5 -39t30.5 -55t8.5 -63q0 -28 -8.5 -58.5t-30.5 -56t-58.5 -42t-91.5 -16.5h-298v497zM241 227v-114h64q28 0 43.5 16t15.5 41t-15 41t-43 16h-65zM430 645q0 22 8.5 41.5t23 34.5t34.5 23.5t43 8.5
t42.5 -8.5t34 -23.5t23 -34.5t8.5 -41.5q0 -21 -8.5 -40.5t-23 -34t-34 -23t-42.5 -8.5t-43 8.5t-34.5 23t-23 34t-8.5 40.5zM178 645q0 22 8.5 41.5t23 34.5t34 23.5t42.5 8.5t43 -8.5t35 -23.5t23.5 -34.5t8.5 -41.5q0 -21 -8.5 -40.5t-23.5 -34t-35 -23t-43 -8.5
t-42.5 8.5t-34 23t-23 34t-8.5 40.5z" />
    <glyph glyph-name="Wgrave" unicode="&#x1e80;" horiz-adv-x="1088" 
d="M544 381l-117 -381h-181l-252 700h220l124 -418l123 418h166l122 -418l125 418h220l-252 -700h-182zM370 850l44 126l303 -119l-44 -126z" />
    <glyph glyph-name="wgrave" unicode="&#x1e81;" horiz-adv-x="853" 
d="M426 267l-75 -267h-175l-178 497h198l79 -277l64 277h175l64 -277l79 277h198l-178 -497h-175zM253 642l44 126l303 -119l-44 -126z" />
    <glyph glyph-name="Wacute" unicode="&#x1e82;" horiz-adv-x="1088" 
d="M544 381l-117 -381h-181l-252 700h220l124 -418l123 418h166l122 -418l125 418h220l-252 -700h-182zM414 731l-44 126l303 119l44 -126z" />
    <glyph glyph-name="wacute" unicode="&#x1e83;" horiz-adv-x="853" 
d="M426 267l-75 -267h-175l-178 497h198l79 -277l64 277h175l64 -277l79 277h198l-178 -497h-175zM297 523l-44 126l303 119l44 -126z" />
    <glyph glyph-name="Wdieresis" unicode="&#x1e84;" horiz-adv-x="1088" 
d="M544 381l-117 -381h-181l-252 700h220l124 -418l123 418h166l122 -418l125 418h220l-252 -700h-182zM562 857q0 22 8 41t22.5 33.5t34 23t42.5 8.5t42.5 -8.5t34 -23t23 -33.5t8.5 -41q0 -21 -8.5 -40.5t-23 -33.5t-34 -22.5t-42.5 -8.5t-42.5 8.5t-34 22.5t-22.5 33.5
t-8 40.5zM310 857q0 22 8.5 41t22.5 33.5t33.5 23t42.5 8.5t42.5 -8.5t34 -23t23 -33.5t8.5 -41q0 -21 -8.5 -40.5t-23 -33.5t-34 -22.5t-42.5 -8.5t-42.5 8.5t-33.5 22.5t-22.5 33.5t-8.5 40.5z" />
    <glyph glyph-name="wdieresis" unicode="&#x1e85;" horiz-adv-x="853" 
d="M426 267l-75 -267h-175l-178 497h198l79 -277l64 277h175l64 -277l79 277h198l-178 -497h-175zM445 645q0 22 8 41t22.5 33.5t34 23t42.5 8.5t42.5 -8.5t34 -23t23 -33.5t8.5 -41q0 -21 -8.5 -40.5t-23 -33.5t-34 -22.5t-42.5 -8.5t-42.5 8.5t-34 22.5t-22.5 33.5
t-8 40.5zM193 645q0 22 8.5 41t22.5 33.5t33.5 23t42.5 8.5t42.5 -8.5t34 -23t23 -33.5t8.5 -41q0 -21 -8.5 -40.5t-23 -33.5t-34 -22.5t-42.5 -8.5t-42.5 8.5t-33.5 22.5t-22.5 33.5t-8.5 40.5z" />
    <glyph glyph-name="Ygrave" unicode="&#x1ef2;" horiz-adv-x="679" 
d="M345 0h-234l121 247l-235 453h244l113 -249l106 249h232zM165 850l45 126l303 -119l-45 -126z" />
    <glyph glyph-name="ygrave" unicode="&#x1ef3;" horiz-adv-x="652" 
d="M322 -216q-70 0 -117.5 11t-82.5 39q-29 24 -49 59t-21 85h197q2 -31 21.5 -49t53.5 -18q38 0 57 19.5t19 67.5v90q-20 -39 -59.5 -61.5t-96.5 -22.5q-47 0 -82.5 15t-55.5 37q-28 29 -37 67.5t-9 94.5v279h197v-252q0 -45 15 -69.5t53 -24.5q75 0 75 103v243h196v-478
q0 -63 -21 -109.5t-54 -72.5q-18 -14 -37.5 -24t-43 -16.5t-52.5 -9.5t-66 -3zM152 642l45 126l303 -119l-45 -126z" />
    <glyph glyph-name="thinspace" unicode="&#x2009;" horiz-adv-x="202" 
 />
    <glyph glyph-name="endash" unicode="&#x2013;" horiz-adv-x="503" 
d="M30 236v148h443v-148h-443z" />
    <glyph glyph-name="emdash" unicode="&#x2014;" horiz-adv-x="1006" 
d="M40 236v148h926v-148h-926z" />
    <glyph glyph-name="quoteleft" unicode="&#x2018;" horiz-adv-x="314" 
d="M281 474q0 -24 -9 -45t-24 -37t-35.5 -25t-43.5 -9q-58 0 -93.5 40.5t-35.5 105.5t16 110t46 72.5t74 40.5t100 13v-70q-36 0 -61 -8t-42 -22q-16 -13 -24 -30t-10 -34q2 3 10.5 6t19.5 3q26 0 46.5 -9t35 -24t22.5 -35.5t8 -42.5z" />
    <glyph glyph-name="quoteright" unicode="&#x2019;" horiz-adv-x="314" 
d="M33 625q0 24 9 44.5t24 36.5t35.5 25t43.5 9q58 0 93.5 -40t35.5 -106q0 -65 -16 -110t-46.5 -72.5t-74.5 -40.5t-99 -13v71q36 0 61 8t41 22q17 13 25 29.5t10 33.5q-2 -3 -11 -6t-19 -3q-52 0 -82 33t-30 79z" />
    <glyph glyph-name="quotesinglbase" unicode="&#x201a;" horiz-adv-x="314" 
d="M33 88q0 24 9 44.5t24 36.5t35.5 25t43.5 9q58 0 93.5 -40t35.5 -106q0 -65 -16 -110t-46.5 -72.5t-74.5 -40.5t-99 -13v71q36 0 61 8t41 22q17 13 25 29.5t10 33.5q-2 -2 -11 -5.5t-19 -3.5q-52 0 -82 33t-30 79z" />
    <glyph glyph-name="quotedblleft" unicode="&#x201c;" horiz-adv-x="576" 
d="M543 474q0 -24 -9 -45t-24 -37t-35.5 -25t-43.5 -9q-58 0 -93.5 40.5t-35.5 105.5t16 110t46.5 72.5t74 40.5t99.5 13v-70q-36 0 -61 -8t-41 -22q-17 -13 -25 -30t-10 -34q2 3 11 6t19 3q26 0 46.5 -9t35 -24t22.5 -35.5t8 -42.5zM281 474q0 -24 -9 -45t-24 -37
t-35.5 -25t-43.5 -9q-58 0 -93.5 40.5t-35.5 105.5t16 110t46 72.5t74 40.5t100 13v-70q-36 0 -61 -8t-42 -22q-16 -13 -24 -30t-10 -34q2 3 10.5 6t19.5 3q26 0 46.5 -9t35 -24t22.5 -35.5t8 -42.5z" />
    <glyph glyph-name="quotedblright" unicode="&#x201d;" horiz-adv-x="576" 
d="M295 625q0 24 9 44.5t24 36.5t35.5 25t43.5 9q58 0 93.5 -40t35.5 -106q0 -65 -16 -110t-46 -72.5t-74 -40.5t-100 -13v71q37 0 61.5 8t41.5 22q16 13 24 29t10 33q-2 -2 -11 -5t-19 -3q-52 0 -82 33t-30 79zM33 625q0 24 9 44.5t24 36.5t35.5 25t43.5 9q58 0 93.5 -40
t35.5 -106q0 -65 -16 -110t-46.5 -72.5t-74.5 -40.5t-99 -13v71q36 0 61 8t41 22q17 13 25 29.5t10 33.5q-2 -2 -11 -5.5t-19 -3.5q-52 0 -82 33t-30 79z" />
    <glyph glyph-name="quotedblbase" unicode="&#x201e;" horiz-adv-x="576" 
d="M295 88q0 24 9 44.5t24 36.5t35.5 25t43.5 9q58 0 93.5 -40t35.5 -106q0 -65 -16 -110t-46 -72.5t-74 -40.5t-100 -13v71q37 0 61.5 8t41.5 22q16 13 24 29.5t10 33.5q-2 -2 -11 -5.5t-19 -3.5q-52 0 -82 33t-30 79zM33 88q0 24 9 44.5t24 36.5t35.5 25t43.5 9
q58 0 93.5 -40t35.5 -106q0 -65 -16 -110t-46.5 -72.5t-74.5 -40.5t-99 -13v71q36 0 61 8t41 22q17 13 25 29.5t10 33.5q-2 -2 -11 -5.5t-19 -3.5q-52 0 -82 33t-30 79z" />
    <glyph glyph-name="dagger" unicode="&#x2020;" horiz-adv-x="445" 
d="M153 -181v511h-115v125h115v262h140v-262h115v-125h-115v-511h-140z" />
    <glyph glyph-name="daggerdbl" unicode="&#x2021;" horiz-adv-x="445" 
d="M293 717v-220h115v-124h-115v-248h115v-125h-115v-181h-140v181h-115v125h115v248h-115v124h115v220h140z" />
    <glyph glyph-name="bullet" unicode="&#x2022;" horiz-adv-x="373" 
d="M33 312q0 31 12 58.5t32.5 47.5t48.5 32t60 12q33 0 61 -12t49 -32t32.5 -47.5t11.5 -58.5t-11.5 -58.5t-32.5 -48t-49 -32.5t-61 -12q-32 0 -60 12t-48.5 32.5t-32.5 48t-12 58.5z" />
    <glyph glyph-name="ellipsis" unicode="&#x2026;" horiz-adv-x="1008" 
d="M40 109q0 24 9.5 46t25.5 38t38 25.5t48 9.5t48.5 -9.5t39 -25.5t26 -38t9.5 -46q0 -25 -9.5 -46.5t-26 -38t-39 -26t-48.5 -9.5t-48 9.5t-38 26t-25.5 38t-9.5 46.5zM382 108q0 24 9.5 46t25.5 38t38 25.5t48 9.5t48.5 -9.5t39 -25.5t26 -38t9.5 -46q0 -25 -9.5 -46.5
t-26 -38t-39 -26t-48.5 -9.5t-48 9.5t-38 26t-25.5 38t-9.5 46.5zM724 107q0 25 9.5 46.5t25.5 38t38 26t48 9.5t48.5 -9.5t39 -26t26 -38t9.5 -46.5t-9.5 -46.5t-26 -38t-39 -26t-48.5 -9.5t-48 9.5t-38 26t-25.5 38t-9.5 46.5z" />
    <glyph glyph-name="perthousand" unicode="&#x2030;" horiz-adv-x="1334" 
d="M1070 131q0 -16 10 -28t27 -12t27.5 12t10.5 28v123q0 16 -10.5 28t-27.5 12t-27 -12t-10 -28v-123zM1271 131q0 -29 -11.5 -54.5t-33 -45t-52 -30.5t-67.5 -11q-39 0 -69 11t-51 30.5t-32 45t-11 54.5v123q0 29 11 54.5t32 45t51 30.5t69 11q37 0 67.5 -11t52 -30.5
t33 -45t11.5 -54.5v-123zM732 395q37 0 67.5 -11t52 -30.5t33 -45t11.5 -54.5v-123q0 -29 -11.5 -54.5t-33 -45t-52 -30.5t-67.5 -11q-38 0 -68.5 11t-51.5 30.5t-32 45t-11 54.5v123q0 29 11 54.5t32 45t51.5 30.5t68.5 11zM732 294q-17 0 -27 -12t-10 -28v-123
q0 -16 10 -28t27 -12q18 0 28 12t10 28v123q0 16 -10 28t-28 12zM63 569q0 29 11 54.5t32 45t51.5 30.5t68.5 11q37 0 67.5 -11t52 -30.5t33 -45t11.5 -54.5v-123q0 -29 -11.5 -54.5t-33 -45t-52 -30.5t-67.5 -11q-38 0 -68.5 11t-51.5 30.5t-32 45t-11 54.5v123zM264 569
q0 16 -10 28t-28 12q-17 0 -27 -12t-10 -28v-123q0 -16 10 -28t27 -12q18 0 28 12t10 28v123zM595 757l123 -58l-362 -755l-124 58z" />
    <glyph glyph-name="guilsinglleft" unicode="&#x2039;" horiz-adv-x="307" 
d="M264 60l-231 184v94l231 184v-162l-96 -69l96 -69v-162z" />
    <glyph glyph-name="guilsinglright" unicode="&#x203a;" horiz-adv-x="307" 
d="M43 222l97 69l-97 69v162l231 -184v-94l-231 -184v162z" />
    <glyph glyph-name="fraction" unicode="&#x2044;" horiz-adv-x="186" 
d="M212 757l124 -58l-362 -755l-124 58z" />
    <glyph glyph-name="zerosuperior" unicode="&#x2070;" horiz-adv-x="428" 
d="M50 569q0 29 11 54.5t32 45t51.5 30.5t69.5 11q37 0 67.5 -11t51.5 -30.5t32.5 -45t11.5 -54.5v-123q0 -29 -11.5 -54.5t-32.5 -45t-51.5 -30.5t-67.5 -11q-39 0 -69.5 11t-51.5 30.5t-32 45t-11 54.5v123zM251 569q0 16 -10 28t-27 12t-27.5 -12t-10.5 -28v-123
q0 -16 10.5 -28t27.5 -12t27 12t10 28v123z" />
    <glyph glyph-name="foursuperior" unicode="&#x2074;" horiz-adv-x="436" 
d="M228 408h-173v292h126v-191h47v94h126v-94h37v-101h-37v-93h-126v93z" />
    <glyph glyph-name="fivesuperior" unicode="&#x2075;" horiz-adv-x="432" 
d="M63 700h298v-88h-181v-56q11 12 29.5 19.5t42.5 7.5q34 0 58 -12t39.5 -31t23 -42.5t7.5 -45.5q0 -30 -10.5 -57t-31.5 -47t-52 -31.5t-71 -11.5t-70.5 11.5t-51.5 31.5t-31.5 46t-10.5 56h119q0 -20 12 -33.5t33 -13.5t33 14.5t12 34.5q0 19 -11.5 33.5t-31.5 14.5
q-19 0 -28.5 -7t-15.5 -18h-110v225z" />
    <glyph glyph-name="sixsuperior" unicode="&#x2076;" horiz-adv-x="415" 
d="M207 306q-40 0 -70.5 11.5t-51.5 31.5t-32 46.5t-11 56.5q0 22 5.5 43t17.5 38l112 167h139l-71 -105q13 -2 24 -6.5t21 -9.5q39 -17 60 -51t21 -76q0 -30 -11 -56.5t-32 -46.5t-51.5 -31.5t-69.5 -11.5zM207 405q20 0 32.5 13.5t12.5 33.5q0 21 -12.5 34.5t-32.5 13.5
q-21 0 -33 -13.5t-12 -34.5q0 -20 12 -33.5t33 -13.5z" />
    <glyph glyph-name="sevensuperior" unicode="&#x2077;" horiz-adv-x="393" 
d="M368 700l-164 -385h-135l122 284h-145v101h322z" />
    <glyph glyph-name="eightsuperior" unicode="&#x2078;" horiz-adv-x="421" 
d="M211 305q-79 0 -121.5 34t-42.5 84q0 18 6.5 33.5t16.5 27.5t23 19.5t25 9.5q-23 7 -41.5 30.5t-18.5 54.5q0 48 39 80t114 32q74 0 113.5 -32.5t39.5 -79.5q0 -31 -19 -54.5t-42 -30.5q13 -3 25.5 -11t22.5 -19.5t16.5 -27t6.5 -33.5q0 -48 -42 -82.5t-121 -34.5z
M211 556q17 0 27.5 11t10.5 25t-10.5 25t-27.5 11q-19 0 -29 -10.5t-10 -25.5q0 -14 10 -25t29 -11zM211 387q20 0 32 12t12 29q0 16 -12 28.5t-32 12.5q-21 0 -33 -12t-12 -29t11.5 -29t33.5 -12z" />
    <glyph glyph-name="ninesuperior" unicode="&#x2079;" horiz-adv-x="415" 
d="M208 709q40 0 70.5 -11.5t51.5 -31.5t31.5 -46.5t10.5 -56.5q0 -23 -5.5 -43.5t-16.5 -37.5l-113 -167h-139l71 104q-60 10 -92.5 50t-32.5 94q0 30 10.5 56.5t31.5 46.5t51.5 31.5t70.5 11.5zM208 610q-21 0 -33 -13.5t-12 -33.5q0 -21 12 -34.5t33 -13.5t33 13.5
t12 34.5q0 20 -12 33.5t-33 13.5z" />
    <glyph glyph-name="plussuperior" unicode="&#x207a;" horiz-adv-x="424" 
d="M168 345v83h-83v87h83v83h88v-83h83v-87h-83v-83h-88z" />
    <glyph glyph-name="minussuperior" unicode="&#x207b;" horiz-adv-x="424" 
d="M85 428v87h254v-87h-254z" />
    <glyph glyph-name="equalsuperior" unicode="&#x207c;" horiz-adv-x="424" 
d="M85 487v88h254v-88h-254zM85 367v88h254v-88h-254z" />
    <glyph glyph-name="parenleftsuperior" unicode="&#x207d;" horiz-adv-x="286" 
d="M239 623q-34 0 -52.5 -21.5t-18.5 -52.5v-173q0 -31 18.5 -52.5t52.5 -21.5v-103q-45 0 -80.5 14t-59.5 38t-37 56.5t-13 68.5v173q0 36 13 68.5t37 56.5t59.5 38t80.5 14v-103z" />
    <glyph glyph-name="parenrightsuperior" unicode="&#x207e;" horiz-adv-x="286" 
d="M47 726q45 0 80.5 -14t60 -38t37.5 -56.5t13 -68.5v-173q0 -36 -13 -68.5t-37.5 -56.5t-60 -38t-80.5 -14v103q35 0 53 21.5t18 52.5v173q0 31 -18 52.5t-53 21.5v103z" />
    <glyph glyph-name="nsuperior" unicode="&#x207f;" horiz-adv-x="424" 
d="M60 593h118v-42q11 22 34 35t58 13q23 0 41 -6.5t29 -17.5q17 -17 22 -40.5t5 -55.5v-164h-118v140q0 46 -34 46q-37 0 -37 -52v-134h-118v278z" />
    <glyph glyph-name="zeroinferior" unicode="&#x2080;" horiz-adv-x="428" 
d="M50 54q0 29 11 54.5t32 45t51.5 30.5t69.5 11q37 0 67.5 -11t51.5 -30.5t32.5 -45t11.5 -54.5v-123q0 -29 -11.5 -54.5t-32.5 -45t-51.5 -30.5t-67.5 -11q-39 0 -69.5 11t-51.5 30.5t-32 45t-11 54.5v123zM251 54q0 16 -10 28t-27 12t-27.5 -12t-10.5 -28v-123
q0 -16 10.5 -28t27.5 -12t27 12t10 28v123z" />
    <glyph glyph-name="oneinferior" unicode="&#x2081;" horiz-adv-x="313" 
d="M45 113q31 0 50.5 5t30.5 14t15.5 22.5t4.5 30.5h105v-385h-127v231h-79v82z" />
    </font>
</defs>
</svg>
