<?xml version="1.0" encoding="UTF-8"?>
<svg width="5447px" height="1940px" viewBox="0 0 5447 1940" version="1.1" xmlns="http://www.w3.org/2000/svg" xmlns:xlink="http://www.w3.org/1999/xlink">
    <!-- Generator: Sketch 40.1 (33804) - http://www.bohemiancoding.com/sketch -->
    <title>kk_sig</title>
    <desc>Created with Sketch.</desc>
    <defs></defs>
    <g id="Page-1" stroke="none" stroke-width="1" fill="none" fill-rule="evenodd">
        <g id="kk_sig" transform="translate(-270.000000, -1090.000000)">
            <g id="layer1" transform="translate(274.000000, 1090.000000)" fill="#52586E">
                <path d="M3201,1931 C3184,1903 3321,1879 3364,1901 C3380,1910 3389,1911 3398,1902 C3411,1889 3460,1916 3450,1931 C3443,1943 3209,1943 3201,1931 L3201,1931 Z" id="Shape"></path>
                <path d="M3042,1922 C3039,1917 3043,1905 3050,1895 C3066,1873 3095,1881 3092,1907 C3089,1926 3052,1937 3042,1922 L3042,1922 Z" id="Shape"></path>
                <path d="M3523,1912 C3505,1892 3510,1880 3536,1880 C3556,1880 3589,1914 3579,1923 C3567,1936 3539,1930 3523,1912 L3523,1912 Z" id="Shape"></path>
                <path d="M2943,1913 C2933,1904 2966,1870 2986,1870 C3012,1870 3017,1882 2999,1902 C2983,1920 2955,1926 2943,1913 L2943,1913 Z" id="Shape"></path>
                <path d="M3606,1900 C3584,1883 3583,1881 3599,1875 C3620,1867 3689,1897 3681,1911 C3671,1926 3633,1921 3606,1900 L3606,1900 Z" id="Shape"></path>
                <path d="M2873,1904 C2862,1893 2886,1860 2905,1860 C2932,1860 2938,1872 2919,1892 C2903,1910 2884,1915 2873,1904 L2873,1904 Z" id="Shape"></path>
                <path d="M3682,1891 C3658,1865 3681,1852 3708,1876 C3727,1894 3728,1894 3725,1876 C3722,1860 3732,1853 3781,1839 C3834,1823 3842,1822 3857,1836 C3874,1852 3893,1840 3882,1821 C3879,1816 3902,1797 3933,1780 C3965,1762 3998,1741 4008,1733 C4018,1724 4026,1722 4030,1729 C4034,1734 4019,1751 3999,1766 C3941,1809 3938,1813 3980,1796 C4001,1787 4022,1782 4026,1785 C4030,1788 4039,1783 4046,1775 C4053,1767 4063,1760 4068,1760 C4074,1760 4091,1751 4106,1740 C4123,1728 4137,1724 4141,1729 C4147,1739 4079,1790 4054,1794 C4047,1795 4036,1798 4031,1802 C4020,1809 3891,1858 3878,1861 C3874,1861 3857,1868 3840,1875 C3810,1887 3780,1895 3725,1905 C3708,1908 3693,1904 3682,1891 L3682,1891 Z" id="Shape"></path>
                <path d="M2802,1891 C2793,1877 2834,1847 2852,1854 C2867,1860 2867,1862 2851,1880 C2832,1901 2811,1906 2802,1891 L2802,1891 Z" id="Shape"></path>
                <path d="M2742,1881 C2734,1868 2785,1837 2803,1844 C2817,1850 2817,1853 2801,1870 C2782,1891 2751,1897 2742,1881 L2742,1881 Z" id="Shape"></path>
                <path d="M2702,1871 C2692,1856 2722,1826 2741,1834 C2758,1840 2758,1841 2741,1860 C2721,1882 2710,1885 2702,1871 L2702,1871 Z" id="Shape"></path>
                <path d="M2662,1861 C2654,1848 2682,1816 2695,1824 C2703,1829 2703,1837 2696,1851 C2685,1871 2671,1876 2662,1861 L2662,1861 Z" id="Shape"></path>
                <path d="M2532,1835 C2442,1808 2431,1801 2449,1777 C2461,1760 2464,1760 2521,1778 C2560,1790 2580,1802 2578,1810 C2575,1821 2578,1821 2590,1811 C2608,1796 2630,1806 2619,1823 C2615,1830 2619,1830 2629,1822 C2653,1802 2671,1818 2650,1841 C2629,1864 2630,1864 2532,1835 L2532,1835 Z" id="Shape"></path>
                <path d="M2311,1761 C2273,1746 2242,1730 2243,1725 C2244,1719 2238,1708 2230,1699 C2222,1690 2219,1681 2222,1677 C2231,1668 2268,1689 2261,1700 C2258,1705 2260,1712 2266,1715 C2272,1719 2276,1718 2275,1713 C2272,1693 2280,1693 2345,1718 C2383,1733 2414,1750 2413,1755 C2412,1761 2405,1764 2399,1764 C2392,1763 2388,1766 2391,1770 C2403,1789 2377,1786 2311,1761 L2311,1761 Z" id="Shape"></path>
                <path d="M2138,1689 C2093,1668 2056,1648 2057,1643 C2060,1623 2055,1619 2041,1630 C2033,1637 2025,1640 2025,1636 C2024,1633 2022,1626 2021,1620 C2020,1615 2018,1607 2017,1604 C2017,1600 2009,1603 2001,1610 C1989,1620 1981,1619 1961,1606 C1947,1597 1938,1585 1941,1581 C1944,1576 1930,1563 1910,1551 C1891,1539 1877,1526 1881,1521 C1884,1516 1959,1547 2049,1590 C2138,1634 2209,1671 2206,1674 C2203,1676 2209,1687 2219,1698 C2250,1732 2224,1729 2138,1689 L2138,1689 Z" id="Shape"></path>
                <path d="M4150,1706 C4146,1696 4148,1684 4154,1678 C4162,1670 4167,1671 4172,1684 C4176,1694 4174,1706 4168,1712 C4160,1720 4155,1719 4150,1706 L4150,1706 Z" id="Shape"></path>
                <path d="M4062,1702 C4059,1697 4067,1683 4080,1671 C4093,1658 4106,1653 4110,1658 C4113,1663 4105,1677 4092,1689 C4079,1702 4066,1707 4062,1702 L4062,1702 Z" id="Shape"></path>
                <path d="M1838,1540 C1820,1529 1806,1517 1807,1513 C1810,1494 1805,1488 1793,1499 C1783,1507 1775,1506 1762,1497 C1746,1485 1746,1483 1763,1468 C1780,1452 1784,1452 1821,1473 C1843,1486 1859,1498 1856,1502 C1853,1505 1859,1517 1869,1528 C1894,1556 1876,1563 1838,1540 L1838,1540 Z" id="Shape"></path>
                <path d="M1693,1459 C1683,1453 1678,1444 1682,1439 C1685,1434 1683,1423 1676,1415 C1656,1391 1680,1391 1719,1415 C1757,1437 1767,1455 1743,1455 C1737,1455 1726,1458 1721,1462 C1715,1465 1703,1464 1693,1459 L1693,1459 Z" id="Shape"></path>
                <path d="M1520,1347 C1411,1275 1382,1251 1384,1236 C1387,1220 1385,1218 1373,1228 C1353,1245 1274,1188 1283,1163 C1289,1148 1287,1147 1275,1157 C1253,1175 1133,1089 1143,1063 C1149,1048 1147,1047 1135,1057 C1124,1066 1097,1051 1001,983 C935,937 882,893 884,887 C886,880 884,878 880,882 C876,886 858,880 839,869 C820,857 804,849 802,851 C797,858 726,1019 726,1023 C726,1026 718,1045 709,1066 C700,1088 692,1107 691,1110 C686,1134 659,1204 639,1244 C622,1278 611,1289 604,1282 C597,1275 600,1261 614,1238 C625,1220 639,1187 646,1165 C653,1143 663,1119 669,1112 C675,1104 681,1091 682,1082 C683,1072 689,1050 694,1033 C700,1015 701,1001 698,1001 C678,1004 680,993 716,914 C738,867 756,824 756,820 C756,810 688,778 678,784 C674,786 651,791 627,795 C594,800 580,797 565,784 C555,775 549,763 552,759 C560,745 592,749 606,765 C615,776 622,778 629,771 C636,764 635,756 627,746 C613,729 629,714 648,726 C658,732 658,731 649,718 C630,695 645,689 678,706 C705,720 708,747 681,736 C672,733 670,738 673,751 C677,763 684,769 693,766 C701,763 716,765 727,770 C738,776 746,777 745,773 C744,769 745,762 746,758 C747,753 749,744 750,738 C750,731 761,724 773,722 C786,720 803,709 811,697 C820,685 831,674 836,674 C857,671 858,670 848,657 C838,646 865,559 913,440 C917,432 920,422 921,418 C923,413 925,407 926,403 C927,398 928,392 927,388 C927,384 933,365 942,344 C952,321 961,311 967,317 C973,323 970,341 959,366 C950,387 941,408 940,413 C939,417 937,423 936,428 C935,432 934,438 935,442 C935,445 927,474 916,505 C902,544 900,559 910,551 C936,530 934,553 904,621 C878,679 875,694 885,713 C891,725 894,727 892,718 C885,692 904,686 927,706 C950,726 943,737 901,744 C882,748 866,744 854,733 C840,720 834,720 821,730 C808,741 807,745 819,759 C827,768 832,780 829,786 C827,793 890,844 970,901 C1094,989 1114,1006 1103,1019 C1093,1033 1093,1033 1107,1023 C1120,1012 1138,1022 1217,1078 C1287,1129 1310,1151 1308,1165 C1305,1180 1307,1182 1318,1173 C1328,1164 1369,1187 1496,1272 C1587,1333 1660,1387 1658,1392 C1657,1398 1660,1408 1666,1415 C1672,1423 1673,1431 1668,1434 C1663,1437 1596,1398 1520,1347 L1520,1347 Z M806,811 C806,806 797,800 787,797 C773,794 769,796 773,806 C779,821 806,825 806,811 L806,811 Z" id="Shape"></path>
                <path d="M532,1321 C522,1310 519,1299 524,1296 C529,1293 541,1299 550,1309 C560,1320 563,1331 558,1334 C553,1337 541,1331 532,1321 L532,1321 Z" id="Shape"></path>
                <path d="M1372,1171 C1362,1160 1359,1149 1364,1146 C1369,1143 1381,1149 1390,1159 C1400,1170 1403,1181 1398,1184 C1393,1187 1381,1181 1372,1171 L1372,1171 Z" id="Shape"></path>
                <path d="M1461,1180 C1453,1167 1527,1137 1539,1149 C1545,1155 1535,1164 1511,1174 C1467,1193 1469,1193 1461,1180 L1461,1180 Z" id="Shape"></path>
                <path d="M582,1162 C579,1156 583,1147 590,1141 C598,1134 607,1133 610,1138 C613,1144 609,1153 602,1159 C594,1166 585,1167 582,1162 L582,1162 Z" id="Shape"></path>
                <path d="M2083,1139 C2055,1122 2072,1113 2118,1120 C2152,1124 2170,1121 2203,1103 C2226,1090 2247,1084 2250,1089 C2258,1101 2190,1143 2177,1136 C2172,1132 2165,1134 2161,1140 C2153,1153 2106,1152 2083,1139 L2083,1139 Z" id="Shape"></path>
                <path d="M1581,1130 C1578,1125 1592,1110 1613,1097 C1652,1072 1676,1071 1655,1096 C1638,1116 1587,1140 1581,1130 L1581,1130 Z" id="Shape"></path>
                <path d="M1732,1121 C1722,1110 1719,1099 1724,1096 C1729,1093 1741,1099 1750,1109 C1760,1120 1763,1131 1758,1134 C1753,1137 1741,1131 1732,1121 L1732,1121 Z" id="Shape"></path>
                <path d="M613,1124 C610,1120 611,1108 617,1098 C625,1083 631,1081 639,1089 C647,1097 646,1104 635,1115 C627,1124 617,1128 613,1124 L613,1124 Z" id="Shape"></path>
                <path d="M1361,1120 C1357,1114 1358,1104 1364,1098 C1370,1092 1376,1092 1381,1100 C1385,1106 1384,1116 1378,1122 C1372,1128 1366,1128 1361,1120 L1361,1120 Z" id="Shape"></path>
                <path d="M1841,1120 C1838,1115 1853,1102 1875,1090 C1897,1079 1917,1074 1921,1079 C1926,1089 1919,1095 1877,1117 C1849,1133 1849,1133 1841,1120 L1841,1120 Z" id="Shape"></path>
                <path d="M2631,1121 C2624,1109 2643,1097 2656,1105 C2667,1112 2660,1130 2646,1130 C2641,1130 2635,1126 2631,1121 L2631,1121 Z" id="Shape"></path>
                <path d="M2681,1120 C2676,1111 2687,1105 2743,1085 C2750,1083 2758,1085 2761,1091 C2765,1096 2752,1107 2732,1115 C2690,1133 2689,1133 2681,1120 L2681,1120 Z" id="Shape"></path>
                <path d="M1452,1111 C1449,1106 1453,1097 1460,1091 C1476,1078 1492,1093 1481,1110 C1473,1122 1459,1123 1452,1111 L1452,1111 Z" id="Shape"></path>
                <path d="M2422,1091 C2415,1080 2461,1048 2470,1057 C2477,1064 2447,1100 2435,1100 C2431,1100 2425,1096 2422,1091 L2422,1091 Z" id="Shape"></path>
                <path d="M2262,1082 C2259,1077 2265,1065 2275,1056 C2286,1046 2297,1043 2300,1048 C2303,1053 2297,1065 2287,1074 C2276,1084 2265,1087 2262,1082 L2262,1082 Z" id="Shape"></path>
                <path d="M4261,1080 C4253,1068 4281,1056 4296,1065 C4302,1068 4304,1076 4301,1081 C4293,1093 4269,1093 4261,1080 L4261,1080 Z" id="Shape"></path>
                <path d="M4391,1080 C4388,1075 4391,1068 4398,1065 C4423,1055 4716,1065 4719,1075 C4722,1089 4400,1094 4391,1080 L4391,1080 Z" id="Shape"></path>
                <path d="M4741,1080 C4733,1067 4761,1056 4782,1064 C4802,1072 4791,1090 4766,1090 C4756,1090 4744,1085 4741,1080 L4741,1080 Z" id="Shape"></path>
                <path d="M1392,1072 C1389,1066 1393,1057 1400,1051 C1408,1044 1417,1043 1420,1048 C1423,1054 1419,1063 1412,1069 C1404,1076 1395,1077 1392,1072 L1392,1072 Z" id="Shape"></path>
                <path d="M2095,1064 C2089,1056 2087,1050 2091,1050 C2095,1050 2093,1043 2086,1035 C2080,1027 2077,1016 2081,1010 C2090,996 2109,1009 2102,1026 C2096,1041 2110,1052 2137,1054 C2167,1056 2164,1074 2134,1077 C2119,1078 2102,1072 2095,1064 L2095,1064 Z" id="Shape"></path>
                <path d="M2385,1076 C2380,1053 2383,1030 2390,1028 C2402,1024 2405,1069 2394,1076 C2390,1079 2386,1079 2385,1076 L2385,1076 Z" id="Shape"></path>
                <path d="M4171,1070 C4163,1058 4191,1046 4206,1055 C4212,1058 4214,1066 4211,1071 C4203,1083 4179,1083 4171,1070 L4171,1070 Z" id="Shape"></path>
                <path d="M1791,1060 C1780,1042 1796,1029 1817,1040 C1828,1046 1834,1055 1831,1061 C1823,1073 1799,1073 1791,1060 L1791,1060 Z" id="Shape"></path>
                <path d="M2831,1060 C2824,1049 2916,989 2929,997 C2939,1003 2914,1025 2865,1054 C2848,1064 2835,1067 2831,1060 L2831,1060 Z" id="Shape"></path>
                <path d="M653,1054 C650,1050 651,1038 657,1028 C665,1013 671,1011 679,1019 C687,1027 686,1034 675,1045 C667,1054 657,1058 653,1054 L653,1054 Z" id="Shape"></path>
                <path d="M1582,1052 C1579,1046 1583,1037 1590,1031 C1598,1024 1607,1023 1610,1028 C1613,1034 1609,1043 1602,1049 C1594,1056 1585,1057 1582,1052 L1582,1052 Z" id="Shape"></path>
                <path d="M1712,1051 C1709,1046 1713,1037 1720,1031 C1736,1018 1752,1033 1741,1050 C1733,1062 1719,1063 1712,1051 L1712,1051 Z" id="Shape"></path>
                <path d="M2012,1053 C2008,1048 2000,1045 1995,1045 C1990,1045 1986,1041 1987,1035 C1988,1030 1992,1026 1997,1028 C2002,1029 2005,1026 2004,1021 C1999,1004 2019,1005 2030,1022 C2041,1041 2026,1067 2012,1053 L2012,1053 Z" id="Shape"></path>
                <path d="M2666,1040 C2651,1013 2665,991 2682,1014 C2694,1031 2697,1031 2740,1011 C2783,993 2811,996 2783,1017 C2772,1026 2691,1060 2681,1060 C2679,1060 2672,1051 2666,1040 L2666,1040 Z" id="Shape"></path>
                <path d="M3211,1050 C3204,1039 3233,1024 3243,1034 C3246,1037 3255,1035 3263,1028 C3270,1022 3279,1020 3283,1023 C3286,1027 3295,1025 3302,1019 C3309,1013 3320,1011 3326,1015 C3340,1024 3327,1043 3310,1036 C3303,1033 3294,1035 3290,1041 C3287,1047 3278,1049 3270,1046 C3263,1043 3254,1045 3251,1050 C3243,1063 3219,1063 3211,1050 L3211,1050 Z" id="Shape"></path>
                <path d="M4087,1049 C4071,1043 4066,1036 4073,1029 C4086,1016 4140,1036 4131,1050 C4124,1062 4119,1062 4087,1049 L4087,1049 Z" id="Shape"></path>
                <path d="M5362,1053 C5350,1040 5356,1013 5377,994 C5403,971 5400,971 5424,993 C5444,1011 5449,1052 5431,1048 C5426,1046 5421,1041 5421,1035 C5420,999 5386,994 5386,1030 C5386,1050 5373,1063 5362,1053 L5362,1053 Z" id="Shape"></path>
                <path d="M1532,1032 C1520,1012 1660,910 1678,928 C1684,934 1670,947 1639,965 C1613,980 1579,1004 1565,1017 C1550,1031 1536,1037 1532,1032 L1532,1032 Z" id="Shape"></path>
                <path d="M1871,1031 C1864,1019 1937,970 1949,977 C1960,984 1944,1001 1907,1023 C1889,1033 1875,1036 1871,1031 L1871,1031 Z" id="Shape"></path>
                <path d="M2212,1032 C2209,1026 2213,1017 2220,1011 C2228,1004 2237,1003 2240,1008 C2243,1014 2239,1023 2232,1029 C2224,1036 2215,1037 2212,1032 L2212,1032 Z" id="Shape"></path>
                <path d="M3851,1031 C3844,1019 3863,1007 3876,1015 C3887,1022 3880,1040 3866,1040 C3861,1040 3855,1036 3851,1031 L3851,1031 Z" id="Shape"></path>
                <path d="M3901,1031 C3895,1020 3914,1005 3923,1014 C3926,1017 3935,1015 3942,1009 C3949,1003 3960,1001 3966,1005 C3980,1014 3967,1033 3950,1026 C3943,1023 3934,1025 3931,1030 C3923,1043 3909,1043 3901,1031 L3901,1031 Z" id="Shape"></path>
                <path d="M4401,1031 C4394,1019 4413,1007 4426,1015 C4437,1022 4430,1040 4416,1040 C4411,1040 4405,1036 4401,1031 L4401,1031 Z" id="Shape"></path>
                <path d="M4581,1030 C4578,1025 4581,1017 4590,1014 C4611,1006 4661,1013 4661,1025 C4661,1039 4589,1044 4581,1030 L4581,1030 Z" id="Shape"></path>
                <path d="M1632,1022 C1629,1016 1633,1007 1640,1001 C1648,994 1657,993 1660,998 C1663,1004 1659,1013 1652,1019 C1644,1026 1635,1027 1632,1022 L1632,1022 Z" id="Shape"></path>
                <path d="M4027,1016 C4020,1008 4019,999 4024,996 C4030,993 4039,997 4045,1004 C4052,1012 4053,1021 4048,1024 C4042,1027 4033,1023 4027,1016 L4027,1016 Z" id="Shape"></path>
                <path d="M4311,1020 C4303,1008 4331,996 4346,1005 C4352,1008 4354,1016 4351,1021 C4343,1033 4319,1033 4311,1020 L4311,1020 Z" id="Shape"></path>
                <path d="M4691,1020 C4683,1008 4711,996 4726,1005 C4732,1008 4734,1016 4731,1021 C4723,1033 4699,1033 4691,1020 L4691,1020 Z" id="Shape"></path>
                <path d="M4847,1016 C4840,1008 4839,999 4844,996 C4850,993 4859,997 4865,1004 C4872,1012 4873,1021 4868,1024 C4862,1027 4853,1023 4847,1016 L4847,1016 Z" id="Shape"></path>
                <path d="M2484,1015 C2481,1011 2482,995 2488,979 C2499,947 2531,923 2541,940 C2544,946 2540,953 2532,956 C2523,959 2516,968 2516,974 C2516,991 2492,1022 2484,1015 L2484,1015 Z" id="Shape"></path>
                <path d="M3361,1010 C3354,999 3396,979 3410,988 C3415,991 3411,999 3401,1007 C3379,1023 3369,1023 3361,1010 L3361,1010 Z" id="Shape"></path>
                <path d="M4231,1011 C4224,999 4243,987 4256,995 C4267,1002 4260,1020 4246,1020 C4241,1020 4235,1016 4231,1011 L4231,1011 Z" id="Shape"></path>
                <path d="M4761,1011 C4754,999 4773,987 4786,995 C4797,1002 4790,1020 4776,1020 C4771,1020 4765,1016 4761,1011 L4761,1011 Z" id="Shape"></path>
                <path d="M1462,1002 C1459,997 1470,981 1485,966 C1501,951 1516,943 1520,948 C1523,953 1512,969 1497,984 C1481,999 1466,1007 1462,1002 L1462,1002 Z" id="Shape"></path>
                <path d="M2253,1003 C2250,998 2271,970 2300,941 C2330,912 2356,892 2359,897 C2362,902 2341,930 2312,959 C2282,988 2256,1008 2253,1003 L2253,1003 Z" id="Shape"></path>
                <path d="M2391,1000 C2387,994 2381,992 2376,995 C2361,1004 2355,983 2370,971 C2380,963 2387,965 2400,979 C2410,990 2413,1000 2407,1004 C2402,1008 2395,1006 2391,1000 L2391,1000 Z" id="Shape"></path>
                <path d="M3031,1000 C3027,994 3028,984 3034,978 C3040,972 3046,972 3051,980 C3055,986 3054,996 3048,1002 C3042,1008 3036,1008 3031,1000 L3031,1000 Z" id="Shape"></path>
                <path d="M4181,1001 C4174,989 4193,977 4206,985 C4217,992 4210,1010 4196,1010 C4191,1010 4185,1006 4181,1001 L4181,1001 Z" id="Shape"></path>
                <path d="M2601,990 C2598,985 2598,974 2603,968 C2607,961 2612,947 2613,937 C2615,922 2613,921 2597,930 C2574,942 2560,927 2579,912 C2607,890 2655,871 2661,880 C2667,890 2642,945 2627,955 C2621,958 2619,967 2622,974 C2628,991 2610,1005 2601,990 L2601,990 Z" id="Shape"></path>
                <path d="M3132,993 C3128,988 3120,985 3115,985 C3110,985 3106,982 3106,978 C3106,970 3109,969 3124,971 C3128,972 3136,973 3141,974 C3154,975 3160,994 3149,997 C3144,999 3136,997 3132,993 L3132,993 Z" id="Shape"></path>
                <path d="M3581,990 C3578,984 3586,976 3600,970 C3614,965 3626,956 3626,950 C3626,944 3614,935 3600,930 C3574,920 3575,900 3602,900 C3618,900 3656,935 3656,950 C3656,965 3618,1000 3602,1000 C3594,1000 3584,995 3581,990 L3581,990 Z" id="Shape"></path>
                <path d="M3811,990 C3807,984 3808,974 3814,968 C3820,962 3826,962 3831,970 C3835,976 3834,986 3828,992 C3822,998 3816,998 3811,990 L3811,990 Z" id="Shape"></path>
                <path d="M1692,982 C1689,976 1693,967 1700,961 C1708,954 1717,953 1720,958 C1723,964 1719,973 1712,979 C1704,986 1695,987 1692,982 L1692,982 Z" id="Shape"></path>
                <path d="M1806,974 C1797,964 1796,956 1803,949 C1811,941 1817,944 1825,958 C1838,983 1823,996 1806,974 L1806,974 Z" id="Shape"></path>
                <path d="M2831,981 C2823,966 2967,875 2980,887 C2987,894 2967,920 2954,920 C2949,920 2926,933 2903,948 C2842,989 2838,991 2831,981 L2831,981 Z" id="Shape"></path>
                <path d="M3211,981 C3204,969 3223,957 3236,965 C3247,972 3240,990 3226,990 C3221,990 3215,986 3211,981 L3211,981 Z" id="Shape"></path>
                <path d="M3531,981 C3524,969 3543,957 3556,965 C3567,972 3560,990 3546,990 C3541,990 3535,986 3531,981 L3531,981 Z" id="Shape"></path>
                <path d="M1962,972 C1959,966 1963,957 1970,951 C1978,944 1987,943 1990,948 C1993,954 1989,963 1982,969 C1974,976 1965,977 1962,972 L1962,972 Z" id="Shape"></path>
                <path d="M2081,971 C2077,963 2080,952 2089,943 C2108,923 2119,942 2102,965 C2092,979 2087,980 2081,971 L2081,971 Z" id="Shape"></path>
                <path d="M2982,971 C2973,956 3005,935 3017,947 C3025,955 3022,961 3008,969 C2996,975 2985,976 2982,971 L2982,971 Z" id="Shape"></path>
                <path d="M3261,971 C3254,959 3273,947 3286,955 C3297,962 3290,980 3276,980 C3271,980 3265,976 3261,971 L3261,971 Z" id="Shape"></path>
                <path d="M2693,953 C2680,941 2771,806 2786,815 C2793,820 2711,960 2701,960 C2700,960 2696,957 2693,953 L2693,953 Z" id="Shape"></path>
                <path d="M3321,951 C3314,939 3333,927 3346,935 C3357,942 3350,960 3336,960 C3331,960 3325,956 3321,951 L3321,951 Z" id="Shape"></path>
                <path d="M3931,950 C3928,944 3937,935 3952,929 C3968,924 3996,901 4015,878 C4053,834 4095,812 4141,814 C4176,815 4172,834 4136,836 C4092,839 4059,858 4029,895 C4014,915 3989,938 3974,946 C3942,963 3939,963 3931,950 L3931,950 Z" id="Shape"></path>
                <path d="M4083,953 C4080,948 4099,928 4126,908 C4176,871 4204,870 4163,907 C4127,940 4088,962 4083,953 L4083,953 Z" id="Shape"></path>
                <path d="M1532,941 C1528,936 1539,922 1555,911 C1571,899 1587,894 1590,899 C1594,904 1583,918 1567,929 C1551,941 1535,946 1532,941 L1532,941 Z" id="Shape"></path>
                <path d="M3084,923 C3075,905 3061,893 3041,890 C3007,884 3005,866 3039,862 C3056,860 3071,868 3090,890 C3118,924 3121,935 3107,945 C3101,948 3091,938 3084,923 L3084,923 Z" id="Shape"></path>
                <path d="M3371,930 C3363,917 3437,887 3449,899 C3455,905 3445,914 3421,924 C3377,943 3379,943 3371,930 L3371,930 Z" id="Shape"></path>
                <path d="M3810,925 C3806,916 3808,904 3814,898 C3820,892 3822,882 3820,875 C3813,859 3832,846 3841,860 C3844,865 3844,876 3839,883 C3835,889 3833,902 3834,912 C3838,934 3817,945 3810,925 L3810,925 Z" id="Shape"></path>
                <path d="M3881,930 C3877,924 3878,914 3884,908 C3890,902 3896,902 3901,910 C3905,916 3904,926 3898,932 C3892,938 3886,938 3881,930 L3881,930 Z" id="Shape"></path>
                <path d="M1796,915 C1783,899 1787,897 1823,900 C1838,901 1845,895 1848,878 C1852,850 1870,851 1874,880 C1881,923 1824,949 1796,915 L1796,915 Z" id="Shape"></path>
                <path d="M2110,916 C2106,906 2108,894 2114,888 C2122,880 2127,881 2132,894 C2136,904 2134,916 2128,922 C2120,930 2115,929 2110,916 L2110,916 Z" id="Shape"></path>
                <path d="M2433,914 C2430,910 2434,897 2443,883 C2463,853 2484,867 2467,899 C2455,920 2444,925 2433,914 L2433,914 Z" id="Shape"></path>
                <path d="M3531,911 C3524,899 3543,887 3556,895 C3567,902 3560,920 3546,920 C3541,920 3535,916 3531,911 L3531,911 Z" id="Shape"></path>
                <path d="M2022,902 C2013,888 2059,852 2084,854 C2112,855 2114,875 2086,876 C2075,877 2057,885 2047,894 C2036,904 2025,907 2022,902 L2022,902 Z" id="Shape"></path>
                <path d="M3672,861 C3663,852 3656,836 3656,827 C3656,804 3675,796 3682,817 C3685,827 3692,843 3697,852 C3709,876 3692,883 3672,861 L3672,861 Z" id="Shape"></path>
                <path d="M1661,860 C1655,850 1670,841 1698,836 C1705,835 1717,831 1724,827 C1730,822 1741,822 1746,825 C1760,833 1747,853 1732,847 C1726,844 1712,848 1701,856 C1679,873 1669,873 1661,860 L1661,860 Z" id="Shape"></path>
                <path d="M2382,862 C2379,856 2383,847 2390,841 C2398,834 2407,833 2410,838 C2413,844 2409,853 2402,859 C2394,866 2385,867 2382,862 L2382,862 Z" id="Shape"></path>
                <path d="M3902,862 C3899,856 3901,839 3906,823 C3912,808 3919,789 3922,781 C3925,772 3930,770 3936,776 C3943,783 3942,798 3935,821 C3921,862 3910,875 3902,862 L3902,862 Z" id="Shape"></path>
                <path d="M1811,846 C1800,838 1797,830 1803,827 C1809,823 1821,827 1831,834 C1842,842 1845,850 1839,853 C1833,857 1821,853 1811,846 L1811,846 Z" id="Shape"></path>
                <path d="M3720,846 C3712,825 3723,797 3736,805 C3741,808 3746,820 3746,830 C3746,855 3728,866 3720,846 L3720,846 Z" id="Shape"></path>
                <path d="M2592,842 C2589,836 2593,827 2600,821 C2608,814 2617,813 2620,818 C2623,824 2619,833 2612,839 C2604,846 2595,847 2592,842 L2592,842 Z" id="Shape"></path>
                <path d="M2551,830 C2547,824 2548,814 2554,808 C2560,802 2566,802 2571,810 C2575,816 2574,826 2568,832 C2562,838 2556,838 2551,830 L2551,830 Z" id="Shape"></path>
                <path d="M88,810 C64,799 47,786 50,781 C57,770 142,800 145,815 C149,832 132,830 88,810 L88,810 Z" id="Shape"></path>
                <path d="M281,821 C274,808 298,797 321,802 C330,803 337,810 337,815 C337,829 289,834 281,821 L281,821 Z" id="Shape"></path>
                <path d="M3842,822 C3839,816 3840,800 3846,786 C3851,772 3861,748 3866,733 C3873,717 3880,710 3886,716 C3892,722 3889,743 3878,772 C3858,826 3851,835 3842,822 L3842,822 Z" id="Shape"></path>
                <path d="M382,812 C379,807 390,793 406,782 C446,752 521,751 536,780 C545,796 544,802 531,806 C522,810 510,808 503,801 C488,786 425,787 429,802 C431,817 391,825 382,812 L382,812 Z" id="Shape"></path>
                <path d="M2423,813 C2417,803 2526,653 2534,660 C2545,668 2538,680 2484,752 C2432,823 2430,825 2423,813 L2423,813 Z" id="Shape"></path>
                <path d="M2642,811 C2638,806 2662,783 2693,761 C2751,720 2765,714 2767,727 C2770,739 2648,821 2642,811 L2642,811 Z" id="Shape"></path>
                <path d="M2803,792 C2799,787 2810,770 2826,755 C2862,721 2865,693 2834,688 C2808,685 2807,667 2831,662 C2852,657 2886,688 2886,710 C2886,730 2810,805 2803,792 L2803,792 Z" id="Shape"></path>
                <path d="M281,780 C273,768 301,756 316,765 C322,768 324,776 321,781 C313,793 289,793 281,780 L281,780 Z" id="Shape"></path>
                <path d="M211,770 C208,764 201,762 196,765 C191,768 175,765 159,758 C144,752 126,748 119,749 C103,751 93,733 106,725 C112,721 123,723 130,729 C137,735 145,737 148,735 C151,732 166,735 182,741 C198,748 216,754 221,754 C227,755 232,759 234,765 C239,779 219,783 211,770 L211,770 Z" id="Shape"></path>
                <path d="M7,746 C0,738 -1,729 4,726 C10,723 19,727 25,734 C32,742 33,751 28,754 C22,757 13,753 7,746 L7,746 Z" id="Shape"></path>
                <path d="M3941,750 C3933,737 3954,698 3966,705 C3975,711 3968,748 3955,755 C3951,758 3945,756 3941,750 L3941,750 Z" id="Shape"></path>
                <path d="M538,711 C496,694 483,673 519,677 C553,682 607,710 601,720 C593,732 591,732 538,711 L538,711 Z" id="Shape"></path>
                <path d="M942,711 C921,688 924,686 1004,665 C1055,652 1071,652 1082,661 C1094,671 1097,671 1094,660 C1092,652 1112,640 1150,628 C1198,613 1212,612 1224,622 C1235,631 1238,632 1233,623 C1228,616 1234,606 1246,600 C1271,587 1292,596 1277,614 C1271,621 1269,630 1272,633 C1284,645 1225,661 1211,650 C1197,639 1163,647 1171,660 C1181,676 1155,682 1139,668 C1127,659 1124,659 1130,668 C1141,687 1088,704 1068,688 C1057,679 1055,679 1059,687 C1070,705 1047,713 1029,698 C1019,690 1015,690 1019,697 C1030,714 1008,724 990,709 C978,699 975,699 978,710 C983,731 961,732 942,711 L942,711 Z" id="Shape"></path>
                <path d="M541,663 C503,643 462,626 451,624 C415,620 375,600 381,590 C388,579 428,586 461,603 C472,609 488,615 496,617 C529,622 637,681 631,690 C622,704 619,703 541,663 L541,663 Z" id="Shape"></path>
                <path d="M3891,690 C3883,677 3904,638 3916,645 C3925,651 3918,688 3905,695 C3901,698 3895,696 3891,690 L3891,690 Z" id="Shape"></path>
                <path d="M101,681 C94,669 113,657 126,665 C137,672 130,690 116,690 C111,690 105,686 101,681 L101,681 Z" id="Shape"></path>
                <path d="M3971,680 C3967,674 3968,664 3974,658 C3980,652 3986,652 3991,660 C3995,666 3994,676 3988,682 C3982,688 3976,688 3971,680 L3971,680 Z" id="Shape"></path>
                <path d="M411,670 C403,658 431,646 446,655 C452,658 454,666 451,671 C443,683 419,683 411,670 L411,670 Z" id="Shape"></path>
                <path d="M161,660 C153,648 181,636 196,645 C202,648 204,656 201,661 C193,673 169,673 161,660 L161,660 Z" id="Shape"></path>
                <path d="M351,661 C344,649 363,637 376,645 C387,652 380,670 366,670 C361,670 355,666 351,661 L351,661 Z" id="Shape"></path>
                <path d="M2601,642 C2597,638 2586,635 2575,635 C2546,635 2552,615 2581,615 C2608,614 2633,634 2618,644 C2613,647 2606,646 2601,642 L2601,642 Z" id="Shape"></path>
                <path d="M41,630 C35,621 94,591 126,587 C161,582 144,605 99,622 C42,643 49,642 41,630 L41,630 Z" id="Shape"></path>
                <path d="M1291,630 C1288,625 1290,619 1296,615 C1302,611 1304,605 1301,600 C1298,595 1305,586 1316,580 C1335,570 1341,574 1336,595 C1335,600 1338,601 1343,597 C1347,592 1351,584 1351,578 C1351,573 1372,560 1399,550 C1425,540 1446,534 1446,536 C1446,539 1457,533 1472,524 C1489,512 1500,510 1508,518 C1515,525 1512,532 1497,540 C1485,546 1472,549 1467,546 C1462,543 1453,546 1447,553 C1434,570 1457,569 1499,551 C1515,545 1531,542 1536,545 C1541,548 1547,546 1550,541 C1555,534 1611,518 1641,515 C1647,515 1657,511 1664,507 C1670,502 1681,502 1686,505 C1699,513 1689,531 1673,529 C1666,528 1648,532 1631,539 C1615,546 1590,553 1576,555 C1562,556 1538,563 1523,569 C1508,575 1492,579 1488,578 C1484,577 1468,582 1452,589 C1407,607 1380,608 1384,590 C1386,582 1384,579 1379,583 C1375,588 1371,596 1371,602 C1371,616 1298,641 1291,630 L1291,630 Z" id="Shape"></path>
                <path d="M3992,621 C3982,606 4016,536 4027,547 C4034,554 4032,569 4022,594 C4006,631 4001,636 3992,621 L3992,621 Z" id="Shape"></path>
                <path d="M171,591 C164,579 183,567 196,575 C207,582 200,600 186,600 C181,600 175,596 171,591 L171,591 Z" id="Shape"></path>
                <path d="M331,591 C324,579 343,567 356,575 C367,582 360,600 346,600 C341,600 335,596 331,591 L331,591 Z" id="Shape"></path>
                <path d="M3931,590 C3927,584 3928,574 3934,568 C3940,562 3946,562 3951,570 C3955,576 3954,586 3948,592 C3942,598 3936,598 3931,590 L3931,590 Z" id="Shape"></path>
                <path d="M3951,540 C3947,534 3948,524 3954,518 C3960,512 3966,512 3971,520 C3975,526 3974,536 3968,542 C3962,548 3956,548 3951,540 L3951,540 Z" id="Shape"></path>
                <path d="M1711,501 C1704,489 1723,477 1736,485 C1747,492 1740,510 1726,510 C1721,510 1715,506 1711,501 L1711,501 Z" id="Shape"></path>
                <path d="M1591,481 C1585,470 1620,448 1630,457 C1637,464 1618,490 1605,490 C1601,490 1595,486 1591,481 L1591,481 Z" id="Shape"></path>
                <path d="M1761,480 C1754,468 1813,437 1826,445 C1832,449 1834,455 1831,460 C1823,474 1767,490 1761,480 L1761,480 Z" id="Shape"></path>
                <path d="M1651,450 C1644,439 1686,419 1700,428 C1705,431 1701,439 1691,447 C1669,463 1659,463 1651,450 L1651,450 Z" id="Shape"></path>
                <path d="M1851,440 C1844,428 1883,407 1896,415 C1902,419 1904,425 1901,429 C1894,442 1857,449 1851,440 L1851,440 Z" id="Shape"></path>
                <path d="M1721,421 C1714,409 1733,397 1746,405 C1757,412 1750,430 1736,430 C1731,430 1725,426 1721,421 L1721,421 Z" id="Shape"></path>
                <path d="M993,414 C984,404 1015,348 1026,355 C1032,359 1030,373 1021,391 C1004,422 1003,423 993,414 L993,414 Z" id="Shape"></path>
                <path d="M1923,414 C1920,411 1922,400 1928,390 C1937,376 1937,368 1927,357 C1919,346 1918,340 1926,335 C1941,326 1966,348 1966,370 C1966,389 1933,423 1923,414 L1923,414 Z" id="Shape"></path>
                <path d="M1771,401 C1764,388 1803,367 1818,376 C1825,381 1823,387 1811,397 C1789,412 1779,413 1771,401 L1771,401 Z" id="Shape"></path>
                <path d="M1861,361 C1854,349 1873,337 1886,345 C1897,352 1890,370 1876,370 C1871,370 1865,366 1861,361 L1861,361 Z" id="Shape"></path>
                <path d="M1031,330 C1027,324 1028,314 1034,308 C1040,302 1046,302 1051,310 C1055,316 1054,326 1048,332 C1042,338 1036,338 1031,330 L1031,330 Z" id="Shape"></path>
                <path d="M972,292 C963,277 984,238 997,245 C1009,253 1008,263 993,285 C983,297 977,299 972,292 L972,292 Z" id="Shape"></path>
                <path d="M1051,280 C1043,267 1064,228 1076,235 C1085,241 1078,278 1065,285 C1061,288 1055,286 1051,280 L1051,280 Z" id="Shape"></path>
                <path d="M1004,224 C995,210 1015,168 1026,175 C1039,183 1039,193 1023,215 C1015,225 1007,229 1004,224 L1004,224 Z" id="Shape"></path>
                <path d="M1081,210 C1077,204 1078,194 1084,188 C1090,182 1096,182 1101,190 C1105,196 1104,206 1098,212 C1092,218 1086,218 1081,210 L1081,210 Z" id="Shape"></path>
                <path d="M1101,161 C1097,153 1100,142 1109,133 C1128,113 1139,132 1122,155 C1112,169 1107,170 1101,161 L1101,161 Z" id="Shape"></path>
                <path d="M1034,154 C1025,140 1045,98 1056,105 C1069,113 1069,123 1053,145 C1045,155 1037,159 1034,154 L1034,154 Z" id="Shape"></path>
                <path d="M1131,90 C1127,84 1128,74 1134,68 C1140,62 1146,62 1151,70 C1155,76 1154,86 1148,92 C1142,98 1136,98 1131,90 L1131,90 Z" id="Shape"></path>
                <path d="M1071,60 C1067,54 1068,44 1074,38 C1080,32 1086,32 1091,40 C1095,46 1094,56 1088,62 C1082,68 1076,68 1071,60 L1071,60 Z" id="Shape"></path>
                <path d="M1091,21 C1084,8 1108,-3 1131,2 C1140,3 1147,10 1147,15 C1147,29 1099,34 1091,21 L1091,21 Z" id="Shape"></path>
            </g>
            <g id="layer2" transform="translate(270.000000, 1099.000000)" fill="#252E4D">
                <path d="M3135,1923 C3133,1921 3105,1918 3073,1915 C3041,1913 2997,1909 2975,1906 C2953,1903 2922,1899 2905,1897 C2889,1895 2850,1889 2820,1882 C2790,1876 2749,1869 2730,1867 C2711,1864 2695,1861 2695,1860 C2695,1859 2686,1857 2675,1855 C2664,1853 2617,1840 2570,1826 C2523,1812 2469,1798 2450,1796 C2431,1793 2407,1785 2395,1778 C2384,1770 2346,1754 2310,1742 C2274,1729 2212,1703 2172,1685 C2132,1666 2097,1651 2093,1651 C2079,1651 1802,1507 1786,1491 C1781,1486 1769,1481 1760,1481 C1751,1481 1735,1472 1725,1461 C1715,1450 1704,1441 1700,1441 C1696,1441 1624,1396 1541,1341 C1458,1286 1386,1241 1382,1241 C1378,1241 1365,1230 1353,1217 C1340,1204 1315,1186 1296,1177 C1277,1168 1260,1157 1258,1153 C1254,1142 1154,1071 1143,1071 C1138,1071 1127,1063 1118,1052 C1098,1028 904,891 891,891 C886,891 877,885 873,878 C851,841 790,822 790,852 C790,857 775,894 757,933 C739,973 718,1026 710,1051 C703,1076 693,1101 690,1106 C686,1112 677,1134 670,1156 C663,1178 649,1210 639,1227 C628,1244 620,1265 620,1274 C620,1283 608,1299 593,1310 L567,1331 L543,1309 C531,1297 520,1282 520,1276 C520,1259 568,1173 602,1130 C617,1110 630,1087 630,1080 C630,1073 637,1059 647,1049 C682,1010 771,826 764,807 C754,782 664,761 637,778 C631,781 615,786 601,787 C587,788 555,792 530,796 C482,802 451,805 275,815 C173,822 159,820 100,798 C54,781 31,766 19,745 C-22,676 6,628 111,588 C207,552 329,553 437,591 C520,620 617,665 663,695 C707,725 820,726 820,697 C820,691 829,668 841,647 C853,625 884,540 911,457 C938,374 968,290 977,271 C995,233 1015,185 1037,134 C1044,116 1056,86 1064,69 C1072,51 1081,28 1084,18 C1091,-4 1142,-5 1160,16 C1171,29 1171,37 1160,59 C1154,74 1142,100 1135,116 C1128,133 1117,160 1110,176 C1091,221 1073,263 1062,291 C1057,305 1037,345 1020,381 C1002,417 978,464 967,486 C957,508 942,533 935,541 C919,560 860,694 865,700 C868,702 876,699 883,693 C891,686 899,683 901,686 C907,691 1067,654 1084,644 C1090,640 1100,636 1105,636 C1131,635 1221,608 1226,600 C1229,595 1235,593 1240,596 C1245,599 1262,595 1278,587 C1294,579 1310,575 1313,578 C1317,581 1325,579 1332,574 C1339,568 1359,561 1375,557 C1392,553 1421,543 1440,534 C1494,511 1603,460 1620,450 C1628,445 1642,438 1650,435 C1658,432 1679,424 1695,417 C1712,410 1739,398 1755,391 C1786,379 1844,353 1891,331 C1923,316 1960,332 1960,360 C1960,380 1920,421 1901,421 C1894,421 1876,427 1862,434 C1833,449 1748,488 1715,502 C1704,506 1650,522 1595,537 C1540,551 1491,566 1485,569 C1480,573 1471,576 1465,576 C1445,576 1315,615 1303,623 C1297,628 1277,634 1259,636 C1241,639 1222,645 1216,651 C1211,656 1194,661 1180,661 C1165,661 1150,664 1147,668 C1143,671 1130,676 1117,677 C1083,681 912,726 904,733 C901,737 893,738 887,735 C880,733 862,742 845,755 C811,783 815,791 883,837 C906,853 964,894 1012,929 C1060,963 1104,991 1109,991 C1115,991 1123,997 1127,1005 C1137,1022 1304,1141 1318,1141 C1324,1141 1333,1147 1337,1154 C1346,1169 1571,1325 1630,1357 C1649,1367 1682,1388 1704,1404 C1725,1419 1751,1431 1761,1431 C1771,1431 1783,1437 1787,1445 C1796,1460 1816,1471 2042,1584 C2128,1626 2203,1661 2209,1661 C2215,1661 2228,1665 2238,1670 C2280,1693 2349,1720 2390,1731 C2415,1738 2449,1749 2465,1756 C2495,1769 2647,1810 2685,1816 C2696,1817 2713,1822 2723,1826 C2733,1830 2744,1831 2747,1828 C2750,1824 2761,1826 2770,1831 C2780,1836 2810,1843 2836,1847 C2863,1850 2901,1855 2920,1858 C3099,1881 3346,1889 3505,1877 C3581,1871 3599,1869 3680,1856 C3699,1853 3722,1850 3730,1850 C3760,1848 3850,1820 3855,1810 C3859,1805 3871,1801 3884,1801 C3909,1801 3991,1752 4031,1713 C4045,1698 4074,1674 4095,1659 C4140,1626 4170,1634 4170,1681 C4170,1723 4104,1766 3970,1812 C3934,1824 3901,1837 3895,1841 C3890,1845 3856,1856 3820,1865 C3784,1874 3748,1885 3740,1888 C3732,1891 3712,1895 3695,1897 C3679,1899 3649,1904 3630,1907 C3611,1911 3573,1915 3545,1918 C3478,1923 3139,1927 3135,1923 L3135,1923 Z M583,748 C604,746 623,741 626,739 C634,730 545,691 503,684 C482,681 460,675 455,670 C443,661 294,648 230,650 C184,652 125,668 102,684 C77,703 109,721 195,737 C201,738 207,740 210,741 C220,746 256,750 335,756 C379,760 416,763 417,765 C418,766 447,763 482,759 C517,755 562,750 583,748 L583,748 Z" id="Shape"></path>
                <path d="M1399,1176 C1337,1142 1351,1091 1449,1002 C1564,897 1618,859 1690,834 C1768,807 1786,806 1834,826 C1867,840 1871,845 1868,874 C1865,906 1865,906 1815,903 C1728,899 1606,956 1530,1035 L1495,1072 L1549,1047 C1578,1034 1607,1018 1613,1012 C1619,1006 1629,1001 1635,1001 C1642,1001 1655,992 1665,981 C1675,970 1689,961 1697,961 C1704,961 1710,957 1710,952 C1710,937 1772,910 1792,917 C1828,928 1843,998 1817,1030 C1803,1046 1805,1046 1881,1008 C1913,993 1967,951 2008,911 C2069,850 2082,842 2102,850 C2119,856 2126,867 2128,895 C2130,919 2127,933 2118,936 C2105,941 2103,968 2109,1038 C2110,1055 2149,1049 2199,1022 C2240,1000 2330,916 2377,855 C2389,839 2413,810 2430,791 C2447,772 2482,726 2506,688 C2564,602 2584,590 2617,624 C2642,648 2642,649 2625,687 C2616,709 2603,737 2598,751 C2592,765 2583,786 2577,798 C2563,828 2570,833 2600,816 C2614,808 2632,799 2640,795 C2667,782 2775,704 2794,682 C2815,659 2849,654 2868,673 C2893,698 2890,703 2782,828 C2767,845 2745,879 2734,903 C2684,1006 2677,1021 2682,1026 C2690,1034 2770,1001 2799,979 C2812,969 2828,961 2834,961 C2840,961 2869,945 2897,926 C2926,907 2952,891 2956,891 C2959,891 2973,882 2986,872 C3005,857 3018,855 3044,861 C3092,872 3098,877 3111,921 C3118,942 3128,962 3134,964 C3151,971 3284,951 3294,940 C3300,935 3312,931 3322,931 C3332,931 3348,927 3358,922 C3367,916 3401,903 3432,892 C3487,872 3493,872 3552,887 C3630,907 3657,929 3640,961 C3629,981 3624,982 3549,976 C3486,971 3460,973 3422,987 C3396,997 3371,1008 3365,1011 C3360,1015 3337,1022 3315,1026 C3293,1030 3271,1035 3266,1038 C3252,1047 3190,1054 3141,1052 C3087,1050 3045,1022 3037,981 C3030,949 3010,942 2991,965 C2984,973 2962,987 2942,996 C2922,1006 2882,1029 2854,1047 C2801,1082 2690,1121 2653,1117 C2615,1113 2590,1082 2590,1039 C2590,1018 2594,993 2599,983 C2603,974 2615,951 2625,933 C2634,915 2640,898 2638,895 C2635,893 2616,902 2596,916 C2576,930 2553,941 2546,941 C2528,941 2515,959 2501,1003 C2490,1038 2440,1091 2419,1091 C2415,1091 2403,1080 2395,1067 C2382,1047 2381,1038 2390,1021 C2396,1009 2399,993 2396,984 C2391,972 2384,975 2362,998 C2251,1111 2156,1152 2076,1121 C2045,1110 2009,1055 2018,1033 C2024,1017 2009,1022 1980,1047 C1964,1060 1838,1124 1807,1135 C1778,1144 1730,1114 1724,1082 L1718,1054 L1662,1083 C1630,1100 1598,1119 1590,1126 C1577,1138 1484,1175 1440,1187 C1432,1189 1413,1184 1399,1176 L1399,1176 Z" id="Shape"></path>
                <path d="M4223,1069 C4213,1066 4191,1062 4173,1062 C4156,1061 4139,1057 4135,1052 C4132,1047 4115,1039 4097,1036 C4080,1032 4057,1022 4047,1013 C4031,999 4023,999 3961,1014 C3865,1037 3827,1025 3816,970 C3810,938 3824,854 3844,806 C3851,790 3863,760 3870,741 C3877,722 3889,692 3896,674 C3904,657 3910,640 3910,636 C3910,632 3917,613 3926,593 C3976,479 3988,467 4025,495 C4044,509 4044,510 4026,568 C4005,634 4003,638 3946,771 C3933,803 3924,833 3903,919 C3899,935 3902,940 3911,937 C3919,935 3937,930 3952,927 C3967,924 3999,899 4024,873 C4074,820 4127,797 4165,811 C4208,827 4205,853 4156,898 C4131,921 4110,941 4110,944 C4110,952 4204,980 4251,986 C4388,1005 4630,1012 4700,1000 C4730,994 4767,988 4783,986 C4798,984 4815,979 4821,975 C4835,967 4880,1010 4880,1032 C4880,1069 4860,1071 4546,1074 C4378,1075 4233,1073 4223,1069 L4223,1069 Z" id="Shape"></path>
                <path d="M5387,1060 C5365,1047 5365,1013 5387,989 C5403,971 5404,971 5426,992 C5462,1026 5430,1083 5387,1060 L5387,1060 Z" id="Shape"></path>
                <path d="M3685,852 C3676,841 3670,822 3672,809 C3674,791 3681,786 3705,786 C3731,786 3735,790 3738,818 C3742,860 3711,880 3685,852 L3685,852 Z" id="Shape"></path>
            </g>
            <g id="layer3" fill-opacity="0" fill="#FFFFFF">
                <path d="M0,1650 L0,0 L3000,0 L6000,0 L6000,1650 L6000,3300 L3000,3300 L0,3300 L0,1650 L0,1650 Z M3941,2986 C4084,2963 4341,2871 4400,2821 C4430,2796 4433,2789 4424,2773 C4407,2747 4383,2756 4320,2810 C4174,2935 3998,2986 3665,2997 C3378,3006 3048,2964 2786,2885 C2486,2794 2148,2629 1820,2415 C1637,2296 1085,1900 1082,1886 C1080,1879 1087,1863 1097,1851 C1110,1835 1151,1820 1255,1794 C1384,1762 1744,1659 1920,1604 C1961,1592 2045,1559 2105,1532 C2191,1494 2216,1479 2218,1462 C2225,1419 2215,1422 1768,1621 C1621,1686 1147,1821 1129,1803 C1119,1793 1168,1679 1243,1539 C1312,1408 1423,1143 1416,1124 C1413,1116 1403,1110 1393,1110 C1379,1110 1358,1149 1303,1277 C1264,1370 1217,1489 1200,1543 C1156,1680 1101,1809 1081,1819 C1032,1844 993,1841 933,1806 C786,1720 690,1688 562,1682 C475,1678 449,1681 389,1700 C313,1725 290,1747 290,1795 C290,1835 317,1863 375,1885 C414,1901 441,1902 563,1897 C641,1893 761,1883 830,1874 C899,1865 963,1858 973,1858 C993,1859 1050,1897 1050,1910 C1050,1926 962,2105 921,2170 C822,2331 796,2390 819,2404 C851,2424 881,2375 958,2175 C1015,2024 1060,1928 1076,1923 C1082,1921 1232,2023 1411,2151 C1768,2406 1908,2497 2104,2604 C2539,2842 2892,2956 3330,2999 C3460,3012 3830,3004 3941,2986 L3941,2986 Z M1828,2224 C1868,2205 1921,2175 1945,2159 C1995,2125 2010,2128 2010,2171 C2010,2243 2106,2226 2248,2128 C2286,2102 2291,2101 2296,2117 C2324,2202 2355,2226 2424,2215 C2475,2207 2523,2178 2595,2111 C2641,2069 2654,2061 2666,2071 C2674,2077 2680,2079 2680,2076 C2680,2072 2685,2072 2690,2075 C2697,2079 2694,2092 2684,2110 C2664,2143 2671,2170 2700,2170 C2716,2170 2728,2155 2751,2105 C2780,2044 2785,2039 2851,2007 C2890,1989 2923,1976 2925,1980 C2927,1984 2920,2006 2908,2029 C2882,2082 2873,2164 2890,2185 C2922,2223 3032,2188 3199,2087 C3251,2055 3298,2031 3304,2033 C3310,2035 3317,2051 3321,2069 C3332,2124 3364,2137 3470,2131 C3525,2128 3604,2106 3685,2073 C3741,2049 3750,2048 3815,2058 C3873,2067 3887,2067 3900,2055 C3922,2032 3897,2015 3823,2002 C3752,1990 3747,1991 3622,2037 C3517,2075 3410,2090 3385,2070 C3377,2063 3370,2048 3370,2036 C3370,2002 3342,1970 3312,1970 C3286,1970 3267,1980 3106,2073 C3019,2124 2943,2153 2935,2140 C2918,2113 3029,1923 3105,1850 C3124,1831 3140,1808 3140,1798 C3140,1776 3113,1763 3095,1776 C3088,1781 3056,1805 3024,1829 C2945,1889 2829,1960 2819,1955 C2815,1952 2829,1905 2850,1850 C2872,1795 2887,1743 2884,1735 C2870,1699 2839,1723 2756,1835 C2573,2080 2425,2201 2372,2148 C2355,2131 2357,2054 2376,2025 C2385,2011 2389,1993 2385,1980 C2375,1949 2329,1957 2313,1991 C2290,2039 2115,2158 2084,2146 C2073,2142 2071,2133 2075,2118 C2079,2105 2084,2088 2086,2079 C2091,2061 2066,2030 2046,2030 C2040,2030 1996,2055 1950,2086 C1761,2211 1678,2229 1801,2118 C1900,2029 2054,1957 2075,1990 C2078,1996 2092,2000 2106,2000 C2125,2000 2130,1995 2130,1977 C2130,1927 2041,1916 1948,1954 C1824,2005 1650,2160 1650,2220 C1650,2280 1707,2281 1828,2224 L1828,2224 Z M5084,2154 C5123,2148 5130,2144 5130,2125 C5130,2093 5115,2090 5025,2105 C4981,2113 4911,2121 4870,2123 C4782,2128 4527,2107 4455,2089 C4406,2077 4350,2054 4350,2045 C4350,2043 4370,2027 4394,2011 C4440,1979 4453,1959 4444,1935 C4429,1898 4338,1929 4292,1988 C4258,2030 4175,2069 4157,2051 C4145,2039 4170,1955 4236,1786 C4292,1644 4299,1605 4267,1605 C4236,1605 4100,1959 4100,2040 C4100,2109 4143,2126 4235,2094 C4279,2079 4282,2080 4333,2105 C4426,2150 4493,2158 4776,2159 C4920,2160 5058,2157 5084,2154 L5084,2154 Z M5698,2116 C5696,2103 5688,2095 5675,2095 C5652,2095 5642,2129 5661,2140 C5681,2153 5701,2139 5698,2116 L5698,2116 Z M3984,1944 C4011,1934 4004,1900 3975,1900 C3957,1900 3950,1905 3950,1918 C3950,1947 3959,1954 3984,1944 L3984,1944 Z" id="Shape"></path>
                <path d="M555,1870 C474,1858 376,1829 358,1813 C336,1793 348,1776 399,1752 C426,1740 464,1736 550,1736 C674,1736 764,1756 877,1805 C929,1829 933,1833 917,1844 C888,1866 646,1883 555,1870 L555,1870 Z" id="Shape"></path>
                <path d="M1040,1865 C1030,1853 1031,1849 1045,1844 C1068,1835 1085,1854 1067,1869 C1056,1878 1050,1877 1040,1865 L1040,1865 Z" id="Shape"></path>
            </g>
        </g>
    </g>
</svg>